<?xml version="1.0" encoding="UTF-8" standalone="no"?>
<svg
   width="595.275591"
   height="841.889764"
   viewBox="0 0 595.275591 841.889764"
   version="1.1"
   id="svg195"
   sodipodi:docname="PCB_PROTO_TOYTOA.svg"
   inkscape:version="1.4.3 (0d15f75042, 2025-12-25)"
   xmlns:inkscape="http://www.inkscape.org/namespaces/inkscape"
   xmlns:sodipodi="http://sodipodi.sourceforge.net/DTD/sodipodi-0.dtd"
   xmlns:xlink="http://www.w3.org/1999/xlink"
   xmlns="http://www.w3.org/2000/svg"
   xmlns:svg="http://www.w3.org/2000/svg">
  <sodipodi:namedview
     id="namedview195"
     pagecolor="#ffffff"
     bordercolor="#000000"
     borderopacity="0.25"
     inkscape:showpageshadow="2"
     inkscape:pageopacity="0.0"
     inkscape:pagecheckerboard="0"
     inkscape:deskcolor="#d1d1d1"
     inkscape:zoom="1.9989721"
     inkscape:cx="392.45171"
     inkscape:cy="280.89437"
     inkscape:window-width="1536"
     inkscape:window-height="804"
     inkscape:window-x="0"
     inkscape:window-y="0"
     inkscape:window-maximized="1"
     inkscape:current-layer="svg195" />
  <defs
     id="defs5">
    <filter
       id="filter-remove-color-and-invert-alpha"
       x="0"
       y="0"
       width="1"
       height="1">
      <feColorMatrix
         color-interpolation-filters="sRGB"
         values="0 0 0 0 1 0 0 0 0 1 0 0 0 0 1 0 0 0 -1 1"
         id="feColorMatrix1" />
    </filter>
    <filter
       id="filter-0"
       x="0"
       y="0"
       width="1"
       height="1">
      <feImage
         xlink:href="#compositing-group-1"
         result="source"
         x="0"
         y="0"
         width="714.330709"
         height="1010.267717"
         id="feImage1" />
      <feImage
         xlink:href="#compositing-group-2"
         result="destination"
         x="0"
         y="0"
         width="714.330709"
         height="1010.267717"
         id="feImage2" />
      <feComposite
         in="source"
         in2="destination"
         operator="arithmetic"
         k1="0"
         k2="1"
         k3="1"
         k4="0"
         color-interpolation-filters="sRGB"
         id="feComposite2" />
    </filter>
    <g
       id="compositing-group-0"
       transform="translate(59.527559, 84.188976)">
      <rect
         x="-59.527559"
         y="-84.188976"
         width="714.330709"
         height="1010.267717"
         fill="rgb(0%, 0%, 0%)"
         fill-opacity="0"
         id="rect2" />
      <rect
         x="-59.527559"
         y="-84.188976"
         width="714.330709"
         height="1010.267717"
         fill="rgb(100%, 100%, 100%)"
         fill-opacity="1"
         id="rect3" />
    </g>
    <mask
       id="mask-0">
      <use
         xlink:href="#compositing-group-0"
         id="use3" />
    </mask>
    <mask
       id="mask-1">
      <use
         xlink:href="#compositing-group-0"
         filter="url(#filter-remove-color-and-invert-alpha)"
         id="use4" />
    </mask>
    <g
       id="compositing-group-1"
       mask="url(#mask-0)">
      <g
         transform="translate(59.527559, 84.188976)"
         id="g4">
        <rect
           x="-59.527559"
           y="-84.188976"
           width="714.330709"
           height="1010.267717"
           fill="rgb(0%, 6.27451%, 13.72549%)"
           fill-opacity="1"
           id="rect4" />
      </g>
    </g>
    <g
       id="compositing-group-2"
       mask="url(#mask-1)">
      <g
         transform="translate(59.527559, 84.188976)"
         id="g5" />
    </g>
  </defs>
  <path
     fill="none"
     stroke-width="9"
     stroke-linecap="round"
     stroke-linejoin="round"
     stroke="rgb(81.568627%, 82.352941%, 80.392157%)"
     stroke-opacity="1"
     stroke-miterlimit="10"
     d="M 21814.583333 12046.614583 L 34314.583333 12046.614583 "
     transform="matrix(0.015, 0, 0, 0.015, 0, 0)"
     id="path6" />
  <path
     fill="none"
     stroke-width="9"
     stroke-linecap="round"
     stroke-linejoin="round"
     stroke="rgb(81.568627%, 82.352941%, 80.392157%)"
     stroke-opacity="1"
     stroke-miterlimit="10"
     d="M 34314.583333 12046.614583 L 34314.583333 27634.375 "
     transform="matrix(0.015, 0, 0, 0.015, 0, 0)"
     id="path7" />
  <path
     fill="none"
     stroke-width="9"
     stroke-linecap="round"
     stroke-linejoin="round"
     stroke="rgb(81.568627%, 82.352941%, 80.392157%)"
     stroke-opacity="1"
     stroke-miterlimit="10"
     d="M 34314.583333 27634.375 L 21814.583333 27634.375 "
     transform="matrix(0.015, 0, 0, 0.015, 0, 0)"
     id="path8" />
  <path
     fill="none"
     stroke-width="9"
     stroke-linecap="round"
     stroke-linejoin="round"
     stroke="rgb(81.568627%, 82.352941%, 80.392157%)"
     stroke-opacity="1"
     stroke-miterlimit="10"
     d="M 21814.583333 27634.375 L 21814.583333 12046.614583 "
     transform="matrix(0.015, 0, 0, 0.015, 0, 0)"
     id="path9" />
  <path
     fill-rule="nonzero"
     fill="rgb(0%, 0%, 0%)"
     fill-opacity="1"
     d="M 348.75 197.664062 C 348.75 200.167969 346.71875 202.199219 344.210938 202.199219 C 341.707031 202.199219 339.675781 200.167969 339.675781 197.664062 C 339.675781 195.15625 341.707031 193.125 344.210938 193.125 C 346.71875 193.125 348.75 195.15625 348.75 197.664062 Z M 348.75 197.664062 "
     id="path10" />
  <path
     fill-rule="nonzero"
     fill="rgb(0%, 0%, 0%)"
     fill-opacity="1"
     d="M 439.46875 191.707031 C 439.46875 194.214844 437.4375 196.246094 434.933594 196.246094 C 432.425781 196.246094 430.394531 194.214844 430.394531 191.707031 C 430.394531 189.203125 432.425781 187.171875 434.933594 187.171875 C 437.4375 187.171875 439.46875 189.203125 439.46875 191.707031 Z M 439.46875 191.707031 "
     id="path11" />
  <path
     fill-rule="nonzero"
     fill="rgb(0%, 0%, 0%)"
     fill-opacity="1"
     d="M 439.46875 291.773438 C 439.46875 294.277344 437.4375 296.308594 434.933594 296.308594 C 432.425781 296.308594 430.394531 294.277344 430.394531 291.773438 C 430.394531 289.265625 432.425781 287.234375 434.933594 287.234375 C 437.4375 287.234375 439.46875 289.265625 439.46875 291.773438 Z M 439.46875 291.773438 "
     id="path12" />
  <path
     fill-rule="nonzero"
     fill="rgb(0%, 0%, 0%)"
     fill-opacity="1"
     d="M 505.515625 291.773438 C 505.515625 294.277344 503.484375 296.308594 500.976562 296.308594 C 498.472656 296.308594 496.441406 294.277344 496.441406 291.773438 C 496.441406 289.265625 498.472656 287.234375 500.976562 287.234375 C 503.484375 287.234375 505.515625 289.265625 505.515625 291.773438 Z M 505.515625 291.773438 "
     id="path13" />
  <path
     fill-rule="nonzero"
     fill="rgb(0%, 0%, 0%)"
     fill-opacity="1"
     d="M 505.515625 191.40625 C 505.515625 193.914062 503.484375 195.945312 500.976562 195.945312 C 498.472656 195.945312 496.441406 193.914062 496.441406 191.40625 C 496.441406 188.902344 498.472656 186.871094 500.976562 186.871094 C 503.484375 186.871094 505.515625 188.902344 505.515625 191.40625 Z M 505.515625 191.40625 "
     id="path14" />
  <path
     fill-rule="nonzero"
     fill="rgb(0%, 0%, 0%)"
     fill-opacity="1"
     d="M 502.261719 397.507812 C 502.261719 400.011719 500.226562 402.046875 497.722656 402.046875 C 495.214844 402.046875 493.183594 400.011719 493.183594 397.507812 C 493.183594 395 495.214844 392.96875 497.722656 392.96875 C 500.226562 392.96875 502.261719 395 502.261719 397.507812 Z M 502.261719 397.507812 "
     id="path15" />
  <path
     fill-rule="nonzero"
     fill="rgb(0%, 0%, 0%)"
     fill-opacity="1"
     d="M 336.511719 338.992188 C 336.511719 339.824219 335.835938 340.5 335.003906 340.5 C 334.171875 340.5 333.496094 339.824219 333.496094 338.992188 C 333.496094 338.160156 334.171875 337.484375 335.003906 337.484375 C 335.835938 337.484375 336.511719 338.160156 336.511719 338.992188 Z M 336.511719 338.992188 "
     id="path16" />
  <path
     fill-rule="nonzero"
     fill="rgb(0%, 0%, 0%)"
     fill-opacity="1"
     d="M 336.511719 346.191406 C 336.511719 347.023438 335.835938 347.699219 335.003906 347.699219 C 334.171875 347.699219 333.496094 347.023438 333.496094 346.191406 C 333.496094 345.359375 334.171875 344.683594 335.003906 344.683594 C 335.835938 344.683594 336.511719 345.359375 336.511719 346.191406 Z M 336.511719 346.191406 "
     id="path17" />
  <path
     fill-rule="nonzero"
     fill="rgb(0%, 0%, 0%)"
     fill-opacity="1"
     d="M 336.511719 353.390625 C 336.511719 354.226562 335.835938 354.898438 335.003906 354.898438 C 334.171875 354.898438 333.496094 354.226562 333.496094 353.390625 C 333.496094 352.558594 334.171875 351.886719 335.003906 351.886719 C 335.835938 351.886719 336.511719 352.558594 336.511719 353.390625 Z M 336.511719 353.390625 "
     id="path18" />
  <path
     fill-rule="nonzero"
     fill="rgb(0%, 0%, 0%)"
     fill-opacity="1"
     d="M 336.511719 324.59375 C 336.511719 325.425781 335.835938 326.101562 335.003906 326.101562 C 334.171875 326.101562 333.496094 325.425781 333.496094 324.59375 C 333.496094 323.761719 334.171875 323.085938 335.003906 323.085938 C 335.835938 323.085938 336.511719 323.761719 336.511719 324.59375 Z M 336.511719 324.59375 "
     id="path19" />
  <path
     fill-rule="nonzero"
     fill="rgb(0%, 0%, 0%)"
     fill-opacity="1"
     d="M 336.511719 331.792969 C 336.511719 332.625 335.835938 333.300781 335.003906 333.300781 C 334.171875 333.300781 333.496094 332.625 333.496094 331.792969 C 333.496094 330.960938 334.171875 330.285156 335.003906 330.285156 C 335.835938 330.285156 336.511719 330.960938 336.511719 331.792969 Z M 336.511719 331.792969 "
     id="path20" />
  <path
     fill-rule="nonzero"
     fill="rgb(0%, 0%, 0%)"
     fill-opacity="1"
     d="M 336.511719 360.59375 C 336.511719 361.425781 335.835938 362.101562 335.003906 362.101562 C 334.171875 362.101562 333.496094 361.425781 333.496094 360.59375 C 333.496094 359.761719 334.171875 359.085938 335.003906 359.085938 C 335.835938 359.085938 336.511719 359.761719 336.511719 360.59375 Z M 336.511719 360.59375 "
     id="path21" />
  <path
     fill-rule="nonzero"
     fill="rgb(0%, 0%, 0%)"
     fill-opacity="1"
     d="M 336.511719 367.792969 C 336.511719 368.625 335.835938 369.300781 335.003906 369.300781 C 334.171875 369.300781 333.496094 368.625 333.496094 367.792969 C 333.496094 366.960938 334.171875 366.285156 335.003906 366.285156 C 335.835938 366.285156 336.511719 366.960938 336.511719 367.792969 Z M 336.511719 367.792969 "
     id="path22" />
  <path
     fill-rule="nonzero"
     fill="rgb(0%, 0%, 0%)"
     fill-opacity="1"
     d="M 336.511719 374.992188 C 336.511719 375.824219 335.835938 376.5 335.003906 376.5 C 334.171875 376.5 333.496094 375.824219 333.496094 374.992188 C 333.496094 374.160156 334.171875 373.484375 335.003906 373.484375 C 335.835938 373.484375 336.511719 374.160156 336.511719 374.992188 Z M 336.511719 374.992188 "
     id="path23" />
  <path
     fill-rule="nonzero"
     fill="rgb(0%, 0%, 0%)"
     fill-opacity="1"
     d="M 336.511719 382.191406 C 336.511719 383.023438 335.835938 383.699219 335.003906 383.699219 C 334.171875 383.699219 333.496094 383.023438 333.496094 382.191406 C 333.496094 381.359375 334.171875 380.683594 335.003906 380.683594 C 335.835938 380.683594 336.511719 381.359375 336.511719 382.191406 Z M 336.511719 382.191406 "
     id="path24" />
  <path
     fill-rule="nonzero"
     fill="rgb(0%, 0%, 0%)"
     fill-opacity="1"
     d="M 336.511719 389.390625 C 336.511719 390.226562 335.835938 390.898438 335.003906 390.898438 C 334.171875 390.898438 333.496094 390.226562 333.496094 389.390625 C 333.496094 388.558594 334.171875 387.886719 335.003906 387.886719 C 335.835938 387.886719 336.511719 388.558594 336.511719 389.390625 Z M 336.511719 389.390625 "
     id="path25" />
  <path
     fill-rule="nonzero"
     fill="rgb(0%, 0%, 0%)"
     fill-opacity="1"
     d="M 336.511719 396.59375 C 336.511719 397.425781 335.835938 398.101562 335.003906 398.101562 C 334.171875 398.101562 333.496094 397.425781 333.496094 396.59375 C 333.496094 395.761719 334.171875 395.085938 335.003906 395.085938 C 335.835938 395.085938 336.511719 395.761719 336.511719 396.59375 Z M 336.511719 396.59375 "
     id="path26" />
  <path
     fill-rule="nonzero"
     fill="rgb(0%, 0%, 0%)"
     fill-opacity="1"
     d="M 408.796875 346.191406 C 408.796875 347.023438 408.121094 347.699219 407.289062 347.699219 C 406.453125 347.699219 405.78125 347.023438 405.78125 346.191406 C 405.78125 345.359375 406.453125 344.683594 407.289062 344.683594 C 408.121094 344.683594 408.796875 345.359375 408.796875 346.191406 Z M 408.796875 346.191406 "
     id="path27" />
  <path
     fill-rule="nonzero"
     fill="rgb(0%, 0%, 0%)"
     fill-opacity="1"
     d="M 408.796875 324.59375 C 408.796875 325.425781 408.121094 326.101562 407.289062 326.101562 C 406.453125 326.101562 405.78125 325.425781 405.78125 324.59375 C 405.78125 323.761719 406.453125 323.085938 407.289062 323.085938 C 408.121094 323.085938 408.796875 323.761719 408.796875 324.59375 Z M 408.796875 324.59375 "
     id="path28" />
  <path
     fill-rule="nonzero"
     fill="rgb(0%, 0%, 0%)"
     fill-opacity="1"
     d="M 408.796875 331.792969 C 408.796875 332.625 408.121094 333.300781 407.289062 333.300781 C 406.453125 333.300781 405.78125 332.625 405.78125 331.792969 C 405.78125 330.960938 406.453125 330.285156 407.289062 330.285156 C 408.121094 330.285156 408.796875 330.960938 408.796875 331.792969 Z M 408.796875 331.792969 "
     id="path29" />
  <path
     fill-rule="nonzero"
     fill="rgb(0%, 0%, 0%)"
     fill-opacity="1"
     d="M 408.796875 338.992188 C 408.796875 339.824219 408.121094 340.5 407.289062 340.5 C 406.453125 340.5 405.78125 339.824219 405.78125 338.992188 C 405.78125 338.160156 406.453125 337.484375 407.289062 337.484375 C 408.121094 337.484375 408.796875 338.160156 408.796875 338.992188 Z M 408.796875 338.992188 "
     id="path30" />
  <path
     fill-rule="nonzero"
     fill="rgb(0%, 0%, 0%)"
     fill-opacity="1"
     d="M 408.796875 353.390625 C 408.796875 354.226562 408.121094 354.898438 407.289062 354.898438 C 406.453125 354.898438 405.78125 354.226562 405.78125 353.390625 C 405.78125 352.558594 406.453125 351.886719 407.289062 351.886719 C 408.121094 351.886719 408.796875 352.558594 408.796875 353.390625 Z M 408.796875 353.390625 "
     id="path31" />
  <path
     fill-rule="nonzero"
     fill="rgb(0%, 0%, 0%)"
     fill-opacity="1"
     d="M 408.796875 360.59375 C 408.796875 361.425781 408.121094 362.101562 407.289062 362.101562 C 406.453125 362.101562 405.78125 361.425781 405.78125 360.59375 C 405.78125 359.761719 406.453125 359.085938 407.289062 359.085938 C 408.121094 359.085938 408.796875 359.761719 408.796875 360.59375 Z M 408.796875 360.59375 "
     id="path32" />
  <path
     fill-rule="nonzero"
     fill="rgb(0%, 0%, 0%)"
     fill-opacity="1"
     d="M 408.796875 382.191406 C 408.796875 383.023438 408.121094 383.699219 407.289062 383.699219 C 406.453125 383.699219 405.78125 383.023438 405.78125 382.191406 C 405.78125 381.359375 406.453125 380.683594 407.289062 380.683594 C 408.121094 380.683594 408.796875 381.359375 408.796875 382.191406 Z M 408.796875 382.191406 "
     id="path33" />
  <path
     fill-rule="nonzero"
     fill="rgb(0%, 0%, 0%)"
     fill-opacity="1"
     d="M 408.796875 367.792969 C 408.796875 368.625 408.121094 369.300781 407.289062 369.300781 C 406.453125 369.300781 405.78125 368.625 405.78125 367.792969 C 405.78125 366.960938 406.453125 366.285156 407.289062 366.285156 C 408.121094 366.285156 408.796875 366.960938 408.796875 367.792969 Z M 408.796875 367.792969 "
     id="path34" />
  <path
     fill-rule="nonzero"
     fill="rgb(0%, 0%, 0%)"
     fill-opacity="1"
     d="M 408.796875 389.390625 C 408.796875 390.226562 408.121094 390.898438 407.289062 390.898438 C 406.453125 390.898438 405.78125 390.226562 405.78125 389.390625 C 405.78125 388.558594 406.453125 387.886719 407.289062 387.886719 C 408.121094 387.886719 408.796875 388.558594 408.796875 389.390625 Z M 408.796875 389.390625 "
     id="path35" />
  <path
     fill-rule="nonzero"
     fill="rgb(0%, 0%, 0%)"
     fill-opacity="1"
     d="M 408.796875 374.992188 C 408.796875 375.824219 408.121094 376.5 407.289062 376.5 C 406.453125 376.5 405.78125 375.824219 405.78125 374.992188 C 405.78125 374.160156 406.453125 373.484375 407.289062 373.484375 C 408.121094 373.484375 408.796875 374.160156 408.796875 374.992188 Z M 408.796875 374.992188 "
     id="path36" />
  <path
     fill-rule="nonzero"
     fill="rgb(0%, 0%, 0%)"
     fill-opacity="1"
     d="M 408.796875 396.59375 C 408.796875 397.425781 408.121094 398.101562 407.289062 398.101562 C 406.453125 398.101562 405.78125 397.425781 405.78125 396.59375 C 405.78125 395.761719 406.453125 395.085938 407.289062 395.085938 C 408.121094 395.085938 408.796875 395.761719 408.796875 396.59375 Z M 408.796875 396.59375 "
     id="path37" />
  <path
     fill-rule="nonzero"
     fill="rgb(0%, 0%, 0%)"
     fill-opacity="1"
     d="M 501.226562 345.21875 C 501.226562 346.050781 500.550781 346.726562 499.71875 346.726562 C 498.886719 346.726562 498.210938 346.050781 498.210938 345.21875 C 498.210938 344.386719 498.886719 343.710938 499.71875 343.710938 C 500.550781 343.710938 501.226562 344.386719 501.226562 345.21875 Z M 501.226562 345.21875 "
     id="path38" />
  <path
     fill-rule="nonzero"
     fill="rgb(0%, 0%, 0%)"
     fill-opacity="1"
     d="M 501.226562 316.417969 C 501.226562 317.25 500.550781 317.925781 499.71875 317.925781 C 498.886719 317.925781 498.210938 317.25 498.210938 316.417969 C 498.210938 315.585938 498.886719 314.910156 499.71875 314.910156 C 500.550781 314.910156 501.226562 315.585938 501.226562 316.417969 Z M 501.226562 316.417969 "
     id="path39" />
  <path
     fill-rule="nonzero"
     fill="rgb(0%, 0%, 0%)"
     fill-opacity="1"
     d="M 501.226562 338.015625 C 501.226562 338.851562 500.550781 339.523438 499.71875 339.523438 C 498.886719 339.523438 498.210938 338.851562 498.210938 338.015625 C 498.210938 337.183594 498.886719 336.511719 499.71875 336.511719 C 500.550781 336.511719 501.226562 337.183594 501.226562 338.015625 Z M 501.226562 338.015625 "
     id="path40" />
  <path
     fill-rule="nonzero"
     fill="rgb(0%, 0%, 0%)"
     fill-opacity="1"
     d="M 501.226562 330.816406 C 501.226562 331.648438 500.550781 332.324219 499.71875 332.324219 C 498.886719 332.324219 498.210938 331.648438 498.210938 330.816406 C 498.210938 329.984375 498.886719 329.308594 499.71875 329.308594 C 500.550781 329.308594 501.226562 329.984375 501.226562 330.816406 Z M 501.226562 330.816406 "
     id="path41" />
  <path
     fill-rule="nonzero"
     fill="rgb(0%, 0%, 0%)"
     fill-opacity="1"
     d="M 501.226562 323.617188 C 501.226562 324.449219 500.550781 325.125 499.71875 325.125 C 498.886719 325.125 498.210938 324.449219 498.210938 323.617188 C 498.210938 322.785156 498.886719 322.109375 499.71875 322.109375 C 500.550781 322.109375 501.226562 322.785156 501.226562 323.617188 Z M 501.226562 323.617188 "
     id="path42" />
  <path
     fill-rule="nonzero"
     fill="rgb(0%, 0%, 0%)"
     fill-opacity="1"
     d="M 501.226562 352.417969 C 501.226562 353.25 500.550781 353.925781 499.71875 353.925781 C 498.886719 353.925781 498.210938 353.25 498.210938 352.417969 C 498.210938 351.585938 498.886719 350.910156 499.71875 350.910156 C 500.550781 350.910156 501.226562 351.585938 501.226562 352.417969 Z M 501.226562 352.417969 "
     id="path43" />
  <path
     fill-rule="nonzero"
     fill="rgb(0%, 0%, 0%)"
     fill-opacity="1"
     d="M 428.070312 332.015625 C 428.070312 332.851562 427.394531 333.523438 426.5625 333.523438 C 425.730469 333.523438 425.054688 332.851562 425.054688 332.015625 C 425.054688 331.183594 425.730469 330.511719 426.5625 330.511719 C 427.394531 330.511719 428.070312 331.183594 428.070312 332.015625 Z M 428.070312 332.015625 "
     id="path44" />
  <path
     fill-rule="nonzero"
     fill="rgb(0%, 0%, 0%)"
     fill-opacity="1"
     d="M 428.070312 353.617188 C 428.070312 354.449219 427.394531 355.125 426.5625 355.125 C 425.730469 355.125 425.054688 354.449219 425.054688 353.617188 C 425.054688 352.785156 425.730469 352.109375 426.5625 352.109375 C 427.394531 352.109375 428.070312 352.785156 428.070312 353.617188 Z M 428.070312 353.617188 "
     id="path45" />
  <path
     fill-rule="nonzero"
     fill="rgb(0%, 0%, 0%)"
     fill-opacity="1"
     d="M 428.070312 346.417969 C 428.070312 347.25 427.394531 347.925781 426.5625 347.925781 C 425.730469 347.925781 425.054688 347.25 425.054688 346.417969 C 425.054688 345.585938 425.730469 344.910156 426.5625 344.910156 C 427.394531 344.910156 428.070312 345.585938 428.070312 346.417969 Z M 428.070312 346.417969 "
     id="path46" />
  <path
     fill-rule="nonzero"
     fill="rgb(0%, 0%, 0%)"
     fill-opacity="1"
     d="M 428.070312 339.21875 C 428.070312 340.050781 427.394531 340.726562 426.5625 340.726562 C 425.730469 340.726562 425.054688 340.050781 425.054688 339.21875 C 425.054688 338.386719 425.730469 337.710938 426.5625 337.710938 C 427.394531 337.710938 428.070312 338.386719 428.070312 339.21875 Z M 428.070312 339.21875 "
     id="path47" />
  <path
     fill-rule="nonzero"
     fill="rgb(0%, 0%, 0%)"
     fill-opacity="1"
     d="M 428.070312 324.816406 C 428.070312 325.648438 427.394531 326.324219 426.5625 326.324219 C 425.730469 326.324219 425.054688 325.648438 425.054688 324.816406 C 425.054688 323.984375 425.730469 323.308594 426.5625 323.308594 C 427.394531 323.308594 428.070312 323.984375 428.070312 324.816406 Z M 428.070312 324.816406 "
     id="path48" />
  <path
     fill-rule="nonzero"
     fill="rgb(0%, 0%, 0%)"
     fill-opacity="1"
     d="M 456.421875 317.617188 C 456.421875 318.449219 455.746094 319.125 454.914062 319.125 C 454.078125 319.125 453.40625 318.449219 453.40625 317.617188 C 453.40625 316.785156 454.078125 316.109375 454.914062 316.109375 C 455.746094 316.109375 456.421875 316.785156 456.421875 317.617188 Z M 456.421875 317.617188 "
     id="path49" />
  <path
     fill-rule="nonzero"
     fill="rgb(0%, 0%, 0%)"
     fill-opacity="1"
     d="M 471.75 323.617188 C 471.75 324.449219 471.074219 325.125 470.242188 325.125 C 469.410156 325.125 468.734375 324.449219 468.734375 323.617188 C 468.734375 322.785156 469.410156 322.109375 470.242188 322.109375 C 471.074219 322.109375 471.75 322.785156 471.75 323.617188 Z M 471.75 323.617188 "
     id="path50" />
  <path
     fill-rule="nonzero"
     fill="rgb(0%, 0%, 0%)"
     fill-opacity="1"
     d="M 456.421875 332.015625 C 456.421875 332.851562 455.746094 333.523438 454.914062 333.523438 C 454.078125 333.523438 453.40625 332.851562 453.40625 332.015625 C 453.40625 331.183594 454.078125 330.511719 454.914062 330.511719 C 455.746094 330.511719 456.421875 331.183594 456.421875 332.015625 Z M 456.421875 332.015625 "
     id="path51" />
  <path
     fill-rule="nonzero"
     fill="rgb(0%, 0%, 0%)"
     fill-opacity="1"
     d="M 456.421875 324.816406 C 456.421875 325.648438 455.746094 326.324219 454.914062 326.324219 C 454.078125 326.324219 453.40625 325.648438 453.40625 324.816406 C 453.40625 323.984375 454.078125 323.308594 454.914062 323.308594 C 455.746094 323.308594 456.421875 323.984375 456.421875 324.816406 Z M 456.421875 324.816406 "
     id="path52" />
  <path
     fill-rule="nonzero"
     fill="rgb(0%, 0%, 0%)"
     fill-opacity="1"
     d="M 471.75 316.417969 C 471.75 317.25 471.074219 317.925781 470.242188 317.925781 C 469.410156 317.925781 468.734375 317.25 468.734375 316.417969 C 468.734375 315.585938 469.410156 314.910156 470.242188 314.910156 C 471.074219 314.910156 471.75 315.585938 471.75 316.417969 Z M 471.75 316.417969 "
     id="path53" />
  <path
     fill-rule="nonzero"
     fill="rgb(0%, 0%, 0%)"
     fill-opacity="1"
     d="M 471.75 330.816406 C 471.75 331.648438 471.074219 332.324219 470.242188 332.324219 C 469.410156 332.324219 468.734375 331.648438 468.734375 330.816406 C 468.734375 329.984375 469.410156 329.308594 470.242188 329.308594 C 471.074219 329.308594 471.75 329.984375 471.75 330.816406 Z M 471.75 330.816406 "
     id="path54" />
  <path
     fill-rule="nonzero"
     fill="rgb(0%, 0%, 0%)"
     fill-opacity="1"
     d="M 472.710938 387.382812 C 472.710938 388.023438 472.191406 388.546875 471.546875 388.546875 C 470.90625 388.546875 470.386719 388.023438 470.386719 387.382812 C 470.386719 386.742188 470.90625 386.21875 471.546875 386.21875 C 472.191406 386.21875 472.710938 386.742188 472.710938 387.382812 Z M 472.710938 387.382812 "
     id="path55" />
  <path
     fill-rule="nonzero"
     fill="rgb(0%, 0%, 0%)"
     fill-opacity="1"
     d="M 452.59375 389.289062 C 452.59375 390.121094 451.921875 390.796875 451.085938 390.796875 C 450.253906 390.796875 449.578125 390.121094 449.578125 389.289062 C 449.578125 388.453125 450.253906 387.78125 451.085938 387.78125 C 451.921875 387.78125 452.59375 388.453125 452.59375 389.289062 Z M 452.59375 389.289062 "
     id="path56" />
  <path
     fill-rule="nonzero"
     fill="rgb(0%, 0%, 0%)"
     fill-opacity="1"
     d="M 482.070312 375.953125 C 482.070312 376.628906 481.523438 377.175781 480.847656 377.175781 C 480.171875 377.175781 479.625 376.628906 479.625 375.953125 C 479.625 375.277344 480.171875 374.730469 480.847656 374.730469 C 481.523438 374.730469 482.070312 375.277344 482.070312 375.953125 Z M 482.070312 375.953125 "
     id="path57" />
  <path
     fill-rule="nonzero"
     fill="rgb(0%, 0%, 0%)"
     fill-opacity="1"
     d="M 431.054688 389.289062 C 431.054688 390.121094 430.378906 390.796875 429.546875 390.796875 C 428.714844 390.796875 428.039062 390.121094 428.039062 389.289062 C 428.039062 388.453125 428.714844 387.78125 429.546875 387.78125 C 430.378906 387.78125 431.054688 388.453125 431.054688 389.289062 Z M 431.054688 389.289062 "
     id="path58" />
  <path
     fill-rule="nonzero"
     fill="rgb(0%, 0%, 0%)"
     fill-opacity="1"
     d="M 460.46875 375.953125 C 460.46875 376.628906 459.921875 377.175781 459.246094 377.175781 C 458.574219 377.175781 458.023438 376.628906 458.023438 375.953125 C 458.023438 375.277344 458.574219 374.730469 459.246094 374.730469 C 459.921875 374.730469 460.46875 375.277344 460.46875 375.953125 Z M 460.46875 375.953125 "
     id="path59" />
  <path
     fill-rule="nonzero"
     fill="rgb(0%, 0%, 0%)"
     fill-opacity="1"
     d="M 469.109375 390.984375 C 469.109375 391.625 468.589844 392.144531 467.949219 392.144531 C 467.304688 392.144531 466.785156 391.625 466.785156 390.984375 C 466.785156 390.339844 467.304688 389.820312 467.949219 389.820312 C 468.589844 389.820312 469.109375 390.339844 469.109375 390.984375 Z M 469.109375 390.984375 "
     id="path60" />
  <path
     fill-rule="nonzero"
     fill="rgb(0%, 0%, 0%)"
     fill-opacity="1"
     d="M 465.511719 387.382812 C 465.511719 388.023438 464.988281 388.546875 464.347656 388.546875 C 463.707031 388.546875 463.183594 388.023438 463.183594 387.382812 C 463.183594 386.742188 463.707031 386.21875 464.347656 386.21875 C 464.988281 386.21875 465.511719 386.742188 465.511719 387.382812 Z M 465.511719 387.382812 "
     id="path61" />
  <path
     fill-rule="nonzero"
     fill="rgb(0%, 0%, 0%)"
     fill-opacity="1"
     d="M 483.855469 293.753906 C 483.855469 294.585938 483.179688 295.261719 482.347656 295.261719 C 481.515625 295.261719 480.839844 294.585938 480.839844 293.753906 C 480.839844 292.921875 481.515625 292.246094 482.347656 292.246094 C 483.179688 292.246094 483.855469 292.921875 483.855469 293.753906 Z M 483.855469 293.753906 "
     id="path62" />
  <path
     fill-rule="nonzero"
     fill="rgb(0%, 0%, 0%)"
     fill-opacity="1"
     d="M 447.855469 293.753906 C 447.855469 294.585938 447.179688 295.261719 446.347656 295.261719 C 445.515625 295.261719 444.839844 294.585938 444.839844 293.753906 C 444.839844 292.921875 445.515625 292.246094 446.347656 292.246094 C 447.179688 292.246094 447.855469 292.921875 447.855469 293.753906 Z M 447.855469 293.753906 "
     id="path63" />
  <path
     fill-rule="nonzero"
     fill="rgb(0%, 0%, 0%)"
     fill-opacity="1"
     d="M 455.054688 293.753906 C 455.054688 294.585938 454.378906 295.261719 453.546875 295.261719 C 452.714844 295.261719 452.039062 294.585938 452.039062 293.753906 C 452.039062 292.921875 452.714844 292.246094 453.546875 292.246094 C 454.378906 292.246094 455.054688 292.921875 455.054688 293.753906 Z M 455.054688 293.753906 "
     id="path64" />
  <path
     fill-rule="nonzero"
     fill="rgb(0%, 0%, 0%)"
     fill-opacity="1"
     d="M 462.253906 293.753906 C 462.253906 294.585938 461.578125 295.261719 460.746094 295.261719 C 459.914062 295.261719 459.238281 294.585938 459.238281 293.753906 C 459.238281 292.921875 459.914062 292.246094 460.746094 292.246094 C 461.578125 292.246094 462.253906 292.921875 462.253906 293.753906 Z M 462.253906 293.753906 "
     id="path65" />
  <path
     fill-rule="nonzero"
     fill="rgb(0%, 0%, 0%)"
     fill-opacity="1"
     d="M 469.453125 293.753906 C 469.453125 294.585938 468.78125 295.261719 467.949219 295.261719 C 467.113281 295.261719 466.441406 294.585938 466.441406 293.753906 C 466.441406 292.921875 467.113281 292.246094 467.949219 292.246094 C 468.78125 292.246094 469.453125 292.921875 469.453125 293.753906 Z M 469.453125 293.753906 "
     id="path66" />
  <path
     fill-rule="nonzero"
     fill="rgb(0%, 0%, 0%)"
     fill-opacity="1"
     d="M 476.65625 293.753906 C 476.65625 294.585938 475.980469 295.261719 475.148438 295.261719 C 474.316406 295.261719 473.640625 294.585938 473.640625 293.753906 C 473.640625 292.921875 474.316406 292.246094 475.148438 292.246094 C 475.980469 292.246094 476.65625 292.921875 476.65625 293.753906 Z M 476.65625 293.753906 "
     id="path67" />
  <path
     fill-rule="nonzero"
     fill="rgb(0%, 0%, 0%)"
     fill-opacity="1"
     d="M 491.054688 293.753906 C 491.054688 294.585938 490.378906 295.261719 489.546875 295.261719 C 488.714844 295.261719 488.039062 294.585938 488.039062 293.753906 C 488.039062 292.921875 488.714844 292.246094 489.546875 292.246094 C 490.378906 292.246094 491.054688 292.921875 491.054688 293.753906 Z M 491.054688 293.753906 "
     id="path68" />
  <path
     fill-rule="nonzero"
     fill="rgb(0%, 0%, 0%)"
     fill-opacity="1"
     d="M 456.421875 353.617188 C 456.421875 354.449219 455.746094 355.125 454.914062 355.125 C 454.078125 355.125 453.40625 354.449219 453.40625 353.617188 C 453.40625 352.785156 454.078125 352.109375 454.914062 352.109375 C 455.746094 352.109375 456.421875 352.785156 456.421875 353.617188 Z M 456.421875 353.617188 "
     id="path69" />
  <path
     fill-rule="nonzero"
     fill="rgb(0%, 0%, 0%)"
     fill-opacity="1"
     d="M 456.421875 346.417969 C 456.421875 347.25 455.746094 347.925781 454.914062 347.925781 C 454.078125 347.925781 453.40625 347.25 453.40625 346.417969 C 453.40625 345.585938 454.078125 344.910156 454.914062 344.910156 C 455.746094 344.910156 456.421875 345.585938 456.421875 346.417969 Z M 456.421875 346.417969 "
     id="path70" />
  <path
     fill-rule="nonzero"
     fill="rgb(0%, 0%, 0%)"
     fill-opacity="1"
     d="M 456.421875 339.21875 C 456.421875 340.050781 455.746094 340.726562 454.914062 340.726562 C 454.078125 340.726562 453.40625 340.050781 453.40625 339.21875 C 453.40625 338.386719 454.078125 337.710938 454.914062 337.710938 C 455.746094 337.710938 456.421875 338.386719 456.421875 339.21875 Z M 456.421875 339.21875 "
     id="path71" />
  <path
     fill-rule="nonzero"
     fill="rgb(0%, 0%, 0%)"
     fill-opacity="1"
     d="M 456.421875 360.816406 C 456.421875 361.648438 455.746094 362.324219 454.914062 362.324219 C 454.078125 362.324219 453.40625 361.648438 453.40625 360.816406 C 453.40625 359.984375 454.078125 359.308594 454.914062 359.308594 C 455.746094 359.308594 456.421875 359.984375 456.421875 360.816406 Z M 456.421875 360.816406 "
     id="path72" />
  <path
     fill-rule="nonzero"
     fill="rgb(0%, 0%, 0%)"
     fill-opacity="1"
     d="M 471.75 338.015625 C 471.75 338.851562 471.074219 339.523438 470.242188 339.523438 C 469.410156 339.523438 468.734375 338.851562 468.734375 338.015625 C 468.734375 337.183594 469.410156 336.511719 470.242188 336.511719 C 471.074219 336.511719 471.75 337.183594 471.75 338.015625 Z M 471.75 338.015625 "
     id="path73" />
  <path
     fill-rule="nonzero"
     fill="rgb(0%, 0%, 0%)"
     fill-opacity="1"
     d="M 471.75 345.21875 C 471.75 346.050781 471.074219 346.726562 470.242188 346.726562 C 469.410156 346.726562 468.734375 346.050781 468.734375 345.21875 C 468.734375 344.386719 469.410156 343.710938 470.242188 343.710938 C 471.074219 343.710938 471.75 344.386719 471.75 345.21875 Z M 471.75 345.21875 "
     id="path74" />
  <path
     fill-rule="nonzero"
     fill="rgb(0%, 0%, 0%)"
     fill-opacity="1"
     d="M 471.75 352.417969 C 471.75 353.25 471.074219 353.925781 470.242188 353.925781 C 469.410156 353.925781 468.734375 353.25 468.734375 352.417969 C 468.734375 351.585938 469.410156 350.910156 470.242188 350.910156 C 471.074219 350.910156 471.75 351.585938 471.75 352.417969 Z M 471.75 352.417969 "
     id="path75" />
  <path
     fill-rule="nonzero"
     fill="rgb(0%, 0%, 0%)"
     fill-opacity="1"
     d="M 408.796875 245.390625 C 408.796875 246.226562 408.121094 246.898438 407.289062 246.898438 C 406.453125 246.898438 405.78125 246.226562 405.78125 245.390625 C 405.78125 244.558594 406.453125 243.886719 407.289062 243.886719 C 408.121094 243.886719 408.796875 244.558594 408.796875 245.390625 Z M 408.796875 245.390625 "
     id="path76" />
  <path
     fill-rule="nonzero"
     fill="rgb(0%, 0%, 0%)"
     fill-opacity="1"
     d="M 408.796875 252.59375 C 408.796875 253.425781 408.121094 254.101562 407.289062 254.101562 C 406.453125 254.101562 405.78125 253.425781 405.78125 252.59375 C 405.78125 251.761719 406.453125 251.085938 407.289062 251.085938 C 408.121094 251.085938 408.796875 251.761719 408.796875 252.59375 Z M 408.796875 252.59375 "
     id="path77" />
  <path
     fill-rule="nonzero"
     fill="rgb(0%, 0%, 0%)"
     fill-opacity="1"
     d="M 408.796875 259.792969 C 408.796875 260.625 408.121094 261.300781 407.289062 261.300781 C 406.453125 261.300781 405.78125 260.625 405.78125 259.792969 C 405.78125 258.960938 406.453125 258.285156 407.289062 258.285156 C 408.121094 258.285156 408.796875 258.960938 408.796875 259.792969 Z M 408.796875 259.792969 "
     id="path78" />
  <path
     fill-rule="nonzero"
     fill="rgb(0%, 0%, 0%)"
     fill-opacity="1"
     d="M 408.796875 223.792969 C 408.796875 224.625 408.121094 225.300781 407.289062 225.300781 C 406.453125 225.300781 405.78125 224.625 405.78125 223.792969 C 405.78125 222.960938 406.453125 222.285156 407.289062 222.285156 C 408.121094 222.285156 408.796875 222.960938 408.796875 223.792969 Z M 408.796875 223.792969 "
     id="path79" />
  <path
     fill-rule="nonzero"
     fill="rgb(0%, 0%, 0%)"
     fill-opacity="1"
     d="M 408.796875 230.992188 C 408.796875 231.824219 408.121094 232.5 407.289062 232.5 C 406.453125 232.5 405.78125 231.824219 405.78125 230.992188 C 405.78125 230.160156 406.453125 229.484375 407.289062 229.484375 C 408.121094 229.484375 408.796875 230.160156 408.796875 230.992188 Z M 408.796875 230.992188 "
     id="path80" />
  <path
     fill-rule="nonzero"
     fill="rgb(0%, 0%, 0%)"
     fill-opacity="1"
     d="M 408.796875 238.191406 C 408.796875 239.023438 408.121094 239.699219 407.289062 239.699219 C 406.453125 239.699219 405.78125 239.023438 405.78125 238.191406 C 405.78125 237.359375 406.453125 236.683594 407.289062 236.683594 C 408.121094 236.683594 408.796875 237.359375 408.796875 238.191406 Z M 408.796875 238.191406 "
     id="path81" />
  <path
     fill-rule="nonzero"
     fill="rgb(0%, 0%, 0%)"
     fill-opacity="1"
     d="M 408.796875 266.992188 C 408.796875 267.824219 408.121094 268.5 407.289062 268.5 C 406.453125 268.5 405.78125 267.824219 405.78125 266.992188 C 405.78125 266.160156 406.453125 265.484375 407.289062 265.484375 C 408.121094 265.484375 408.796875 266.160156 408.796875 266.992188 Z M 408.796875 266.992188 "
     id="path82" />
  <path
     fill-rule="nonzero"
     fill="rgb(0%, 0%, 0%)"
     fill-opacity="1"
     d="M 408.796875 274.191406 C 408.796875 275.023438 408.121094 275.699219 407.289062 275.699219 C 406.453125 275.699219 405.78125 275.023438 405.78125 274.191406 C 405.78125 273.359375 406.453125 272.683594 407.289062 272.683594 C 408.121094 272.683594 408.796875 273.359375 408.796875 274.191406 Z M 408.796875 274.191406 "
     id="path83" />
  <path
     fill-rule="nonzero"
     fill="rgb(0%, 0%, 0%)"
     fill-opacity="1"
     d="M 408.796875 295.792969 C 408.796875 296.625 408.121094 297.300781 407.289062 297.300781 C 406.453125 297.300781 405.78125 296.625 405.78125 295.792969 C 405.78125 294.960938 406.453125 294.285156 407.289062 294.285156 C 408.121094 294.285156 408.796875 294.960938 408.796875 295.792969 Z M 408.796875 295.792969 "
     id="path84" />
  <path
     fill-rule="nonzero"
     fill="rgb(0%, 0%, 0%)"
     fill-opacity="1"
     d="M 408.796875 281.390625 C 408.796875 282.226562 408.121094 282.898438 407.289062 282.898438 C 406.453125 282.898438 405.78125 282.226562 405.78125 281.390625 C 405.78125 280.558594 406.453125 279.886719 407.289062 279.886719 C 408.121094 279.886719 408.796875 280.558594 408.796875 281.390625 Z M 408.796875 281.390625 "
     id="path85" />
  <path
     fill-rule="nonzero"
     fill="rgb(0%, 0%, 0%)"
     fill-opacity="1"
     d="M 408.796875 288.59375 C 408.796875 289.425781 408.121094 290.101562 407.289062 290.101562 C 406.453125 290.101562 405.78125 289.425781 405.78125 288.59375 C 405.78125 287.761719 406.453125 287.085938 407.289062 287.085938 C 408.121094 287.085938 408.796875 287.761719 408.796875 288.59375 Z M 408.796875 288.59375 "
     id="path86" />
  <path
     fill-rule="nonzero"
     fill="rgb(0%, 0%, 0%)"
     fill-opacity="1"
     d="M 408.796875 310.191406 C 408.796875 311.023438 408.121094 311.699219 407.289062 311.699219 C 406.453125 311.699219 405.78125 311.023438 405.78125 310.191406 C 405.78125 309.359375 406.453125 308.683594 407.289062 308.683594 C 408.121094 308.683594 408.796875 309.359375 408.796875 310.191406 Z M 408.796875 310.191406 "
     id="path87" />
  <path
     fill-rule="nonzero"
     fill="rgb(0%, 0%, 0%)"
     fill-opacity="1"
     d="M 408.796875 302.992188 C 408.796875 303.824219 408.121094 304.5 407.289062 304.5 C 406.453125 304.5 405.78125 303.824219 405.78125 302.992188 C 405.78125 302.160156 406.453125 301.484375 407.289062 301.484375 C 408.121094 301.484375 408.796875 302.160156 408.796875 302.992188 Z M 408.796875 302.992188 "
     id="path88" />
  <path
     fill-rule="nonzero"
     fill="rgb(0%, 0%, 0%)"
     fill-opacity="1"
     d="M 408.796875 317.390625 C 408.796875 318.226562 408.121094 318.898438 407.289062 318.898438 C 406.453125 318.898438 405.78125 318.226562 405.78125 317.390625 C 405.78125 316.558594 406.453125 315.886719 407.289062 315.886719 C 408.121094 315.886719 408.796875 316.558594 408.796875 317.390625 Z M 408.796875 317.390625 "
     id="path89" />
  <path
     fill-rule="nonzero"
     fill="rgb(0%, 0%, 0%)"
     fill-opacity="1"
     d="M 336.511719 223.792969 C 336.511719 224.625 335.835938 225.300781 335.003906 225.300781 C 334.171875 225.300781 333.496094 224.625 333.496094 223.792969 C 333.496094 222.960938 334.171875 222.285156 335.003906 222.285156 C 335.835938 222.285156 336.511719 222.960938 336.511719 223.792969 Z M 336.511719 223.792969 "
     id="path90" />
  <path
     fill-rule="nonzero"
     fill="rgb(0%, 0%, 0%)"
     fill-opacity="1"
     d="M 383.296875 197.949219 C 383.296875 199.019531 382.425781 199.890625 381.351562 199.890625 C 380.28125 199.890625 379.410156 199.019531 379.410156 197.949219 C 379.410156 196.875 380.28125 196.003906 381.351562 196.003906 C 382.425781 196.003906 383.296875 196.875 383.296875 197.949219 Z M 383.296875 197.949219 "
     id="path91" />
  <path
     fill-rule="nonzero"
     fill="rgb(0%, 0%, 0%)"
     fill-opacity="1"
     d="M 336.511719 252.59375 C 336.511719 253.425781 335.835938 254.101562 335.003906 254.101562 C 334.171875 254.101562 333.496094 253.425781 333.496094 252.59375 C 333.496094 251.761719 334.171875 251.085938 335.003906 251.085938 C 335.835938 251.085938 336.511719 251.761719 336.511719 252.59375 Z M 336.511719 252.59375 "
     id="path92" />
  <path
     fill-rule="nonzero"
     fill="rgb(0%, 0%, 0%)"
     fill-opacity="1"
     d="M 336.511719 230.992188 C 336.511719 231.824219 335.835938 232.5 335.003906 232.5 C 334.171875 232.5 333.496094 231.824219 333.496094 230.992188 C 333.496094 230.160156 334.171875 229.484375 335.003906 229.484375 C 335.835938 229.484375 336.511719 230.160156 336.511719 230.992188 Z M 336.511719 230.992188 "
     id="path93" />
  <path
     fill-rule="nonzero"
     fill="rgb(0%, 0%, 0%)"
     fill-opacity="1"
     d="M 369.121094 197.949219 C 369.121094 199.019531 368.25 199.890625 367.175781 199.890625 C 366.105469 199.890625 365.234375 199.019531 365.234375 197.949219 C 365.234375 196.875 366.105469 196.003906 367.175781 196.003906 C 368.25 196.003906 369.121094 196.875 369.121094 197.949219 Z M 369.121094 197.949219 "
     id="path94" />
  <path
     fill-rule="nonzero"
     fill="rgb(0%, 0%, 0%)"
     fill-opacity="1"
     d="M 336.511719 238.191406 C 336.511719 239.023438 335.835938 239.699219 335.003906 239.699219 C 334.171875 239.699219 333.496094 239.023438 333.496094 238.191406 C 333.496094 237.359375 334.171875 236.683594 335.003906 236.683594 C 335.835938 236.683594 336.511719 237.359375 336.511719 238.191406 Z M 336.511719 238.191406 "
     id="path95" />
  <path
     fill-rule="nonzero"
     fill="rgb(0%, 0%, 0%)"
     fill-opacity="1"
     d="M 336.511719 245.390625 C 336.511719 246.226562 335.835938 246.898438 335.003906 246.898438 C 334.171875 246.898438 333.496094 246.226562 333.496094 245.390625 C 333.496094 244.558594 334.171875 243.886719 335.003906 243.886719 C 335.835938 243.886719 336.511719 244.558594 336.511719 245.390625 Z M 336.511719 245.390625 "
     id="path96" />
  <path
     fill-rule="nonzero"
     fill="rgb(0%, 0%, 0%)"
     fill-opacity="1"
     d="M 336.511719 259.792969 C 336.511719 260.625 335.835938 261.300781 335.003906 261.300781 C 334.171875 261.300781 333.496094 260.625 333.496094 259.792969 C 333.496094 258.960938 334.171875 258.285156 335.003906 258.285156 C 335.835938 258.285156 336.511719 258.960938 336.511719 259.792969 Z M 336.511719 259.792969 "
     id="path97" />
  <path
     fill-rule="nonzero"
     fill="rgb(0%, 0%, 0%)"
     fill-opacity="1"
     d="M 336.511719 281.390625 C 336.511719 282.226562 335.835938 282.898438 335.003906 282.898438 C 334.171875 282.898438 333.496094 282.226562 333.496094 281.390625 C 333.496094 280.558594 334.171875 279.886719 335.003906 279.886719 C 335.835938 279.886719 336.511719 280.558594 336.511719 281.390625 Z M 336.511719 281.390625 "
     id="path98" />
  <path
     fill-rule="nonzero"
     fill="rgb(0%, 0%, 0%)"
     fill-opacity="1"
     d="M 336.511719 288.59375 C 336.511719 289.425781 335.835938 290.101562 335.003906 290.101562 C 334.171875 290.101562 333.496094 289.425781 333.496094 288.59375 C 333.496094 287.761719 334.171875 287.085938 335.003906 287.085938 C 335.835938 287.085938 336.511719 287.761719 336.511719 288.59375 Z M 336.511719 288.59375 "
     id="path99" />
  <path
     fill-rule="nonzero"
     fill="rgb(0%, 0%, 0%)"
     fill-opacity="1"
     d="M 336.511719 295.792969 C 336.511719 296.625 335.835938 297.300781 335.003906 297.300781 C 334.171875 297.300781 333.496094 296.625 333.496094 295.792969 C 333.496094 294.960938 334.171875 294.285156 335.003906 294.285156 C 335.835938 294.285156 336.511719 294.960938 336.511719 295.792969 Z M 336.511719 295.792969 "
     id="path100" />
  <path
     fill-rule="nonzero"
     fill="rgb(0%, 0%, 0%)"
     fill-opacity="1"
     d="M 336.511719 302.992188 C 336.511719 303.824219 335.835938 304.5 335.003906 304.5 C 334.171875 304.5 333.496094 303.824219 333.496094 302.992188 C 333.496094 302.160156 334.171875 301.484375 335.003906 301.484375 C 335.835938 301.484375 336.511719 302.160156 336.511719 302.992188 Z M 336.511719 302.992188 "
     id="path101" />
  <path
     fill-rule="nonzero"
     fill="rgb(0%, 0%, 0%)"
     fill-opacity="1"
     d="M 336.511719 310.191406 C 336.511719 311.023438 335.835938 311.699219 335.003906 311.699219 C 334.171875 311.699219 333.496094 311.023438 333.496094 310.191406 C 333.496094 309.359375 334.171875 308.683594 335.003906 308.683594 C 335.835938 308.683594 336.511719 309.359375 336.511719 310.191406 Z M 336.511719 310.191406 "
     id="path102" />
  <path
     fill-rule="nonzero"
     fill="rgb(0%, 0%, 0%)"
     fill-opacity="1"
     d="M 336.511719 274.191406 C 336.511719 275.023438 335.835938 275.699219 335.003906 275.699219 C 334.171875 275.699219 333.496094 275.023438 333.496094 274.191406 C 333.496094 273.359375 334.171875 272.683594 335.003906 272.683594 C 335.835938 272.683594 336.511719 273.359375 336.511719 274.191406 Z M 336.511719 274.191406 "
     id="path103" />
  <path
     fill-rule="nonzero"
     fill="rgb(0%, 0%, 0%)"
     fill-opacity="1"
     d="M 336.511719 266.992188 C 336.511719 267.824219 335.835938 268.5 335.003906 268.5 C 334.171875 268.5 333.496094 267.824219 333.496094 266.992188 C 333.496094 266.160156 334.171875 265.484375 335.003906 265.484375 C 335.835938 265.484375 336.511719 266.160156 336.511719 266.992188 Z M 336.511719 266.992188 "
     id="path104" />
  <path
     fill-rule="nonzero"
     fill="rgb(0%, 0%, 0%)"
     fill-opacity="1"
     d="M 336.511719 317.390625 C 336.511719 318.226562 335.835938 318.898438 335.003906 318.898438 C 334.171875 318.898438 333.496094 318.226562 333.496094 317.390625 C 333.496094 316.558594 334.171875 315.886719 335.003906 315.886719 C 335.835938 315.886719 336.511719 316.558594 336.511719 317.390625 Z M 336.511719 317.390625 "
     id="path105" />
  <path
     fill-rule="nonzero"
     fill="rgb(0%, 0%, 0%)"
     fill-opacity="1"
     d="M 336.421875 338.992188 C 336.421875 339.773438 335.785156 340.410156 335.003906 340.410156 C 334.21875 340.410156 333.585938 339.773438 333.585938 338.992188 C 333.585938 338.210938 334.21875 337.574219 335.003906 337.574219 C 335.785156 337.574219 336.421875 338.210938 336.421875 338.992188 Z M 336.421875 338.992188 "
     id="path106" />
  <path
     fill-rule="nonzero"
     fill="rgb(0%, 0%, 0%)"
     fill-opacity="1"
     d="M 336.421875 346.191406 C 336.421875 346.976562 335.785156 347.609375 335.003906 347.609375 C 334.21875 347.609375 333.585938 346.976562 333.585938 346.191406 C 333.585938 345.410156 334.21875 344.773438 335.003906 344.773438 C 335.785156 344.773438 336.421875 345.410156 336.421875 346.191406 Z M 336.421875 346.191406 "
     id="path107" />
  <path
     fill-rule="nonzero"
     fill="rgb(0%, 0%, 0%)"
     fill-opacity="1"
     d="M 336.421875 353.390625 C 336.421875 354.175781 335.785156 354.808594 335.003906 354.808594 C 334.21875 354.808594 333.585938 354.175781 333.585938 353.390625 C 333.585938 352.609375 334.21875 351.976562 335.003906 351.976562 C 335.785156 351.976562 336.421875 352.609375 336.421875 353.390625 Z M 336.421875 353.390625 "
     id="path108" />
  <path
     fill-rule="nonzero"
     fill="rgb(0%, 0%, 0%)"
     fill-opacity="1"
     d="M 336.421875 324.59375 C 336.421875 325.375 335.785156 326.011719 335.003906 326.011719 C 334.21875 326.011719 333.585938 325.375 333.585938 324.59375 C 333.585938 323.808594 334.21875 323.175781 335.003906 323.175781 C 335.785156 323.175781 336.421875 323.808594 336.421875 324.59375 Z M 336.421875 324.59375 "
     id="path109" />
  <path
     fill-rule="nonzero"
     fill="rgb(0%, 0%, 0%)"
     fill-opacity="1"
     d="M 336.421875 331.792969 C 336.421875 332.574219 335.785156 333.210938 335.003906 333.210938 C 334.21875 333.210938 333.585938 332.574219 333.585938 331.792969 C 333.585938 331.007812 334.21875 330.375 335.003906 330.375 C 335.785156 330.375 336.421875 331.007812 336.421875 331.792969 Z M 336.421875 331.792969 "
     id="path110" />
  <path
     fill-rule="nonzero"
     fill="rgb(0%, 0%, 0%)"
     fill-opacity="1"
     d="M 336.421875 360.59375 C 336.421875 361.375 335.785156 362.011719 335.003906 362.011719 C 334.21875 362.011719 333.585938 361.375 333.585938 360.59375 C 333.585938 359.808594 334.21875 359.175781 335.003906 359.175781 C 335.785156 359.175781 336.421875 359.808594 336.421875 360.59375 Z M 336.421875 360.59375 "
     id="path111" />
  <path
     fill-rule="nonzero"
     fill="rgb(0%, 0%, 0%)"
     fill-opacity="1"
     d="M 336.421875 367.792969 C 336.421875 368.574219 335.785156 369.210938 335.003906 369.210938 C 334.21875 369.210938 333.585938 368.574219 333.585938 367.792969 C 333.585938 367.007812 334.21875 366.375 335.003906 366.375 C 335.785156 366.375 336.421875 367.007812 336.421875 367.792969 Z M 336.421875 367.792969 "
     id="path112" />
  <path
     fill-rule="nonzero"
     fill="rgb(0%, 0%, 0%)"
     fill-opacity="1"
     d="M 336.421875 374.992188 C 336.421875 375.773438 335.785156 376.410156 335.003906 376.410156 C 334.21875 376.410156 333.585938 375.773438 333.585938 374.992188 C 333.585938 374.210938 334.21875 373.574219 335.003906 373.574219 C 335.785156 373.574219 336.421875 374.210938 336.421875 374.992188 Z M 336.421875 374.992188 "
     id="path113" />
  <path
     fill-rule="nonzero"
     fill="rgb(0%, 0%, 0%)"
     fill-opacity="1"
     d="M 336.421875 382.191406 C 336.421875 382.976562 335.785156 383.609375 335.003906 383.609375 C 334.21875 383.609375 333.585938 382.976562 333.585938 382.191406 C 333.585938 381.410156 334.21875 380.773438 335.003906 380.773438 C 335.785156 380.773438 336.421875 381.410156 336.421875 382.191406 Z M 336.421875 382.191406 "
     id="path114" />
  <path
     fill-rule="nonzero"
     fill="rgb(0%, 0%, 0%)"
     fill-opacity="1"
     d="M 336.421875 389.390625 C 336.421875 390.175781 335.785156 390.808594 335.003906 390.808594 C 334.21875 390.808594 333.585938 390.175781 333.585938 389.390625 C 333.585938 388.609375 334.21875 387.976562 335.003906 387.976562 C 335.785156 387.976562 336.421875 388.609375 336.421875 389.390625 Z M 336.421875 389.390625 "
     id="path115" />
  <path
     fill-rule="nonzero"
     fill="rgb(0%, 0%, 0%)"
     fill-opacity="1"
     d="M 336.421875 396.59375 C 336.421875 397.375 335.785156 398.011719 335.003906 398.011719 C 334.21875 398.011719 333.585938 397.375 333.585938 396.59375 C 333.585938 395.808594 334.21875 395.175781 335.003906 395.175781 C 335.785156 395.175781 336.421875 395.808594 336.421875 396.59375 Z M 336.421875 396.59375 "
     id="path116" />
  <path
     fill-rule="nonzero"
     fill="rgb(0%, 0%, 0%)"
     fill-opacity="1"
     d="M 408.703125 346.191406 C 408.703125 346.976562 408.070312 347.609375 407.289062 347.609375 C 406.503906 347.609375 405.871094 346.976562 405.871094 346.191406 C 405.871094 345.410156 406.503906 344.773438 407.289062 344.773438 C 408.070312 344.773438 408.703125 345.410156 408.703125 346.191406 Z M 408.703125 346.191406 "
     id="path117" />
  <path
     fill-rule="nonzero"
     fill="rgb(0%, 0%, 0%)"
     fill-opacity="1"
     d="M 408.703125 324.59375 C 408.703125 325.375 408.070312 326.011719 407.289062 326.011719 C 406.503906 326.011719 405.871094 325.375 405.871094 324.59375 C 405.871094 323.808594 406.503906 323.175781 407.289062 323.175781 C 408.070312 323.175781 408.703125 323.808594 408.703125 324.59375 Z M 408.703125 324.59375 "
     id="path118" />
  <path
     fill-rule="nonzero"
     fill="rgb(0%, 0%, 0%)"
     fill-opacity="1"
     d="M 408.703125 331.792969 C 408.703125 332.574219 408.070312 333.210938 407.289062 333.210938 C 406.503906 333.210938 405.871094 332.574219 405.871094 331.792969 C 405.871094 331.007812 406.503906 330.375 407.289062 330.375 C 408.070312 330.375 408.703125 331.007812 408.703125 331.792969 Z M 408.703125 331.792969 "
     id="path119" />
  <path
     fill-rule="nonzero"
     fill="rgb(0%, 0%, 0%)"
     fill-opacity="1"
     d="M 408.703125 338.992188 C 408.703125 339.773438 408.070312 340.410156 407.289062 340.410156 C 406.503906 340.410156 405.871094 339.773438 405.871094 338.992188 C 405.871094 338.210938 406.503906 337.574219 407.289062 337.574219 C 408.070312 337.574219 408.703125 338.210938 408.703125 338.992188 Z M 408.703125 338.992188 "
     id="path120" />
  <path
     fill-rule="nonzero"
     fill="rgb(0%, 0%, 0%)"
     fill-opacity="1"
     d="M 408.703125 353.390625 C 408.703125 354.175781 408.070312 354.808594 407.289062 354.808594 C 406.503906 354.808594 405.871094 354.175781 405.871094 353.390625 C 405.871094 352.609375 406.503906 351.976562 407.289062 351.976562 C 408.070312 351.976562 408.703125 352.609375 408.703125 353.390625 Z M 408.703125 353.390625 "
     id="path121" />
  <path
     fill-rule="nonzero"
     fill="rgb(0%, 0%, 0%)"
     fill-opacity="1"
     d="M 408.703125 360.59375 C 408.703125 361.375 408.070312 362.011719 407.289062 362.011719 C 406.503906 362.011719 405.871094 361.375 405.871094 360.59375 C 405.871094 359.808594 406.503906 359.175781 407.289062 359.175781 C 408.070312 359.175781 408.703125 359.808594 408.703125 360.59375 Z M 408.703125 360.59375 "
     id="path122" />
  <path
     fill-rule="nonzero"
     fill="rgb(0%, 0%, 0%)"
     fill-opacity="1"
     d="M 408.703125 382.191406 C 408.703125 382.976562 408.070312 383.609375 407.289062 383.609375 C 406.503906 383.609375 405.871094 382.976562 405.871094 382.191406 C 405.871094 381.410156 406.503906 380.773438 407.289062 380.773438 C 408.070312 380.773438 408.703125 381.410156 408.703125 382.191406 Z M 408.703125 382.191406 "
     id="path123" />
  <path
     fill-rule="nonzero"
     fill="rgb(0%, 0%, 0%)"
     fill-opacity="1"
     d="M 408.703125 367.792969 C 408.703125 368.574219 408.070312 369.210938 407.289062 369.210938 C 406.503906 369.210938 405.871094 368.574219 405.871094 367.792969 C 405.871094 367.007812 406.503906 366.375 407.289062 366.375 C 408.070312 366.375 408.703125 367.007812 408.703125 367.792969 Z M 408.703125 367.792969 "
     id="path124" />
  <path
     fill-rule="nonzero"
     fill="rgb(0%, 0%, 0%)"
     fill-opacity="1"
     d="M 408.703125 389.390625 C 408.703125 390.175781 408.070312 390.808594 407.289062 390.808594 C 406.503906 390.808594 405.871094 390.175781 405.871094 389.390625 C 405.871094 388.609375 406.503906 387.976562 407.289062 387.976562 C 408.070312 387.976562 408.703125 388.609375 408.703125 389.390625 Z M 408.703125 389.390625 "
     id="path125" />
  <path
     fill-rule="nonzero"
     fill="rgb(0%, 0%, 0%)"
     fill-opacity="1"
     d="M 408.703125 374.992188 C 408.703125 375.773438 408.070312 376.410156 407.289062 376.410156 C 406.503906 376.410156 405.871094 375.773438 405.871094 374.992188 C 405.871094 374.210938 406.503906 373.574219 407.289062 373.574219 C 408.070312 373.574219 408.703125 374.210938 408.703125 374.992188 Z M 408.703125 374.992188 "
     id="path126" />
  <path
     fill-rule="nonzero"
     fill="rgb(0%, 0%, 0%)"
     fill-opacity="1"
     d="M 408.703125 396.59375 C 408.703125 397.375 408.070312 398.011719 407.289062 398.011719 C 406.503906 398.011719 405.871094 397.375 405.871094 396.59375 C 405.871094 395.808594 406.503906 395.175781 407.289062 395.175781 C 408.070312 395.175781 408.703125 395.808594 408.703125 396.59375 Z M 408.703125 396.59375 "
     id="path127" />
  <path
     fill-rule="nonzero"
     fill="rgb(0%, 0%, 0%)"
     fill-opacity="1"
     d="M 501.136719 345.21875 C 501.136719 346 500.5 346.636719 499.71875 346.636719 C 498.933594 346.636719 498.300781 346 498.300781 345.21875 C 498.300781 344.433594 498.933594 343.800781 499.71875 343.800781 C 500.5 343.800781 501.136719 344.433594 501.136719 345.21875 Z M 501.136719 345.21875 "
     id="path128" />
  <path
     fill-rule="nonzero"
     fill="rgb(0%, 0%, 0%)"
     fill-opacity="1"
     d="M 501.136719 316.417969 C 501.136719 317.199219 500.5 317.835938 499.71875 317.835938 C 498.933594 317.835938 498.300781 317.199219 498.300781 316.417969 C 498.300781 315.632812 498.933594 315 499.71875 315 C 500.5 315 501.136719 315.632812 501.136719 316.417969 Z M 501.136719 316.417969 "
     id="path129" />
  <path
     fill-rule="nonzero"
     fill="rgb(0%, 0%, 0%)"
     fill-opacity="1"
     d="M 501.136719 338.015625 C 501.136719 338.800781 500.5 339.433594 499.71875 339.433594 C 498.933594 339.433594 498.300781 338.800781 498.300781 338.015625 C 498.300781 337.234375 498.933594 336.601562 499.71875 336.601562 C 500.5 336.601562 501.136719 337.234375 501.136719 338.015625 Z M 501.136719 338.015625 "
     id="path130" />
  <path
     fill-rule="nonzero"
     fill="rgb(0%, 0%, 0%)"
     fill-opacity="1"
     d="M 501.136719 330.816406 C 501.136719 331.601562 500.5 332.234375 499.71875 332.234375 C 498.933594 332.234375 498.300781 331.601562 498.300781 330.816406 C 498.300781 330.035156 498.933594 329.398438 499.71875 329.398438 C 500.5 329.398438 501.136719 330.035156 501.136719 330.816406 Z M 501.136719 330.816406 "
     id="path131" />
  <path
     fill-rule="nonzero"
     fill="rgb(0%, 0%, 0%)"
     fill-opacity="1"
     d="M 501.136719 323.617188 C 501.136719 324.398438 500.5 325.035156 499.71875 325.035156 C 498.933594 325.035156 498.300781 324.398438 498.300781 323.617188 C 498.300781 322.835938 498.933594 322.199219 499.71875 322.199219 C 500.5 322.199219 501.136719 322.835938 501.136719 323.617188 Z M 501.136719 323.617188 "
     id="path132" />
  <path
     fill-rule="nonzero"
     fill="rgb(0%, 0%, 0%)"
     fill-opacity="1"
     d="M 501.136719 352.417969 C 501.136719 353.199219 500.5 353.835938 499.71875 353.835938 C 498.933594 353.835938 498.300781 353.199219 498.300781 352.417969 C 498.300781 351.632812 498.933594 351 499.71875 351 C 500.5 351 501.136719 351.632812 501.136719 352.417969 Z M 501.136719 352.417969 "
     id="path133" />
  <path
     fill-rule="nonzero"
     fill="rgb(0%, 0%, 0%)"
     fill-opacity="1"
     d="M 427.980469 332.015625 C 427.980469 332.800781 427.34375 333.433594 426.5625 333.433594 C 425.78125 333.433594 425.144531 332.800781 425.144531 332.015625 C 425.144531 331.234375 425.78125 330.601562 426.5625 330.601562 C 427.34375 330.601562 427.980469 331.234375 427.980469 332.015625 Z M 427.980469 332.015625 "
     id="path134" />
  <path
     fill-rule="nonzero"
     fill="rgb(0%, 0%, 0%)"
     fill-opacity="1"
     d="M 427.980469 353.617188 C 427.980469 354.398438 427.34375 355.035156 426.5625 355.035156 C 425.78125 355.035156 425.144531 354.398438 425.144531 353.617188 C 425.144531 352.835938 425.78125 352.199219 426.5625 352.199219 C 427.34375 352.199219 427.980469 352.835938 427.980469 353.617188 Z M 427.980469 353.617188 "
     id="path135" />
  <path
     fill-rule="nonzero"
     fill="rgb(0%, 0%, 0%)"
     fill-opacity="1"
     d="M 427.980469 346.417969 C 427.980469 347.199219 427.34375 347.835938 426.5625 347.835938 C 425.78125 347.835938 425.144531 347.199219 425.144531 346.417969 C 425.144531 345.632812 425.78125 345 426.5625 345 C 427.34375 345 427.980469 345.632812 427.980469 346.417969 Z M 427.980469 346.417969 "
     id="path136" />
  <path
     fill-rule="nonzero"
     fill="rgb(0%, 0%, 0%)"
     fill-opacity="1"
     d="M 427.980469 339.21875 C 427.980469 340 427.34375 340.636719 426.5625 340.636719 C 425.78125 340.636719 425.144531 340 425.144531 339.21875 C 425.144531 338.433594 425.78125 337.800781 426.5625 337.800781 C 427.34375 337.800781 427.980469 338.433594 427.980469 339.21875 Z M 427.980469 339.21875 "
     id="path137" />
  <path
     fill-rule="nonzero"
     fill="rgb(0%, 0%, 0%)"
     fill-opacity="1"
     d="M 427.980469 324.816406 C 427.980469 325.601562 427.34375 326.234375 426.5625 326.234375 C 425.78125 326.234375 425.144531 325.601562 425.144531 324.816406 C 425.144531 324.035156 425.78125 323.398438 426.5625 323.398438 C 427.34375 323.398438 427.980469 324.035156 427.980469 324.816406 Z M 427.980469 324.816406 "
     id="path138" />
  <path
     fill-rule="nonzero"
     fill="rgb(0%, 0%, 0%)"
     fill-opacity="1"
     d="M 456.328125 317.617188 C 456.328125 318.398438 455.695312 319.035156 454.914062 319.035156 C 454.128906 319.035156 453.496094 318.398438 453.496094 317.617188 C 453.496094 316.835938 454.128906 316.199219 454.914062 316.199219 C 455.695312 316.199219 456.328125 316.835938 456.328125 317.617188 Z M 456.328125 317.617188 "
     id="path139" />
  <path
     fill-rule="nonzero"
     fill="rgb(0%, 0%, 0%)"
     fill-opacity="1"
     d="M 471.660156 323.617188 C 471.660156 324.398438 471.023438 325.035156 470.242188 325.035156 C 469.460938 325.035156 468.824219 324.398438 468.824219 323.617188 C 468.824219 322.835938 469.460938 322.199219 470.242188 322.199219 C 471.023438 322.199219 471.660156 322.835938 471.660156 323.617188 Z M 471.660156 323.617188 "
     id="path140" />
  <path
     fill-rule="nonzero"
     fill="rgb(0%, 0%, 0%)"
     fill-opacity="1"
     d="M 456.328125 332.015625 C 456.328125 332.800781 455.695312 333.433594 454.914062 333.433594 C 454.128906 333.433594 453.496094 332.800781 453.496094 332.015625 C 453.496094 331.234375 454.128906 330.601562 454.914062 330.601562 C 455.695312 330.601562 456.328125 331.234375 456.328125 332.015625 Z M 456.328125 332.015625 "
     id="path141" />
  <path
     fill-rule="nonzero"
     fill="rgb(0%, 0%, 0%)"
     fill-opacity="1"
     d="M 456.328125 324.816406 C 456.328125 325.601562 455.695312 326.234375 454.914062 326.234375 C 454.128906 326.234375 453.496094 325.601562 453.496094 324.816406 C 453.496094 324.035156 454.128906 323.398438 454.914062 323.398438 C 455.695312 323.398438 456.328125 324.035156 456.328125 324.816406 Z M 456.328125 324.816406 "
     id="path142" />
  <path
     fill-rule="nonzero"
     fill="rgb(0%, 0%, 0%)"
     fill-opacity="1"
     d="M 471.660156 316.417969 C 471.660156 317.199219 471.023438 317.835938 470.242188 317.835938 C 469.460938 317.835938 468.824219 317.199219 468.824219 316.417969 C 468.824219 315.632812 469.460938 315 470.242188 315 C 471.023438 315 471.660156 315.632812 471.660156 316.417969 Z M 471.660156 316.417969 "
     id="path143" />
  <path
     fill-rule="nonzero"
     fill="rgb(0%, 0%, 0%)"
     fill-opacity="1"
     d="M 471.660156 330.816406 C 471.660156 331.601562 471.023438 332.234375 470.242188 332.234375 C 469.460938 332.234375 468.824219 331.601562 468.824219 330.816406 C 468.824219 330.035156 469.460938 329.398438 470.242188 329.398438 C 471.023438 329.398438 471.660156 330.035156 471.660156 330.816406 Z M 471.660156 330.816406 "
     id="path144" />
  <path
     fill-rule="nonzero"
     fill="rgb(0%, 0%, 0%)"
     fill-opacity="1"
     d="M 472.621094 387.382812 C 472.621094 387.976562 472.140625 388.453125 471.546875 388.453125 C 470.957031 388.453125 470.476562 387.976562 470.476562 387.382812 C 470.476562 386.789062 470.957031 386.308594 471.546875 386.308594 C 472.140625 386.308594 472.621094 386.789062 472.621094 387.382812 Z M 472.621094 387.382812 "
     id="path145" />
  <path
     fill-rule="nonzero"
     fill="rgb(0%, 0%, 0%)"
     fill-opacity="1"
     d="M 452.503906 389.289062 C 452.503906 390.070312 451.871094 390.703125 451.085938 390.703125 C 450.304688 390.703125 449.671875 390.070312 449.671875 389.289062 C 449.671875 388.503906 450.304688 387.871094 451.085938 387.871094 C 451.871094 387.871094 452.503906 388.503906 452.503906 389.289062 Z M 452.503906 389.289062 "
     id="path146" />
  <path
     fill-rule="nonzero"
     fill="rgb(0%, 0%, 0%)"
     fill-opacity="1"
     d="M 481.996094 375.953125 C 481.996094 376.585938 481.480469 377.101562 480.847656 377.101562 C 480.214844 377.101562 479.699219 376.585938 479.699219 375.953125 C 479.699219 375.320312 480.214844 374.804688 480.847656 374.804688 C 481.480469 374.804688 481.996094 375.320312 481.996094 375.953125 Z M 481.996094 375.953125 "
     id="path147" />
  <path
     fill-rule="nonzero"
     fill="rgb(0%, 0%, 0%)"
     fill-opacity="1"
     d="M 430.964844 389.289062 C 430.964844 390.070312 430.332031 390.703125 429.546875 390.703125 C 428.765625 390.703125 428.128906 390.070312 428.128906 389.289062 C 428.128906 388.503906 428.765625 387.871094 429.546875 387.871094 C 430.332031 387.871094 430.964844 388.503906 430.964844 389.289062 Z M 430.964844 389.289062 "
     id="path148" />
  <path
     fill-rule="nonzero"
     fill="rgb(0%, 0%, 0%)"
     fill-opacity="1"
     d="M 460.394531 375.953125 C 460.394531 376.585938 459.882812 377.101562 459.246094 377.101562 C 458.613281 377.101562 458.101562 376.585938 458.101562 375.953125 C 458.101562 375.320312 458.613281 374.804688 459.246094 374.804688 C 459.882812 374.804688 460.394531 375.320312 460.394531 375.953125 Z M 460.394531 375.953125 "
     id="path149" />
  <path
     fill-rule="nonzero"
     fill="rgb(0%, 0%, 0%)"
     fill-opacity="1"
     d="M 469.019531 390.984375 C 469.019531 391.574219 468.539062 392.054688 467.949219 392.054688 C 467.355469 392.054688 466.875 391.574219 466.875 390.984375 C 466.875 390.390625 467.355469 389.910156 467.949219 389.910156 C 468.539062 389.910156 469.019531 390.390625 469.019531 390.984375 Z M 469.019531 390.984375 "
     id="path150" />
  <path
     fill-rule="nonzero"
     fill="rgb(0%, 0%, 0%)"
     fill-opacity="1"
     d="M 465.421875 387.382812 C 465.421875 387.976562 464.941406 388.453125 464.347656 388.453125 C 463.753906 388.453125 463.273438 387.976562 463.273438 387.382812 C 463.273438 386.789062 463.753906 386.308594 464.347656 386.308594 C 464.941406 386.308594 465.421875 386.789062 465.421875 387.382812 Z M 465.421875 387.382812 "
     id="path151" />
  <path
     fill-rule="nonzero"
     fill="rgb(0%, 0%, 0%)"
     fill-opacity="1"
     d="M 483.765625 293.753906 C 483.765625 294.535156 483.128906 295.171875 482.347656 295.171875 C 481.566406 295.171875 480.929688 294.535156 480.929688 293.753906 C 480.929688 292.96875 481.566406 292.335938 482.347656 292.335938 C 483.128906 292.335938 483.765625 292.96875 483.765625 293.753906 Z M 483.765625 293.753906 "
     id="path152" />
  <path
     fill-rule="nonzero"
     fill="rgb(0%, 0%, 0%)"
     fill-opacity="1"
     d="M 447.765625 293.753906 C 447.765625 294.535156 447.128906 295.171875 446.347656 295.171875 C 445.566406 295.171875 444.929688 294.535156 444.929688 293.753906 C 444.929688 292.96875 445.566406 292.335938 446.347656 292.335938 C 447.128906 292.335938 447.765625 292.96875 447.765625 293.753906 Z M 447.765625 293.753906 "
     id="path153" />
  <path
     fill-rule="nonzero"
     fill="rgb(0%, 0%, 0%)"
     fill-opacity="1"
     d="M 454.964844 293.753906 C 454.964844 294.535156 454.332031 295.171875 453.546875 295.171875 C 452.765625 295.171875 452.128906 294.535156 452.128906 293.753906 C 452.128906 292.96875 452.765625 292.335938 453.546875 292.335938 C 454.332031 292.335938 454.964844 292.96875 454.964844 293.753906 Z M 454.964844 293.753906 "
     id="path154" />
  <path
     fill-rule="nonzero"
     fill="rgb(0%, 0%, 0%)"
     fill-opacity="1"
     d="M 462.164062 293.753906 C 462.164062 294.535156 461.53125 295.171875 460.746094 295.171875 C 459.964844 295.171875 459.328125 294.535156 459.328125 293.753906 C 459.328125 292.96875 459.964844 292.335938 460.746094 292.335938 C 461.53125 292.335938 462.164062 292.96875 462.164062 293.753906 Z M 462.164062 293.753906 "
     id="path155" />
  <path
     fill-rule="nonzero"
     fill="rgb(0%, 0%, 0%)"
     fill-opacity="1"
     d="M 469.363281 293.753906 C 469.363281 294.535156 468.730469 295.171875 467.949219 295.171875 C 467.164062 295.171875 466.53125 294.535156 466.53125 293.753906 C 466.53125 292.96875 467.164062 292.335938 467.949219 292.335938 C 468.730469 292.335938 469.363281 292.96875 469.363281 293.753906 Z M 469.363281 293.753906 "
     id="path156" />
  <path
     fill-rule="nonzero"
     fill="rgb(0%, 0%, 0%)"
     fill-opacity="1"
     d="M 476.566406 293.753906 C 476.566406 294.535156 475.929688 295.171875 475.148438 295.171875 C 474.363281 295.171875 473.730469 294.535156 473.730469 293.753906 C 473.730469 292.96875 474.363281 292.335938 475.148438 292.335938 C 475.929688 292.335938 476.566406 292.96875 476.566406 293.753906 Z M 476.566406 293.753906 "
     id="path157" />
  <path
     fill-rule="nonzero"
     fill="rgb(0%, 0%, 0%)"
     fill-opacity="1"
     d="M 490.964844 293.753906 C 490.964844 294.535156 490.332031 295.171875 489.546875 295.171875 C 488.765625 295.171875 488.128906 294.535156 488.128906 293.753906 C 488.128906 292.96875 488.765625 292.335938 489.546875 292.335938 C 490.332031 292.335938 490.964844 292.96875 490.964844 293.753906 Z M 490.964844 293.753906 "
     id="path158" />
  <path
     fill-rule="nonzero"
     fill="rgb(0%, 0%, 0%)"
     fill-opacity="1"
     d="M 456.328125 353.617188 C 456.328125 354.398438 455.695312 355.035156 454.914062 355.035156 C 454.128906 355.035156 453.496094 354.398438 453.496094 353.617188 C 453.496094 352.835938 454.128906 352.199219 454.914062 352.199219 C 455.695312 352.199219 456.328125 352.835938 456.328125 353.617188 Z M 456.328125 353.617188 "
     id="path159" />
  <path
     fill-rule="nonzero"
     fill="rgb(0%, 0%, 0%)"
     fill-opacity="1"
     d="M 456.328125 346.417969 C 456.328125 347.199219 455.695312 347.835938 454.914062 347.835938 C 454.128906 347.835938 453.496094 347.199219 453.496094 346.417969 C 453.496094 345.632812 454.128906 345 454.914062 345 C 455.695312 345 456.328125 345.632812 456.328125 346.417969 Z M 456.328125 346.417969 "
     id="path160" />
  <path
     fill-rule="nonzero"
     fill="rgb(0%, 0%, 0%)"
     fill-opacity="1"
     d="M 456.328125 339.21875 C 456.328125 340 455.695312 340.636719 454.914062 340.636719 C 454.128906 340.636719 453.496094 340 453.496094 339.21875 C 453.496094 338.433594 454.128906 337.800781 454.914062 337.800781 C 455.695312 337.800781 456.328125 338.433594 456.328125 339.21875 Z M 456.328125 339.21875 "
     id="path161" />
  <path
     fill-rule="nonzero"
     fill="rgb(0%, 0%, 0%)"
     fill-opacity="1"
     d="M 456.328125 360.816406 C 456.328125 361.601562 455.695312 362.234375 454.914062 362.234375 C 454.128906 362.234375 453.496094 361.601562 453.496094 360.816406 C 453.496094 360.035156 454.128906 359.398438 454.914062 359.398438 C 455.695312 359.398438 456.328125 360.035156 456.328125 360.816406 Z M 456.328125 360.816406 "
     id="path162" />
  <path
     fill-rule="nonzero"
     fill="rgb(0%, 0%, 0%)"
     fill-opacity="1"
     d="M 471.660156 338.015625 C 471.660156 338.800781 471.023438 339.433594 470.242188 339.433594 C 469.460938 339.433594 468.824219 338.800781 468.824219 338.015625 C 468.824219 337.234375 469.460938 336.601562 470.242188 336.601562 C 471.023438 336.601562 471.660156 337.234375 471.660156 338.015625 Z M 471.660156 338.015625 "
     id="path163" />
  <path
     fill-rule="nonzero"
     fill="rgb(0%, 0%, 0%)"
     fill-opacity="1"
     d="M 471.660156 345.21875 C 471.660156 346 471.023438 346.636719 470.242188 346.636719 C 469.460938 346.636719 468.824219 346 468.824219 345.21875 C 468.824219 344.433594 469.460938 343.800781 470.242188 343.800781 C 471.023438 343.800781 471.660156 344.433594 471.660156 345.21875 Z M 471.660156 345.21875 "
     id="path164" />
  <path
     fill-rule="nonzero"
     fill="rgb(0%, 0%, 0%)"
     fill-opacity="1"
     d="M 471.660156 352.417969 C 471.660156 353.199219 471.023438 353.835938 470.242188 353.835938 C 469.460938 353.835938 468.824219 353.199219 468.824219 352.417969 C 468.824219 351.632812 469.460938 351 470.242188 351 C 471.023438 351 471.660156 351.632812 471.660156 352.417969 Z M 471.660156 352.417969 "
     id="path165" />
  <path
     fill-rule="nonzero"
     fill="rgb(0%, 0%, 0%)"
     fill-opacity="1"
     d="M 408.703125 245.390625 C 408.703125 246.175781 408.070312 246.808594 407.289062 246.808594 C 406.503906 246.808594 405.871094 246.175781 405.871094 245.390625 C 405.871094 244.609375 406.503906 243.976562 407.289062 243.976562 C 408.070312 243.976562 408.703125 244.609375 408.703125 245.390625 Z M 408.703125 245.390625 "
     id="path166" />
  <path
     fill-rule="nonzero"
     fill="rgb(0%, 0%, 0%)"
     fill-opacity="1"
     d="M 408.703125 252.59375 C 408.703125 253.375 408.070312 254.011719 407.289062 254.011719 C 406.503906 254.011719 405.871094 253.375 405.871094 252.59375 C 405.871094 251.808594 406.503906 251.175781 407.289062 251.175781 C 408.070312 251.175781 408.703125 251.808594 408.703125 252.59375 Z M 408.703125 252.59375 "
     id="path167" />
  <path
     fill-rule="nonzero"
     fill="rgb(0%, 0%, 0%)"
     fill-opacity="1"
     d="M 408.703125 259.792969 C 408.703125 260.574219 408.070312 261.210938 407.289062 261.210938 C 406.503906 261.210938 405.871094 260.574219 405.871094 259.792969 C 405.871094 259.007812 406.503906 258.375 407.289062 258.375 C 408.070312 258.375 408.703125 259.007812 408.703125 259.792969 Z M 408.703125 259.792969 "
     id="path168" />
  <path
     fill-rule="nonzero"
     fill="rgb(0%, 0%, 0%)"
     fill-opacity="1"
     d="M 408.703125 223.792969 C 408.703125 224.574219 408.070312 225.210938 407.289062 225.210938 C 406.503906 225.210938 405.871094 224.574219 405.871094 223.792969 C 405.871094 223.007812 406.503906 222.375 407.289062 222.375 C 408.070312 222.375 408.703125 223.007812 408.703125 223.792969 Z M 408.703125 223.792969 "
     id="path169" />
  <path
     fill-rule="nonzero"
     fill="rgb(0%, 0%, 0%)"
     fill-opacity="1"
     d="M 408.703125 230.992188 C 408.703125 231.773438 408.070312 232.410156 407.289062 232.410156 C 406.503906 232.410156 405.871094 231.773438 405.871094 230.992188 C 405.871094 230.210938 406.503906 229.574219 407.289062 229.574219 C 408.070312 229.574219 408.703125 230.210938 408.703125 230.992188 Z M 408.703125 230.992188 "
     id="path170" />
  <path
     fill-rule="nonzero"
     fill="rgb(0%, 0%, 0%)"
     fill-opacity="1"
     d="M 408.703125 238.191406 C 408.703125 238.976562 408.070312 239.609375 407.289062 239.609375 C 406.503906 239.609375 405.871094 238.976562 405.871094 238.191406 C 405.871094 237.410156 406.503906 236.773438 407.289062 236.773438 C 408.070312 236.773438 408.703125 237.410156 408.703125 238.191406 Z M 408.703125 238.191406 "
     id="path171" />
  <path
     fill-rule="nonzero"
     fill="rgb(0%, 0%, 0%)"
     fill-opacity="1"
     d="M 408.703125 266.992188 C 408.703125 267.773438 408.070312 268.410156 407.289062 268.410156 C 406.503906 268.410156 405.871094 267.773438 405.871094 266.992188 C 405.871094 266.210938 406.503906 265.574219 407.289062 265.574219 C 408.070312 265.574219 408.703125 266.210938 408.703125 266.992188 Z M 408.703125 266.992188 "
     id="path172" />
  <path
     fill-rule="nonzero"
     fill="rgb(0%, 0%, 0%)"
     fill-opacity="1"
     d="M 408.703125 274.191406 C 408.703125 274.976562 408.070312 275.609375 407.289062 275.609375 C 406.503906 275.609375 405.871094 274.976562 405.871094 274.191406 C 405.871094 273.410156 406.503906 272.773438 407.289062 272.773438 C 408.070312 272.773438 408.703125 273.410156 408.703125 274.191406 Z M 408.703125 274.191406 "
     id="path173" />
  <path
     fill-rule="nonzero"
     fill="rgb(0%, 0%, 0%)"
     fill-opacity="1"
     d="M 408.703125 295.792969 C 408.703125 296.574219 408.070312 297.210938 407.289062 297.210938 C 406.503906 297.210938 405.871094 296.574219 405.871094 295.792969 C 405.871094 295.007812 406.503906 294.375 407.289062 294.375 C 408.070312 294.375 408.703125 295.007812 408.703125 295.792969 Z M 408.703125 295.792969 "
     id="path174" />
  <path
     fill-rule="nonzero"
     fill="rgb(0%, 0%, 0%)"
     fill-opacity="1"
     d="M 408.703125 281.390625 C 408.703125 282.175781 408.070312 282.808594 407.289062 282.808594 C 406.503906 282.808594 405.871094 282.175781 405.871094 281.390625 C 405.871094 280.609375 406.503906 279.976562 407.289062 279.976562 C 408.070312 279.976562 408.703125 280.609375 408.703125 281.390625 Z M 408.703125 281.390625 "
     id="path175" />
  <path
     fill-rule="nonzero"
     fill="rgb(0%, 0%, 0%)"
     fill-opacity="1"
     d="M 408.703125 288.59375 C 408.703125 289.375 408.070312 290.011719 407.289062 290.011719 C 406.503906 290.011719 405.871094 289.375 405.871094 288.59375 C 405.871094 287.808594 406.503906 287.175781 407.289062 287.175781 C 408.070312 287.175781 408.703125 287.808594 408.703125 288.59375 Z M 408.703125 288.59375 "
     id="path176" />
  <path
     fill-rule="nonzero"
     fill="rgb(0%, 0%, 0%)"
     fill-opacity="1"
     d="M 408.703125 310.191406 C 408.703125 310.976562 408.070312 311.609375 407.289062 311.609375 C 406.503906 311.609375 405.871094 310.976562 405.871094 310.191406 C 405.871094 309.410156 406.503906 308.773438 407.289062 308.773438 C 408.070312 308.773438 408.703125 309.410156 408.703125 310.191406 Z M 408.703125 310.191406 "
     id="path177" />
  <path
     fill-rule="nonzero"
     fill="rgb(0%, 0%, 0%)"
     fill-opacity="1"
     d="M 408.703125 302.992188 C 408.703125 303.773438 408.070312 304.410156 407.289062 304.410156 C 406.503906 304.410156 405.871094 303.773438 405.871094 302.992188 C 405.871094 302.210938 406.503906 301.574219 407.289062 301.574219 C 408.070312 301.574219 408.703125 302.210938 408.703125 302.992188 Z M 408.703125 302.992188 "
     id="path178" />
  <path
     fill-rule="nonzero"
     fill="rgb(0%, 0%, 0%)"
     fill-opacity="1"
     d="M 408.703125 317.390625 C 408.703125 318.175781 408.070312 318.808594 407.289062 318.808594 C 406.503906 318.808594 405.871094 318.175781 405.871094 317.390625 C 405.871094 316.609375 406.503906 315.976562 407.289062 315.976562 C 408.070312 315.976562 408.703125 316.609375 408.703125 317.390625 Z M 408.703125 317.390625 "
     id="path179" />
  <path
     fill-rule="nonzero"
     fill="rgb(0%, 0%, 0%)"
     fill-opacity="1"
     d="M 336.421875 223.792969 C 336.421875 224.574219 335.785156 225.210938 335.003906 225.210938 C 334.21875 225.210938 333.585938 224.574219 333.585938 223.792969 C 333.585938 223.007812 334.21875 222.375 335.003906 222.375 C 335.785156 222.375 336.421875 223.007812 336.421875 223.792969 Z M 336.421875 223.792969 "
     id="path180" />
  <path
     fill-rule="nonzero"
     fill="rgb(0%, 0%, 0%)"
     fill-opacity="1"
     d="M 383.203125 197.949219 C 383.203125 198.96875 382.375 199.800781 381.351562 199.800781 C 380.328125 199.800781 379.5 198.96875 379.5 197.949219 C 379.5 196.925781 380.328125 196.09375 381.351562 196.09375 C 382.375 196.09375 383.203125 196.925781 383.203125 197.949219 Z M 383.203125 197.949219 "
     id="path181" />
  <path
     fill-rule="nonzero"
     fill="rgb(0%, 0%, 0%)"
     fill-opacity="1"
     d="M 336.421875 252.59375 C 336.421875 253.375 335.785156 254.011719 335.003906 254.011719 C 334.21875 254.011719 333.585938 253.375 333.585938 252.59375 C 333.585938 251.808594 334.21875 251.175781 335.003906 251.175781 C 335.785156 251.175781 336.421875 251.808594 336.421875 252.59375 Z M 336.421875 252.59375 "
     id="path182" />
  <path
     fill-rule="nonzero"
     fill="rgb(0%, 0%, 0%)"
     fill-opacity="1"
     d="M 336.421875 230.992188 C 336.421875 231.773438 335.785156 232.410156 335.003906 232.410156 C 334.21875 232.410156 333.585938 231.773438 333.585938 230.992188 C 333.585938 230.210938 334.21875 229.574219 335.003906 229.574219 C 335.785156 229.574219 336.421875 230.210938 336.421875 230.992188 Z M 336.421875 230.992188 "
     id="path183" />
  <path
     fill-rule="nonzero"
     fill="rgb(0%, 0%, 0%)"
     fill-opacity="1"
     d="M 369.03125 197.949219 C 369.03125 198.96875 368.199219 199.800781 367.175781 199.800781 C 366.15625 199.800781 365.324219 198.96875 365.324219 197.949219 C 365.324219 196.925781 366.15625 196.09375 367.175781 196.09375 C 368.199219 196.09375 369.03125 196.925781 369.03125 197.949219 Z M 369.03125 197.949219 "
     id="path184" />
  <path
     fill-rule="nonzero"
     fill="rgb(0%, 0%, 0%)"
     fill-opacity="1"
     d="M 336.421875 238.191406 C 336.421875 238.976562 335.785156 239.609375 335.003906 239.609375 C 334.21875 239.609375 333.585938 238.976562 333.585938 238.191406 C 333.585938 237.410156 334.21875 236.773438 335.003906 236.773438 C 335.785156 236.773438 336.421875 237.410156 336.421875 238.191406 Z M 336.421875 238.191406 "
     id="path185" />
  <path
     fill-rule="nonzero"
     fill="rgb(0%, 0%, 0%)"
     fill-opacity="1"
     d="M 336.421875 245.390625 C 336.421875 246.175781 335.785156 246.808594 335.003906 246.808594 C 334.21875 246.808594 333.585938 246.175781 333.585938 245.390625 C 333.585938 244.609375 334.21875 243.976562 335.003906 243.976562 C 335.785156 243.976562 336.421875 244.609375 336.421875 245.390625 Z M 336.421875 245.390625 "
     id="path186" />
  <path
     fill-rule="nonzero"
     fill="rgb(0%, 0%, 0%)"
     fill-opacity="1"
     d="M 336.421875 259.792969 C 336.421875 260.574219 335.785156 261.210938 335.003906 261.210938 C 334.21875 261.210938 333.585938 260.574219 333.585938 259.792969 C 333.585938 259.007812 334.21875 258.375 335.003906 258.375 C 335.785156 258.375 336.421875 259.007812 336.421875 259.792969 Z M 336.421875 259.792969 "
     id="path187" />
  <path
     fill-rule="nonzero"
     fill="rgb(0%, 0%, 0%)"
     fill-opacity="1"
     d="M 336.421875 281.390625 C 336.421875 282.175781 335.785156 282.808594 335.003906 282.808594 C 334.21875 282.808594 333.585938 282.175781 333.585938 281.390625 C 333.585938 280.609375 334.21875 279.976562 335.003906 279.976562 C 335.785156 279.976562 336.421875 280.609375 336.421875 281.390625 Z M 336.421875 281.390625 "
     id="path188" />
  <path
     fill-rule="nonzero"
     fill="rgb(0%, 0%, 0%)"
     fill-opacity="1"
     d="M 336.421875 288.59375 C 336.421875 289.375 335.785156 290.011719 335.003906 290.011719 C 334.21875 290.011719 333.585938 289.375 333.585938 288.59375 C 333.585938 287.808594 334.21875 287.175781 335.003906 287.175781 C 335.785156 287.175781 336.421875 287.808594 336.421875 288.59375 Z M 336.421875 288.59375 "
     id="path189" />
  <path
     fill-rule="nonzero"
     fill="rgb(0%, 0%, 0%)"
     fill-opacity="1"
     d="M 336.421875 295.792969 C 336.421875 296.574219 335.785156 297.210938 335.003906 297.210938 C 334.21875 297.210938 333.585938 296.574219 333.585938 295.792969 C 333.585938 295.007812 334.21875 294.375 335.003906 294.375 C 335.785156 294.375 336.421875 295.007812 336.421875 295.792969 Z M 336.421875 295.792969 "
     id="path190" />
  <path
     fill-rule="nonzero"
     fill="rgb(0%, 0%, 0%)"
     fill-opacity="1"
     d="M 336.421875 302.992188 C 336.421875 303.773438 335.785156 304.410156 335.003906 304.410156 C 334.21875 304.410156 333.585938 303.773438 333.585938 302.992188 C 333.585938 302.210938 334.21875 301.574219 335.003906 301.574219 C 335.785156 301.574219 336.421875 302.210938 336.421875 302.992188 Z M 336.421875 302.992188 "
     id="path191" />
  <path
     fill-rule="nonzero"
     fill="rgb(0%, 0%, 0%)"
     fill-opacity="1"
     d="M 336.421875 310.191406 C 336.421875 310.976562 335.785156 311.609375 335.003906 311.609375 C 334.21875 311.609375 333.585938 310.976562 333.585938 310.191406 C 333.585938 309.410156 334.21875 308.773438 335.003906 308.773438 C 335.785156 308.773438 336.421875 309.410156 336.421875 310.191406 Z M 336.421875 310.191406 "
     id="path192" />
  <path
     fill-rule="nonzero"
     fill="rgb(0%, 0%, 0%)"
     fill-opacity="1"
     d="M 336.421875 274.191406 C 336.421875 274.976562 335.785156 275.609375 335.003906 275.609375 C 334.21875 275.609375 333.585938 274.976562 333.585938 274.191406 C 333.585938 273.410156 334.21875 272.773438 335.003906 272.773438 C 335.785156 272.773438 336.421875 273.410156 336.421875 274.191406 Z M 336.421875 274.191406 "
     id="path193" />
  <path
     fill-rule="nonzero"
     fill="rgb(0%, 0%, 0%)"
     fill-opacity="1"
     d="M 336.421875 266.992188 C 336.421875 267.773438 335.785156 268.410156 335.003906 268.410156 C 334.21875 268.410156 333.585938 267.773438 333.585938 266.992188 C 333.585938 266.210938 334.21875 265.574219 335.003906 265.574219 C 335.785156 265.574219 336.421875 266.210938 336.421875 266.992188 Z M 336.421875 266.992188 "
     id="path194" />
  <path
     fill-rule="nonzero"
     fill="rgb(0%, 0%, 0%)"
     fill-opacity="1"
     d="M 336.421875 317.390625 C 336.421875 318.175781 335.785156 318.808594 335.003906 318.808594 C 334.21875 318.808594 333.585938 318.175781 333.585938 317.390625 C 333.585938 316.609375 334.21875 315.976562 335.003906 315.976562 C 335.785156 315.976562 336.421875 316.609375 336.421875 317.390625 Z M 336.421875 317.390625 "
     id="path195" />
</svg>
