%TF.GenerationSoftware,KiCad,Pcbnew,10.0.0*%
%TF.CreationDate,2026-05-30T12:33:43+07:00*%
%TF.ProjectId,v2v-proto,7632762d-7072-46f7-946f-2e6b69636164,rev?*%
%TF.SameCoordinates,Original*%
%TF.FileFunction,Soldermask,Top*%
%TF.FilePolarity,Negative*%
%FSLAX46Y46*%
G04 Gerber Fmt 4.6, Leading zero omitted, Abs format (unit mm)*
G04 Created by KiCad (PCBNEW 10.0.0) date 2026-05-30 12:33:43*
%MOMM*%
%LPD*%
G01*
G04 APERTURE LIST*
G04 Aperture macros list*
%AMRoundRect*
0 Rectangle with rounded corners*
0 $1 Rounding radius*
0 $2 $3 $4 $5 $6 $7 $8 $9 X,Y pos of 4 corners*
0 Add a 4 corners polygon primitive as box body*
4,1,4,$2,$3,$4,$5,$6,$7,$8,$9,$2,$3,0*
0 Add four circle primitives for the rounded corners*
1,1,$1+$1,$2,$3*
1,1,$1+$1,$4,$5*
1,1,$1+$1,$6,$7*
1,1,$1+$1,$8,$9*
0 Add four rect primitives between the rounded corners*
20,1,$1+$1,$2,$3,$4,$5,0*
20,1,$1+$1,$4,$5,$6,$7,0*
20,1,$1+$1,$6,$7,$8,$9,0*
20,1,$1+$1,$8,$9,$2,$3,0*%
G04 Aperture macros list end*
%ADD10R,1.700000X1.700000*%
%ADD11C,1.700000*%
%ADD12RoundRect,0.250000X0.412500X0.650000X-0.412500X0.650000X-0.412500X-0.650000X0.412500X-0.650000X0*%
%ADD13RoundRect,0.250000X-0.337500X-0.475000X0.337500X-0.475000X0.337500X0.475000X-0.337500X0.475000X0*%
%ADD14RoundRect,0.250000X-0.350000X-0.450000X0.350000X-0.450000X0.350000X0.450000X-0.350000X0.450000X0*%
%ADD15RoundRect,0.250000X0.450000X-0.350000X0.450000X0.350000X-0.450000X0.350000X-0.450000X-0.350000X0*%
%ADD16RoundRect,0.250000X0.337500X0.475000X-0.337500X0.475000X-0.337500X-0.475000X0.337500X-0.475000X0*%
%ADD17RoundRect,0.243750X0.243750X0.456250X-0.243750X0.456250X-0.243750X-0.456250X0.243750X-0.456250X0*%
%ADD18RoundRect,0.250000X-0.400000X-0.625000X0.400000X-0.625000X0.400000X0.625000X-0.400000X0.625000X0*%
%ADD19RoundRect,0.250000X-0.450000X0.350000X-0.450000X-0.350000X0.450000X-0.350000X0.450000X0.350000X0*%
%ADD20RoundRect,0.250000X0.625000X-0.400000X0.625000X0.400000X-0.625000X0.400000X-0.625000X-0.400000X0*%
%ADD21R,1.300000X1.300000*%
%ADD22C,1.300000*%
%ADD23RoundRect,0.250000X-0.475000X0.337500X-0.475000X-0.337500X0.475000X-0.337500X0.475000X0.337500X0*%
%ADD24RoundRect,0.250000X-0.625000X0.400000X-0.625000X-0.400000X0.625000X-0.400000X0.625000X0.400000X0*%
%ADD25RoundRect,0.250001X-1.149999X-1.149999X1.149999X-1.149999X1.149999X1.149999X-1.149999X1.149999X0*%
%ADD26C,2.800000*%
%ADD27RoundRect,0.250000X-1.500000X-0.550000X1.500000X-0.550000X1.500000X0.550000X-1.500000X0.550000X0*%
%ADD28R,2.000000X2.000000*%
%ADD29C,2.000000*%
%ADD30RoundRect,0.250000X-0.550000X-0.550000X0.550000X-0.550000X0.550000X0.550000X-0.550000X0.550000X0*%
%ADD31C,1.600000*%
%ADD32RoundRect,0.250000X0.350000X0.450000X-0.350000X0.450000X-0.350000X-0.450000X0.350000X-0.450000X0*%
G04 APERTURE END LIST*
D10*
%TO.C,J7*%
X173300000Y-97560000D03*
D11*
X173300000Y-95020000D03*
X173300000Y-92480000D03*
X173300000Y-89940000D03*
X173300000Y-87400000D03*
X173300000Y-84860000D03*
X173300000Y-82320000D03*
%TD*%
D12*
%TO.C,C4*%
X183600000Y-76850000D03*
X180475000Y-76850000D03*
%TD*%
D13*
%TO.C,C5*%
X177525000Y-98050000D03*
X179600000Y-98050000D03*
%TD*%
D14*
%TO.C,R5*%
X159400000Y-59050000D03*
X161400000Y-59050000D03*
%TD*%
D15*
%TO.C,R9*%
X191700000Y-100900000D03*
X191700000Y-98900000D03*
%TD*%
D16*
%TO.C,C3*%
X178100000Y-76850000D03*
X176025000Y-76850000D03*
%TD*%
D17*
%TO.C,D4*%
X189600000Y-105650000D03*
X187725000Y-105650000D03*
%TD*%
D18*
%TO.C,R1*%
X159450000Y-53500000D03*
X162550000Y-53500000D03*
%TD*%
D10*
%TO.C,J6*%
X163300000Y-95020000D03*
D11*
X163300000Y-92480000D03*
X163300000Y-89940000D03*
X163300000Y-87400000D03*
X163300000Y-84860000D03*
%TD*%
D19*
%TO.C,R7*%
X181750000Y-106850000D03*
X181750000Y-108850000D03*
%TD*%
D20*
%TO.C,R4*%
X159550000Y-87850000D03*
X159550000Y-84750000D03*
%TD*%
D21*
%TO.C,Q1*%
X179170000Y-106930000D03*
D22*
X177900000Y-108200000D03*
X176630000Y-106930000D03*
%TD*%
D10*
%TO.C,J4*%
X189107712Y-81892850D03*
D11*
X189107712Y-84432850D03*
X189107712Y-86972850D03*
X189107712Y-89512850D03*
X189107712Y-92052850D03*
X189107712Y-94592850D03*
%TD*%
D10*
%TO.C,J2*%
X156500000Y-49220000D03*
D11*
X156500000Y-51760000D03*
X156500000Y-54300000D03*
X156500000Y-56840000D03*
X156500000Y-59380000D03*
X156500000Y-61920000D03*
X156500000Y-64460000D03*
X156500000Y-67000000D03*
X156500000Y-69540000D03*
X156500000Y-72080000D03*
X156500000Y-74620000D03*
X156500000Y-77160000D03*
X156500000Y-79700000D03*
X156500000Y-82240000D03*
X156500000Y-84780000D03*
X156500000Y-87320000D03*
X156500000Y-89860000D03*
X156500000Y-92400000D03*
X156500000Y-94940000D03*
X156500000Y-97480000D03*
X156500000Y-100020000D03*
X156500000Y-102560000D03*
X156500000Y-105100000D03*
X156500000Y-107640000D03*
X156500000Y-110180000D03*
%TD*%
D14*
%TO.C,R6*%
X159400000Y-56400000D03*
X161400000Y-56400000D03*
%TD*%
D23*
%TO.C,C2*%
X192600000Y-88275000D03*
X192600000Y-90350000D03*
%TD*%
D20*
%TO.C,R3*%
X159550000Y-92900000D03*
X159550000Y-89800000D03*
%TD*%
D24*
%TO.C,R2*%
X159550000Y-94800000D03*
X159550000Y-97900000D03*
%TD*%
D10*
%TO.C,J3*%
X170280000Y-73900000D03*
D11*
X172820000Y-73900000D03*
X175360000Y-73900000D03*
X177900000Y-73900000D03*
X180440000Y-73900000D03*
X182980000Y-73900000D03*
X185520000Y-73900000D03*
%TD*%
D25*
%TO.C,J11*%
X154200000Y-39450000D03*
D26*
X159200000Y-39450000D03*
%TD*%
D27*
%TO.C,C1*%
X132500000Y-39400000D03*
X138100000Y-39400000D03*
%TD*%
D10*
%TO.C,J1*%
X131000000Y-49220000D03*
D11*
X131000000Y-51760000D03*
X131000000Y-54300000D03*
X131000000Y-56840000D03*
X131000000Y-59380000D03*
X131000000Y-61920000D03*
X131000000Y-64460000D03*
X131000000Y-67000000D03*
X131000000Y-69540000D03*
X131000000Y-72080000D03*
X131000000Y-74620000D03*
X131000000Y-77160000D03*
X131000000Y-79700000D03*
X131000000Y-82240000D03*
X131000000Y-84780000D03*
X131000000Y-87320000D03*
X131000000Y-89860000D03*
X131000000Y-92400000D03*
X131000000Y-94940000D03*
X131000000Y-97480000D03*
X131000000Y-100020000D03*
X131000000Y-102560000D03*
X131000000Y-105100000D03*
X131000000Y-107640000D03*
X131000000Y-110180000D03*
%TD*%
D28*
%TO.C,BZ1*%
X164350000Y-107600000D03*
D29*
X171950000Y-107600000D03*
%TD*%
D15*
%TO.C,R10*%
X191700000Y-105750000D03*
X191700000Y-103750000D03*
%TD*%
D10*
%TO.C,J5*%
X178707712Y-81892850D03*
D11*
X178707712Y-84432850D03*
X178707712Y-86972850D03*
X178707712Y-89512850D03*
X178707712Y-92052850D03*
X178707712Y-94592850D03*
%TD*%
D17*
%TO.C,D3*%
X189600000Y-103400000D03*
X187725000Y-103400000D03*
%TD*%
%TO.C,D2*%
X189600000Y-101150000D03*
X187725000Y-101150000D03*
%TD*%
D30*
%TO.C,D1*%
X174830000Y-102900000D03*
D31*
X182450000Y-102900000D03*
%TD*%
D32*
%TO.C,R8*%
X189650000Y-98750000D03*
X187650000Y-98750000D03*
%TD*%
M02*
