M48
; DRILL file KiCad 10.0.0 date 2026-05-30T12:33:43
; FORMAT={-:-/ absolute / inch / decimal}
; #@! TF.CreationDate,2026-05-30T12:33:43+07:00
; #@! TF.GenerationSoftware,Kicad,Pcbnew,10.0.0
; #@! TF.FileFunction,Plated,1,2,PTH
FMAT,2
INCH
; #@! TA.AperFunction,Plated,PTH,ComponentDrill
T1C0.0295
; #@! TA.AperFunction,Plated,PTH,ComponentDrill
T2C0.0315
; #@! TA.AperFunction,Plated,PTH,ComponentDrill
T3C0.0394
; #@! TA.AperFunction,Plated,PTH,ComponentDrill
T4C0.0512
%
G90
G05
T1
X6.9539Y-4.2098
X7.0039Y-4.2598
X7.0539Y-4.2098
T2
X6.8831Y-4.0512
X7.1831Y-4.0512
T3
X5.1575Y-1.9378
X5.1575Y-2.0378
X5.1575Y-2.1378
X5.1575Y-2.2378
X5.1575Y-2.3378
X5.1575Y-2.4378
X5.1575Y-2.5378
X5.1575Y-2.6378
X5.1575Y-2.7378
X5.1575Y-2.8378
X5.1575Y-2.9378
X5.1575Y-3.0378
X5.1575Y-3.1378
X5.1575Y-3.2378
X5.1575Y-3.3378
X5.1575Y-3.4378
X5.1575Y-3.5378
X5.1575Y-3.6378
X5.1575Y-3.7378
X5.1575Y-3.8378
X5.1575Y-3.9378
X5.1575Y-4.0378
X5.1575Y-4.1378
X5.1575Y-4.2378
X5.1575Y-4.3378
X6.1614Y-1.9378
X6.1614Y-2.0378
X6.1614Y-2.1378
X6.1614Y-2.2378
X6.1614Y-2.3378
X6.1614Y-2.4378
X6.1614Y-2.5378
X6.1614Y-2.6378
X6.1614Y-2.7378
X6.1614Y-2.8378
X6.1614Y-2.9378
X6.1614Y-3.0378
X6.1614Y-3.1378
X6.1614Y-3.2378
X6.1614Y-3.3378
X6.1614Y-3.4378
X6.1614Y-3.5378
X6.1614Y-3.6378
X6.1614Y-3.7378
X6.1614Y-3.8378
X6.1614Y-3.9378
X6.1614Y-4.0378
X6.1614Y-4.1378
X6.1614Y-4.2378
X6.1614Y-4.3378
X6.4291Y-3.3409
X6.4291Y-3.4409
X6.4291Y-3.5409
X6.4291Y-3.6409
X6.4291Y-3.7409
X6.4705Y-4.2362
X6.7039Y-2.9094
X6.7697Y-4.2362
X6.8039Y-2.9094
X6.8228Y-3.2409
X6.8228Y-3.3409
X6.8228Y-3.4409
X6.8228Y-3.5409
X6.8228Y-3.6409
X6.8228Y-3.7409
X6.8228Y-3.8409
X6.9039Y-2.9094
X7.0039Y-2.9094
X7.0357Y-3.2241
X7.0357Y-3.3241
X7.0357Y-3.4241
X7.0357Y-3.5241
X7.0357Y-3.6241
X7.0357Y-3.7241
X7.1039Y-2.9094
X7.2039Y-2.9094
X7.3039Y-2.9094
X7.4452Y-3.2241
X7.4452Y-3.3241
X7.4452Y-3.4241
X7.4452Y-3.5241
X7.4452Y-3.6241
X7.4452Y-3.7241
T4
X6.0709Y-1.5531
X6.2677Y-1.5531
M30
