%TF.GenerationSoftware,KiCad,Pcbnew,10.0.0*%
%TF.CreationDate,2026-05-30T12:33:43+07:00*%
%TF.ProjectId,v2v-proto,7632762d-7072-46f7-946f-2e6b69636164,rev?*%
%TF.SameCoordinates,Original*%
%TF.FileFunction,Legend,Top*%
%TF.FilePolarity,Positive*%
%FSLAX46Y46*%
G04 Gerber Fmt 4.6, Leading zero omitted, Abs format (unit mm)*
G04 Created by KiCad (PCBNEW 10.0.0) date 2026-05-30 12:33:43*
%MOMM*%
%LPD*%
G01*
G04 APERTURE LIST*
G04 Aperture macros list*
%AMRoundRect*
0 Rectangle with rounded corners*
0 $1 Rounding radius*
0 $2 $3 $4 $5 $6 $7 $8 $9 X,Y pos of 4 corners*
0 Add a 4 corners polygon primitive as box body*
4,1,4,$2,$3,$4,$5,$6,$7,$8,$9,$2,$3,0*
0 Add four circle primitives for the rounded corners*
1,1,$1+$1,$2,$3*
1,1,$1+$1,$4,$5*
1,1,$1+$1,$6,$7*
1,1,$1+$1,$8,$9*
0 Add four rect primitives between the rounded corners*
20,1,$1+$1,$2,$3,$4,$5,0*
20,1,$1+$1,$4,$5,$6,$7,0*
20,1,$1+$1,$6,$7,$8,$9,0*
20,1,$1+$1,$8,$9,$2,$3,0*%
G04 Aperture macros list end*
%ADD10C,0.600000*%
%ADD11C,0.100000*%
%ADD12C,0.200000*%
%ADD13C,0.250000*%
%ADD14C,0.300000*%
%ADD15C,0.150000*%
%ADD16C,0.120000*%
%ADD17R,1.700000X1.700000*%
%ADD18C,1.700000*%
%ADD19C,3.200000*%
%ADD20RoundRect,0.250000X0.412500X0.650000X-0.412500X0.650000X-0.412500X-0.650000X0.412500X-0.650000X0*%
%ADD21RoundRect,0.250000X-0.337500X-0.475000X0.337500X-0.475000X0.337500X0.475000X-0.337500X0.475000X0*%
%ADD22RoundRect,0.250000X-0.350000X-0.450000X0.350000X-0.450000X0.350000X0.450000X-0.350000X0.450000X0*%
%ADD23RoundRect,0.250000X0.450000X-0.350000X0.450000X0.350000X-0.450000X0.350000X-0.450000X-0.350000X0*%
%ADD24RoundRect,0.250000X0.337500X0.475000X-0.337500X0.475000X-0.337500X-0.475000X0.337500X-0.475000X0*%
%ADD25RoundRect,0.243750X0.243750X0.456250X-0.243750X0.456250X-0.243750X-0.456250X0.243750X-0.456250X0*%
%ADD26RoundRect,0.250000X-0.400000X-0.625000X0.400000X-0.625000X0.400000X0.625000X-0.400000X0.625000X0*%
%ADD27RoundRect,0.250000X-0.450000X0.350000X-0.450000X-0.350000X0.450000X-0.350000X0.450000X0.350000X0*%
%ADD28RoundRect,0.250000X0.625000X-0.400000X0.625000X0.400000X-0.625000X0.400000X-0.625000X-0.400000X0*%
%ADD29R,1.300000X1.300000*%
%ADD30C,1.300000*%
%ADD31RoundRect,0.250000X-0.475000X0.337500X-0.475000X-0.337500X0.475000X-0.337500X0.475000X0.337500X0*%
%ADD32RoundRect,0.250000X-0.625000X0.400000X-0.625000X-0.400000X0.625000X-0.400000X0.625000X0.400000X0*%
%ADD33RoundRect,0.250001X-1.149999X-1.149999X1.149999X-1.149999X1.149999X1.149999X-1.149999X1.149999X0*%
%ADD34C,2.800000*%
%ADD35RoundRect,0.250000X-1.500000X-0.550000X1.500000X-0.550000X1.500000X0.550000X-1.500000X0.550000X0*%
%ADD36R,2.000000X2.000000*%
%ADD37C,2.000000*%
%ADD38RoundRect,0.250000X-0.550000X-0.550000X0.550000X-0.550000X0.550000X0.550000X-0.550000X0.550000X0*%
%ADD39C,1.600000*%
%ADD40RoundRect,0.250000X0.350000X0.450000X-0.350000X0.450000X-0.350000X-0.450000X0.350000X-0.450000X0*%
G04 APERTURE END LIST*
D10*
X151650000Y-51450000D02*
X149150000Y-53950000D01*
X151650000Y-51450000D02*
X151650000Y-75050000D01*
X154150000Y-53950000D02*
X151650000Y-51450000D01*
D11*
X160800000Y-79940000D02*
X175800000Y-79940000D01*
X175800000Y-99940000D01*
X160800000Y-99940000D01*
X160800000Y-79940000D01*
X164050000Y-35700000D02*
X191750000Y-35700000D01*
X191750000Y-75400000D01*
X164050000Y-75400000D01*
X164050000Y-35700000D01*
X176671471Y-79884980D02*
X191228530Y-79884980D01*
X191228530Y-96600000D01*
X176671471Y-96600000D01*
X176671471Y-79884980D01*
D12*
X184453006Y-103691695D02*
X184072054Y-103691695D01*
X184072054Y-103691695D02*
X184072054Y-102891695D01*
X184833958Y-103691695D02*
X184757768Y-103653600D01*
X184757768Y-103653600D02*
X184719673Y-103615504D01*
X184719673Y-103615504D02*
X184681577Y-103539314D01*
X184681577Y-103539314D02*
X184681577Y-103310742D01*
X184681577Y-103310742D02*
X184719673Y-103234552D01*
X184719673Y-103234552D02*
X184757768Y-103196457D01*
X184757768Y-103196457D02*
X184833958Y-103158361D01*
X184833958Y-103158361D02*
X184948244Y-103158361D01*
X184948244Y-103158361D02*
X185024435Y-103196457D01*
X185024435Y-103196457D02*
X185062530Y-103234552D01*
X185062530Y-103234552D02*
X185100625Y-103310742D01*
X185100625Y-103310742D02*
X185100625Y-103539314D01*
X185100625Y-103539314D02*
X185062530Y-103615504D01*
X185062530Y-103615504D02*
X185024435Y-103653600D01*
X185024435Y-103653600D02*
X184948244Y-103691695D01*
X184948244Y-103691695D02*
X184833958Y-103691695D01*
X185900626Y-103691695D02*
X185633959Y-103310742D01*
X185443483Y-103691695D02*
X185443483Y-102891695D01*
X185443483Y-102891695D02*
X185748245Y-102891695D01*
X185748245Y-102891695D02*
X185824435Y-102929790D01*
X185824435Y-102929790D02*
X185862530Y-102967885D01*
X185862530Y-102967885D02*
X185900626Y-103044076D01*
X185900626Y-103044076D02*
X185900626Y-103158361D01*
X185900626Y-103158361D02*
X185862530Y-103234552D01*
X185862530Y-103234552D02*
X185824435Y-103272647D01*
X185824435Y-103272647D02*
X185748245Y-103310742D01*
X185748245Y-103310742D02*
X185443483Y-103310742D01*
X186586340Y-103691695D02*
X186586340Y-103272647D01*
X186586340Y-103272647D02*
X186548245Y-103196457D01*
X186548245Y-103196457D02*
X186472054Y-103158361D01*
X186472054Y-103158361D02*
X186319673Y-103158361D01*
X186319673Y-103158361D02*
X186243483Y-103196457D01*
X186586340Y-103653600D02*
X186510149Y-103691695D01*
X186510149Y-103691695D02*
X186319673Y-103691695D01*
X186319673Y-103691695D02*
X186243483Y-103653600D01*
X186243483Y-103653600D02*
X186205387Y-103577409D01*
X186205387Y-103577409D02*
X186205387Y-103501219D01*
X186205387Y-103501219D02*
X186243483Y-103425028D01*
X186243483Y-103425028D02*
X186319673Y-103386933D01*
X186319673Y-103386933D02*
X186510149Y-103386933D01*
X186510149Y-103386933D02*
X186586340Y-103348838D01*
X184779197Y-101415504D02*
X184741101Y-101453600D01*
X184741101Y-101453600D02*
X184626816Y-101491695D01*
X184626816Y-101491695D02*
X184550625Y-101491695D01*
X184550625Y-101491695D02*
X184436339Y-101453600D01*
X184436339Y-101453600D02*
X184360149Y-101377409D01*
X184360149Y-101377409D02*
X184322054Y-101301219D01*
X184322054Y-101301219D02*
X184283958Y-101148838D01*
X184283958Y-101148838D02*
X184283958Y-101034552D01*
X184283958Y-101034552D02*
X184322054Y-100882171D01*
X184322054Y-100882171D02*
X184360149Y-100805980D01*
X184360149Y-100805980D02*
X184436339Y-100729790D01*
X184436339Y-100729790D02*
X184550625Y-100691695D01*
X184550625Y-100691695D02*
X184626816Y-100691695D01*
X184626816Y-100691695D02*
X184741101Y-100729790D01*
X184741101Y-100729790D02*
X184779197Y-100767885D01*
X185083958Y-101263123D02*
X185464911Y-101263123D01*
X185007768Y-101491695D02*
X185274435Y-100691695D01*
X185274435Y-100691695D02*
X185541101Y-101491695D01*
X185807768Y-101491695D02*
X185807768Y-100691695D01*
X185807768Y-100691695D02*
X186264911Y-101491695D01*
X186264911Y-101491695D02*
X186264911Y-100691695D01*
X184741101Y-105329790D02*
X184664911Y-105291695D01*
X184664911Y-105291695D02*
X184550625Y-105291695D01*
X184550625Y-105291695D02*
X184436339Y-105329790D01*
X184436339Y-105329790D02*
X184360149Y-105405980D01*
X184360149Y-105405980D02*
X184322054Y-105482171D01*
X184322054Y-105482171D02*
X184283958Y-105634552D01*
X184283958Y-105634552D02*
X184283958Y-105748838D01*
X184283958Y-105748838D02*
X184322054Y-105901219D01*
X184322054Y-105901219D02*
X184360149Y-105977409D01*
X184360149Y-105977409D02*
X184436339Y-106053600D01*
X184436339Y-106053600D02*
X184550625Y-106091695D01*
X184550625Y-106091695D02*
X184626816Y-106091695D01*
X184626816Y-106091695D02*
X184741101Y-106053600D01*
X184741101Y-106053600D02*
X184779197Y-106015504D01*
X184779197Y-106015504D02*
X184779197Y-105748838D01*
X184779197Y-105748838D02*
X184626816Y-105748838D01*
X185122054Y-106091695D02*
X185122054Y-105291695D01*
X185122054Y-105291695D02*
X185426816Y-105291695D01*
X185426816Y-105291695D02*
X185503006Y-105329790D01*
X185503006Y-105329790D02*
X185541101Y-105367885D01*
X185541101Y-105367885D02*
X185579197Y-105444076D01*
X185579197Y-105444076D02*
X185579197Y-105558361D01*
X185579197Y-105558361D02*
X185541101Y-105634552D01*
X185541101Y-105634552D02*
X185503006Y-105672647D01*
X185503006Y-105672647D02*
X185426816Y-105710742D01*
X185426816Y-105710742D02*
X185122054Y-105710742D01*
X185883958Y-106053600D02*
X185998244Y-106091695D01*
X185998244Y-106091695D02*
X186188720Y-106091695D01*
X186188720Y-106091695D02*
X186264911Y-106053600D01*
X186264911Y-106053600D02*
X186303006Y-106015504D01*
X186303006Y-106015504D02*
X186341101Y-105939314D01*
X186341101Y-105939314D02*
X186341101Y-105863123D01*
X186341101Y-105863123D02*
X186303006Y-105786933D01*
X186303006Y-105786933D02*
X186264911Y-105748838D01*
X186264911Y-105748838D02*
X186188720Y-105710742D01*
X186188720Y-105710742D02*
X186036339Y-105672647D01*
X186036339Y-105672647D02*
X185960149Y-105634552D01*
X185960149Y-105634552D02*
X185922054Y-105596457D01*
X185922054Y-105596457D02*
X185883958Y-105520266D01*
X185883958Y-105520266D02*
X185883958Y-105444076D01*
X185883958Y-105444076D02*
X185922054Y-105367885D01*
X185922054Y-105367885D02*
X185960149Y-105329790D01*
X185960149Y-105329790D02*
X186036339Y-105291695D01*
X186036339Y-105291695D02*
X186226816Y-105291695D01*
X186226816Y-105291695D02*
X186341101Y-105329790D01*
X147907275Y-60580326D02*
X148716798Y-60580326D01*
X148716798Y-60580326D02*
X148812036Y-60532707D01*
X148812036Y-60532707D02*
X148859656Y-60485088D01*
X148859656Y-60485088D02*
X148907275Y-60389850D01*
X148907275Y-60389850D02*
X148907275Y-60199374D01*
X148907275Y-60199374D02*
X148859656Y-60104136D01*
X148859656Y-60104136D02*
X148812036Y-60056517D01*
X148812036Y-60056517D02*
X148716798Y-60008898D01*
X148716798Y-60008898D02*
X147907275Y-60008898D01*
X148859656Y-59580326D02*
X148907275Y-59437469D01*
X148907275Y-59437469D02*
X148907275Y-59199374D01*
X148907275Y-59199374D02*
X148859656Y-59104136D01*
X148859656Y-59104136D02*
X148812036Y-59056517D01*
X148812036Y-59056517D02*
X148716798Y-59008898D01*
X148716798Y-59008898D02*
X148621560Y-59008898D01*
X148621560Y-59008898D02*
X148526322Y-59056517D01*
X148526322Y-59056517D02*
X148478703Y-59104136D01*
X148478703Y-59104136D02*
X148431084Y-59199374D01*
X148431084Y-59199374D02*
X148383465Y-59389850D01*
X148383465Y-59389850D02*
X148335846Y-59485088D01*
X148335846Y-59485088D02*
X148288227Y-59532707D01*
X148288227Y-59532707D02*
X148192989Y-59580326D01*
X148192989Y-59580326D02*
X148097751Y-59580326D01*
X148097751Y-59580326D02*
X148002513Y-59532707D01*
X148002513Y-59532707D02*
X147954894Y-59485088D01*
X147954894Y-59485088D02*
X147907275Y-59389850D01*
X147907275Y-59389850D02*
X147907275Y-59151755D01*
X147907275Y-59151755D02*
X147954894Y-59008898D01*
X148383465Y-58246993D02*
X148431084Y-58104136D01*
X148431084Y-58104136D02*
X148478703Y-58056517D01*
X148478703Y-58056517D02*
X148573941Y-58008898D01*
X148573941Y-58008898D02*
X148716798Y-58008898D01*
X148716798Y-58008898D02*
X148812036Y-58056517D01*
X148812036Y-58056517D02*
X148859656Y-58104136D01*
X148859656Y-58104136D02*
X148907275Y-58199374D01*
X148907275Y-58199374D02*
X148907275Y-58580326D01*
X148907275Y-58580326D02*
X147907275Y-58580326D01*
X147907275Y-58580326D02*
X147907275Y-58246993D01*
X147907275Y-58246993D02*
X147954894Y-58151755D01*
X147954894Y-58151755D02*
X148002513Y-58104136D01*
X148002513Y-58104136D02*
X148097751Y-58056517D01*
X148097751Y-58056517D02*
X148192989Y-58056517D01*
X148192989Y-58056517D02*
X148288227Y-58104136D01*
X148288227Y-58104136D02*
X148335846Y-58151755D01*
X148335846Y-58151755D02*
X148383465Y-58246993D01*
X148383465Y-58246993D02*
X148383465Y-58580326D01*
X150517219Y-60580326D02*
X149517219Y-60580326D01*
X149517219Y-60580326D02*
X149517219Y-60342231D01*
X149517219Y-60342231D02*
X149564838Y-60199374D01*
X149564838Y-60199374D02*
X149660076Y-60104136D01*
X149660076Y-60104136D02*
X149755314Y-60056517D01*
X149755314Y-60056517D02*
X149945790Y-60008898D01*
X149945790Y-60008898D02*
X150088647Y-60008898D01*
X150088647Y-60008898D02*
X150279123Y-60056517D01*
X150279123Y-60056517D02*
X150374361Y-60104136D01*
X150374361Y-60104136D02*
X150469600Y-60199374D01*
X150469600Y-60199374D02*
X150517219Y-60342231D01*
X150517219Y-60342231D02*
X150517219Y-60580326D01*
X150517219Y-59580326D02*
X149850552Y-59580326D01*
X149517219Y-59580326D02*
X149564838Y-59627945D01*
X149564838Y-59627945D02*
X149612457Y-59580326D01*
X149612457Y-59580326D02*
X149564838Y-59532707D01*
X149564838Y-59532707D02*
X149517219Y-59580326D01*
X149517219Y-59580326D02*
X149612457Y-59580326D01*
X150517219Y-59104136D02*
X149850552Y-59104136D01*
X150041028Y-59104136D02*
X149945790Y-59056517D01*
X149945790Y-59056517D02*
X149898171Y-59008898D01*
X149898171Y-59008898D02*
X149850552Y-58913660D01*
X149850552Y-58913660D02*
X149850552Y-58818422D01*
X150469600Y-58104136D02*
X150517219Y-58199374D01*
X150517219Y-58199374D02*
X150517219Y-58389850D01*
X150517219Y-58389850D02*
X150469600Y-58485088D01*
X150469600Y-58485088D02*
X150374361Y-58532707D01*
X150374361Y-58532707D02*
X149993409Y-58532707D01*
X149993409Y-58532707D02*
X149898171Y-58485088D01*
X149898171Y-58485088D02*
X149850552Y-58389850D01*
X149850552Y-58389850D02*
X149850552Y-58199374D01*
X149850552Y-58199374D02*
X149898171Y-58104136D01*
X149898171Y-58104136D02*
X149993409Y-58056517D01*
X149993409Y-58056517D02*
X150088647Y-58056517D01*
X150088647Y-58056517D02*
X150183885Y-58532707D01*
X150469600Y-57199374D02*
X150517219Y-57294612D01*
X150517219Y-57294612D02*
X150517219Y-57485088D01*
X150517219Y-57485088D02*
X150469600Y-57580326D01*
X150469600Y-57580326D02*
X150421980Y-57627945D01*
X150421980Y-57627945D02*
X150326742Y-57675564D01*
X150326742Y-57675564D02*
X150041028Y-57675564D01*
X150041028Y-57675564D02*
X149945790Y-57627945D01*
X149945790Y-57627945D02*
X149898171Y-57580326D01*
X149898171Y-57580326D02*
X149850552Y-57485088D01*
X149850552Y-57485088D02*
X149850552Y-57294612D01*
X149850552Y-57294612D02*
X149898171Y-57199374D01*
X149850552Y-56913659D02*
X149850552Y-56532707D01*
X149517219Y-56770802D02*
X150374361Y-56770802D01*
X150374361Y-56770802D02*
X150469600Y-56723183D01*
X150469600Y-56723183D02*
X150517219Y-56627945D01*
X150517219Y-56627945D02*
X150517219Y-56532707D01*
X150517219Y-56199373D02*
X149850552Y-56199373D01*
X149517219Y-56199373D02*
X149564838Y-56246992D01*
X149564838Y-56246992D02*
X149612457Y-56199373D01*
X149612457Y-56199373D02*
X149564838Y-56151754D01*
X149564838Y-56151754D02*
X149517219Y-56199373D01*
X149517219Y-56199373D02*
X149612457Y-56199373D01*
X150517219Y-55580326D02*
X150469600Y-55675564D01*
X150469600Y-55675564D02*
X150421980Y-55723183D01*
X150421980Y-55723183D02*
X150326742Y-55770802D01*
X150326742Y-55770802D02*
X150041028Y-55770802D01*
X150041028Y-55770802D02*
X149945790Y-55723183D01*
X149945790Y-55723183D02*
X149898171Y-55675564D01*
X149898171Y-55675564D02*
X149850552Y-55580326D01*
X149850552Y-55580326D02*
X149850552Y-55437469D01*
X149850552Y-55437469D02*
X149898171Y-55342231D01*
X149898171Y-55342231D02*
X149945790Y-55294612D01*
X149945790Y-55294612D02*
X150041028Y-55246993D01*
X150041028Y-55246993D02*
X150326742Y-55246993D01*
X150326742Y-55246993D02*
X150421980Y-55294612D01*
X150421980Y-55294612D02*
X150469600Y-55342231D01*
X150469600Y-55342231D02*
X150517219Y-55437469D01*
X150517219Y-55437469D02*
X150517219Y-55580326D01*
X149850552Y-54818421D02*
X150517219Y-54818421D01*
X149945790Y-54818421D02*
X149898171Y-54770802D01*
X149898171Y-54770802D02*
X149850552Y-54675564D01*
X149850552Y-54675564D02*
X149850552Y-54532707D01*
X149850552Y-54532707D02*
X149898171Y-54437469D01*
X149898171Y-54437469D02*
X149993409Y-54389850D01*
X149993409Y-54389850D02*
X150517219Y-54389850D01*
G36*
X184000000Y-84676282D02*
G01*
X185021301Y-84676282D01*
X185021301Y-84827346D01*
X184137081Y-84827346D01*
X184137081Y-85273639D01*
X184000000Y-85273639D01*
X184000000Y-84676282D01*
G37*
G36*
X184545644Y-85452718D02*
G01*
X184605827Y-85469066D01*
X184656836Y-85495104D01*
X184700183Y-85530887D01*
X184735068Y-85575124D01*
X184760482Y-85626836D01*
X184776429Y-85687473D01*
X184782065Y-85758949D01*
X184776428Y-85830426D01*
X184760480Y-85891052D01*
X184735066Y-85942742D01*
X184700183Y-85986950D01*
X184656836Y-86022733D01*
X184605827Y-86048771D01*
X184545644Y-86065119D01*
X184474258Y-86070908D01*
X184295167Y-86070908D01*
X184224603Y-86065113D01*
X184164748Y-86048699D01*
X184113664Y-86022462D01*
X184069914Y-85986278D01*
X184034662Y-85941669D01*
X184009067Y-85889905D01*
X183993062Y-85829609D01*
X183987421Y-85758949D01*
X184120289Y-85758949D01*
X184125467Y-85807574D01*
X184139893Y-85846213D01*
X184162971Y-85877102D01*
X184193983Y-85899995D01*
X184233913Y-85914509D01*
X184285397Y-85919783D01*
X184484089Y-85919783D01*
X184535572Y-85914508D01*
X184575479Y-85899992D01*
X184606454Y-85877102D01*
X184629532Y-85846213D01*
X184643958Y-85807574D01*
X184649136Y-85758949D01*
X184643958Y-85710282D01*
X184629531Y-85671602D01*
X184606454Y-85640675D01*
X184575484Y-85617820D01*
X184535577Y-85603323D01*
X184484089Y-85598054D01*
X184285397Y-85598054D01*
X184233908Y-85603322D01*
X184193978Y-85617817D01*
X184162971Y-85640675D01*
X184139894Y-85671602D01*
X184125467Y-85710282D01*
X184120289Y-85758949D01*
X183987421Y-85758949D01*
X183993061Y-85688291D01*
X184009064Y-85627983D01*
X184034660Y-85576198D01*
X184069914Y-85531559D01*
X184113664Y-85495375D01*
X184164748Y-85469138D01*
X184224603Y-85452724D01*
X184295167Y-85446929D01*
X184474258Y-85446929D01*
X184545644Y-85452718D01*
G37*
G36*
X184560216Y-86295132D02*
G01*
X184616478Y-86308592D01*
X184664336Y-86329907D01*
X184705129Y-86358871D01*
X184738976Y-86395718D01*
X184763193Y-86438398D01*
X184778198Y-86488068D01*
X184783469Y-86546388D01*
X184778947Y-86598371D01*
X184766155Y-86642141D01*
X184745673Y-86679256D01*
X184717368Y-86710560D01*
X184682342Y-86734250D01*
X184639366Y-86750636D01*
X184769487Y-86750636D01*
X184769487Y-86898953D01*
X184005617Y-86898953D01*
X183947173Y-86893806D01*
X183897328Y-86879161D01*
X183854463Y-86855567D01*
X183817428Y-86822688D01*
X183788141Y-86782835D01*
X183766611Y-86735902D01*
X183753011Y-86680523D01*
X183748185Y-86614959D01*
X183748185Y-86396667D01*
X183878306Y-86396667D01*
X183878306Y-86613555D01*
X183882542Y-86654144D01*
X183894370Y-86686646D01*
X183913293Y-86712840D01*
X183938677Y-86732661D01*
X183969809Y-86744886D01*
X184008365Y-86749232D01*
X184065762Y-86749232D01*
X184194478Y-86752041D01*
X184151514Y-86735601D01*
X184116464Y-86711700D01*
X184088110Y-86679989D01*
X184067637Y-86642418D01*
X184054876Y-86598382D01*
X184054614Y-86595359D01*
X184177686Y-86595359D01*
X184182930Y-86641007D01*
X184197699Y-86677873D01*
X184221711Y-86707955D01*
X184253470Y-86730091D01*
X184293920Y-86744139D01*
X184345542Y-86749232D01*
X184485432Y-86749232D01*
X184536139Y-86744167D01*
X184576162Y-86730146D01*
X184607859Y-86707955D01*
X184631906Y-86677869D01*
X184646695Y-86641003D01*
X184651945Y-86595359D01*
X184646803Y-86547648D01*
X184632577Y-86510432D01*
X184609935Y-86481297D01*
X184579730Y-86459754D01*
X184542193Y-86446263D01*
X184495263Y-86441425D01*
X184335772Y-86441425D01*
X184287890Y-86446293D01*
X184249905Y-86459813D01*
X184219635Y-86481297D01*
X184197029Y-86510428D01*
X184182822Y-86547643D01*
X184177686Y-86595359D01*
X184054614Y-86595359D01*
X184050375Y-86546388D01*
X184055569Y-86487978D01*
X184070339Y-86438276D01*
X184094134Y-86395629D01*
X184127311Y-86358871D01*
X184167412Y-86330009D01*
X184214966Y-86308692D01*
X184271414Y-86295172D01*
X184338581Y-86290361D01*
X184493859Y-86290361D01*
X184560216Y-86295132D01*
G37*
G36*
X184000000Y-87130983D02*
G01*
X184137081Y-87130983D01*
X184137081Y-87398185D01*
X184632344Y-87398185D01*
X184632344Y-87158949D01*
X184769487Y-87158949D01*
X184769487Y-87549310D01*
X184137081Y-87549310D01*
X184137081Y-87796912D01*
X184000000Y-87796912D01*
X184000000Y-87130983D01*
G37*
G36*
X184902355Y-87461139D02*
G01*
X184909207Y-87415939D01*
X184928244Y-87382798D01*
X184947213Y-87366624D01*
X184969913Y-87356853D01*
X184997487Y-87353428D01*
X185026001Y-87356891D01*
X185049132Y-87366698D01*
X185068135Y-87382798D01*
X185087172Y-87415939D01*
X185094024Y-87461139D01*
X185087172Y-87506339D01*
X185068135Y-87539480D01*
X185049128Y-87555616D01*
X185025996Y-87565442D01*
X184997487Y-87568911D01*
X184969917Y-87565479D01*
X184947218Y-87555689D01*
X184928244Y-87539480D01*
X184909207Y-87506339D01*
X184902355Y-87461139D01*
G37*
G36*
X183986017Y-88287779D02*
G01*
X183991486Y-88216230D01*
X184007004Y-88155014D01*
X184031775Y-88102361D01*
X184065762Y-88056908D01*
X184108333Y-88019647D01*
X184157887Y-87992807D01*
X184215801Y-87976091D01*
X184283993Y-87970202D01*
X184485432Y-87970202D01*
X184553657Y-87976092D01*
X184611591Y-87992809D01*
X184661153Y-88019650D01*
X184703724Y-88056908D01*
X184737711Y-88102361D01*
X184762482Y-88155014D01*
X184778000Y-88216230D01*
X184783469Y-88287779D01*
X184778430Y-88357527D01*
X184764174Y-88417006D01*
X184741533Y-88467923D01*
X184710685Y-88511627D01*
X184671602Y-88548254D01*
X184626296Y-88575243D01*
X184573649Y-88593018D01*
X184512055Y-88601142D01*
X184512055Y-88451482D01*
X184553782Y-88443876D01*
X184587224Y-88427763D01*
X184614148Y-88403183D01*
X184633822Y-88371946D01*
X184646147Y-88334052D01*
X184650540Y-88287779D01*
X184645380Y-88238159D01*
X184630957Y-88198286D01*
X184607859Y-88166024D01*
X184576712Y-88141861D01*
X184537198Y-88126723D01*
X184486837Y-88121266D01*
X184283993Y-88121266D01*
X184232680Y-88126756D01*
X184192744Y-88141925D01*
X184161566Y-88166024D01*
X184138504Y-88198281D01*
X184124100Y-88238155D01*
X184118946Y-88287779D01*
X184123378Y-88334999D01*
X184135722Y-88373052D01*
X184155277Y-88403855D01*
X184182223Y-88427960D01*
X184216112Y-88443896D01*
X184258836Y-88451482D01*
X184258836Y-88601142D01*
X184197249Y-88593031D01*
X184144463Y-88575270D01*
X184098904Y-88548277D01*
X184059473Y-88511627D01*
X184028316Y-88467881D01*
X184005471Y-88416950D01*
X183991096Y-88357486D01*
X183986017Y-88287779D01*
G37*
G36*
X184000000Y-89711592D02*
G01*
X185021301Y-89711592D01*
X185021301Y-89862657D01*
X184137081Y-89862657D01*
X184137081Y-90308949D01*
X184000000Y-90308949D01*
X184000000Y-89711592D01*
G37*
G36*
X184546183Y-90488073D02*
G01*
X184606023Y-90504602D01*
X184657123Y-90531042D01*
X184700915Y-90567541D01*
X184736278Y-90612518D01*
X184761888Y-90664349D01*
X184777856Y-90724348D01*
X184783469Y-90794260D01*
X184779068Y-90856784D01*
X184766496Y-90911381D01*
X184746345Y-90959307D01*
X184718082Y-91002719D01*
X184683514Y-91038633D01*
X184642114Y-91067751D01*
X184595968Y-91088746D01*
X184544124Y-91101712D01*
X184485432Y-91106219D01*
X184346946Y-91106219D01*
X184346946Y-90960711D01*
X184453253Y-90960711D01*
X184486837Y-90960711D01*
X184542148Y-90955324D01*
X184585061Y-90940535D01*
X184618361Y-90917358D01*
X184643305Y-90885662D01*
X184658905Y-90845473D01*
X184664523Y-90794260D01*
X184658831Y-90743105D01*
X184643004Y-90702891D01*
X184617629Y-90671100D01*
X184583917Y-90647897D01*
X184540752Y-90633119D01*
X184485432Y-90627747D01*
X184453253Y-90627747D01*
X184453253Y-90960711D01*
X184346946Y-90960711D01*
X184346946Y-90627747D01*
X184283993Y-90627747D01*
X184231685Y-90633221D01*
X184190556Y-90648390D01*
X184158086Y-90672505D01*
X184133783Y-90704889D01*
X184118705Y-90744759D01*
X184113328Y-90794260D01*
X184119511Y-90853797D01*
X184136409Y-90899162D01*
X184154365Y-90924066D01*
X184175371Y-90940433D01*
X184200034Y-90949537D01*
X184200034Y-91099197D01*
X184153337Y-91087173D01*
X184112349Y-91067003D01*
X184076113Y-91038447D01*
X184044085Y-91000584D01*
X184012583Y-90942541D01*
X183992943Y-90874533D01*
X183986017Y-90794260D01*
X183991626Y-90724344D01*
X184007584Y-90664344D01*
X184033175Y-90612514D01*
X184068510Y-90567541D01*
X184112302Y-90531045D01*
X184163410Y-90504605D01*
X184223270Y-90488074D01*
X184293824Y-90482240D01*
X184475662Y-90482240D01*
X184546183Y-90488073D01*
G37*
G36*
X184000000Y-91536941D02*
G01*
X184769487Y-91276700D01*
X184769487Y-91436191D01*
X184277032Y-91594277D01*
X184190936Y-91619434D01*
X184120289Y-91636226D01*
X184190936Y-91650942D01*
X184277032Y-91674023D01*
X184769487Y-91830704D01*
X184769487Y-91990195D01*
X184000000Y-91731359D01*
X184000000Y-91536941D01*
G37*
G36*
X184546183Y-92166510D02*
G01*
X184606023Y-92183039D01*
X184657123Y-92209479D01*
X184700915Y-92245978D01*
X184736278Y-92290955D01*
X184761888Y-92342786D01*
X184777856Y-92402785D01*
X184783469Y-92472697D01*
X184779068Y-92535221D01*
X184766496Y-92589818D01*
X184746345Y-92637744D01*
X184718082Y-92681156D01*
X184683514Y-92717070D01*
X184642114Y-92746188D01*
X184595968Y-92767182D01*
X184544124Y-92780148D01*
X184485432Y-92784656D01*
X184346946Y-92784656D01*
X184346946Y-92639148D01*
X184453253Y-92639148D01*
X184486837Y-92639148D01*
X184542148Y-92633761D01*
X184585061Y-92618972D01*
X184618361Y-92595795D01*
X184643305Y-92564099D01*
X184658905Y-92523910D01*
X184664523Y-92472697D01*
X184658831Y-92421541D01*
X184643004Y-92381328D01*
X184617629Y-92349537D01*
X184583917Y-92326334D01*
X184540752Y-92311555D01*
X184485432Y-92306184D01*
X184453253Y-92306184D01*
X184453253Y-92639148D01*
X184346946Y-92639148D01*
X184346946Y-92306184D01*
X184283993Y-92306184D01*
X184231685Y-92311658D01*
X184190556Y-92326827D01*
X184158086Y-92350942D01*
X184133783Y-92383325D01*
X184118705Y-92423196D01*
X184113328Y-92472697D01*
X184119511Y-92532234D01*
X184136409Y-92577599D01*
X184154365Y-92602502D01*
X184175371Y-92618870D01*
X184200034Y-92627974D01*
X184200034Y-92777634D01*
X184153337Y-92765610D01*
X184112349Y-92745440D01*
X184076113Y-92716884D01*
X184044085Y-92679021D01*
X184012583Y-92620978D01*
X183992943Y-92552970D01*
X183986017Y-92472697D01*
X183991626Y-92402781D01*
X184007584Y-92342781D01*
X184033175Y-92290951D01*
X184068510Y-92245978D01*
X184112302Y-92209482D01*
X184163410Y-92183042D01*
X184223270Y-92166511D01*
X184293824Y-92160676D01*
X184475662Y-92160676D01*
X184546183Y-92166510D01*
G37*
G36*
X184000000Y-93430800D02*
G01*
X184004339Y-93376812D01*
X184016664Y-93330646D01*
X184036401Y-93290921D01*
X184063625Y-93256594D01*
X184097388Y-93228634D01*
X184136254Y-93208485D01*
X184181213Y-93195961D01*
X184233618Y-93191564D01*
X184884159Y-93191564D01*
X184884159Y-92932728D01*
X185021301Y-92932728D01*
X185021301Y-93342690D01*
X184236427Y-93342690D01*
X184194058Y-93349363D01*
X184163642Y-93367847D01*
X184144022Y-93396803D01*
X184137081Y-93436418D01*
X184137081Y-93668632D01*
X184000000Y-93668632D01*
X184000000Y-93430800D01*
G37*
G36*
X182306017Y-84930905D02*
G01*
X182311558Y-84859351D01*
X182327236Y-84798553D01*
X182352207Y-84746638D01*
X182386434Y-84702172D01*
X182429233Y-84665805D01*
X182478794Y-84639593D01*
X182536440Y-84623280D01*
X182603993Y-84617541D01*
X183057308Y-84617541D01*
X183125633Y-84623313D01*
X183183594Y-84639677D01*
X183233099Y-84665892D01*
X183275539Y-84702172D01*
X183309453Y-84746596D01*
X183334221Y-84798495D01*
X183349782Y-84859308D01*
X183355284Y-84930905D01*
X183349760Y-85001691D01*
X183334104Y-85062033D01*
X183309119Y-85113751D01*
X183274806Y-85158234D01*
X183232036Y-85194599D01*
X183182496Y-85220810D01*
X183124861Y-85237125D01*
X183057308Y-85242864D01*
X183057308Y-85091800D01*
X183108779Y-85086508D01*
X183148435Y-85071983D01*
X183179002Y-85049118D01*
X183201655Y-85018249D01*
X183215849Y-84979589D01*
X183220950Y-84930905D01*
X183215817Y-84881269D01*
X183201593Y-84842185D01*
X183179002Y-84811287D01*
X183148435Y-84788423D01*
X183108779Y-84773897D01*
X183057308Y-84768606D01*
X182603993Y-84768606D01*
X182552520Y-84773896D01*
X182512841Y-84788420D01*
X182482238Y-84811287D01*
X182459647Y-84842185D01*
X182445422Y-84881269D01*
X182440289Y-84930905D01*
X182445390Y-84979589D01*
X182459585Y-85018249D01*
X182482238Y-85049118D01*
X182512841Y-85071985D01*
X182552520Y-85086510D01*
X182603993Y-85091800D01*
X182603993Y-85242864D01*
X182536440Y-85237126D01*
X182478794Y-85220812D01*
X182429233Y-85194601D01*
X182386434Y-85158234D01*
X182352149Y-85113755D01*
X182327182Y-85062038D01*
X182311537Y-85001694D01*
X182306017Y-84930905D01*
G37*
G36*
X182865644Y-85452718D02*
G01*
X182925827Y-85469066D01*
X182976836Y-85495104D01*
X183020183Y-85530887D01*
X183055068Y-85575124D01*
X183080482Y-85626836D01*
X183096429Y-85687473D01*
X183102065Y-85758949D01*
X183096428Y-85830426D01*
X183080480Y-85891052D01*
X183055066Y-85942742D01*
X183020183Y-85986950D01*
X182976836Y-86022733D01*
X182925827Y-86048771D01*
X182865644Y-86065119D01*
X182794258Y-86070908D01*
X182615167Y-86070908D01*
X182544603Y-86065113D01*
X182484748Y-86048699D01*
X182433664Y-86022462D01*
X182389914Y-85986278D01*
X182354662Y-85941669D01*
X182329067Y-85889905D01*
X182313062Y-85829609D01*
X182307421Y-85758949D01*
X182440289Y-85758949D01*
X182445467Y-85807574D01*
X182459893Y-85846213D01*
X182482971Y-85877102D01*
X182513983Y-85899995D01*
X182553913Y-85914509D01*
X182605397Y-85919783D01*
X182804089Y-85919783D01*
X182855572Y-85914508D01*
X182895479Y-85899992D01*
X182926454Y-85877102D01*
X182949532Y-85846213D01*
X182963958Y-85807574D01*
X182969136Y-85758949D01*
X182963958Y-85710282D01*
X182949531Y-85671602D01*
X182926454Y-85640675D01*
X182895484Y-85617820D01*
X182855577Y-85603323D01*
X182804089Y-85598054D01*
X182605397Y-85598054D01*
X182553908Y-85603322D01*
X182513978Y-85617817D01*
X182482971Y-85640675D01*
X182459894Y-85671602D01*
X182445467Y-85710282D01*
X182440289Y-85758949D01*
X182307421Y-85758949D01*
X182313061Y-85688291D01*
X182329064Y-85627983D01*
X182354660Y-85576198D01*
X182389914Y-85531559D01*
X182433664Y-85495375D01*
X182484748Y-85469138D01*
X182544603Y-85452724D01*
X182615167Y-85446929D01*
X182794258Y-85446929D01*
X182865644Y-85452718D01*
G37*
G36*
X182320000Y-86295978D02*
G01*
X183089487Y-86295978D01*
X183089487Y-86445638D01*
X182942575Y-86445638D01*
X182990281Y-86458227D01*
X183029138Y-86479843D01*
X183060788Y-86510668D01*
X183083822Y-86548730D01*
X183098302Y-86594919D01*
X183103469Y-86651290D01*
X183098537Y-86707648D01*
X183084462Y-86756055D01*
X183061732Y-86797996D01*
X183030013Y-86834534D01*
X182991490Y-86863695D01*
X182946538Y-86884995D01*
X182893926Y-86898376D01*
X182832055Y-86903105D01*
X182320000Y-86903105D01*
X182320000Y-86752041D01*
X182809645Y-86752041D01*
X182861302Y-86746986D01*
X182901225Y-86733130D01*
X182932072Y-86711435D01*
X182955330Y-86681932D01*
X182969661Y-86645745D01*
X182974754Y-86600915D01*
X182969431Y-86555328D01*
X182954415Y-86518462D01*
X182929935Y-86488319D01*
X182897764Y-86466157D01*
X182857064Y-86452119D01*
X182805432Y-86447042D01*
X182320000Y-86447042D01*
X182320000Y-86295978D01*
G37*
G36*
X182320000Y-87340849D02*
G01*
X183089487Y-87080608D01*
X183089487Y-87240099D01*
X182597032Y-87398185D01*
X182510936Y-87423342D01*
X182440289Y-87440134D01*
X182510936Y-87454849D01*
X182597032Y-87477930D01*
X183089487Y-87634612D01*
X183089487Y-87794103D01*
X182320000Y-87535266D01*
X182320000Y-87340849D01*
G37*
G36*
X182866183Y-87970418D02*
G01*
X182926023Y-87986947D01*
X182977123Y-88013387D01*
X183020915Y-88049886D01*
X183056278Y-88094863D01*
X183081888Y-88146694D01*
X183097856Y-88206692D01*
X183103469Y-88276605D01*
X183099068Y-88339129D01*
X183086496Y-88393726D01*
X183066345Y-88441652D01*
X183038082Y-88485064D01*
X183003514Y-88520978D01*
X182962114Y-88550095D01*
X182915968Y-88571090D01*
X182864124Y-88584056D01*
X182805432Y-88588564D01*
X182666946Y-88588564D01*
X182666946Y-88443056D01*
X182773253Y-88443056D01*
X182806837Y-88443056D01*
X182862148Y-88437669D01*
X182905061Y-88422880D01*
X182938361Y-88399703D01*
X182963305Y-88368007D01*
X182978905Y-88327818D01*
X182984523Y-88276605D01*
X182978831Y-88225449D01*
X182963004Y-88185236D01*
X182937629Y-88153445D01*
X182903917Y-88130242D01*
X182860752Y-88115463D01*
X182805432Y-88110092D01*
X182773253Y-88110092D01*
X182773253Y-88443056D01*
X182666946Y-88443056D01*
X182666946Y-88110092D01*
X182603993Y-88110092D01*
X182551685Y-88115566D01*
X182510556Y-88130734D01*
X182478086Y-88154849D01*
X182453783Y-88187233D01*
X182438705Y-88227104D01*
X182433328Y-88276605D01*
X182439511Y-88336142D01*
X182456409Y-88381507D01*
X182474365Y-88406410D01*
X182495371Y-88422778D01*
X182520034Y-88431882D01*
X182520034Y-88581542D01*
X182473337Y-88569518D01*
X182432349Y-88549347D01*
X182396113Y-88520792D01*
X182364085Y-88482929D01*
X182332583Y-88424886D01*
X182312943Y-88356878D01*
X182306017Y-88276605D01*
X182311626Y-88206689D01*
X182327584Y-88146689D01*
X182353175Y-88094859D01*
X182388510Y-88049886D01*
X182432302Y-88013390D01*
X182483410Y-87986949D01*
X182543270Y-87970419D01*
X182613824Y-87964584D01*
X182795662Y-87964584D01*
X182866183Y-87970418D01*
G37*
G36*
X182320000Y-88841599D02*
G01*
X183089487Y-88841599D01*
X183089487Y-88991259D01*
X182938361Y-88991259D01*
X182987004Y-89003952D01*
X183026799Y-89025814D01*
X183059384Y-89057021D01*
X183083137Y-89095649D01*
X183098108Y-89142941D01*
X183103469Y-89201125D01*
X183098384Y-89259757D01*
X183084020Y-89308971D01*
X183061059Y-89350552D01*
X183029281Y-89385772D01*
X182990707Y-89413281D01*
X182944224Y-89433760D01*
X182888253Y-89446848D01*
X182820819Y-89451535D01*
X182752309Y-89451535D01*
X182752309Y-89300471D01*
X182816667Y-89300471D01*
X182867184Y-89295606D01*
X182905085Y-89282448D01*
X182933358Y-89262125D01*
X182953869Y-89234295D01*
X182967078Y-89197211D01*
X182971945Y-89148002D01*
X182966556Y-89099511D01*
X182951650Y-89061867D01*
X182927859Y-89032536D01*
X182896172Y-89011378D01*
X182854492Y-88997696D01*
X182799876Y-88992663D01*
X182320000Y-88992663D01*
X182320000Y-88841599D01*
G37*
G36*
X182320000Y-90031978D02*
G01*
X182327050Y-89966239D01*
X182346843Y-89913062D01*
X182378740Y-89869678D01*
X182409901Y-89843927D01*
X182446149Y-89825283D01*
X182488478Y-89813639D01*
X182538230Y-89809534D01*
X182952344Y-89809534D01*
X182952344Y-89592646D01*
X183089487Y-89592646D01*
X183089487Y-89809534D01*
X183306313Y-89809534D01*
X183306313Y-89960598D01*
X183089487Y-89960598D01*
X183089487Y-90271214D01*
X182952344Y-90271214D01*
X182952344Y-89960598D01*
X182539635Y-89960598D01*
X182505984Y-89966059D01*
X182480162Y-89981603D01*
X182463083Y-90005870D01*
X182457081Y-90038939D01*
X182457081Y-90264192D01*
X182320000Y-90264192D01*
X182320000Y-90031978D01*
G37*
G36*
X182866183Y-90488073D02*
G01*
X182926023Y-90504602D01*
X182977123Y-90531042D01*
X183020915Y-90567541D01*
X183056278Y-90612518D01*
X183081888Y-90664349D01*
X183097856Y-90724348D01*
X183103469Y-90794260D01*
X183099068Y-90856784D01*
X183086496Y-90911381D01*
X183066345Y-90959307D01*
X183038082Y-91002719D01*
X183003514Y-91038633D01*
X182962114Y-91067751D01*
X182915968Y-91088746D01*
X182864124Y-91101712D01*
X182805432Y-91106219D01*
X182666946Y-91106219D01*
X182666946Y-90960711D01*
X182773253Y-90960711D01*
X182806837Y-90960711D01*
X182862148Y-90955324D01*
X182905061Y-90940535D01*
X182938361Y-90917358D01*
X182963305Y-90885662D01*
X182978905Y-90845473D01*
X182984523Y-90794260D01*
X182978831Y-90743105D01*
X182963004Y-90702891D01*
X182937629Y-90671100D01*
X182903917Y-90647897D01*
X182860752Y-90633119D01*
X182805432Y-90627747D01*
X182773253Y-90627747D01*
X182773253Y-90960711D01*
X182666946Y-90960711D01*
X182666946Y-90627747D01*
X182603993Y-90627747D01*
X182551685Y-90633221D01*
X182510556Y-90648390D01*
X182478086Y-90672505D01*
X182453783Y-90704889D01*
X182438705Y-90744759D01*
X182433328Y-90794260D01*
X182439511Y-90853797D01*
X182456409Y-90899162D01*
X182474365Y-90924066D01*
X182495371Y-90940433D01*
X182520034Y-90949537D01*
X182520034Y-91099197D01*
X182473337Y-91087173D01*
X182432349Y-91067003D01*
X182396113Y-91038447D01*
X182364085Y-91000584D01*
X182332583Y-90942541D01*
X182312943Y-90874533D01*
X182306017Y-90794260D01*
X182311626Y-90724344D01*
X182327584Y-90664344D01*
X182353175Y-90612514D01*
X182388510Y-90567541D01*
X182432302Y-90531045D01*
X182483410Y-90504605D01*
X182543270Y-90488074D01*
X182613824Y-90482240D01*
X182795662Y-90482240D01*
X182866183Y-90488073D01*
G37*
G36*
X182320000Y-91359255D02*
G01*
X183089487Y-91359255D01*
X183089487Y-91508914D01*
X182938361Y-91508914D01*
X182987004Y-91521608D01*
X183026799Y-91543469D01*
X183059384Y-91574677D01*
X183083137Y-91613305D01*
X183098108Y-91660596D01*
X183103469Y-91718780D01*
X183098384Y-91777412D01*
X183084020Y-91826627D01*
X183061059Y-91868207D01*
X183029281Y-91903428D01*
X182990707Y-91930936D01*
X182944224Y-91951415D01*
X182888253Y-91964503D01*
X182820819Y-91969190D01*
X182752309Y-91969190D01*
X182752309Y-91818126D01*
X182816667Y-91818126D01*
X182867184Y-91813261D01*
X182905085Y-91800103D01*
X182933358Y-91779780D01*
X182953869Y-91751950D01*
X182967078Y-91714866D01*
X182971945Y-91665657D01*
X182966556Y-91617166D01*
X182951650Y-91579522D01*
X182927859Y-91550191D01*
X182896172Y-91529033D01*
X182854492Y-91515351D01*
X182799876Y-91510319D01*
X182320000Y-91510319D01*
X182320000Y-91359255D01*
G37*
D13*
G36*
X148850000Y-74619329D02*
G01*
X147828698Y-74619329D01*
X147828698Y-74468265D01*
X148253986Y-74468265D01*
X148253986Y-74168884D01*
X147828698Y-74168884D01*
X147828698Y-74017759D01*
X148850000Y-74017759D01*
X148850000Y-74168884D01*
X148389724Y-74168884D01*
X148389724Y-74468265D01*
X148850000Y-74468265D01*
X148850000Y-74619329D01*
G37*
G36*
X148503053Y-73645838D02*
G01*
X148566006Y-73645838D01*
X148618314Y-73640364D01*
X148659443Y-73625196D01*
X148691913Y-73601081D01*
X148716216Y-73568697D01*
X148731294Y-73528826D01*
X148736671Y-73479326D01*
X148730488Y-73419788D01*
X148713590Y-73374423D01*
X148695634Y-73349520D01*
X148674628Y-73333152D01*
X148649965Y-73324048D01*
X148649965Y-73174389D01*
X148696662Y-73186413D01*
X148737650Y-73206583D01*
X148773886Y-73235138D01*
X148805914Y-73273002D01*
X148837416Y-73331044D01*
X148857056Y-73399053D01*
X148863982Y-73479326D01*
X148858373Y-73549242D01*
X148842415Y-73609242D01*
X148816824Y-73661071D01*
X148781489Y-73706044D01*
X148737697Y-73742541D01*
X148686589Y-73768981D01*
X148626729Y-73785512D01*
X148556175Y-73791346D01*
X148374337Y-73791346D01*
X148303816Y-73785513D01*
X148243976Y-73768983D01*
X148192876Y-73742543D01*
X148149084Y-73706044D01*
X148113721Y-73661067D01*
X148088111Y-73609237D01*
X148072143Y-73549238D01*
X148066530Y-73479326D01*
X148185476Y-73479326D01*
X148191168Y-73530481D01*
X148206995Y-73570694D01*
X148232370Y-73602485D01*
X148266082Y-73625689D01*
X148309247Y-73640467D01*
X148364567Y-73645838D01*
X148396746Y-73645838D01*
X148396746Y-73312874D01*
X148363162Y-73312874D01*
X148307851Y-73318261D01*
X148264938Y-73333050D01*
X148231638Y-73356227D01*
X148206694Y-73387924D01*
X148191094Y-73428113D01*
X148185476Y-73479326D01*
X148066530Y-73479326D01*
X148070931Y-73416802D01*
X148083503Y-73362204D01*
X148103654Y-73314279D01*
X148131917Y-73270866D01*
X148166485Y-73234952D01*
X148207885Y-73205835D01*
X148254031Y-73184840D01*
X148305875Y-73171874D01*
X148364567Y-73167367D01*
X148503053Y-73167367D01*
X148503053Y-73645838D01*
G37*
G36*
X148850000Y-72521222D02*
G01*
X148845660Y-72575210D01*
X148833335Y-72621376D01*
X148813598Y-72661102D01*
X148786374Y-72695428D01*
X148752611Y-72723389D01*
X148713745Y-72743537D01*
X148668786Y-72756061D01*
X148616381Y-72760458D01*
X147965840Y-72760458D01*
X147965840Y-73019294D01*
X147828698Y-73019294D01*
X147828698Y-72609333D01*
X148613572Y-72609333D01*
X148655941Y-72602659D01*
X148686357Y-72584176D01*
X148705977Y-72555219D01*
X148712918Y-72515605D01*
X148712918Y-72283391D01*
X148850000Y-72283391D01*
X148850000Y-72521222D01*
G37*
G36*
X148850000Y-71723952D02*
G01*
X148842949Y-71789692D01*
X148823156Y-71842868D01*
X148791259Y-71886252D01*
X148760098Y-71912003D01*
X148723850Y-71930647D01*
X148681521Y-71942291D01*
X148631769Y-71946397D01*
X148217655Y-71946397D01*
X148217655Y-72163284D01*
X148080512Y-72163284D01*
X148080512Y-71946397D01*
X147863686Y-71946397D01*
X147863686Y-71795332D01*
X148080512Y-71795332D01*
X148080512Y-71484717D01*
X148217655Y-71484717D01*
X148217655Y-71795332D01*
X148630364Y-71795332D01*
X148664015Y-71789871D01*
X148689837Y-71774327D01*
X148706916Y-71750060D01*
X148712918Y-71716991D01*
X148712918Y-71491739D01*
X148850000Y-71491739D01*
X148850000Y-71723952D01*
G37*
G36*
X148503053Y-71128183D02*
G01*
X148566006Y-71128183D01*
X148618314Y-71122709D01*
X148659443Y-71107541D01*
X148691913Y-71083426D01*
X148716216Y-71051042D01*
X148731294Y-71011171D01*
X148736671Y-70961670D01*
X148730488Y-70902133D01*
X148713590Y-70856768D01*
X148695634Y-70831865D01*
X148674628Y-70815497D01*
X148649965Y-70806393D01*
X148649965Y-70656733D01*
X148696662Y-70668757D01*
X148737650Y-70688928D01*
X148773886Y-70717483D01*
X148805914Y-70755346D01*
X148837416Y-70813389D01*
X148857056Y-70881397D01*
X148863982Y-70961670D01*
X148858373Y-71031586D01*
X148842415Y-71091586D01*
X148816824Y-71143416D01*
X148781489Y-71188389D01*
X148737697Y-71224885D01*
X148686589Y-71251326D01*
X148626729Y-71267856D01*
X148556175Y-71273691D01*
X148374337Y-71273691D01*
X148303816Y-71267857D01*
X148243976Y-71251328D01*
X148192876Y-71224888D01*
X148149084Y-71188389D01*
X148113721Y-71143412D01*
X148088111Y-71091581D01*
X148072143Y-71031583D01*
X148066530Y-70961670D01*
X148185476Y-70961670D01*
X148191168Y-71012826D01*
X148206995Y-71053039D01*
X148232370Y-71084830D01*
X148266082Y-71108033D01*
X148309247Y-71122812D01*
X148364567Y-71128183D01*
X148396746Y-71128183D01*
X148396746Y-70795219D01*
X148363162Y-70795219D01*
X148307851Y-70800606D01*
X148264938Y-70815395D01*
X148231638Y-70838572D01*
X148206694Y-70870268D01*
X148191094Y-70910457D01*
X148185476Y-70961670D01*
X148066530Y-70961670D01*
X148070931Y-70899146D01*
X148083503Y-70844549D01*
X148103654Y-70796623D01*
X148131917Y-70753211D01*
X148166485Y-70717297D01*
X148207885Y-70688180D01*
X148254031Y-70667185D01*
X148305875Y-70654219D01*
X148364567Y-70649711D01*
X148503053Y-70649711D01*
X148503053Y-71128183D01*
G37*
G36*
X148863982Y-70111278D02*
G01*
X148858513Y-70182826D01*
X148842995Y-70244043D01*
X148818224Y-70296695D01*
X148784237Y-70342148D01*
X148741666Y-70379409D01*
X148692112Y-70406250D01*
X148634198Y-70422966D01*
X148566006Y-70428855D01*
X148364567Y-70428855D01*
X148296342Y-70422965D01*
X148238408Y-70406247D01*
X148188846Y-70379407D01*
X148146275Y-70342148D01*
X148112288Y-70296695D01*
X148087517Y-70244043D01*
X148071999Y-70182826D01*
X148066530Y-70111278D01*
X148071569Y-70041530D01*
X148085825Y-69982050D01*
X148108466Y-69931134D01*
X148139314Y-69887429D01*
X148178397Y-69850803D01*
X148223703Y-69823813D01*
X148276350Y-69806039D01*
X148337944Y-69797914D01*
X148337944Y-69947574D01*
X148296217Y-69955180D01*
X148262775Y-69971294D01*
X148235851Y-69995873D01*
X148216177Y-70027110D01*
X148203852Y-70065005D01*
X148199459Y-70111278D01*
X148204619Y-70160897D01*
X148219042Y-70200771D01*
X148242140Y-70233033D01*
X148273287Y-70257196D01*
X148312801Y-70272334D01*
X148363162Y-70277791D01*
X148566006Y-70277791D01*
X148617319Y-70272300D01*
X148657255Y-70257132D01*
X148688433Y-70233033D01*
X148711495Y-70200775D01*
X148725899Y-70160902D01*
X148731053Y-70111278D01*
X148726621Y-70064058D01*
X148714277Y-70026004D01*
X148694722Y-69995202D01*
X148667776Y-69971096D01*
X148633887Y-69955160D01*
X148591163Y-69947574D01*
X148591163Y-69797914D01*
X148652750Y-69806026D01*
X148705536Y-69823787D01*
X148751095Y-69850779D01*
X148790526Y-69887429D01*
X148821683Y-69931176D01*
X148844528Y-69982107D01*
X148858903Y-70041571D01*
X148863982Y-70111278D01*
G37*
G36*
X148850000Y-68726665D02*
G01*
X147828698Y-68839933D01*
X147828698Y-68708469D01*
X148561793Y-68637089D01*
X148656926Y-68630128D01*
X148743693Y-68625915D01*
X148656926Y-68617550D01*
X148561793Y-68607719D01*
X147828698Y-68512586D01*
X147828698Y-68369888D01*
X148561793Y-68281777D01*
X148656926Y-68271274D01*
X148743693Y-68262176D01*
X148656926Y-68255887D01*
X148561793Y-68248194D01*
X147828698Y-68175409D01*
X147828698Y-68048098D01*
X148850000Y-68165639D01*
X148850000Y-68341922D01*
X148107135Y-68427224D01*
X148012002Y-68435650D01*
X147928044Y-68442611D01*
X148012002Y-68448961D01*
X148107135Y-68458059D01*
X148850000Y-68548979D01*
X148850000Y-68726665D01*
G37*
G36*
X148850000Y-67911199D02*
G01*
X148712918Y-67911199D01*
X148712918Y-67643998D01*
X148217655Y-67643998D01*
X148217655Y-67883234D01*
X148080512Y-67883234D01*
X148080512Y-67492872D01*
X148712918Y-67492872D01*
X148712918Y-67245271D01*
X148850000Y-67245271D01*
X148850000Y-67911199D01*
G37*
G36*
X147947644Y-67581044D02*
G01*
X147940792Y-67626244D01*
X147921755Y-67659385D01*
X147902786Y-67675558D01*
X147880086Y-67685330D01*
X147852512Y-67688755D01*
X147823998Y-67685292D01*
X147800867Y-67675485D01*
X147781864Y-67659385D01*
X147762827Y-67626244D01*
X147755975Y-67581044D01*
X147762827Y-67535844D01*
X147781864Y-67502703D01*
X147800871Y-67486567D01*
X147824003Y-67476741D01*
X147852512Y-67473272D01*
X147880082Y-67476703D01*
X147902781Y-67486493D01*
X147921755Y-67502703D01*
X147940792Y-67535844D01*
X147947644Y-67581044D01*
G37*
G36*
X148850000Y-67039802D02*
G01*
X148080512Y-67039802D01*
X148080512Y-66890142D01*
X148231638Y-66890142D01*
X148182995Y-66877449D01*
X148143200Y-66855587D01*
X148110615Y-66824380D01*
X148086862Y-66785752D01*
X148071891Y-66738461D01*
X148066530Y-66680277D01*
X148071615Y-66621645D01*
X148085979Y-66572430D01*
X148108940Y-66530849D01*
X148140718Y-66495629D01*
X148179292Y-66468120D01*
X148225775Y-66447641D01*
X148281746Y-66434553D01*
X148349180Y-66429867D01*
X148417690Y-66429867D01*
X148417690Y-66580931D01*
X148353332Y-66580931D01*
X148302815Y-66585795D01*
X148264914Y-66598954D01*
X148236641Y-66619277D01*
X148216130Y-66647107D01*
X148202921Y-66684191D01*
X148198054Y-66733399D01*
X148203443Y-66781890D01*
X148218349Y-66819534D01*
X148242140Y-66848865D01*
X148273827Y-66870023D01*
X148315507Y-66883705D01*
X148370123Y-66888738D01*
X148850000Y-66888738D01*
X148850000Y-67039802D01*
G37*
G36*
X148503053Y-66092872D02*
G01*
X148566006Y-66092872D01*
X148618314Y-66087399D01*
X148659443Y-66072230D01*
X148691913Y-66048115D01*
X148716216Y-66015731D01*
X148731294Y-65975860D01*
X148736671Y-65926360D01*
X148730488Y-65866822D01*
X148713590Y-65821458D01*
X148695634Y-65796554D01*
X148674628Y-65780186D01*
X148649965Y-65771083D01*
X148649965Y-65621423D01*
X148696662Y-65633447D01*
X148737650Y-65653617D01*
X148773886Y-65682173D01*
X148805914Y-65720036D01*
X148837416Y-65778078D01*
X148857056Y-65846087D01*
X148863982Y-65926360D01*
X148858373Y-65996276D01*
X148842415Y-66056276D01*
X148816824Y-66108105D01*
X148781489Y-66153078D01*
X148737697Y-66189575D01*
X148686589Y-66216015D01*
X148626729Y-66232546D01*
X148556175Y-66238380D01*
X148374337Y-66238380D01*
X148303816Y-66232547D01*
X148243976Y-66216018D01*
X148192876Y-66189578D01*
X148149084Y-66153078D01*
X148113721Y-66108102D01*
X148088111Y-66056271D01*
X148072143Y-65996272D01*
X148066530Y-65926360D01*
X148185476Y-65926360D01*
X148191168Y-65977515D01*
X148206995Y-66017728D01*
X148232370Y-66049519D01*
X148266082Y-66072723D01*
X148309247Y-66087501D01*
X148364567Y-66092872D01*
X148396746Y-66092872D01*
X148396746Y-65759908D01*
X148363162Y-65759908D01*
X148307851Y-65765296D01*
X148264938Y-65780084D01*
X148231638Y-65803262D01*
X148206694Y-65834958D01*
X148191094Y-65875147D01*
X148185476Y-65926360D01*
X148066530Y-65926360D01*
X148070931Y-65863836D01*
X148083503Y-65809238D01*
X148103654Y-65761313D01*
X148131917Y-65717901D01*
X148166485Y-65681987D01*
X148207885Y-65652869D01*
X148254031Y-65631874D01*
X148305875Y-65618908D01*
X148364567Y-65614401D01*
X148503053Y-65614401D01*
X148503053Y-66092872D01*
G37*
G36*
X148850000Y-64968256D02*
G01*
X148845660Y-65022245D01*
X148833335Y-65068410D01*
X148813598Y-65108136D01*
X148786374Y-65142463D01*
X148752611Y-65170423D01*
X148713745Y-65190572D01*
X148668786Y-65203095D01*
X148616381Y-65207492D01*
X147965840Y-65207492D01*
X147965840Y-65466329D01*
X147828698Y-65466329D01*
X147828698Y-65056367D01*
X148613572Y-65056367D01*
X148655941Y-65049693D01*
X148686357Y-65031210D01*
X148705977Y-65002253D01*
X148712918Y-64962639D01*
X148712918Y-64730425D01*
X148850000Y-64730425D01*
X148850000Y-64968256D01*
G37*
G36*
X148503053Y-64414436D02*
G01*
X148566006Y-64414436D01*
X148618314Y-64408962D01*
X148659443Y-64393793D01*
X148691913Y-64369678D01*
X148716216Y-64337294D01*
X148731294Y-64297424D01*
X148736671Y-64247923D01*
X148730488Y-64188385D01*
X148713590Y-64143021D01*
X148695634Y-64118117D01*
X148674628Y-64101750D01*
X148649965Y-64092646D01*
X148649965Y-63942986D01*
X148696662Y-63955010D01*
X148737650Y-63975180D01*
X148773886Y-64003736D01*
X148805914Y-64041599D01*
X148837416Y-64099642D01*
X148857056Y-64167650D01*
X148863982Y-64247923D01*
X148858373Y-64317839D01*
X148842415Y-64377839D01*
X148816824Y-64429668D01*
X148781489Y-64474642D01*
X148737697Y-64511138D01*
X148686589Y-64537578D01*
X148626729Y-64554109D01*
X148556175Y-64559943D01*
X148374337Y-64559943D01*
X148303816Y-64554110D01*
X148243976Y-64537581D01*
X148192876Y-64511141D01*
X148149084Y-64474642D01*
X148113721Y-64429665D01*
X148088111Y-64377834D01*
X148072143Y-64317835D01*
X148066530Y-64247923D01*
X148185476Y-64247923D01*
X148191168Y-64299078D01*
X148206995Y-64339292D01*
X148232370Y-64371083D01*
X148266082Y-64394286D01*
X148309247Y-64409064D01*
X148364567Y-64414436D01*
X148396746Y-64414436D01*
X148396746Y-64081472D01*
X148363162Y-64081472D01*
X148307851Y-64086859D01*
X148264938Y-64101648D01*
X148231638Y-64124825D01*
X148206694Y-64156521D01*
X148191094Y-64196710D01*
X148185476Y-64247923D01*
X148066530Y-64247923D01*
X148070931Y-64185399D01*
X148083503Y-64130802D01*
X148103654Y-64082876D01*
X148131917Y-64039464D01*
X148166485Y-64003550D01*
X148207885Y-63974432D01*
X148254031Y-63953437D01*
X148305875Y-63940471D01*
X148364567Y-63935964D01*
X148503053Y-63935964D01*
X148503053Y-64414436D01*
G37*
G36*
X148862578Y-63439479D02*
G01*
X148858279Y-63506461D01*
X148846265Y-63562387D01*
X148827502Y-63609070D01*
X148802433Y-63648002D01*
X148769699Y-63680802D01*
X148731612Y-63704099D01*
X148687108Y-63718482D01*
X148634577Y-63723534D01*
X148634577Y-63573813D01*
X148665476Y-63569728D01*
X148690397Y-63558118D01*
X148710781Y-63538825D01*
X148725198Y-63514033D01*
X148734608Y-63481623D01*
X148738075Y-63439479D01*
X148738075Y-63377930D01*
X148734613Y-63334818D01*
X148725201Y-63301483D01*
X148710781Y-63275837D01*
X148690252Y-63255775D01*
X148664897Y-63243702D01*
X148633173Y-63239444D01*
X148593085Y-63245552D01*
X148564452Y-63262367D01*
X148544284Y-63290321D01*
X148532423Y-63333173D01*
X148504457Y-63536016D01*
X148491329Y-63590185D01*
X148468677Y-63633312D01*
X148436618Y-63667541D01*
X148396525Y-63692503D01*
X148348028Y-63708135D01*
X148288974Y-63713703D01*
X148237615Y-63708932D01*
X148194304Y-63695394D01*
X148157458Y-63673578D01*
X148126003Y-63643056D01*
X148101944Y-63606617D01*
X148083825Y-63562150D01*
X148072142Y-63508032D01*
X148067934Y-63442288D01*
X148067934Y-63379334D01*
X148074907Y-63301000D01*
X148094410Y-63236895D01*
X148125331Y-63184184D01*
X148156708Y-63150797D01*
X148191815Y-63126960D01*
X148231336Y-63111755D01*
X148276395Y-63105111D01*
X148276395Y-63256236D01*
X148252832Y-63261396D01*
X148232340Y-63273048D01*
X148214174Y-63291957D01*
X148196271Y-63328619D01*
X148189689Y-63379334D01*
X148189689Y-63442288D01*
X148193044Y-63481629D01*
X148202180Y-63511996D01*
X148216250Y-63535345D01*
X148235888Y-63553638D01*
X148258825Y-63564457D01*
X148286165Y-63568195D01*
X148319098Y-63563074D01*
X148342882Y-63548882D01*
X148359879Y-63525104D01*
X148370123Y-63488450D01*
X148395341Y-63298185D01*
X148410716Y-63232338D01*
X148435293Y-63182009D01*
X148468350Y-63144016D01*
X148510589Y-63116445D01*
X148564033Y-63098892D01*
X148631769Y-63092532D01*
X148685905Y-63097562D01*
X148731342Y-63111805D01*
X148769797Y-63134712D01*
X148802433Y-63166721D01*
X148827307Y-63204897D01*
X148846080Y-63251608D01*
X148858206Y-63308586D01*
X148862578Y-63377930D01*
X148862578Y-63439479D01*
G37*
G36*
X148862578Y-62600261D02*
G01*
X148858279Y-62667242D01*
X148846265Y-62723168D01*
X148827502Y-62769851D01*
X148802433Y-62808783D01*
X148769699Y-62841583D01*
X148731612Y-62864881D01*
X148687108Y-62879263D01*
X148634577Y-62884315D01*
X148634577Y-62734594D01*
X148665476Y-62730510D01*
X148690397Y-62718899D01*
X148710781Y-62699607D01*
X148725198Y-62674815D01*
X148734608Y-62642405D01*
X148738075Y-62600261D01*
X148738075Y-62538712D01*
X148734613Y-62495600D01*
X148725201Y-62462264D01*
X148710781Y-62436618D01*
X148690252Y-62416557D01*
X148664897Y-62404483D01*
X148633173Y-62400226D01*
X148593085Y-62406333D01*
X148564452Y-62423149D01*
X148544284Y-62451102D01*
X148532423Y-62493954D01*
X148504457Y-62696798D01*
X148491329Y-62750967D01*
X148468677Y-62794094D01*
X148436618Y-62828323D01*
X148396525Y-62853285D01*
X148348028Y-62868917D01*
X148288974Y-62874485D01*
X148237615Y-62869714D01*
X148194304Y-62856175D01*
X148157458Y-62834360D01*
X148126003Y-62803837D01*
X148101944Y-62767399D01*
X148083825Y-62722932D01*
X148072142Y-62668814D01*
X148067934Y-62603070D01*
X148067934Y-62540116D01*
X148074907Y-62461781D01*
X148094410Y-62397677D01*
X148125331Y-62344966D01*
X148156708Y-62311578D01*
X148191815Y-62287741D01*
X148231336Y-62272536D01*
X148276395Y-62265892D01*
X148276395Y-62417018D01*
X148252832Y-62422178D01*
X148232340Y-62433829D01*
X148214174Y-62452738D01*
X148196271Y-62489401D01*
X148189689Y-62540116D01*
X148189689Y-62603070D01*
X148193044Y-62642411D01*
X148202180Y-62672778D01*
X148216250Y-62696126D01*
X148235888Y-62714420D01*
X148258825Y-62725238D01*
X148286165Y-62728977D01*
X148319098Y-62723856D01*
X148342882Y-62709663D01*
X148359879Y-62685886D01*
X148370123Y-62649232D01*
X148395341Y-62458966D01*
X148410716Y-62393120D01*
X148435293Y-62342791D01*
X148468350Y-62304798D01*
X148510589Y-62277226D01*
X148564033Y-62259674D01*
X148631769Y-62253314D01*
X148685905Y-62258343D01*
X148731342Y-62272586D01*
X148769797Y-62295494D01*
X148802433Y-62327503D01*
X148827307Y-62365678D01*
X148846080Y-62412389D01*
X148858206Y-62469368D01*
X148862578Y-62538712D01*
X148862578Y-62600261D01*
G37*
G36*
X150530000Y-67680389D02*
G01*
X149645840Y-67680389D01*
X149645840Y-67953148D01*
X149508698Y-67953148D01*
X149508698Y-67255040D01*
X149645840Y-67255040D01*
X149645840Y-67529264D01*
X150530000Y-67529264D01*
X150530000Y-67680389D01*
G37*
G36*
X150530000Y-67039801D02*
G01*
X149760512Y-67039801D01*
X149760512Y-66890142D01*
X149911638Y-66890142D01*
X149862995Y-66877448D01*
X149823200Y-66855587D01*
X149790615Y-66824379D01*
X149766862Y-66785751D01*
X149751891Y-66738460D01*
X149746530Y-66680276D01*
X149751615Y-66621644D01*
X149765979Y-66572429D01*
X149788940Y-66530849D01*
X149820718Y-66495628D01*
X149859292Y-66468119D01*
X149905775Y-66447641D01*
X149961746Y-66434553D01*
X150029180Y-66429866D01*
X150097690Y-66429866D01*
X150097690Y-66580930D01*
X150033332Y-66580930D01*
X149982815Y-66585795D01*
X149944914Y-66598953D01*
X149916641Y-66619276D01*
X149896130Y-66647106D01*
X149882921Y-66684190D01*
X149878054Y-66733399D01*
X149883443Y-66781890D01*
X149898349Y-66819534D01*
X149922140Y-66848865D01*
X149953827Y-66870022D01*
X149995507Y-66883704D01*
X150050123Y-66888737D01*
X150530000Y-66888737D01*
X150530000Y-67039801D01*
G37*
G36*
X150530000Y-65772486D02*
G01*
X150385896Y-65772486D01*
X150385896Y-65773891D01*
X150432153Y-65786179D01*
X150470342Y-65809238D01*
X150502034Y-65843866D01*
X150524420Y-65885952D01*
X150538786Y-65938281D01*
X150543982Y-66003357D01*
X150539418Y-66061631D01*
X150526489Y-66111224D01*
X150505866Y-66153655D01*
X150477548Y-66190081D01*
X150442186Y-66220062D01*
X150402050Y-66241491D01*
X150356204Y-66254709D01*
X150303342Y-66259323D01*
X150250024Y-66254417D01*
X150203844Y-66240344D01*
X150163420Y-66217440D01*
X150127793Y-66185196D01*
X150099512Y-66146465D01*
X150078845Y-66101520D01*
X150065874Y-66049189D01*
X150061297Y-65987970D01*
X150061297Y-65976734D01*
X150167665Y-65976734D01*
X150171850Y-66015416D01*
X150183626Y-66046837D01*
X150202653Y-66072600D01*
X150227860Y-66092260D01*
X150257278Y-66104126D01*
X150292168Y-66108259D01*
X150329554Y-66103664D01*
X150360036Y-66090615D01*
X150385225Y-66069119D01*
X150403541Y-66041087D01*
X150415233Y-66005404D01*
X150419480Y-65959943D01*
X150414397Y-65904468D01*
X150400328Y-65860279D01*
X150378203Y-65824999D01*
X150347724Y-65797530D01*
X150311287Y-65781053D01*
X150267011Y-65775295D01*
X150167665Y-65775295D01*
X150167665Y-65976734D01*
X150061297Y-65976734D01*
X150061297Y-65775295D01*
X150005366Y-65775295D01*
X149956303Y-65781628D01*
X149920822Y-65798845D01*
X149895358Y-65826468D01*
X149878729Y-65866915D01*
X149872437Y-65924955D01*
X149875596Y-65969177D01*
X149884279Y-66004537D01*
X149897655Y-66032727D01*
X149917022Y-66055930D01*
X149939969Y-66070039D01*
X149967569Y-66076080D01*
X149967569Y-66224397D01*
X149921336Y-66216309D01*
X149880067Y-66199442D01*
X149842761Y-66173558D01*
X149808811Y-66137629D01*
X149782682Y-66096561D01*
X149763262Y-66048154D01*
X149750918Y-65991054D01*
X149746530Y-65923612D01*
X149751394Y-65851832D01*
X149764953Y-65792410D01*
X149786111Y-65743226D01*
X149814429Y-65702572D01*
X149850917Y-65668851D01*
X149893736Y-65644607D01*
X149944151Y-65629502D01*
X150003961Y-65624170D01*
X150530000Y-65624170D01*
X150530000Y-65772486D01*
G37*
G36*
X150543982Y-65075967D02*
G01*
X150538513Y-65147515D01*
X150522995Y-65208731D01*
X150498224Y-65261384D01*
X150464237Y-65306837D01*
X150421666Y-65344098D01*
X150372112Y-65370939D01*
X150314198Y-65387655D01*
X150246006Y-65393544D01*
X150044567Y-65393544D01*
X149976342Y-65387654D01*
X149918408Y-65370936D01*
X149868846Y-65344095D01*
X149826275Y-65306837D01*
X149792288Y-65261384D01*
X149767517Y-65208731D01*
X149751999Y-65147515D01*
X149746530Y-65075967D01*
X149751569Y-65006218D01*
X149765825Y-64946739D01*
X149788466Y-64895823D01*
X149819314Y-64852118D01*
X149858397Y-64815491D01*
X149903703Y-64788502D01*
X149956350Y-64770727D01*
X150017944Y-64762603D01*
X150017944Y-64912263D01*
X149976217Y-64919869D01*
X149942775Y-64935982D01*
X149915851Y-64960562D01*
X149896177Y-64991799D01*
X149883852Y-65029694D01*
X149879459Y-65075967D01*
X149884619Y-65125586D01*
X149899042Y-65165460D01*
X149922140Y-65197722D01*
X149953287Y-65221884D01*
X149992801Y-65237022D01*
X150043162Y-65242479D01*
X150246006Y-65242479D01*
X150297319Y-65236989D01*
X150337255Y-65221820D01*
X150368433Y-65197722D01*
X150391495Y-65165464D01*
X150405899Y-65125591D01*
X150411053Y-65075967D01*
X150406621Y-65028747D01*
X150394277Y-64990693D01*
X150374722Y-64959890D01*
X150347776Y-64935785D01*
X150313887Y-64919849D01*
X150271163Y-64912263D01*
X150271163Y-64762603D01*
X150332750Y-64770714D01*
X150385536Y-64788476D01*
X150431095Y-64815468D01*
X150470526Y-64852118D01*
X150501683Y-64895865D01*
X150524528Y-64946796D01*
X150538903Y-65006260D01*
X150543982Y-65075967D01*
G37*
G36*
X150530000Y-64543151D02*
G01*
X149508698Y-64543151D01*
X149508698Y-64392026D01*
X150069724Y-64392026D01*
X150069724Y-64256349D01*
X149760512Y-64057657D01*
X149760512Y-63888397D01*
X150129869Y-64124824D01*
X150530000Y-63877223D01*
X150530000Y-64050696D01*
X150199844Y-64254944D01*
X150199844Y-64392026D01*
X150530000Y-64392026D01*
X150530000Y-64543151D01*
G37*
G36*
X150183053Y-63575217D02*
G01*
X150246006Y-63575217D01*
X150298314Y-63569743D01*
X150339443Y-63554574D01*
X150371913Y-63530459D01*
X150396216Y-63498075D01*
X150411294Y-63458205D01*
X150416671Y-63408704D01*
X150410488Y-63349166D01*
X150393590Y-63303802D01*
X150375634Y-63278898D01*
X150354628Y-63262530D01*
X150329965Y-63253427D01*
X150329965Y-63103767D01*
X150376662Y-63115791D01*
X150417650Y-63135961D01*
X150453886Y-63164517D01*
X150485914Y-63202380D01*
X150517416Y-63260423D01*
X150537056Y-63328431D01*
X150543982Y-63408704D01*
X150538373Y-63478620D01*
X150522415Y-63538620D01*
X150496824Y-63590449D01*
X150461489Y-63635422D01*
X150417697Y-63671919D01*
X150366589Y-63698359D01*
X150306729Y-63714890D01*
X150236175Y-63720724D01*
X150054337Y-63720724D01*
X149983816Y-63714891D01*
X149923976Y-63698362D01*
X149872876Y-63671922D01*
X149829084Y-63635422D01*
X149793721Y-63590446D01*
X149768111Y-63538615D01*
X149752143Y-63478616D01*
X149746530Y-63408704D01*
X149865476Y-63408704D01*
X149871168Y-63459859D01*
X149886995Y-63500073D01*
X149912370Y-63531864D01*
X149946082Y-63555067D01*
X149989247Y-63569845D01*
X150044567Y-63575217D01*
X150076746Y-63575217D01*
X150076746Y-63242253D01*
X150043162Y-63242253D01*
X149987851Y-63247640D01*
X149944938Y-63262429D01*
X149911638Y-63285606D01*
X149886694Y-63317302D01*
X149871094Y-63357491D01*
X149865476Y-63408704D01*
X149746530Y-63408704D01*
X149750931Y-63346180D01*
X149763503Y-63291583D01*
X149783654Y-63243657D01*
X149811917Y-63200245D01*
X149846485Y-63164331D01*
X149887885Y-63135213D01*
X149934031Y-63114218D01*
X149985875Y-63101252D01*
X150044567Y-63096745D01*
X150183053Y-63096745D01*
X150183053Y-63575217D01*
G37*
G36*
X150530000Y-62843709D02*
G01*
X149760512Y-62843709D01*
X149760512Y-62694049D01*
X149911638Y-62694049D01*
X149862995Y-62681356D01*
X149823200Y-62659495D01*
X149790615Y-62628287D01*
X149766862Y-62589659D01*
X149751891Y-62542368D01*
X149746530Y-62484184D01*
X149751615Y-62425552D01*
X149765979Y-62376337D01*
X149788940Y-62334756D01*
X149820718Y-62299536D01*
X149859292Y-62272027D01*
X149905775Y-62251549D01*
X149961746Y-62238461D01*
X150029180Y-62233774D01*
X150097690Y-62233774D01*
X150097690Y-62384838D01*
X150033332Y-62384838D01*
X149982815Y-62389702D01*
X149944914Y-62402861D01*
X149916641Y-62423184D01*
X149896130Y-62451014D01*
X149882921Y-62488098D01*
X149878054Y-62537307D01*
X149883443Y-62585798D01*
X149898349Y-62623442D01*
X149922140Y-62652772D01*
X149953827Y-62673930D01*
X149995507Y-62687612D01*
X150050123Y-62692645D01*
X150530000Y-62692645D01*
X150530000Y-62843709D01*
G37*
D12*
G36*
X168886952Y-85879596D02*
G01*
X168879484Y-85987920D01*
X168858513Y-86079044D01*
X168825509Y-86155833D01*
X168780981Y-86220590D01*
X168723803Y-86274661D01*
X168657622Y-86313219D01*
X168580650Y-86337061D01*
X168490271Y-86345429D01*
X168411713Y-86337093D01*
X168341340Y-86312711D01*
X168277230Y-86271973D01*
X168224151Y-86218018D01*
X168187055Y-86154995D01*
X168165031Y-86081005D01*
X168158711Y-86081005D01*
X168137642Y-86164439D01*
X168095788Y-86237351D01*
X168036684Y-86297800D01*
X167963531Y-86343322D01*
X167880335Y-86371430D01*
X167785203Y-86381149D01*
X167688386Y-86372552D01*
X167605434Y-86348034D01*
X167533727Y-86308429D01*
X167471412Y-86253105D01*
X167421986Y-86186141D01*
X167385805Y-86107976D01*
X167363047Y-86016477D01*
X167355000Y-85908906D01*
X167355000Y-85890038D01*
X167550180Y-85890038D01*
X167558226Y-85970091D01*
X167580612Y-86033977D01*
X167616217Y-86085218D01*
X167664453Y-86124213D01*
X167723249Y-86148108D01*
X167795736Y-86156568D01*
X167871127Y-86148123D01*
X167933083Y-86124204D01*
X167984596Y-86085218D01*
X168023288Y-86033571D01*
X168047349Y-85969681D01*
X168055946Y-85890038D01*
X168055946Y-85877490D01*
X168244807Y-85877490D01*
X168252040Y-85949366D01*
X168272274Y-86007457D01*
X168304616Y-86054719D01*
X168348417Y-86090816D01*
X168402305Y-86112978D01*
X168469296Y-86120847D01*
X168535021Y-86113139D01*
X168588292Y-86091365D01*
X168631962Y-86055818D01*
X168664266Y-86009176D01*
X168684515Y-85951456D01*
X168691771Y-85879596D01*
X168691771Y-85648695D01*
X168244807Y-85648695D01*
X168244807Y-85877490D01*
X168055946Y-85877490D01*
X168055946Y-85648695D01*
X167550180Y-85648695D01*
X167550180Y-85890038D01*
X167355000Y-85890038D01*
X167355000Y-85428419D01*
X168886952Y-85428419D01*
X168886952Y-85879596D01*
G37*
G36*
X167355000Y-86640993D02*
G01*
X168886952Y-86640993D01*
X168886952Y-86951578D01*
X168225847Y-87134211D01*
X168886952Y-87323072D01*
X168886952Y-87635764D01*
X167355000Y-87635764D01*
X167355000Y-87421715D01*
X168039093Y-87421715D01*
X168294083Y-87426936D01*
X168565833Y-87440583D01*
X168809282Y-87459451D01*
X168028652Y-87228641D01*
X168028652Y-87037674D01*
X168790415Y-86815199D01*
X168635807Y-86831493D01*
X168448322Y-86844508D01*
X168252462Y-86852331D01*
X168039093Y-86855041D01*
X167355000Y-86855041D01*
X167355000Y-86640993D01*
G37*
G36*
X167355000Y-87973277D02*
G01*
X167560621Y-87973277D01*
X167560621Y-88281755D01*
X168681238Y-88281755D01*
X168681238Y-87973277D01*
X168886952Y-87973277D01*
X168886952Y-88823242D01*
X168681238Y-88823242D01*
X168681238Y-88512657D01*
X167560621Y-88512657D01*
X167560621Y-88823242D01*
X167355000Y-88823242D01*
X167355000Y-87973277D01*
G37*
G36*
X167355000Y-89209023D02*
G01*
X167560621Y-89209023D01*
X167560621Y-89616146D01*
X168677117Y-89616146D01*
X168374866Y-89206917D01*
X168630863Y-89206917D01*
X168886952Y-89557436D01*
X168886952Y-89842834D01*
X167560621Y-89842834D01*
X167560621Y-90172287D01*
X167355000Y-90172287D01*
X167355000Y-89209023D01*
G37*
G36*
X167929189Y-90416202D02*
G01*
X168039093Y-90445869D01*
X168149906Y-90490842D01*
X168267888Y-90551840D01*
X168886952Y-90893841D01*
X168886952Y-91147823D01*
X168221726Y-90761675D01*
X168215406Y-90770102D01*
X168250204Y-90805100D01*
X168278329Y-90856106D01*
X168295417Y-90915244D01*
X168301410Y-90984150D01*
X168294568Y-91069222D01*
X168274804Y-91144907D01*
X168242609Y-91212853D01*
X168198421Y-91273601D01*
X168143901Y-91324797D01*
X168077928Y-91367092D01*
X168005384Y-91397431D01*
X167924425Y-91416180D01*
X167833471Y-91422688D01*
X167734411Y-91415163D01*
X167647268Y-91393560D01*
X167570055Y-91358666D01*
X167500672Y-91310406D01*
X167442954Y-91251627D01*
X167395941Y-91181345D01*
X167362201Y-91103613D01*
X167341301Y-91016130D01*
X167334025Y-90917014D01*
X167334180Y-90914907D01*
X167531312Y-90914907D01*
X167540917Y-90996694D01*
X167568234Y-91064145D01*
X167613103Y-91120529D01*
X167671896Y-91162829D01*
X167742822Y-91188948D01*
X167829258Y-91198198D01*
X167915694Y-91188948D01*
X167986620Y-91162829D01*
X168045413Y-91120529D01*
X168090336Y-91064138D01*
X168117682Y-90996687D01*
X168127295Y-90914907D01*
X168117680Y-90833065D01*
X168090332Y-90765586D01*
X168045413Y-90709193D01*
X167986620Y-90666894D01*
X167915694Y-90640774D01*
X167829258Y-90631524D01*
X167742822Y-90640774D01*
X167671896Y-90666894D01*
X167613103Y-90709193D01*
X167568239Y-90765579D01*
X167540919Y-90833059D01*
X167531312Y-90914907D01*
X167334180Y-90914907D01*
X167341428Y-90816463D01*
X167362675Y-90727903D01*
X167396948Y-90649385D01*
X167444601Y-90578410D01*
X167502389Y-90519318D01*
X167571154Y-90471057D01*
X167647666Y-90436198D01*
X167734419Y-90414579D01*
X167833471Y-90407035D01*
X167929189Y-90416202D01*
G37*
G36*
X168180532Y-92051099D02*
G01*
X168218520Y-92078205D01*
X168242522Y-92119340D01*
X168251035Y-92173735D01*
X168242526Y-92228050D01*
X168218520Y-92269173D01*
X168180532Y-92296279D01*
X168127295Y-92305901D01*
X168071963Y-92296226D01*
X168032773Y-92269173D01*
X168007994Y-92227968D01*
X167999251Y-92173735D01*
X168007998Y-92119422D01*
X168032773Y-92078205D01*
X168071963Y-92051152D01*
X168127295Y-92041477D01*
X168180532Y-92051099D01*
G37*
G36*
X168555853Y-91708007D02*
G01*
X168642886Y-91732603D01*
X168718337Y-91772258D01*
X168784095Y-91827429D01*
X168836874Y-91894841D01*
X168875311Y-91973469D01*
X168899413Y-92065483D01*
X168907926Y-92173735D01*
X168899415Y-92281937D01*
X168875315Y-92373921D01*
X168836878Y-92452536D01*
X168784095Y-92519949D01*
X168718337Y-92575120D01*
X168642886Y-92614775D01*
X168555853Y-92639370D01*
X168454642Y-92647993D01*
X167789416Y-92647993D01*
X167698656Y-92641064D01*
X167619174Y-92621209D01*
X167549081Y-92589192D01*
X167486304Y-92544848D01*
X167433745Y-92490301D01*
X167390628Y-92424511D01*
X167359917Y-92351844D01*
X167340743Y-92268899D01*
X167334025Y-92173735D01*
X167529206Y-92173735D01*
X167537675Y-92249098D01*
X167561610Y-92310656D01*
X167600555Y-92361496D01*
X167651993Y-92399890D01*
X167713950Y-92423495D01*
X167789416Y-92431838D01*
X168454642Y-92431838D01*
X168528695Y-92423546D01*
X168590002Y-92399990D01*
X168641396Y-92361496D01*
X168680341Y-92310656D01*
X168704276Y-92249098D01*
X168712745Y-92173735D01*
X168704278Y-92098369D01*
X168680345Y-92036778D01*
X168641396Y-91985881D01*
X168590002Y-91947388D01*
X168528695Y-91923832D01*
X168454642Y-91915539D01*
X167789416Y-91915539D01*
X167713950Y-91923883D01*
X167651993Y-91947487D01*
X167600555Y-91985881D01*
X167561606Y-92036778D01*
X167537673Y-92098369D01*
X167529206Y-92173735D01*
X167334025Y-92173735D01*
X167342533Y-92065477D01*
X167366619Y-91973461D01*
X167405028Y-91894835D01*
X167457765Y-91827429D01*
X167523506Y-91772358D01*
X167599272Y-91732694D01*
X167687016Y-91708042D01*
X167789416Y-91699385D01*
X168454642Y-91699385D01*
X168555853Y-91708007D01*
G37*
D14*
G36*
X173232165Y-54595000D02*
G01*
X173232165Y-53063047D01*
X173542751Y-53063047D01*
X173725383Y-53724152D01*
X173914244Y-53063047D01*
X174226936Y-53063047D01*
X174226936Y-54595000D01*
X174012888Y-54595000D01*
X174012888Y-53910906D01*
X174018108Y-53655916D01*
X174031755Y-53384166D01*
X174050623Y-53140717D01*
X173819814Y-53921347D01*
X173628846Y-53921347D01*
X173406372Y-53159584D01*
X173422665Y-53314192D01*
X173435681Y-53501677D01*
X173443503Y-53697537D01*
X173446214Y-53910906D01*
X173446214Y-54595000D01*
X173232165Y-54595000D01*
G37*
G36*
X175005185Y-54615974D02*
G01*
X174897854Y-54607662D01*
X174806657Y-54584145D01*
X174728785Y-54546688D01*
X174662085Y-54495348D01*
X174607535Y-54431149D01*
X174568217Y-54356808D01*
X174543748Y-54270339D01*
X174535140Y-54169009D01*
X174535140Y-53489037D01*
X174543798Y-53386549D01*
X174568343Y-53299607D01*
X174607666Y-53225350D01*
X174662085Y-53161691D01*
X174728721Y-53110819D01*
X174806571Y-53073667D01*
X174897790Y-53050325D01*
X175005185Y-53042073D01*
X175111364Y-53050359D01*
X175201877Y-53073842D01*
X175279455Y-53111320D01*
X175346179Y-53162790D01*
X175400726Y-53226945D01*
X175440043Y-53301255D01*
X175464515Y-53387707D01*
X175473124Y-53489037D01*
X175246528Y-53489037D01*
X175238590Y-53411830D01*
X175216802Y-53352346D01*
X175182506Y-53306496D01*
X175136202Y-53272517D01*
X175078211Y-53251225D01*
X175005185Y-53243573D01*
X174930732Y-53251273D01*
X174872105Y-53272610D01*
X174825758Y-53306496D01*
X174791462Y-53352346D01*
X174769674Y-53411830D01*
X174761736Y-53489037D01*
X174761736Y-54169009D01*
X174769671Y-54246219D01*
X174791458Y-54305737D01*
X174825758Y-54351642D01*
X174872105Y-54385528D01*
X174930732Y-54406865D01*
X175005185Y-54414565D01*
X175078211Y-54406913D01*
X175136202Y-54385621D01*
X175182506Y-54351642D01*
X175216806Y-54305737D01*
X175238593Y-54246219D01*
X175246528Y-54169009D01*
X175473124Y-54169009D01*
X175464516Y-54270339D01*
X175440047Y-54356808D01*
X175400729Y-54431149D01*
X175346179Y-54495348D01*
X175279460Y-54546775D01*
X175201885Y-54584226D01*
X175111369Y-54607693D01*
X175005185Y-54615974D01*
G37*
G36*
X176393477Y-53069768D02*
G01*
X176479216Y-53088971D01*
X176554631Y-53119742D01*
X176623008Y-53163141D01*
X176679275Y-53216397D01*
X176724624Y-53280301D01*
X176757208Y-53351764D01*
X176777395Y-53432620D01*
X176784433Y-53524758D01*
X176777275Y-53616836D01*
X176756731Y-53697686D01*
X176723525Y-53769214D01*
X176677646Y-53833173D01*
X176621344Y-53886424D01*
X176553532Y-53929774D01*
X176478822Y-53960510D01*
X176393475Y-53979729D01*
X176295520Y-53986468D01*
X176020564Y-53986468D01*
X176020564Y-54595000D01*
X175793968Y-54595000D01*
X175793968Y-53784968D01*
X176020564Y-53784968D01*
X176295520Y-53784968D01*
X176370884Y-53776499D01*
X176432441Y-53752564D01*
X176483282Y-53713619D01*
X176521676Y-53662181D01*
X176545281Y-53600223D01*
X176553624Y-53524758D01*
X176545281Y-53449292D01*
X176521676Y-53387335D01*
X176483282Y-53335897D01*
X176432441Y-53296952D01*
X176370884Y-53273017D01*
X176295520Y-53264548D01*
X176020564Y-53264548D01*
X176020564Y-53784968D01*
X175793968Y-53784968D01*
X175793968Y-53063047D01*
X176295520Y-53063047D01*
X176393477Y-53069768D01*
G37*
G36*
X177044369Y-54595000D02*
G01*
X177044369Y-54389378D01*
X177575322Y-53833237D01*
X177654306Y-53737888D01*
X177703275Y-53657015D01*
X177733619Y-53574599D01*
X177743209Y-53497464D01*
X177735401Y-53423077D01*
X177713449Y-53362529D01*
X177678087Y-53312816D01*
X177630683Y-53275101D01*
X177572316Y-53251846D01*
X177499760Y-53243573D01*
X177425863Y-53252036D01*
X177365684Y-53275950D01*
X177316120Y-53314923D01*
X177279054Y-53366247D01*
X177256063Y-53428852D01*
X177247884Y-53505890D01*
X177021288Y-53505890D01*
X177030717Y-53413774D01*
X177052289Y-53332873D01*
X177085310Y-53261434D01*
X177130511Y-53197310D01*
X177186120Y-53143692D01*
X177253196Y-53099775D01*
X177327255Y-53068314D01*
X177410279Y-53048843D01*
X177503973Y-53042073D01*
X177597767Y-53048647D01*
X177680055Y-53067459D01*
X177752643Y-53097669D01*
X177818466Y-53140085D01*
X177873003Y-53191947D01*
X177917323Y-53254015D01*
X177949374Y-53323382D01*
X177969212Y-53401810D01*
X177976125Y-53491144D01*
X177970022Y-53565554D01*
X177951196Y-53642894D01*
X177918422Y-53724152D01*
X177874865Y-53800453D01*
X177811459Y-53886014D01*
X177724249Y-53982255D01*
X177325553Y-54389378D01*
X177992886Y-54389378D01*
X177992886Y-54595000D01*
X177044369Y-54595000D01*
G37*
G36*
X178754374Y-54615974D02*
G01*
X178645810Y-54607787D01*
X178553486Y-54584632D01*
X178474622Y-54547803D01*
X178407061Y-54497455D01*
X178351484Y-54434114D01*
X178311545Y-54360758D01*
X178286733Y-54275417D01*
X178278009Y-54175329D01*
X178504697Y-54175329D01*
X178512807Y-54246554D01*
X178535671Y-54304277D01*
X178572841Y-54351550D01*
X178621928Y-54386821D01*
X178682108Y-54408759D01*
X178756481Y-54416580D01*
X178830831Y-54408734D01*
X178890608Y-54386779D01*
X178939022Y-54351550D01*
X178975401Y-54304262D01*
X178998047Y-54245257D01*
X179006158Y-54171116D01*
X179006158Y-54074579D01*
X178998338Y-54001672D01*
X178976414Y-53942906D01*
X178941128Y-53895152D01*
X178893962Y-53859265D01*
X178835598Y-53836981D01*
X178762800Y-53829023D01*
X178330491Y-53829023D01*
X178330491Y-53063047D01*
X179176151Y-53063047D01*
X179176151Y-53268761D01*
X178544539Y-53268761D01*
X178546646Y-53627615D01*
X178773242Y-53627615D01*
X178882148Y-53635810D01*
X178972908Y-53658784D01*
X179048739Y-53694990D01*
X179112129Y-53744118D01*
X179163242Y-53805808D01*
X179200701Y-53879670D01*
X179224399Y-53968169D01*
X179232846Y-54074579D01*
X179232846Y-54171116D01*
X179224160Y-54272392D01*
X179199482Y-54358629D01*
X179159836Y-54432612D01*
X179104801Y-54496356D01*
X179037738Y-54547004D01*
X178958649Y-54584179D01*
X178865198Y-54607646D01*
X178754374Y-54615974D01*
G37*
G36*
X179576679Y-54595000D02*
G01*
X179576679Y-54389378D01*
X179983801Y-54389378D01*
X179983801Y-53272882D01*
X179574572Y-53575133D01*
X179574572Y-53319136D01*
X179925091Y-53063047D01*
X180210489Y-53063047D01*
X180210489Y-54389378D01*
X180539942Y-54389378D01*
X180539942Y-54595000D01*
X179576679Y-54595000D01*
G37*
G36*
X181272029Y-54615974D02*
G01*
X181163465Y-54607787D01*
X181071141Y-54584632D01*
X180992277Y-54547803D01*
X180924716Y-54497455D01*
X180869139Y-54434114D01*
X180829201Y-54360758D01*
X180804388Y-54275417D01*
X180795664Y-54175329D01*
X181022352Y-54175329D01*
X181030462Y-54246554D01*
X181053326Y-54304277D01*
X181090496Y-54351550D01*
X181139583Y-54386821D01*
X181199763Y-54408759D01*
X181274136Y-54416580D01*
X181348486Y-54408734D01*
X181408263Y-54386779D01*
X181456677Y-54351550D01*
X181493056Y-54304262D01*
X181515702Y-54245257D01*
X181523813Y-54171116D01*
X181523813Y-54074579D01*
X181515993Y-54001672D01*
X181494069Y-53942906D01*
X181458784Y-53895152D01*
X181411618Y-53859265D01*
X181353253Y-53836981D01*
X181280456Y-53829023D01*
X180848146Y-53829023D01*
X180848146Y-53063047D01*
X181693806Y-53063047D01*
X181693806Y-53268761D01*
X181062194Y-53268761D01*
X181064301Y-53627615D01*
X181290897Y-53627615D01*
X181399803Y-53635810D01*
X181490563Y-53658784D01*
X181566394Y-53694990D01*
X181629784Y-53744118D01*
X181680898Y-53805808D01*
X181718357Y-53879670D01*
X181742054Y-53968169D01*
X181750501Y-54074579D01*
X181750501Y-54171116D01*
X181741815Y-54272392D01*
X181717137Y-54358629D01*
X181677491Y-54432612D01*
X181622457Y-54496356D01*
X181555393Y-54547004D01*
X181476304Y-54584179D01*
X181382853Y-54607646D01*
X181272029Y-54615974D01*
G37*
D15*
X182583333Y-79259580D02*
X182535714Y-79307200D01*
X182535714Y-79307200D02*
X182392857Y-79354819D01*
X182392857Y-79354819D02*
X182297619Y-79354819D01*
X182297619Y-79354819D02*
X182154762Y-79307200D01*
X182154762Y-79307200D02*
X182059524Y-79211961D01*
X182059524Y-79211961D02*
X182011905Y-79116723D01*
X182011905Y-79116723D02*
X181964286Y-78926247D01*
X181964286Y-78926247D02*
X181964286Y-78783390D01*
X181964286Y-78783390D02*
X182011905Y-78592914D01*
X182011905Y-78592914D02*
X182059524Y-78497676D01*
X182059524Y-78497676D02*
X182154762Y-78402438D01*
X182154762Y-78402438D02*
X182297619Y-78354819D01*
X182297619Y-78354819D02*
X182392857Y-78354819D01*
X182392857Y-78354819D02*
X182535714Y-78402438D01*
X182535714Y-78402438D02*
X182583333Y-78450057D01*
X183440476Y-78688152D02*
X183440476Y-79354819D01*
X183202381Y-78307200D02*
X182964286Y-79021485D01*
X182964286Y-79021485D02*
X183583333Y-79021485D01*
X181083333Y-98459580D02*
X181035714Y-98507200D01*
X181035714Y-98507200D02*
X180892857Y-98554819D01*
X180892857Y-98554819D02*
X180797619Y-98554819D01*
X180797619Y-98554819D02*
X180654762Y-98507200D01*
X180654762Y-98507200D02*
X180559524Y-98411961D01*
X180559524Y-98411961D02*
X180511905Y-98316723D01*
X180511905Y-98316723D02*
X180464286Y-98126247D01*
X180464286Y-98126247D02*
X180464286Y-97983390D01*
X180464286Y-97983390D02*
X180511905Y-97792914D01*
X180511905Y-97792914D02*
X180559524Y-97697676D01*
X180559524Y-97697676D02*
X180654762Y-97602438D01*
X180654762Y-97602438D02*
X180797619Y-97554819D01*
X180797619Y-97554819D02*
X180892857Y-97554819D01*
X180892857Y-97554819D02*
X181035714Y-97602438D01*
X181035714Y-97602438D02*
X181083333Y-97650057D01*
X181988095Y-97554819D02*
X181511905Y-97554819D01*
X181511905Y-97554819D02*
X181464286Y-98031009D01*
X181464286Y-98031009D02*
X181511905Y-97983390D01*
X181511905Y-97983390D02*
X181607143Y-97935771D01*
X181607143Y-97935771D02*
X181845238Y-97935771D01*
X181845238Y-97935771D02*
X181940476Y-97983390D01*
X181940476Y-97983390D02*
X181988095Y-98031009D01*
X181988095Y-98031009D02*
X182035714Y-98126247D01*
X182035714Y-98126247D02*
X182035714Y-98364342D01*
X182035714Y-98364342D02*
X181988095Y-98459580D01*
X181988095Y-98459580D02*
X181940476Y-98507200D01*
X181940476Y-98507200D02*
X181845238Y-98554819D01*
X181845238Y-98554819D02*
X181607143Y-98554819D01*
X181607143Y-98554819D02*
X181511905Y-98507200D01*
X181511905Y-98507200D02*
X181464286Y-98459580D01*
X163554819Y-59016666D02*
X163078628Y-59349999D01*
X163554819Y-59588094D02*
X162554819Y-59588094D01*
X162554819Y-59588094D02*
X162554819Y-59207142D01*
X162554819Y-59207142D02*
X162602438Y-59111904D01*
X162602438Y-59111904D02*
X162650057Y-59064285D01*
X162650057Y-59064285D02*
X162745295Y-59016666D01*
X162745295Y-59016666D02*
X162888152Y-59016666D01*
X162888152Y-59016666D02*
X162983390Y-59064285D01*
X162983390Y-59064285D02*
X163031009Y-59111904D01*
X163031009Y-59111904D02*
X163078628Y-59207142D01*
X163078628Y-59207142D02*
X163078628Y-59588094D01*
X162554819Y-58111904D02*
X162554819Y-58588094D01*
X162554819Y-58588094D02*
X163031009Y-58635713D01*
X163031009Y-58635713D02*
X162983390Y-58588094D01*
X162983390Y-58588094D02*
X162935771Y-58492856D01*
X162935771Y-58492856D02*
X162935771Y-58254761D01*
X162935771Y-58254761D02*
X162983390Y-58159523D01*
X162983390Y-58159523D02*
X163031009Y-58111904D01*
X163031009Y-58111904D02*
X163126247Y-58064285D01*
X163126247Y-58064285D02*
X163364342Y-58064285D01*
X163364342Y-58064285D02*
X163459580Y-58111904D01*
X163459580Y-58111904D02*
X163507200Y-58159523D01*
X163507200Y-58159523D02*
X163554819Y-58254761D01*
X163554819Y-58254761D02*
X163554819Y-58492856D01*
X163554819Y-58492856D02*
X163507200Y-58588094D01*
X163507200Y-58588094D02*
X163459580Y-58635713D01*
X176083333Y-79259580D02*
X176035714Y-79307200D01*
X176035714Y-79307200D02*
X175892857Y-79354819D01*
X175892857Y-79354819D02*
X175797619Y-79354819D01*
X175797619Y-79354819D02*
X175654762Y-79307200D01*
X175654762Y-79307200D02*
X175559524Y-79211961D01*
X175559524Y-79211961D02*
X175511905Y-79116723D01*
X175511905Y-79116723D02*
X175464286Y-78926247D01*
X175464286Y-78926247D02*
X175464286Y-78783390D01*
X175464286Y-78783390D02*
X175511905Y-78592914D01*
X175511905Y-78592914D02*
X175559524Y-78497676D01*
X175559524Y-78497676D02*
X175654762Y-78402438D01*
X175654762Y-78402438D02*
X175797619Y-78354819D01*
X175797619Y-78354819D02*
X175892857Y-78354819D01*
X175892857Y-78354819D02*
X176035714Y-78402438D01*
X176035714Y-78402438D02*
X176083333Y-78450057D01*
X176416667Y-78354819D02*
X177035714Y-78354819D01*
X177035714Y-78354819D02*
X176702381Y-78735771D01*
X176702381Y-78735771D02*
X176845238Y-78735771D01*
X176845238Y-78735771D02*
X176940476Y-78783390D01*
X176940476Y-78783390D02*
X176988095Y-78831009D01*
X176988095Y-78831009D02*
X177035714Y-78926247D01*
X177035714Y-78926247D02*
X177035714Y-79164342D01*
X177035714Y-79164342D02*
X176988095Y-79259580D01*
X176988095Y-79259580D02*
X176940476Y-79307200D01*
X176940476Y-79307200D02*
X176845238Y-79354819D01*
X176845238Y-79354819D02*
X176559524Y-79354819D01*
X176559524Y-79354819D02*
X176464286Y-79307200D01*
X176464286Y-79307200D02*
X176416667Y-79259580D01*
X160833333Y-52124819D02*
X160500000Y-51648628D01*
X160261905Y-52124819D02*
X160261905Y-51124819D01*
X160261905Y-51124819D02*
X160642857Y-51124819D01*
X160642857Y-51124819D02*
X160738095Y-51172438D01*
X160738095Y-51172438D02*
X160785714Y-51220057D01*
X160785714Y-51220057D02*
X160833333Y-51315295D01*
X160833333Y-51315295D02*
X160833333Y-51458152D01*
X160833333Y-51458152D02*
X160785714Y-51553390D01*
X160785714Y-51553390D02*
X160738095Y-51601009D01*
X160738095Y-51601009D02*
X160642857Y-51648628D01*
X160642857Y-51648628D02*
X160261905Y-51648628D01*
X161785714Y-52124819D02*
X161214286Y-52124819D01*
X161500000Y-52124819D02*
X161500000Y-51124819D01*
X161500000Y-51124819D02*
X161404762Y-51267676D01*
X161404762Y-51267676D02*
X161309524Y-51362914D01*
X161309524Y-51362914D02*
X161214286Y-51410533D01*
X183854819Y-108016666D02*
X183378628Y-108349999D01*
X183854819Y-108588094D02*
X182854819Y-108588094D01*
X182854819Y-108588094D02*
X182854819Y-108207142D01*
X182854819Y-108207142D02*
X182902438Y-108111904D01*
X182902438Y-108111904D02*
X182950057Y-108064285D01*
X182950057Y-108064285D02*
X183045295Y-108016666D01*
X183045295Y-108016666D02*
X183188152Y-108016666D01*
X183188152Y-108016666D02*
X183283390Y-108064285D01*
X183283390Y-108064285D02*
X183331009Y-108111904D01*
X183331009Y-108111904D02*
X183378628Y-108207142D01*
X183378628Y-108207142D02*
X183378628Y-108588094D01*
X182854819Y-107683332D02*
X182854819Y-107016666D01*
X182854819Y-107016666D02*
X183854819Y-107445237D01*
X180104761Y-111000057D02*
X180009523Y-110952438D01*
X180009523Y-110952438D02*
X179914285Y-110857200D01*
X179914285Y-110857200D02*
X179771428Y-110714342D01*
X179771428Y-110714342D02*
X179676190Y-110666723D01*
X179676190Y-110666723D02*
X179580952Y-110666723D01*
X179628571Y-110904819D02*
X179533333Y-110857200D01*
X179533333Y-110857200D02*
X179438095Y-110761961D01*
X179438095Y-110761961D02*
X179390476Y-110571485D01*
X179390476Y-110571485D02*
X179390476Y-110238152D01*
X179390476Y-110238152D02*
X179438095Y-110047676D01*
X179438095Y-110047676D02*
X179533333Y-109952438D01*
X179533333Y-109952438D02*
X179628571Y-109904819D01*
X179628571Y-109904819D02*
X179819047Y-109904819D01*
X179819047Y-109904819D02*
X179914285Y-109952438D01*
X179914285Y-109952438D02*
X180009523Y-110047676D01*
X180009523Y-110047676D02*
X180057142Y-110238152D01*
X180057142Y-110238152D02*
X180057142Y-110571485D01*
X180057142Y-110571485D02*
X180009523Y-110761961D01*
X180009523Y-110761961D02*
X179914285Y-110857200D01*
X179914285Y-110857200D02*
X179819047Y-110904819D01*
X179819047Y-110904819D02*
X179628571Y-110904819D01*
X181009523Y-110904819D02*
X180438095Y-110904819D01*
X180723809Y-110904819D02*
X180723809Y-109904819D01*
X180723809Y-109904819D02*
X180628571Y-110047676D01*
X180628571Y-110047676D02*
X180533333Y-110142914D01*
X180533333Y-110142914D02*
X180438095Y-110190533D01*
X163504819Y-56516666D02*
X163028628Y-56849999D01*
X163504819Y-57088094D02*
X162504819Y-57088094D01*
X162504819Y-57088094D02*
X162504819Y-56707142D01*
X162504819Y-56707142D02*
X162552438Y-56611904D01*
X162552438Y-56611904D02*
X162600057Y-56564285D01*
X162600057Y-56564285D02*
X162695295Y-56516666D01*
X162695295Y-56516666D02*
X162838152Y-56516666D01*
X162838152Y-56516666D02*
X162933390Y-56564285D01*
X162933390Y-56564285D02*
X162981009Y-56611904D01*
X162981009Y-56611904D02*
X163028628Y-56707142D01*
X163028628Y-56707142D02*
X163028628Y-57088094D01*
X162504819Y-55659523D02*
X162504819Y-55849999D01*
X162504819Y-55849999D02*
X162552438Y-55945237D01*
X162552438Y-55945237D02*
X162600057Y-55992856D01*
X162600057Y-55992856D02*
X162742914Y-56088094D01*
X162742914Y-56088094D02*
X162933390Y-56135713D01*
X162933390Y-56135713D02*
X163314342Y-56135713D01*
X163314342Y-56135713D02*
X163409580Y-56088094D01*
X163409580Y-56088094D02*
X163457200Y-56040475D01*
X163457200Y-56040475D02*
X163504819Y-55945237D01*
X163504819Y-55945237D02*
X163504819Y-55754761D01*
X163504819Y-55754761D02*
X163457200Y-55659523D01*
X163457200Y-55659523D02*
X163409580Y-55611904D01*
X163409580Y-55611904D02*
X163314342Y-55564285D01*
X163314342Y-55564285D02*
X163076247Y-55564285D01*
X163076247Y-55564285D02*
X162981009Y-55611904D01*
X162981009Y-55611904D02*
X162933390Y-55659523D01*
X162933390Y-55659523D02*
X162885771Y-55754761D01*
X162885771Y-55754761D02*
X162885771Y-55945237D01*
X162885771Y-55945237D02*
X162933390Y-56040475D01*
X162933390Y-56040475D02*
X162981009Y-56088094D01*
X162981009Y-56088094D02*
X163076247Y-56135713D01*
X193009580Y-92466666D02*
X193057200Y-92514285D01*
X193057200Y-92514285D02*
X193104819Y-92657142D01*
X193104819Y-92657142D02*
X193104819Y-92752380D01*
X193104819Y-92752380D02*
X193057200Y-92895237D01*
X193057200Y-92895237D02*
X192961961Y-92990475D01*
X192961961Y-92990475D02*
X192866723Y-93038094D01*
X192866723Y-93038094D02*
X192676247Y-93085713D01*
X192676247Y-93085713D02*
X192533390Y-93085713D01*
X192533390Y-93085713D02*
X192342914Y-93038094D01*
X192342914Y-93038094D02*
X192247676Y-92990475D01*
X192247676Y-92990475D02*
X192152438Y-92895237D01*
X192152438Y-92895237D02*
X192104819Y-92752380D01*
X192104819Y-92752380D02*
X192104819Y-92657142D01*
X192104819Y-92657142D02*
X192152438Y-92514285D01*
X192152438Y-92514285D02*
X192200057Y-92466666D01*
X192200057Y-92085713D02*
X192152438Y-92038094D01*
X192152438Y-92038094D02*
X192104819Y-91942856D01*
X192104819Y-91942856D02*
X192104819Y-91704761D01*
X192104819Y-91704761D02*
X192152438Y-91609523D01*
X192152438Y-91609523D02*
X192200057Y-91561904D01*
X192200057Y-91561904D02*
X192295295Y-91514285D01*
X192295295Y-91514285D02*
X192390533Y-91514285D01*
X192390533Y-91514285D02*
X192533390Y-91561904D01*
X192533390Y-91561904D02*
X193104819Y-92133332D01*
X193104819Y-92133332D02*
X193104819Y-91514285D01*
X167354819Y-74233333D02*
X168069104Y-74233333D01*
X168069104Y-74233333D02*
X168211961Y-74280952D01*
X168211961Y-74280952D02*
X168307200Y-74376190D01*
X168307200Y-74376190D02*
X168354819Y-74519047D01*
X168354819Y-74519047D02*
X168354819Y-74614285D01*
X167354819Y-73852380D02*
X167354819Y-73233333D01*
X167354819Y-73233333D02*
X167735771Y-73566666D01*
X167735771Y-73566666D02*
X167735771Y-73423809D01*
X167735771Y-73423809D02*
X167783390Y-73328571D01*
X167783390Y-73328571D02*
X167831009Y-73280952D01*
X167831009Y-73280952D02*
X167926247Y-73233333D01*
X167926247Y-73233333D02*
X168164342Y-73233333D01*
X168164342Y-73233333D02*
X168259580Y-73280952D01*
X168259580Y-73280952D02*
X168307200Y-73328571D01*
X168307200Y-73328571D02*
X168354819Y-73423809D01*
X168354819Y-73423809D02*
X168354819Y-73709523D01*
X168354819Y-73709523D02*
X168307200Y-73804761D01*
X168307200Y-73804761D02*
X168259580Y-73852380D01*
X167269047Y-107531009D02*
X167411904Y-107578628D01*
X167411904Y-107578628D02*
X167459523Y-107626247D01*
X167459523Y-107626247D02*
X167507142Y-107721485D01*
X167507142Y-107721485D02*
X167507142Y-107864342D01*
X167507142Y-107864342D02*
X167459523Y-107959580D01*
X167459523Y-107959580D02*
X167411904Y-108007200D01*
X167411904Y-108007200D02*
X167316666Y-108054819D01*
X167316666Y-108054819D02*
X166935714Y-108054819D01*
X166935714Y-108054819D02*
X166935714Y-107054819D01*
X166935714Y-107054819D02*
X167269047Y-107054819D01*
X167269047Y-107054819D02*
X167364285Y-107102438D01*
X167364285Y-107102438D02*
X167411904Y-107150057D01*
X167411904Y-107150057D02*
X167459523Y-107245295D01*
X167459523Y-107245295D02*
X167459523Y-107340533D01*
X167459523Y-107340533D02*
X167411904Y-107435771D01*
X167411904Y-107435771D02*
X167364285Y-107483390D01*
X167364285Y-107483390D02*
X167269047Y-107531009D01*
X167269047Y-107531009D02*
X166935714Y-107531009D01*
X167840476Y-107054819D02*
X168507142Y-107054819D01*
X168507142Y-107054819D02*
X167840476Y-108054819D01*
X167840476Y-108054819D02*
X168507142Y-108054819D01*
X169411904Y-108054819D02*
X168840476Y-108054819D01*
X169126190Y-108054819D02*
X169126190Y-107054819D01*
X169126190Y-107054819D02*
X169030952Y-107197676D01*
X169030952Y-107197676D02*
X168935714Y-107292914D01*
X168935714Y-107292914D02*
X168840476Y-107340533D01*
X163959048Y-105133866D02*
X164720953Y-105133866D01*
X164340000Y-105514819D02*
X164340000Y-104752914D01*
X177901905Y-101234819D02*
X177901905Y-100234819D01*
X177901905Y-100234819D02*
X178140000Y-100234819D01*
X178140000Y-100234819D02*
X178282857Y-100282438D01*
X178282857Y-100282438D02*
X178378095Y-100377676D01*
X178378095Y-100377676D02*
X178425714Y-100472914D01*
X178425714Y-100472914D02*
X178473333Y-100663390D01*
X178473333Y-100663390D02*
X178473333Y-100806247D01*
X178473333Y-100806247D02*
X178425714Y-100996723D01*
X178425714Y-100996723D02*
X178378095Y-101091961D01*
X178378095Y-101091961D02*
X178282857Y-101187200D01*
X178282857Y-101187200D02*
X178140000Y-101234819D01*
X178140000Y-101234819D02*
X177901905Y-101234819D01*
X179425714Y-101234819D02*
X178854286Y-101234819D01*
X179140000Y-101234819D02*
X179140000Y-100234819D01*
X179140000Y-100234819D02*
X179044762Y-100377676D01*
X179044762Y-100377676D02*
X178949524Y-100472914D01*
X178949524Y-100472914D02*
X178854286Y-100520533D01*
X174568095Y-101554819D02*
X174568095Y-100554819D01*
X175139523Y-101554819D02*
X174710952Y-100983390D01*
X175139523Y-100554819D02*
X174568095Y-101126247D01*
%TO.C,J7*%
D16*
X171920000Y-96290000D02*
X171920000Y-80940000D01*
X174680000Y-80940000D02*
X171920000Y-80940000D01*
X174680000Y-96290000D02*
X171920000Y-96290000D01*
X174680000Y-96290000D02*
X174680000Y-80940000D01*
X174680000Y-97560000D02*
X174680000Y-98940000D01*
X174680000Y-98940000D02*
X173300000Y-98940000D01*
%TO.C,C4*%
X182748752Y-75940000D02*
X181326248Y-75940000D01*
X182748752Y-77760000D02*
X181326248Y-77760000D01*
%TO.C,C5*%
X178301248Y-97315000D02*
X178823752Y-97315000D01*
X178301248Y-98785000D02*
X178823752Y-98785000D01*
%TO.C,R5*%
X160172936Y-58315000D02*
X160627064Y-58315000D01*
X160172936Y-59785000D02*
X160627064Y-59785000D01*
%TO.C,R9*%
X190965000Y-100127064D02*
X190965000Y-99672936D01*
X192435000Y-100127064D02*
X192435000Y-99672936D01*
%TO.C,C3*%
X177323752Y-76115000D02*
X176801248Y-76115000D01*
X177323752Y-77585000D02*
X176801248Y-77585000D01*
%TO.C,D4*%
X187662500Y-106610000D02*
X190347500Y-106610000D01*
X190347500Y-104690000D02*
X187662500Y-104690000D01*
X190347500Y-106610000D02*
X190347500Y-104690000D01*
%TO.C,R1*%
X160272936Y-52590000D02*
X161727064Y-52590000D01*
X160272936Y-54410000D02*
X161727064Y-54410000D01*
%TO.C,J6*%
X161920000Y-93750000D02*
X161920000Y-83480000D01*
X164680000Y-83480000D02*
X161920000Y-83480000D01*
X164680000Y-93750000D02*
X161920000Y-93750000D01*
X164680000Y-93750000D02*
X164680000Y-83480000D01*
X164680000Y-95020000D02*
X164680000Y-96400000D01*
X164680000Y-96400000D02*
X163300000Y-96400000D01*
%TO.C,R7*%
X181015000Y-107622936D02*
X181015000Y-108077064D01*
X182485000Y-107622936D02*
X182485000Y-108077064D01*
%TO.C,R4*%
X158640000Y-87027064D02*
X158640000Y-85572936D01*
X160460000Y-87027064D02*
X160460000Y-85572936D01*
%TO.C,Q1*%
X179700000Y-105080000D02*
X176100000Y-105080000D01*
X177900000Y-109530000D02*
G75*
G02*
X176061522Y-105091522I0J2600000D01*
G01*
X179738478Y-105091522D02*
G75*
G02*
X177900000Y-109530001I-1838478J-1838478D01*
G01*
%TO.C,J4*%
X187727712Y-80512850D02*
X189107712Y-80512850D01*
X187727712Y-81892850D02*
X187727712Y-80512850D01*
X187727712Y-83162850D02*
X187727712Y-95972850D01*
X187727712Y-83162850D02*
X190487712Y-83162850D01*
X187727712Y-95972850D02*
X190487712Y-95972850D01*
X190487712Y-83162850D02*
X190487712Y-95972850D01*
%TO.C,J2*%
X155120000Y-47840000D02*
X156500000Y-47840000D01*
X155120000Y-49220000D02*
X155120000Y-47840000D01*
X155120000Y-50490000D02*
X155120000Y-111560000D01*
X155120000Y-50490000D02*
X157880000Y-50490000D01*
X155120000Y-111560000D02*
X157880000Y-111560000D01*
X157880000Y-50490000D02*
X157880000Y-111560000D01*
%TO.C,R6*%
X160172936Y-55665000D02*
X160627064Y-55665000D01*
X160172936Y-57135000D02*
X160627064Y-57135000D01*
%TO.C,C2*%
X191865000Y-89051248D02*
X191865000Y-89573752D01*
X193335000Y-89051248D02*
X193335000Y-89573752D01*
%TO.C,R3*%
X158640000Y-92077064D02*
X158640000Y-90622936D01*
X160460000Y-92077064D02*
X160460000Y-90622936D01*
%TO.C,R2*%
X158640000Y-95622936D02*
X158640000Y-97077064D01*
X160460000Y-95622936D02*
X160460000Y-97077064D01*
%TO.C,J3*%
X168900000Y-75280000D02*
X168900000Y-73900000D01*
X170280000Y-75280000D02*
X168900000Y-75280000D01*
X171550000Y-72520000D02*
X186900000Y-72520000D01*
X171550000Y-75280000D02*
X171550000Y-72520000D01*
X171550000Y-75280000D02*
X186900000Y-75280000D01*
X186900000Y-75280000D02*
X186900000Y-72520000D01*
%TO.C,J11*%
X151080000Y-35330000D02*
X161820000Y-35330000D01*
X151080000Y-38950000D02*
X152320000Y-38950000D01*
X151080000Y-39950000D02*
X152320000Y-39950000D01*
X151080000Y-41250000D02*
X152320000Y-41250000D01*
X151080000Y-43370000D02*
X151080000Y-35330000D01*
X153900000Y-43370000D02*
X151080000Y-43370000D01*
X156080000Y-38950000D02*
X157388000Y-38950000D01*
X156080000Y-39950000D02*
X157388000Y-39950000D01*
X156080000Y-41250000D02*
X158657000Y-41250000D01*
X159743000Y-41250000D02*
X161820000Y-41250000D01*
X161012000Y-38950000D02*
X161820000Y-38950000D01*
X161012000Y-39950000D02*
X161820000Y-39950000D01*
X161820000Y-35330000D02*
X161820000Y-43370000D01*
X161820000Y-43370000D02*
X154500000Y-43370000D01*
X154640000Y-43980000D02*
X153760000Y-43980000D01*
X154200000Y-43370000D01*
X154640000Y-43980000D01*
G36*
X154640000Y-43980000D02*
G01*
X153760000Y-43980000D01*
X154200000Y-43370000D01*
X154640000Y-43980000D01*
G37*
%TO.C,C1*%
X130862500Y-37552500D02*
X131650000Y-37552500D01*
X131256250Y-37158750D02*
X131256250Y-37946250D01*
X131890000Y-37054437D02*
X131890000Y-38340000D01*
X131890000Y-37054437D02*
X132954437Y-35990000D01*
X131890000Y-41745563D02*
X131890000Y-40460000D01*
X131890000Y-41745563D02*
X132954437Y-42810000D01*
X132954437Y-35990000D02*
X138710000Y-35990000D01*
X132954437Y-42810000D02*
X138710000Y-42810000D01*
X138710000Y-35990000D02*
X138710000Y-38340000D01*
X138710000Y-42810000D02*
X138710000Y-40460000D01*
%TO.C,J1*%
X129620000Y-47840000D02*
X131000000Y-47840000D01*
X129620000Y-49220000D02*
X129620000Y-47840000D01*
X129620000Y-50490000D02*
X129620000Y-111560000D01*
X129620000Y-50490000D02*
X132380000Y-50490000D01*
X129620000Y-111560000D02*
X132380000Y-111560000D01*
X132380000Y-50490000D02*
X132380000Y-111560000D01*
%TO.C,BZ1*%
X174250000Y-107600000D02*
G75*
G02*
X162050000Y-107600000I-6100000J0D01*
G01*
X162050000Y-107600000D02*
G75*
G02*
X174250000Y-107600000I6100000J0D01*
G01*
%TO.C,R10*%
X190965000Y-104977064D02*
X190965000Y-104522936D01*
X192435000Y-104977064D02*
X192435000Y-104522936D01*
%TO.C,J5*%
X177327712Y-80512850D02*
X178707712Y-80512850D01*
X177327712Y-81892850D02*
X177327712Y-80512850D01*
X177327712Y-83162850D02*
X177327712Y-95972850D01*
X177327712Y-83162850D02*
X180087712Y-83162850D01*
X177327712Y-95972850D02*
X180087712Y-95972850D01*
X180087712Y-83162850D02*
X180087712Y-95972850D01*
%TO.C,D3*%
X187662500Y-104360000D02*
X190347500Y-104360000D01*
X190347500Y-102440000D02*
X187662500Y-102440000D01*
X190347500Y-104360000D02*
X190347500Y-102440000D01*
%TO.C,D2*%
X187662500Y-102110000D02*
X190347500Y-102110000D01*
X190347500Y-100190000D02*
X187662500Y-100190000D01*
X190347500Y-102110000D02*
X190347500Y-100190000D01*
%TO.C,D1*%
X175870000Y-102900000D02*
X176520000Y-102900000D01*
X177120000Y-101780000D02*
X177120000Y-104020000D01*
X177240000Y-101780000D02*
X177240000Y-104020000D01*
X177360000Y-101780000D02*
X177360000Y-104020000D01*
X181410000Y-102900000D02*
X180760000Y-102900000D01*
X176520000Y-101780000D02*
X180760000Y-101780000D01*
X180760000Y-104020000D01*
X176520000Y-104020000D01*
X176520000Y-101780000D01*
%TO.C,R8*%
X188877064Y-98015000D02*
X188422936Y-98015000D01*
X188877064Y-99485000D02*
X188422936Y-99485000D01*
%TD*%
%LPC*%
D17*
%TO.C,J7*%
X173300000Y-97560000D03*
D18*
X173300000Y-95020000D03*
X173300000Y-92480000D03*
X173300000Y-89940000D03*
X173300000Y-87400000D03*
X173300000Y-84860000D03*
X173300000Y-82320000D03*
%TD*%
D19*
%TO.C,H1*%
X189550000Y-73200000D03*
%TD*%
%TO.C,H3*%
X166250000Y-73200000D03*
%TD*%
D20*
%TO.C,C4*%
X183600000Y-76850000D03*
X180475000Y-76850000D03*
%TD*%
D21*
%TO.C,C5*%
X177525000Y-98050000D03*
X179600000Y-98050000D03*
%TD*%
D22*
%TO.C,R5*%
X159400000Y-59050000D03*
X161400000Y-59050000D03*
%TD*%
D19*
%TO.C,H6*%
X145200000Y-37900000D03*
%TD*%
D23*
%TO.C,R9*%
X191700000Y-100900000D03*
X191700000Y-98900000D03*
%TD*%
D24*
%TO.C,C3*%
X178100000Y-76850000D03*
X176025000Y-76850000D03*
%TD*%
D25*
%TO.C,D4*%
X189600000Y-105650000D03*
X187725000Y-105650000D03*
%TD*%
D26*
%TO.C,R1*%
X159450000Y-53500000D03*
X162550000Y-53500000D03*
%TD*%
D17*
%TO.C,J6*%
X163300000Y-95020000D03*
D18*
X163300000Y-92480000D03*
X163300000Y-89940000D03*
X163300000Y-87400000D03*
X163300000Y-84860000D03*
%TD*%
D27*
%TO.C,R7*%
X181750000Y-106850000D03*
X181750000Y-108850000D03*
%TD*%
D28*
%TO.C,R4*%
X159550000Y-87850000D03*
X159550000Y-84750000D03*
%TD*%
D29*
%TO.C,Q1*%
X179170000Y-106930000D03*
D30*
X177900000Y-108200000D03*
X176630000Y-106930000D03*
%TD*%
D17*
%TO.C,J4*%
X189107712Y-81892850D03*
D18*
X189107712Y-84432850D03*
X189107712Y-86972850D03*
X189107712Y-89512850D03*
X189107712Y-92052850D03*
X189107712Y-94592850D03*
%TD*%
D17*
%TO.C,J2*%
X156500000Y-49220000D03*
D18*
X156500000Y-51760000D03*
X156500000Y-54300000D03*
X156500000Y-56840000D03*
X156500000Y-59380000D03*
X156500000Y-61920000D03*
X156500000Y-64460000D03*
X156500000Y-67000000D03*
X156500000Y-69540000D03*
X156500000Y-72080000D03*
X156500000Y-74620000D03*
X156500000Y-77160000D03*
X156500000Y-79700000D03*
X156500000Y-82240000D03*
X156500000Y-84780000D03*
X156500000Y-87320000D03*
X156500000Y-89860000D03*
X156500000Y-92400000D03*
X156500000Y-94940000D03*
X156500000Y-97480000D03*
X156500000Y-100020000D03*
X156500000Y-102560000D03*
X156500000Y-105100000D03*
X156500000Y-107640000D03*
X156500000Y-110180000D03*
%TD*%
D22*
%TO.C,R6*%
X159400000Y-56400000D03*
X161400000Y-56400000D03*
%TD*%
D31*
%TO.C,C2*%
X192600000Y-88275000D03*
X192600000Y-90350000D03*
%TD*%
D19*
%TO.C,H6*%
X145200000Y-110500000D03*
%TD*%
D28*
%TO.C,R3*%
X159550000Y-92900000D03*
X159550000Y-89800000D03*
%TD*%
D32*
%TO.C,R2*%
X159550000Y-94800000D03*
X159550000Y-97900000D03*
%TD*%
D17*
%TO.C,J3*%
X170280000Y-73900000D03*
D18*
X172820000Y-73900000D03*
X175360000Y-73900000D03*
X177900000Y-73900000D03*
X180440000Y-73900000D03*
X182980000Y-73900000D03*
X185520000Y-73900000D03*
%TD*%
D19*
%TO.C,H2*%
X166250000Y-37900000D03*
%TD*%
D33*
%TO.C,J11*%
X154200000Y-39450000D03*
D34*
X159200000Y-39450000D03*
%TD*%
D35*
%TO.C,C1*%
X132500000Y-39400000D03*
X138100000Y-39400000D03*
%TD*%
D19*
%TO.C,H4*%
X189550000Y-37792941D03*
%TD*%
D17*
%TO.C,J1*%
X131000000Y-49220000D03*
D18*
X131000000Y-51760000D03*
X131000000Y-54300000D03*
X131000000Y-56840000D03*
X131000000Y-59380000D03*
X131000000Y-61920000D03*
X131000000Y-64460000D03*
X131000000Y-67000000D03*
X131000000Y-69540000D03*
X131000000Y-72080000D03*
X131000000Y-74620000D03*
X131000000Y-77160000D03*
X131000000Y-79700000D03*
X131000000Y-82240000D03*
X131000000Y-84780000D03*
X131000000Y-87320000D03*
X131000000Y-89860000D03*
X131000000Y-92400000D03*
X131000000Y-94940000D03*
X131000000Y-97480000D03*
X131000000Y-100020000D03*
X131000000Y-102560000D03*
X131000000Y-105100000D03*
X131000000Y-107640000D03*
X131000000Y-110180000D03*
%TD*%
D36*
%TO.C,BZ1*%
X164350000Y-107600000D03*
D37*
X171950000Y-107600000D03*
%TD*%
D23*
%TO.C,R10*%
X191700000Y-105750000D03*
X191700000Y-103750000D03*
%TD*%
D17*
%TO.C,J5*%
X178707712Y-81892850D03*
D18*
X178707712Y-84432850D03*
X178707712Y-86972850D03*
X178707712Y-89512850D03*
X178707712Y-92052850D03*
X178707712Y-94592850D03*
%TD*%
D25*
%TO.C,D3*%
X189600000Y-103400000D03*
X187725000Y-103400000D03*
%TD*%
D19*
%TO.C,H5*%
X189500000Y-110500000D03*
%TD*%
D25*
%TO.C,D2*%
X189600000Y-101150000D03*
X187725000Y-101150000D03*
%TD*%
D38*
%TO.C,D1*%
X174830000Y-102900000D03*
D39*
X182450000Y-102900000D03*
%TD*%
D40*
%TO.C,R8*%
X189650000Y-98750000D03*
X187650000Y-98750000D03*
%TD*%
%LPD*%
M02*
