%TF.GenerationSoftware,KiCad,Pcbnew,10.0.0*%
%TF.CreationDate,2026-05-30T12:33:43+07:00*%
%TF.ProjectId,v2v-proto,7632762d-7072-46f7-946f-2e6b69636164,rev?*%
%TF.SameCoordinates,Original*%
%TF.FileFunction,Copper,L1,Top*%
%TF.FilePolarity,Positive*%
%FSLAX46Y46*%
G04 Gerber Fmt 4.6, Leading zero omitted, Abs format (unit mm)*
G04 Created by KiCad (PCBNEW 10.0.0) date 2026-05-30 12:33:43*
%MOMM*%
%LPD*%
G01*
G04 APERTURE LIST*
G04 Aperture macros list*
%AMRoundRect*
0 Rectangle with rounded corners*
0 $1 Rounding radius*
0 $2 $3 $4 $5 $6 $7 $8 $9 X,Y pos of 4 corners*
0 Add a 4 corners polygon primitive as box body*
4,1,4,$2,$3,$4,$5,$6,$7,$8,$9,$2,$3,0*
0 Add four circle primitives for the rounded corners*
1,1,$1+$1,$2,$3*
1,1,$1+$1,$4,$5*
1,1,$1+$1,$6,$7*
1,1,$1+$1,$8,$9*
0 Add four rect primitives between the rounded corners*
20,1,$1+$1,$2,$3,$4,$5,0*
20,1,$1+$1,$4,$5,$6,$7,0*
20,1,$1+$1,$6,$7,$8,$9,0*
20,1,$1+$1,$8,$9,$2,$3,0*%
G04 Aperture macros list end*
%TA.AperFunction,ComponentPad*%
%ADD10R,1.700000X1.700000*%
%TD*%
%TA.AperFunction,ComponentPad*%
%ADD11C,1.700000*%
%TD*%
%TA.AperFunction,SMDPad,CuDef*%
%ADD12RoundRect,0.250000X0.412500X0.650000X-0.412500X0.650000X-0.412500X-0.650000X0.412500X-0.650000X0*%
%TD*%
%TA.AperFunction,SMDPad,CuDef*%
%ADD13RoundRect,0.250000X-0.337500X-0.475000X0.337500X-0.475000X0.337500X0.475000X-0.337500X0.475000X0*%
%TD*%
%TA.AperFunction,SMDPad,CuDef*%
%ADD14RoundRect,0.250000X-0.350000X-0.450000X0.350000X-0.450000X0.350000X0.450000X-0.350000X0.450000X0*%
%TD*%
%TA.AperFunction,SMDPad,CuDef*%
%ADD15RoundRect,0.250000X0.450000X-0.350000X0.450000X0.350000X-0.450000X0.350000X-0.450000X-0.350000X0*%
%TD*%
%TA.AperFunction,SMDPad,CuDef*%
%ADD16RoundRect,0.250000X0.337500X0.475000X-0.337500X0.475000X-0.337500X-0.475000X0.337500X-0.475000X0*%
%TD*%
%TA.AperFunction,SMDPad,CuDef*%
%ADD17RoundRect,0.243750X0.243750X0.456250X-0.243750X0.456250X-0.243750X-0.456250X0.243750X-0.456250X0*%
%TD*%
%TA.AperFunction,SMDPad,CuDef*%
%ADD18RoundRect,0.250000X-0.400000X-0.625000X0.400000X-0.625000X0.400000X0.625000X-0.400000X0.625000X0*%
%TD*%
%TA.AperFunction,SMDPad,CuDef*%
%ADD19RoundRect,0.250000X-0.450000X0.350000X-0.450000X-0.350000X0.450000X-0.350000X0.450000X0.350000X0*%
%TD*%
%TA.AperFunction,SMDPad,CuDef*%
%ADD20RoundRect,0.250000X0.625000X-0.400000X0.625000X0.400000X-0.625000X0.400000X-0.625000X-0.400000X0*%
%TD*%
%TA.AperFunction,ComponentPad*%
%ADD21R,1.300000X1.300000*%
%TD*%
%TA.AperFunction,ComponentPad*%
%ADD22C,1.300000*%
%TD*%
%TA.AperFunction,SMDPad,CuDef*%
%ADD23RoundRect,0.250000X-0.475000X0.337500X-0.475000X-0.337500X0.475000X-0.337500X0.475000X0.337500X0*%
%TD*%
%TA.AperFunction,SMDPad,CuDef*%
%ADD24RoundRect,0.250000X-0.625000X0.400000X-0.625000X-0.400000X0.625000X-0.400000X0.625000X0.400000X0*%
%TD*%
%TA.AperFunction,ComponentPad*%
%ADD25RoundRect,0.250001X-1.149999X-1.149999X1.149999X-1.149999X1.149999X1.149999X-1.149999X1.149999X0*%
%TD*%
%TA.AperFunction,ComponentPad*%
%ADD26C,2.800000*%
%TD*%
%TA.AperFunction,SMDPad,CuDef*%
%ADD27RoundRect,0.250000X-1.500000X-0.550000X1.500000X-0.550000X1.500000X0.550000X-1.500000X0.550000X0*%
%TD*%
%TA.AperFunction,ComponentPad*%
%ADD28R,2.000000X2.000000*%
%TD*%
%TA.AperFunction,ComponentPad*%
%ADD29C,2.000000*%
%TD*%
%TA.AperFunction,ComponentPad*%
%ADD30RoundRect,0.250000X-0.550000X-0.550000X0.550000X-0.550000X0.550000X0.550000X-0.550000X0.550000X0*%
%TD*%
%TA.AperFunction,ComponentPad*%
%ADD31C,1.600000*%
%TD*%
%TA.AperFunction,SMDPad,CuDef*%
%ADD32RoundRect,0.250000X0.350000X0.450000X-0.350000X0.450000X-0.350000X-0.450000X0.350000X-0.450000X0*%
%TD*%
%TA.AperFunction,Conductor*%
%ADD33C,0.500000*%
%TD*%
%TA.AperFunction,Conductor*%
%ADD34C,1.000000*%
%TD*%
%TA.AperFunction,Conductor*%
%ADD35C,0.300000*%
%TD*%
G04 APERTURE END LIST*
D10*
%TO.P,J7,1,Pin_1_1*%
%TO.N,unconnected-(J7-Pin_1-Pad1)*%
X173300000Y-97560000D03*
D11*
%TO.P,J7,2,Pin_2_2*%
%TO.N,+3V3*%
X173300000Y-95020000D03*
%TO.P,J7,3,Pin_3_3*%
%TO.N,GND*%
X173300000Y-92480000D03*
%TO.P,J7,4,Pin_4_4*%
%TO.N,/SCK_3v3*%
X173300000Y-89940000D03*
%TO.P,J7,5,Pin_5_5*%
%TO.N,/SI_3v3*%
X173300000Y-87400000D03*
%TO.P,J7,6,Pin_6_6*%
%TO.N,/CS1*%
X173300000Y-84860000D03*
%TO.P,J7,7,Pin_7_7*%
%TO.N,/SO_3v3*%
X173300000Y-82320000D03*
%TD*%
D12*
%TO.P,C4,1*%
%TO.N,+5V*%
X183600000Y-76850000D03*
%TO.P,C4,2*%
%TO.N,GND*%
X180475000Y-76850000D03*
%TD*%
D13*
%TO.P,C5,1*%
%TO.N,+3V3*%
X177525000Y-98050000D03*
%TO.P,C5,2*%
%TO.N,GND*%
X179600000Y-98050000D03*
%TD*%
D14*
%TO.P,R5,1*%
%TO.N,/CS1*%
X159400000Y-59050000D03*
%TO.P,R5,2*%
%TO.N,+3V3*%
X161400000Y-59050000D03*
%TD*%
D15*
%TO.P,R9,1*%
%TO.N,Net-(D3-K)*%
X191700000Y-100900000D03*
%TO.P,R9,2*%
%TO.N,GND*%
X191700000Y-98900000D03*
%TD*%
D16*
%TO.P,C3,1*%
%TO.N,+3V3*%
X178100000Y-76850000D03*
%TO.P,C3,2*%
%TO.N,GND*%
X176025000Y-76850000D03*
%TD*%
D17*
%TO.P,D4,1,K_1*%
%TO.N,Net-(D4-K)*%
X189600000Y-105650000D03*
%TO.P,D4,2,A_2*%
%TO.N,/LED1*%
X187725000Y-105650000D03*
%TD*%
D18*
%TO.P,R1,1*%
%TO.N,/INT_3v3_R*%
X159450000Y-53500000D03*
%TO.P,R1,2*%
%TO.N,/INT_3v3*%
X162550000Y-53500000D03*
%TD*%
D10*
%TO.P,J6,1,Pin_1_1*%
%TO.N,unconnected-(J6-Pin_1-Pad1)*%
X163300000Y-95020000D03*
D11*
%TO.P,J6,2,Pin_2_2*%
%TO.N,unconnected-(J6-Pin_2-Pad2)*%
X163300000Y-92480000D03*
%TO.P,J6,3,Pin_3_3*%
%TO.N,unconnected-(J6-Pin_3-Pad3)*%
X163300000Y-89940000D03*
%TO.P,J6,4,Pin_4_4*%
%TO.N,unconnected-(J6-Pin_4-Pad4)*%
X163300000Y-87400000D03*
%TO.P,J6,5,Pin_5_5*%
%TO.N,unconnected-(J6-Pin_5-Pad5)*%
X163300000Y-84860000D03*
%TD*%
D19*
%TO.P,R7,1*%
%TO.N,Net-(Q1-B)*%
X181750000Y-106850000D03*
%TO.P,R7,2*%
%TO.N,/Buzzer*%
X181750000Y-108850000D03*
%TD*%
D20*
%TO.P,R4,1*%
%TO.N,/SO_3v3_R*%
X159550000Y-87850000D03*
%TO.P,R4,2*%
%TO.N,/SO_3v3*%
X159550000Y-84750000D03*
%TD*%
D21*
%TO.P,Q1,1,C_1*%
%TO.N,Net-(BZ1--)*%
X179170000Y-106930000D03*
D22*
%TO.P,Q1,2,B_2*%
%TO.N,Net-(Q1-B)*%
X177900000Y-108200000D03*
%TO.P,Q1,3,E_3*%
%TO.N,GND*%
X176630000Y-106930000D03*
%TD*%
D10*
%TO.P,J4,1,Pin_1_1*%
%TO.N,/INT*%
X189107712Y-81892850D03*
D11*
%TO.P,J4,2,Pin_2_2*%
%TO.N,/SCK*%
X189107712Y-84432850D03*
%TO.P,J4,3,Pin_3_3*%
%TO.N,+5V*%
X189107712Y-86972850D03*
%TO.P,J4,4,Pin_4_4*%
%TO.N,GND*%
X189107712Y-89512850D03*
%TO.P,J4,5,Pin_5_5*%
%TO.N,/SI*%
X189107712Y-92052850D03*
%TO.P,J4,6,Pin_6_6*%
%TO.N,/SO*%
X189107712Y-94592850D03*
%TD*%
D10*
%TO.P,J2,1,Pin_1_1*%
%TO.N,unconnected-(J2-Pin_1-Pad1)*%
X156500000Y-49220000D03*
D11*
%TO.P,J2,2,Pin_2_2*%
%TO.N,/LED1*%
X156500000Y-51760000D03*
%TO.P,J2,3,Pin_3_3*%
%TO.N,/INT_3v3_R*%
X156500000Y-54300000D03*
%TO.P,J2,4,Pin_4_4*%
%TO.N,/CS0*%
X156500000Y-56840000D03*
%TO.P,J2,5,Pin_5_5*%
%TO.N,/CS1*%
X156500000Y-59380000D03*
%TO.P,J2,6,Pin_6_6*%
%TO.N,/LED2*%
X156500000Y-61920000D03*
%TO.P,J2,7,Pin_7_7*%
%TO.N,/LED3*%
X156500000Y-64460000D03*
%TO.P,J2,8,Pin_8_8*%
%TO.N,/Buzzer*%
X156500000Y-67000000D03*
%TO.P,J2,9,Pin_9_9*%
%TO.N,unconnected-(J2-Pin_9-Pad9)*%
X156500000Y-69540000D03*
%TO.P,J2,10,Pin_10_10*%
%TO.N,unconnected-(J2-Pin_10-Pad10)*%
X156500000Y-72080000D03*
%TO.P,J2,11,Pin_11_11*%
%TO.N,unconnected-(J2-Pin_11-Pad11)*%
X156500000Y-74620000D03*
%TO.P,J2,12,Pin_12_12*%
%TO.N,unconnected-(J2-Pin_12-Pad12)*%
X156500000Y-77160000D03*
%TO.P,J2,13,Pin_13_13*%
%TO.N,unconnected-(J2-Pin_13-Pad13)*%
X156500000Y-79700000D03*
%TO.P,J2,14,Pin_14_14*%
%TO.N,unconnected-(J2-Pin_14-Pad14)*%
X156500000Y-82240000D03*
%TO.P,J2,15,Pin_15_15*%
%TO.N,unconnected-(J2-Pin_15-Pad15)*%
X156500000Y-84780000D03*
%TO.P,J2,16,Pin_16_16*%
%TO.N,unconnected-(J2-Pin_16-Pad16)*%
X156500000Y-87320000D03*
%TO.P,J2,17,Pin_17_17*%
%TO.N,/SO_3v3_R*%
X156500000Y-89860000D03*
%TO.P,J2,18,Pin_18_18*%
%TO.N,/SI_3v3_R*%
X156500000Y-92400000D03*
%TO.P,J2,19,Pin_19_19*%
%TO.N,/SCK_3v3_R*%
X156500000Y-94940000D03*
%TO.P,J2,20,Pin_20_20*%
%TO.N,unconnected-(J2-Pin_20-Pad20)*%
X156500000Y-97480000D03*
%TO.P,J2,21,Pin_21_21*%
%TO.N,unconnected-(J2-Pin_21-Pad21)*%
X156500000Y-100020000D03*
%TO.P,J2,22,Pin_22_22*%
%TO.N,unconnected-(J2-Pin_22-Pad22)*%
X156500000Y-102560000D03*
%TO.P,J2,23,Pin_23_23*%
%TO.N,unconnected-(J2-Pin_23-Pad23)*%
X156500000Y-105100000D03*
%TO.P,J2,24,Pin_24_24*%
%TO.N,unconnected-(J2-Pin_24-Pad24)*%
X156500000Y-107640000D03*
%TO.P,J2,25,Pin_25_25*%
%TO.N,unconnected-(J2-Pin_25-Pad25)*%
X156500000Y-110180000D03*
%TD*%
D14*
%TO.P,R6,1*%
%TO.N,/CS0*%
X159400000Y-56400000D03*
%TO.P,R6,2*%
%TO.N,+3V3*%
X161400000Y-56400000D03*
%TD*%
D23*
%TO.P,C2,1*%
%TO.N,+5V*%
X192600000Y-88275000D03*
%TO.P,C2,2*%
%TO.N,GND*%
X192600000Y-90350000D03*
%TD*%
D20*
%TO.P,R3,1*%
%TO.N,/SI_3v3_R*%
X159550000Y-92900000D03*
%TO.P,R3,2*%
%TO.N,/SI_3v3*%
X159550000Y-89800000D03*
%TD*%
D24*
%TO.P,R2,1*%
%TO.N,/SCK_3v3_R*%
X159550000Y-94800000D03*
%TO.P,R2,2*%
%TO.N,/SCK_3v3*%
X159550000Y-97900000D03*
%TD*%
D10*
%TO.P,J3,1,Pin_1_1*%
%TO.N,/INT*%
X170280000Y-73900000D03*
D11*
%TO.P,J3,2,Pin_2_2*%
%TO.N,/SCK*%
X172820000Y-73900000D03*
%TO.P,J3,3,Pin_3_3*%
%TO.N,/SI*%
X175360000Y-73900000D03*
%TO.P,J3,4,Pin_4_4*%
%TO.N,/SO*%
X177900000Y-73900000D03*
%TO.P,J3,5,Pin_5_5*%
%TO.N,/CS0*%
X180440000Y-73900000D03*
%TO.P,J3,6,Pin_6_6*%
%TO.N,GND*%
X182980000Y-73900000D03*
%TO.P,J3,7,Pin_7_7*%
%TO.N,+5V*%
X185520000Y-73900000D03*
%TD*%
D25*
%TO.P,J11,1,Pin_1_1*%
%TO.N,GND*%
X154200000Y-39450000D03*
D26*
%TO.P,J11,2,Pin_2_2*%
%TO.N,+5V*%
X159200000Y-39450000D03*
%TD*%
D27*
%TO.P,C1,1*%
%TO.N,+5V*%
X132500000Y-39400000D03*
%TO.P,C1,2*%
%TO.N,GND*%
X138100000Y-39400000D03*
%TD*%
D10*
%TO.P,J1,1,Pin_1_1*%
%TO.N,+5V*%
X131000000Y-49220000D03*
D11*
%TO.P,J1,2,Pin_2_2*%
%TO.N,GND*%
X131000000Y-51760000D03*
%TO.P,J1,3,Pin_3_3*%
%TO.N,+3V3*%
X131000000Y-54300000D03*
%TO.P,J1,4,Pin_4_4*%
%TO.N,GND*%
X131000000Y-56840000D03*
%TO.P,J1,5,Pin_5_5*%
%TO.N,+3V3*%
X131000000Y-59380000D03*
%TO.P,J1,6,Pin_6_6*%
%TO.N,GND*%
X131000000Y-61920000D03*
%TO.P,J1,7,Pin_7_7*%
%TO.N,unconnected-(J1-Pin_7-Pad7)*%
X131000000Y-64460000D03*
%TO.P,J1,8,Pin_8_8*%
%TO.N,unconnected-(J1-Pin_8-Pad8)*%
X131000000Y-67000000D03*
%TO.P,J1,9,Pin_9_9*%
%TO.N,unconnected-(J1-Pin_9-Pad9)*%
X131000000Y-69540000D03*
%TO.P,J1,10,Pin_10_10*%
%TO.N,unconnected-(J1-Pin_10-Pad10)*%
X131000000Y-72080000D03*
%TO.P,J1,11,Pin_11_11*%
%TO.N,unconnected-(J1-Pin_11-Pad11)*%
X131000000Y-74620000D03*
%TO.P,J1,12,Pin_12_12*%
%TO.N,unconnected-(J1-Pin_12-Pad12)*%
X131000000Y-77160000D03*
%TO.P,J1,13,Pin_13_13*%
%TO.N,unconnected-(J1-Pin_13-Pad13)*%
X131000000Y-79700000D03*
%TO.P,J1,14,Pin_14_14*%
%TO.N,unconnected-(J1-Pin_14-Pad14)*%
X131000000Y-82240000D03*
%TO.P,J1,15,Pin_15_15*%
%TO.N,unconnected-(J1-Pin_15-Pad15)*%
X131000000Y-84780000D03*
%TO.P,J1,16,Pin_16_16*%
%TO.N,unconnected-(J1-Pin_16-Pad16)*%
X131000000Y-87320000D03*
%TO.P,J1,17,Pin_17_17*%
%TO.N,unconnected-(J1-Pin_17-Pad17)*%
X131000000Y-89860000D03*
%TO.P,J1,18,Pin_18_18*%
%TO.N,unconnected-(J1-Pin_18-Pad18)*%
X131000000Y-92400000D03*
%TO.P,J1,19,Pin_19_19*%
%TO.N,unconnected-(J1-Pin_19-Pad19)*%
X131000000Y-94940000D03*
%TO.P,J1,20,Pin_20_20*%
%TO.N,unconnected-(J1-Pin_20-Pad20)*%
X131000000Y-97480000D03*
%TO.P,J1,21,Pin_21_21*%
%TO.N,unconnected-(J1-Pin_21-Pad21)*%
X131000000Y-100020000D03*
%TO.P,J1,22,Pin_22_22*%
%TO.N,unconnected-(J1-Pin_22-Pad22)*%
X131000000Y-102560000D03*
%TO.P,J1,23,Pin_23_23*%
%TO.N,unconnected-(J1-Pin_23-Pad23)*%
X131000000Y-105100000D03*
%TO.P,J1,24,Pin_24_24*%
%TO.N,unconnected-(J1-Pin_24-Pad24)*%
X131000000Y-107640000D03*
%TO.P,J1,25,Pin_25_25*%
%TO.N,unconnected-(J1-Pin_25-Pad25)*%
X131000000Y-110180000D03*
%TD*%
D28*
%TO.P,BZ1,1,+_1*%
%TO.N,+5V*%
X164350000Y-107600000D03*
D29*
%TO.P,BZ1,2,-_2*%
%TO.N,Net-(BZ1--)*%
X171950000Y-107600000D03*
%TD*%
D15*
%TO.P,R10,1*%
%TO.N,Net-(D4-K)*%
X191700000Y-105750000D03*
%TO.P,R10,2*%
%TO.N,GND*%
X191700000Y-103750000D03*
%TD*%
D10*
%TO.P,J5,1,Pin_1_1*%
%TO.N,/INT_3v3*%
X178707712Y-81892850D03*
D11*
%TO.P,J5,2,Pin_2_2*%
%TO.N,/SCK_3v3*%
X178707712Y-84432850D03*
%TO.P,J5,3,Pin_3_3*%
%TO.N,+3V3*%
X178707712Y-86972850D03*
%TO.P,J5,4,Pin_4_4*%
%TO.N,GND*%
X178707712Y-89512850D03*
%TO.P,J5,5,Pin_5_5*%
%TO.N,/SI_3v3*%
X178707712Y-92052850D03*
%TO.P,J5,6,Pin_6_6*%
%TO.N,/SO_3v3*%
X178707712Y-94592850D03*
%TD*%
D17*
%TO.P,D3,1,K_1*%
%TO.N,Net-(D3-K)*%
X189600000Y-103400000D03*
%TO.P,D3,2,A_2*%
%TO.N,/LED2*%
X187725000Y-103400000D03*
%TD*%
%TO.P,D2,1,K_1*%
%TO.N,Net-(D2-K)*%
X189600000Y-101150000D03*
%TO.P,D2,2,A_2*%
%TO.N,/LED3*%
X187725000Y-101150000D03*
%TD*%
D30*
%TO.P,D1,1,K_1*%
%TO.N,+5V*%
X174830000Y-102900000D03*
D31*
%TO.P,D1,2,A_2*%
%TO.N,Net-(BZ1--)*%
X182450000Y-102900000D03*
%TD*%
D32*
%TO.P,R8,1*%
%TO.N,Net-(D2-K)*%
X189650000Y-98750000D03*
%TO.P,R8,2*%
%TO.N,GND*%
X187650000Y-98750000D03*
%TD*%
%TO.N,+3V3*%
D33*
X180550000Y-80150000D02*
X180550000Y-84900000D01*
X166350000Y-80450000D02*
X161400000Y-75500000D01*
D34*
X132900000Y-54650000D02*
X132550000Y-54300000D01*
D33*
X161400000Y-75500000D02*
X161400000Y-59050000D01*
X176330000Y-98050000D02*
X173300000Y-95020000D01*
X175300000Y-83100000D02*
X175300000Y-82000000D01*
D34*
X159700000Y-45900000D02*
X161000000Y-47200000D01*
X161000000Y-47200000D02*
X161000000Y-58650000D01*
X161000000Y-58650000D02*
X161400000Y-59050000D01*
X131000000Y-59380000D02*
X131770000Y-59380000D01*
D33*
X177525000Y-98050000D02*
X176330000Y-98050000D01*
D34*
X143850000Y-54300000D02*
X152250000Y-45900000D01*
D33*
X178707712Y-86972850D02*
X178707712Y-86507712D01*
D34*
X177650000Y-98175000D02*
X177525000Y-98050000D01*
X131000000Y-54300000D02*
X133000000Y-54300000D01*
D33*
X178707712Y-86742288D02*
X178707712Y-86972850D01*
X178707712Y-86507712D02*
X175300000Y-83100000D01*
X178175000Y-76950000D02*
X178175000Y-77775000D01*
D34*
X132550000Y-54300000D02*
X132700000Y-54300000D01*
X133000000Y-54300000D02*
X143850000Y-54300000D01*
D33*
X161400000Y-56400000D02*
X161400000Y-58650000D01*
X173750000Y-80450000D02*
X166350000Y-80450000D01*
X180550000Y-84900000D02*
X178707712Y-86742288D01*
D34*
X131000000Y-54300000D02*
X132550000Y-54300000D01*
X131770000Y-59380000D02*
X132900000Y-58250000D01*
X132900000Y-58250000D02*
X132900000Y-54650000D01*
X152250000Y-45900000D02*
X159700000Y-45900000D01*
X133000000Y-54750000D02*
X133000000Y-54300000D01*
X161400000Y-59050000D02*
X161400000Y-56400000D01*
D33*
X175300000Y-82000000D02*
X173750000Y-80450000D01*
X178175000Y-77775000D02*
X180550000Y-80150000D01*
%TO.N,GND*%
D34*
X153050000Y-40600000D02*
X154200000Y-39450000D01*
X139300000Y-40600000D02*
X153050000Y-40600000D01*
X138100000Y-39400000D02*
X139300000Y-40600000D01*
%TO.N,/SCK_3v3*%
D35*
X164529474Y-97654000D02*
X172243474Y-89940000D01*
X159554000Y-97904000D02*
X164246000Y-97904000D01*
X164246000Y-97904000D02*
X164496000Y-97654000D01*
X159550000Y-97900000D02*
X159554000Y-97904000D01*
X172243474Y-89940000D02*
X173300000Y-89940000D01*
X164496000Y-97654000D02*
X164529474Y-97654000D01*
%TO.N,/SI_3v3*%
X173300000Y-87400000D02*
X175250000Y-89350000D01*
X180102850Y-92052850D02*
X178707712Y-92052850D01*
X161350000Y-96150000D02*
X162300000Y-97100000D01*
X160850000Y-89800000D02*
X161350000Y-90300000D01*
X177100000Y-96500000D02*
X180800000Y-96500000D01*
X164300000Y-97100000D02*
X173300000Y-88100000D01*
X161350000Y-90300000D02*
X161350000Y-96150000D01*
X162300000Y-97100000D02*
X164300000Y-97100000D01*
X159550000Y-89800000D02*
X160850000Y-89800000D01*
X181450000Y-93400000D02*
X180102850Y-92052850D01*
X181450000Y-95850000D02*
X181450000Y-93400000D01*
X175250000Y-89350000D02*
X175250000Y-94650000D01*
X175250000Y-94650000D02*
X177100000Y-96500000D01*
X180800000Y-96500000D02*
X181450000Y-95850000D01*
X173300000Y-88100000D02*
X173300000Y-87400000D01*
%TO.N,/CS1*%
X159400000Y-59050000D02*
X156830000Y-59050000D01*
X156830000Y-59050000D02*
X156500000Y-59380000D01*
%TO.N,/SO_3v3*%
X175900000Y-91785138D02*
X175900000Y-84920000D01*
X159550000Y-84750000D02*
X159550000Y-83400000D01*
X160630000Y-82320000D02*
X173300000Y-82320000D01*
X159550000Y-83400000D02*
X160630000Y-82320000D01*
X175900000Y-84920000D02*
X173300000Y-82320000D01*
X178707712Y-94592850D02*
X175900000Y-91785138D01*
%TO.N,+5V*%
D34*
X156200000Y-42450000D02*
X159200000Y-39450000D01*
X132400000Y-40000000D02*
X134850000Y-42450000D01*
D33*
X191550000Y-78250000D02*
X186900000Y-78250000D01*
X185520000Y-76870000D02*
X185520000Y-73900000D01*
D34*
X185500000Y-59000000D02*
X185500000Y-73880000D01*
D33*
X183600000Y-75820000D02*
X185520000Y-73900000D01*
X183600000Y-76850000D02*
X183600000Y-75820000D01*
D34*
X163550000Y-43800000D02*
X170300000Y-43800000D01*
D33*
X192900000Y-85850000D02*
X192900000Y-79600000D01*
X191777150Y-86972850D02*
X192900000Y-85850000D01*
D34*
X159200000Y-39450000D02*
X163550000Y-43800000D01*
X134850000Y-42450000D02*
X156200000Y-42450000D01*
D33*
X192900000Y-79600000D02*
X191550000Y-78250000D01*
D34*
X131000000Y-49220000D02*
X131000000Y-41400000D01*
D33*
X164350000Y-107600000D02*
X169050000Y-102900000D01*
X189107712Y-86972850D02*
X191777150Y-86972850D01*
D34*
X170300000Y-43800000D02*
X185500000Y-59000000D01*
D33*
X169050000Y-102900000D02*
X174830000Y-102900000D01*
D34*
X185500000Y-73880000D02*
X185520000Y-73900000D01*
D33*
X192600000Y-87795700D02*
X191777150Y-86972850D01*
X192600000Y-88275000D02*
X192600000Y-87795700D01*
D34*
X131000000Y-41400000D02*
X132400000Y-40000000D01*
D33*
X186900000Y-78250000D02*
X185520000Y-76870000D01*
%TO.N,Net-(D3-K)*%
D35*
X189600000Y-103400000D02*
X191500000Y-101500000D01*
X191500000Y-101500000D02*
X191500000Y-100900000D01*
%TO.N,Net-(D4-K)*%
X191550000Y-105750000D02*
X189700000Y-105750000D01*
X189700000Y-105750000D02*
X189600000Y-105650000D01*
%TO.N,/LED1*%
X187725000Y-105650000D02*
X184700000Y-108675000D01*
X184700000Y-112200000D02*
X182450000Y-114450000D01*
X147900000Y-111150000D02*
X147900000Y-57700000D01*
X151200000Y-114450000D02*
X147900000Y-111150000D01*
X184700000Y-108675000D02*
X184700000Y-112200000D01*
X153840000Y-51760000D02*
X156500000Y-51760000D01*
X147900000Y-57700000D02*
X153840000Y-51760000D01*
X182450000Y-114450000D02*
X151200000Y-114450000D01*
%TO.N,/INT_3v3_R*%
X157300000Y-53500000D02*
X156500000Y-54300000D01*
X159450000Y-53500000D02*
X157300000Y-53500000D01*
%TO.N,/INT_3v3*%
X162550000Y-53500000D02*
X163750000Y-54700000D01*
X176592850Y-81892850D02*
X178707712Y-81892850D01*
X166400000Y-79150000D02*
X173850000Y-79150000D01*
X163750000Y-76500000D02*
X166400000Y-79150000D01*
X173850000Y-79150000D02*
X176592850Y-81892850D01*
X163750000Y-54700000D02*
X163750000Y-76500000D01*
%TO.N,Net-(Q1-B)*%
X177900000Y-108200000D02*
X180400000Y-108200000D01*
X180400000Y-108200000D02*
X181750000Y-106850000D01*
%TO.N,/Buzzer*%
X154050000Y-67000000D02*
X156500000Y-67000000D01*
X152500000Y-110400000D02*
X152500000Y-68550000D01*
X152500000Y-68550000D02*
X154050000Y-67000000D01*
X181650000Y-108850000D02*
X178350000Y-112150000D01*
X154250000Y-112150000D02*
X152500000Y-110400000D01*
X178350000Y-112150000D02*
X154250000Y-112150000D01*
X181750000Y-108850000D02*
X181650000Y-108850000D01*
%TO.N,/SO_3v3_R*%
X159550000Y-87850000D02*
X158510000Y-87850000D01*
X158510000Y-87850000D02*
X156500000Y-89860000D01*
%TO.N,Net-(BZ1--)*%
X173250000Y-105100000D02*
X177550000Y-105100000D01*
X179170000Y-106930000D02*
X179470000Y-106930000D01*
X171950000Y-106400000D02*
X173250000Y-105100000D01*
X171950000Y-107600000D02*
X171950000Y-106400000D01*
X177550000Y-105100000D02*
X179170000Y-106720000D01*
X179470000Y-106930000D02*
X182450000Y-103950000D01*
X179170000Y-106720000D02*
X179170000Y-106930000D01*
X182450000Y-103950000D02*
X182450000Y-102900000D01*
%TO.N,/INT*%
X181069324Y-75450000D02*
X171120000Y-75450000D01*
X189107712Y-81892850D02*
X185642850Y-81892850D01*
X181950000Y-78200000D02*
X181950000Y-76330676D01*
X185642850Y-81892850D02*
X181950000Y-78200000D01*
X171120000Y-75450000D02*
X170280000Y-74610000D01*
X181950000Y-76330676D02*
X181069324Y-75450000D01*
X170280000Y-74610000D02*
X170280000Y-73900000D01*
%TO.N,/CS0*%
X159400000Y-56400000D02*
X158950000Y-56850000D01*
X159400000Y-56400000D02*
X159400000Y-56300000D01*
X156510000Y-56850000D02*
X156500000Y-56840000D01*
X158950000Y-56850000D02*
X156510000Y-56850000D01*
%TO.N,/LED2*%
X184000000Y-107125000D02*
X184000000Y-111850000D01*
X149400000Y-63750000D02*
X151000000Y-62150000D01*
X156270000Y-62150000D02*
X156500000Y-61920000D01*
X182150000Y-113700000D02*
X152050000Y-113700000D01*
X149400000Y-111050000D02*
X149400000Y-63750000D01*
X184000000Y-111850000D02*
X182150000Y-113700000D01*
X187725000Y-103400000D02*
X184000000Y-107125000D01*
X151000000Y-62150000D02*
X156270000Y-62150000D01*
X152050000Y-113700000D02*
X149400000Y-111050000D01*
%TO.N,/LED3*%
X183250000Y-111550000D02*
X181800000Y-113000000D01*
X152950000Y-113000000D02*
X151000000Y-111050000D01*
X187725000Y-101150000D02*
X183250000Y-105625000D01*
X152550000Y-64450000D02*
X156490000Y-64450000D01*
X151000000Y-66000000D02*
X152550000Y-64450000D01*
X181800000Y-113000000D02*
X152950000Y-113000000D01*
X156490000Y-64450000D02*
X156500000Y-64460000D01*
X183250000Y-105625000D02*
X183250000Y-111550000D01*
X151000000Y-111050000D02*
X151000000Y-66000000D01*
%TO.N,/SI_3v3_R*%
X157000000Y-92900000D02*
X156500000Y-92400000D01*
X159550000Y-92900000D02*
X157000000Y-92900000D01*
%TO.N,/SCK_3v3_R*%
X156640000Y-94800000D02*
X156500000Y-94940000D01*
X159550000Y-94800000D02*
X156640000Y-94800000D01*
%TO.N,Net-(D2-K)*%
X189650000Y-98750000D02*
X189650000Y-101100000D01*
X189650000Y-101100000D02*
X189600000Y-101150000D01*
%TD*%
%TA.AperFunction,Conductor*%
%TO.N,GND*%
G36*
X193842539Y-34538911D02*
G01*
X193888294Y-34591715D01*
X193899500Y-34643226D01*
X193899500Y-87407394D01*
X193879815Y-87474433D01*
X193827011Y-87520188D01*
X193757853Y-87530132D01*
X193694297Y-87501107D01*
X193669961Y-87472491D01*
X193667712Y-87468844D01*
X193543656Y-87344788D01*
X193394334Y-87252686D01*
X193227797Y-87197501D01*
X193227795Y-87197500D01*
X193125016Y-87187000D01*
X193125009Y-87187000D01*
X193104029Y-87187000D01*
X193036990Y-87167315D01*
X193016348Y-87150681D01*
X192926198Y-87060531D01*
X192892713Y-86999208D01*
X192897697Y-86929516D01*
X192926198Y-86885169D01*
X193199184Y-86612184D01*
X193482952Y-86328416D01*
X193538722Y-86244949D01*
X193541706Y-86240484D01*
X193543966Y-86237099D01*
X193565084Y-86205495D01*
X193596148Y-86130500D01*
X193621659Y-86068912D01*
X193650500Y-85923917D01*
X193650500Y-85776082D01*
X193650500Y-79526082D01*
X193650500Y-79526079D01*
X193621659Y-79381092D01*
X193621658Y-79381091D01*
X193621658Y-79381087D01*
X193621656Y-79381082D01*
X193565087Y-79244511D01*
X193565080Y-79244498D01*
X193482952Y-79121585D01*
X193482951Y-79121584D01*
X193378416Y-79017049D01*
X193181575Y-78820208D01*
X192028421Y-77667052D01*
X192028414Y-77667046D01*
X191928818Y-77600499D01*
X191928817Y-77600499D01*
X191905495Y-77584916D01*
X191905488Y-77584912D01*
X191768917Y-77528343D01*
X191768907Y-77528340D01*
X191623920Y-77499500D01*
X191623918Y-77499500D01*
X187262230Y-77499500D01*
X187195191Y-77479815D01*
X187174549Y-77463181D01*
X186306819Y-76595451D01*
X186273334Y-76534128D01*
X186270500Y-76507770D01*
X186270500Y-75087220D01*
X186290185Y-75020181D01*
X186321614Y-74986902D01*
X186399792Y-74930104D01*
X186550104Y-74779792D01*
X186550106Y-74779788D01*
X186550109Y-74779786D01*
X186675048Y-74607820D01*
X186675047Y-74607820D01*
X186675051Y-74607816D01*
X186771557Y-74418412D01*
X186837246Y-74216243D01*
X186870500Y-74006287D01*
X186870500Y-73793713D01*
X186837246Y-73583757D01*
X186771557Y-73381588D01*
X186675051Y-73192184D01*
X186592609Y-73078711D01*
X187699500Y-73078711D01*
X187699500Y-73321288D01*
X187731161Y-73561785D01*
X187793947Y-73796104D01*
X187886773Y-74020205D01*
X187886777Y-74020214D01*
X187902561Y-74047552D01*
X188008064Y-74230289D01*
X188008066Y-74230292D01*
X188008067Y-74230293D01*
X188155733Y-74422736D01*
X188155739Y-74422743D01*
X188327256Y-74594260D01*
X188327262Y-74594265D01*
X188519711Y-74741936D01*
X188729788Y-74863224D01*
X188953900Y-74956054D01*
X189188211Y-75018838D01*
X189368586Y-75042584D01*
X189428711Y-75050500D01*
X189428712Y-75050500D01*
X189671289Y-75050500D01*
X189719388Y-75044167D01*
X189911789Y-75018838D01*
X190146100Y-74956054D01*
X190370212Y-74863224D01*
X190580289Y-74741936D01*
X190772738Y-74594265D01*
X190944265Y-74422738D01*
X191091936Y-74230289D01*
X191213224Y-74020212D01*
X191306054Y-73796100D01*
X191368838Y-73561789D01*
X191400500Y-73321288D01*
X191400500Y-73078712D01*
X191368838Y-72838211D01*
X191306054Y-72603900D01*
X191213224Y-72379788D01*
X191091936Y-72169711D01*
X190944265Y-71977262D01*
X190944260Y-71977256D01*
X190772743Y-71805739D01*
X190772736Y-71805733D01*
X190580293Y-71658067D01*
X190580292Y-71658066D01*
X190580289Y-71658064D01*
X190370212Y-71536776D01*
X190370205Y-71536773D01*
X190146104Y-71443947D01*
X189911785Y-71381161D01*
X189671289Y-71349500D01*
X189671288Y-71349500D01*
X189428712Y-71349500D01*
X189428711Y-71349500D01*
X189188214Y-71381161D01*
X188953895Y-71443947D01*
X188729794Y-71536773D01*
X188729785Y-71536777D01*
X188519706Y-71658067D01*
X188327263Y-71805733D01*
X188327256Y-71805739D01*
X188155739Y-71977256D01*
X188155733Y-71977263D01*
X188008067Y-72169706D01*
X187886777Y-72379785D01*
X187886773Y-72379794D01*
X187793947Y-72603895D01*
X187731161Y-72838214D01*
X187699500Y-73078711D01*
X186592609Y-73078711D01*
X186550104Y-73020208D01*
X186530924Y-73001028D01*
X186525874Y-72994401D01*
X186516242Y-72969240D01*
X186503334Y-72945600D01*
X186501826Y-72931580D01*
X186500896Y-72929149D01*
X186501337Y-72927031D01*
X186500500Y-72919242D01*
X186500500Y-58901456D01*
X186462052Y-58708170D01*
X186462051Y-58708169D01*
X186462051Y-58708165D01*
X186447145Y-58672179D01*
X186386635Y-58526092D01*
X186386628Y-58526079D01*
X186277139Y-58362218D01*
X186277136Y-58362214D01*
X186134686Y-58219764D01*
X186134655Y-58219735D01*
X171081479Y-43166559D01*
X171081459Y-43166537D01*
X170937785Y-43022863D01*
X170937781Y-43022860D01*
X170773920Y-42913371D01*
X170773911Y-42913366D01*
X170701315Y-42883296D01*
X170645165Y-42860038D01*
X170591836Y-42837949D01*
X170591832Y-42837948D01*
X170591828Y-42837946D01*
X170495188Y-42818724D01*
X170398544Y-42799500D01*
X170398541Y-42799500D01*
X164015782Y-42799500D01*
X163948743Y-42779815D01*
X163928101Y-42763181D01*
X161101327Y-39936407D01*
X161067842Y-39875084D01*
X161067392Y-39824529D01*
X161067979Y-39821573D01*
X161067982Y-39821565D01*
X161100500Y-39574565D01*
X161100500Y-39325435D01*
X161067982Y-39078435D01*
X161003502Y-38837793D01*
X160908164Y-38607627D01*
X160863854Y-38530880D01*
X160783599Y-38391873D01*
X160631939Y-38194225D01*
X160631933Y-38194218D01*
X160455781Y-38018066D01*
X160455774Y-38018060D01*
X160266775Y-37873037D01*
X160258127Y-37866401D01*
X160258122Y-37866397D01*
X160106244Y-37778711D01*
X164399500Y-37778711D01*
X164399500Y-38021288D01*
X164431161Y-38261785D01*
X164493947Y-38496104D01*
X164577244Y-38697200D01*
X164586776Y-38720212D01*
X164708064Y-38930289D01*
X164708066Y-38930292D01*
X164708067Y-38930293D01*
X164855733Y-39122736D01*
X164855739Y-39122743D01*
X165027256Y-39294260D01*
X165027263Y-39294266D01*
X165067891Y-39325441D01*
X165219711Y-39441936D01*
X165429788Y-39563224D01*
X165653900Y-39656054D01*
X165888211Y-39718838D01*
X166068586Y-39742584D01*
X166128711Y-39750500D01*
X166128712Y-39750500D01*
X166371289Y-39750500D01*
X166419388Y-39744167D01*
X166611789Y-39718838D01*
X166846100Y-39656054D01*
X167070212Y-39563224D01*
X167280289Y-39441936D01*
X167472738Y-39294265D01*
X167644265Y-39122738D01*
X167791936Y-38930289D01*
X167913224Y-38720212D01*
X168006054Y-38496100D01*
X168068838Y-38261789D01*
X168100500Y-38021288D01*
X168100500Y-37778712D01*
X168095644Y-37741830D01*
X168088002Y-37683779D01*
X168086406Y-37671653D01*
X168086406Y-37671652D01*
X187699500Y-37671652D01*
X187699500Y-37914229D01*
X187723956Y-38100000D01*
X187731162Y-38154730D01*
X187756697Y-38250027D01*
X187793947Y-38389045D01*
X187852695Y-38530875D01*
X187886776Y-38613153D01*
X188008064Y-38823230D01*
X188008066Y-38823233D01*
X188008067Y-38823234D01*
X188155733Y-39015677D01*
X188155739Y-39015684D01*
X188327256Y-39187201D01*
X188327263Y-39187207D01*
X188422653Y-39260402D01*
X188519711Y-39334877D01*
X188729788Y-39456165D01*
X188953900Y-39548995D01*
X189188211Y-39611779D01*
X189368586Y-39635525D01*
X189428711Y-39643441D01*
X189428712Y-39643441D01*
X189671289Y-39643441D01*
X189719388Y-39637108D01*
X189911789Y-39611779D01*
X190146100Y-39548995D01*
X190370212Y-39456165D01*
X190580289Y-39334877D01*
X190772738Y-39187206D01*
X190944265Y-39015679D01*
X191091936Y-38823230D01*
X191213224Y-38613153D01*
X191306054Y-38389041D01*
X191368838Y-38154730D01*
X191400500Y-37914229D01*
X191400500Y-37671653D01*
X191368838Y-37431152D01*
X191306054Y-37196841D01*
X191213224Y-36972729D01*
X191091936Y-36762652D01*
X190944265Y-36570203D01*
X190944260Y-36570197D01*
X190772743Y-36398680D01*
X190772736Y-36398674D01*
X190580293Y-36251008D01*
X190580292Y-36251007D01*
X190580289Y-36251005D01*
X190370212Y-36129717D01*
X190370205Y-36129714D01*
X190146104Y-36036888D01*
X189911785Y-35974102D01*
X189671289Y-35942441D01*
X189671288Y-35942441D01*
X189428712Y-35942441D01*
X189428711Y-35942441D01*
X189188214Y-35974102D01*
X188953895Y-36036888D01*
X188729794Y-36129714D01*
X188729785Y-36129718D01*
X188519706Y-36251008D01*
X188327263Y-36398674D01*
X188327256Y-36398680D01*
X188155739Y-36570197D01*
X188155733Y-36570204D01*
X188008067Y-36762647D01*
X187886777Y-36972726D01*
X187886773Y-36972735D01*
X187793947Y-37196836D01*
X187731161Y-37431155D01*
X187699500Y-37671652D01*
X168086406Y-37671652D01*
X168068838Y-37538211D01*
X168006054Y-37303900D01*
X167913224Y-37079788D01*
X167791936Y-36869711D01*
X167644265Y-36677262D01*
X167644260Y-36677256D01*
X167472743Y-36505739D01*
X167472736Y-36505733D01*
X167280293Y-36358067D01*
X167280292Y-36358066D01*
X167280289Y-36358064D01*
X167070212Y-36236776D01*
X167070205Y-36236773D01*
X166846104Y-36143947D01*
X166611785Y-36081161D01*
X166371289Y-36049500D01*
X166371288Y-36049500D01*
X166128712Y-36049500D01*
X166128711Y-36049500D01*
X165888214Y-36081161D01*
X165653895Y-36143947D01*
X165429794Y-36236773D01*
X165429785Y-36236777D01*
X165219706Y-36358067D01*
X165027263Y-36505733D01*
X165027256Y-36505739D01*
X164855739Y-36677256D01*
X164855733Y-36677263D01*
X164708067Y-36869706D01*
X164586777Y-37079785D01*
X164586773Y-37079794D01*
X164493947Y-37303895D01*
X164431161Y-37538214D01*
X164399500Y-37778711D01*
X160106244Y-37778711D01*
X160042376Y-37741837D01*
X160042361Y-37741830D01*
X159812207Y-37646498D01*
X159571561Y-37582017D01*
X159324575Y-37549501D01*
X159324570Y-37549500D01*
X159324565Y-37549500D01*
X159075435Y-37549500D01*
X159075429Y-37549500D01*
X159075424Y-37549501D01*
X158828438Y-37582017D01*
X158587792Y-37646498D01*
X158357638Y-37741830D01*
X158357623Y-37741837D01*
X158141873Y-37866400D01*
X157944225Y-38018060D01*
X157944218Y-38018066D01*
X157768066Y-38194218D01*
X157768060Y-38194225D01*
X157616400Y-38391873D01*
X157491837Y-38607623D01*
X157491830Y-38607638D01*
X157396498Y-38837792D01*
X157332017Y-39078438D01*
X157299501Y-39325424D01*
X157299500Y-39325441D01*
X157299500Y-39574558D01*
X157299501Y-39574575D01*
X157332017Y-39821563D01*
X157332610Y-39824541D01*
X157332528Y-39825445D01*
X157332548Y-39825590D01*
X157332515Y-39825594D01*
X157326378Y-39894132D01*
X157298672Y-39936406D01*
X156264757Y-40970322D01*
X156203434Y-41003807D01*
X156133742Y-40998823D01*
X156077809Y-40956951D01*
X156053392Y-40891487D01*
X156059370Y-40843637D01*
X156089505Y-40752696D01*
X156089506Y-40752689D01*
X156099999Y-40649985D01*
X156100000Y-40649972D01*
X156100000Y-39700000D01*
X154800001Y-39700000D01*
X154825021Y-39639598D01*
X154850000Y-39514019D01*
X154850000Y-39385981D01*
X154825021Y-39260402D01*
X154800001Y-39200000D01*
X156100000Y-39200000D01*
X156100000Y-38250027D01*
X156099999Y-38250014D01*
X156089506Y-38147310D01*
X156089505Y-38147303D01*
X156034358Y-37980881D01*
X156034356Y-37980876D01*
X155942315Y-37831655D01*
X155818344Y-37707684D01*
X155669123Y-37615643D01*
X155669118Y-37615641D01*
X155502696Y-37560494D01*
X155502689Y-37560493D01*
X155399985Y-37550000D01*
X154450000Y-37550000D01*
X154450000Y-38849998D01*
X154389598Y-38824979D01*
X154264019Y-38800000D01*
X154135981Y-38800000D01*
X154010402Y-38824979D01*
X153950000Y-38849998D01*
X153950000Y-37550000D01*
X153000014Y-37550000D01*
X152897310Y-37560493D01*
X152897303Y-37560494D01*
X152730881Y-37615641D01*
X152730876Y-37615643D01*
X152581655Y-37707684D01*
X152457684Y-37831655D01*
X152365643Y-37980876D01*
X152365641Y-37980881D01*
X152310494Y-38147303D01*
X152310493Y-38147310D01*
X152300000Y-38250014D01*
X152300000Y-39200000D01*
X153599999Y-39200000D01*
X153574979Y-39260402D01*
X153550000Y-39385981D01*
X153550000Y-39514019D01*
X153574979Y-39639598D01*
X153599999Y-39700000D01*
X152300000Y-39700000D01*
X152300000Y-40649985D01*
X152310493Y-40752689D01*
X152310494Y-40752696D01*
X152365641Y-40919118D01*
X152365643Y-40919123D01*
X152457684Y-41068344D01*
X152581655Y-41192315D01*
X152626476Y-41219961D01*
X152673200Y-41271909D01*
X152684423Y-41340872D01*
X152656579Y-41404954D01*
X152598511Y-41443810D01*
X152561379Y-41449500D01*
X135315782Y-41449500D01*
X135248743Y-41429815D01*
X135228101Y-41413181D01*
X134500825Y-40685905D01*
X134467340Y-40624582D01*
X134472324Y-40554890D01*
X134500825Y-40510543D01*
X134525605Y-40485763D01*
X134592712Y-40418656D01*
X134684814Y-40269334D01*
X134739999Y-40102797D01*
X134750500Y-40000009D01*
X134750500Y-39999986D01*
X135850001Y-39999986D01*
X135860494Y-40102697D01*
X135915641Y-40269119D01*
X135915643Y-40269124D01*
X136007684Y-40418345D01*
X136131654Y-40542315D01*
X136280875Y-40634356D01*
X136280880Y-40634358D01*
X136447302Y-40689505D01*
X136447309Y-40689506D01*
X136550019Y-40699999D01*
X137849999Y-40699999D01*
X138350000Y-40699999D01*
X139649972Y-40699999D01*
X139649986Y-40699998D01*
X139752697Y-40689505D01*
X139919119Y-40634358D01*
X139919124Y-40634356D01*
X140068345Y-40542315D01*
X140192315Y-40418345D01*
X140284356Y-40269124D01*
X140284358Y-40269119D01*
X140339505Y-40102697D01*
X140339506Y-40102690D01*
X140349999Y-39999986D01*
X140350000Y-39999973D01*
X140350000Y-39650000D01*
X138350000Y-39650000D01*
X138350000Y-40699999D01*
X137849999Y-40699999D01*
X137850000Y-40699998D01*
X137850000Y-39650000D01*
X135850001Y-39650000D01*
X135850001Y-39999986D01*
X134750500Y-39999986D01*
X134750499Y-39385981D01*
X134750499Y-38800013D01*
X135850000Y-38800013D01*
X135850000Y-39150000D01*
X137850000Y-39150000D01*
X138350000Y-39150000D01*
X140349999Y-39150000D01*
X140349999Y-38800028D01*
X140349998Y-38800013D01*
X140339505Y-38697302D01*
X140284358Y-38530880D01*
X140284356Y-38530875D01*
X140192315Y-38381654D01*
X140068345Y-38257684D01*
X139919124Y-38165643D01*
X139919119Y-38165641D01*
X139752697Y-38110494D01*
X139752690Y-38110493D01*
X139649986Y-38100000D01*
X138350000Y-38100000D01*
X138350000Y-39150000D01*
X137850000Y-39150000D01*
X137850000Y-38100000D01*
X136550028Y-38100000D01*
X136550012Y-38100001D01*
X136447302Y-38110494D01*
X136280880Y-38165641D01*
X136280875Y-38165643D01*
X136131654Y-38257684D01*
X136007684Y-38381654D01*
X135915643Y-38530875D01*
X135915641Y-38530880D01*
X135860494Y-38697302D01*
X135860493Y-38697309D01*
X135850000Y-38800013D01*
X134750499Y-38800013D01*
X134750499Y-38799998D01*
X134750498Y-38799981D01*
X134739999Y-38697203D01*
X134739998Y-38697200D01*
X134712148Y-38613155D01*
X134684814Y-38530666D01*
X134592712Y-38381344D01*
X134468656Y-38257288D01*
X134319334Y-38165186D01*
X134152797Y-38110001D01*
X134152795Y-38110000D01*
X134050010Y-38099500D01*
X130949998Y-38099500D01*
X130949981Y-38099501D01*
X130847203Y-38110000D01*
X130847200Y-38110001D01*
X130680668Y-38165185D01*
X130680663Y-38165187D01*
X130531342Y-38257289D01*
X130407289Y-38381342D01*
X130315187Y-38530663D01*
X130315185Y-38530668D01*
X130315115Y-38530880D01*
X130260001Y-38697203D01*
X130260001Y-38697204D01*
X130260000Y-38697204D01*
X130249500Y-38799983D01*
X130249500Y-40000001D01*
X130249501Y-40000018D01*
X130260000Y-40102796D01*
X130260001Y-40102799D01*
X130315185Y-40269331D01*
X130315187Y-40269336D01*
X130407291Y-40418661D01*
X130409114Y-40420966D01*
X130409871Y-40422843D01*
X130411080Y-40424803D01*
X130410745Y-40425009D01*
X130435251Y-40485763D01*
X130422208Y-40554404D01*
X130399526Y-40585552D01*
X130362221Y-40622857D01*
X130362221Y-40622858D01*
X130362218Y-40622861D01*
X130299174Y-40685905D01*
X130222859Y-40762219D01*
X130113371Y-40926079D01*
X130113364Y-40926092D01*
X130037950Y-41108160D01*
X130037947Y-41108170D01*
X129999500Y-41301456D01*
X129999500Y-47805858D01*
X129979815Y-47872897D01*
X129927011Y-47918652D01*
X129918847Y-47922034D01*
X129907669Y-47926204D01*
X129907664Y-47926206D01*
X129792455Y-48012452D01*
X129792452Y-48012455D01*
X129706206Y-48127664D01*
X129706202Y-48127671D01*
X129655908Y-48262517D01*
X129649501Y-48322116D01*
X129649501Y-48322123D01*
X129649500Y-48322135D01*
X129649500Y-50117870D01*
X129649501Y-50117876D01*
X129655908Y-50177483D01*
X129706202Y-50312328D01*
X129706206Y-50312335D01*
X129792452Y-50427544D01*
X129792455Y-50427547D01*
X129907664Y-50513793D01*
X129907671Y-50513797D01*
X129952618Y-50530561D01*
X130042517Y-50564091D01*
X130102127Y-50570500D01*
X130112685Y-50570499D01*
X130179723Y-50590179D01*
X130200372Y-50606818D01*
X130870591Y-51277037D01*
X130807007Y-51294075D01*
X130692993Y-51359901D01*
X130599901Y-51452993D01*
X130534075Y-51567007D01*
X130517037Y-51630591D01*
X129884728Y-50998282D01*
X129884727Y-50998282D01*
X129845380Y-51052439D01*
X129748904Y-51241782D01*
X129683242Y-51443869D01*
X129683242Y-51443872D01*
X129650000Y-51653753D01*
X129650000Y-51866246D01*
X129683242Y-52076127D01*
X129683242Y-52076130D01*
X129748904Y-52278217D01*
X129845375Y-52467550D01*
X129884728Y-52521716D01*
X130517037Y-51889408D01*
X130534075Y-51952993D01*
X130599901Y-52067007D01*
X130692993Y-52160099D01*
X130807007Y-52225925D01*
X130870590Y-52242962D01*
X130238282Y-52875269D01*
X130238282Y-52875270D01*
X130292452Y-52914626D01*
X130292451Y-52914626D01*
X130301495Y-52919234D01*
X130352292Y-52967208D01*
X130369087Y-53035029D01*
X130346550Y-53101164D01*
X130301499Y-53140202D01*
X130292182Y-53144949D01*
X130120213Y-53269890D01*
X129969890Y-53420213D01*
X129844951Y-53592179D01*
X129748444Y-53781585D01*
X129682753Y-53983760D01*
X129649500Y-54193713D01*
X129649500Y-54406286D01*
X129679176Y-54593657D01*
X129682754Y-54616243D01*
X129745649Y-54809814D01*
X129748444Y-54818414D01*
X129844951Y-55007820D01*
X129969890Y-55179786D01*
X130120213Y-55330109D01*
X130292179Y-55455048D01*
X130292181Y-55455049D01*
X130292184Y-55455051D01*
X130301493Y-55459794D01*
X130352290Y-55507766D01*
X130369087Y-55575587D01*
X130346552Y-55641722D01*
X130301505Y-55680760D01*
X130292446Y-55685376D01*
X130292440Y-55685380D01*
X130238282Y-55724727D01*
X130238282Y-55724728D01*
X130870591Y-56357037D01*
X130807007Y-56374075D01*
X130692993Y-56439901D01*
X130599901Y-56532993D01*
X130534075Y-56647007D01*
X130517037Y-56710591D01*
X129884728Y-56078282D01*
X129884727Y-56078282D01*
X129845380Y-56132439D01*
X129748904Y-56321782D01*
X129683242Y-56523869D01*
X129683242Y-56523872D01*
X129650000Y-56733753D01*
X129650000Y-56946246D01*
X129683242Y-57156127D01*
X129683242Y-57156130D01*
X129748904Y-57358217D01*
X129845375Y-57547550D01*
X129884728Y-57601716D01*
X130517037Y-56969408D01*
X130534075Y-57032993D01*
X130599901Y-57147007D01*
X130692993Y-57240099D01*
X130807007Y-57305925D01*
X130870589Y-57322962D01*
X130238282Y-57955269D01*
X130238282Y-57955270D01*
X130292452Y-57994626D01*
X130292451Y-57994626D01*
X130301495Y-57999234D01*
X130352292Y-58047208D01*
X130369087Y-58115029D01*
X130346550Y-58181164D01*
X130301499Y-58220202D01*
X130292182Y-58224949D01*
X130120213Y-58349890D01*
X129969890Y-58500213D01*
X129844951Y-58672179D01*
X129748444Y-58861585D01*
X129682753Y-59063760D01*
X129649500Y-59273713D01*
X129649500Y-59486287D01*
X129682754Y-59696243D01*
X129707690Y-59772989D01*
X129748444Y-59898414D01*
X129844951Y-60087820D01*
X129969890Y-60259786D01*
X130120213Y-60410109D01*
X130292179Y-60535048D01*
X130292181Y-60535049D01*
X130292184Y-60535051D01*
X130301493Y-60539794D01*
X130352290Y-60587766D01*
X130369087Y-60655587D01*
X130346552Y-60721722D01*
X130301505Y-60760760D01*
X130292446Y-60765376D01*
X130292440Y-60765380D01*
X130238282Y-60804727D01*
X130238282Y-60804728D01*
X130870591Y-61437037D01*
X130807007Y-61454075D01*
X130692993Y-61519901D01*
X130599901Y-61612993D01*
X130534075Y-61727007D01*
X130517037Y-61790591D01*
X129884728Y-61158282D01*
X129884727Y-61158282D01*
X129845380Y-61212439D01*
X129748904Y-61401782D01*
X129683242Y-61603869D01*
X129683242Y-61603872D01*
X129650000Y-61813753D01*
X129650000Y-62026246D01*
X129683242Y-62236127D01*
X129683242Y-62236130D01*
X129748904Y-62438217D01*
X129845375Y-62627550D01*
X129884728Y-62681716D01*
X130517037Y-62049408D01*
X130534075Y-62112993D01*
X130599901Y-62227007D01*
X130692993Y-62320099D01*
X130807007Y-62385925D01*
X130870590Y-62402962D01*
X130238282Y-63035269D01*
X130238282Y-63035270D01*
X130292452Y-63074626D01*
X130292451Y-63074626D01*
X130301495Y-63079234D01*
X130352292Y-63127208D01*
X130369087Y-63195029D01*
X130346550Y-63261164D01*
X130301499Y-63300202D01*
X130292182Y-63304949D01*
X130120213Y-63429890D01*
X129969890Y-63580213D01*
X129844951Y-63752179D01*
X129748444Y-63941585D01*
X129682753Y-64143760D01*
X129649500Y-64353713D01*
X129649500Y-64566286D01*
X129682753Y-64776239D01*
X129748444Y-64978414D01*
X129844951Y-65167820D01*
X129969890Y-65339786D01*
X130120213Y-65490109D01*
X130292182Y-65615050D01*
X130300946Y-65619516D01*
X130351742Y-65667491D01*
X130368536Y-65735312D01*
X130345998Y-65801447D01*
X130300946Y-65840484D01*
X130292182Y-65844949D01*
X130120213Y-65969890D01*
X129969890Y-66120213D01*
X129844951Y-66292179D01*
X129748444Y-66481585D01*
X129682753Y-66683760D01*
X129649500Y-66893713D01*
X129649500Y-67106286D01*
X129682753Y-67316239D01*
X129748444Y-67518414D01*
X129844951Y-67707820D01*
X129969890Y-67879786D01*
X130120213Y-68030109D01*
X130292182Y-68155050D01*
X130300946Y-68159516D01*
X130351742Y-68207491D01*
X130368536Y-68275312D01*
X130345998Y-68341447D01*
X130300946Y-68380484D01*
X130292182Y-68384949D01*
X130120213Y-68509890D01*
X129969890Y-68660213D01*
X129844951Y-68832179D01*
X129748444Y-69021585D01*
X129682753Y-69223760D01*
X129649500Y-69433713D01*
X129649500Y-69646286D01*
X129682753Y-69856239D01*
X129748444Y-70058414D01*
X129844951Y-70247820D01*
X129969890Y-70419786D01*
X130120213Y-70570109D01*
X130292182Y-70695050D01*
X130300946Y-70699516D01*
X130351742Y-70747491D01*
X130368536Y-70815312D01*
X130345998Y-70881447D01*
X130300946Y-70920484D01*
X130292182Y-70924949D01*
X130120213Y-71049890D01*
X129969890Y-71200213D01*
X129844951Y-71372179D01*
X129748444Y-71561585D01*
X129682753Y-71763760D01*
X129649500Y-71973713D01*
X129649500Y-72186286D01*
X129680148Y-72379794D01*
X129682754Y-72396243D01*
X129743355Y-72582754D01*
X129748444Y-72598414D01*
X129844951Y-72787820D01*
X129969890Y-72959786D01*
X130120213Y-73110109D01*
X130292182Y-73235050D01*
X130300946Y-73239516D01*
X130351742Y-73287491D01*
X130368536Y-73355312D01*
X130345998Y-73421447D01*
X130300946Y-73460484D01*
X130292182Y-73464949D01*
X130120213Y-73589890D01*
X129969890Y-73740213D01*
X129844951Y-73912179D01*
X129748444Y-74101585D01*
X129682753Y-74303760D01*
X129649500Y-74513713D01*
X129649500Y-74726286D01*
X129681781Y-74930104D01*
X129682754Y-74936243D01*
X129748234Y-75137770D01*
X129748444Y-75138414D01*
X129844951Y-75327820D01*
X129969890Y-75499786D01*
X130120213Y-75650109D01*
X130292182Y-75775050D01*
X130300946Y-75779516D01*
X130351742Y-75827491D01*
X130368536Y-75895312D01*
X130345998Y-75961447D01*
X130300946Y-76000484D01*
X130292182Y-76004949D01*
X130120213Y-76129890D01*
X129969890Y-76280213D01*
X129844951Y-76452179D01*
X129748444Y-76641585D01*
X129682753Y-76843760D01*
X129681765Y-76850000D01*
X129649500Y-77053713D01*
X129649500Y-77266287D01*
X129682754Y-77476243D01*
X129740119Y-77652795D01*
X129748444Y-77678414D01*
X129844951Y-77867820D01*
X129969890Y-78039786D01*
X130120213Y-78190109D01*
X130292182Y-78315050D01*
X130300946Y-78319516D01*
X130351742Y-78367491D01*
X130368536Y-78435312D01*
X130345998Y-78501447D01*
X130300946Y-78540484D01*
X130292182Y-78544949D01*
X130120213Y-78669890D01*
X129969890Y-78820213D01*
X129844951Y-78992179D01*
X129748444Y-79181585D01*
X129682753Y-79383760D01*
X129649500Y-79593713D01*
X129649500Y-79806286D01*
X129682753Y-80016239D01*
X129748444Y-80218414D01*
X129844951Y-80407820D01*
X129969890Y-80579786D01*
X130120213Y-80730109D01*
X130292182Y-80855050D01*
X130300946Y-80859516D01*
X130351742Y-80907491D01*
X130368536Y-80975312D01*
X130345998Y-81041447D01*
X130300946Y-81080484D01*
X130292182Y-81084949D01*
X130120213Y-81209890D01*
X129969890Y-81360213D01*
X129844951Y-81532179D01*
X129748444Y-81721585D01*
X129682753Y-81923760D01*
X129649500Y-82133713D01*
X129649500Y-82346286D01*
X129682753Y-82556239D01*
X129748444Y-82758414D01*
X129844951Y-82947820D01*
X129969890Y-83119786D01*
X130120213Y-83270109D01*
X130292182Y-83395050D01*
X130300946Y-83399516D01*
X130351742Y-83447491D01*
X130368536Y-83515312D01*
X130345998Y-83581447D01*
X130300946Y-83620484D01*
X130292182Y-83624949D01*
X130120213Y-83749890D01*
X129969890Y-83900213D01*
X129844951Y-84072179D01*
X129748444Y-84261585D01*
X129682753Y-84463760D01*
X129667555Y-84559720D01*
X129649500Y-84673713D01*
X129649500Y-84886287D01*
X129682754Y-85096243D01*
X129734498Y-85255495D01*
X129748444Y-85298414D01*
X129844951Y-85487820D01*
X129969890Y-85659786D01*
X130120213Y-85810109D01*
X130292182Y-85935050D01*
X130300946Y-85939516D01*
X130351742Y-85987491D01*
X130368536Y-86055312D01*
X130345998Y-86121447D01*
X130300946Y-86160484D01*
X130292182Y-86164949D01*
X130120213Y-86289890D01*
X129969890Y-86440213D01*
X129844951Y-86612179D01*
X129748444Y-86801585D01*
X129682753Y-87003760D01*
X129649500Y-87213713D01*
X129649500Y-87426286D01*
X129680225Y-87620279D01*
X129682754Y-87636243D01*
X129727665Y-87774465D01*
X129748444Y-87838414D01*
X129844951Y-88027820D01*
X129969890Y-88199786D01*
X130120213Y-88350109D01*
X130292182Y-88475050D01*
X130300946Y-88479516D01*
X130351742Y-88527491D01*
X130368536Y-88595312D01*
X130345998Y-88661447D01*
X130300946Y-88700484D01*
X130292182Y-88704949D01*
X130120213Y-88829890D01*
X129969890Y-88980213D01*
X129844951Y-89152179D01*
X129748444Y-89341585D01*
X129682753Y-89543760D01*
X129659057Y-89693375D01*
X129649500Y-89753713D01*
X129649500Y-89966287D01*
X129682754Y-90176243D01*
X129745607Y-90369685D01*
X129748444Y-90378414D01*
X129844951Y-90567820D01*
X129969890Y-90739786D01*
X130120213Y-90890109D01*
X130292182Y-91015050D01*
X130300946Y-91019516D01*
X130351742Y-91067491D01*
X130368536Y-91135312D01*
X130345998Y-91201447D01*
X130300946Y-91240484D01*
X130292182Y-91244949D01*
X130120213Y-91369890D01*
X129969890Y-91520213D01*
X129844951Y-91692179D01*
X129748444Y-91881585D01*
X129682753Y-92083760D01*
X129649500Y-92293713D01*
X129649500Y-92506286D01*
X129681065Y-92705584D01*
X129682754Y-92716243D01*
X129748070Y-92917265D01*
X129748444Y-92918414D01*
X129844951Y-93107820D01*
X129969890Y-93279786D01*
X130120213Y-93430109D01*
X130292182Y-93555050D01*
X130300946Y-93559516D01*
X130351742Y-93607491D01*
X130368536Y-93675312D01*
X130345998Y-93741447D01*
X130300946Y-93780484D01*
X130292182Y-93784949D01*
X130120213Y-93909890D01*
X129969890Y-94060213D01*
X129844951Y-94232179D01*
X129748444Y-94421585D01*
X129682753Y-94623760D01*
X129649500Y-94833713D01*
X129649500Y-95046287D01*
X129682754Y-95256243D01*
X129745872Y-95450500D01*
X129748444Y-95458414D01*
X129844951Y-95647820D01*
X129969890Y-95819786D01*
X130120213Y-95970109D01*
X130292182Y-96095050D01*
X130300946Y-96099516D01*
X130351742Y-96147491D01*
X130368536Y-96215312D01*
X130345998Y-96281447D01*
X130300946Y-96320484D01*
X130292182Y-96324949D01*
X130120213Y-96449890D01*
X129969890Y-96600213D01*
X129844951Y-96772179D01*
X129748444Y-96961585D01*
X129682753Y-97163760D01*
X129649500Y-97373713D01*
X129649500Y-97586286D01*
X129672456Y-97731228D01*
X129682754Y-97796243D01*
X129742746Y-97980880D01*
X129748444Y-97998414D01*
X129844951Y-98187820D01*
X129969890Y-98359786D01*
X130120213Y-98510109D01*
X130292182Y-98635050D01*
X130300946Y-98639516D01*
X130351742Y-98687491D01*
X130368536Y-98755312D01*
X130345998Y-98821447D01*
X130300946Y-98860484D01*
X130292182Y-98864949D01*
X130120213Y-98989890D01*
X129969890Y-99140213D01*
X129844951Y-99312179D01*
X129748444Y-99501585D01*
X129682753Y-99703760D01*
X129665615Y-99811965D01*
X129649500Y-99913713D01*
X129649500Y-100126287D01*
X129682754Y-100336243D01*
X129735961Y-100499998D01*
X129748444Y-100538414D01*
X129844951Y-100727820D01*
X129969890Y-100899786D01*
X130120213Y-101050109D01*
X130292182Y-101175050D01*
X130300946Y-101179516D01*
X130351742Y-101227491D01*
X130368536Y-101295312D01*
X130345998Y-101361447D01*
X130300946Y-101400484D01*
X130292182Y-101404949D01*
X130120213Y-101529890D01*
X129969890Y-101680213D01*
X129844951Y-101852179D01*
X129748444Y-102041585D01*
X129682753Y-102243760D01*
X129671145Y-102317050D01*
X129649500Y-102453713D01*
X129649500Y-102666287D01*
X129682754Y-102876243D01*
X129741793Y-103057946D01*
X129748444Y-103078414D01*
X129844951Y-103267820D01*
X129969890Y-103439786D01*
X130120213Y-103590109D01*
X130292182Y-103715050D01*
X130300946Y-103719516D01*
X130351742Y-103767491D01*
X130368536Y-103835312D01*
X130345998Y-103901447D01*
X130300946Y-103940484D01*
X130292182Y-103944949D01*
X130120213Y-104069890D01*
X129969890Y-104220213D01*
X129844951Y-104392179D01*
X129748444Y-104581585D01*
X129682753Y-104783760D01*
X129649500Y-104993713D01*
X129649500Y-105206286D01*
X129667015Y-105316875D01*
X129682754Y-105416243D01*
X129745012Y-105607853D01*
X129748444Y-105618414D01*
X129844951Y-105807820D01*
X129969890Y-105979786D01*
X130120213Y-106130109D01*
X130292182Y-106255050D01*
X130300946Y-106259516D01*
X130351742Y-106307491D01*
X130368536Y-106375312D01*
X130345998Y-106441447D01*
X130300946Y-106480484D01*
X130292182Y-106484949D01*
X130120213Y-106609890D01*
X129969890Y-106760213D01*
X129844951Y-106932179D01*
X129748444Y-107121585D01*
X129682753Y-107323760D01*
X129649500Y-107533713D01*
X129649500Y-107746286D01*
X129675994Y-107913566D01*
X129682754Y-107956243D01*
X129746518Y-108152489D01*
X129748444Y-108158414D01*
X129844951Y-108347820D01*
X129969890Y-108519786D01*
X130120213Y-108670109D01*
X130292182Y-108795050D01*
X130300946Y-108799516D01*
X130351742Y-108847491D01*
X130368536Y-108915312D01*
X130345998Y-108981447D01*
X130300946Y-109020484D01*
X130292182Y-109024949D01*
X130120213Y-109149890D01*
X129969890Y-109300213D01*
X129844951Y-109472179D01*
X129748444Y-109661585D01*
X129748443Y-109661587D01*
X129748443Y-109661588D01*
X129715598Y-109762672D01*
X129682753Y-109863760D01*
X129669015Y-109950498D01*
X129649500Y-110073713D01*
X129649500Y-110286287D01*
X129682754Y-110496243D01*
X129713134Y-110589744D01*
X129748444Y-110698414D01*
X129844951Y-110887820D01*
X129969890Y-111059786D01*
X130120213Y-111210109D01*
X130292179Y-111335048D01*
X130292181Y-111335049D01*
X130292184Y-111335051D01*
X130481588Y-111431557D01*
X130683757Y-111497246D01*
X130893713Y-111530500D01*
X130893714Y-111530500D01*
X131106286Y-111530500D01*
X131106287Y-111530500D01*
X131316243Y-111497246D01*
X131518412Y-111431557D01*
X131707816Y-111335051D01*
X131761248Y-111296231D01*
X131879786Y-111210109D01*
X131879788Y-111210106D01*
X131879792Y-111210104D01*
X132030104Y-111059792D01*
X132030106Y-111059788D01*
X132030109Y-111059786D01*
X132155048Y-110887820D01*
X132155047Y-110887820D01*
X132155051Y-110887816D01*
X132251557Y-110698412D01*
X132317246Y-110496243D01*
X132350500Y-110286287D01*
X132350500Y-110073713D01*
X132317246Y-109863757D01*
X132251557Y-109661588D01*
X132155051Y-109472184D01*
X132155049Y-109472181D01*
X132155048Y-109472179D01*
X132030109Y-109300213D01*
X131879786Y-109149890D01*
X131707820Y-109024951D01*
X131707115Y-109024591D01*
X131699054Y-109020485D01*
X131648259Y-108972512D01*
X131631463Y-108904692D01*
X131653999Y-108838556D01*
X131699054Y-108799515D01*
X131707816Y-108795051D01*
X131778155Y-108743947D01*
X131879786Y-108670109D01*
X131879788Y-108670106D01*
X131879792Y-108670104D01*
X132030104Y-108519792D01*
X132030106Y-108519788D01*
X132030109Y-108519786D01*
X132155048Y-108347820D01*
X132155047Y-108347820D01*
X132155051Y-108347816D01*
X132251557Y-108158412D01*
X132317246Y-107956243D01*
X132350500Y-107746287D01*
X132350500Y-107533713D01*
X132317246Y-107323757D01*
X132251557Y-107121588D01*
X132155051Y-106932184D01*
X132155049Y-106932181D01*
X132155048Y-106932179D01*
X132030109Y-106760213D01*
X131879786Y-106609890D01*
X131707820Y-106484951D01*
X131707115Y-106484591D01*
X131699054Y-106480485D01*
X131648259Y-106432512D01*
X131631463Y-106364692D01*
X131653999Y-106298556D01*
X131699054Y-106259515D01*
X131707816Y-106255051D01*
X131743992Y-106228768D01*
X131879786Y-106130109D01*
X131879788Y-106130106D01*
X131879792Y-106130104D01*
X132030104Y-105979792D01*
X132030106Y-105979788D01*
X132030109Y-105979786D01*
X132155048Y-105807820D01*
X132155047Y-105807820D01*
X132155051Y-105807816D01*
X132251557Y-105618412D01*
X132317246Y-105416243D01*
X132350500Y-105206287D01*
X132350500Y-104993713D01*
X132317246Y-104783757D01*
X132251557Y-104581588D01*
X132155051Y-104392184D01*
X132155049Y-104392181D01*
X132155048Y-104392179D01*
X132030109Y-104220213D01*
X131879786Y-104069890D01*
X131707820Y-103944951D01*
X131707115Y-103944591D01*
X131699054Y-103940485D01*
X131648259Y-103892512D01*
X131631463Y-103824692D01*
X131653999Y-103758556D01*
X131699054Y-103719515D01*
X131707816Y-103715051D01*
X131792763Y-103653334D01*
X131879786Y-103590109D01*
X131879788Y-103590106D01*
X131879792Y-103590104D01*
X132030104Y-103439792D01*
X132030106Y-103439788D01*
X132030109Y-103439786D01*
X132155048Y-103267820D01*
X132155047Y-103267820D01*
X132155051Y-103267816D01*
X132251557Y-103078412D01*
X132317246Y-102876243D01*
X132350500Y-102666287D01*
X132350500Y-102453713D01*
X132317246Y-102243757D01*
X132251557Y-102041588D01*
X132155051Y-101852184D01*
X132155049Y-101852181D01*
X132155048Y-101852179D01*
X132030109Y-101680213D01*
X131879786Y-101529890D01*
X131707820Y-101404951D01*
X131703592Y-101402797D01*
X131699054Y-101400485D01*
X131648259Y-101352512D01*
X131631463Y-101284692D01*
X131653999Y-101218556D01*
X131699054Y-101179515D01*
X131707816Y-101175051D01*
X131729789Y-101159086D01*
X131879786Y-101050109D01*
X131879788Y-101050106D01*
X131879792Y-101050104D01*
X132030104Y-100899792D01*
X132030106Y-100899788D01*
X132030109Y-100899786D01*
X132155048Y-100727820D01*
X132155047Y-100727820D01*
X132155051Y-100727816D01*
X132251557Y-100538412D01*
X132317246Y-100336243D01*
X132350500Y-100126287D01*
X132350500Y-99913713D01*
X132317246Y-99703757D01*
X132251557Y-99501588D01*
X132155051Y-99312184D01*
X132155049Y-99312181D01*
X132155048Y-99312179D01*
X132030109Y-99140213D01*
X131879786Y-98989890D01*
X131707820Y-98864951D01*
X131707115Y-98864591D01*
X131699054Y-98860485D01*
X131648259Y-98812512D01*
X131631463Y-98744692D01*
X131653999Y-98678556D01*
X131699054Y-98639515D01*
X131707816Y-98635051D01*
X131737612Y-98613403D01*
X131879786Y-98510109D01*
X131879788Y-98510106D01*
X131879792Y-98510104D01*
X132030104Y-98359792D01*
X132030106Y-98359788D01*
X132030109Y-98359786D01*
X132155048Y-98187820D01*
X132155047Y-98187820D01*
X132155051Y-98187816D01*
X132251557Y-97998412D01*
X132317246Y-97796243D01*
X132350500Y-97586287D01*
X132350500Y-97373713D01*
X132317246Y-97163757D01*
X132251557Y-96961588D01*
X132155051Y-96772184D01*
X132155049Y-96772181D01*
X132155048Y-96772179D01*
X132030109Y-96600213D01*
X131879786Y-96449890D01*
X131707820Y-96324951D01*
X131707115Y-96324591D01*
X131699054Y-96320485D01*
X131648259Y-96272512D01*
X131631463Y-96204692D01*
X131653999Y-96138556D01*
X131699054Y-96099515D01*
X131707816Y-96095051D01*
X131783940Y-96039744D01*
X131879786Y-95970109D01*
X131879788Y-95970106D01*
X131879792Y-95970104D01*
X132030104Y-95819792D01*
X132030106Y-95819788D01*
X132030109Y-95819786D01*
X132155048Y-95647820D01*
X132155047Y-95647820D01*
X132155051Y-95647816D01*
X132251557Y-95458412D01*
X132317246Y-95256243D01*
X132350500Y-95046287D01*
X132350500Y-94833713D01*
X132317246Y-94623757D01*
X132251557Y-94421588D01*
X132155051Y-94232184D01*
X132155049Y-94232181D01*
X132155048Y-94232179D01*
X132030109Y-94060213D01*
X131879786Y-93909890D01*
X131707820Y-93784951D01*
X131701070Y-93781512D01*
X131699054Y-93780485D01*
X131648259Y-93732512D01*
X131631463Y-93664692D01*
X131653999Y-93598556D01*
X131699054Y-93559515D01*
X131707816Y-93555051D01*
X131820302Y-93473326D01*
X131879786Y-93430109D01*
X131879788Y-93430106D01*
X131879792Y-93430104D01*
X132030104Y-93279792D01*
X132030106Y-93279788D01*
X132030109Y-93279786D01*
X132155048Y-93107820D01*
X132155047Y-93107820D01*
X132155051Y-93107816D01*
X132251557Y-92918412D01*
X132317246Y-92716243D01*
X132350500Y-92506287D01*
X132350500Y-92293713D01*
X132317246Y-92083757D01*
X132251557Y-91881588D01*
X132155051Y-91692184D01*
X132155049Y-91692181D01*
X132155048Y-91692179D01*
X132030109Y-91520213D01*
X131879786Y-91369890D01*
X131707820Y-91244951D01*
X131707115Y-91244591D01*
X131699054Y-91240485D01*
X131648259Y-91192512D01*
X131631463Y-91124692D01*
X131653999Y-91058556D01*
X131699054Y-91019515D01*
X131707816Y-91015051D01*
X131769681Y-90970104D01*
X131879786Y-90890109D01*
X131879788Y-90890106D01*
X131879792Y-90890104D01*
X132030104Y-90739792D01*
X132030106Y-90739788D01*
X132030109Y-90739786D01*
X132155048Y-90567820D01*
X132155047Y-90567820D01*
X132155051Y-90567816D01*
X132251557Y-90378412D01*
X132317246Y-90176243D01*
X132350500Y-89966287D01*
X132350500Y-89753713D01*
X132317246Y-89543757D01*
X132251557Y-89341588D01*
X132155051Y-89152184D01*
X132155049Y-89152181D01*
X132155048Y-89152179D01*
X132030109Y-88980213D01*
X131879786Y-88829890D01*
X131707820Y-88704951D01*
X131707115Y-88704591D01*
X131699054Y-88700485D01*
X131648259Y-88652512D01*
X131631463Y-88584692D01*
X131653999Y-88518556D01*
X131699054Y-88479515D01*
X131707816Y-88475051D01*
X131807269Y-88402795D01*
X131879786Y-88350109D01*
X131879788Y-88350106D01*
X131879792Y-88350104D01*
X132030104Y-88199792D01*
X132030106Y-88199788D01*
X132030109Y-88199786D01*
X132155048Y-88027820D01*
X132155047Y-88027820D01*
X132155051Y-88027816D01*
X132251557Y-87838412D01*
X132317246Y-87636243D01*
X132350500Y-87426287D01*
X132350500Y-87213713D01*
X132317246Y-87003757D01*
X132251557Y-86801588D01*
X132155051Y-86612184D01*
X132155049Y-86612181D01*
X132155048Y-86612179D01*
X132030109Y-86440213D01*
X131879786Y-86289890D01*
X131707820Y-86164951D01*
X131707115Y-86164591D01*
X131699054Y-86160485D01*
X131648259Y-86112512D01*
X131631463Y-86044692D01*
X131653999Y-85978556D01*
X131699054Y-85939515D01*
X131707816Y-85935051D01*
X131755373Y-85900499D01*
X131879786Y-85810109D01*
X131879788Y-85810106D01*
X131879792Y-85810104D01*
X132030104Y-85659792D01*
X132030106Y-85659788D01*
X132030109Y-85659786D01*
X132155048Y-85487820D01*
X132155047Y-85487820D01*
X132155051Y-85487816D01*
X132251557Y-85298412D01*
X132317246Y-85096243D01*
X132350500Y-84886287D01*
X132350500Y-84673713D01*
X132317246Y-84463757D01*
X132251557Y-84261588D01*
X132155051Y-84072184D01*
X132155049Y-84072181D01*
X132155048Y-84072179D01*
X132030109Y-83900213D01*
X131879786Y-83749890D01*
X131707820Y-83624951D01*
X131707115Y-83624591D01*
X131699054Y-83620485D01*
X131648259Y-83572512D01*
X131631463Y-83504692D01*
X131653999Y-83438556D01*
X131699054Y-83399515D01*
X131707816Y-83395051D01*
X131769681Y-83350104D01*
X131879786Y-83270109D01*
X131879788Y-83270106D01*
X131879792Y-83270104D01*
X132030104Y-83119792D01*
X132030106Y-83119788D01*
X132030109Y-83119786D01*
X132155048Y-82947820D01*
X132155047Y-82947820D01*
X132155051Y-82947816D01*
X132251557Y-82758412D01*
X132317246Y-82556243D01*
X132350500Y-82346287D01*
X132350500Y-82133713D01*
X132317246Y-81923757D01*
X132251557Y-81721588D01*
X132155051Y-81532184D01*
X132155049Y-81532181D01*
X132155048Y-81532179D01*
X132030109Y-81360213D01*
X131879786Y-81209890D01*
X131707820Y-81084951D01*
X131707115Y-81084591D01*
X131699054Y-81080485D01*
X131648259Y-81032512D01*
X131631463Y-80964692D01*
X131653999Y-80898556D01*
X131699054Y-80859515D01*
X131707816Y-80855051D01*
X131782871Y-80800521D01*
X131879786Y-80730109D01*
X131879788Y-80730106D01*
X131879792Y-80730104D01*
X132030104Y-80579792D01*
X132030106Y-80579788D01*
X132030109Y-80579786D01*
X132155048Y-80407820D01*
X132155047Y-80407820D01*
X132155051Y-80407816D01*
X132251557Y-80218412D01*
X132317246Y-80016243D01*
X132350500Y-79806287D01*
X132350500Y-79593713D01*
X132317246Y-79383757D01*
X132251557Y-79181588D01*
X132155051Y-78992184D01*
X132155049Y-78992181D01*
X132155048Y-78992179D01*
X132030109Y-78820213D01*
X131879786Y-78669890D01*
X131707820Y-78544951D01*
X131707115Y-78544591D01*
X131699054Y-78540485D01*
X131648259Y-78492512D01*
X131631463Y-78424692D01*
X131653999Y-78358556D01*
X131699054Y-78319515D01*
X131707816Y-78315051D01*
X131792643Y-78253421D01*
X131879786Y-78190109D01*
X131879788Y-78190106D01*
X131879792Y-78190104D01*
X132030104Y-78039792D01*
X132030106Y-78039788D01*
X132030109Y-78039786D01*
X132155048Y-77867820D01*
X132155047Y-77867820D01*
X132155051Y-77867816D01*
X132251557Y-77678412D01*
X132317246Y-77476243D01*
X132350500Y-77266287D01*
X132350500Y-77053713D01*
X132317246Y-76843757D01*
X132251557Y-76641588D01*
X132155051Y-76452184D01*
X132155049Y-76452181D01*
X132155048Y-76452179D01*
X132030109Y-76280213D01*
X131879786Y-76129890D01*
X131707818Y-76004950D01*
X131707450Y-76004762D01*
X131699054Y-76000485D01*
X131648259Y-75952512D01*
X131631463Y-75884692D01*
X131653999Y-75818556D01*
X131699054Y-75779515D01*
X131707816Y-75775051D01*
X131767977Y-75731342D01*
X131879786Y-75650109D01*
X131879788Y-75650106D01*
X131879792Y-75650104D01*
X132030104Y-75499792D01*
X132030106Y-75499788D01*
X132030109Y-75499786D01*
X132155048Y-75327820D01*
X132155047Y-75327820D01*
X132155051Y-75327816D01*
X132251557Y-75138412D01*
X132317246Y-74936243D01*
X132350500Y-74726287D01*
X132350500Y-74513713D01*
X132317246Y-74303757D01*
X132251557Y-74101588D01*
X132155051Y-73912184D01*
X132155049Y-73912181D01*
X132155048Y-73912179D01*
X132030109Y-73740213D01*
X131879786Y-73589890D01*
X131707820Y-73464951D01*
X131707115Y-73464591D01*
X131699054Y-73460485D01*
X131648259Y-73412512D01*
X131631463Y-73344692D01*
X131653999Y-73278556D01*
X131699054Y-73239515D01*
X131707816Y-73235051D01*
X131733176Y-73216626D01*
X131879786Y-73110109D01*
X131879788Y-73110106D01*
X131879792Y-73110104D01*
X132030104Y-72959792D01*
X132030106Y-72959788D01*
X132030109Y-72959786D01*
X132155048Y-72787820D01*
X132155047Y-72787820D01*
X132155051Y-72787816D01*
X132251557Y-72598412D01*
X132317246Y-72396243D01*
X132350500Y-72186287D01*
X132350500Y-71973713D01*
X132317246Y-71763757D01*
X132251557Y-71561588D01*
X132155051Y-71372184D01*
X132155049Y-71372181D01*
X132155048Y-71372179D01*
X132030109Y-71200213D01*
X131879786Y-71049890D01*
X131707820Y-70924951D01*
X131707115Y-70924591D01*
X131699054Y-70920485D01*
X131648259Y-70872512D01*
X131631463Y-70804692D01*
X131653999Y-70738556D01*
X131699054Y-70699515D01*
X131707816Y-70695051D01*
X131729789Y-70679086D01*
X131879786Y-70570109D01*
X131879788Y-70570106D01*
X131879792Y-70570104D01*
X132030104Y-70419792D01*
X132030106Y-70419788D01*
X132030109Y-70419786D01*
X132155048Y-70247820D01*
X132155047Y-70247820D01*
X132155051Y-70247816D01*
X132251557Y-70058412D01*
X132317246Y-69856243D01*
X132350500Y-69646287D01*
X132350500Y-69433713D01*
X132317246Y-69223757D01*
X132251557Y-69021588D01*
X132155051Y-68832184D01*
X132155049Y-68832181D01*
X132155048Y-68832179D01*
X132030109Y-68660213D01*
X131879786Y-68509890D01*
X131707820Y-68384951D01*
X131706521Y-68384289D01*
X131699054Y-68380485D01*
X131648259Y-68332512D01*
X131631463Y-68264692D01*
X131653999Y-68198556D01*
X131699054Y-68159515D01*
X131707816Y-68155051D01*
X131734963Y-68135328D01*
X131879786Y-68030109D01*
X131879788Y-68030106D01*
X131879792Y-68030104D01*
X132030104Y-67879792D01*
X132030106Y-67879788D01*
X132030109Y-67879786D01*
X132155048Y-67707820D01*
X132155047Y-67707820D01*
X132155051Y-67707816D01*
X132251557Y-67518412D01*
X132317246Y-67316243D01*
X132350500Y-67106287D01*
X132350500Y-66893713D01*
X132317246Y-66683757D01*
X132251557Y-66481588D01*
X132155051Y-66292184D01*
X132155049Y-66292181D01*
X132155048Y-66292179D01*
X132030109Y-66120213D01*
X131879786Y-65969890D01*
X131707820Y-65844951D01*
X131707115Y-65844591D01*
X131699054Y-65840485D01*
X131648259Y-65792512D01*
X131631463Y-65724692D01*
X131653999Y-65658556D01*
X131699054Y-65619515D01*
X131707816Y-65615051D01*
X131748722Y-65585331D01*
X131879786Y-65490109D01*
X131879788Y-65490106D01*
X131879792Y-65490104D01*
X132030104Y-65339792D01*
X132030106Y-65339788D01*
X132030109Y-65339786D01*
X132155048Y-65167820D01*
X132155047Y-65167820D01*
X132155051Y-65167816D01*
X132251557Y-64978412D01*
X132317246Y-64776243D01*
X132350500Y-64566287D01*
X132350500Y-64353713D01*
X132317246Y-64143757D01*
X132251557Y-63941588D01*
X132155051Y-63752184D01*
X132155049Y-63752181D01*
X132155048Y-63752179D01*
X132030109Y-63580213D01*
X131879786Y-63429890D01*
X131707817Y-63304949D01*
X131698504Y-63300204D01*
X131647707Y-63252230D01*
X131630912Y-63184409D01*
X131653449Y-63118274D01*
X131698507Y-63079232D01*
X131707555Y-63074622D01*
X131761716Y-63035270D01*
X131761717Y-63035270D01*
X131129408Y-62402962D01*
X131192993Y-62385925D01*
X131307007Y-62320099D01*
X131400099Y-62227007D01*
X131465925Y-62112993D01*
X131482962Y-62049408D01*
X132115270Y-62681717D01*
X132115270Y-62681716D01*
X132154622Y-62627554D01*
X132251095Y-62438217D01*
X132316757Y-62236130D01*
X132316757Y-62236127D01*
X132350000Y-62026246D01*
X132350000Y-61813753D01*
X132316757Y-61603872D01*
X132316757Y-61603869D01*
X132251095Y-61401782D01*
X132154624Y-61212449D01*
X132115270Y-61158282D01*
X132115269Y-61158282D01*
X131482962Y-61790590D01*
X131465925Y-61727007D01*
X131400099Y-61612993D01*
X131307007Y-61519901D01*
X131192993Y-61454075D01*
X131129409Y-61437037D01*
X131761716Y-60804728D01*
X131707547Y-60765373D01*
X131707547Y-60765372D01*
X131698500Y-60760763D01*
X131647706Y-60712788D01*
X131630912Y-60644966D01*
X131653451Y-60578832D01*
X131698508Y-60539793D01*
X131707816Y-60535051D01*
X131879792Y-60410104D01*
X131892940Y-60396954D01*
X131921260Y-60380472D01*
X131923735Y-60377693D01*
X131930942Y-60374838D01*
X131947706Y-60365082D01*
X131952017Y-60363894D01*
X131965188Y-60361275D01*
X132061836Y-60342051D01*
X132115165Y-60319961D01*
X132243914Y-60266632D01*
X132407782Y-60157139D01*
X132547139Y-60017782D01*
X132547139Y-60017780D01*
X132557347Y-60007573D01*
X132557348Y-60007570D01*
X133677139Y-58887782D01*
X133763747Y-58758164D01*
X133786632Y-58723914D01*
X133836773Y-58602861D01*
X133862051Y-58541836D01*
X133900500Y-58348541D01*
X133900500Y-58151460D01*
X133900500Y-55424500D01*
X133920185Y-55357461D01*
X133972989Y-55311706D01*
X134024500Y-55300500D01*
X143948543Y-55300500D01*
X143981726Y-55293898D01*
X144069372Y-55276465D01*
X144141836Y-55262051D01*
X144195165Y-55239961D01*
X144323914Y-55186632D01*
X144487782Y-55077139D01*
X144627139Y-54937782D01*
X144627140Y-54937779D01*
X144634206Y-54930714D01*
X144634208Y-54930710D01*
X152628101Y-46936819D01*
X152689424Y-46903334D01*
X152715782Y-46900500D01*
X159234218Y-46900500D01*
X159301257Y-46920185D01*
X159321899Y-46936819D01*
X159963181Y-47578101D01*
X159996666Y-47639424D01*
X159999500Y-47665782D01*
X159999500Y-52000500D01*
X159979815Y-52067539D01*
X159927011Y-52113294D01*
X159875500Y-52124500D01*
X158999998Y-52124500D01*
X158999980Y-52124501D01*
X158897203Y-52135000D01*
X158897200Y-52135001D01*
X158730668Y-52190185D01*
X158730663Y-52190187D01*
X158581342Y-52282289D01*
X158457289Y-52406342D01*
X158365187Y-52555663D01*
X158365185Y-52555668D01*
X158310001Y-52722204D01*
X158310000Y-52722205D01*
X158308377Y-52738101D01*
X158281982Y-52802793D01*
X158224802Y-52842945D01*
X158185019Y-52849500D01*
X157619758Y-52849500D01*
X157552719Y-52829815D01*
X157506964Y-52777011D01*
X157497020Y-52707853D01*
X157526045Y-52644297D01*
X157528598Y-52641554D01*
X157530109Y-52639786D01*
X157655048Y-52467820D01*
X157655047Y-52467820D01*
X157655051Y-52467816D01*
X157751557Y-52278412D01*
X157817246Y-52076243D01*
X157850500Y-51866287D01*
X157850500Y-51653713D01*
X157817246Y-51443757D01*
X157751557Y-51241588D01*
X157655051Y-51052184D01*
X157655049Y-51052181D01*
X157655048Y-51052179D01*
X157530109Y-50880213D01*
X157416569Y-50766673D01*
X157383084Y-50705350D01*
X157388068Y-50635658D01*
X157429940Y-50579725D01*
X157460915Y-50562810D01*
X157592331Y-50513796D01*
X157707546Y-50427546D01*
X157793796Y-50312331D01*
X157844091Y-50177483D01*
X157850500Y-50117873D01*
X157850499Y-48322128D01*
X157844091Y-48262517D01*
X157793796Y-48127669D01*
X157793795Y-48127668D01*
X157793793Y-48127664D01*
X157707547Y-48012455D01*
X157707544Y-48012452D01*
X157592335Y-47926206D01*
X157592328Y-47926202D01*
X157457482Y-47875908D01*
X157457483Y-47875908D01*
X157397883Y-47869501D01*
X157397881Y-47869500D01*
X157397873Y-47869500D01*
X157397864Y-47869500D01*
X155602129Y-47869500D01*
X155602123Y-47869501D01*
X155542516Y-47875908D01*
X155407671Y-47926202D01*
X155407664Y-47926206D01*
X155292455Y-48012452D01*
X155292452Y-48012455D01*
X155206206Y-48127664D01*
X155206202Y-48127671D01*
X155155908Y-48262517D01*
X155149501Y-48322116D01*
X155149501Y-48322123D01*
X155149500Y-48322135D01*
X155149500Y-50117870D01*
X155149501Y-50117876D01*
X155155908Y-50177483D01*
X155206202Y-50312328D01*
X155206206Y-50312335D01*
X155292452Y-50427544D01*
X155292455Y-50427547D01*
X155407664Y-50513793D01*
X155407671Y-50513797D01*
X155539082Y-50562810D01*
X155595016Y-50604681D01*
X155619433Y-50670145D01*
X155604582Y-50738418D01*
X155583431Y-50766673D01*
X155469889Y-50880215D01*
X155342085Y-51056125D01*
X155340740Y-51055148D01*
X155294295Y-51097166D01*
X155240382Y-51109500D01*
X153775929Y-51109500D01*
X153650261Y-51134497D01*
X153650251Y-51134500D01*
X153601220Y-51154810D01*
X153531881Y-51183530D01*
X153531863Y-51183540D01*
X153425332Y-51254721D01*
X153425325Y-51254727D01*
X147394726Y-57285326D01*
X147323534Y-57391874D01*
X147274499Y-57510255D01*
X147274497Y-57510261D01*
X147249500Y-57635928D01*
X147249500Y-110057181D01*
X147229815Y-110124220D01*
X147177011Y-110169975D01*
X147107853Y-110179919D01*
X147044297Y-110150894D01*
X147006523Y-110092116D01*
X147005736Y-110089315D01*
X146956054Y-109903900D01*
X146863224Y-109679788D01*
X146741936Y-109469711D01*
X146594265Y-109277262D01*
X146594260Y-109277256D01*
X146422743Y-109105739D01*
X146422736Y-109105733D01*
X146230293Y-108958067D01*
X146230292Y-108958066D01*
X146230289Y-108958064D01*
X146038771Y-108847491D01*
X146020214Y-108836777D01*
X146020205Y-108836773D01*
X145796104Y-108743947D01*
X145561785Y-108681161D01*
X145321289Y-108649500D01*
X145321288Y-108649500D01*
X145078712Y-108649500D01*
X145078711Y-108649500D01*
X144838214Y-108681161D01*
X144603895Y-108743947D01*
X144379794Y-108836773D01*
X144379785Y-108836777D01*
X144221016Y-108928443D01*
X144170607Y-108957547D01*
X144169706Y-108958067D01*
X143977263Y-109105733D01*
X143977256Y-109105739D01*
X143805739Y-109277256D01*
X143805733Y-109277263D01*
X143658067Y-109469706D01*
X143536777Y-109679785D01*
X143536773Y-109679794D01*
X143443947Y-109903895D01*
X143381161Y-110138214D01*
X143349500Y-110378711D01*
X143349500Y-110621288D01*
X143381161Y-110861785D01*
X143443947Y-111096104D01*
X143536773Y-111320205D01*
X143536777Y-111320214D01*
X143545343Y-111335051D01*
X143658064Y-111530289D01*
X143658066Y-111530292D01*
X143658067Y-111530293D01*
X143805733Y-111722736D01*
X143805739Y-111722743D01*
X143977256Y-111894260D01*
X143977262Y-111894265D01*
X144169711Y-112041936D01*
X144379788Y-112163224D01*
X144603900Y-112256054D01*
X144838211Y-112318838D01*
X145018586Y-112342584D01*
X145078711Y-112350500D01*
X145078712Y-112350500D01*
X145321289Y-112350500D01*
X145369388Y-112344167D01*
X145561789Y-112318838D01*
X145796100Y-112256054D01*
X146020212Y-112163224D01*
X146230289Y-112041936D01*
X146422738Y-111894265D01*
X146594265Y-111722738D01*
X146741936Y-111530289D01*
X146863224Y-111320212D01*
X146956054Y-111096100D01*
X147005726Y-110910721D01*
X147042090Y-110851064D01*
X147104937Y-110820535D01*
X147174313Y-110828830D01*
X147228191Y-110873315D01*
X147249465Y-110939867D01*
X147249500Y-110942818D01*
X147249500Y-111214069D01*
X147249500Y-111214071D01*
X147249499Y-111214071D01*
X147274497Y-111339738D01*
X147274499Y-111339744D01*
X147323535Y-111458127D01*
X147394723Y-111564669D01*
X147394726Y-111564673D01*
X150785326Y-114955273D01*
X150785329Y-114955275D01*
X150785331Y-114955277D01*
X150891873Y-115026465D01*
X151010256Y-115075501D01*
X151010260Y-115075501D01*
X151010261Y-115075502D01*
X151135928Y-115100500D01*
X151135931Y-115100500D01*
X182514071Y-115100500D01*
X182598615Y-115083682D01*
X182639744Y-115075501D01*
X182758127Y-115026465D01*
X182864669Y-114955277D01*
X185205277Y-112614669D01*
X185276466Y-112508126D01*
X185325501Y-112389743D01*
X185328534Y-112374499D01*
X185334071Y-112346666D01*
X185350499Y-112264073D01*
X185350500Y-112264071D01*
X185350500Y-110378711D01*
X187649500Y-110378711D01*
X187649500Y-110621288D01*
X187681161Y-110861785D01*
X187743947Y-111096104D01*
X187836773Y-111320205D01*
X187836777Y-111320214D01*
X187845343Y-111335051D01*
X187958064Y-111530289D01*
X187958066Y-111530292D01*
X187958067Y-111530293D01*
X188105733Y-111722736D01*
X188105739Y-111722743D01*
X188277256Y-111894260D01*
X188277262Y-111894265D01*
X188469711Y-112041936D01*
X188679788Y-112163224D01*
X188903900Y-112256054D01*
X189138211Y-112318838D01*
X189318586Y-112342584D01*
X189378711Y-112350500D01*
X189378712Y-112350500D01*
X189621289Y-112350500D01*
X189669388Y-112344167D01*
X189861789Y-112318838D01*
X190096100Y-112256054D01*
X190320212Y-112163224D01*
X190530289Y-112041936D01*
X190722738Y-111894265D01*
X190894265Y-111722738D01*
X191041936Y-111530289D01*
X191163224Y-111320212D01*
X191256054Y-111096100D01*
X191318838Y-110861789D01*
X191350500Y-110621288D01*
X191350500Y-110378712D01*
X191318838Y-110138211D01*
X191256054Y-109903900D01*
X191163224Y-109679788D01*
X191041936Y-109469711D01*
X190894265Y-109277262D01*
X190894260Y-109277256D01*
X190722743Y-109105739D01*
X190722736Y-109105733D01*
X190530293Y-108958067D01*
X190530292Y-108958066D01*
X190530289Y-108958064D01*
X190338771Y-108847491D01*
X190320214Y-108836777D01*
X190320205Y-108836773D01*
X190096104Y-108743947D01*
X189861785Y-108681161D01*
X189621289Y-108649500D01*
X189621288Y-108649500D01*
X189378712Y-108649500D01*
X189378711Y-108649500D01*
X189138214Y-108681161D01*
X188903895Y-108743947D01*
X188679794Y-108836773D01*
X188679785Y-108836777D01*
X188521016Y-108928443D01*
X188470607Y-108957547D01*
X188469706Y-108958067D01*
X188277263Y-109105733D01*
X188277256Y-109105739D01*
X188105739Y-109277256D01*
X188105733Y-109277263D01*
X187958067Y-109469706D01*
X187836777Y-109679785D01*
X187836773Y-109679794D01*
X187743947Y-109903895D01*
X187681161Y-110138214D01*
X187649500Y-110378711D01*
X185350500Y-110378711D01*
X185350500Y-108995808D01*
X185370185Y-108928769D01*
X185386819Y-108908127D01*
X187408127Y-106886819D01*
X187469450Y-106853334D01*
X187495808Y-106850500D01*
X188018343Y-106850500D01*
X188018348Y-106850500D01*
X188120275Y-106840087D01*
X188285425Y-106785362D01*
X188433503Y-106694026D01*
X188556526Y-106571003D01*
X188556958Y-106570301D01*
X188557381Y-106569921D01*
X188561007Y-106565336D01*
X188561790Y-106565955D01*
X188608902Y-106523575D01*
X188677864Y-106512349D01*
X188741948Y-106540188D01*
X188763842Y-106565455D01*
X188763993Y-106565336D01*
X188766643Y-106568687D01*
X188768040Y-106570299D01*
X188768473Y-106571001D01*
X188768475Y-106571004D01*
X188891496Y-106694025D01*
X188891500Y-106694028D01*
X189039566Y-106785357D01*
X189039569Y-106785358D01*
X189039575Y-106785362D01*
X189204725Y-106840087D01*
X189306652Y-106850500D01*
X189306657Y-106850500D01*
X189893343Y-106850500D01*
X189893348Y-106850500D01*
X189995275Y-106840087D01*
X190160425Y-106785362D01*
X190308503Y-106694026D01*
X190431526Y-106571003D01*
X190439590Y-106557928D01*
X190491535Y-106511203D01*
X190560497Y-106499978D01*
X190624580Y-106527819D01*
X190650667Y-106557923D01*
X190657285Y-106568652D01*
X190657288Y-106568656D01*
X190781344Y-106692712D01*
X190930666Y-106784814D01*
X191097203Y-106839999D01*
X191199991Y-106850500D01*
X192200008Y-106850499D01*
X192200016Y-106850498D01*
X192200019Y-106850498D01*
X192272352Y-106843109D01*
X192302797Y-106839999D01*
X192469334Y-106784814D01*
X192618656Y-106692712D01*
X192742712Y-106568656D01*
X192834814Y-106419334D01*
X192889999Y-106252797D01*
X192900500Y-106150009D01*
X192900499Y-105349992D01*
X192889999Y-105247203D01*
X192834814Y-105080666D01*
X192742712Y-104931344D01*
X192648695Y-104837327D01*
X192615210Y-104776004D01*
X192620194Y-104706312D01*
X192648695Y-104661964D01*
X192742317Y-104568342D01*
X192834356Y-104419124D01*
X192834358Y-104419119D01*
X192889505Y-104252697D01*
X192889506Y-104252690D01*
X192899999Y-104149986D01*
X192900000Y-104149973D01*
X192900000Y-104000000D01*
X191824000Y-104000000D01*
X191756961Y-103980315D01*
X191711206Y-103927511D01*
X191700000Y-103876000D01*
X191700000Y-103750000D01*
X191574000Y-103750000D01*
X191506961Y-103730315D01*
X191461206Y-103677511D01*
X191450000Y-103626000D01*
X191450000Y-103500000D01*
X191950000Y-103500000D01*
X192899999Y-103500000D01*
X192899999Y-103350028D01*
X192899998Y-103350013D01*
X192889505Y-103247302D01*
X192834358Y-103080880D01*
X192834356Y-103080875D01*
X192742315Y-102931654D01*
X192618345Y-102807684D01*
X192469124Y-102715643D01*
X192469119Y-102715641D01*
X192302697Y-102660494D01*
X192302690Y-102660493D01*
X192199986Y-102650000D01*
X191950000Y-102650000D01*
X191950000Y-103500000D01*
X191450000Y-103500000D01*
X191450000Y-102650000D01*
X191447653Y-102647653D01*
X191414168Y-102586330D01*
X191419152Y-102516638D01*
X191447650Y-102472294D01*
X191883127Y-102036817D01*
X191944450Y-102003333D01*
X191970808Y-102000499D01*
X192200002Y-102000499D01*
X192200008Y-102000499D01*
X192302797Y-101989999D01*
X192469334Y-101934814D01*
X192618656Y-101842712D01*
X192742712Y-101718656D01*
X192834814Y-101569334D01*
X192889999Y-101402797D01*
X192900500Y-101300009D01*
X192900499Y-100499992D01*
X192889999Y-100397203D01*
X192834814Y-100230666D01*
X192742712Y-100081344D01*
X192648695Y-99987327D01*
X192615210Y-99926004D01*
X192620194Y-99856312D01*
X192648695Y-99811964D01*
X192742317Y-99718342D01*
X192834356Y-99569124D01*
X192834358Y-99569119D01*
X192889505Y-99402697D01*
X192889506Y-99402690D01*
X192899999Y-99299986D01*
X192900000Y-99299973D01*
X192900000Y-99150000D01*
X191824000Y-99150000D01*
X191756961Y-99130315D01*
X191711206Y-99077511D01*
X191700000Y-99026000D01*
X191700000Y-98900000D01*
X191574000Y-98900000D01*
X191506961Y-98880315D01*
X191461206Y-98827511D01*
X191450000Y-98776000D01*
X191450000Y-98650000D01*
X191950000Y-98650000D01*
X192899999Y-98650000D01*
X192899999Y-98500028D01*
X192899998Y-98500013D01*
X192889505Y-98397302D01*
X192834358Y-98230880D01*
X192834356Y-98230875D01*
X192742315Y-98081654D01*
X192618345Y-97957684D01*
X192469124Y-97865643D01*
X192469119Y-97865641D01*
X192302697Y-97810494D01*
X192302690Y-97810493D01*
X192199986Y-97800000D01*
X191950000Y-97800000D01*
X191950000Y-98650000D01*
X191450000Y-98650000D01*
X191450000Y-97800000D01*
X191200029Y-97800000D01*
X191200012Y-97800001D01*
X191097302Y-97810494D01*
X190930880Y-97865641D01*
X190930875Y-97865643D01*
X190806773Y-97942191D01*
X190739380Y-97960631D01*
X190672717Y-97939708D01*
X190636137Y-97901748D01*
X190608512Y-97856961D01*
X190592712Y-97831344D01*
X190468656Y-97707288D01*
X190319334Y-97615186D01*
X190152797Y-97560001D01*
X190152795Y-97560000D01*
X190050010Y-97549500D01*
X189249998Y-97549500D01*
X189249980Y-97549501D01*
X189147203Y-97560000D01*
X189147200Y-97560001D01*
X188980668Y-97615185D01*
X188980663Y-97615187D01*
X188831345Y-97707287D01*
X188737327Y-97801305D01*
X188676003Y-97834789D01*
X188606312Y-97829805D01*
X188561965Y-97801304D01*
X188468345Y-97707684D01*
X188319124Y-97615643D01*
X188319119Y-97615641D01*
X188152697Y-97560494D01*
X188152690Y-97560493D01*
X188049986Y-97550000D01*
X187900000Y-97550000D01*
X187900000Y-98626000D01*
X187880315Y-98693039D01*
X187827511Y-98738794D01*
X187776000Y-98750000D01*
X187650000Y-98750000D01*
X187650000Y-98876000D01*
X187630315Y-98943039D01*
X187577511Y-98988794D01*
X187526000Y-99000000D01*
X186550001Y-99000000D01*
X186550001Y-99249986D01*
X186560494Y-99352697D01*
X186615641Y-99519119D01*
X186615643Y-99519124D01*
X186707684Y-99668345D01*
X186831654Y-99792315D01*
X186980875Y-99884356D01*
X186980879Y-99884358D01*
X186985350Y-99885839D01*
X187042797Y-99925608D01*
X187069624Y-99990122D01*
X187057313Y-100058899D01*
X187020429Y-100099299D01*
X187022164Y-100101493D01*
X187016496Y-100105974D01*
X186893474Y-100228996D01*
X186893471Y-100229000D01*
X186802142Y-100377066D01*
X186802137Y-100377077D01*
X186747413Y-100542223D01*
X186737000Y-100644144D01*
X186737000Y-101166691D01*
X186717315Y-101233730D01*
X186700681Y-101254372D01*
X182744727Y-105210325D01*
X182744726Y-105210326D01*
X182691663Y-105289743D01*
X182691661Y-105289745D01*
X182673539Y-105316865D01*
X182673533Y-105316875D01*
X182624499Y-105435255D01*
X182624497Y-105435261D01*
X182599500Y-105560928D01*
X182599500Y-105670030D01*
X182579815Y-105737069D01*
X182527011Y-105782824D01*
X182457853Y-105792768D01*
X182436497Y-105787736D01*
X182352799Y-105760001D01*
X182352795Y-105760000D01*
X182250016Y-105749500D01*
X182250009Y-105749500D01*
X181869807Y-105749500D01*
X181802768Y-105729815D01*
X181757013Y-105677011D01*
X181747069Y-105607853D01*
X181776094Y-105544297D01*
X181782126Y-105537819D01*
X182277721Y-105042225D01*
X182955276Y-104364670D01*
X183026465Y-104258127D01*
X183075501Y-104139744D01*
X183083506Y-104099500D01*
X183086189Y-104086010D01*
X183118568Y-104024102D01*
X183134910Y-104009889D01*
X183288774Y-103898101D01*
X183297215Y-103891969D01*
X183297215Y-103891968D01*
X183297219Y-103891966D01*
X183441966Y-103747219D01*
X183441968Y-103747215D01*
X183441971Y-103747213D01*
X183530036Y-103626000D01*
X183562287Y-103581610D01*
X183655220Y-103399219D01*
X183718477Y-103204534D01*
X183750500Y-103002352D01*
X183750500Y-102797648D01*
X183718477Y-102595465D01*
X183678455Y-102472291D01*
X183655220Y-102400781D01*
X183655218Y-102400778D01*
X183655218Y-102400776D01*
X183603865Y-102299992D01*
X183562287Y-102218390D01*
X183533190Y-102178341D01*
X183441971Y-102052786D01*
X183297213Y-101908028D01*
X183131613Y-101787715D01*
X183131612Y-101787714D01*
X183131610Y-101787713D01*
X183071898Y-101757288D01*
X182949223Y-101694781D01*
X182754534Y-101631522D01*
X182579995Y-101603878D01*
X182552352Y-101599500D01*
X182347648Y-101599500D01*
X182323329Y-101603351D01*
X182145465Y-101631522D01*
X181950776Y-101694781D01*
X181768386Y-101787715D01*
X181602786Y-101908028D01*
X181458028Y-102052786D01*
X181337715Y-102218386D01*
X181244781Y-102400776D01*
X181181522Y-102595465D01*
X181149500Y-102797648D01*
X181149500Y-103002351D01*
X181181522Y-103204534D01*
X181244781Y-103399223D01*
X181337715Y-103581613D01*
X181458028Y-103747213D01*
X181507753Y-103796938D01*
X181541238Y-103858261D01*
X181536254Y-103927953D01*
X181507753Y-103972300D01*
X179736872Y-105743181D01*
X179675549Y-105776666D01*
X179649191Y-105779500D01*
X179200808Y-105779500D01*
X179133769Y-105759815D01*
X179113127Y-105743181D01*
X177964674Y-104594727D01*
X177964673Y-104594726D01*
X177964666Y-104594721D01*
X177858127Y-104523535D01*
X177739744Y-104474499D01*
X177739738Y-104474497D01*
X177614071Y-104449500D01*
X177614069Y-104449500D01*
X173185931Y-104449500D01*
X173185929Y-104449500D01*
X173060261Y-104474497D01*
X173060251Y-104474500D01*
X173011220Y-104494810D01*
X172941881Y-104523530D01*
X172941863Y-104523540D01*
X172835332Y-104594721D01*
X172835325Y-104594727D01*
X171444726Y-105985326D01*
X171431453Y-106005192D01*
X171396084Y-106058126D01*
X171373535Y-106091873D01*
X171327844Y-106202179D01*
X171326292Y-106205394D01*
X171305140Y-106228768D01*
X171285351Y-106253325D01*
X171280050Y-106256495D01*
X171279412Y-106257201D01*
X171278424Y-106257468D01*
X171270928Y-106261952D01*
X171163569Y-106316655D01*
X171082553Y-106375517D01*
X170972490Y-106455483D01*
X170972488Y-106455485D01*
X170972487Y-106455485D01*
X170805485Y-106622487D01*
X170805485Y-106622488D01*
X170805483Y-106622490D01*
X170749354Y-106699745D01*
X170666657Y-106813566D01*
X170559433Y-107024003D01*
X170486446Y-107248631D01*
X170449500Y-107481902D01*
X170449500Y-107718097D01*
X170486446Y-107951368D01*
X170559433Y-108175996D01*
X170646983Y-108347820D01*
X170666657Y-108386433D01*
X170805483Y-108577510D01*
X170972490Y-108744517D01*
X171163567Y-108883343D01*
X171226310Y-108915312D01*
X171374003Y-108990566D01*
X171374005Y-108990566D01*
X171374008Y-108990568D01*
X171479828Y-109024951D01*
X171598631Y-109063553D01*
X171831903Y-109100500D01*
X171831908Y-109100500D01*
X172068097Y-109100500D01*
X172301368Y-109063553D01*
X172525992Y-108990568D01*
X172736433Y-108883343D01*
X172927510Y-108744517D01*
X173094517Y-108577510D01*
X173233343Y-108386433D01*
X173340568Y-108175992D01*
X173413553Y-107951368D01*
X173416844Y-107930591D01*
X173450500Y-107718097D01*
X173450500Y-107481902D01*
X173413553Y-107248631D01*
X173375187Y-107130553D01*
X173340568Y-107024008D01*
X173340566Y-107024005D01*
X173340566Y-107024003D01*
X173272754Y-106890916D01*
X173233343Y-106813567D01*
X173094517Y-106622490D01*
X172958667Y-106486640D01*
X172925182Y-106425317D01*
X172930166Y-106355625D01*
X172958667Y-106311278D01*
X173206765Y-106063181D01*
X173483127Y-105786819D01*
X173544450Y-105753334D01*
X173570808Y-105750500D01*
X175915311Y-105750500D01*
X175982350Y-105770185D01*
X176028105Y-105822989D01*
X176038049Y-105892147D01*
X176012185Y-105948780D01*
X176011466Y-105957913D01*
X176608553Y-106555000D01*
X176580630Y-106555000D01*
X176485255Y-106580556D01*
X176399745Y-106629925D01*
X176329925Y-106699745D01*
X176280556Y-106785255D01*
X176255000Y-106880630D01*
X176255000Y-106908553D01*
X175657913Y-106311466D01*
X175657912Y-106311466D01*
X175646432Y-106327269D01*
X175564254Y-106488547D01*
X175564251Y-106488555D01*
X175508317Y-106660706D01*
X175480000Y-106839493D01*
X175480000Y-107020506D01*
X175508317Y-107199293D01*
X175564251Y-107371444D01*
X175564252Y-107371447D01*
X175646431Y-107532730D01*
X175657913Y-107548532D01*
X175657913Y-107548533D01*
X176255000Y-106951446D01*
X176255000Y-106979370D01*
X176280556Y-107074745D01*
X176329925Y-107160255D01*
X176399745Y-107230075D01*
X176485255Y-107279444D01*
X176580630Y-107305000D01*
X176608552Y-107305000D01*
X176011466Y-107902085D01*
X176011466Y-107902086D01*
X176027267Y-107913566D01*
X176027275Y-107913571D01*
X176188552Y-107995747D01*
X176188555Y-107995748D01*
X176360706Y-108051682D01*
X176539494Y-108080000D01*
X176625500Y-108080000D01*
X176692539Y-108099685D01*
X176738294Y-108152489D01*
X176749500Y-108204000D01*
X176749500Y-108290551D01*
X176777829Y-108469410D01*
X176833787Y-108641636D01*
X176833788Y-108641639D01*
X176867338Y-108707483D01*
X176911956Y-108795050D01*
X176916006Y-108802997D01*
X177022441Y-108949494D01*
X177022445Y-108949499D01*
X177150500Y-109077554D01*
X177150505Y-109077558D01*
X177250063Y-109149890D01*
X177297006Y-109183996D01*
X177402484Y-109237740D01*
X177458360Y-109266211D01*
X177458363Y-109266212D01*
X177544476Y-109294191D01*
X177630591Y-109322171D01*
X177713429Y-109335291D01*
X177809449Y-109350500D01*
X177809454Y-109350500D01*
X177990551Y-109350500D01*
X178077259Y-109336765D01*
X178169409Y-109322171D01*
X178341639Y-109266211D01*
X178502994Y-109183996D01*
X178649501Y-109077553D01*
X178777553Y-108949501D01*
X178792616Y-108928769D01*
X178812345Y-108901615D01*
X178867674Y-108858949D01*
X178912663Y-108850500D01*
X180425500Y-108850500D01*
X180492539Y-108870185D01*
X180538294Y-108922989D01*
X180549500Y-108974500D01*
X180549500Y-108979191D01*
X180529815Y-109046230D01*
X180513181Y-109066872D01*
X178116873Y-111463181D01*
X178055550Y-111496666D01*
X178029192Y-111499500D01*
X157363105Y-111499500D01*
X157296066Y-111479815D01*
X157250311Y-111427011D01*
X157240367Y-111357853D01*
X157269392Y-111294297D01*
X157290217Y-111275182D01*
X157379792Y-111210104D01*
X157530104Y-111059792D01*
X157530106Y-111059788D01*
X157530109Y-111059786D01*
X157655048Y-110887820D01*
X157655047Y-110887820D01*
X157655051Y-110887816D01*
X157751557Y-110698412D01*
X157817246Y-110496243D01*
X157850500Y-110286287D01*
X157850500Y-110073713D01*
X157817246Y-109863757D01*
X157751557Y-109661588D01*
X157655051Y-109472184D01*
X157655049Y-109472181D01*
X157655048Y-109472179D01*
X157530109Y-109300213D01*
X157379786Y-109149890D01*
X157207820Y-109024951D01*
X157207115Y-109024591D01*
X157199054Y-109020485D01*
X157148259Y-108972512D01*
X157131463Y-108904692D01*
X157153999Y-108838556D01*
X157199054Y-108799515D01*
X157207816Y-108795051D01*
X157278155Y-108743947D01*
X157379786Y-108670109D01*
X157379788Y-108670106D01*
X157379792Y-108670104D01*
X157530104Y-108519792D01*
X157530106Y-108519788D01*
X157530109Y-108519786D01*
X157655048Y-108347820D01*
X157655047Y-108347820D01*
X157655051Y-108347816D01*
X157751557Y-108158412D01*
X157817246Y-107956243D01*
X157850500Y-107746287D01*
X157850500Y-107533713D01*
X157817246Y-107323757D01*
X157751557Y-107121588D01*
X157655051Y-106932184D01*
X157655049Y-106932181D01*
X157655048Y-106932179D01*
X157530109Y-106760213D01*
X157379786Y-106609890D01*
X157300292Y-106552135D01*
X162849500Y-106552135D01*
X162849500Y-108647870D01*
X162849501Y-108647876D01*
X162855908Y-108707483D01*
X162906202Y-108842328D01*
X162906206Y-108842335D01*
X162992452Y-108957544D01*
X162992455Y-108957547D01*
X163107664Y-109043793D01*
X163107671Y-109043797D01*
X163242517Y-109094091D01*
X163242516Y-109094091D01*
X163249444Y-109094835D01*
X163302127Y-109100500D01*
X165397872Y-109100499D01*
X165457483Y-109094091D01*
X165592331Y-109043796D01*
X165707546Y-108957546D01*
X165793796Y-108842331D01*
X165844091Y-108707483D01*
X165850500Y-108647873D01*
X165850499Y-107212228D01*
X165870184Y-107145190D01*
X165886813Y-107124553D01*
X169324549Y-103686819D01*
X169385872Y-103653334D01*
X169412230Y-103650500D01*
X173466267Y-103650500D01*
X173533306Y-103670185D01*
X173579061Y-103722989D01*
X173583972Y-103735494D01*
X173588779Y-103750000D01*
X173595186Y-103769334D01*
X173687288Y-103918656D01*
X173811344Y-104042712D01*
X173960666Y-104134814D01*
X174127203Y-104189999D01*
X174229991Y-104200500D01*
X175430008Y-104200499D01*
X175532797Y-104189999D01*
X175699334Y-104134814D01*
X175848656Y-104042712D01*
X175972712Y-103918656D01*
X176064814Y-103769334D01*
X176119999Y-103602797D01*
X176130500Y-103500009D01*
X176130499Y-102299992D01*
X176119999Y-102197203D01*
X176064814Y-102030666D01*
X175972712Y-101881344D01*
X175848656Y-101757288D01*
X175699334Y-101665186D01*
X175532797Y-101610001D01*
X175532795Y-101610000D01*
X175430010Y-101599500D01*
X174229998Y-101599500D01*
X174229981Y-101599501D01*
X174127203Y-101610000D01*
X174127200Y-101610001D01*
X173960668Y-101665185D01*
X173960663Y-101665187D01*
X173811342Y-101757289D01*
X173687289Y-101881342D01*
X173595187Y-102030663D01*
X173595184Y-102030671D01*
X173583972Y-102064506D01*
X173544199Y-102121950D01*
X173479683Y-102148772D01*
X173466267Y-102149500D01*
X168976076Y-102149500D01*
X168947242Y-102155234D01*
X168947243Y-102155235D01*
X168831092Y-102178339D01*
X168831086Y-102178341D01*
X168760023Y-102207777D01*
X168760016Y-102207780D01*
X168754868Y-102209913D01*
X168694505Y-102234916D01*
X168650023Y-102264638D01*
X168644546Y-102268297D01*
X168644543Y-102268299D01*
X168571582Y-102317049D01*
X168571581Y-102317050D01*
X164825449Y-106063181D01*
X164764126Y-106096666D01*
X164737768Y-106099500D01*
X163302129Y-106099500D01*
X163302123Y-106099501D01*
X163242516Y-106105908D01*
X163107671Y-106156202D01*
X163107664Y-106156206D01*
X162992455Y-106242452D01*
X162992452Y-106242455D01*
X162906206Y-106357664D01*
X162906202Y-106357671D01*
X162855908Y-106492517D01*
X162849501Y-106552116D01*
X162849500Y-106552135D01*
X157300292Y-106552135D01*
X157207820Y-106484951D01*
X157207115Y-106484591D01*
X157199054Y-106480485D01*
X157148259Y-106432512D01*
X157131463Y-106364692D01*
X157153999Y-106298556D01*
X157199054Y-106259515D01*
X157207816Y-106255051D01*
X157243992Y-106228768D01*
X157379786Y-106130109D01*
X157379788Y-106130106D01*
X157379792Y-106130104D01*
X157530104Y-105979792D01*
X157530106Y-105979788D01*
X157530109Y-105979786D01*
X157655048Y-105807820D01*
X157655047Y-105807820D01*
X157655051Y-105807816D01*
X157751557Y-105618412D01*
X157817246Y-105416243D01*
X157850500Y-105206287D01*
X157850500Y-104993713D01*
X157817246Y-104783757D01*
X157751557Y-104581588D01*
X157655051Y-104392184D01*
X157655049Y-104392181D01*
X157655048Y-104392179D01*
X157530109Y-104220213D01*
X157379786Y-104069890D01*
X157207820Y-103944951D01*
X157207115Y-103944591D01*
X157199054Y-103940485D01*
X157148259Y-103892512D01*
X157131463Y-103824692D01*
X157153999Y-103758556D01*
X157199054Y-103719515D01*
X157207816Y-103715051D01*
X157292763Y-103653334D01*
X157379786Y-103590109D01*
X157379788Y-103590106D01*
X157379792Y-103590104D01*
X157530104Y-103439792D01*
X157530106Y-103439788D01*
X157530109Y-103439786D01*
X157655048Y-103267820D01*
X157655047Y-103267820D01*
X157655051Y-103267816D01*
X157751557Y-103078412D01*
X157817246Y-102876243D01*
X157850500Y-102666287D01*
X157850500Y-102453713D01*
X157817246Y-102243757D01*
X157751557Y-102041588D01*
X157655051Y-101852184D01*
X157655049Y-101852181D01*
X157655048Y-101852179D01*
X157530109Y-101680213D01*
X157379786Y-101529890D01*
X157207820Y-101404951D01*
X157203592Y-101402797D01*
X157199054Y-101400485D01*
X157148259Y-101352512D01*
X157131463Y-101284692D01*
X157153999Y-101218556D01*
X157199054Y-101179515D01*
X157207816Y-101175051D01*
X157229789Y-101159086D01*
X157379786Y-101050109D01*
X157379788Y-101050106D01*
X157379792Y-101050104D01*
X157530104Y-100899792D01*
X157530106Y-100899788D01*
X157530109Y-100899786D01*
X157655048Y-100727820D01*
X157655047Y-100727820D01*
X157655051Y-100727816D01*
X157751557Y-100538412D01*
X157817246Y-100336243D01*
X157850500Y-100126287D01*
X157850500Y-99913713D01*
X157817246Y-99703757D01*
X157751557Y-99501588D01*
X157655051Y-99312184D01*
X157655049Y-99312181D01*
X157655048Y-99312179D01*
X157530109Y-99140213D01*
X157379786Y-98989890D01*
X157207820Y-98864951D01*
X157207115Y-98864591D01*
X157199054Y-98860485D01*
X157148259Y-98812512D01*
X157131463Y-98744692D01*
X157153999Y-98678556D01*
X157199054Y-98639515D01*
X157207816Y-98635051D01*
X157237612Y-98613403D01*
X157379786Y-98510109D01*
X157379788Y-98510106D01*
X157379792Y-98510104D01*
X157530104Y-98359792D01*
X157530106Y-98359788D01*
X157530109Y-98359786D01*
X157655048Y-98187820D01*
X157655047Y-98187820D01*
X157655051Y-98187816D01*
X157751557Y-97998412D01*
X157817246Y-97796243D01*
X157850500Y-97586287D01*
X157850500Y-97373713D01*
X157817246Y-97163757D01*
X157751557Y-96961588D01*
X157655051Y-96772184D01*
X157655049Y-96772181D01*
X157655048Y-96772179D01*
X157530109Y-96600213D01*
X157379786Y-96449890D01*
X157207820Y-96324951D01*
X157207115Y-96324591D01*
X157199054Y-96320485D01*
X157148259Y-96272512D01*
X157131463Y-96204692D01*
X157153999Y-96138556D01*
X157199054Y-96099515D01*
X157207816Y-96095051D01*
X157283940Y-96039744D01*
X157379786Y-95970109D01*
X157379788Y-95970106D01*
X157379792Y-95970104D01*
X157530104Y-95819792D01*
X157530106Y-95819788D01*
X157530109Y-95819786D01*
X157655048Y-95647820D01*
X157655047Y-95647820D01*
X157655051Y-95647816D01*
X157721091Y-95518205D01*
X157769066Y-95467409D01*
X157831576Y-95450500D01*
X158129092Y-95450500D01*
X158196131Y-95470185D01*
X158234636Y-95514271D01*
X158236395Y-95513187D01*
X158240185Y-95519332D01*
X158240186Y-95519334D01*
X158332288Y-95668656D01*
X158456344Y-95792712D01*
X158605666Y-95884814D01*
X158772203Y-95939999D01*
X158874991Y-95950500D01*
X160225008Y-95950499D01*
X160327797Y-95939999D01*
X160494334Y-95884814D01*
X160510404Y-95874901D01*
X160577795Y-95856462D01*
X160644459Y-95877384D01*
X160689229Y-95931026D01*
X160699500Y-95980441D01*
X160699500Y-96214071D01*
X160709871Y-96266206D01*
X160721556Y-96324949D01*
X160724499Y-96339744D01*
X160770125Y-96449896D01*
X160773535Y-96458127D01*
X160779911Y-96467669D01*
X160844726Y-96564673D01*
X160844727Y-96564674D01*
X161321873Y-97041819D01*
X161355358Y-97103142D01*
X161350374Y-97172833D01*
X161308503Y-97228767D01*
X161243038Y-97253184D01*
X161234192Y-97253500D01*
X160972773Y-97253500D01*
X160905734Y-97233815D01*
X160864304Y-97186381D01*
X160863605Y-97186813D01*
X160861017Y-97182617D01*
X160860387Y-97181896D01*
X160859816Y-97180673D01*
X160859814Y-97180666D01*
X160767712Y-97031344D01*
X160643656Y-96907288D01*
X160494334Y-96815186D01*
X160327797Y-96760001D01*
X160327795Y-96760000D01*
X160225010Y-96749500D01*
X158874998Y-96749500D01*
X158874981Y-96749501D01*
X158772203Y-96760000D01*
X158772200Y-96760001D01*
X158605668Y-96815185D01*
X158605663Y-96815187D01*
X158456342Y-96907289D01*
X158332289Y-97031342D01*
X158240187Y-97180663D01*
X158240185Y-97180668D01*
X158216156Y-97253184D01*
X158185001Y-97347203D01*
X158185001Y-97347204D01*
X158185000Y-97347204D01*
X158174500Y-97449983D01*
X158174500Y-98350001D01*
X158174501Y-98350019D01*
X158185000Y-98452796D01*
X158185001Y-98452799D01*
X158240185Y-98619331D01*
X158240187Y-98619336D01*
X158260541Y-98652335D01*
X158332288Y-98768656D01*
X158456344Y-98892712D01*
X158605666Y-98984814D01*
X158772203Y-99039999D01*
X158874991Y-99050500D01*
X160225008Y-99050499D01*
X160327797Y-99039999D01*
X160494334Y-98984814D01*
X160643656Y-98892712D01*
X160767712Y-98768656D01*
X160859814Y-98619334D01*
X160859814Y-98619332D01*
X160863472Y-98613403D01*
X160915420Y-98566679D01*
X160969011Y-98554500D01*
X164310071Y-98554500D01*
X164394615Y-98537682D01*
X164435744Y-98529501D01*
X164554127Y-98480465D01*
X164660669Y-98409277D01*
X164834637Y-98235307D01*
X164853424Y-98219891D01*
X164859461Y-98215857D01*
X164865056Y-98212121D01*
X164922108Y-98174000D01*
X164944143Y-98159277D01*
X172189081Y-90914339D01*
X172250404Y-90880854D01*
X172320096Y-90885838D01*
X172364443Y-90914339D01*
X172420213Y-90970109D01*
X172592179Y-91095048D01*
X172592181Y-91095049D01*
X172592184Y-91095051D01*
X172601493Y-91099794D01*
X172652290Y-91147766D01*
X172669087Y-91215587D01*
X172646552Y-91281722D01*
X172601505Y-91320760D01*
X172592446Y-91325376D01*
X172592440Y-91325380D01*
X172538282Y-91364727D01*
X172538282Y-91364728D01*
X173170591Y-91997037D01*
X173107007Y-92014075D01*
X172992993Y-92079901D01*
X172899901Y-92172993D01*
X172834075Y-92287007D01*
X172817037Y-92350591D01*
X172184728Y-91718282D01*
X172184727Y-91718282D01*
X172145380Y-91772439D01*
X172048904Y-91961782D01*
X171983242Y-92163869D01*
X171983242Y-92163872D01*
X171950000Y-92373753D01*
X171950000Y-92586246D01*
X171983242Y-92796127D01*
X171983242Y-92796130D01*
X172048904Y-92998217D01*
X172145375Y-93187550D01*
X172184728Y-93241716D01*
X172817037Y-92609408D01*
X172834075Y-92672993D01*
X172899901Y-92787007D01*
X172992993Y-92880099D01*
X173107007Y-92945925D01*
X173170590Y-92962962D01*
X172538282Y-93595269D01*
X172538282Y-93595270D01*
X172592452Y-93634626D01*
X172592451Y-93634626D01*
X172601495Y-93639234D01*
X172652292Y-93687208D01*
X172669087Y-93755029D01*
X172646550Y-93821164D01*
X172601499Y-93860202D01*
X172592182Y-93864949D01*
X172420213Y-93989890D01*
X172269890Y-94140213D01*
X172144951Y-94312179D01*
X172048444Y-94501585D01*
X171982753Y-94703760D01*
X171949500Y-94913713D01*
X171949500Y-95126286D01*
X171977119Y-95300670D01*
X171982754Y-95336243D01*
X172045447Y-95529192D01*
X172048444Y-95538414D01*
X172144951Y-95727820D01*
X172269890Y-95899786D01*
X172383430Y-96013326D01*
X172416915Y-96074649D01*
X172411931Y-96144341D01*
X172370059Y-96200274D01*
X172339083Y-96217189D01*
X172207669Y-96266203D01*
X172207664Y-96266206D01*
X172092455Y-96352452D01*
X172092452Y-96352455D01*
X172006206Y-96467664D01*
X172006202Y-96467671D01*
X171955908Y-96602517D01*
X171949501Y-96662116D01*
X171949500Y-96662135D01*
X171949500Y-98457870D01*
X171949501Y-98457876D01*
X171955908Y-98517483D01*
X172006202Y-98652328D01*
X172006206Y-98652335D01*
X172092452Y-98767544D01*
X172092455Y-98767547D01*
X172207664Y-98853793D01*
X172207671Y-98853797D01*
X172342517Y-98904091D01*
X172342516Y-98904091D01*
X172349444Y-98904835D01*
X172402127Y-98910500D01*
X174197872Y-98910499D01*
X174257483Y-98904091D01*
X174392331Y-98853796D01*
X174507546Y-98767546D01*
X174593796Y-98652331D01*
X174644091Y-98517483D01*
X174650500Y-98457873D01*
X174650499Y-97731227D01*
X174670183Y-97664189D01*
X174722987Y-97618434D01*
X174792146Y-97608490D01*
X174855702Y-97637515D01*
X174862180Y-97643547D01*
X175747049Y-98528416D01*
X175832036Y-98613403D01*
X175851585Y-98632952D01*
X175974498Y-98715080D01*
X175974511Y-98715087D01*
X176103842Y-98768657D01*
X176111087Y-98771658D01*
X176111091Y-98771658D01*
X176111092Y-98771659D01*
X176256079Y-98800500D01*
X176256082Y-98800500D01*
X176256083Y-98800500D01*
X176403917Y-98800500D01*
X176406442Y-98800500D01*
X176473481Y-98820185D01*
X176511979Y-98859401D01*
X176594788Y-98993656D01*
X176718844Y-99117712D01*
X176868166Y-99209814D01*
X177034703Y-99264999D01*
X177137491Y-99275500D01*
X177912508Y-99275499D01*
X177912516Y-99275498D01*
X177912519Y-99275498D01*
X177968802Y-99269748D01*
X178015297Y-99264999D01*
X178181834Y-99209814D01*
X178331156Y-99117712D01*
X178455212Y-98993656D01*
X178457252Y-98990347D01*
X178459245Y-98988555D01*
X178459693Y-98987989D01*
X178459789Y-98988065D01*
X178509194Y-98943623D01*
X178578156Y-98932395D01*
X178642240Y-98960234D01*
X178668329Y-98990339D01*
X178670181Y-98993341D01*
X178670183Y-98993344D01*
X178794154Y-99117315D01*
X178943375Y-99209356D01*
X178943380Y-99209358D01*
X179109802Y-99264505D01*
X179109809Y-99264506D01*
X179212519Y-99274999D01*
X179349999Y-99274999D01*
X179850000Y-99274999D01*
X179987472Y-99274999D01*
X179987486Y-99274998D01*
X180090197Y-99264505D01*
X180256619Y-99209358D01*
X180256624Y-99209356D01*
X180405845Y-99117315D01*
X180529815Y-98993345D01*
X180621856Y-98844124D01*
X180621858Y-98844119D01*
X180677005Y-98677697D01*
X180677006Y-98677690D01*
X180687499Y-98574986D01*
X180687500Y-98574973D01*
X180687500Y-98300000D01*
X179850000Y-98300000D01*
X179850000Y-99274999D01*
X179349999Y-99274999D01*
X179350000Y-99274998D01*
X179350000Y-98250013D01*
X186550000Y-98250013D01*
X186550000Y-98500000D01*
X187400000Y-98500000D01*
X187400000Y-97550000D01*
X187250027Y-97550000D01*
X187250012Y-97550001D01*
X187147302Y-97560494D01*
X186980880Y-97615641D01*
X186980875Y-97615643D01*
X186831654Y-97707684D01*
X186707684Y-97831654D01*
X186615643Y-97980875D01*
X186615641Y-97980880D01*
X186560494Y-98147302D01*
X186560493Y-98147309D01*
X186550000Y-98250013D01*
X179350000Y-98250013D01*
X179350000Y-98174000D01*
X179369685Y-98106961D01*
X179422489Y-98061206D01*
X179474000Y-98050000D01*
X179600000Y-98050000D01*
X179600000Y-97924000D01*
X179619685Y-97856961D01*
X179672489Y-97811206D01*
X179724000Y-97800000D01*
X180687499Y-97800000D01*
X180687499Y-97525028D01*
X180687498Y-97525013D01*
X180677005Y-97422302D01*
X180640953Y-97313504D01*
X180638551Y-97243676D01*
X180674283Y-97183634D01*
X180736803Y-97152441D01*
X180758659Y-97150500D01*
X180864071Y-97150500D01*
X180948615Y-97133682D01*
X180989744Y-97125501D01*
X181108127Y-97076465D01*
X181214669Y-97005277D01*
X181955277Y-96264669D01*
X182026465Y-96158127D01*
X182052592Y-96095051D01*
X182075501Y-96039744D01*
X182083682Y-95998615D01*
X182100500Y-95914071D01*
X182100500Y-93335928D01*
X182075502Y-93210261D01*
X182075501Y-93210260D01*
X182075501Y-93210256D01*
X182026465Y-93091873D01*
X181990323Y-93037782D01*
X181990323Y-93037781D01*
X181955275Y-92985328D01*
X180517523Y-91547576D01*
X180517519Y-91547573D01*
X180410977Y-91476385D01*
X180292594Y-91427349D01*
X180292588Y-91427347D01*
X180166921Y-91402350D01*
X180166919Y-91402350D01*
X179967330Y-91402350D01*
X179900291Y-91382665D01*
X179866612Y-91348258D01*
X179865627Y-91348975D01*
X179737821Y-91173063D01*
X179587498Y-91022740D01*
X179415529Y-90897799D01*
X179406216Y-90893054D01*
X179355419Y-90845080D01*
X179338624Y-90777259D01*
X179361161Y-90711124D01*
X179406219Y-90672082D01*
X179415267Y-90667472D01*
X179469428Y-90628120D01*
X179469429Y-90628120D01*
X178837120Y-89995812D01*
X178900705Y-89978775D01*
X179014719Y-89912949D01*
X179107811Y-89819857D01*
X179173637Y-89705843D01*
X179190674Y-89642258D01*
X179822982Y-90274567D01*
X179822982Y-90274566D01*
X179862334Y-90220404D01*
X179958807Y-90031067D01*
X180024469Y-89828980D01*
X180024469Y-89828977D01*
X180057712Y-89619096D01*
X180057712Y-89406603D01*
X180024469Y-89196722D01*
X180024469Y-89196719D01*
X179958807Y-88994632D01*
X179862336Y-88805299D01*
X179822982Y-88751132D01*
X179822981Y-88751132D01*
X179190674Y-89383440D01*
X179173637Y-89319857D01*
X179107811Y-89205843D01*
X179014719Y-89112751D01*
X178900705Y-89046925D01*
X178837121Y-89029887D01*
X179469428Y-88397578D01*
X179415259Y-88358223D01*
X179415259Y-88358222D01*
X179406212Y-88353613D01*
X179355418Y-88305638D01*
X179338624Y-88237816D01*
X179361163Y-88171682D01*
X179406220Y-88132643D01*
X179415528Y-88127901D01*
X179553279Y-88027820D01*
X179587498Y-88002959D01*
X179587500Y-88002956D01*
X179587504Y-88002954D01*
X179737816Y-87852642D01*
X179737818Y-87852638D01*
X179737821Y-87852636D01*
X179862760Y-87680670D01*
X179862759Y-87680670D01*
X179862763Y-87680666D01*
X179959269Y-87491262D01*
X180024958Y-87289093D01*
X180058212Y-87079137D01*
X180058212Y-86866563D01*
X180024958Y-86656607D01*
X180006699Y-86600414D01*
X180004705Y-86530573D01*
X180036948Y-86474418D01*
X181132952Y-85378415D01*
X181172329Y-85319482D01*
X181215084Y-85255495D01*
X181247911Y-85176243D01*
X181271659Y-85118912D01*
X181300500Y-84973917D01*
X181300500Y-84826082D01*
X181300500Y-80076082D01*
X181300500Y-80076079D01*
X181271659Y-79931092D01*
X181271658Y-79931091D01*
X181271658Y-79931087D01*
X181248239Y-79874548D01*
X181215087Y-79794511D01*
X181215080Y-79794498D01*
X181132952Y-79671585D01*
X181132951Y-79671584D01*
X181028416Y-79567049D01*
X180478416Y-79017049D01*
X179923048Y-78461680D01*
X179889563Y-78400357D01*
X179894547Y-78330665D01*
X179936419Y-78274732D01*
X180001883Y-78250315D01*
X180010729Y-78249999D01*
X180224999Y-78249999D01*
X180225000Y-78249998D01*
X180225000Y-76974000D01*
X180244685Y-76906961D01*
X180297489Y-76861206D01*
X180349000Y-76850000D01*
X180601000Y-76850000D01*
X180668039Y-76869685D01*
X180713794Y-76922489D01*
X180725000Y-76974000D01*
X180725000Y-78249999D01*
X180937472Y-78249999D01*
X180937486Y-78249998D01*
X181040199Y-78239505D01*
X181145642Y-78204564D01*
X181215470Y-78202161D01*
X181275512Y-78237892D01*
X181306264Y-78298075D01*
X181311958Y-78326701D01*
X181316494Y-78349500D01*
X181320073Y-78367491D01*
X181324499Y-78389744D01*
X181369961Y-78499500D01*
X181373535Y-78508127D01*
X181398140Y-78544951D01*
X181444726Y-78614673D01*
X185228175Y-82398122D01*
X185228182Y-82398128D01*
X185265402Y-82422997D01*
X185334724Y-82469316D01*
X185404071Y-82498039D01*
X185453106Y-82518351D01*
X185453109Y-82518351D01*
X185453110Y-82518352D01*
X185578778Y-82543350D01*
X185578781Y-82543350D01*
X185706919Y-82543350D01*
X187633213Y-82543350D01*
X187700252Y-82563035D01*
X187746007Y-82615839D01*
X187757213Y-82667350D01*
X187757213Y-82790726D01*
X187763620Y-82850333D01*
X187813914Y-82985178D01*
X187813918Y-82985185D01*
X187900164Y-83100394D01*
X187900167Y-83100397D01*
X188015376Y-83186643D01*
X188015383Y-83186647D01*
X188146794Y-83235660D01*
X188202728Y-83277531D01*
X188227145Y-83342995D01*
X188212294Y-83411268D01*
X188191143Y-83439523D01*
X188077601Y-83553065D01*
X187952663Y-83725029D01*
X187856156Y-83914435D01*
X187790465Y-84116610D01*
X187757212Y-84326563D01*
X187757212Y-84539137D01*
X187790466Y-84749093D01*
X187836187Y-84889808D01*
X187856156Y-84951264D01*
X187952663Y-85140670D01*
X188077602Y-85312636D01*
X188227925Y-85462959D01*
X188399894Y-85587900D01*
X188408658Y-85592366D01*
X188459454Y-85640341D01*
X188476248Y-85708162D01*
X188453710Y-85774297D01*
X188408658Y-85813334D01*
X188399894Y-85817799D01*
X188227925Y-85942740D01*
X188077602Y-86093063D01*
X187952663Y-86265029D01*
X187856156Y-86454435D01*
X187790465Y-86656610D01*
X187757212Y-86866563D01*
X187757212Y-87079136D01*
X187784699Y-87252686D01*
X187790466Y-87289093D01*
X187848870Y-87468842D01*
X187856156Y-87491264D01*
X187952663Y-87680670D01*
X188077602Y-87852636D01*
X188227925Y-88002959D01*
X188399891Y-88127898D01*
X188399893Y-88127899D01*
X188399896Y-88127901D01*
X188409205Y-88132644D01*
X188460002Y-88180616D01*
X188476799Y-88248437D01*
X188454264Y-88314572D01*
X188409217Y-88353610D01*
X188400158Y-88358226D01*
X188400152Y-88358230D01*
X188345994Y-88397577D01*
X188345994Y-88397578D01*
X188978303Y-89029887D01*
X188914719Y-89046925D01*
X188800705Y-89112751D01*
X188707613Y-89205843D01*
X188641787Y-89319857D01*
X188624749Y-89383440D01*
X187992440Y-88751132D01*
X187992439Y-88751132D01*
X187953092Y-88805289D01*
X187856616Y-88994632D01*
X187790954Y-89196719D01*
X187790954Y-89196722D01*
X187757712Y-89406603D01*
X187757712Y-89619096D01*
X187790954Y-89828977D01*
X187790954Y-89828980D01*
X187856616Y-90031067D01*
X187953087Y-90220400D01*
X187992440Y-90274566D01*
X188624749Y-89642258D01*
X188641787Y-89705843D01*
X188707613Y-89819857D01*
X188800705Y-89912949D01*
X188914719Y-89978775D01*
X188978302Y-89995812D01*
X188345994Y-90628119D01*
X188345994Y-90628120D01*
X188400164Y-90667476D01*
X188400163Y-90667476D01*
X188409207Y-90672084D01*
X188460004Y-90720058D01*
X188476799Y-90787879D01*
X188454262Y-90854014D01*
X188409211Y-90893052D01*
X188399894Y-90897799D01*
X188227925Y-91022740D01*
X188077602Y-91173063D01*
X187952663Y-91345029D01*
X187856156Y-91534435D01*
X187790465Y-91736610D01*
X187763432Y-91907289D01*
X187757212Y-91946563D01*
X187757212Y-92159137D01*
X187767246Y-92222494D01*
X187787937Y-92353129D01*
X187790466Y-92369093D01*
X187847890Y-92545826D01*
X187856156Y-92571264D01*
X187952663Y-92760670D01*
X188077602Y-92932636D01*
X188227925Y-93082959D01*
X188399894Y-93207900D01*
X188408658Y-93212366D01*
X188459454Y-93260341D01*
X188476248Y-93328162D01*
X188453710Y-93394297D01*
X188408658Y-93433334D01*
X188399894Y-93437799D01*
X188227925Y-93562740D01*
X188077602Y-93713063D01*
X187952663Y-93885029D01*
X187856156Y-94074435D01*
X187790465Y-94276610D01*
X187767503Y-94421588D01*
X187757212Y-94486563D01*
X187757212Y-94699137D01*
X187790466Y-94909093D01*
X187835043Y-95046287D01*
X187856156Y-95111264D01*
X187952663Y-95300670D01*
X188077602Y-95472636D01*
X188227925Y-95622959D01*
X188399891Y-95747898D01*
X188399893Y-95747899D01*
X188399896Y-95747901D01*
X188589300Y-95844407D01*
X188791469Y-95910096D01*
X189001425Y-95943350D01*
X189001426Y-95943350D01*
X189213998Y-95943350D01*
X189213999Y-95943350D01*
X189423955Y-95910096D01*
X189626124Y-95844407D01*
X189815528Y-95747901D01*
X189870650Y-95707853D01*
X189987498Y-95622959D01*
X189987500Y-95622956D01*
X189987504Y-95622954D01*
X190137816Y-95472642D01*
X190137818Y-95472638D01*
X190137821Y-95472636D01*
X190262760Y-95300670D01*
X190262759Y-95300670D01*
X190262763Y-95300666D01*
X190359269Y-95111262D01*
X190424958Y-94909093D01*
X190458212Y-94699137D01*
X190458212Y-94486563D01*
X190424958Y-94276607D01*
X190359269Y-94074438D01*
X190262763Y-93885034D01*
X190262761Y-93885031D01*
X190262760Y-93885029D01*
X190137821Y-93713063D01*
X189987498Y-93562740D01*
X189815532Y-93437801D01*
X189814827Y-93437441D01*
X189806766Y-93433335D01*
X189755971Y-93385362D01*
X189739175Y-93317542D01*
X189761711Y-93251406D01*
X189806766Y-93212365D01*
X189815528Y-93207901D01*
X189953279Y-93107820D01*
X189987498Y-93082959D01*
X189987500Y-93082956D01*
X189987504Y-93082954D01*
X190137816Y-92932642D01*
X190137818Y-92932638D01*
X190137821Y-92932636D01*
X190262760Y-92760670D01*
X190262759Y-92760670D01*
X190262763Y-92760666D01*
X190359269Y-92571262D01*
X190424958Y-92369093D01*
X190458212Y-92159137D01*
X190458212Y-91946563D01*
X190424958Y-91736607D01*
X190359269Y-91534438D01*
X190262763Y-91345034D01*
X190262761Y-91345031D01*
X190262760Y-91345029D01*
X190137821Y-91173063D01*
X189987498Y-91022740D01*
X189815529Y-90897799D01*
X189806216Y-90893054D01*
X189755419Y-90845080D01*
X189738624Y-90777259D01*
X189752178Y-90737486D01*
X191375001Y-90737486D01*
X191385494Y-90840197D01*
X191440641Y-91006619D01*
X191440643Y-91006624D01*
X191532684Y-91155845D01*
X191656654Y-91279815D01*
X191805875Y-91371856D01*
X191805880Y-91371858D01*
X191972302Y-91427005D01*
X191972309Y-91427006D01*
X192075019Y-91437499D01*
X192349999Y-91437499D01*
X192350000Y-91437498D01*
X192350000Y-90600000D01*
X191375001Y-90600000D01*
X191375001Y-90737486D01*
X189752178Y-90737486D01*
X189761161Y-90711124D01*
X189806219Y-90672082D01*
X189815267Y-90667472D01*
X189869428Y-90628120D01*
X189869429Y-90628120D01*
X189237120Y-89995812D01*
X189300705Y-89978775D01*
X189414719Y-89912949D01*
X189507811Y-89819857D01*
X189573637Y-89705843D01*
X189590674Y-89642258D01*
X190222982Y-90274567D01*
X190222982Y-90274566D01*
X190262334Y-90220404D01*
X190358807Y-90031067D01*
X190424469Y-89828980D01*
X190424469Y-89828977D01*
X190457712Y-89619096D01*
X190457712Y-89406603D01*
X190424469Y-89196722D01*
X190424469Y-89196719D01*
X190358807Y-88994632D01*
X190262336Y-88805299D01*
X190222982Y-88751132D01*
X190222981Y-88751132D01*
X189590674Y-89383440D01*
X189573637Y-89319857D01*
X189507811Y-89205843D01*
X189414719Y-89112751D01*
X189300705Y-89046925D01*
X189237121Y-89029887D01*
X189869428Y-88397578D01*
X189815259Y-88358223D01*
X189815259Y-88358222D01*
X189806212Y-88353613D01*
X189755418Y-88305638D01*
X189738624Y-88237816D01*
X189761163Y-88171682D01*
X189806220Y-88132643D01*
X189815528Y-88127901D01*
X189953279Y-88027820D01*
X189987498Y-88002959D01*
X189987500Y-88002956D01*
X189987504Y-88002954D01*
X190137816Y-87852642D01*
X190153750Y-87830711D01*
X190194615Y-87774465D01*
X190249945Y-87731799D01*
X190294933Y-87723350D01*
X191253955Y-87723350D01*
X191320994Y-87743035D01*
X191366749Y-87795839D01*
X191377313Y-87859952D01*
X191374500Y-87887481D01*
X191374500Y-88662501D01*
X191374501Y-88662519D01*
X191385000Y-88765296D01*
X191385001Y-88765299D01*
X191406405Y-88829890D01*
X191440186Y-88931834D01*
X191532288Y-89081156D01*
X191656344Y-89205212D01*
X191659628Y-89207237D01*
X191659653Y-89207253D01*
X191661445Y-89209246D01*
X191662011Y-89209693D01*
X191661934Y-89209789D01*
X191706379Y-89259199D01*
X191717603Y-89328161D01*
X191689761Y-89392244D01*
X191659665Y-89418326D01*
X191656660Y-89420179D01*
X191656655Y-89420183D01*
X191532684Y-89544154D01*
X191440643Y-89693375D01*
X191440641Y-89693380D01*
X191385494Y-89859802D01*
X191385493Y-89859809D01*
X191375000Y-89962513D01*
X191375000Y-90100000D01*
X192476000Y-90100000D01*
X192543039Y-90119685D01*
X192588794Y-90172489D01*
X192600000Y-90224000D01*
X192600000Y-90350000D01*
X192726000Y-90350000D01*
X192793039Y-90369685D01*
X192838794Y-90422489D01*
X192850000Y-90474000D01*
X192850000Y-91437499D01*
X193124972Y-91437499D01*
X193124986Y-91437498D01*
X193227697Y-91427005D01*
X193394119Y-91371858D01*
X193394124Y-91371856D01*
X193543345Y-91279815D01*
X193667316Y-91155844D01*
X193667317Y-91155842D01*
X193669960Y-91151559D01*
X193721906Y-91104833D01*
X193790869Y-91093609D01*
X193854952Y-91121451D01*
X193893809Y-91179519D01*
X193899500Y-91216653D01*
X193899500Y-115875500D01*
X193879815Y-115942539D01*
X193827011Y-115988294D01*
X193775500Y-115999500D01*
X128874500Y-115999500D01*
X128807461Y-115979815D01*
X128761706Y-115927011D01*
X128750500Y-115875500D01*
X128750500Y-37778711D01*
X143349500Y-37778711D01*
X143349500Y-38021288D01*
X143381161Y-38261785D01*
X143443947Y-38496104D01*
X143527244Y-38697200D01*
X143536776Y-38720212D01*
X143658064Y-38930289D01*
X143658066Y-38930292D01*
X143658067Y-38930293D01*
X143805733Y-39122736D01*
X143805739Y-39122743D01*
X143977256Y-39294260D01*
X143977263Y-39294266D01*
X144017891Y-39325441D01*
X144169711Y-39441936D01*
X144379788Y-39563224D01*
X144603900Y-39656054D01*
X144838211Y-39718838D01*
X145018586Y-39742584D01*
X145078711Y-39750500D01*
X145078712Y-39750500D01*
X145321289Y-39750500D01*
X145369388Y-39744167D01*
X145561789Y-39718838D01*
X145796100Y-39656054D01*
X146020212Y-39563224D01*
X146230289Y-39441936D01*
X146422738Y-39294265D01*
X146594265Y-39122738D01*
X146741936Y-38930289D01*
X146863224Y-38720212D01*
X146956054Y-38496100D01*
X147018838Y-38261789D01*
X147050500Y-38021288D01*
X147050500Y-37778712D01*
X147045644Y-37741830D01*
X147036406Y-37671653D01*
X147018838Y-37538211D01*
X146956054Y-37303900D01*
X146863224Y-37079788D01*
X146741936Y-36869711D01*
X146594265Y-36677262D01*
X146594260Y-36677256D01*
X146422743Y-36505739D01*
X146422736Y-36505733D01*
X146230293Y-36358067D01*
X146230292Y-36358066D01*
X146230289Y-36358064D01*
X146020212Y-36236776D01*
X146020205Y-36236773D01*
X145796104Y-36143947D01*
X145561785Y-36081161D01*
X145321289Y-36049500D01*
X145321288Y-36049500D01*
X145078712Y-36049500D01*
X145078711Y-36049500D01*
X144838214Y-36081161D01*
X144603895Y-36143947D01*
X144379794Y-36236773D01*
X144379785Y-36236777D01*
X144169706Y-36358067D01*
X143977263Y-36505733D01*
X143977256Y-36505739D01*
X143805739Y-36677256D01*
X143805733Y-36677263D01*
X143658067Y-36869706D01*
X143536777Y-37079785D01*
X143536773Y-37079794D01*
X143443947Y-37303895D01*
X143381161Y-37538214D01*
X143349500Y-37778711D01*
X128750500Y-37778711D01*
X128750500Y-34643226D01*
X128770185Y-34576187D01*
X128822989Y-34530432D01*
X128874500Y-34519226D01*
X193775500Y-34519226D01*
X193842539Y-34538911D01*
G37*
%TD.AperFunction*%
%TA.AperFunction,Conductor*%
G36*
X174415269Y-93241716D02*
G01*
X174465771Y-93237742D01*
X174534148Y-93252106D01*
X174583905Y-93301157D01*
X174599500Y-93361360D01*
X174599500Y-94129366D01*
X174579815Y-94196405D01*
X174527011Y-94242160D01*
X174457853Y-94252104D01*
X174394297Y-94223079D01*
X174375182Y-94202251D01*
X174330109Y-94140214D01*
X174330105Y-94140209D01*
X174179786Y-93989890D01*
X174007817Y-93864949D01*
X173998504Y-93860204D01*
X173947707Y-93812230D01*
X173930912Y-93744409D01*
X173953449Y-93678274D01*
X173998507Y-93639232D01*
X174007555Y-93634622D01*
X174061716Y-93595270D01*
X174061717Y-93595270D01*
X173429408Y-92962962D01*
X173492993Y-92945925D01*
X173607007Y-92880099D01*
X173700099Y-92787007D01*
X173765925Y-92672993D01*
X173782962Y-92609408D01*
X174415269Y-93241716D01*
G37*
%TD.AperFunction*%
%TA.AperFunction,Conductor*%
G36*
X174561920Y-90741708D02*
G01*
X174596277Y-90802547D01*
X174599500Y-90830633D01*
X174599500Y-91598639D01*
X174579815Y-91665678D01*
X174527011Y-91711433D01*
X174465771Y-91722257D01*
X174415269Y-91718282D01*
X173782962Y-92350590D01*
X173765925Y-92287007D01*
X173700099Y-92172993D01*
X173607007Y-92079901D01*
X173492993Y-92014075D01*
X173429409Y-91997037D01*
X174061716Y-91364728D01*
X174007547Y-91325373D01*
X174007547Y-91325372D01*
X173998500Y-91320763D01*
X173947706Y-91272788D01*
X173930912Y-91204966D01*
X173953451Y-91138832D01*
X173998508Y-91099793D01*
X174007816Y-91095051D01*
X174111782Y-91019516D01*
X174179786Y-90970109D01*
X174179788Y-90970106D01*
X174179792Y-90970104D01*
X174330104Y-90819792D01*
X174375181Y-90757747D01*
X174430511Y-90715082D01*
X174500124Y-90709103D01*
X174561920Y-90741708D01*
G37*
%TD.AperFunction*%
%TA.AperFunction,Conductor*%
G36*
X176755703Y-85617516D02*
G01*
X176762181Y-85623548D01*
X177438665Y-86300032D01*
X177472150Y-86361355D01*
X177467166Y-86431047D01*
X177461471Y-86444004D01*
X177456153Y-86454440D01*
X177390465Y-86656609D01*
X177357212Y-86866563D01*
X177357212Y-87079136D01*
X177384699Y-87252686D01*
X177390466Y-87289093D01*
X177448870Y-87468842D01*
X177456156Y-87491264D01*
X177552663Y-87680670D01*
X177677602Y-87852636D01*
X177827925Y-88002959D01*
X177999891Y-88127898D01*
X177999893Y-88127899D01*
X177999896Y-88127901D01*
X178009205Y-88132644D01*
X178060002Y-88180616D01*
X178076799Y-88248437D01*
X178054264Y-88314572D01*
X178009217Y-88353610D01*
X178000158Y-88358226D01*
X178000152Y-88358230D01*
X177945994Y-88397577D01*
X177945994Y-88397578D01*
X178578303Y-89029887D01*
X178514719Y-89046925D01*
X178400705Y-89112751D01*
X178307613Y-89205843D01*
X178241787Y-89319857D01*
X178224749Y-89383440D01*
X177592440Y-88751132D01*
X177592439Y-88751132D01*
X177553092Y-88805289D01*
X177456616Y-88994632D01*
X177390954Y-89196719D01*
X177390954Y-89196722D01*
X177357712Y-89406603D01*
X177357712Y-89619096D01*
X177390954Y-89828977D01*
X177390954Y-89828980D01*
X177456616Y-90031067D01*
X177553087Y-90220400D01*
X177592440Y-90274566D01*
X178224749Y-89642258D01*
X178241787Y-89705843D01*
X178307613Y-89819857D01*
X178400705Y-89912949D01*
X178514719Y-89978775D01*
X178578302Y-89995812D01*
X177945994Y-90628119D01*
X177945994Y-90628120D01*
X178000164Y-90667476D01*
X178000163Y-90667476D01*
X178009207Y-90672084D01*
X178060004Y-90720058D01*
X178076799Y-90787879D01*
X178054262Y-90854014D01*
X178009211Y-90893052D01*
X177999894Y-90897799D01*
X177827925Y-91022740D01*
X177677602Y-91173063D01*
X177552663Y-91345029D01*
X177456156Y-91534435D01*
X177390465Y-91736610D01*
X177357212Y-91946563D01*
X177357212Y-92023042D01*
X177337527Y-92090081D01*
X177284723Y-92135836D01*
X177215565Y-92145780D01*
X177152009Y-92116755D01*
X177145531Y-92110723D01*
X176586819Y-91552011D01*
X176553334Y-91490688D01*
X176550500Y-91464330D01*
X176550500Y-85711229D01*
X176570185Y-85644190D01*
X176622989Y-85598435D01*
X176692147Y-85588491D01*
X176755703Y-85617516D01*
G37*
%TD.AperFunction*%
%TA.AperFunction,Conductor*%
G36*
X158828417Y-41317977D02*
G01*
X158828435Y-41317982D01*
X159075435Y-41350500D01*
X159075442Y-41350500D01*
X159324558Y-41350500D01*
X159324565Y-41350500D01*
X159571565Y-41317982D01*
X159571573Y-41317979D01*
X159574529Y-41317392D01*
X159575432Y-41317472D01*
X159575590Y-41317452D01*
X159575594Y-41317487D01*
X159644121Y-41323616D01*
X159686407Y-41351327D01*
X162769735Y-44434655D01*
X162769764Y-44434686D01*
X162912214Y-44577136D01*
X162912218Y-44577139D01*
X163076079Y-44686628D01*
X163076092Y-44686635D01*
X163204833Y-44739961D01*
X163247744Y-44757735D01*
X163258164Y-44762051D01*
X163354812Y-44781275D01*
X163403135Y-44790887D01*
X163451458Y-44800500D01*
X163451459Y-44800500D01*
X163451460Y-44800500D01*
X163648540Y-44800500D01*
X169834218Y-44800500D01*
X169901257Y-44820185D01*
X169921899Y-44836819D01*
X184463181Y-59378101D01*
X184496666Y-59439424D01*
X184499500Y-59465782D01*
X184499500Y-72966698D01*
X184479815Y-73033737D01*
X184476863Y-73038123D01*
X184476313Y-73038903D01*
X184364949Y-73192184D01*
X184356185Y-73209383D01*
X184351082Y-73216626D01*
X184330381Y-73233072D01*
X184312227Y-73252293D01*
X184303452Y-73254465D01*
X184296376Y-73260088D01*
X184270070Y-73262731D01*
X184244405Y-73269087D01*
X184235849Y-73266171D01*
X184226856Y-73267075D01*
X184203296Y-73255076D01*
X184178271Y-73246548D01*
X184171733Y-73239002D01*
X184164596Y-73235368D01*
X184156351Y-73221250D01*
X184139234Y-73201495D01*
X184134626Y-73192452D01*
X184095270Y-73138282D01*
X184095269Y-73138282D01*
X183462962Y-73770590D01*
X183445925Y-73707007D01*
X183380099Y-73592993D01*
X183287007Y-73499901D01*
X183172993Y-73434075D01*
X183109409Y-73417037D01*
X183741716Y-72784728D01*
X183687550Y-72745375D01*
X183498217Y-72648904D01*
X183296129Y-72583242D01*
X183086246Y-72550000D01*
X182873754Y-72550000D01*
X182663872Y-72583242D01*
X182663869Y-72583242D01*
X182461782Y-72648904D01*
X182272439Y-72745380D01*
X182218282Y-72784727D01*
X182218282Y-72784728D01*
X182850591Y-73417037D01*
X182787007Y-73434075D01*
X182672993Y-73499901D01*
X182579901Y-73592993D01*
X182514075Y-73707007D01*
X182497037Y-73770591D01*
X181864728Y-73138282D01*
X181864727Y-73138282D01*
X181825380Y-73192440D01*
X181825376Y-73192446D01*
X181820760Y-73201505D01*
X181772781Y-73252297D01*
X181704959Y-73269087D01*
X181638826Y-73246543D01*
X181599794Y-73201493D01*
X181595051Y-73192184D01*
X181595049Y-73192181D01*
X181595048Y-73192179D01*
X181470109Y-73020213D01*
X181319786Y-72869890D01*
X181147820Y-72744951D01*
X180958414Y-72648444D01*
X180958413Y-72648443D01*
X180958412Y-72648443D01*
X180756243Y-72582754D01*
X180756241Y-72582753D01*
X180756240Y-72582753D01*
X180594957Y-72557208D01*
X180546287Y-72549500D01*
X180333713Y-72549500D01*
X180285042Y-72557208D01*
X180123760Y-72582753D01*
X179921585Y-72648444D01*
X179732179Y-72744951D01*
X179560213Y-72869890D01*
X179409890Y-73020213D01*
X179284949Y-73192182D01*
X179280484Y-73200946D01*
X179232509Y-73251742D01*
X179164688Y-73268536D01*
X179098553Y-73245998D01*
X179059516Y-73200946D01*
X179055050Y-73192182D01*
X178930109Y-73020213D01*
X178779786Y-72869890D01*
X178607820Y-72744951D01*
X178418414Y-72648444D01*
X178418413Y-72648443D01*
X178418412Y-72648443D01*
X178216243Y-72582754D01*
X178216241Y-72582753D01*
X178216240Y-72582753D01*
X178054957Y-72557208D01*
X178006287Y-72549500D01*
X177793713Y-72549500D01*
X177745042Y-72557208D01*
X177583760Y-72582753D01*
X177381585Y-72648444D01*
X177192179Y-72744951D01*
X177020213Y-72869890D01*
X176869890Y-73020213D01*
X176744949Y-73192182D01*
X176740484Y-73200946D01*
X176692509Y-73251742D01*
X176624688Y-73268536D01*
X176558553Y-73245998D01*
X176519516Y-73200946D01*
X176515050Y-73192182D01*
X176390109Y-73020213D01*
X176239786Y-72869890D01*
X176067820Y-72744951D01*
X175878414Y-72648444D01*
X175878413Y-72648443D01*
X175878412Y-72648443D01*
X175676243Y-72582754D01*
X175676241Y-72582753D01*
X175676240Y-72582753D01*
X175514957Y-72557208D01*
X175466287Y-72549500D01*
X175253713Y-72549500D01*
X175205042Y-72557208D01*
X175043760Y-72582753D01*
X174841585Y-72648444D01*
X174652179Y-72744951D01*
X174480213Y-72869890D01*
X174329890Y-73020213D01*
X174204949Y-73192182D01*
X174200484Y-73200946D01*
X174152509Y-73251742D01*
X174084688Y-73268536D01*
X174018553Y-73245998D01*
X173979516Y-73200946D01*
X173975050Y-73192182D01*
X173850109Y-73020213D01*
X173699786Y-72869890D01*
X173527820Y-72744951D01*
X173338414Y-72648444D01*
X173338413Y-72648443D01*
X173338412Y-72648443D01*
X173136243Y-72582754D01*
X173136241Y-72582753D01*
X173136240Y-72582753D01*
X172974957Y-72557208D01*
X172926287Y-72549500D01*
X172713713Y-72549500D01*
X172665042Y-72557208D01*
X172503760Y-72582753D01*
X172301585Y-72648444D01*
X172112179Y-72744951D01*
X171940215Y-72869889D01*
X171826673Y-72983431D01*
X171765350Y-73016915D01*
X171695658Y-73011931D01*
X171639725Y-72970059D01*
X171622810Y-72939082D01*
X171573797Y-72807671D01*
X171573793Y-72807664D01*
X171487547Y-72692455D01*
X171487544Y-72692452D01*
X171372335Y-72606206D01*
X171372328Y-72606202D01*
X171237482Y-72555908D01*
X171237483Y-72555908D01*
X171177883Y-72549501D01*
X171177881Y-72549500D01*
X171177873Y-72549500D01*
X171177864Y-72549500D01*
X169382129Y-72549500D01*
X169382123Y-72549501D01*
X169322516Y-72555908D01*
X169187671Y-72606202D01*
X169187664Y-72606206D01*
X169072455Y-72692452D01*
X169072452Y-72692455D01*
X168986206Y-72807664D01*
X168986202Y-72807671D01*
X168935908Y-72942517D01*
X168929501Y-73002116D01*
X168929500Y-73002135D01*
X168929500Y-74797870D01*
X168929501Y-74797876D01*
X168935908Y-74857483D01*
X168986202Y-74992328D01*
X168986206Y-74992335D01*
X169072452Y-75107544D01*
X169072455Y-75107547D01*
X169187664Y-75193793D01*
X169187671Y-75193797D01*
X169232618Y-75210561D01*
X169322517Y-75244091D01*
X169382127Y-75250500D01*
X169949191Y-75250499D01*
X170016230Y-75270183D01*
X170036872Y-75286818D01*
X170705324Y-75955271D01*
X170705327Y-75955274D01*
X170772992Y-76000486D01*
X170779672Y-76004949D01*
X170811873Y-76026465D01*
X170930256Y-76075501D01*
X170930260Y-76075501D01*
X170930261Y-76075502D01*
X171055928Y-76100500D01*
X171055931Y-76100500D01*
X174823124Y-76100500D01*
X174890163Y-76120185D01*
X174935918Y-76172989D01*
X174946482Y-76237103D01*
X174937500Y-76325013D01*
X174937500Y-76600000D01*
X175901000Y-76600000D01*
X175968039Y-76619685D01*
X176013794Y-76672489D01*
X176025000Y-76724000D01*
X176025000Y-76850000D01*
X176151000Y-76850000D01*
X176218039Y-76869685D01*
X176263794Y-76922489D01*
X176275000Y-76974000D01*
X176275000Y-78074999D01*
X176412472Y-78074999D01*
X176412486Y-78074998D01*
X176515197Y-78064505D01*
X176681619Y-78009358D01*
X176681624Y-78009356D01*
X176830845Y-77917315D01*
X176954818Y-77793342D01*
X176956665Y-77790348D01*
X176958469Y-77788724D01*
X176959298Y-77787677D01*
X176959476Y-77787818D01*
X177008610Y-77743621D01*
X177077573Y-77732396D01*
X177141656Y-77760236D01*
X177167743Y-77790341D01*
X177169788Y-77793656D01*
X177293844Y-77917712D01*
X177431558Y-78002654D01*
X177477442Y-78052882D01*
X177479370Y-78056751D01*
X177509916Y-78130495D01*
X177529965Y-78160500D01*
X177590098Y-78250498D01*
X177592051Y-78253420D01*
X177592052Y-78253421D01*
X179669301Y-80330669D01*
X179702786Y-80391992D01*
X179697802Y-80461684D01*
X179655930Y-80517617D01*
X179590466Y-80542034D01*
X179581620Y-80542350D01*
X177809841Y-80542350D01*
X177809835Y-80542351D01*
X177750228Y-80548758D01*
X177615383Y-80599052D01*
X177615376Y-80599056D01*
X177500167Y-80685302D01*
X177500164Y-80685305D01*
X177413918Y-80800514D01*
X177413914Y-80800521D01*
X177363620Y-80935367D01*
X177357213Y-80994966D01*
X177357213Y-80994973D01*
X177357212Y-80994985D01*
X177357212Y-81118350D01*
X177337527Y-81185389D01*
X177284723Y-81231144D01*
X177233212Y-81242350D01*
X176913658Y-81242350D01*
X176846619Y-81222665D01*
X176825977Y-81206031D01*
X174264674Y-78644727D01*
X174264673Y-78644726D01*
X174219689Y-78614669D01*
X174158127Y-78573535D01*
X174089119Y-78544951D01*
X174039744Y-78524499D01*
X174039738Y-78524497D01*
X173914071Y-78499500D01*
X173914069Y-78499500D01*
X166720808Y-78499500D01*
X166653769Y-78479815D01*
X166633127Y-78463181D01*
X165544932Y-77374986D01*
X174937501Y-77374986D01*
X174947994Y-77477697D01*
X175003141Y-77644119D01*
X175003143Y-77644124D01*
X175095184Y-77793345D01*
X175219154Y-77917315D01*
X175368375Y-78009356D01*
X175368380Y-78009358D01*
X175534802Y-78064505D01*
X175534809Y-78064506D01*
X175637519Y-78074999D01*
X175774999Y-78074999D01*
X175775000Y-78074998D01*
X175775000Y-77100000D01*
X174937501Y-77100000D01*
X174937501Y-77374986D01*
X165544932Y-77374986D01*
X164436819Y-76266873D01*
X164403334Y-76205550D01*
X164400500Y-76179192D01*
X164400500Y-74160346D01*
X164420185Y-74093307D01*
X164472989Y-74047552D01*
X164542147Y-74037608D01*
X164605703Y-74066633D01*
X164631885Y-74098344D01*
X164708064Y-74230289D01*
X164708066Y-74230292D01*
X164708067Y-74230293D01*
X164855733Y-74422736D01*
X164855739Y-74422743D01*
X165027256Y-74594260D01*
X165027262Y-74594265D01*
X165219711Y-74741936D01*
X165429788Y-74863224D01*
X165653900Y-74956054D01*
X165888211Y-75018838D01*
X166068586Y-75042584D01*
X166128711Y-75050500D01*
X166128712Y-75050500D01*
X166371289Y-75050500D01*
X166419388Y-75044167D01*
X166611789Y-75018838D01*
X166846100Y-74956054D01*
X167070212Y-74863224D01*
X167280289Y-74741936D01*
X167472738Y-74594265D01*
X167644265Y-74422738D01*
X167791936Y-74230289D01*
X167913224Y-74020212D01*
X168006054Y-73796100D01*
X168068838Y-73561789D01*
X168100500Y-73321288D01*
X168100500Y-73078712D01*
X168068838Y-72838211D01*
X168006054Y-72603900D01*
X167913224Y-72379788D01*
X167791936Y-72169711D01*
X167644265Y-71977262D01*
X167644260Y-71977256D01*
X167472743Y-71805739D01*
X167472736Y-71805733D01*
X167280293Y-71658067D01*
X167280292Y-71658066D01*
X167280289Y-71658064D01*
X167070212Y-71536776D01*
X167070205Y-71536773D01*
X166846104Y-71443947D01*
X166611785Y-71381161D01*
X166371289Y-71349500D01*
X166371288Y-71349500D01*
X166128712Y-71349500D01*
X166128711Y-71349500D01*
X165888214Y-71381161D01*
X165653895Y-71443947D01*
X165429794Y-71536773D01*
X165429785Y-71536777D01*
X165219706Y-71658067D01*
X165027263Y-71805733D01*
X165027256Y-71805739D01*
X164855739Y-71977256D01*
X164855733Y-71977263D01*
X164708069Y-72169703D01*
X164708065Y-72169708D01*
X164708064Y-72169711D01*
X164698494Y-72186287D01*
X164631887Y-72301654D01*
X164581320Y-72349869D01*
X164512712Y-72363091D01*
X164447848Y-72337123D01*
X164407320Y-72280209D01*
X164400500Y-72239653D01*
X164400500Y-54635928D01*
X164375502Y-54510261D01*
X164375501Y-54510260D01*
X164375501Y-54510256D01*
X164337574Y-54418692D01*
X164326466Y-54391875D01*
X164326460Y-54391864D01*
X164303943Y-54358166D01*
X164303941Y-54358164D01*
X164255276Y-54285330D01*
X164255274Y-54285328D01*
X164255272Y-54285325D01*
X163736818Y-53766871D01*
X163703333Y-53705548D01*
X163700499Y-53679190D01*
X163700499Y-52824998D01*
X163700498Y-52824981D01*
X163689999Y-52722203D01*
X163689998Y-52722200D01*
X163664183Y-52644297D01*
X163634814Y-52555666D01*
X163542712Y-52406344D01*
X163418656Y-52282288D01*
X163269334Y-52190186D01*
X163102797Y-52135001D01*
X163102795Y-52135000D01*
X163000016Y-52124500D01*
X162124500Y-52124500D01*
X162057461Y-52104815D01*
X162011706Y-52052011D01*
X162000500Y-52000500D01*
X162000500Y-47101458D01*
X162000499Y-47101457D01*
X161994121Y-47069389D01*
X161962052Y-46908165D01*
X161886632Y-46726086D01*
X161886631Y-46726085D01*
X161886628Y-46726079D01*
X161777140Y-46562219D01*
X161777137Y-46562215D01*
X160484209Y-45269289D01*
X160484206Y-45269285D01*
X160484206Y-45269286D01*
X160477139Y-45262219D01*
X160477139Y-45262218D01*
X160337782Y-45122861D01*
X160337781Y-45122860D01*
X160337780Y-45122859D01*
X160173920Y-45013371D01*
X160173911Y-45013366D01*
X160101315Y-44983296D01*
X160045165Y-44960038D01*
X159991836Y-44937949D01*
X159991832Y-44937948D01*
X159991828Y-44937946D01*
X159895188Y-44918724D01*
X159798544Y-44899500D01*
X159798541Y-44899500D01*
X152151459Y-44899500D01*
X152151455Y-44899500D01*
X152054812Y-44918724D01*
X151958167Y-44937947D01*
X151958161Y-44937949D01*
X151904834Y-44960037D01*
X151904834Y-44960038D01*
X151859315Y-44978892D01*
X151776089Y-45013366D01*
X151776079Y-45013371D01*
X151612219Y-45122859D01*
X151542540Y-45192538D01*
X151472861Y-45262218D01*
X151472858Y-45262221D01*
X143471899Y-53263181D01*
X143410576Y-53296666D01*
X143384218Y-53299500D01*
X131960200Y-53299500D01*
X131893161Y-53279815D01*
X131880634Y-53270506D01*
X131707817Y-53144949D01*
X131698504Y-53140204D01*
X131647707Y-53092230D01*
X131630912Y-53024409D01*
X131653449Y-52958274D01*
X131698507Y-52919232D01*
X131707555Y-52914622D01*
X131761716Y-52875270D01*
X131761717Y-52875270D01*
X131129408Y-52242962D01*
X131192993Y-52225925D01*
X131307007Y-52160099D01*
X131400099Y-52067007D01*
X131465925Y-51952993D01*
X131482962Y-51889408D01*
X132115270Y-52521717D01*
X132115270Y-52521716D01*
X132154622Y-52467554D01*
X132251095Y-52278217D01*
X132316757Y-52076130D01*
X132316757Y-52076127D01*
X132350000Y-51866246D01*
X132350000Y-51653753D01*
X132316757Y-51443872D01*
X132316757Y-51443869D01*
X132251095Y-51241782D01*
X132154624Y-51052449D01*
X132115270Y-50998282D01*
X132115269Y-50998282D01*
X131482962Y-51630590D01*
X131465925Y-51567007D01*
X131400099Y-51452993D01*
X131307007Y-51359901D01*
X131192993Y-51294075D01*
X131129409Y-51277037D01*
X131799627Y-50606818D01*
X131860950Y-50573333D01*
X131887307Y-50570499D01*
X131897872Y-50570499D01*
X131957483Y-50564091D01*
X132092331Y-50513796D01*
X132207546Y-50427546D01*
X132293796Y-50312331D01*
X132344091Y-50177483D01*
X132350500Y-50117873D01*
X132350499Y-48322128D01*
X132344091Y-48262517D01*
X132293796Y-48127669D01*
X132293795Y-48127668D01*
X132293793Y-48127664D01*
X132207547Y-48012455D01*
X132207544Y-48012452D01*
X132092335Y-47926206D01*
X132092332Y-47926205D01*
X132092331Y-47926204D01*
X132081161Y-47922038D01*
X132025231Y-47880166D01*
X132000816Y-47814701D01*
X132000500Y-47805858D01*
X132000500Y-41865782D01*
X132020185Y-41798743D01*
X132036819Y-41778101D01*
X132312319Y-41502601D01*
X132373642Y-41469116D01*
X132443334Y-41474100D01*
X132487681Y-41502601D01*
X134069735Y-43084655D01*
X134069764Y-43084686D01*
X134212214Y-43227136D01*
X134212218Y-43227139D01*
X134376079Y-43336628D01*
X134376092Y-43336635D01*
X134504833Y-43389961D01*
X134547744Y-43407735D01*
X134558164Y-43412051D01*
X134654812Y-43431275D01*
X134703135Y-43440887D01*
X134751458Y-43450500D01*
X134751459Y-43450500D01*
X156298542Y-43450500D01*
X156329566Y-43444328D01*
X156395188Y-43431275D01*
X156491836Y-43412051D01*
X156545165Y-43389961D01*
X156673914Y-43336632D01*
X156837782Y-43227139D01*
X156977139Y-43087782D01*
X156977139Y-43087780D01*
X156987347Y-43077573D01*
X156987349Y-43077570D01*
X158713593Y-41351325D01*
X158774914Y-41317842D01*
X158825463Y-41317390D01*
X158828417Y-41317977D01*
G37*
%TD.AperFunction*%
%TA.AperFunction,Conductor*%
G36*
X182514075Y-74092993D02*
G01*
X182579901Y-74207007D01*
X182672993Y-74300099D01*
X182787007Y-74365925D01*
X182850590Y-74382962D01*
X182218282Y-75015269D01*
X182218282Y-75015270D01*
X182272449Y-75054624D01*
X182461782Y-75151095D01*
X182663869Y-75216757D01*
X182663874Y-75216758D01*
X182867350Y-75248985D01*
X182930485Y-75278914D01*
X182967417Y-75338225D01*
X182966419Y-75408088D01*
X182951057Y-75440346D01*
X182934071Y-75465769D01*
X182880460Y-75510575D01*
X182869983Y-75514583D01*
X182868171Y-75515183D01*
X182868169Y-75515184D01*
X182718842Y-75607289D01*
X182594789Y-75731342D01*
X182594788Y-75731344D01*
X182565076Y-75779516D01*
X182553446Y-75798371D01*
X182501498Y-75845095D01*
X182432535Y-75856318D01*
X182368453Y-75828474D01*
X182360226Y-75820955D01*
X181481432Y-74942161D01*
X181447947Y-74880838D01*
X181452931Y-74811146D01*
X181467860Y-74782899D01*
X181469941Y-74779954D01*
X181470104Y-74779792D01*
X181595051Y-74607816D01*
X181603862Y-74590521D01*
X181609027Y-74583217D01*
X181629676Y-74566863D01*
X181647763Y-74547711D01*
X181656636Y-74545512D01*
X181663801Y-74539839D01*
X181690011Y-74537245D01*
X181715583Y-74530911D01*
X181724235Y-74533859D01*
X181733331Y-74532959D01*
X181756786Y-74544950D01*
X181781719Y-74553445D01*
X181788332Y-74561076D01*
X181795543Y-74564763D01*
X181803752Y-74578870D01*
X181820763Y-74598500D01*
X181825373Y-74607547D01*
X181864728Y-74661716D01*
X182497037Y-74029408D01*
X182514075Y-74092993D01*
G37*
%TD.AperFunction*%
%TD*%
M02*
