%TF.GenerationSoftware,KiCad,Pcbnew,10.0.0*%
%TF.CreationDate,2026-05-30T12:33:43+07:00*%
%TF.ProjectId,v2v-proto,7632762d-7072-46f7-946f-2e6b69636164,rev?*%
%TF.SameCoordinates,Original*%
%TF.FileFunction,Legend,Bot*%
%TF.FilePolarity,Positive*%
%FSLAX46Y46*%
G04 Gerber Fmt 4.6, Leading zero omitted, Abs format (unit mm)*
G04 Created by KiCad (PCBNEW 10.0.0) date 2026-05-30 12:33:43*
%MOMM*%
%LPD*%
G01*
G04 APERTURE LIST*
G04 Aperture macros list*
%AMRoundRect*
0 Rectangle with rounded corners*
0 $1 Rounding radius*
0 $2 $3 $4 $5 $6 $7 $8 $9 X,Y pos of 4 corners*
0 Add a 4 corners polygon primitive as box body*
4,1,4,$2,$3,$4,$5,$6,$7,$8,$9,$2,$3,0*
0 Add four circle primitives for the rounded corners*
1,1,$1+$1,$2,$3*
1,1,$1+$1,$4,$5*
1,1,$1+$1,$6,$7*
1,1,$1+$1,$8,$9*
0 Add four rect primitives between the rounded corners*
20,1,$1+$1,$2,$3,$4,$5,0*
20,1,$1+$1,$4,$5,$6,$7,0*
20,1,$1+$1,$6,$7,$8,$9,0*
20,1,$1+$1,$8,$9,$2,$3,0*%
G04 Aperture macros list end*
%ADD10C,0.000000*%
%ADD11R,1.700000X1.700000*%
%ADD12C,1.700000*%
%ADD13C,3.200000*%
%ADD14R,1.300000X1.300000*%
%ADD15C,1.300000*%
%ADD16RoundRect,0.250001X-1.149999X-1.149999X1.149999X-1.149999X1.149999X1.149999X-1.149999X1.149999X0*%
%ADD17C,2.800000*%
%ADD18R,2.000000X2.000000*%
%ADD19C,2.000000*%
%ADD20RoundRect,0.250000X-0.550000X-0.550000X0.550000X-0.550000X0.550000X0.550000X-0.550000X0.550000X0*%
%ADD21C,1.600000*%
G04 APERTURE END LIST*
D10*
%TO.C,G\u002A\u002A\u002A*%
G36*
X141326482Y-72967454D02*
G01*
X141404856Y-72969054D01*
X141456835Y-72972626D01*
X141485873Y-72978486D01*
X141495422Y-72986953D01*
X141497184Y-73011703D01*
X141499094Y-73064837D01*
X141499960Y-73127800D01*
X141499823Y-73192336D01*
X141498723Y-73250191D01*
X141496702Y-73293111D01*
X141493800Y-73312842D01*
X141485905Y-73315609D01*
X141452216Y-73319899D01*
X141398686Y-73323924D01*
X141332378Y-73327392D01*
X141260359Y-73330012D01*
X141189691Y-73331493D01*
X141127440Y-73331543D01*
X141080669Y-73329872D01*
X141076289Y-73316554D01*
X141072440Y-73277683D01*
X141069833Y-73219470D01*
X141068874Y-73148160D01*
X141068874Y-72967293D01*
X141281196Y-72967293D01*
X141326482Y-72967454D01*
G37*
G36*
X141301542Y-75294994D02*
G01*
X141382255Y-75295783D01*
X141437525Y-75298110D01*
X141472253Y-75302527D01*
X141491344Y-75309588D01*
X141499699Y-75319849D01*
X141505331Y-75347450D01*
X141508950Y-75397793D01*
X141509802Y-75459929D01*
X141508128Y-75525215D01*
X141504171Y-75585010D01*
X141498172Y-75630672D01*
X141490372Y-75653559D01*
X141488206Y-75655054D01*
X141460957Y-75661612D01*
X141411620Y-75666854D01*
X141347831Y-75670625D01*
X141277225Y-75672768D01*
X141207440Y-75673128D01*
X141146110Y-75671548D01*
X141100871Y-75667873D01*
X141079359Y-75661947D01*
X141075621Y-75646440D01*
X141072123Y-75605162D01*
X141069748Y-75545170D01*
X141068874Y-75473217D01*
X141068874Y-75294971D01*
X141279513Y-75294971D01*
X141301542Y-75294994D01*
G37*
G36*
X140770050Y-73148013D02*
G01*
X140769938Y-73208701D01*
X140768908Y-73266297D01*
X140765911Y-73301809D01*
X140759901Y-73320600D01*
X140749834Y-73328032D01*
X140734663Y-73329469D01*
X140661395Y-73330119D01*
X140565689Y-73330512D01*
X140454238Y-73330632D01*
X140330672Y-73330503D01*
X140198622Y-73330150D01*
X140061720Y-73329595D01*
X139923595Y-73328863D01*
X139787879Y-73327978D01*
X139658203Y-73326963D01*
X139538197Y-73325841D01*
X139431491Y-73324638D01*
X139341718Y-73323376D01*
X139272507Y-73322080D01*
X139227490Y-73320773D01*
X139210297Y-73319479D01*
X139205999Y-73307624D01*
X139202011Y-73269641D01*
X139200123Y-73212463D01*
X139200707Y-73142979D01*
X139205158Y-72975157D01*
X139987604Y-72971078D01*
X140770050Y-72966999D01*
X140770050Y-73148013D01*
G37*
G36*
X140766617Y-75479770D02*
G01*
X140762186Y-75664569D01*
X140015127Y-75668929D01*
X139868892Y-75669610D01*
X139725843Y-75669924D01*
X139594712Y-75669858D01*
X139478756Y-75669430D01*
X139381230Y-75668660D01*
X139305390Y-75667565D01*
X139254493Y-75666163D01*
X139231794Y-75664475D01*
X139225088Y-75662732D01*
X139211080Y-75656088D01*
X139202593Y-75641987D01*
X139198447Y-75614432D01*
X139197462Y-75567427D01*
X139198460Y-75494975D01*
X139199619Y-75448067D01*
X139202224Y-75384976D01*
X139205465Y-75337929D01*
X139208894Y-75314631D01*
X139209204Y-75314041D01*
X139219016Y-75309468D01*
X139243178Y-75305633D01*
X139283829Y-75302483D01*
X139343107Y-75299965D01*
X139423149Y-75298024D01*
X139526093Y-75296608D01*
X139654077Y-75295663D01*
X139809240Y-75295135D01*
X139993718Y-75294971D01*
X140771048Y-75294971D01*
X140766617Y-75479770D01*
G37*
G36*
X140227259Y-69337441D02*
G01*
X140311313Y-69339892D01*
X140378500Y-69343980D01*
X140432244Y-69349970D01*
X140475973Y-69358126D01*
X140513111Y-69368713D01*
X140547085Y-69381993D01*
X140581319Y-69398232D01*
X140646884Y-69441972D01*
X140717446Y-69517181D01*
X140771781Y-69609460D01*
X140774744Y-69616187D01*
X140788784Y-69653105D01*
X140798109Y-69691780D01*
X140803640Y-69739634D01*
X140806303Y-69804086D01*
X140807021Y-69892556D01*
X140805262Y-69983054D01*
X140795347Y-70095180D01*
X140775372Y-70187024D01*
X140743849Y-70264697D01*
X140699285Y-70334314D01*
X140690355Y-70346256D01*
X140668644Y-70377829D01*
X140659957Y-70394789D01*
X140660481Y-70396010D01*
X140678911Y-70401480D01*
X140715519Y-70403702D01*
X140771080Y-70403702D01*
X140766633Y-70580637D01*
X140762186Y-70757572D01*
X139992558Y-70761655D01*
X139828113Y-70762353D01*
X139659425Y-70762565D01*
X139519801Y-70762080D01*
X139407944Y-70760875D01*
X139322556Y-70758929D01*
X139262339Y-70756219D01*
X139225995Y-70752723D01*
X139212226Y-70748419D01*
X139207424Y-70727214D01*
X139203460Y-70682292D01*
X139200826Y-70622895D01*
X139199672Y-70557769D01*
X139200145Y-70495663D01*
X139202395Y-70445323D01*
X139206570Y-70415497D01*
X139209114Y-70410157D01*
X139216603Y-70403997D01*
X139231448Y-70399090D01*
X139256661Y-70395294D01*
X139295254Y-70392470D01*
X139350240Y-70390475D01*
X139424632Y-70389170D01*
X139521441Y-70388411D01*
X139643680Y-70388060D01*
X139794362Y-70387974D01*
X140373582Y-70387974D01*
X140420606Y-70313268D01*
X140443535Y-70274695D01*
X140480738Y-70192333D01*
X140500418Y-70106330D01*
X140506177Y-70003648D01*
X140505833Y-69980422D01*
X140494157Y-69884587D01*
X140464496Y-69812072D01*
X140414956Y-69759617D01*
X140343641Y-69723961D01*
X140316942Y-69718931D01*
X140257938Y-69713485D01*
X140170108Y-69708496D01*
X140054862Y-69704029D01*
X139913609Y-69700147D01*
X139747759Y-69696914D01*
X139205158Y-69688098D01*
X139205158Y-69515095D01*
X139205158Y-69342092D01*
X139794942Y-69337605D01*
X139839635Y-69337275D01*
X139994846Y-69336397D01*
X140122912Y-69336364D01*
X140227259Y-69337441D01*
G37*
G36*
X140213206Y-71081188D02*
G01*
X140239606Y-71085153D01*
X140387682Y-71120545D01*
X140512315Y-71175641D01*
X140614318Y-71251389D01*
X140694506Y-71348736D01*
X140753692Y-71468632D01*
X140792688Y-71612024D01*
X140812308Y-71779863D01*
X140814816Y-71847509D01*
X140807024Y-72024216D01*
X140777538Y-72180053D01*
X140726650Y-72314378D01*
X140654649Y-72426550D01*
X140561828Y-72515925D01*
X140448478Y-72581863D01*
X140438672Y-72586128D01*
X140387298Y-72607083D01*
X140341123Y-72622037D01*
X140291004Y-72633077D01*
X140227801Y-72642292D01*
X140142372Y-72651768D01*
X140092170Y-72656040D01*
X139968382Y-72657679D01*
X139937843Y-72658083D01*
X139788765Y-72644206D01*
X139650956Y-72615541D01*
X139530431Y-72573221D01*
X139433208Y-72518377D01*
X139420384Y-72508742D01*
X139329745Y-72418995D01*
X139257599Y-72306120D01*
X139205597Y-72173280D01*
X139175387Y-72023640D01*
X139173067Y-71995667D01*
X139171659Y-71925837D01*
X139173709Y-71841847D01*
X139175547Y-71808706D01*
X139468012Y-71808706D01*
X139468341Y-71908890D01*
X139483626Y-72005467D01*
X139512587Y-72089830D01*
X139553943Y-72153373D01*
X139617747Y-72203558D01*
X139712504Y-72244772D01*
X139830255Y-72270575D01*
X139968382Y-72280413D01*
X140124267Y-72273733D01*
X140142340Y-72271931D01*
X140257389Y-72252032D01*
X140347394Y-72218747D01*
X140416160Y-72170201D01*
X140467490Y-72104518D01*
X140477022Y-72086594D01*
X140504270Y-72005386D01*
X140517084Y-71910904D01*
X140515987Y-71811633D01*
X140501504Y-71716060D01*
X140474159Y-71632667D01*
X140434476Y-71569942D01*
X140372203Y-71521694D01*
X140281673Y-71483391D01*
X140168726Y-71458438D01*
X140036794Y-71447581D01*
X139889307Y-71451564D01*
X139844102Y-71455688D01*
X139728986Y-71475323D01*
X139639138Y-71507731D01*
X139571131Y-71555054D01*
X139521537Y-71619435D01*
X139486929Y-71703015D01*
X139483920Y-71713519D01*
X139468012Y-71808706D01*
X139175547Y-71808706D01*
X139178647Y-71752820D01*
X139185905Y-71667877D01*
X139194915Y-71596140D01*
X139205109Y-71546730D01*
X139227139Y-71482791D01*
X139290137Y-71359506D01*
X139374000Y-71258993D01*
X139479620Y-71180513D01*
X139607886Y-71123327D01*
X139759690Y-71086696D01*
X139913053Y-71068403D01*
X140058998Y-71066540D01*
X140213206Y-71081188D01*
G37*
G36*
X140975051Y-78170652D02*
G01*
X141101265Y-78205293D01*
X141217203Y-78266734D01*
X141278184Y-78317604D01*
X141355124Y-78411678D01*
X141419298Y-78527895D01*
X141467585Y-78661339D01*
X141473358Y-78683309D01*
X141495306Y-78801124D01*
X141510284Y-78947421D01*
X141518241Y-79120390D01*
X141519125Y-79318224D01*
X141512884Y-79539115D01*
X141499468Y-79781256D01*
X141490178Y-79918872D01*
X141326709Y-79918872D01*
X141163239Y-79918872D01*
X141163239Y-79450350D01*
X141163239Y-79446663D01*
X141162697Y-79290049D01*
X141160801Y-79161242D01*
X141157089Y-79056685D01*
X141151096Y-78972818D01*
X141142361Y-78906085D01*
X141130419Y-78852925D01*
X141114809Y-78809781D01*
X141095067Y-78773094D01*
X141070730Y-78739306D01*
X141066645Y-78734268D01*
X141001004Y-78672736D01*
X140927713Y-78640192D01*
X140843841Y-78635912D01*
X140746459Y-78659173D01*
X140719424Y-78669683D01*
X140680270Y-78690448D01*
X140644802Y-78718585D01*
X140611495Y-78756959D01*
X140578822Y-78808433D01*
X140545257Y-78875869D01*
X140509273Y-78962131D01*
X140469345Y-79070081D01*
X140423947Y-79202584D01*
X140371551Y-79362502D01*
X140318875Y-79514730D01*
X140265186Y-79644438D01*
X140209979Y-79749244D01*
X140150929Y-79832403D01*
X140085713Y-79897172D01*
X140012005Y-79946806D01*
X139927483Y-79984561D01*
X139918963Y-79987591D01*
X139881314Y-79999131D01*
X139840249Y-80007817D01*
X139790161Y-80014226D01*
X139725441Y-80018936D01*
X139640483Y-80022525D01*
X139529677Y-80025571D01*
X139431186Y-80027437D01*
X139336978Y-80027772D01*
X139270691Y-80025886D01*
X139230413Y-80021715D01*
X139214234Y-80015198D01*
X139212762Y-80004477D01*
X139210880Y-79964646D01*
X139209169Y-79898334D01*
X139207662Y-79808411D01*
X139206388Y-79697745D01*
X139205381Y-79569205D01*
X139204670Y-79425660D01*
X139204288Y-79269979D01*
X139204267Y-79105030D01*
X139205158Y-78212432D01*
X139374230Y-78207968D01*
X139543301Y-78203504D01*
X139543301Y-78896049D01*
X139543301Y-79588593D01*
X139627825Y-79588593D01*
X139629469Y-79588591D01*
X139731347Y-79577217D01*
X139822887Y-79545855D01*
X139895150Y-79497549D01*
X139897807Y-79495007D01*
X139940724Y-79439433D01*
X139984009Y-79358236D01*
X140025168Y-79256762D01*
X140061709Y-79140358D01*
X140104429Y-78989519D01*
X140154598Y-78828430D01*
X140202922Y-78693096D01*
X140250696Y-78580516D01*
X140299219Y-78487692D01*
X140349787Y-78411623D01*
X140403696Y-78349310D01*
X140473086Y-78289369D01*
X140587576Y-78222171D01*
X140712923Y-78179628D01*
X140843842Y-78162276D01*
X140975051Y-78170652D01*
G37*
G36*
X139750755Y-73635968D02*
G01*
X139831319Y-73645251D01*
X139892341Y-73663549D01*
X139928396Y-73682692D01*
X139989004Y-73727095D01*
X140038765Y-73784186D01*
X140079544Y-73857710D01*
X140113208Y-73951414D01*
X140141621Y-74069044D01*
X140166650Y-74214346D01*
X140170885Y-74242565D01*
X140188062Y-74352716D01*
X140202815Y-74436695D01*
X140216359Y-74498629D01*
X140229912Y-74542647D01*
X140244689Y-74572878D01*
X140261906Y-74593449D01*
X140282781Y-74608489D01*
X140324849Y-74627558D01*
X140385825Y-74632178D01*
X140439175Y-74606591D01*
X140482859Y-74551378D01*
X140486270Y-74544107D01*
X140498377Y-74495275D01*
X140506224Y-74422538D01*
X140509820Y-74331788D01*
X140509175Y-74228920D01*
X140504297Y-74119827D01*
X140495195Y-74010401D01*
X140481878Y-73906538D01*
X140472994Y-73849005D01*
X140463937Y-73789244D01*
X140457774Y-73747220D01*
X140455499Y-73729603D01*
X140458889Y-73727992D01*
X140485858Y-73725030D01*
X140533906Y-73722981D01*
X140595987Y-73722216D01*
X140623038Y-73722300D01*
X140681869Y-73723822D01*
X140717582Y-73728140D01*
X140736341Y-73736398D01*
X140744310Y-73749739D01*
X140768159Y-73841395D01*
X140787431Y-73939690D01*
X140799934Y-74042277D01*
X140806729Y-74158142D01*
X140808877Y-74296271D01*
X140808890Y-74326850D01*
X140808343Y-74420616D01*
X140806359Y-74491429D01*
X140802273Y-74545955D01*
X140795420Y-74590865D01*
X140785133Y-74632826D01*
X140770749Y-74678508D01*
X140755179Y-74720961D01*
X140702702Y-74821355D01*
X140634363Y-74898105D01*
X140546739Y-74955441D01*
X140502947Y-74975100D01*
X140457408Y-74988233D01*
X140403539Y-74994529D01*
X140329827Y-74996148D01*
X140290617Y-74995925D01*
X140233980Y-74993281D01*
X140192107Y-74985592D01*
X140154060Y-74970321D01*
X140108897Y-74944933D01*
X140095323Y-74936452D01*
X140024055Y-74876256D01*
X139966723Y-74796602D01*
X139922106Y-74694824D01*
X139888985Y-74568254D01*
X139866140Y-74414228D01*
X139863467Y-74390276D01*
X139849622Y-74287546D01*
X139833699Y-74197510D01*
X139816923Y-74126410D01*
X139800522Y-74080484D01*
X139780914Y-74050783D01*
X139734360Y-74015801D01*
X139678962Y-74003784D01*
X139621025Y-74013200D01*
X139566855Y-74042517D01*
X139522757Y-74090202D01*
X139495039Y-74154723D01*
X139483925Y-74227823D01*
X139479087Y-74326634D01*
X139480595Y-74441861D01*
X139488013Y-74566283D01*
X139500906Y-74692675D01*
X139518836Y-74813815D01*
X139541370Y-74922481D01*
X139545471Y-74939927D01*
X139548592Y-74967925D01*
X139539910Y-74984880D01*
X139514525Y-74993135D01*
X139467533Y-74995035D01*
X139394033Y-74992923D01*
X139271136Y-74988284D01*
X139248922Y-74925374D01*
X139224394Y-74839803D01*
X139200713Y-74718103D01*
X139181369Y-74571504D01*
X139180359Y-74561573D01*
X139174944Y-74470914D01*
X139174108Y-74367808D01*
X139177436Y-74261014D01*
X139184512Y-74159294D01*
X139194917Y-74071407D01*
X139208238Y-74006116D01*
X139233069Y-73932904D01*
X139291372Y-73821531D01*
X139367894Y-73735135D01*
X139463315Y-73672826D01*
X139497062Y-73659926D01*
X139573102Y-73643533D01*
X139661175Y-73635471D01*
X139750755Y-73635968D01*
G37*
G36*
X141489656Y-75836799D02*
G01*
X141491628Y-75858066D01*
X141493385Y-75902171D01*
X141494815Y-75961771D01*
X141495805Y-76029520D01*
X141496242Y-76098075D01*
X141496015Y-76160093D01*
X141495010Y-76208229D01*
X141493181Y-76223878D01*
X141481944Y-76243188D01*
X141454286Y-76258930D01*
X141403084Y-76276385D01*
X141317609Y-76302689D01*
X141185498Y-76343541D01*
X141061567Y-76382090D01*
X140951295Y-76416625D01*
X140860160Y-76445434D01*
X140793641Y-76466806D01*
X140776712Y-76472302D01*
X140712823Y-76492830D01*
X140630841Y-76518965D01*
X140539525Y-76547920D01*
X140447635Y-76576906D01*
X140410716Y-76588526D01*
X140321856Y-76616559D01*
X140239409Y-76642650D01*
X140171242Y-76664309D01*
X140125220Y-76679042D01*
X140050325Y-76703263D01*
X139908537Y-76749362D01*
X139793374Y-76787242D01*
X139702516Y-76817719D01*
X139633642Y-76841607D01*
X139584430Y-76859722D01*
X139552562Y-76872879D01*
X139535715Y-76881893D01*
X139531569Y-76887579D01*
X139541737Y-76896257D01*
X139574952Y-76912421D01*
X139622357Y-76930063D01*
X139644160Y-76937190D01*
X139699512Y-76955132D01*
X139776930Y-76980123D01*
X139871620Y-77010624D01*
X139978792Y-77045096D01*
X140093653Y-77081996D01*
X140211410Y-77119787D01*
X140327271Y-77156927D01*
X140436444Y-77191875D01*
X140534137Y-77223093D01*
X140585545Y-77239566D01*
X140665527Y-77265318D01*
X140754440Y-77294046D01*
X140840824Y-77322049D01*
X140905411Y-77342864D01*
X141007397Y-77375264D01*
X141108687Y-77406991D01*
X141194694Y-77433452D01*
X141273999Y-77457567D01*
X141350596Y-77481149D01*
X141404858Y-77498449D01*
X141441140Y-77510994D01*
X141463796Y-77520308D01*
X141477183Y-77527917D01*
X141485654Y-77535345D01*
X141490875Y-77551223D01*
X141495346Y-77595263D01*
X141497318Y-77661416D01*
X141496525Y-77744538D01*
X141495013Y-77795463D01*
X141491559Y-77863853D01*
X141486627Y-77907437D01*
X141479632Y-77930468D01*
X141469987Y-77937200D01*
X141468732Y-77937102D01*
X141443962Y-77930962D01*
X141395033Y-77916380D01*
X141326859Y-77894899D01*
X141244353Y-77868064D01*
X141152429Y-77837419D01*
X141079796Y-77812943D01*
X140964129Y-77774012D01*
X140832724Y-77729824D01*
X140693578Y-77683068D01*
X140554686Y-77636430D01*
X140424044Y-77592597D01*
X140400555Y-77584715D01*
X140289928Y-77547458D01*
X140188749Y-77513167D01*
X140101097Y-77483240D01*
X140031050Y-77459075D01*
X139982685Y-77442068D01*
X139960081Y-77433617D01*
X139932456Y-77423121D01*
X139883685Y-77406641D01*
X139826397Y-77388587D01*
X139817842Y-77385965D01*
X139757784Y-77366853D01*
X139683095Y-77342222D01*
X139599335Y-77314000D01*
X139512065Y-77284117D01*
X139426844Y-77254504D01*
X139349233Y-77227088D01*
X139284793Y-77203801D01*
X139239082Y-77186572D01*
X139217663Y-77177330D01*
X139217201Y-77177017D01*
X139210274Y-77162709D01*
X139205889Y-77129773D01*
X139203924Y-77075018D01*
X139204261Y-76995254D01*
X139206780Y-76887293D01*
X139209334Y-76807807D01*
X139212496Y-76727429D01*
X139215672Y-76663038D01*
X139218605Y-76619787D01*
X139221036Y-76602829D01*
X139229165Y-76599429D01*
X139263998Y-76586801D01*
X139323326Y-76565993D01*
X139404009Y-76538071D01*
X139502911Y-76504104D01*
X139616894Y-76465159D01*
X139742819Y-76422303D01*
X139877550Y-76376602D01*
X140017947Y-76329126D01*
X140160875Y-76280940D01*
X140303194Y-76233113D01*
X140441767Y-76186711D01*
X140573456Y-76142802D01*
X140663970Y-76112499D01*
X140746244Y-76084580D01*
X140814542Y-76061019D01*
X140863562Y-76043644D01*
X140888007Y-76034284D01*
X140889576Y-76033579D01*
X140927768Y-76019323D01*
X140974508Y-76005099D01*
X140985842Y-76001820D01*
X141030583Y-75987608D01*
X141095208Y-75966115D01*
X141172881Y-75939636D01*
X141256763Y-75910462D01*
X141300337Y-75895288D01*
X141373727Y-75870394D01*
X141433164Y-75851096D01*
X141473428Y-75839066D01*
X141489300Y-75835976D01*
X141489656Y-75836799D01*
G37*
G36*
X141482774Y-80207821D02*
G01*
X141487037Y-80239531D01*
X141490443Y-80294113D01*
X141492700Y-80366272D01*
X141493518Y-80450715D01*
X141493518Y-80699462D01*
X141403084Y-80736175D01*
X141350664Y-80757545D01*
X141268225Y-80791351D01*
X141171800Y-80831050D01*
X141066175Y-80874657D01*
X140956136Y-80920187D01*
X140846468Y-80965656D01*
X140741960Y-81009078D01*
X140647395Y-81048469D01*
X140567560Y-81081845D01*
X140507242Y-81107219D01*
X140471227Y-81122609D01*
X140435746Y-81137825D01*
X140374807Y-81163582D01*
X140294284Y-81197401D01*
X140199023Y-81237249D01*
X140093871Y-81281096D01*
X139983672Y-81326911D01*
X139975057Y-81330489D01*
X139870252Y-81374293D01*
X139775204Y-81414506D01*
X139693780Y-81449457D01*
X139629849Y-81477470D01*
X139587277Y-81496872D01*
X139569930Y-81505989D01*
X139576442Y-81517077D01*
X139606222Y-81534498D01*
X139652834Y-81554328D01*
X139699642Y-81573126D01*
X139738719Y-81591540D01*
X139756885Y-81603763D01*
X139761502Y-81608785D01*
X139786909Y-81617448D01*
X139788468Y-81617542D01*
X139815402Y-81625086D01*
X139860795Y-81642324D01*
X139915733Y-81665904D01*
X139916125Y-81666081D01*
X139976989Y-81693571D01*
X140033609Y-81719135D01*
X140073775Y-81737259D01*
X140077295Y-81738834D01*
X140129505Y-81760625D01*
X140183868Y-81781324D01*
X140218372Y-81794449D01*
X140277109Y-81818455D01*
X140337542Y-81844550D01*
X140347014Y-81848771D01*
X140411977Y-81877715D01*
X140457939Y-81898152D01*
X140493584Y-81913926D01*
X140527596Y-81928883D01*
X140568661Y-81946868D01*
X140595933Y-81958556D01*
X140632809Y-81973384D01*
X140650764Y-81979182D01*
X140653380Y-81979564D01*
X140665012Y-81983450D01*
X140688504Y-81992996D01*
X140728070Y-82009998D01*
X140787924Y-82036250D01*
X140872279Y-82073547D01*
X140917579Y-82093597D01*
X140989195Y-82125154D01*
X141038453Y-82146563D01*
X141069592Y-82159625D01*
X141086856Y-82166141D01*
X141094486Y-82167912D01*
X141095561Y-82168013D01*
X141117249Y-82175191D01*
X141152998Y-82190230D01*
X141153298Y-82190365D01*
X141193024Y-82208277D01*
X141249219Y-82233638D01*
X141309816Y-82261004D01*
X141316899Y-82264185D01*
X141370685Y-82287116D01*
X141413429Y-82303319D01*
X141436423Y-82309460D01*
X141446493Y-82310123D01*
X141464087Y-82317477D01*
X141476746Y-82336219D01*
X141485244Y-82370360D01*
X141490356Y-82423909D01*
X141492856Y-82500876D01*
X141493518Y-82605271D01*
X141493518Y-82863335D01*
X141455182Y-82853713D01*
X141424026Y-82843272D01*
X141373943Y-82823225D01*
X141317566Y-82798443D01*
X141312768Y-82796237D01*
X141246312Y-82765688D01*
X141168523Y-82729937D01*
X141095248Y-82696267D01*
X141072382Y-82685825D01*
X141019579Y-82662256D01*
X140981128Y-82645877D01*
X140964108Y-82639739D01*
X140963326Y-82639628D01*
X140943050Y-82631939D01*
X140903105Y-82614527D01*
X140851232Y-82590754D01*
X140783806Y-82559777D01*
X140703057Y-82523513D01*
X140628502Y-82490758D01*
X140592420Y-82475116D01*
X140531727Y-82448539D01*
X140472725Y-82422233D01*
X140407872Y-82392789D01*
X140329628Y-82356800D01*
X140230450Y-82310856D01*
X140193191Y-82293664D01*
X140139730Y-82269409D01*
X140101810Y-82252745D01*
X140085901Y-82246550D01*
X140079949Y-82244493D01*
X140050785Y-82232027D01*
X140003404Y-82210772D01*
X139944354Y-82183640D01*
X139909812Y-82167697D01*
X139856616Y-82143544D01*
X139818822Y-82126918D01*
X139802972Y-82120730D01*
X139802105Y-82120559D01*
X139782070Y-82112733D01*
X139742158Y-82095565D01*
X139689878Y-82072274D01*
X139688741Y-82071760D01*
X139628616Y-82044626D01*
X139573588Y-82019839D01*
X139535437Y-82002707D01*
X139524915Y-81997993D01*
X139434071Y-81956828D01*
X139353652Y-81919572D01*
X139288253Y-81888410D01*
X139242466Y-81865527D01*
X139220886Y-81853108D01*
X139215489Y-81836544D01*
X139210988Y-81793231D01*
X139208099Y-81729357D01*
X139206729Y-81650680D01*
X139206784Y-81562953D01*
X139208174Y-81471931D01*
X139210804Y-81383371D01*
X139214583Y-81303026D01*
X139219419Y-81236652D01*
X139225218Y-81190005D01*
X139231888Y-81168838D01*
X139242089Y-81162322D01*
X139278641Y-81143824D01*
X139335464Y-81117468D01*
X139407140Y-81085741D01*
X139488254Y-81051130D01*
X139550426Y-81025033D01*
X139663737Y-80977210D01*
X139759371Y-80936399D01*
X139845081Y-80899278D01*
X139928626Y-80862525D01*
X139953812Y-80851367D01*
X140000232Y-80830801D01*
X140054446Y-80806782D01*
X140109835Y-80782507D01*
X140200313Y-80743447D01*
X140308152Y-80697370D01*
X140426840Y-80647054D01*
X140549864Y-80595281D01*
X140602976Y-80572699D01*
X140672791Y-80542317D01*
X140730731Y-80516387D01*
X140776289Y-80495954D01*
X140843473Y-80466583D01*
X140923826Y-80431974D01*
X141012674Y-80394089D01*
X141105342Y-80354890D01*
X141197157Y-80316339D01*
X141283443Y-80280397D01*
X141359528Y-80249027D01*
X141420735Y-80224191D01*
X141462392Y-80207851D01*
X141479823Y-80201968D01*
X141482774Y-80207821D01*
G37*
G36*
X138792956Y-83396986D02*
G01*
X138847186Y-83429564D01*
X138884553Y-83478481D01*
X138898471Y-83540245D01*
X138895395Y-83567137D01*
X138881364Y-83623906D01*
X138859122Y-83692609D01*
X138832153Y-83763606D01*
X138803937Y-83827256D01*
X138777957Y-83873920D01*
X138765159Y-83896733D01*
X138756923Y-83923895D01*
X138756928Y-83924038D01*
X138769976Y-83939532D01*
X138804671Y-83967272D01*
X138855796Y-84003373D01*
X138918131Y-84043948D01*
X138993334Y-84091157D01*
X139101891Y-84159587D01*
X139188674Y-84214833D01*
X139256820Y-84259015D01*
X139309463Y-84294250D01*
X139349740Y-84322654D01*
X139380787Y-84346347D01*
X139405741Y-84367445D01*
X139427736Y-84388066D01*
X139450848Y-84412601D01*
X139498891Y-84472888D01*
X139537829Y-84532741D01*
X139582620Y-84613547D01*
X139586988Y-85658997D01*
X139591356Y-86704447D01*
X139544246Y-86800141D01*
X139521456Y-86843697D01*
X139496935Y-86882806D01*
X139467887Y-86919457D01*
X139431422Y-86955834D01*
X139384652Y-86994119D01*
X139324687Y-87036497D01*
X139248636Y-87085150D01*
X139153610Y-87142262D01*
X139036720Y-87210015D01*
X138895075Y-87290592D01*
X138870969Y-87304417D01*
X138819456Y-87335298D01*
X138781853Y-87359742D01*
X138764992Y-87373401D01*
X138765872Y-87388639D01*
X138778684Y-87424559D01*
X138801188Y-87471064D01*
X138825378Y-87518798D01*
X138864118Y-87610829D01*
X138889416Y-87694555D01*
X138898471Y-87761611D01*
X138896376Y-87784722D01*
X138872335Y-87841574D01*
X138827186Y-87887514D01*
X138768177Y-87918231D01*
X138702554Y-87929417D01*
X138637565Y-87916761D01*
X138603930Y-87895363D01*
X138557073Y-87841524D01*
X138556098Y-87839763D01*
X138514693Y-87764977D01*
X138480080Y-87670862D01*
X138469114Y-87635598D01*
X138454711Y-87595582D01*
X138444876Y-87575891D01*
X138442891Y-87575074D01*
X138419502Y-87579801D01*
X138377517Y-87595796D01*
X138324415Y-87620302D01*
X138283836Y-87638959D01*
X138234392Y-87657179D01*
X138179618Y-87671708D01*
X138115785Y-87682938D01*
X138039163Y-87691256D01*
X137976197Y-87695174D01*
X137946020Y-87697052D01*
X137832628Y-87700715D01*
X137695256Y-87702635D01*
X137530174Y-87703201D01*
X137479186Y-87703159D01*
X137338859Y-87702213D01*
X137225792Y-87699499D01*
X137136814Y-87694329D01*
X137068752Y-87686014D01*
X137018436Y-87673867D01*
X136982693Y-87657197D01*
X136958351Y-87635318D01*
X136942239Y-87607540D01*
X136931185Y-87573174D01*
X136928172Y-87552422D01*
X136925109Y-87502508D01*
X136923237Y-87433588D01*
X136922490Y-87351969D01*
X136922800Y-87263958D01*
X136924100Y-87175861D01*
X136926322Y-87093984D01*
X136929399Y-87024636D01*
X136933264Y-86974123D01*
X136937850Y-86948750D01*
X136958129Y-86921861D01*
X137012251Y-86892381D01*
X137094935Y-86875270D01*
X137124604Y-86871096D01*
X137169751Y-86861221D01*
X137195963Y-86850636D01*
X137196588Y-86849767D01*
X137198386Y-86838943D01*
X137686788Y-86838943D01*
X137687780Y-86938997D01*
X137690067Y-87036089D01*
X137693597Y-87124539D01*
X137698313Y-87198666D01*
X137704162Y-87252790D01*
X137711089Y-87281232D01*
X137711099Y-87281248D01*
X137752057Y-87326413D01*
X137815178Y-87360315D01*
X137892534Y-87380850D01*
X137976197Y-87385913D01*
X138058239Y-87373399D01*
X138092248Y-87362654D01*
X138132564Y-87342172D01*
X138157396Y-87312864D01*
X138168939Y-87269255D01*
X138169388Y-87205866D01*
X138160941Y-87117222D01*
X138143020Y-86966652D01*
X138126231Y-86831524D01*
X138111238Y-86722020D01*
X138097161Y-86635213D01*
X138083120Y-86568177D01*
X138068234Y-86517986D01*
X138051622Y-86481714D01*
X138032403Y-86456434D01*
X138009697Y-86439219D01*
X137982624Y-86427145D01*
X137950302Y-86417283D01*
X137934515Y-86413633D01*
X137890822Y-86411806D01*
X137865896Y-86410763D01*
X137797905Y-86424934D01*
X137740474Y-86453125D01*
X137703537Y-86492316D01*
X137703168Y-86493052D01*
X137696866Y-86522711D01*
X137692130Y-86577811D01*
X137688909Y-86652669D01*
X137687146Y-86741607D01*
X137686788Y-86838943D01*
X137198386Y-86838943D01*
X137200414Y-86826733D01*
X137203854Y-86775679D01*
X137206908Y-86699579D01*
X137209577Y-86601405D01*
X137211860Y-86484132D01*
X137213758Y-86350734D01*
X137215270Y-86204184D01*
X137216397Y-86047455D01*
X137217139Y-85883521D01*
X137217478Y-85722889D01*
X138476532Y-85722889D01*
X138476995Y-85902490D01*
X138478023Y-86077106D01*
X138479614Y-86242328D01*
X138481763Y-86393743D01*
X138484468Y-86526940D01*
X138487726Y-86637509D01*
X138491534Y-86721039D01*
X138493357Y-86750358D01*
X138503072Y-86873768D01*
X138514503Y-86972856D01*
X138527349Y-87045839D01*
X138541314Y-87090936D01*
X138556098Y-87106364D01*
X138565062Y-87103493D01*
X138598670Y-87088057D01*
X138651544Y-87061525D01*
X138718616Y-87026464D01*
X138794815Y-86985441D01*
X138840646Y-86960438D01*
X138914525Y-86920154D01*
X138977376Y-86885908D01*
X139023671Y-86860712D01*
X139047883Y-86847577D01*
X139073833Y-86832410D01*
X139118117Y-86805037D01*
X139169017Y-86772583D01*
X139194265Y-86756694D01*
X139220034Y-86740437D01*
X139241875Y-86724480D01*
X139260112Y-86706380D01*
X139275068Y-86683695D01*
X139287066Y-86653983D01*
X139296428Y-86614800D01*
X139303479Y-86563704D01*
X139308541Y-86498253D01*
X139311938Y-86416004D01*
X139313993Y-86314514D01*
X139315028Y-86191340D01*
X139315368Y-86044041D01*
X139315334Y-85870173D01*
X139315251Y-85667293D01*
X139315272Y-85546233D01*
X139315301Y-85361576D01*
X139315100Y-85204500D01*
X139314413Y-85072555D01*
X139312984Y-84963290D01*
X139310560Y-84874256D01*
X139306882Y-84803004D01*
X139301697Y-84747084D01*
X139294748Y-84704045D01*
X139285779Y-84671439D01*
X139274536Y-84646816D01*
X139260762Y-84627726D01*
X139244202Y-84611719D01*
X139224600Y-84596346D01*
X139201700Y-84579157D01*
X139165713Y-84553990D01*
X139108249Y-84516898D01*
X139035956Y-84471960D01*
X138954751Y-84422697D01*
X138870554Y-84372626D01*
X138789284Y-84325267D01*
X138716859Y-84284138D01*
X138659198Y-84252758D01*
X138622219Y-84234646D01*
X138612743Y-84230891D01*
X138575163Y-84220085D01*
X138552831Y-84220132D01*
X138550410Y-84222059D01*
X138536327Y-84251851D01*
X138523265Y-84312782D01*
X138511212Y-84404928D01*
X138500159Y-84528363D01*
X138490096Y-84683164D01*
X138489378Y-84696651D01*
X138485797Y-84787633D01*
X138482804Y-84904508D01*
X138480394Y-85042864D01*
X138478565Y-85198292D01*
X138477314Y-85366379D01*
X138476637Y-85542715D01*
X138476532Y-85722889D01*
X137217478Y-85722889D01*
X137217494Y-85715357D01*
X137217465Y-85545935D01*
X137217049Y-85378229D01*
X137216249Y-85215213D01*
X137215062Y-85059860D01*
X137213490Y-84915144D01*
X137211533Y-84784039D01*
X137209190Y-84669518D01*
X137206462Y-84574555D01*
X137203348Y-84502123D01*
X137200255Y-84460654D01*
X137686742Y-84460654D01*
X137687956Y-84557834D01*
X137690713Y-84646792D01*
X137695018Y-84721729D01*
X137700877Y-84776846D01*
X137708292Y-84806345D01*
X137711204Y-84811369D01*
X137757860Y-84861172D01*
X137820387Y-84891138D01*
X137890822Y-84901172D01*
X137961200Y-84891176D01*
X138023559Y-84861055D01*
X138069935Y-84810713D01*
X138079279Y-84788715D01*
X138093820Y-84737189D01*
X138108159Y-84669566D01*
X138120231Y-84594714D01*
X138126208Y-84550673D01*
X138138346Y-84461177D01*
X138149983Y-84375317D01*
X138159253Y-84306860D01*
X138159301Y-84306502D01*
X138172400Y-84184036D01*
X138174786Y-84090030D01*
X138166475Y-84024860D01*
X138147480Y-83988903D01*
X138127391Y-83972727D01*
X138076991Y-83944790D01*
X138015424Y-83929664D01*
X137932934Y-83924417D01*
X137857711Y-83927894D01*
X137789785Y-83945588D01*
X137741794Y-83980277D01*
X137708895Y-84034337D01*
X137703674Y-84054356D01*
X137697236Y-84105673D01*
X137692320Y-84177761D01*
X137688929Y-84264819D01*
X137687068Y-84361049D01*
X137686742Y-84460654D01*
X137200255Y-84460654D01*
X137199848Y-84455197D01*
X137195963Y-84436749D01*
X137178397Y-84429066D01*
X137136282Y-84418859D01*
X137082601Y-84410711D01*
X137048895Y-84406878D01*
X137009683Y-84400486D01*
X136980442Y-84389631D01*
X136959710Y-84370458D01*
X136946026Y-84339111D01*
X136937927Y-84291734D01*
X136933952Y-84224470D01*
X136932640Y-84133464D01*
X136932527Y-84014860D01*
X136932527Y-83680554D01*
X136978849Y-83641576D01*
X136981933Y-83639000D01*
X136999451Y-83625925D01*
X137019143Y-83616122D01*
X137045887Y-83608868D01*
X137084561Y-83603439D01*
X137140040Y-83599113D01*
X137217202Y-83595167D01*
X137320924Y-83590879D01*
X137379061Y-83588889D01*
X137507225Y-83586095D01*
X137642717Y-83584862D01*
X137772627Y-83585270D01*
X137884044Y-83587398D01*
X137973476Y-83590618D01*
X138066567Y-83596159D01*
X138139928Y-83604640D01*
X138200178Y-83617577D01*
X138253936Y-83636485D01*
X138307821Y-83662878D01*
X138368454Y-83698272D01*
X138400707Y-83717103D01*
X138434233Y-83734254D01*
X138449411Y-83738569D01*
X138453918Y-83728562D01*
X138465317Y-83695320D01*
X138479895Y-83647997D01*
X138490244Y-83615394D01*
X138532239Y-83518316D01*
X138582767Y-83446599D01*
X138639959Y-83403108D01*
X138660241Y-83394824D01*
X138728446Y-83384242D01*
X138792956Y-83396986D01*
G37*
G36*
X141487073Y-89384981D02*
G01*
X141540454Y-89429438D01*
X141555981Y-89453897D01*
X141571420Y-89509277D01*
X141568754Y-89579835D01*
X141547678Y-89668863D01*
X141507885Y-89779651D01*
X141486119Y-89835016D01*
X141465386Y-89890524D01*
X141452254Y-89929170D01*
X141448907Y-89944841D01*
X141454735Y-89948705D01*
X141483648Y-89966803D01*
X141533308Y-89997483D01*
X141599913Y-90038405D01*
X141679661Y-90087232D01*
X141768750Y-90141624D01*
X141818850Y-90172314D01*
X141906920Y-90226979D01*
X141985359Y-90276563D01*
X142049837Y-90318282D01*
X142096023Y-90349356D01*
X142119584Y-90367000D01*
X142156695Y-90408912D01*
X142206071Y-90489819D01*
X142246288Y-90586222D01*
X142272862Y-90688708D01*
X142277625Y-90728211D01*
X142282445Y-90799236D01*
X142286580Y-90894215D01*
X142290031Y-91009452D01*
X142292798Y-91141254D01*
X142294880Y-91285929D01*
X142296279Y-91439784D01*
X142296995Y-91599123D01*
X142297027Y-91760255D01*
X142296376Y-91919486D01*
X142295043Y-92073123D01*
X142293028Y-92217472D01*
X142290330Y-92348840D01*
X142286950Y-92463533D01*
X142282889Y-92557859D01*
X142278146Y-92628124D01*
X142272722Y-92670634D01*
X142268030Y-92691907D01*
X142228030Y-92821257D01*
X142174085Y-92924540D01*
X142106892Y-93000367D01*
X142088699Y-93013641D01*
X142046438Y-93041598D01*
X141989122Y-93078008D01*
X141923525Y-93118681D01*
X141856418Y-93159427D01*
X141794575Y-93196058D01*
X141744767Y-93224383D01*
X141741135Y-93226375D01*
X141643844Y-93279813D01*
X141570694Y-93320453D01*
X141518349Y-93350535D01*
X141483472Y-93372299D01*
X141462726Y-93387986D01*
X141452774Y-93399834D01*
X141450279Y-93410085D01*
X141451905Y-93420977D01*
X141454522Y-93430362D01*
X141467986Y-93468516D01*
X141489272Y-93523267D01*
X141515127Y-93586117D01*
X141522796Y-93604622D01*
X141556725Y-93702026D01*
X141570593Y-93779775D01*
X141564692Y-93841542D01*
X141539312Y-93890997D01*
X141491863Y-93936692D01*
X141422401Y-93970504D01*
X141347609Y-93977646D01*
X141274588Y-93956364D01*
X141243992Y-93932498D01*
X141212841Y-93887475D01*
X141208433Y-93881104D01*
X141174051Y-93803153D01*
X141139581Y-93696210D01*
X141124282Y-93643933D01*
X141112235Y-93605095D01*
X141106059Y-93588138D01*
X141099532Y-93588869D01*
X141072487Y-93600925D01*
X141032524Y-93622864D01*
X141005419Y-93637924D01*
X140941343Y-93670032D01*
X140878470Y-93698021D01*
X140869302Y-93701721D01*
X140847207Y-93709891D01*
X140824071Y-93716448D01*
X140796515Y-93721549D01*
X140761159Y-93725349D01*
X140714625Y-93728004D01*
X140653532Y-93729672D01*
X140574502Y-93730508D01*
X140563580Y-93730525D01*
X140474155Y-93730668D01*
X140349112Y-93730310D01*
X140195994Y-93729588D01*
X139598347Y-93726568D01*
X139555097Y-93679685D01*
X139511846Y-93632803D01*
X139511846Y-93309921D01*
X139511886Y-93234258D01*
X139512304Y-93144119D01*
X139513552Y-93077983D01*
X139516081Y-93031379D01*
X139520341Y-92999838D01*
X139526781Y-92978888D01*
X139535852Y-92964059D01*
X139548004Y-92950881D01*
X139592273Y-92922538D01*
X139627102Y-92913865D01*
X140299549Y-92913865D01*
X140300366Y-93013759D01*
X140302697Y-93107124D01*
X140306541Y-93187737D01*
X140311899Y-93249377D01*
X140318771Y-93285820D01*
X140330680Y-93314645D01*
X140361805Y-93358169D01*
X140407458Y-93386052D01*
X140472946Y-93400882D01*
X140563580Y-93405250D01*
X140647926Y-93401564D01*
X140721252Y-93387316D01*
X140770078Y-93361379D01*
X140797309Y-93322725D01*
X140799931Y-93300258D01*
X140798776Y-93249961D01*
X140793763Y-93178998D01*
X140785591Y-93092943D01*
X140774959Y-92997370D01*
X140762567Y-92897853D01*
X140749113Y-92799966D01*
X140735296Y-92709283D01*
X140721816Y-92631377D01*
X140709371Y-92571823D01*
X140698662Y-92536195D01*
X140696949Y-92532438D01*
X140657141Y-92479185D01*
X140600865Y-92443562D01*
X140535527Y-92425741D01*
X140535157Y-92425640D01*
X140467056Y-92425489D01*
X140403600Y-92443179D01*
X140351825Y-92478783D01*
X140318771Y-92532371D01*
X140318169Y-92534246D01*
X140311418Y-92573448D01*
X140306180Y-92637234D01*
X140302456Y-92719380D01*
X140300246Y-92813665D01*
X140299549Y-92913865D01*
X139627102Y-92913865D01*
X139668681Y-92903511D01*
X139671561Y-92903145D01*
X139697270Y-92901059D01*
X139719646Y-92900137D01*
X139738912Y-92898339D01*
X139755290Y-92893626D01*
X139769004Y-92883960D01*
X139780276Y-92867303D01*
X139789328Y-92841616D01*
X139796385Y-92804860D01*
X139801668Y-92754997D01*
X139805401Y-92689988D01*
X139807806Y-92607794D01*
X139809107Y-92506378D01*
X139809525Y-92383701D01*
X139809284Y-92237723D01*
X139808606Y-92066407D01*
X139808247Y-91986429D01*
X141150552Y-91986429D01*
X141150878Y-92146939D01*
X141151592Y-92295980D01*
X141152706Y-92429553D01*
X141154230Y-92543663D01*
X141156176Y-92634314D01*
X141158555Y-92697510D01*
X141160747Y-92735330D01*
X141166916Y-92824209D01*
X141174213Y-92911886D01*
X141182025Y-92992324D01*
X141189741Y-93059482D01*
X141196746Y-93107323D01*
X141202428Y-93129807D01*
X141203976Y-93131670D01*
X141212841Y-93133976D01*
X141230297Y-93129891D01*
X141259487Y-93117919D01*
X141303553Y-93096563D01*
X141365637Y-93064328D01*
X141448881Y-93019716D01*
X141556428Y-92961231D01*
X141681093Y-92891950D01*
X141785642Y-92831180D01*
X141865951Y-92781277D01*
X141920624Y-92743109D01*
X141948267Y-92717543D01*
X141949053Y-92716451D01*
X141961786Y-92697854D01*
X141972618Y-92678608D01*
X141981706Y-92656144D01*
X141989208Y-92627897D01*
X141995281Y-92591298D01*
X142000083Y-92543781D01*
X142003771Y-92482779D01*
X142006503Y-92405725D01*
X142008435Y-92310051D01*
X142009727Y-92193190D01*
X142010535Y-92052575D01*
X142011017Y-91885640D01*
X142011330Y-91689816D01*
X142011338Y-91683771D01*
X142011586Y-91482639D01*
X142011577Y-91310400D01*
X142011056Y-91164563D01*
X142009765Y-91042633D01*
X142007449Y-90942119D01*
X142003850Y-90860529D01*
X141998712Y-90795370D01*
X141991779Y-90744150D01*
X141982794Y-90704375D01*
X141971500Y-90673555D01*
X141957641Y-90649195D01*
X141940960Y-90628805D01*
X141921200Y-90609891D01*
X141898105Y-90589961D01*
X141872341Y-90568785D01*
X141839118Y-90544448D01*
X141820657Y-90534971D01*
X141820444Y-90534956D01*
X141802233Y-90526754D01*
X141761550Y-90505169D01*
X141702839Y-90472659D01*
X141630545Y-90431685D01*
X141549114Y-90384706D01*
X141465999Y-90337459D01*
X141388882Y-90295686D01*
X141323490Y-90262354D01*
X141274902Y-90240050D01*
X141248195Y-90231362D01*
X141237698Y-90231005D01*
X141221202Y-90234058D01*
X141208121Y-90244814D01*
X141197794Y-90266663D01*
X141189558Y-90302996D01*
X141182751Y-90357201D01*
X141176711Y-90432668D01*
X141170776Y-90532788D01*
X141164284Y-90660950D01*
X141163226Y-90685048D01*
X141160565Y-90768960D01*
X141158191Y-90877368D01*
X141156116Y-91006276D01*
X141154349Y-91151688D01*
X141152904Y-91309606D01*
X141151790Y-91476036D01*
X141151019Y-91646981D01*
X141150603Y-91818444D01*
X141150552Y-91986429D01*
X139808247Y-91986429D01*
X139807715Y-91867714D01*
X139806834Y-91639605D01*
X139803999Y-90779702D01*
X140312432Y-90779702D01*
X140350074Y-90815064D01*
X140397097Y-90842515D01*
X140463119Y-90859014D01*
X140535527Y-90862169D01*
X140602481Y-90850324D01*
X140614840Y-90846028D01*
X140646707Y-90831395D01*
X140672830Y-90810982D01*
X140694577Y-90781156D01*
X140713315Y-90738282D01*
X140730409Y-90678724D01*
X140747228Y-90598849D01*
X140765137Y-90495021D01*
X140785504Y-90363606D01*
X140787243Y-90351962D01*
X140798954Y-90268449D01*
X140808482Y-90191784D01*
X140814888Y-90130035D01*
X140817233Y-90091272D01*
X140816940Y-90076285D01*
X140806460Y-90014996D01*
X140778602Y-89970983D01*
X140730165Y-89942146D01*
X140657950Y-89926384D01*
X140558757Y-89921597D01*
X140510656Y-89921888D01*
X140460378Y-89924408D01*
X140426628Y-89931380D01*
X140400522Y-89945000D01*
X140373177Y-89967463D01*
X140321815Y-90013330D01*
X140317123Y-90396516D01*
X140312432Y-90779702D01*
X139803999Y-90779702D01*
X139802806Y-90417770D01*
X139763487Y-90406998D01*
X139748483Y-90403039D01*
X139700959Y-90391239D01*
X139646813Y-90378448D01*
X139633503Y-90375355D01*
X139593124Y-90364362D01*
X139562699Y-90350319D01*
X139540900Y-90329171D01*
X139526403Y-90296860D01*
X139517881Y-90249329D01*
X139514008Y-90182521D01*
X139513459Y-90092379D01*
X139514908Y-89974846D01*
X139516478Y-89882449D01*
X139518656Y-89795923D01*
X139521545Y-89732767D01*
X139525575Y-89688557D01*
X139531173Y-89658867D01*
X139538770Y-89639274D01*
X139548794Y-89625353D01*
X139551646Y-89622306D01*
X139572369Y-89605291D01*
X139600266Y-89591611D01*
X139638366Y-89581023D01*
X139689701Y-89573282D01*
X139757304Y-89568144D01*
X139844205Y-89565364D01*
X139953436Y-89564698D01*
X140088029Y-89565901D01*
X140251015Y-89568729D01*
X140367414Y-89571203D01*
X140501983Y-89574820D01*
X140611825Y-89579219D01*
X140700823Y-89584963D01*
X140772861Y-89592613D01*
X140831824Y-89602731D01*
X140881597Y-89615878D01*
X140926062Y-89632616D01*
X140969105Y-89653506D01*
X141014609Y-89679109D01*
X141035478Y-89690863D01*
X141073554Y-89709705D01*
X141096020Y-89717138D01*
X141099562Y-89715223D01*
X141114535Y-89692238D01*
X141134533Y-89648730D01*
X141156230Y-89591631D01*
X141184296Y-89521546D01*
X141215654Y-89460679D01*
X141244680Y-89420342D01*
X141282545Y-89390548D01*
X141349500Y-89365271D01*
X141420549Y-89363504D01*
X141487073Y-89384981D01*
G37*
G36*
X140617306Y-84419006D02*
G01*
X140706185Y-84459051D01*
X140781757Y-84523742D01*
X140839157Y-84611464D01*
X140856359Y-84651512D01*
X140873505Y-84702171D01*
X140880143Y-84737787D01*
X140884777Y-84763967D01*
X140904338Y-84780619D01*
X140946985Y-84794054D01*
X140957235Y-84796613D01*
X141016257Y-84811750D01*
X141068874Y-84825778D01*
X141070799Y-84826308D01*
X141145040Y-84846508D01*
X141241469Y-84872442D01*
X141352092Y-84901987D01*
X141468912Y-84933018D01*
X141583936Y-84963412D01*
X141689169Y-84991045D01*
X141776614Y-85013793D01*
X141776985Y-85013889D01*
X141858721Y-85035332D01*
X141936082Y-85056216D01*
X142000361Y-85074155D01*
X142042852Y-85086764D01*
X142057771Y-85091438D01*
X142113628Y-85105099D01*
X142154754Y-85103130D01*
X142192850Y-85082841D01*
X142239614Y-85041545D01*
X142251636Y-85030446D01*
X142345231Y-84966808D01*
X142449343Y-84929764D01*
X142558539Y-84919271D01*
X142667385Y-84935284D01*
X142770447Y-84977758D01*
X142862292Y-85046648D01*
X142885833Y-85071223D01*
X142951505Y-85166679D01*
X142990093Y-85272253D01*
X143001526Y-85383247D01*
X142985732Y-85494963D01*
X142942642Y-85602703D01*
X142872184Y-85701768D01*
X142816173Y-85763765D01*
X142831076Y-86077263D01*
X142831447Y-86085098D01*
X142836916Y-86202830D01*
X142843123Y-86340190D01*
X142849582Y-86486211D01*
X142855807Y-86629923D01*
X142861313Y-86760358D01*
X142866537Y-86885532D01*
X142878478Y-87165572D01*
X142889508Y-87415096D01*
X142899659Y-87634757D01*
X142908960Y-87825209D01*
X142917443Y-87987106D01*
X142925137Y-88121100D01*
X142927433Y-88160149D01*
X142932594Y-88258135D01*
X142936779Y-88351931D01*
X142939606Y-88432474D01*
X142940693Y-88490697D01*
X142941338Y-88541767D01*
X142945350Y-88593380D01*
X142955310Y-88625034D01*
X142973790Y-88643493D01*
X143003363Y-88655522D01*
X143063175Y-88682184D01*
X143140922Y-88739486D01*
X143211847Y-88815588D01*
X143269663Y-88903465D01*
X143308086Y-88996091D01*
X143320571Y-89043781D01*
X143331778Y-89119139D01*
X143327530Y-89190832D01*
X143307813Y-89274271D01*
X143289839Y-89326977D01*
X143230300Y-89439002D01*
X143149630Y-89529950D01*
X143050758Y-89597586D01*
X142936609Y-89639677D01*
X142822860Y-89652548D01*
X142810110Y-89653991D01*
X142731485Y-89647612D01*
X142616080Y-89615422D01*
X142511697Y-89559086D01*
X142435602Y-89492141D01*
X142424048Y-89481976D01*
X142358842Y-89387465D01*
X142346575Y-89359857D01*
X142324386Y-89290205D01*
X142307689Y-89212367D01*
X142299186Y-89141498D01*
X142580137Y-89141498D01*
X142580174Y-89141944D01*
X142600753Y-89217329D01*
X142644976Y-89284756D01*
X142705982Y-89336442D01*
X142776904Y-89364605D01*
X142822860Y-89367427D01*
X142898089Y-89350330D01*
X142965363Y-89310531D01*
X143014633Y-89252759D01*
X143041068Y-89189719D01*
X143047696Y-89110224D01*
X143023687Y-89035442D01*
X142969470Y-88968085D01*
X142910546Y-88928687D01*
X142836272Y-88908617D01*
X142761563Y-88914486D01*
X142692595Y-88944593D01*
X142635544Y-88997239D01*
X142596586Y-89070724D01*
X142594819Y-89076118D01*
X142583854Y-89115882D01*
X142580137Y-89141498D01*
X142299186Y-89141498D01*
X142298848Y-89138681D01*
X142300227Y-89081485D01*
X142302636Y-89060351D01*
X142297131Y-89026590D01*
X142273039Y-88998725D01*
X142224849Y-88968495D01*
X142214956Y-88963023D01*
X142160682Y-88932541D01*
X142087365Y-88890897D01*
X142001504Y-88841827D01*
X141909597Y-88789067D01*
X141818142Y-88736353D01*
X141733637Y-88687421D01*
X141662582Y-88646007D01*
X141611474Y-88615847D01*
X141588310Y-88602004D01*
X141525278Y-88564343D01*
X141469403Y-88530964D01*
X141430607Y-88507795D01*
X141420809Y-88501990D01*
X141380332Y-88478845D01*
X141351970Y-88463857D01*
X141350884Y-88463330D01*
X141326524Y-88449946D01*
X141281777Y-88424227D01*
X141222639Y-88389651D01*
X141155108Y-88349697D01*
X141154306Y-88349220D01*
X141082784Y-88306965D01*
X141015815Y-88267919D01*
X140960871Y-88236405D01*
X140925427Y-88216751D01*
X140869015Y-88186890D01*
X140799873Y-88233577D01*
X140788948Y-88240879D01*
X140745381Y-88266641D01*
X140717495Y-88283131D01*
X140651401Y-88308872D01*
X140578582Y-88321630D01*
X140509538Y-88324118D01*
X140486954Y-88324932D01*
X140450577Y-88324475D01*
X140380821Y-88319751D01*
X140325052Y-88308221D01*
X140271135Y-88287796D01*
X140189000Y-88250976D01*
X139964448Y-88430707D01*
X139919559Y-88466601D01*
X139818285Y-88547411D01*
X139708237Y-88635041D01*
X139599956Y-88721102D01*
X139503982Y-88797204D01*
X139450263Y-88839755D01*
X139352176Y-88917534D01*
X139251161Y-88997725D01*
X139156418Y-89073023D01*
X139077150Y-89136119D01*
X139043189Y-89163131D01*
X138976679Y-89215723D01*
X138918927Y-89260996D01*
X138875196Y-89294833D01*
X138850750Y-89313120D01*
X138837400Y-89323067D01*
X138824385Y-89340197D01*
X138824292Y-89365473D01*
X138835385Y-89409824D01*
X138837929Y-89419497D01*
X138847534Y-89520403D01*
X138830113Y-89625602D01*
X138787569Y-89728198D01*
X138721806Y-89821293D01*
X138667418Y-89882278D01*
X138726492Y-90094600D01*
X138751473Y-90183357D01*
X138783170Y-90294020D01*
X138814838Y-90402875D01*
X138842354Y-90495652D01*
X138864465Y-90569476D01*
X138888513Y-90650465D01*
X138909204Y-90720852D01*
X138923656Y-90770884D01*
X138933787Y-90806111D01*
X138949599Y-90859317D01*
X138961337Y-90896705D01*
X138969768Y-90922891D01*
X138986986Y-90978431D01*
X139008619Y-91049527D01*
X139032142Y-91127772D01*
X139055032Y-91204761D01*
X139074766Y-91272089D01*
X139088820Y-91321349D01*
X139105176Y-91373582D01*
X139124850Y-91410302D01*
X139152867Y-91431946D01*
X139196446Y-91446941D01*
X139275783Y-91482099D01*
X139351477Y-91544673D01*
X139412472Y-91628036D01*
X139444875Y-91707722D01*
X139457946Y-91807775D01*
X139444810Y-91907637D01*
X139406541Y-92000213D01*
X139344215Y-92078408D01*
X139309534Y-92107076D01*
X139219385Y-92155938D01*
X139123153Y-92177781D01*
X139091947Y-92176330D01*
X139026199Y-92173274D01*
X138933883Y-92143088D01*
X138851567Y-92087896D01*
X138784611Y-92008367D01*
X138741526Y-91939811D01*
X138734298Y-91939660D01*
X138243378Y-91929403D01*
X138220825Y-91928937D01*
X138082848Y-91926288D01*
X137942954Y-91923911D01*
X137807814Y-91921900D01*
X137684103Y-91920349D01*
X137578492Y-91919350D01*
X137497655Y-91918996D01*
X137250081Y-91918996D01*
X137202475Y-92003349D01*
X137151178Y-92078344D01*
X137064459Y-92160950D01*
X136962521Y-92218507D01*
X136849254Y-92249566D01*
X136777665Y-92251410D01*
X136728546Y-92252676D01*
X136604288Y-92226388D01*
X136572417Y-92213514D01*
X136492978Y-92164468D01*
X136417781Y-92097177D01*
X136355583Y-92020247D01*
X136315143Y-91942282D01*
X136307365Y-91916921D01*
X136292171Y-91830461D01*
X136288142Y-91735249D01*
X136288785Y-91727077D01*
X136555425Y-91727077D01*
X136559253Y-91800038D01*
X136586700Y-91866749D01*
X136634457Y-91921489D01*
X136699215Y-91958543D01*
X136777665Y-91972192D01*
X136794864Y-91971624D01*
X136869117Y-91953775D01*
X136926967Y-91914996D01*
X136967254Y-91860857D01*
X136988818Y-91796928D01*
X136989165Y-91782833D01*
X138964722Y-91782833D01*
X138966123Y-91840171D01*
X138992436Y-91887141D01*
X139036365Y-91918802D01*
X139091947Y-91929729D01*
X139145245Y-91911097D01*
X139191165Y-91863511D01*
X139205981Y-91827778D01*
X139203919Y-91776171D01*
X139179640Y-91729648D01*
X139137853Y-91696076D01*
X139083270Y-91683323D01*
X139039922Y-91686901D01*
X139005583Y-91703862D01*
X138979463Y-91741027D01*
X138964722Y-91782833D01*
X136989165Y-91782833D01*
X136990497Y-91728780D01*
X136971133Y-91661982D01*
X136929563Y-91602104D01*
X136926642Y-91599972D01*
X136864629Y-91554718D01*
X136857841Y-91551386D01*
X136781302Y-91530843D01*
X136707104Y-91539911D01*
X136640272Y-91577042D01*
X136585829Y-91640686D01*
X136578524Y-91653583D01*
X136555425Y-91727077D01*
X136288785Y-91727077D01*
X136295326Y-91643987D01*
X136313769Y-91569376D01*
X136360473Y-91481311D01*
X136399735Y-91433834D01*
X137169963Y-91433834D01*
X137170008Y-91433976D01*
X137177883Y-91450622D01*
X137196164Y-91487280D01*
X137221033Y-91536294D01*
X137270580Y-91633283D01*
X137443628Y-91641975D01*
X137479897Y-91643516D01*
X137556022Y-91645984D01*
X137654934Y-91648604D01*
X137771485Y-91651260D01*
X137900526Y-91653837D01*
X138036909Y-91656221D01*
X138175487Y-91658297D01*
X138734298Y-91665926D01*
X138794437Y-91584998D01*
X138854576Y-91504069D01*
X138820601Y-91377322D01*
X138798724Y-91298190D01*
X138773259Y-91209832D01*
X138750056Y-91132618D01*
X138728497Y-91062335D01*
X138706182Y-90988351D01*
X138688397Y-90928160D01*
X138688131Y-90927244D01*
X138662524Y-90839349D01*
X138634531Y-90743912D01*
X138605754Y-90646324D01*
X138577796Y-90551976D01*
X138552256Y-90466257D01*
X138530737Y-90394559D01*
X138514840Y-90342272D01*
X138506167Y-90314785D01*
X138501360Y-90299847D01*
X138487696Y-90254721D01*
X138469631Y-90193141D01*
X138449773Y-90123935D01*
X138406776Y-89972403D01*
X138388290Y-89969928D01*
X138342004Y-89963731D01*
X138330597Y-89962125D01*
X138281607Y-89953715D01*
X138245742Y-89945376D01*
X138239503Y-89944213D01*
X138223317Y-89948465D01*
X138202479Y-89965302D01*
X138173844Y-89998156D01*
X138134266Y-90050459D01*
X138080603Y-90125645D01*
X138068635Y-90142652D01*
X138005695Y-90232048D01*
X137934262Y-90333444D01*
X137862243Y-90435621D01*
X137797542Y-90527360D01*
X137769229Y-90567555D01*
X137708634Y-90653840D01*
X137637528Y-90755339D01*
X137560625Y-90865315D01*
X137482640Y-90977029D01*
X137408285Y-91083743D01*
X137344892Y-91175103D01*
X137287769Y-91257955D01*
X137239394Y-91328662D01*
X137202089Y-91383816D01*
X137178172Y-91420009D01*
X137169963Y-91433834D01*
X136399735Y-91433834D01*
X136432110Y-91394685D01*
X136516963Y-91326896D01*
X136589495Y-91282030D01*
X136580738Y-91179801D01*
X136580250Y-91174196D01*
X136574709Y-91115964D01*
X136566678Y-91037347D01*
X136557159Y-90947953D01*
X136547151Y-90857386D01*
X136536420Y-90759992D01*
X136523564Y-90639261D01*
X136510937Y-90517143D01*
X136500165Y-90409151D01*
X136489588Y-90302052D01*
X136477145Y-90178837D01*
X136464397Y-90054805D01*
X136452894Y-89945188D01*
X136451223Y-89929462D01*
X136440609Y-89828193D01*
X136429891Y-89723956D01*
X136420233Y-89628164D01*
X136412802Y-89552231D01*
X136408825Y-89511740D01*
X136401421Y-89441705D01*
X136394661Y-89383860D01*
X136389628Y-89347773D01*
X136386708Y-89327664D01*
X136380663Y-89276650D01*
X136373617Y-89209440D01*
X136366568Y-89135219D01*
X136363537Y-89101837D01*
X136352954Y-88988877D01*
X136351609Y-88975029D01*
X136341075Y-88866575D01*
X136328334Y-88738996D01*
X136315164Y-88610205D01*
X136301999Y-88484267D01*
X136289271Y-88365247D01*
X136277413Y-88257210D01*
X136266859Y-88164221D01*
X136258041Y-88090346D01*
X136251393Y-88039648D01*
X136251162Y-88038311D01*
X136525880Y-88038311D01*
X136528343Y-88108042D01*
X136540568Y-88200029D01*
X136545511Y-88233892D01*
X136553470Y-88299329D01*
X136561861Y-88378009D01*
X136569523Y-88459534D01*
X136577170Y-88542858D01*
X136587538Y-88648528D01*
X136598895Y-88758801D01*
X136609863Y-88859987D01*
X136626522Y-89011156D01*
X136645254Y-89185811D01*
X136663933Y-89364228D01*
X136681340Y-89534740D01*
X136696253Y-89685683D01*
X136710489Y-89831949D01*
X136726597Y-89994665D01*
X136741430Y-90141437D01*
X136754593Y-90268419D01*
X136765692Y-90371766D01*
X136774334Y-90447632D01*
X136778765Y-90485047D01*
X136797053Y-90646549D01*
X136817589Y-90838117D01*
X136840261Y-91058726D01*
X136847826Y-91128791D01*
X136856150Y-91188310D01*
X136864927Y-91226455D01*
X136875479Y-91248687D01*
X136889128Y-91260464D01*
X136902650Y-91266849D01*
X136926642Y-91270261D01*
X136950425Y-91257750D01*
X136979362Y-91225571D01*
X137018816Y-91169984D01*
X137020839Y-91167005D01*
X137052840Y-91120678D01*
X137077895Y-91085796D01*
X137090732Y-91069708D01*
X137097746Y-91061176D01*
X137119958Y-91030902D01*
X137152759Y-90984611D01*
X137191961Y-90928160D01*
X137221827Y-90884772D01*
X137288495Y-90787988D01*
X137342040Y-90710410D01*
X137385842Y-90647181D01*
X137423280Y-90593443D01*
X137457736Y-90544340D01*
X137492587Y-90495013D01*
X137531215Y-90440606D01*
X137557946Y-90402984D01*
X137603644Y-90338484D01*
X137647873Y-90275751D01*
X137694503Y-90209258D01*
X137747406Y-90133477D01*
X137810456Y-90042880D01*
X137887524Y-89931938D01*
X138001096Y-89768358D01*
X137967305Y-89699497D01*
X137959062Y-89681310D01*
X137931981Y-89582197D01*
X137928969Y-89515645D01*
X138191143Y-89515645D01*
X138212017Y-89589427D01*
X138261052Y-89654228D01*
X138292618Y-89677861D01*
X138331416Y-89690293D01*
X138388290Y-89693547D01*
X138410542Y-89693296D01*
X138456229Y-89688361D01*
X138489613Y-89673059D01*
X138524639Y-89642130D01*
X138540768Y-89625359D01*
X138563699Y-89593545D01*
X138573799Y-89557351D01*
X138576056Y-89503305D01*
X138575351Y-89465610D01*
X138569063Y-89426364D01*
X138551567Y-89396297D01*
X138517309Y-89362060D01*
X138484187Y-89334578D01*
X138442792Y-89313765D01*
X138394639Y-89308222D01*
X138322990Y-89318120D01*
X138258277Y-89350372D01*
X138214589Y-89402072D01*
X138199531Y-89438855D01*
X138191143Y-89515645D01*
X137928969Y-89515645D01*
X137927093Y-89474183D01*
X137945192Y-89369135D01*
X137970522Y-89284631D01*
X137887964Y-89207497D01*
X137863461Y-89184476D01*
X137814526Y-89138240D01*
X137750208Y-89077291D01*
X137674680Y-89005588D01*
X137592117Y-88927092D01*
X137506693Y-88845763D01*
X137453250Y-88794859D01*
X137360038Y-88706133D01*
X137267691Y-88618295D01*
X137181685Y-88536551D01*
X137107495Y-88466104D01*
X137050594Y-88412160D01*
X136986701Y-88351486D01*
X136904456Y-88273010D01*
X136823580Y-88195505D01*
X136754839Y-88129267D01*
X136690942Y-88067989D01*
X136641444Y-88022470D01*
X136606248Y-87993583D01*
X136581331Y-87978400D01*
X136562672Y-87973993D01*
X136546247Y-87977434D01*
X136533109Y-87993569D01*
X136525880Y-88038311D01*
X136251162Y-88038311D01*
X136247348Y-88016194D01*
X136235352Y-87998721D01*
X136204142Y-87981388D01*
X136170415Y-87968039D01*
X136111352Y-87926072D01*
X136054060Y-87865780D01*
X136005135Y-87794568D01*
X135971172Y-87719841D01*
X135964484Y-87688867D01*
X135961301Y-87620801D01*
X135962136Y-87609740D01*
X136212926Y-87609740D01*
X136231504Y-87665763D01*
X136280644Y-87717567D01*
X136294073Y-87727011D01*
X136351609Y-87747418D01*
X136409047Y-87742102D01*
X136459097Y-87714604D01*
X136494472Y-87668461D01*
X136507883Y-87607214D01*
X136507881Y-87606034D01*
X136500209Y-87539680D01*
X136474536Y-87493348D01*
X136426284Y-87458703D01*
X136388649Y-87445731D01*
X136327259Y-87447705D01*
X136272388Y-87474802D01*
X136233359Y-87523873D01*
X136224022Y-87545861D01*
X136212926Y-87609740D01*
X135962136Y-87609740D01*
X135967127Y-87543632D01*
X135980728Y-87470127D01*
X136000866Y-87413052D01*
X136040801Y-87349673D01*
X136115015Y-87274290D01*
X136202668Y-87221767D01*
X136298778Y-87192763D01*
X136398360Y-87187934D01*
X136496431Y-87207937D01*
X136588007Y-87253429D01*
X136668105Y-87325068D01*
X136699989Y-87367227D01*
X136738271Y-87446218D01*
X136755724Y-87537668D01*
X136754204Y-87648541D01*
X136744391Y-87764626D01*
X136795208Y-87807311D01*
X136821639Y-87830628D01*
X136870383Y-87875205D01*
X136938014Y-87937975D01*
X137022544Y-88017074D01*
X137121986Y-88110635D01*
X137234353Y-88216793D01*
X137357656Y-88333682D01*
X137489908Y-88459435D01*
X137499767Y-88468822D01*
X137576305Y-88541637D01*
X137657269Y-88618578D01*
X137733593Y-88691034D01*
X137796214Y-88750395D01*
X137841277Y-88793075D01*
X137899967Y-88848696D01*
X137950868Y-88896970D01*
X137986449Y-88930761D01*
X138000779Y-88944376D01*
X138052211Y-88993118D01*
X138099847Y-89038112D01*
X138155365Y-89090416D01*
X138238813Y-89065635D01*
X138270183Y-89057261D01*
X138329237Y-89045479D01*
X138375964Y-89040853D01*
X138385553Y-89041134D01*
X138433720Y-89047260D01*
X138489820Y-89059376D01*
X138544096Y-89074795D01*
X138586791Y-89090830D01*
X138608149Y-89104795D01*
X138613247Y-89111227D01*
X138639530Y-89118313D01*
X138680614Y-89101299D01*
X138738374Y-89059534D01*
X138746291Y-89053100D01*
X138798176Y-89011332D01*
X138860705Y-88961463D01*
X138922062Y-88912922D01*
X138927895Y-88908330D01*
X138977833Y-88868950D01*
X139045745Y-88815328D01*
X139125851Y-88752029D01*
X139212370Y-88683620D01*
X139299524Y-88614669D01*
X139320597Y-88597997D01*
X139403867Y-88532225D01*
X139482115Y-88470579D01*
X139550435Y-88416913D01*
X139603920Y-88375083D01*
X139637666Y-88348943D01*
X139637701Y-88348916D01*
X139686554Y-88310806D01*
X139746583Y-88262937D01*
X139804800Y-88215667D01*
X139807843Y-88213169D01*
X139863217Y-88168106D01*
X139916768Y-88125145D01*
X139957298Y-88093273D01*
X140013436Y-88050026D01*
X139981631Y-87959588D01*
X139960094Y-87872048D01*
X139958438Y-87823018D01*
X140242677Y-87823018D01*
X140270056Y-87899127D01*
X140319392Y-87965164D01*
X140382447Y-88009553D01*
X140461305Y-88030172D01*
X140509538Y-88031566D01*
X140590713Y-88013586D01*
X140657515Y-87972847D01*
X140706532Y-87914130D01*
X140734352Y-87842214D01*
X140737564Y-87761879D01*
X140712756Y-87677905D01*
X140689704Y-87639837D01*
X140633179Y-87587233D01*
X140563196Y-87555658D01*
X140523771Y-87550471D01*
X140486546Y-87545574D01*
X140410022Y-87557441D01*
X140340414Y-87591720D01*
X140284515Y-87648870D01*
X140275191Y-87663533D01*
X140244509Y-87742410D01*
X140242677Y-87823018D01*
X139958438Y-87823018D01*
X139956003Y-87750937D01*
X139978245Y-87630122D01*
X140025318Y-87516741D01*
X140039899Y-87496276D01*
X140963071Y-87496276D01*
X140966154Y-87528259D01*
X140986772Y-87570327D01*
X140998500Y-87597471D01*
X141007419Y-87639668D01*
X141012195Y-87699894D01*
X141013666Y-87784813D01*
X141013827Y-87952116D01*
X141092465Y-87995635D01*
X141094603Y-87996820D01*
X141149236Y-88027773D01*
X141216092Y-88066543D01*
X141281196Y-88105028D01*
X141285781Y-88107770D01*
X141349723Y-88145592D01*
X141412829Y-88182307D01*
X141462062Y-88210325D01*
X141501684Y-88232810D01*
X141561572Y-88267362D01*
X141632369Y-88308580D01*
X141705840Y-88351689D01*
X141766571Y-88387338D01*
X141854534Y-88438713D01*
X141954420Y-88496849D01*
X142058043Y-88556985D01*
X142157222Y-88614359D01*
X142435602Y-88775086D01*
X142517117Y-88719014D01*
X142556496Y-88693570D01*
X142603125Y-88667398D01*
X142635858Y-88653598D01*
X142647737Y-88650226D01*
X142658253Y-88644080D01*
X142665739Y-88631988D01*
X142670382Y-88610313D01*
X142672367Y-88575418D01*
X142671880Y-88523665D01*
X142669106Y-88451416D01*
X142664231Y-88355036D01*
X142657441Y-88230884D01*
X142655600Y-88197242D01*
X142651471Y-88119463D01*
X142647273Y-88036788D01*
X142642888Y-87946562D01*
X142638199Y-87846133D01*
X142633090Y-87732846D01*
X142627444Y-87604049D01*
X142621143Y-87457088D01*
X142614071Y-87289310D01*
X142606111Y-87098061D01*
X142597145Y-86880688D01*
X142587057Y-86634538D01*
X142582762Y-86531687D01*
X142576981Y-86399467D01*
X142573844Y-86331262D01*
X142571283Y-86275580D01*
X142565894Y-86164645D01*
X142561040Y-86071283D01*
X142556947Y-86000112D01*
X142553841Y-85955753D01*
X142543452Y-85835297D01*
X142478516Y-85827548D01*
X142465723Y-85825974D01*
X142419959Y-85819623D01*
X142389427Y-85814320D01*
X142388456Y-85814199D01*
X142367097Y-85825214D01*
X142330925Y-85856234D01*
X142284166Y-85902855D01*
X142231045Y-85960675D01*
X142175788Y-86025292D01*
X142122620Y-86092304D01*
X142119795Y-86095960D01*
X142095637Y-86126022D01*
X142054860Y-86175820D01*
X142000409Y-86241790D01*
X141935230Y-86320371D01*
X141862271Y-86408001D01*
X141784477Y-86501117D01*
X141766778Y-86522269D01*
X141668189Y-86640161D01*
X141567432Y-86760757D01*
X141467703Y-86880225D01*
X141372197Y-86994735D01*
X141284106Y-87100453D01*
X141206627Y-87193550D01*
X141142953Y-87270192D01*
X141096279Y-87326550D01*
X141085534Y-87339391D01*
X141049954Y-87380856D01*
X141011295Y-87424893D01*
X140979376Y-87463386D01*
X140963071Y-87496276D01*
X140039899Y-87496276D01*
X140095718Y-87417931D01*
X140110144Y-87403653D01*
X140155901Y-87367022D01*
X140211927Y-87329541D01*
X140269547Y-87296373D01*
X140320086Y-87272684D01*
X140354867Y-87263640D01*
X140358110Y-87262292D01*
X140362884Y-87252765D01*
X140366802Y-87231950D01*
X140369942Y-87197326D01*
X140372384Y-87146373D01*
X140374206Y-87076570D01*
X140375485Y-86985397D01*
X140376302Y-86870331D01*
X140376735Y-86728853D01*
X140376861Y-86558442D01*
X140376890Y-86504955D01*
X140377299Y-86340246D01*
X140378152Y-86173168D01*
X140379394Y-86009359D01*
X140380970Y-85854456D01*
X140382826Y-85714096D01*
X140384905Y-85593916D01*
X140387155Y-85499554D01*
X140397448Y-85145864D01*
X140390993Y-85141228D01*
X140644230Y-85141228D01*
X140644230Y-86201696D01*
X140644230Y-87262164D01*
X140698485Y-87287910D01*
X140707709Y-87292043D01*
X140745381Y-87303971D01*
X140768857Y-87303696D01*
X140781952Y-87290240D01*
X140813376Y-87254836D01*
X140861048Y-87199873D01*
X140922991Y-87127681D01*
X140997227Y-87040592D01*
X141081781Y-86940936D01*
X141174674Y-86831044D01*
X141273930Y-86713244D01*
X141377570Y-86589869D01*
X141483619Y-86463249D01*
X141590099Y-86335714D01*
X141618401Y-86301767D01*
X141751879Y-86141915D01*
X141866552Y-86005035D01*
X141962135Y-85891466D01*
X142038344Y-85801546D01*
X142094894Y-85735613D01*
X142171949Y-85646657D01*
X142140265Y-85584551D01*
X142132111Y-85566751D01*
X142111372Y-85505552D01*
X142098107Y-85443486D01*
X142095203Y-85419468D01*
X142091141Y-85395787D01*
X142083706Y-85380024D01*
X142343212Y-85380024D01*
X142356174Y-85445857D01*
X142389858Y-85502891D01*
X142440124Y-85546793D01*
X142502833Y-85573229D01*
X142573844Y-85577866D01*
X142649017Y-85556372D01*
X142668822Y-85545163D01*
X142716388Y-85497042D01*
X142744062Y-85433936D01*
X142750683Y-85363794D01*
X142735088Y-85294565D01*
X142696115Y-85234200D01*
X142690615Y-85228708D01*
X142629982Y-85190430D01*
X142559684Y-85176256D01*
X142488107Y-85185273D01*
X142423638Y-85216568D01*
X142374664Y-85269226D01*
X142355113Y-85309725D01*
X142343212Y-85380024D01*
X142083706Y-85380024D01*
X142082699Y-85377888D01*
X142065564Y-85363382D01*
X142035421Y-85349877D01*
X141987955Y-85334982D01*
X141918852Y-85316305D01*
X141823796Y-85291454D01*
X141721693Y-85264613D01*
X141531966Y-85214504D01*
X141357949Y-85168233D01*
X141204565Y-85127110D01*
X141076737Y-85092448D01*
X141027049Y-85079104D01*
X140956868Y-85060981D01*
X140894689Y-85045694D01*
X140847961Y-85035058D01*
X140824130Y-85030887D01*
X140804635Y-85038246D01*
X140775468Y-85060110D01*
X140775467Y-85060111D01*
X140738309Y-85088685D01*
X140693865Y-85115561D01*
X140644230Y-85141228D01*
X140390993Y-85141228D01*
X140325966Y-85094529D01*
X140257543Y-85031071D01*
X140201880Y-84945497D01*
X140168906Y-84850025D01*
X140163015Y-84777449D01*
X140393698Y-84777449D01*
X140403542Y-84828037D01*
X140431409Y-84871398D01*
X140472938Y-84901475D01*
X140523771Y-84912214D01*
X140579549Y-84897558D01*
X140584474Y-84894950D01*
X140621060Y-84867279D01*
X140639284Y-84829178D01*
X140644230Y-84770678D01*
X140643015Y-84753754D01*
X140622695Y-84704413D01*
X140583420Y-84670566D01*
X140533123Y-84655160D01*
X140479737Y-84661145D01*
X140431193Y-84691470D01*
X140406235Y-84725689D01*
X140393698Y-84777449D01*
X140163015Y-84777449D01*
X140160912Y-84751534D01*
X140180190Y-84656906D01*
X140213195Y-84583912D01*
X140272400Y-84502563D01*
X140346267Y-84447969D01*
X140419089Y-84419308D01*
X140519986Y-84405221D01*
X140617306Y-84419006D01*
G37*
G36*
X151839786Y-77990023D02*
G01*
X151839786Y-79248546D01*
X151558795Y-79248546D01*
X151277804Y-79248546D01*
X151277804Y-78781547D01*
X151277804Y-78314548D01*
X150086561Y-78314548D01*
X148895317Y-78314548D01*
X148895317Y-77986065D01*
X148895317Y-77657583D01*
X150086561Y-77657583D01*
X151277804Y-77657583D01*
X151277804Y-77194541D01*
X151277804Y-76731500D01*
X151558795Y-76731500D01*
X151839786Y-76731500D01*
X151839786Y-77990023D01*
G37*
G36*
X151839786Y-89989524D02*
G01*
X151839786Y-91248047D01*
X151558795Y-91248047D01*
X151277804Y-91248047D01*
X151277804Y-90781048D01*
X151277804Y-90314049D01*
X150086561Y-90314049D01*
X148895317Y-90314049D01*
X148895317Y-89985567D01*
X148895317Y-89657084D01*
X150086561Y-89657084D01*
X151277804Y-89657084D01*
X151277804Y-89194043D01*
X151277804Y-88731001D01*
X151558795Y-88731001D01*
X151839786Y-88731001D01*
X151839786Y-89989524D01*
G37*
G36*
X151837886Y-82816059D02*
G01*
X151838256Y-82893791D01*
X151838434Y-82971514D01*
X151838313Y-83035513D01*
X151837869Y-83086929D01*
X151837078Y-83126898D01*
X151835917Y-83156560D01*
X151834361Y-83177051D01*
X151832387Y-83189511D01*
X151829971Y-83195078D01*
X151825125Y-83198517D01*
X151807703Y-83210078D01*
X151778655Y-83229029D01*
X151738968Y-83254738D01*
X151689628Y-83286569D01*
X151631623Y-83323888D01*
X151565938Y-83366060D01*
X151493562Y-83412450D01*
X151415479Y-83462425D01*
X151332677Y-83515349D01*
X151246143Y-83570587D01*
X151180769Y-83612309D01*
X151096964Y-83665845D01*
X151017638Y-83716578D01*
X150943777Y-83763874D01*
X150876367Y-83807099D01*
X150816394Y-83845621D01*
X150764843Y-83878806D01*
X150722701Y-83906020D01*
X150690953Y-83926630D01*
X150670586Y-83940003D01*
X150662585Y-83945505D01*
X150663074Y-83947946D01*
X150669827Y-83954765D01*
X150684054Y-83966058D01*
X150706349Y-83982220D01*
X150737304Y-84003646D01*
X150777512Y-84030730D01*
X150827567Y-84063868D01*
X150888061Y-84103454D01*
X150959586Y-84149883D01*
X151042737Y-84203550D01*
X151138106Y-84264850D01*
X151246286Y-84334178D01*
X151839690Y-84714018D01*
X151839738Y-85087853D01*
X151839786Y-85461689D01*
X151786358Y-85427264D01*
X151785022Y-85426404D01*
X151769608Y-85416522D01*
X151741845Y-85398752D01*
X151702580Y-85373638D01*
X151652663Y-85341721D01*
X151592940Y-85303542D01*
X151524260Y-85259644D01*
X151447471Y-85210569D01*
X151363420Y-85156858D01*
X151272955Y-85099054D01*
X151176924Y-85037698D01*
X151076176Y-84973332D01*
X150971558Y-84906498D01*
X150863917Y-84837738D01*
X149994904Y-84282637D01*
X149445111Y-84282637D01*
X148895317Y-84282637D01*
X148895317Y-83954155D01*
X148895317Y-83625673D01*
X149443447Y-83625441D01*
X149991578Y-83625209D01*
X150913703Y-83035837D01*
X151835828Y-82446465D01*
X151837886Y-82816059D01*
G37*
G36*
X150489496Y-85484946D02*
G01*
X150638348Y-85502179D01*
X150785215Y-85533649D01*
X150929004Y-85579296D01*
X151068626Y-85639060D01*
X151202987Y-85712882D01*
X151330997Y-85800702D01*
X151380651Y-85840201D01*
X151493018Y-85943507D01*
X151594051Y-86056886D01*
X151683252Y-86179188D01*
X151760121Y-86309266D01*
X151824159Y-86445970D01*
X151874865Y-86588150D01*
X151911741Y-86734660D01*
X151934287Y-86884349D01*
X151942004Y-87036069D01*
X151934392Y-87188670D01*
X151932654Y-87205000D01*
X151907906Y-87357892D01*
X151868811Y-87505615D01*
X151816090Y-87647368D01*
X151750463Y-87782351D01*
X151672652Y-87909764D01*
X151583378Y-88028808D01*
X151483362Y-88138681D01*
X151373325Y-88238584D01*
X151253988Y-88327717D01*
X151126072Y-88405279D01*
X150990298Y-88470471D01*
X150847387Y-88522492D01*
X150698060Y-88560543D01*
X150611325Y-88575618D01*
X150455438Y-88590466D01*
X150391161Y-88590166D01*
X150300126Y-88589741D01*
X150146250Y-88573596D01*
X149994670Y-88542185D01*
X149846244Y-88495660D01*
X149701833Y-88434176D01*
X149562295Y-88357885D01*
X149544925Y-88347002D01*
X149468012Y-88293313D01*
X149388799Y-88230055D01*
X149311367Y-88160831D01*
X149239800Y-88089245D01*
X149178180Y-88018901D01*
X149127061Y-87951864D01*
X149043427Y-87822984D01*
X148972519Y-87686661D01*
X148915113Y-87544678D01*
X148871984Y-87398814D01*
X148843907Y-87250852D01*
X148842095Y-87236408D01*
X148836929Y-87175686D01*
X148833953Y-87105516D01*
X148833664Y-87077925D01*
X149412864Y-87077925D01*
X149413681Y-87118980D01*
X149415245Y-87151978D01*
X149417454Y-87173038D01*
X149436010Y-87251565D01*
X149474063Y-87355128D01*
X149526116Y-87454133D01*
X149591151Y-87546718D01*
X149668146Y-87631018D01*
X149755281Y-87706331D01*
X149857796Y-87775733D01*
X149967350Y-87831024D01*
X150084103Y-87872270D01*
X150208216Y-87899538D01*
X150339848Y-87912896D01*
X150391161Y-87914102D01*
X150512838Y-87907075D01*
X150630763Y-87886613D01*
X150743841Y-87853470D01*
X150850980Y-87808397D01*
X150951085Y-87752149D01*
X151043063Y-87685479D01*
X151125821Y-87609140D01*
X151198264Y-87523885D01*
X151259299Y-87430467D01*
X151307833Y-87329639D01*
X151342772Y-87222155D01*
X151346931Y-87203930D01*
X151357088Y-87134991D01*
X151361362Y-87058532D01*
X151359803Y-86980066D01*
X151352458Y-86905108D01*
X151339378Y-86839169D01*
X151304516Y-86735502D01*
X151254578Y-86634265D01*
X151190504Y-86539749D01*
X151111946Y-86451357D01*
X151069591Y-86411657D01*
X150973714Y-86337145D01*
X150870234Y-86275406D01*
X150760530Y-86226582D01*
X150645980Y-86190814D01*
X150527963Y-86168247D01*
X150407858Y-86159022D01*
X150287042Y-86163283D01*
X150166895Y-86181172D01*
X150048795Y-86212831D01*
X149934119Y-86258405D01*
X149824248Y-86318035D01*
X149779865Y-86348323D01*
X149714943Y-86400836D01*
X149651876Y-86460607D01*
X149595007Y-86523424D01*
X149548683Y-86585076D01*
X149545302Y-86590188D01*
X149508992Y-86648613D01*
X149480661Y-86702732D01*
X149457308Y-86758889D01*
X149435931Y-86823429D01*
X149432510Y-86835029D01*
X149425180Y-86863448D01*
X149420070Y-86891427D01*
X149416693Y-86923033D01*
X149414563Y-86962333D01*
X149413193Y-87013395D01*
X149412899Y-87032697D01*
X149412864Y-87077925D01*
X148833664Y-87077925D01*
X148833169Y-87030779D01*
X148834575Y-86956358D01*
X148838170Y-86887135D01*
X148843955Y-86827991D01*
X148857093Y-86745924D01*
X148892948Y-86597882D01*
X148943603Y-86453373D01*
X149008428Y-86313858D01*
X149086790Y-86180796D01*
X149178056Y-86055651D01*
X149233488Y-85991753D01*
X149313407Y-85911263D01*
X149400713Y-85834070D01*
X149491031Y-85763994D01*
X149579985Y-85704852D01*
X149615824Y-85683867D01*
X149753664Y-85614424D01*
X149896068Y-85559577D01*
X150041945Y-85519265D01*
X150190203Y-85493429D01*
X150339751Y-85482009D01*
X150489496Y-85484946D01*
G37*
G36*
X149039693Y-73680668D02*
G01*
X149047834Y-73683993D01*
X149076615Y-73695745D01*
X149118847Y-73712984D01*
X149173690Y-73735369D01*
X149240307Y-73762556D01*
X149317856Y-73794204D01*
X149405500Y-73829970D01*
X149502398Y-73869512D01*
X149607711Y-73912486D01*
X149720600Y-73958551D01*
X149840226Y-74007364D01*
X149965749Y-74058582D01*
X150096329Y-74111863D01*
X150231129Y-74166864D01*
X150369307Y-74223243D01*
X150510026Y-74280658D01*
X151835828Y-74821595D01*
X151837874Y-75253269D01*
X151838180Y-75325579D01*
X151838409Y-75412190D01*
X151838396Y-75484787D01*
X151838124Y-75544422D01*
X151837572Y-75592145D01*
X151836722Y-75629009D01*
X151835555Y-75656065D01*
X151834052Y-75674365D01*
X151832193Y-75684959D01*
X151829959Y-75688899D01*
X151828871Y-75689340D01*
X151816064Y-75694560D01*
X151789534Y-75705384D01*
X151749985Y-75721527D01*
X151698121Y-75742700D01*
X151634647Y-75768615D01*
X151560265Y-75798986D01*
X151475682Y-75833524D01*
X151381600Y-75871942D01*
X151278724Y-75913952D01*
X151167758Y-75959268D01*
X151049407Y-76007600D01*
X150924374Y-76058663D01*
X150793363Y-76112168D01*
X150657080Y-76167828D01*
X150516227Y-76225354D01*
X150371509Y-76284461D01*
X150324906Y-76303494D01*
X150181279Y-76362141D01*
X150144858Y-76377008D01*
X150041707Y-76419114D01*
X149906896Y-76474126D01*
X149777554Y-76526889D01*
X149654387Y-76577116D01*
X149538101Y-76624518D01*
X149429403Y-76668808D01*
X149329000Y-76709698D01*
X149237598Y-76746900D01*
X149155903Y-76780128D01*
X149084624Y-76809092D01*
X149024464Y-76833506D01*
X148976133Y-76853082D01*
X148940335Y-76867531D01*
X148917778Y-76876567D01*
X148909169Y-76879901D01*
X148908614Y-76880041D01*
X148905483Y-76879880D01*
X148902885Y-76876999D01*
X148900769Y-76870086D01*
X148899088Y-76857832D01*
X148897791Y-76838924D01*
X148896829Y-76812052D01*
X148896153Y-76775904D01*
X148895713Y-76729171D01*
X148895460Y-76670539D01*
X148895345Y-76598700D01*
X148895317Y-76512341D01*
X148895317Y-76140946D01*
X149079346Y-76071056D01*
X149087798Y-76067846D01*
X149154345Y-76042551D01*
X149228360Y-76014389D01*
X149304275Y-75985482D01*
X149376524Y-75957947D01*
X149439538Y-75933907D01*
X149615700Y-75866648D01*
X149613673Y-75253286D01*
X149613667Y-75251466D01*
X150138010Y-75251466D01*
X150138028Y-75281788D01*
X150138249Y-75359118D01*
X150138699Y-75430906D01*
X150139355Y-75495683D01*
X150140192Y-75551977D01*
X150141185Y-75598320D01*
X150142310Y-75633242D01*
X150143542Y-75655273D01*
X150144858Y-75662943D01*
X150147592Y-75662076D01*
X150163219Y-75656435D01*
X150191392Y-75646009D01*
X150230670Y-75631345D01*
X150279610Y-75612990D01*
X150336772Y-75591488D01*
X150400714Y-75567387D01*
X150469995Y-75541231D01*
X150543173Y-75513567D01*
X150618808Y-75484942D01*
X150695458Y-75455899D01*
X150771681Y-75426987D01*
X150846037Y-75398750D01*
X150917083Y-75371735D01*
X150983379Y-75346487D01*
X151043483Y-75323553D01*
X151095954Y-75303478D01*
X151139351Y-75286809D01*
X151172232Y-75274091D01*
X151193155Y-75265870D01*
X151194163Y-75265458D01*
X151207201Y-75257655D01*
X151208986Y-75251144D01*
X151206734Y-75250004D01*
X151191698Y-75243724D01*
X151163687Y-75232550D01*
X151123934Y-75216958D01*
X151073672Y-75197427D01*
X151014136Y-75174431D01*
X150946558Y-75148450D01*
X150872171Y-75119958D01*
X150792210Y-75089435D01*
X150707907Y-75057356D01*
X150671754Y-75043619D01*
X150587745Y-75011690D01*
X150507835Y-74981308D01*
X150433362Y-74952980D01*
X150365665Y-74927218D01*
X150306079Y-74904529D01*
X150255943Y-74885423D01*
X150216594Y-74870410D01*
X150189370Y-74859998D01*
X150175607Y-74854696D01*
X150138010Y-74839989D01*
X150138010Y-75251466D01*
X149613667Y-75251466D01*
X149611646Y-74639924D01*
X149255461Y-74504279D01*
X148899275Y-74368635D01*
X148897219Y-73995125D01*
X148895163Y-73621615D01*
X149039693Y-73680668D01*
G37*
G36*
X150541338Y-79347036D02*
G01*
X150690379Y-79369301D01*
X150837477Y-79406089D01*
X150981517Y-79457500D01*
X151121385Y-79523632D01*
X151137831Y-79532562D01*
X151268318Y-79613237D01*
X151388962Y-79705576D01*
X151499218Y-79808560D01*
X151598543Y-79921171D01*
X151686393Y-80042391D01*
X151762226Y-80171201D01*
X151825496Y-80306584D01*
X151875661Y-80447521D01*
X151912177Y-80592994D01*
X151934499Y-80741984D01*
X151942086Y-80893474D01*
X151934392Y-81046445D01*
X151925156Y-81120326D01*
X151894919Y-81271771D01*
X151850543Y-81417805D01*
X151792728Y-81557605D01*
X151722173Y-81690350D01*
X151639579Y-81815215D01*
X151545647Y-81931378D01*
X151441075Y-82038016D01*
X151326565Y-82134306D01*
X151202816Y-82219426D01*
X151070529Y-82292552D01*
X150930404Y-82352862D01*
X150783141Y-82399532D01*
X150764995Y-82404183D01*
X150612882Y-82434214D01*
X150459620Y-82448913D01*
X150402085Y-82448761D01*
X150306385Y-82448508D01*
X150154351Y-82433226D01*
X150004694Y-82403296D01*
X149858590Y-82358945D01*
X149717213Y-82300402D01*
X149581738Y-82227894D01*
X149453341Y-82141650D01*
X149420257Y-82115553D01*
X149369772Y-82072024D01*
X149316386Y-82022566D01*
X149264020Y-81970957D01*
X149216597Y-81920977D01*
X149178040Y-81876405D01*
X149126278Y-81808548D01*
X149042975Y-81680022D01*
X148972281Y-81543917D01*
X148915002Y-81402083D01*
X148871943Y-81256370D01*
X148843907Y-81108627D01*
X148842095Y-81094183D01*
X148836929Y-81033461D01*
X148833953Y-80963291D01*
X148833664Y-80935700D01*
X149412864Y-80935700D01*
X149413681Y-80976755D01*
X149415245Y-81009753D01*
X149417454Y-81030813D01*
X149436235Y-81110742D01*
X149474203Y-81214533D01*
X149525714Y-81312422D01*
X149589797Y-81403492D01*
X149665479Y-81486822D01*
X149751788Y-81561493D01*
X149847750Y-81626587D01*
X149952395Y-81681184D01*
X150064749Y-81724366D01*
X150183840Y-81755212D01*
X150194478Y-81757204D01*
X150256009Y-81765078D01*
X150326864Y-81769318D01*
X150402085Y-81769977D01*
X150476714Y-81767103D01*
X150545793Y-81760748D01*
X150604366Y-81750961D01*
X150656880Y-81738352D01*
X150730712Y-81716275D01*
X150800695Y-81689048D01*
X150874127Y-81654048D01*
X150935952Y-81619497D01*
X151033333Y-81551765D01*
X151120049Y-81473727D01*
X151195224Y-81386454D01*
X151257986Y-81291016D01*
X151307460Y-81188485D01*
X151342772Y-81079930D01*
X151346931Y-81061705D01*
X151357088Y-80992766D01*
X151361362Y-80916307D01*
X151359803Y-80837841D01*
X151352458Y-80762883D01*
X151339378Y-80696944D01*
X151304516Y-80593277D01*
X151254578Y-80492040D01*
X151190504Y-80397524D01*
X151111946Y-80309132D01*
X151069435Y-80269296D01*
X150973574Y-80194844D01*
X150870104Y-80133154D01*
X150760403Y-80084369D01*
X150645854Y-80048631D01*
X150527838Y-80026084D01*
X150407735Y-80016870D01*
X150286925Y-80021133D01*
X150166791Y-80039015D01*
X150048713Y-80070660D01*
X149934072Y-80116211D01*
X149824248Y-80175810D01*
X149779865Y-80206098D01*
X149714943Y-80258611D01*
X149651876Y-80318382D01*
X149595007Y-80381199D01*
X149548683Y-80442851D01*
X149545302Y-80447963D01*
X149508992Y-80506388D01*
X149480661Y-80560507D01*
X149457308Y-80616664D01*
X149435931Y-80681204D01*
X149432510Y-80692804D01*
X149425180Y-80721223D01*
X149420070Y-80749202D01*
X149416693Y-80780808D01*
X149414563Y-80820108D01*
X149413193Y-80871170D01*
X149412899Y-80890472D01*
X149412864Y-80935700D01*
X148833664Y-80935700D01*
X148833169Y-80888554D01*
X148834575Y-80814133D01*
X148838170Y-80744910D01*
X148843955Y-80685766D01*
X148849897Y-80644882D01*
X148881702Y-80495244D01*
X148928626Y-80348921D01*
X148990197Y-80207042D01*
X149065943Y-80070735D01*
X149155391Y-79941129D01*
X149158872Y-79936623D01*
X149192467Y-79896346D01*
X149234545Y-79850111D01*
X149281658Y-79801399D01*
X149330358Y-79753690D01*
X149377198Y-79710467D01*
X149418730Y-79675211D01*
X149537379Y-79589492D01*
X149668780Y-79512875D01*
X149806047Y-79450085D01*
X149948065Y-79401223D01*
X150093719Y-79366388D01*
X150241893Y-79345679D01*
X150391471Y-79339195D01*
X150541338Y-79347036D01*
G37*
G36*
X137828950Y-100054482D02*
G01*
X137861531Y-100060433D01*
X137885378Y-100072191D01*
X137901743Y-100091223D01*
X137911878Y-100118999D01*
X137917034Y-100156988D01*
X137918463Y-100206660D01*
X137918462Y-100208408D01*
X137918142Y-100244403D01*
X137917005Y-100269961D01*
X137914697Y-100287901D01*
X137910862Y-100301045D01*
X137905142Y-100312213D01*
X137899310Y-100321087D01*
X137881610Y-100340101D01*
X137859217Y-100352264D01*
X137829380Y-100358727D01*
X137789349Y-100360638D01*
X137761710Y-100359765D01*
X137723820Y-100353906D01*
X137695976Y-100341866D01*
X137676673Y-100322870D01*
X137664409Y-100296142D01*
X137662592Y-100286475D01*
X137660439Y-100264456D01*
X137658863Y-100235531D01*
X137658115Y-100203419D01*
X137658082Y-100195776D01*
X137659314Y-100154715D01*
X137663639Y-100123941D01*
X137671909Y-100100924D01*
X137684974Y-100083138D01*
X137703685Y-100068054D01*
X137707115Y-100065830D01*
X137720191Y-100059144D01*
X137735451Y-100055206D01*
X137756622Y-100053338D01*
X137787430Y-100052865D01*
X137828950Y-100054482D01*
G37*
G36*
X137808235Y-105961620D02*
G01*
X137844787Y-105965339D01*
X137871802Y-105973790D01*
X137891613Y-105987901D01*
X137906554Y-106008598D01*
X137908639Y-106012609D01*
X137913102Y-106024009D01*
X137915935Y-106038127D01*
X137917384Y-106057626D01*
X137917694Y-106085167D01*
X137917108Y-106123413D01*
X137915143Y-106215325D01*
X137889950Y-106240510D01*
X137885467Y-106244974D01*
X137874365Y-106255103D01*
X137863849Y-106261394D01*
X137850430Y-106264926D01*
X137830617Y-106266777D01*
X137800920Y-106268026D01*
X137799576Y-106268074D01*
X137763873Y-106268276D01*
X137735747Y-106266344D01*
X137718042Y-106262470D01*
X137702763Y-106254251D01*
X137678998Y-106232106D01*
X137664451Y-106204675D01*
X137662622Y-106194972D01*
X137660454Y-106172898D01*
X137658867Y-106143930D01*
X137658115Y-106111796D01*
X137658082Y-106104153D01*
X137659314Y-106063092D01*
X137663639Y-106032318D01*
X137671909Y-106009302D01*
X137684974Y-105991515D01*
X137703685Y-105976431D01*
X137707115Y-105974208D01*
X137720191Y-105967522D01*
X137735451Y-105963583D01*
X137756622Y-105961715D01*
X137787430Y-105961243D01*
X137808235Y-105961620D01*
G37*
G36*
X136776580Y-105962155D02*
G01*
X136862544Y-105962444D01*
X136961002Y-105962795D01*
X137482483Y-105964588D01*
X137500384Y-105981316D01*
X137510107Y-105990948D01*
X137521885Y-106006019D01*
X137529697Y-106023150D01*
X137534319Y-106045165D01*
X137536524Y-106074888D01*
X137537087Y-106115142D01*
X137536886Y-106141695D01*
X137535387Y-106175033D01*
X137531761Y-106199606D01*
X137525235Y-106218237D01*
X137515034Y-106233749D01*
X137500384Y-106248967D01*
X137482483Y-106265695D01*
X136961002Y-106267488D01*
X136912917Y-106267657D01*
X136820467Y-106267987D01*
X136740092Y-106268225D01*
X136670907Y-106268310D01*
X136612023Y-106268177D01*
X136562554Y-106267766D01*
X136521610Y-106267012D01*
X136488307Y-106265855D01*
X136461755Y-106264230D01*
X136441067Y-106262075D01*
X136425357Y-106259327D01*
X136413736Y-106255925D01*
X136405318Y-106251805D01*
X136399215Y-106246905D01*
X136394539Y-106241161D01*
X136390403Y-106234512D01*
X136385920Y-106226895D01*
X136384168Y-106223901D01*
X136379270Y-106213000D01*
X136376001Y-106199325D01*
X136374049Y-106180223D01*
X136373105Y-106153046D01*
X136372859Y-106115142D01*
X136372876Y-106102992D01*
X136373291Y-106068443D01*
X136374493Y-106043858D01*
X136376792Y-106026588D01*
X136380498Y-106013981D01*
X136385920Y-106003388D01*
X136388136Y-105999668D01*
X136392344Y-105992516D01*
X136396624Y-105986302D01*
X136401863Y-105980964D01*
X136408949Y-105976440D01*
X136418768Y-105972666D01*
X136432208Y-105969581D01*
X136450157Y-105967121D01*
X136473502Y-105965224D01*
X136503130Y-105963828D01*
X136539929Y-105962868D01*
X136584786Y-105962284D01*
X136638589Y-105962012D01*
X136702224Y-105961990D01*
X136776580Y-105962155D01*
G37*
G36*
X139831828Y-105245344D02*
G01*
X141153710Y-105245409D01*
X141187538Y-105261162D01*
X141201345Y-105268525D01*
X141235681Y-105295552D01*
X141263350Y-105330099D01*
X141280994Y-105368316D01*
X141283243Y-105379028D01*
X141286179Y-105404774D01*
X141288460Y-105439315D01*
X141290061Y-105479882D01*
X141290957Y-105523706D01*
X141291122Y-105568018D01*
X141290531Y-105610051D01*
X141289159Y-105647034D01*
X141286981Y-105676200D01*
X141283972Y-105694779D01*
X141281114Y-105703836D01*
X141261428Y-105742571D01*
X141232375Y-105777126D01*
X141197203Y-105803435D01*
X141160401Y-105824072D01*
X139849239Y-105825827D01*
X139807830Y-105825884D01*
X139652451Y-105826104D01*
X139509756Y-105826310D01*
X139379190Y-105826486D01*
X139260197Y-105826617D01*
X139152218Y-105826686D01*
X139054699Y-105826679D01*
X138967083Y-105826579D01*
X138888812Y-105826371D01*
X138819331Y-105826040D01*
X138758083Y-105825569D01*
X138704511Y-105824943D01*
X138658059Y-105824146D01*
X138618171Y-105823163D01*
X138584290Y-105821978D01*
X138555859Y-105820576D01*
X138532322Y-105818940D01*
X138513122Y-105817055D01*
X138497703Y-105814906D01*
X138485508Y-105812476D01*
X138475982Y-105809751D01*
X138468566Y-105806714D01*
X138462706Y-105803350D01*
X138457843Y-105799643D01*
X138453422Y-105795578D01*
X138448887Y-105791139D01*
X138443680Y-105786310D01*
X138415879Y-105758196D01*
X138396859Y-105728612D01*
X138383677Y-105692618D01*
X138382003Y-105685990D01*
X138378798Y-105667474D01*
X138376637Y-105643574D01*
X138375425Y-105612296D01*
X138375069Y-105571643D01*
X138375473Y-105519620D01*
X138376062Y-105480028D01*
X138376958Y-105441998D01*
X138378231Y-105413496D01*
X138380077Y-105392401D01*
X138382696Y-105376591D01*
X138386283Y-105363944D01*
X138391037Y-105352339D01*
X138409899Y-105318463D01*
X138438442Y-105286506D01*
X138475333Y-105262527D01*
X138509946Y-105245278D01*
X139831828Y-105245344D01*
G37*
G36*
X136953047Y-100052865D02*
G01*
X136980955Y-100052866D01*
X137072750Y-100052889D01*
X137152337Y-100052959D01*
X137220637Y-100053097D01*
X137278568Y-100053324D01*
X137327050Y-100053661D01*
X137367002Y-100054129D01*
X137399343Y-100054749D01*
X137424992Y-100055541D01*
X137444869Y-100056526D01*
X137459892Y-100057727D01*
X137470981Y-100059162D01*
X137479055Y-100060855D01*
X137485034Y-100062824D01*
X137489835Y-100065092D01*
X137502207Y-100072641D01*
X137516739Y-100086163D01*
X137526751Y-100104110D01*
X137532982Y-100128697D01*
X137536173Y-100162141D01*
X137537062Y-100206660D01*
X137536651Y-100238782D01*
X137534326Y-100273869D01*
X137529202Y-100299828D01*
X137520438Y-100319098D01*
X137507196Y-100334114D01*
X137488636Y-100347317D01*
X137485466Y-100349156D01*
X137480664Y-100351384D01*
X137474479Y-100353303D01*
X137465988Y-100354936D01*
X137454269Y-100356306D01*
X137438397Y-100357437D01*
X137417450Y-100358351D01*
X137390505Y-100359071D01*
X137356639Y-100359621D01*
X137314928Y-100360024D01*
X137264450Y-100360303D01*
X137204282Y-100360480D01*
X137133501Y-100360580D01*
X137051183Y-100360625D01*
X136956406Y-100360638D01*
X136942110Y-100360639D01*
X136845876Y-100360648D01*
X136762007Y-100360613D01*
X136689613Y-100360469D01*
X136627800Y-100360153D01*
X136575674Y-100359598D01*
X136532344Y-100358740D01*
X136496916Y-100357515D01*
X136468498Y-100355858D01*
X136446197Y-100353702D01*
X136429120Y-100350985D01*
X136416374Y-100347641D01*
X136407066Y-100343605D01*
X136400304Y-100338812D01*
X136395194Y-100333198D01*
X136390845Y-100326697D01*
X136386363Y-100319245D01*
X136384022Y-100315216D01*
X136379145Y-100304200D01*
X136375912Y-100290527D01*
X136374001Y-100271517D01*
X136373091Y-100244490D01*
X136372859Y-100206764D01*
X136372876Y-100194614D01*
X136373291Y-100160065D01*
X136374493Y-100135481D01*
X136376792Y-100118211D01*
X136380498Y-100105604D01*
X136385920Y-100095011D01*
X136387466Y-100092433D01*
X136391753Y-100085150D01*
X136396008Y-100078818D01*
X136401126Y-100073371D01*
X136408000Y-100068743D01*
X136417526Y-100064866D01*
X136430597Y-100061676D01*
X136448108Y-100059105D01*
X136470953Y-100057086D01*
X136500026Y-100055554D01*
X136536222Y-100054442D01*
X136580434Y-100053684D01*
X136633557Y-100053212D01*
X136696486Y-100052961D01*
X136770114Y-100052863D01*
X136855337Y-100052854D01*
X136953047Y-100052865D01*
G37*
G36*
X137448370Y-101934760D02*
G01*
X137480357Y-101942509D01*
X137504620Y-101957715D01*
X137523740Y-101981558D01*
X137527310Y-101987963D01*
X137531061Y-101997529D01*
X137533713Y-102009993D01*
X137535451Y-102027452D01*
X137536464Y-102052003D01*
X137536939Y-102085743D01*
X137537062Y-102130767D01*
X137537062Y-102132918D01*
X137536624Y-102187195D01*
X137535024Y-102230939D01*
X137531795Y-102266887D01*
X137526470Y-102297773D01*
X137518581Y-102326333D01*
X137507663Y-102355304D01*
X137493247Y-102387420D01*
X137489592Y-102395225D01*
X137479881Y-102416626D01*
X137473510Y-102431709D01*
X137471712Y-102437604D01*
X137495379Y-102448665D01*
X137512831Y-102462535D01*
X137524809Y-102481251D01*
X137532232Y-102506917D01*
X137536015Y-102541635D01*
X137537076Y-102587510D01*
X137536841Y-102616688D01*
X137535290Y-102649584D01*
X137531626Y-102673839D01*
X137525092Y-102692245D01*
X137514931Y-102707594D01*
X137500384Y-102722676D01*
X137482483Y-102739404D01*
X136964522Y-102741197D01*
X136958111Y-102741220D01*
X136860275Y-102741557D01*
X136774880Y-102741810D01*
X136701041Y-102741924D01*
X136637870Y-102741846D01*
X136584480Y-102741521D01*
X136539985Y-102740897D01*
X136503498Y-102739919D01*
X136474132Y-102738533D01*
X136451001Y-102736687D01*
X136433219Y-102734325D01*
X136419897Y-102731396D01*
X136410151Y-102727844D01*
X136403092Y-102723616D01*
X136397835Y-102718658D01*
X136393492Y-102712917D01*
X136389178Y-102706339D01*
X136379938Y-102688748D01*
X136372177Y-102667305D01*
X136370479Y-102656034D01*
X136369011Y-102632687D01*
X136368426Y-102602704D01*
X136368854Y-102569847D01*
X136369679Y-102547428D01*
X136372168Y-102515455D01*
X136376881Y-102492241D01*
X136384935Y-102474811D01*
X136397445Y-102460190D01*
X136415527Y-102445402D01*
X136416345Y-102444797D01*
X136420522Y-102442030D01*
X136425608Y-102439672D01*
X136432642Y-102437685D01*
X136442663Y-102436029D01*
X136456712Y-102434666D01*
X136475828Y-102433558D01*
X136501050Y-102432666D01*
X136533417Y-102431951D01*
X136573970Y-102431375D01*
X136623747Y-102430899D01*
X136683787Y-102430484D01*
X136755132Y-102430093D01*
X136838819Y-102429685D01*
X137243639Y-102427764D01*
X137260114Y-102391778D01*
X137265158Y-102380313D01*
X137275869Y-102351281D01*
X137283938Y-102320297D01*
X137289680Y-102285083D01*
X137293409Y-102243363D01*
X137295439Y-102192857D01*
X137296086Y-102131290D01*
X137296218Y-102086610D01*
X137296657Y-102051609D01*
X137297580Y-102025980D01*
X137299165Y-102007686D01*
X137301593Y-101994689D01*
X137305041Y-101984950D01*
X137309690Y-101976430D01*
X137321982Y-101960679D01*
X137344945Y-101944822D01*
X137376167Y-101935909D01*
X137417656Y-101933133D01*
X137448370Y-101934760D01*
G37*
G36*
X141157055Y-108079709D02*
G01*
X141169542Y-108087408D01*
X141202620Y-108114967D01*
X141228328Y-108147387D01*
X141243736Y-108181235D01*
X141243788Y-108181435D01*
X141244887Y-108192786D01*
X141245891Y-108217370D01*
X141246800Y-108255198D01*
X141247613Y-108306286D01*
X141248331Y-108370646D01*
X141248953Y-108448292D01*
X141249481Y-108539238D01*
X141249913Y-108643498D01*
X141250251Y-108761086D01*
X141250494Y-108892015D01*
X141250642Y-109036298D01*
X141250695Y-109193950D01*
X141250706Y-109296489D01*
X141250728Y-109423482D01*
X141250737Y-109538227D01*
X141250709Y-109641375D01*
X141250618Y-109733578D01*
X141250441Y-109815486D01*
X141250152Y-109887752D01*
X141249728Y-109951025D01*
X141249143Y-110005958D01*
X141248374Y-110053202D01*
X141247395Y-110093408D01*
X141246182Y-110127228D01*
X141244711Y-110155311D01*
X141242957Y-110178311D01*
X141240895Y-110196877D01*
X141238501Y-110211662D01*
X141235751Y-110223316D01*
X141232619Y-110232491D01*
X141229082Y-110239837D01*
X141225115Y-110246007D01*
X141220693Y-110251652D01*
X141215792Y-110257422D01*
X141210387Y-110263969D01*
X141201315Y-110273794D01*
X141178039Y-110292741D01*
X141151755Y-110308531D01*
X141141451Y-110313493D01*
X141128001Y-110319140D01*
X141114485Y-110322990D01*
X141098241Y-110325385D01*
X141076604Y-110326670D01*
X141046913Y-110327189D01*
X141006502Y-110327286D01*
X140978953Y-110327253D01*
X140945841Y-110326925D01*
X140921843Y-110325967D01*
X140904368Y-110324048D01*
X140890827Y-110320837D01*
X140878629Y-110316003D01*
X140865184Y-110309214D01*
X140850349Y-110300595D01*
X140813068Y-110269298D01*
X140783775Y-110227788D01*
X140782349Y-110224901D01*
X140780064Y-110218382D01*
X140778114Y-110209260D01*
X140776458Y-110196456D01*
X140775056Y-110178892D01*
X140773867Y-110155490D01*
X140772852Y-110125173D01*
X140771970Y-110086863D01*
X140771180Y-110039481D01*
X140770442Y-109981951D01*
X140769717Y-109913194D01*
X140768962Y-109832133D01*
X140765617Y-109457423D01*
X139634795Y-109454077D01*
X138503973Y-109450732D01*
X138476854Y-109436213D01*
X138462078Y-109427548D01*
X138423873Y-109395791D01*
X138396263Y-109356677D01*
X138380152Y-109311377D01*
X138379891Y-109309982D01*
X138378211Y-109293075D01*
X138376891Y-109265699D01*
X138376000Y-109230406D01*
X138375604Y-109189749D01*
X138375771Y-109146280D01*
X138376330Y-109102854D01*
X138377150Y-109065962D01*
X138378374Y-109038399D01*
X138380201Y-109018044D01*
X138382825Y-109002774D01*
X138386444Y-108990466D01*
X138391253Y-108978998D01*
X138405723Y-108953768D01*
X138437474Y-108917642D01*
X138476854Y-108889802D01*
X138503973Y-108875284D01*
X139634795Y-108871938D01*
X140765617Y-108868593D01*
X140768962Y-108523993D01*
X140769124Y-108507344D01*
X140769865Y-108433177D01*
X140770553Y-108370991D01*
X140771245Y-108319623D01*
X140771998Y-108277908D01*
X140772868Y-108244681D01*
X140773912Y-108218779D01*
X140775185Y-108199038D01*
X140776744Y-108184293D01*
X140778646Y-108173380D01*
X140780947Y-108165136D01*
X140783702Y-108158395D01*
X140786969Y-108151995D01*
X140790947Y-108145208D01*
X140807761Y-108122423D01*
X140826630Y-108102646D01*
X140843389Y-108088652D01*
X140860420Y-108077113D01*
X140878430Y-108068998D01*
X140899899Y-108063716D01*
X140927306Y-108060674D01*
X140963129Y-108059283D01*
X141009848Y-108058951D01*
X141120253Y-108058951D01*
X141157055Y-108079709D01*
G37*
G36*
X137501041Y-104453066D02*
G01*
X137522053Y-104467721D01*
X137534192Y-104491926D01*
X137535264Y-104499399D01*
X137536331Y-104519595D01*
X137536614Y-104547024D01*
X137536035Y-104577965D01*
X137534700Y-104609592D01*
X137532578Y-104632545D01*
X137528881Y-104649488D01*
X137522783Y-104664159D01*
X137513459Y-104680297D01*
X137504691Y-104693151D01*
X137488110Y-104713036D01*
X137473012Y-104726580D01*
X137470763Y-104727797D01*
X137456574Y-104733877D01*
X137431282Y-104743802D01*
X137395996Y-104757164D01*
X137351828Y-104773558D01*
X137299888Y-104792574D01*
X137241286Y-104813805D01*
X137177133Y-104836844D01*
X137108539Y-104861284D01*
X137036616Y-104886716D01*
X137005381Y-104897730D01*
X136935688Y-104922388D01*
X136870296Y-104945636D01*
X136810244Y-104967098D01*
X136756574Y-104986398D01*
X136710328Y-105003158D01*
X136672547Y-105017001D01*
X136644272Y-105027552D01*
X136626545Y-105034434D01*
X136620407Y-105037269D01*
X136621857Y-105038115D01*
X136633706Y-105043010D01*
X136656628Y-105051831D01*
X136689589Y-105064198D01*
X136731557Y-105079732D01*
X136781496Y-105098051D01*
X136838372Y-105118777D01*
X136901151Y-105141528D01*
X136968800Y-105165925D01*
X137040283Y-105191588D01*
X137121972Y-105220858D01*
X137193496Y-105246535D01*
X137254316Y-105268466D01*
X137305388Y-105287035D01*
X137347669Y-105302626D01*
X137382115Y-105315624D01*
X137409682Y-105326411D01*
X137431327Y-105335373D01*
X137448005Y-105342892D01*
X137460673Y-105349354D01*
X137470288Y-105355141D01*
X137477806Y-105360638D01*
X137484182Y-105366229D01*
X137490374Y-105372298D01*
X137503761Y-105386781D01*
X137517791Y-105406756D01*
X137527377Y-105429198D01*
X137533279Y-105456815D01*
X137536262Y-105492320D01*
X137537087Y-105538424D01*
X137537056Y-105555446D01*
X137536613Y-105584971D01*
X137535310Y-105605098D01*
X137532727Y-105618574D01*
X137528441Y-105628148D01*
X137522032Y-105636570D01*
X137520621Y-105638198D01*
X137515345Y-105644082D01*
X137509908Y-105648929D01*
X137503479Y-105652512D01*
X137495228Y-105654604D01*
X137484324Y-105654979D01*
X137469935Y-105653409D01*
X137451231Y-105649668D01*
X137427381Y-105643528D01*
X137397553Y-105634764D01*
X137360918Y-105623148D01*
X137316643Y-105608453D01*
X137263899Y-105590454D01*
X137201853Y-105568921D01*
X137129676Y-105543630D01*
X137046536Y-105514353D01*
X136951602Y-105480864D01*
X136909933Y-105466162D01*
X136823198Y-105435544D01*
X136747848Y-105408894D01*
X136683019Y-105385878D01*
X136627851Y-105366161D01*
X136581482Y-105349408D01*
X136543052Y-105335284D01*
X136511697Y-105323456D01*
X136486558Y-105313587D01*
X136466772Y-105305344D01*
X136451479Y-105298391D01*
X136439816Y-105292394D01*
X136430922Y-105287018D01*
X136423937Y-105281928D01*
X136417998Y-105276790D01*
X136412244Y-105271268D01*
X136406926Y-105265869D01*
X136385900Y-105239362D01*
X136374233Y-105214745D01*
X136372031Y-105200523D01*
X136370140Y-105173818D01*
X136368839Y-105137170D01*
X136368190Y-105092366D01*
X136368254Y-105041195D01*
X136369463Y-104893988D01*
X136387890Y-104862641D01*
X136394971Y-104851661D01*
X136410971Y-104831451D01*
X136425991Y-104817286D01*
X136428544Y-104815813D01*
X136443413Y-104809204D01*
X136469250Y-104798897D01*
X136504876Y-104785305D01*
X136549114Y-104768840D01*
X136600785Y-104749915D01*
X136658714Y-104728943D01*
X136721721Y-104706335D01*
X136788630Y-104682503D01*
X136858263Y-104657861D01*
X136929441Y-104632821D01*
X137000988Y-104607794D01*
X137071726Y-104583194D01*
X137140477Y-104559432D01*
X137206064Y-104536922D01*
X137267309Y-104516075D01*
X137323035Y-104497304D01*
X137372063Y-104481021D01*
X137413216Y-104467639D01*
X137445317Y-104457570D01*
X137467188Y-104451226D01*
X137477652Y-104449019D01*
X137501041Y-104453066D01*
G37*
G36*
X136797343Y-100724120D02*
G01*
X136859542Y-100743624D01*
X136917302Y-100773983D01*
X136968903Y-100814199D01*
X137012625Y-100863275D01*
X137046746Y-100920212D01*
X137071628Y-100972607D01*
X137076531Y-101172465D01*
X137077622Y-101215047D01*
X137079318Y-101269524D01*
X137081320Y-101313045D01*
X137083917Y-101347071D01*
X137087397Y-101373064D01*
X137092050Y-101392487D01*
X137098165Y-101406801D01*
X137106030Y-101417468D01*
X137115934Y-101425950D01*
X137128167Y-101433709D01*
X137135214Y-101437374D01*
X137167138Y-101445707D01*
X137201617Y-101444260D01*
X137234994Y-101434032D01*
X137263616Y-101416019D01*
X137283827Y-101391221D01*
X137286111Y-101386544D01*
X137288894Y-101378845D01*
X137291119Y-101368798D01*
X137292848Y-101355024D01*
X137294145Y-101336145D01*
X137295073Y-101310780D01*
X137295694Y-101277551D01*
X137296072Y-101235077D01*
X137296269Y-101181980D01*
X137296349Y-101116879D01*
X137296406Y-101061705D01*
X137296571Y-101006775D01*
X137296904Y-100962636D01*
X137297472Y-100927873D01*
X137298341Y-100901076D01*
X137299578Y-100880831D01*
X137301249Y-100865727D01*
X137303421Y-100854349D01*
X137306160Y-100845287D01*
X137309533Y-100837126D01*
X137324141Y-100814457D01*
X137350361Y-100794980D01*
X137385874Y-100784812D01*
X137430955Y-100783832D01*
X137454958Y-100786490D01*
X137484600Y-100794606D01*
X137506587Y-100808927D01*
X137524140Y-100831087D01*
X137525465Y-100833296D01*
X137528305Y-100838917D01*
X137530637Y-100845864D01*
X137532503Y-100855342D01*
X137533943Y-100868556D01*
X137534997Y-100886712D01*
X137535708Y-100911017D01*
X137536115Y-100942675D01*
X137536260Y-100982893D01*
X137536184Y-101032876D01*
X137535927Y-101093829D01*
X137535530Y-101166959D01*
X137535225Y-101220742D01*
X137534775Y-101288551D01*
X137534176Y-101345182D01*
X137533273Y-101391943D01*
X137531909Y-101430139D01*
X137529928Y-101461077D01*
X137527176Y-101486064D01*
X137523494Y-101506405D01*
X137518728Y-101523407D01*
X137512721Y-101538377D01*
X137505317Y-101552620D01*
X137496361Y-101567445D01*
X137485695Y-101584155D01*
X137463661Y-101614495D01*
X137418365Y-101660588D01*
X137365184Y-101698768D01*
X137306531Y-101727696D01*
X137244816Y-101746034D01*
X137182450Y-101752444D01*
X137142985Y-101749797D01*
X137081444Y-101735597D01*
X137022432Y-101710330D01*
X136968339Y-101675365D01*
X136921558Y-101632071D01*
X136884480Y-101581817D01*
X136878279Y-101571195D01*
X136867340Y-101551251D01*
X136858628Y-101532413D01*
X136851847Y-101512870D01*
X136846703Y-101490812D01*
X136842899Y-101464426D01*
X136840142Y-101431902D01*
X136838135Y-101391430D01*
X136836584Y-101341198D01*
X136835194Y-101279395D01*
X136831160Y-101084032D01*
X136808223Y-101060382D01*
X136779618Y-101037718D01*
X136746009Y-101025730D01*
X136706093Y-101024732D01*
X136680836Y-101029610D01*
X136650416Y-101045225D01*
X136624144Y-101072500D01*
X136621073Y-101076968D01*
X136618244Y-101082680D01*
X136615919Y-101090450D01*
X136614028Y-101101536D01*
X136612501Y-101117197D01*
X136611265Y-101138690D01*
X136610252Y-101167274D01*
X136609389Y-101204207D01*
X136608608Y-101250748D01*
X136607835Y-101308154D01*
X136607003Y-101377683D01*
X136603657Y-101664401D01*
X136586929Y-101682293D01*
X136577039Y-101692063D01*
X136553735Y-101708071D01*
X136526117Y-101716521D01*
X136490023Y-101718988D01*
X136470845Y-101718403D01*
X136433298Y-101712193D01*
X136405545Y-101698763D01*
X136386231Y-101677570D01*
X136386010Y-101677211D01*
X136382997Y-101671906D01*
X136380480Y-101665912D01*
X136378423Y-101658073D01*
X136376788Y-101647237D01*
X136375537Y-101632249D01*
X136374632Y-101611955D01*
X136374037Y-101585203D01*
X136373713Y-101550837D01*
X136373622Y-101507705D01*
X136373727Y-101454651D01*
X136373991Y-101390523D01*
X136374375Y-101314167D01*
X136376154Y-100972913D01*
X136400232Y-100922728D01*
X136419011Y-100888470D01*
X136460038Y-100834414D01*
X136509918Y-100789243D01*
X136567127Y-100754011D01*
X136630138Y-100729769D01*
X136697428Y-100717570D01*
X136732428Y-100716470D01*
X136797343Y-100724120D01*
G37*
G36*
X136510979Y-98734647D02*
G01*
X136541846Y-98739188D01*
X136564819Y-98747776D01*
X136571754Y-98752095D01*
X136583927Y-98760827D01*
X136593265Y-98770594D01*
X136600197Y-98783159D01*
X136605149Y-98800288D01*
X136608547Y-98823743D01*
X136610820Y-98855287D01*
X136612393Y-98896686D01*
X136613694Y-98949703D01*
X136614593Y-98988399D01*
X136616045Y-99033179D01*
X136618168Y-99067577D01*
X136621481Y-99093356D01*
X136626502Y-99112275D01*
X136633752Y-99126094D01*
X136643747Y-99136575D01*
X136657008Y-99145479D01*
X136674052Y-99154565D01*
X136677246Y-99156184D01*
X136684383Y-99159502D01*
X136692117Y-99162223D01*
X136701725Y-99164406D01*
X136714487Y-99166111D01*
X136731680Y-99167397D01*
X136754584Y-99168323D01*
X136784477Y-99168947D01*
X136822638Y-99169330D01*
X136870346Y-99169531D01*
X136928878Y-99169607D01*
X136999515Y-99169620D01*
X137295514Y-99169620D01*
X137297531Y-99012848D01*
X137298072Y-98973609D01*
X137298832Y-98932473D01*
X137299797Y-98901561D01*
X137301127Y-98879082D01*
X137302985Y-98863241D01*
X137305532Y-98852245D01*
X137308931Y-98844301D01*
X137313343Y-98837616D01*
X137316670Y-98833243D01*
X137335721Y-98812367D01*
X137355852Y-98799724D01*
X137381061Y-98793525D01*
X137415344Y-98791982D01*
X137450675Y-98793978D01*
X137482551Y-98801503D01*
X137506210Y-98815540D01*
X137523975Y-98837055D01*
X137526436Y-98841348D01*
X137530064Y-98849711D01*
X137532762Y-98860431D01*
X137534666Y-98875347D01*
X137535911Y-98896294D01*
X137536635Y-98925111D01*
X137536973Y-98963636D01*
X137537062Y-99013705D01*
X137537087Y-99168932D01*
X137693859Y-99170949D01*
X137737275Y-99171553D01*
X137780896Y-99172529D01*
X137814382Y-99174169D01*
X137839535Y-99176923D01*
X137858160Y-99181237D01*
X137872059Y-99187562D01*
X137883035Y-99196345D01*
X137892892Y-99208036D01*
X137903433Y-99223082D01*
X137906809Y-99228275D01*
X137912065Y-99238733D01*
X137915467Y-99251351D01*
X137917408Y-99268933D01*
X137918284Y-99294284D01*
X137918488Y-99330210D01*
X137918446Y-99349578D01*
X137917957Y-99379906D01*
X137916595Y-99401083D01*
X137913964Y-99415934D01*
X137909665Y-99427282D01*
X137903300Y-99437953D01*
X137899707Y-99443212D01*
X137889716Y-99455863D01*
X137878553Y-99465607D01*
X137864475Y-99472821D01*
X137845738Y-99477880D01*
X137820597Y-99481162D01*
X137787309Y-99483041D01*
X137744129Y-99483895D01*
X137689313Y-99484098D01*
X137537087Y-99484109D01*
X137537062Y-99576114D01*
X137537054Y-99581432D01*
X137536230Y-99624550D01*
X137533515Y-99656898D01*
X137528153Y-99680797D01*
X137519390Y-99698570D01*
X137506469Y-99712540D01*
X137488636Y-99725030D01*
X137465336Y-99733898D01*
X137434054Y-99738506D01*
X137400217Y-99738613D01*
X137368875Y-99734210D01*
X137345077Y-99725288D01*
X137338278Y-99720999D01*
X137323565Y-99709672D01*
X137313018Y-99696549D01*
X137305874Y-99679314D01*
X137301371Y-99655651D01*
X137298750Y-99623242D01*
X137297247Y-99579772D01*
X137294947Y-99484109D01*
X136986104Y-99483993D01*
X136948130Y-99483963D01*
X136874019Y-99483760D01*
X136811451Y-99483284D01*
X136759160Y-99482437D01*
X136715884Y-99481118D01*
X136680359Y-99479228D01*
X136651320Y-99476667D01*
X136627505Y-99473336D01*
X136607649Y-99469134D01*
X136590489Y-99463963D01*
X136574760Y-99457721D01*
X136559200Y-99450310D01*
X136557490Y-99449441D01*
X136499335Y-99412773D01*
X136451228Y-99367679D01*
X136413732Y-99314945D01*
X136387407Y-99255355D01*
X136372816Y-99189694D01*
X136371766Y-99177762D01*
X136370456Y-99150973D01*
X136369418Y-99114931D01*
X136368700Y-99072064D01*
X136368353Y-99024801D01*
X136368426Y-98975574D01*
X136368871Y-98921988D01*
X136369747Y-98875637D01*
X136371357Y-98839547D01*
X136374031Y-98812098D01*
X136378102Y-98791671D01*
X136383898Y-98776648D01*
X136391752Y-98765407D01*
X136401994Y-98756331D01*
X136414954Y-98747800D01*
X136419629Y-98745302D01*
X136445009Y-98737705D01*
X136477079Y-98734153D01*
X136510979Y-98734647D01*
G37*
G36*
X136845883Y-106717434D02*
G01*
X136934076Y-106717511D01*
X137010804Y-106717722D01*
X137075982Y-106718085D01*
X137130531Y-106718618D01*
X137175370Y-106719341D01*
X137211422Y-106720273D01*
X137239607Y-106721432D01*
X137260845Y-106722838D01*
X137276057Y-106724509D01*
X137286165Y-106726464D01*
X137337227Y-106745090D01*
X137391978Y-106777192D01*
X137440285Y-106818869D01*
X137480473Y-106868352D01*
X137510866Y-106923873D01*
X137529787Y-106983661D01*
X137531693Y-106997142D01*
X137533843Y-107023958D01*
X137535552Y-107058790D01*
X137536680Y-107098632D01*
X137537087Y-107140478D01*
X137537002Y-107164343D01*
X137535880Y-107216318D01*
X137533087Y-107258934D01*
X137528158Y-107295044D01*
X137520628Y-107327498D01*
X137510031Y-107359149D01*
X137495902Y-107392850D01*
X137476479Y-107436022D01*
X137497554Y-107452516D01*
X137506465Y-107460095D01*
X137519293Y-107475169D01*
X137528092Y-107493791D01*
X137533535Y-107518404D01*
X137536300Y-107551448D01*
X137537062Y-107595367D01*
X137536722Y-107624205D01*
X137534486Y-107659875D01*
X137529416Y-107686275D01*
X137520655Y-107705866D01*
X137507348Y-107721107D01*
X137488636Y-107734461D01*
X137485437Y-107736316D01*
X137480631Y-107738541D01*
X137474436Y-107740457D01*
X137465930Y-107742088D01*
X137454191Y-107743456D01*
X137438295Y-107744585D01*
X137417319Y-107745498D01*
X137390342Y-107746218D01*
X137356441Y-107746767D01*
X137314693Y-107747169D01*
X137264176Y-107747448D01*
X137203966Y-107747625D01*
X137133142Y-107747725D01*
X137050780Y-107747769D01*
X136955959Y-107747782D01*
X136931704Y-107747785D01*
X136836755Y-107747796D01*
X136754084Y-107747763D01*
X136682797Y-107747616D01*
X136622001Y-107747289D01*
X136570803Y-107746716D01*
X136528307Y-107745827D01*
X136493622Y-107744557D01*
X136465852Y-107742838D01*
X136444105Y-107740603D01*
X136427486Y-107737784D01*
X136415102Y-107734314D01*
X136406060Y-107730126D01*
X136399464Y-107725153D01*
X136394423Y-107719328D01*
X136390041Y-107712582D01*
X136385426Y-107704850D01*
X136383842Y-107702134D01*
X136379128Y-107691393D01*
X136375956Y-107677533D01*
X136374039Y-107657990D01*
X136373094Y-107630199D01*
X136372834Y-107591595D01*
X136372896Y-107573567D01*
X136373953Y-107534023D01*
X136376920Y-107504783D01*
X136382565Y-107483633D01*
X136391661Y-107468356D01*
X136404978Y-107456737D01*
X136423287Y-107446559D01*
X136428164Y-107444323D01*
X136434796Y-107441888D01*
X136442986Y-107439841D01*
X136453807Y-107438148D01*
X136468335Y-107436776D01*
X136487646Y-107435692D01*
X136512814Y-107434860D01*
X136544914Y-107434249D01*
X136585021Y-107433825D01*
X136634211Y-107433553D01*
X136693558Y-107433400D01*
X136764138Y-107433333D01*
X136847025Y-107433319D01*
X137243412Y-107433319D01*
X137259455Y-107398189D01*
X137274960Y-107359308D01*
X137291016Y-107294053D01*
X137296202Y-107223587D01*
X137295986Y-107204939D01*
X137293210Y-107165533D01*
X137286503Y-107134628D01*
X137274942Y-107108917D01*
X137257607Y-107085092D01*
X137248636Y-107074481D01*
X137240211Y-107064961D01*
X137231717Y-107056972D01*
X137222043Y-107050379D01*
X137210080Y-107045050D01*
X137194719Y-107040850D01*
X137174850Y-107037645D01*
X137149364Y-107035302D01*
X137117152Y-107033686D01*
X137077104Y-107032664D01*
X137028112Y-107032101D01*
X136969065Y-107031865D01*
X136898854Y-107031820D01*
X136816371Y-107031833D01*
X136754451Y-107031835D01*
X136680816Y-107031790D01*
X136618699Y-107031586D01*
X136567024Y-107031107D01*
X136524717Y-107030237D01*
X136490702Y-107028860D01*
X136463902Y-107026860D01*
X136443242Y-107024122D01*
X136427648Y-107020528D01*
X136416042Y-107015965D01*
X136407350Y-107010314D01*
X136400495Y-107003462D01*
X136394403Y-106995292D01*
X136387997Y-106985688D01*
X136383092Y-106977787D01*
X136378436Y-106967297D01*
X136375440Y-106954147D01*
X136373746Y-106935657D01*
X136372996Y-106909147D01*
X136372834Y-106871936D01*
X136372858Y-106858669D01*
X136373293Y-106824280D01*
X136374510Y-106799804D01*
X136376815Y-106782606D01*
X136380517Y-106770050D01*
X136385920Y-106759500D01*
X136388207Y-106755705D01*
X136393080Y-106747811D01*
X136398187Y-106741080D01*
X136404540Y-106735421D01*
X136413149Y-106730741D01*
X136425027Y-106726948D01*
X136441184Y-106723948D01*
X136462633Y-106721650D01*
X136490384Y-106719961D01*
X136525449Y-106718788D01*
X136568839Y-106718039D01*
X136621566Y-106717622D01*
X136684642Y-106717444D01*
X136759077Y-106717412D01*
X136845883Y-106717434D01*
G37*
G36*
X139644974Y-100598281D02*
G01*
X139726051Y-100598377D01*
X139796455Y-100598617D01*
X139857149Y-100599061D01*
X139909098Y-100599766D01*
X139953263Y-100600791D01*
X139990609Y-100602196D01*
X140022097Y-100604038D01*
X140048691Y-100606376D01*
X140071355Y-100609268D01*
X140091050Y-100612774D01*
X140108741Y-100616952D01*
X140125390Y-100621860D01*
X140141960Y-100627557D01*
X140159415Y-100634102D01*
X140178716Y-100641553D01*
X140236235Y-100668328D01*
X140300358Y-100708174D01*
X140361379Y-100756066D01*
X140416007Y-100809392D01*
X140460948Y-100865538D01*
X140479689Y-100895905D01*
X140502305Y-100939262D01*
X140523926Y-100986991D01*
X140542460Y-101034431D01*
X140555814Y-101076919D01*
X140558383Y-101086977D01*
X140561114Y-101098929D01*
X140563426Y-101111538D01*
X140565362Y-101125962D01*
X140566967Y-101143357D01*
X140568285Y-101164879D01*
X140569363Y-101191686D01*
X140570244Y-101224934D01*
X140570972Y-101265781D01*
X140571594Y-101315383D01*
X140572153Y-101374897D01*
X140572694Y-101445479D01*
X140573262Y-101528287D01*
X140573467Y-101561180D01*
X140573867Y-101657427D01*
X140573901Y-101742324D01*
X140573571Y-101815533D01*
X140572880Y-101876716D01*
X140571833Y-101925536D01*
X140570432Y-101961653D01*
X140568681Y-101984731D01*
X140552138Y-102073217D01*
X140523590Y-102158438D01*
X140484012Y-102237754D01*
X140434186Y-102310184D01*
X140374898Y-102374746D01*
X140306929Y-102430461D01*
X140231063Y-102476347D01*
X140148083Y-102511423D01*
X140147982Y-102511457D01*
X140131717Y-102516867D01*
X140116130Y-102521617D01*
X140100281Y-102525746D01*
X140083235Y-102529293D01*
X140064054Y-102532297D01*
X140041801Y-102534797D01*
X140015538Y-102536832D01*
X139984329Y-102538440D01*
X139947235Y-102539661D01*
X139903320Y-102540532D01*
X139851647Y-102541094D01*
X139791277Y-102541385D01*
X139721274Y-102541444D01*
X139696763Y-102541403D01*
X139640701Y-102541310D01*
X139548620Y-102541021D01*
X139444094Y-102540617D01*
X138885375Y-102538358D01*
X138835190Y-102523127D01*
X138825936Y-102520161D01*
X138793655Y-102508348D01*
X138757877Y-102493637D01*
X138724784Y-102478526D01*
X138710490Y-102471311D01*
X138635827Y-102425009D01*
X138568924Y-102368607D01*
X138510624Y-102303334D01*
X138461774Y-102230418D01*
X138423217Y-102151087D01*
X138395800Y-102066568D01*
X138380366Y-101978089D01*
X138379606Y-101966699D01*
X138378681Y-101940781D01*
X138377876Y-101903928D01*
X138377204Y-101857541D01*
X138376676Y-101803021D01*
X138376306Y-101741769D01*
X138376107Y-101675187D01*
X138376091Y-101604674D01*
X138376178Y-101569733D01*
X138829627Y-101569733D01*
X138829984Y-101614676D01*
X138831062Y-101656623D01*
X138832854Y-101692147D01*
X138835356Y-101717821D01*
X138837054Y-101727706D01*
X138852903Y-101777160D01*
X138879396Y-101824683D01*
X138914315Y-101867460D01*
X138955444Y-101902677D01*
X139000567Y-101927522D01*
X139039273Y-101943145D01*
X139460653Y-101945013D01*
X139484876Y-101945119D01*
X139567156Y-101945461D01*
X139637424Y-101945694D01*
X139696763Y-101945791D01*
X139746254Y-101945724D01*
X139786977Y-101945465D01*
X139820016Y-101944988D01*
X139846450Y-101944266D01*
X139867362Y-101943270D01*
X139883833Y-101941974D01*
X139896945Y-101940351D01*
X139907778Y-101938372D01*
X139917415Y-101936012D01*
X139926936Y-101933242D01*
X139932266Y-101931559D01*
X139984689Y-101907605D01*
X140030370Y-101873092D01*
X140067876Y-101829646D01*
X140095774Y-101778895D01*
X140112629Y-101722465D01*
X140113050Y-101720090D01*
X140116532Y-101690316D01*
X140118820Y-101651312D01*
X140119946Y-101606304D01*
X140119943Y-101558517D01*
X140118847Y-101511176D01*
X140116689Y-101467507D01*
X140113503Y-101430735D01*
X140109324Y-101404085D01*
X140106440Y-101392536D01*
X140084906Y-101337979D01*
X140052153Y-101290446D01*
X140008654Y-101250501D01*
X139954877Y-101218709D01*
X139915828Y-101200415D01*
X139474064Y-101200415D01*
X139032301Y-101200415D01*
X138987490Y-101222476D01*
X138960645Y-101237511D01*
X138913745Y-101274769D01*
X138876497Y-101320594D01*
X138849879Y-101373641D01*
X138834869Y-101432562D01*
X138832937Y-101451196D01*
X138831098Y-101484565D01*
X138829996Y-101525220D01*
X138829627Y-101569733D01*
X138376178Y-101569733D01*
X138376272Y-101531633D01*
X138377775Y-101140194D01*
X138395100Y-101075832D01*
X138405414Y-101040878D01*
X138440222Y-100953015D01*
X138485252Y-100873402D01*
X138540020Y-100802533D01*
X138604040Y-100740898D01*
X138676829Y-100688992D01*
X138757903Y-100647306D01*
X138846778Y-100616332D01*
X138912140Y-100598369D01*
X139467514Y-100598286D01*
X139552263Y-100598271D01*
X139644974Y-100598281D01*
G37*
G36*
X137208170Y-103139323D02*
G01*
X137247250Y-103142275D01*
X137278153Y-103147061D01*
X137279518Y-103147368D01*
X137338400Y-103167398D01*
X137392601Y-103198752D01*
X137440476Y-103239752D01*
X137480379Y-103288720D01*
X137510666Y-103343976D01*
X137529692Y-103403840D01*
X137531224Y-103413666D01*
X137533503Y-103440158D01*
X137535261Y-103476557D01*
X137536510Y-103520748D01*
X137537261Y-103570612D01*
X137537526Y-103624034D01*
X137537317Y-103678897D01*
X137536647Y-103733084D01*
X137535526Y-103784477D01*
X137533968Y-103830961D01*
X137531983Y-103870419D01*
X137529585Y-103900733D01*
X137526784Y-103919787D01*
X137515409Y-103957396D01*
X137487392Y-104014792D01*
X137448985Y-104065663D01*
X137401634Y-104108539D01*
X137346786Y-104141952D01*
X137285887Y-104164432D01*
X137274076Y-104166979D01*
X137258963Y-104169109D01*
X137239405Y-104170825D01*
X137214125Y-104172168D01*
X137181847Y-104173178D01*
X137141294Y-104173894D01*
X137091189Y-104174356D01*
X137074615Y-104174423D01*
X137030255Y-104174604D01*
X136957217Y-104174678D01*
X136916276Y-104174632D01*
X136840603Y-104174264D01*
X136775537Y-104173536D01*
X136721631Y-104172462D01*
X136679440Y-104171053D01*
X136649520Y-104169323D01*
X136632424Y-104167283D01*
X136611877Y-104162282D01*
X136552230Y-104138990D01*
X136498674Y-104104635D01*
X136452558Y-104060431D01*
X136415229Y-104007592D01*
X136388037Y-103947330D01*
X136384703Y-103937241D01*
X136381885Y-103927309D01*
X136379566Y-103916389D01*
X136377696Y-103903241D01*
X136376226Y-103886626D01*
X136375108Y-103865303D01*
X136374290Y-103838034D01*
X136373726Y-103803580D01*
X136373364Y-103760701D01*
X136373157Y-103708157D01*
X136373054Y-103644710D01*
X136373006Y-103569119D01*
X136372994Y-103528597D01*
X136373018Y-103459261D01*
X136373143Y-103401552D01*
X136373407Y-103354308D01*
X136373851Y-103316371D01*
X136374517Y-103286581D01*
X136375444Y-103263776D01*
X136376674Y-103246798D01*
X136378247Y-103234486D01*
X136380202Y-103225681D01*
X136382582Y-103219221D01*
X136385426Y-103213947D01*
X136399535Y-103196400D01*
X136423982Y-103180984D01*
X136457018Y-103173052D01*
X136500250Y-103172018D01*
X136505148Y-103172266D01*
X136541120Y-103176572D01*
X136567325Y-103185794D01*
X136586648Y-103201434D01*
X136601974Y-103224995D01*
X136603985Y-103229350D01*
X136606605Y-103237266D01*
X136608711Y-103247866D01*
X136610358Y-103262485D01*
X136611601Y-103282462D01*
X136612495Y-103309133D01*
X136613095Y-103343837D01*
X136613457Y-103387911D01*
X136613634Y-103442692D01*
X136613683Y-103509518D01*
X136613692Y-103563055D01*
X136613762Y-103619405D01*
X136613966Y-103664841D01*
X136614378Y-103700740D01*
X136615070Y-103728476D01*
X136616116Y-103749424D01*
X136617591Y-103764961D01*
X136619567Y-103776461D01*
X136622118Y-103785300D01*
X136625317Y-103792852D01*
X136629239Y-103800494D01*
X136636256Y-103812290D01*
X136654020Y-103831768D01*
X136680187Y-103848385D01*
X136685172Y-103850950D01*
X136703874Y-103859279D01*
X136721988Y-103864106D01*
X136744163Y-103866338D01*
X136775048Y-103866880D01*
X136834505Y-103866880D01*
X137074615Y-103866880D01*
X137146934Y-103866870D01*
X137167441Y-103866667D01*
X137204976Y-103864432D01*
X137232720Y-103858959D01*
X137253067Y-103849297D01*
X137268411Y-103834495D01*
X137281146Y-103813605D01*
X137285533Y-103804394D01*
X137289736Y-103792968D01*
X137292667Y-103779620D01*
X137294553Y-103762057D01*
X137295620Y-103737988D01*
X137296094Y-103705121D01*
X137296202Y-103661164D01*
X137296184Y-103646593D01*
X137295694Y-103600052D01*
X137294204Y-103564317D01*
X137291276Y-103537361D01*
X137286473Y-103517158D01*
X137279359Y-103501681D01*
X137269498Y-103488905D01*
X137256451Y-103476802D01*
X137247251Y-103469570D01*
X137236383Y-103463669D01*
X137222757Y-103460404D01*
X137202831Y-103459008D01*
X137173066Y-103458714D01*
X137146849Y-103458898D01*
X137126248Y-103459991D01*
X137112915Y-103462718D01*
X137103577Y-103467803D01*
X137094958Y-103475969D01*
X137078736Y-103493225D01*
X137076675Y-103680052D01*
X137074615Y-103866880D01*
X136834505Y-103866880D01*
X136834621Y-103631013D01*
X136834623Y-103628515D01*
X136834813Y-103557325D01*
X136835406Y-103497911D01*
X136836570Y-103448719D01*
X136838473Y-103408194D01*
X136841284Y-103374781D01*
X136845171Y-103346927D01*
X136850303Y-103323076D01*
X136856849Y-103301675D01*
X136864977Y-103281168D01*
X136874855Y-103260001D01*
X136882148Y-103246400D01*
X136911335Y-103206754D01*
X136947288Y-103174960D01*
X136987102Y-103153765D01*
X137002628Y-103149464D01*
X137034371Y-103144362D01*
X137074012Y-103140723D01*
X137118336Y-103138621D01*
X137164127Y-103138129D01*
X137208170Y-103139323D01*
G37*
G36*
X137870078Y-108221741D02*
G01*
X137874001Y-108224616D01*
X137890716Y-108239804D01*
X137902451Y-108257698D01*
X137910152Y-108280955D01*
X137914764Y-108312229D01*
X137917233Y-108354176D01*
X137917997Y-108380732D01*
X137917888Y-108407804D01*
X137916115Y-108427649D01*
X137912306Y-108443793D01*
X137906089Y-108459761D01*
X137898166Y-108475427D01*
X137884238Y-108491886D01*
X137863574Y-108503970D01*
X137862569Y-108504422D01*
X137856976Y-108506698D01*
X137850517Y-108508682D01*
X137842298Y-108510395D01*
X137831424Y-108511857D01*
X137817002Y-108513088D01*
X137798137Y-108514109D01*
X137773935Y-108514939D01*
X137743504Y-108515599D01*
X137705947Y-108516109D01*
X137660373Y-108516490D01*
X137605885Y-108516761D01*
X137541592Y-108516942D01*
X137466597Y-108517055D01*
X137380009Y-108517119D01*
X137280931Y-108517155D01*
X137196779Y-108517171D01*
X137105633Y-108517201D01*
X137026265Y-108517294D01*
X136957794Y-108517505D01*
X136899338Y-108517890D01*
X136850017Y-108518504D01*
X136808948Y-108519402D01*
X136775250Y-108520639D01*
X136748042Y-108522270D01*
X136726443Y-108524350D01*
X136709571Y-108526935D01*
X136696544Y-108530080D01*
X136686482Y-108533840D01*
X136678502Y-108538270D01*
X136671724Y-108543425D01*
X136665266Y-108549360D01*
X136658247Y-108556131D01*
X136656618Y-108557679D01*
X136645150Y-108569010D01*
X136635931Y-108579891D01*
X136628716Y-108591860D01*
X136623258Y-108606455D01*
X136619313Y-108625210D01*
X136616636Y-108649665D01*
X136614981Y-108681354D01*
X136614102Y-108721816D01*
X136613755Y-108772586D01*
X136613694Y-108835202D01*
X136613694Y-108843121D01*
X136613753Y-108903337D01*
X136614075Y-108951913D01*
X136614882Y-108990405D01*
X136616399Y-109020372D01*
X136618849Y-109043373D01*
X136622456Y-109060964D01*
X136627444Y-109074704D01*
X136634037Y-109086152D01*
X136642459Y-109096866D01*
X136652932Y-109108402D01*
X136655280Y-109110973D01*
X136661281Y-109117774D01*
X136666833Y-109123728D01*
X136672802Y-109128897D01*
X136680052Y-109133341D01*
X136689446Y-109137122D01*
X136701850Y-109140301D01*
X136718128Y-109142938D01*
X136739144Y-109145095D01*
X136765762Y-109146833D01*
X136798848Y-109148213D01*
X136839264Y-109149296D01*
X136887876Y-109150143D01*
X136945548Y-109150814D01*
X137013145Y-109151372D01*
X137091530Y-109151876D01*
X137181568Y-109152389D01*
X137284124Y-109152971D01*
X137857531Y-109156316D01*
X137881448Y-109179501D01*
X137881774Y-109179818D01*
X137897706Y-109198538D01*
X137908608Y-109220054D01*
X137915111Y-109246953D01*
X137917845Y-109281822D01*
X137917439Y-109327249D01*
X137917152Y-109334933D01*
X137914567Y-109372216D01*
X137909612Y-109399385D01*
X137901196Y-109419186D01*
X137888226Y-109434369D01*
X137869613Y-109447680D01*
X137866169Y-109449635D01*
X137861521Y-109451649D01*
X137855368Y-109453404D01*
X137846862Y-109454916D01*
X137835155Y-109456205D01*
X137819398Y-109457288D01*
X137798743Y-109458183D01*
X137772342Y-109458908D01*
X137739346Y-109459480D01*
X137698906Y-109459919D01*
X137650174Y-109460242D01*
X137592302Y-109460467D01*
X137524441Y-109460611D01*
X137445743Y-109460694D01*
X137355359Y-109460732D01*
X137252442Y-109460743D01*
X137202439Y-109460748D01*
X137101948Y-109460751D01*
X137013552Y-109460706D01*
X136936367Y-109460559D01*
X136869509Y-109460258D01*
X136812093Y-109459753D01*
X136763234Y-109458990D01*
X136722048Y-109457919D01*
X136687652Y-109456486D01*
X136659160Y-109454640D01*
X136635687Y-109452330D01*
X136616351Y-109449502D01*
X136600265Y-109446107D01*
X136586546Y-109442090D01*
X136574309Y-109437401D01*
X136562670Y-109431988D01*
X136550745Y-109425798D01*
X136537648Y-109418780D01*
X136493711Y-109390281D01*
X136447965Y-109346593D01*
X136411526Y-109294223D01*
X136385592Y-109234620D01*
X136383173Y-109226552D01*
X136380886Y-109216820D01*
X136378995Y-109205176D01*
X136377467Y-109190474D01*
X136376274Y-109171566D01*
X136375384Y-109147306D01*
X136374766Y-109116545D01*
X136374391Y-109078138D01*
X136374228Y-109030937D01*
X136374246Y-108973795D01*
X136374415Y-108905565D01*
X136374705Y-108825099D01*
X136376154Y-108453735D01*
X136400853Y-108402011D01*
X136416586Y-108372637D01*
X136455008Y-108319747D01*
X136501492Y-108275467D01*
X136554333Y-108241279D01*
X136611828Y-108218663D01*
X136614534Y-108217931D01*
X136623119Y-108215851D01*
X136632731Y-108214031D01*
X136644252Y-108212453D01*
X136658566Y-108211101D01*
X136676555Y-108209956D01*
X136699101Y-108209002D01*
X136727087Y-108208221D01*
X136761395Y-108207597D01*
X136802908Y-108207112D01*
X136852508Y-108206749D01*
X136911078Y-108206490D01*
X136979501Y-108206319D01*
X137058658Y-108206218D01*
X137149434Y-108206171D01*
X137252709Y-108206158D01*
X137848230Y-108206158D01*
X137870078Y-108221741D01*
G37*
G36*
X137114443Y-97336265D02*
G01*
X137188183Y-97336428D01*
X137251705Y-97336746D01*
X137305824Y-97337268D01*
X137351351Y-97338043D01*
X137389101Y-97339120D01*
X137419886Y-97340548D01*
X137444519Y-97342377D01*
X137463813Y-97344654D01*
X137478582Y-97347429D01*
X137489638Y-97350751D01*
X137497795Y-97354669D01*
X137503866Y-97359232D01*
X137508663Y-97364488D01*
X137513001Y-97370488D01*
X137517691Y-97377280D01*
X137521842Y-97383412D01*
X137527285Y-97393929D01*
X137530951Y-97406756D01*
X137533300Y-97424659D01*
X137534793Y-97450407D01*
X137535890Y-97486770D01*
X137536549Y-97517229D01*
X137536624Y-97544311D01*
X137535584Y-97563072D01*
X137533088Y-97576288D01*
X137528799Y-97586732D01*
X137522375Y-97597175D01*
X137517164Y-97605093D01*
X137511552Y-97613159D01*
X137505512Y-97620026D01*
X137498047Y-97625792D01*
X137488161Y-97630553D01*
X137474857Y-97634404D01*
X137457140Y-97637442D01*
X137434012Y-97639763D01*
X137404477Y-97641463D01*
X137367538Y-97642638D01*
X137322199Y-97643384D01*
X137267464Y-97643797D01*
X137202336Y-97643974D01*
X137125819Y-97644011D01*
X137036916Y-97644004D01*
X136613694Y-97644014D01*
X136613804Y-97806277D01*
X136613811Y-97815295D01*
X136613917Y-97864256D01*
X136614239Y-97901970D01*
X136614925Y-97930279D01*
X136616123Y-97951023D01*
X136617981Y-97966043D01*
X136620647Y-97977180D01*
X136624269Y-97986275D01*
X136628996Y-97995168D01*
X136631069Y-97998595D01*
X136649132Y-98020133D01*
X136670706Y-98036879D01*
X136697334Y-98051960D01*
X137074951Y-98052070D01*
X137117682Y-98052086D01*
X137192036Y-98052147D01*
X137254678Y-98052278D01*
X137306712Y-98052516D01*
X137349246Y-98052899D01*
X137383385Y-98053462D01*
X137410235Y-98054243D01*
X137430902Y-98055279D01*
X137446493Y-98056606D01*
X137458114Y-98058261D01*
X137466869Y-98060281D01*
X137473867Y-98062703D01*
X137480212Y-98065564D01*
X137496138Y-98074432D01*
X137513094Y-98088958D01*
X137524836Y-98108042D01*
X137532196Y-98133856D01*
X137536003Y-98168573D01*
X137537087Y-98214365D01*
X137537055Y-98230939D01*
X137536594Y-98261715D01*
X137535258Y-98283193D01*
X137532637Y-98298242D01*
X137528320Y-98309727D01*
X137521898Y-98320514D01*
X137520411Y-98322754D01*
X137514387Y-98331779D01*
X137508480Y-98339476D01*
X137501651Y-98345949D01*
X137492861Y-98351303D01*
X137481072Y-98355645D01*
X137465247Y-98359079D01*
X137444345Y-98361711D01*
X137417330Y-98363647D01*
X137383163Y-98364992D01*
X137340805Y-98365852D01*
X137289218Y-98366331D01*
X137227363Y-98366536D01*
X137154203Y-98366571D01*
X137068699Y-98366543D01*
X137015820Y-98366518D01*
X136934690Y-98366395D01*
X136865159Y-98366095D01*
X136806097Y-98365534D01*
X136756375Y-98364626D01*
X136714865Y-98363285D01*
X136680437Y-98361425D01*
X136651963Y-98358962D01*
X136628314Y-98355810D01*
X136608360Y-98351884D01*
X136590974Y-98347097D01*
X136575026Y-98341364D01*
X136559387Y-98334600D01*
X136542929Y-98326720D01*
X136510653Y-98307591D01*
X136466956Y-98269880D01*
X136429493Y-98222813D01*
X136399847Y-98168501D01*
X136379603Y-98109056D01*
X136377879Y-98099168D01*
X136375354Y-98073286D01*
X136373070Y-98035467D01*
X136371067Y-97986590D01*
X136369388Y-97927536D01*
X136368071Y-97859185D01*
X136364734Y-97642769D01*
X136303021Y-97645064D01*
X136284145Y-97646121D01*
X136246696Y-97651673D01*
X136218458Y-97662495D01*
X136196807Y-97679858D01*
X136179119Y-97705031D01*
X136178357Y-97706401D01*
X136174969Y-97713202D01*
X136172228Y-97720953D01*
X136170065Y-97731036D01*
X136168412Y-97744832D01*
X136167201Y-97763723D01*
X136166363Y-97789089D01*
X136165831Y-97822312D01*
X136165535Y-97864774D01*
X136165407Y-97917855D01*
X136165380Y-97982938D01*
X136165361Y-98029218D01*
X136165239Y-98086327D01*
X136164950Y-98132364D01*
X136164433Y-98168699D01*
X136163629Y-98196703D01*
X136162476Y-98217746D01*
X136160915Y-98233198D01*
X136158885Y-98244430D01*
X136156325Y-98252812D01*
X136153175Y-98259714D01*
X136135910Y-98281755D01*
X136108417Y-98299663D01*
X136075152Y-98310336D01*
X136039153Y-98313538D01*
X136003456Y-98309030D01*
X135971099Y-98296577D01*
X135945119Y-98275942D01*
X135924495Y-98252452D01*
X135924495Y-97932210D01*
X135924496Y-97914570D01*
X135924537Y-97843170D01*
X135924672Y-97783591D01*
X135924949Y-97734554D01*
X135925416Y-97694781D01*
X135926118Y-97662995D01*
X135927104Y-97637918D01*
X135928421Y-97618271D01*
X135930115Y-97602778D01*
X135932235Y-97590160D01*
X135934827Y-97579140D01*
X135937939Y-97568439D01*
X135942439Y-97555042D01*
X135969054Y-97499463D01*
X136005875Y-97448981D01*
X136050728Y-97406185D01*
X136101441Y-97373666D01*
X136109136Y-97369797D01*
X136120716Y-97364087D01*
X136131883Y-97359064D01*
X136143499Y-97354684D01*
X136156426Y-97350902D01*
X136171527Y-97347674D01*
X136189663Y-97344958D01*
X136211698Y-97342708D01*
X136238493Y-97340882D01*
X136270910Y-97339434D01*
X136309812Y-97338321D01*
X136356062Y-97337499D01*
X136410520Y-97336924D01*
X136474049Y-97336552D01*
X136547513Y-97336339D01*
X136631772Y-97336242D01*
X136727689Y-97336215D01*
X136836126Y-97336216D01*
X136933059Y-97336208D01*
X137029673Y-97336208D01*
X137114443Y-97336265D01*
G37*
G36*
X138477950Y-102793580D02*
G01*
X138513025Y-102807989D01*
X138514265Y-102808682D01*
X138526812Y-102816625D01*
X138549307Y-102831602D01*
X138580925Y-102853042D01*
X138620845Y-102880376D01*
X138668242Y-102913035D01*
X138722293Y-102950449D01*
X138782177Y-102992049D01*
X138847068Y-103037265D01*
X138916146Y-103085527D01*
X138988585Y-103136267D01*
X139063564Y-103188914D01*
X139579232Y-103551438D01*
X139694000Y-103456289D01*
X139722703Y-103432533D01*
X139770211Y-103393350D01*
X139822024Y-103350758D01*
X139877163Y-103305550D01*
X139934652Y-103258519D01*
X139993514Y-103210458D01*
X140052773Y-103162160D01*
X140111452Y-103114418D01*
X140168574Y-103068025D01*
X140223162Y-103023774D01*
X140274240Y-102982459D01*
X140320831Y-102944871D01*
X140361957Y-102911805D01*
X140396644Y-102884053D01*
X140423912Y-102862408D01*
X140442787Y-102847663D01*
X140452291Y-102840612D01*
X140462171Y-102834571D01*
X140494155Y-102821242D01*
X140522359Y-102819197D01*
X140545504Y-102828344D01*
X140562314Y-102848589D01*
X140564668Y-102857336D01*
X140567346Y-102878797D01*
X140569639Y-102909857D01*
X140571518Y-102948397D01*
X140572954Y-102992299D01*
X140573916Y-103039446D01*
X140574378Y-103087720D01*
X140574308Y-103135004D01*
X140573678Y-103179179D01*
X140572459Y-103218128D01*
X140570622Y-103249733D01*
X140568137Y-103271877D01*
X140553183Y-103327978D01*
X140525221Y-103385650D01*
X140486446Y-103436542D01*
X140484385Y-103438623D01*
X140470781Y-103450977D01*
X140447835Y-103470742D01*
X140416422Y-103497199D01*
X140377416Y-103529629D01*
X140331693Y-103567313D01*
X140280127Y-103609533D01*
X140223592Y-103655568D01*
X140162964Y-103704700D01*
X140099116Y-103756210D01*
X140032925Y-103809379D01*
X139614721Y-104144567D01*
X140390907Y-104147913D01*
X140408399Y-104147988D01*
X140525419Y-104148507D01*
X140629891Y-104149001D01*
X140722544Y-104149484D01*
X140804110Y-104149970D01*
X140875319Y-104150473D01*
X140936903Y-104151005D01*
X140989592Y-104151581D01*
X141034117Y-104152215D01*
X141071208Y-104152919D01*
X141101597Y-104153707D01*
X141126014Y-104154593D01*
X141145190Y-104155590D01*
X141159856Y-104156713D01*
X141170743Y-104157974D01*
X141178582Y-104159388D01*
X141184103Y-104160967D01*
X141188037Y-104162725D01*
X141203462Y-104171929D01*
X141241316Y-104203785D01*
X141269463Y-104244135D01*
X141287535Y-104278392D01*
X141287535Y-104438982D01*
X141287535Y-104599572D01*
X141267802Y-104635194D01*
X141258623Y-104649920D01*
X141240627Y-104673191D01*
X141222982Y-104690685D01*
X141221562Y-104691827D01*
X141216250Y-104696380D01*
X141211557Y-104700559D01*
X141206926Y-104704381D01*
X141201795Y-104707861D01*
X141195604Y-104711013D01*
X141187793Y-104713853D01*
X141177803Y-104716395D01*
X141165072Y-104718656D01*
X141149041Y-104720650D01*
X141129150Y-104722393D01*
X141104838Y-104723899D01*
X141075546Y-104725184D01*
X141040713Y-104726263D01*
X140999779Y-104727152D01*
X140952184Y-104727864D01*
X140897368Y-104728416D01*
X140834771Y-104728823D01*
X140763832Y-104729099D01*
X140683992Y-104729261D01*
X140594690Y-104729322D01*
X140495367Y-104729299D01*
X140385462Y-104729207D01*
X140264415Y-104729060D01*
X140131665Y-104728874D01*
X139986654Y-104728664D01*
X139828820Y-104728446D01*
X139691979Y-104728263D01*
X139547517Y-104728063D01*
X139415382Y-104727867D01*
X139295010Y-104727668D01*
X139185839Y-104727461D01*
X139087305Y-104727238D01*
X138998845Y-104726994D01*
X138919896Y-104726722D01*
X138849894Y-104726417D01*
X138788277Y-104726071D01*
X138734481Y-104725678D01*
X138687943Y-104725233D01*
X138648099Y-104724728D01*
X138614387Y-104724158D01*
X138586243Y-104723516D01*
X138563105Y-104722795D01*
X138544408Y-104721991D01*
X138529589Y-104721095D01*
X138518087Y-104720103D01*
X138509336Y-104719007D01*
X138502774Y-104717801D01*
X138497838Y-104716479D01*
X138493965Y-104715036D01*
X138490591Y-104713463D01*
X138467533Y-104699369D01*
X138438138Y-104673972D01*
X138413812Y-104644745D01*
X138398366Y-104615728D01*
X138394519Y-104598516D01*
X138391174Y-104569387D01*
X138388723Y-104532058D01*
X138387173Y-104489218D01*
X138386533Y-104443555D01*
X138386811Y-104397757D01*
X138388016Y-104354513D01*
X138390156Y-104316510D01*
X138393240Y-104286437D01*
X138397276Y-104266982D01*
X138398923Y-104262415D01*
X138419671Y-104224390D01*
X138449764Y-104191187D01*
X138485590Y-104166902D01*
X138517356Y-104151258D01*
X139009163Y-104147913D01*
X139500970Y-104144567D01*
X139142988Y-103907150D01*
X139086508Y-103869684D01*
X139017364Y-103823798D01*
X138948311Y-103777952D01*
X138880930Y-103733197D01*
X138816801Y-103690584D01*
X138757505Y-103651162D01*
X138704622Y-103615983D01*
X138659734Y-103586095D01*
X138624420Y-103562551D01*
X138606870Y-103550850D01*
X138555859Y-103516715D01*
X138513584Y-103487370D01*
X138479214Y-103461163D01*
X138451915Y-103436443D01*
X138430855Y-103411559D01*
X138415201Y-103384858D01*
X138404120Y-103354690D01*
X138396779Y-103319403D01*
X138392346Y-103277346D01*
X138389988Y-103226868D01*
X138388871Y-103166316D01*
X138388165Y-103094040D01*
X138387608Y-103028018D01*
X138387460Y-102972795D01*
X138387871Y-102928279D01*
X138388981Y-102893125D01*
X138390927Y-102865984D01*
X138393847Y-102845510D01*
X138397882Y-102830354D01*
X138403168Y-102819171D01*
X138409844Y-102810612D01*
X138418050Y-102803330D01*
X138423781Y-102799286D01*
X138448549Y-102790696D01*
X138477950Y-102793580D01*
G37*
G36*
X151774171Y-100158253D02*
G01*
X151772969Y-100166363D01*
X151769511Y-100189266D01*
X151765020Y-100218684D01*
X151760159Y-100250257D01*
X151747709Y-100338863D01*
X151734976Y-100448490D01*
X151723430Y-100568874D01*
X151713151Y-100698654D01*
X151704217Y-100836471D01*
X151696705Y-100980966D01*
X151690695Y-101130781D01*
X151686264Y-101284555D01*
X151683491Y-101440929D01*
X151682454Y-101598545D01*
X151682017Y-101679002D01*
X151678397Y-101848593D01*
X151670989Y-102006526D01*
X151659628Y-102153661D01*
X151644153Y-102290855D01*
X151624398Y-102418968D01*
X151600201Y-102538859D01*
X151571397Y-102651385D01*
X151537824Y-102757406D01*
X151499317Y-102857780D01*
X151455713Y-102953365D01*
X151406849Y-103045021D01*
X151394806Y-103065929D01*
X151372133Y-103104387D01*
X151350885Y-103138776D01*
X151329124Y-103172014D01*
X151304911Y-103207018D01*
X151276305Y-103246707D01*
X151241367Y-103293998D01*
X151227002Y-103313339D01*
X151207227Y-103340111D01*
X151191443Y-103361661D01*
X151180990Y-103376156D01*
X151177208Y-103381764D01*
X151179003Y-103384527D01*
X151187510Y-103396375D01*
X151201808Y-103415868D01*
X151220562Y-103441191D01*
X151242437Y-103470526D01*
X151295790Y-103544033D01*
X151365387Y-103648658D01*
X151425281Y-103751060D01*
X151476687Y-103853735D01*
X151520822Y-103959181D01*
X151558903Y-104069894D01*
X151592146Y-104188371D01*
X151592298Y-104188974D01*
X151605060Y-104244608D01*
X151617889Y-104309953D01*
X151630200Y-104381398D01*
X151641408Y-104455333D01*
X151650929Y-104528146D01*
X151658178Y-104596227D01*
X151660219Y-104618431D01*
X151663890Y-104658193D01*
X151667258Y-104694467D01*
X151670020Y-104723975D01*
X151671870Y-104743434D01*
X151671942Y-104744251D01*
X151672697Y-104758793D01*
X151673609Y-104785310D01*
X151674652Y-104822534D01*
X151675796Y-104869197D01*
X151677014Y-104924032D01*
X151678277Y-104985772D01*
X151679557Y-105053150D01*
X151680825Y-105124897D01*
X151682053Y-105199748D01*
X151682428Y-105223035D01*
X151685508Y-105387346D01*
X151689198Y-105539387D01*
X151693560Y-105680131D01*
X151698658Y-105810547D01*
X151704555Y-105931607D01*
X151711316Y-106044282D01*
X151719003Y-106149542D01*
X151727680Y-106248359D01*
X151737411Y-106341703D01*
X151748259Y-106430545D01*
X151760288Y-106515857D01*
X151773561Y-106598608D01*
X151777834Y-106623724D01*
X150851889Y-106622028D01*
X149925944Y-106620331D01*
X149911208Y-106534646D01*
X149909679Y-106525611D01*
X149903059Y-106484064D01*
X149895873Y-106435864D01*
X149888890Y-106386285D01*
X149882881Y-106340600D01*
X149881389Y-106328656D01*
X149875758Y-106282468D01*
X149870777Y-106239106D01*
X149866395Y-106197414D01*
X149862563Y-106156233D01*
X149859229Y-106114406D01*
X149856344Y-106070775D01*
X149853857Y-106024182D01*
X149851718Y-105973469D01*
X149849877Y-105917479D01*
X149848283Y-105855053D01*
X149846886Y-105785034D01*
X149845635Y-105706264D01*
X149844481Y-105617585D01*
X149843373Y-105517839D01*
X149842261Y-105405869D01*
X149841466Y-105325241D01*
X149840390Y-105225225D01*
X149839315Y-105137110D01*
X149838221Y-105060040D01*
X149837088Y-104993157D01*
X149835894Y-104935604D01*
X149834621Y-104886522D01*
X149833247Y-104845055D01*
X149831751Y-104810345D01*
X149830114Y-104781534D01*
X149828315Y-104757766D01*
X149826333Y-104738182D01*
X149818965Y-104679215D01*
X149795460Y-104529389D01*
X149766077Y-104390189D01*
X149730356Y-104260388D01*
X149687836Y-104138757D01*
X149638059Y-104024071D01*
X149580562Y-103915100D01*
X149514887Y-103810619D01*
X149440572Y-103709400D01*
X149434835Y-103702215D01*
X149400056Y-103661396D01*
X149358116Y-103615692D01*
X149311821Y-103567938D01*
X149263975Y-103520972D01*
X149217383Y-103477628D01*
X149174850Y-103440743D01*
X149168757Y-103435697D01*
X149144271Y-103415243D01*
X149124425Y-103398383D01*
X149111122Y-103386748D01*
X149106265Y-103381967D01*
X149106858Y-103381204D01*
X149114805Y-103373844D01*
X149130574Y-103360080D01*
X149152319Y-103341507D01*
X149178196Y-103319721D01*
X149258764Y-103248667D01*
X149364436Y-103142110D01*
X149458732Y-103029606D01*
X149541938Y-102910636D01*
X149614344Y-102784686D01*
X149676235Y-102651240D01*
X149727901Y-102509780D01*
X149769627Y-102359792D01*
X149801703Y-102200758D01*
X149807519Y-102165497D01*
X149812663Y-102132877D01*
X149817179Y-102101863D01*
X149821120Y-102071383D01*
X149824536Y-102040367D01*
X149827480Y-102007746D01*
X149830003Y-101972447D01*
X149832157Y-101933400D01*
X149833992Y-101889536D01*
X149835561Y-101839784D01*
X149836915Y-101783072D01*
X149838105Y-101718331D01*
X149839184Y-101644489D01*
X149840201Y-101560478D01*
X149841210Y-101465225D01*
X149842261Y-101357660D01*
X149843229Y-101259827D01*
X149844339Y-101158599D01*
X149845488Y-101068611D01*
X149846723Y-100988714D01*
X149848090Y-100917760D01*
X149849637Y-100854603D01*
X149851409Y-100798094D01*
X149853455Y-100747086D01*
X149855819Y-100700431D01*
X149858550Y-100656981D01*
X149861694Y-100615590D01*
X149865297Y-100575108D01*
X149869407Y-100534390D01*
X149874071Y-100492286D01*
X149879334Y-100447649D01*
X149883094Y-100418121D01*
X149888377Y-100379646D01*
X149894452Y-100337596D01*
X149900946Y-100294375D01*
X149907482Y-100252388D01*
X149913686Y-100214040D01*
X149919184Y-100181734D01*
X149923598Y-100157876D01*
X149926556Y-100144870D01*
X149926694Y-100144494D01*
X149927973Y-100142884D01*
X149930811Y-100141434D01*
X149935864Y-100140136D01*
X149943790Y-100138980D01*
X149955244Y-100137959D01*
X149970884Y-100137064D01*
X149991367Y-100136288D01*
X150017350Y-100135621D01*
X150049489Y-100135056D01*
X150088442Y-100134584D01*
X150134865Y-100134197D01*
X150189416Y-100133886D01*
X150252750Y-100133644D01*
X150325526Y-100133462D01*
X150408400Y-100133331D01*
X150502029Y-100133244D01*
X150607070Y-100133192D01*
X150724179Y-100133167D01*
X150854014Y-100133160D01*
X151777837Y-100133160D01*
X151774171Y-100158253D01*
G37*
G36*
X139609527Y-97337171D02*
G01*
X139706878Y-97337413D01*
X139791353Y-97337834D01*
X139862867Y-97338432D01*
X139921337Y-97339209D01*
X139966677Y-97340162D01*
X139998805Y-97341292D01*
X140017635Y-97342598D01*
X140069235Y-97350507D01*
X140155512Y-97373698D01*
X140236234Y-97408909D01*
X140311947Y-97456397D01*
X140383193Y-97516421D01*
X140439151Y-97578553D01*
X140488376Y-97652257D01*
X140527724Y-97734043D01*
X140556590Y-97822842D01*
X140559529Y-97834702D01*
X140563226Y-97851609D01*
X140566077Y-97868780D01*
X140568188Y-97888089D01*
X140569667Y-97911409D01*
X140570621Y-97940616D01*
X140571157Y-97977582D01*
X140571381Y-98024183D01*
X140571401Y-98082291D01*
X140571384Y-98099155D01*
X140571206Y-98155048D01*
X140570766Y-98200123D01*
X140569952Y-98236409D01*
X140568654Y-98265934D01*
X140566762Y-98290726D01*
X140564164Y-98312813D01*
X140560750Y-98334223D01*
X140556409Y-98356985D01*
X140552731Y-98374619D01*
X140527301Y-98470165D01*
X140494460Y-98555605D01*
X140453778Y-98632099D01*
X140440677Y-98653297D01*
X140476764Y-98709048D01*
X140499721Y-98747087D01*
X140534427Y-98820372D01*
X140559509Y-98899605D01*
X140561884Y-98909948D01*
X140565108Y-98928688D01*
X140567527Y-98951080D01*
X140569248Y-98979071D01*
X140570376Y-99014607D01*
X140571016Y-99059631D01*
X140571275Y-99116090D01*
X140571289Y-99165262D01*
X140571045Y-99208292D01*
X140570390Y-99242050D01*
X140569183Y-99268683D01*
X140567280Y-99290340D01*
X140564541Y-99309169D01*
X140560821Y-99327319D01*
X140555980Y-99346938D01*
X140552735Y-99358627D01*
X140540627Y-99395516D01*
X140525600Y-99434922D01*
X140510166Y-99470094D01*
X140506650Y-99477425D01*
X140494541Y-99503296D01*
X140487659Y-99520101D01*
X140485396Y-99530216D01*
X140487144Y-99536017D01*
X140492293Y-99539877D01*
X140498364Y-99543700D01*
X140519955Y-99563071D01*
X140540929Y-99589307D01*
X140557548Y-99617934D01*
X140560743Y-99625158D01*
X140564480Y-99635789D01*
X140567248Y-99648243D01*
X140569188Y-99664447D01*
X140570447Y-99686327D01*
X140571167Y-99715810D01*
X140571494Y-99754822D01*
X140571571Y-99805289D01*
X140571571Y-99962534D01*
X140550812Y-99999335D01*
X140543094Y-100011858D01*
X140515290Y-100045161D01*
X140482541Y-100070893D01*
X140448208Y-100086207D01*
X140447765Y-100086312D01*
X140436078Y-100087401D01*
X140411854Y-100088368D01*
X140375017Y-100089213D01*
X140325490Y-100089937D01*
X140263196Y-100090540D01*
X140188058Y-100091022D01*
X140099999Y-100091384D01*
X139998942Y-100091627D01*
X139884811Y-100091750D01*
X139757529Y-100091754D01*
X139617018Y-100091640D01*
X139463202Y-100091408D01*
X139440374Y-100091366D01*
X139310238Y-100091124D01*
X139192712Y-100090890D01*
X139087133Y-100090654D01*
X138992838Y-100090405D01*
X138909165Y-100090135D01*
X138835449Y-100089832D01*
X138771029Y-100089488D01*
X138715242Y-100089092D01*
X138667424Y-100088634D01*
X138626913Y-100088105D01*
X138593047Y-100087495D01*
X138565161Y-100086793D01*
X138542594Y-100085990D01*
X138524682Y-100085076D01*
X138510763Y-100084042D01*
X138500173Y-100082876D01*
X138492250Y-100081570D01*
X138486331Y-100080113D01*
X138481754Y-100078496D01*
X138477854Y-100076708D01*
X138460493Y-100066882D01*
X138423648Y-100035716D01*
X138396353Y-99996194D01*
X138380152Y-99950313D01*
X138379891Y-99948918D01*
X138378219Y-99932009D01*
X138376917Y-99904633D01*
X138376053Y-99869341D01*
X138375690Y-99828685D01*
X138375896Y-99785215D01*
X138376650Y-99735759D01*
X138377980Y-99695125D01*
X138380336Y-99663734D01*
X138384196Y-99639469D01*
X138390038Y-99620214D01*
X138398341Y-99603853D01*
X138409584Y-99588270D01*
X138424244Y-99571350D01*
X138433850Y-99561550D01*
X138455941Y-99542697D01*
X138476752Y-99528790D01*
X138503973Y-99514219D01*
X139276813Y-99510874D01*
X140049653Y-99507528D01*
X140073935Y-99458523D01*
X140091500Y-99417955D01*
X140109481Y-99353971D01*
X140115994Y-99290600D01*
X140111072Y-99229468D01*
X140094749Y-99172198D01*
X140067056Y-99120417D01*
X140049494Y-99097719D01*
X140015454Y-99063348D01*
X139977747Y-99034398D01*
X139940596Y-99014408D01*
X139902445Y-98998993D01*
X139206555Y-98995647D01*
X139114786Y-98995185D01*
X139006214Y-98994567D01*
X138909960Y-98993926D01*
X138825419Y-98993250D01*
X138751988Y-98992531D01*
X138689064Y-98991759D01*
X138636043Y-98990923D01*
X138592321Y-98990015D01*
X138557295Y-98989023D01*
X138530361Y-98987939D01*
X138510916Y-98986753D01*
X138498357Y-98985454D01*
X138492079Y-98984033D01*
X138482839Y-98979178D01*
X138457408Y-98960321D01*
X138431414Y-98934894D01*
X138408593Y-98906810D01*
X138392682Y-98879981D01*
X138389609Y-98872987D01*
X138385147Y-98861245D01*
X138381876Y-98848745D01*
X138379613Y-98833382D01*
X138378169Y-98813054D01*
X138377361Y-98785656D01*
X138377002Y-98749083D01*
X138376907Y-98701232D01*
X138376912Y-98689679D01*
X138377291Y-98637615D01*
X138378320Y-98597186D01*
X138380076Y-98566938D01*
X138382640Y-98545417D01*
X138386088Y-98531168D01*
X138400017Y-98504630D01*
X138422367Y-98476246D01*
X138449262Y-98450428D01*
X138476907Y-98431345D01*
X138503973Y-98416854D01*
X139281748Y-98415072D01*
X140059524Y-98413290D01*
X140069846Y-98397537D01*
X140070138Y-98397088D01*
X140082970Y-98371637D01*
X140095416Y-98337021D01*
X140106192Y-98297331D01*
X140114015Y-98256656D01*
X140117232Y-98217037D01*
X140112248Y-98158183D01*
X140096295Y-98102436D01*
X140070444Y-98051378D01*
X140035768Y-98006587D01*
X139993339Y-97969645D01*
X139944228Y-97942132D01*
X139889507Y-97925629D01*
X139875460Y-97924234D01*
X139849155Y-97922986D01*
X139810498Y-97921890D01*
X139759360Y-97920944D01*
X139695611Y-97920148D01*
X139619125Y-97919499D01*
X139529771Y-97918997D01*
X139427421Y-97918640D01*
X139311947Y-97918426D01*
X139183220Y-97918355D01*
X138516637Y-97918355D01*
X138482024Y-97901107D01*
X138470018Y-97894669D01*
X138440224Y-97872796D01*
X138415894Y-97843821D01*
X138394171Y-97804604D01*
X138389270Y-97793929D01*
X138384758Y-97782379D01*
X138381496Y-97770099D01*
X138379280Y-97754980D01*
X138377909Y-97734913D01*
X138377180Y-97707790D01*
X138376891Y-97671502D01*
X138376839Y-97623940D01*
X138376859Y-97594240D01*
X138377064Y-97553337D01*
X138377643Y-97522468D01*
X138378784Y-97499532D01*
X138380673Y-97482421D01*
X138383497Y-97469033D01*
X138387442Y-97457263D01*
X138392694Y-97445005D01*
X138399223Y-97432430D01*
X138416545Y-97406684D01*
X138435254Y-97385806D01*
X138440686Y-97380743D01*
X138447505Y-97374122D01*
X138453834Y-97368249D01*
X138460444Y-97363077D01*
X138468107Y-97358558D01*
X138477592Y-97354646D01*
X138489670Y-97351295D01*
X138505113Y-97348458D01*
X138524690Y-97346089D01*
X138549172Y-97344140D01*
X138579330Y-97342565D01*
X138615934Y-97341318D01*
X138659756Y-97340353D01*
X138711565Y-97339621D01*
X138772133Y-97339077D01*
X138842230Y-97338675D01*
X138922626Y-97338367D01*
X139014093Y-97338107D01*
X139117401Y-97337848D01*
X139233320Y-97337545D01*
X139241058Y-97337523D01*
X139376533Y-97337226D01*
X139499384Y-97337109D01*
X139609527Y-97337171D01*
G37*
G36*
X138648460Y-106285813D02*
G01*
X138682507Y-106286164D01*
X138707355Y-106287105D01*
X138725459Y-106288912D01*
X138739277Y-106291865D01*
X138751264Y-106296241D01*
X138763879Y-106302320D01*
X138774488Y-106308323D01*
X138798034Y-106324909D01*
X138816574Y-106341980D01*
X138821526Y-106347523D01*
X138828374Y-106355161D01*
X138834325Y-106362503D01*
X138839449Y-106370461D01*
X138843813Y-106379947D01*
X138847487Y-106391872D01*
X138850539Y-106407149D01*
X138853037Y-106426689D01*
X138855051Y-106451405D01*
X138856650Y-106482207D01*
X138857900Y-106520008D01*
X138858872Y-106565721D01*
X138859635Y-106620255D01*
X138860255Y-106684524D01*
X138860803Y-106759440D01*
X138861347Y-106845913D01*
X138861955Y-106944857D01*
X138862088Y-106965884D01*
X138862690Y-107060093D01*
X138863249Y-107142025D01*
X138863792Y-107212597D01*
X138864347Y-107272724D01*
X138864943Y-107323324D01*
X138865610Y-107365312D01*
X138866374Y-107399606D01*
X138867265Y-107427122D01*
X138868312Y-107448776D01*
X138869542Y-107465484D01*
X138870985Y-107478164D01*
X138872668Y-107487731D01*
X138874621Y-107495102D01*
X138876872Y-107501194D01*
X138879449Y-107506922D01*
X138905014Y-107546513D01*
X138942171Y-107581515D01*
X138989089Y-107609880D01*
X138990055Y-107610342D01*
X139008044Y-107618570D01*
X139023737Y-107624312D01*
X139040269Y-107628095D01*
X139060777Y-107630447D01*
X139088395Y-107631896D01*
X139126260Y-107632970D01*
X139219937Y-107635230D01*
X139219942Y-107634056D01*
X139704362Y-107634056D01*
X139833973Y-107634056D01*
X139873827Y-107633879D01*
X139921726Y-107632777D01*
X139959575Y-107630277D01*
X139989338Y-107625931D01*
X140012980Y-107619294D01*
X140032465Y-107609920D01*
X140049756Y-107597362D01*
X140066819Y-107581175D01*
X140072936Y-107574785D01*
X140084328Y-107561859D01*
X140093546Y-107548793D01*
X140100818Y-107534117D01*
X140106375Y-107516359D01*
X140110446Y-107494048D01*
X140113262Y-107465712D01*
X140115052Y-107429880D01*
X140116046Y-107385080D01*
X140116474Y-107329841D01*
X140116565Y-107262692D01*
X140116540Y-107223155D01*
X140116261Y-107162712D01*
X140115449Y-107113300D01*
X140113831Y-107073417D01*
X140111133Y-107041560D01*
X140107083Y-107016226D01*
X140101408Y-106995913D01*
X140093835Y-106979117D01*
X140084090Y-106964336D01*
X140071901Y-106950067D01*
X140056995Y-106934808D01*
X140047770Y-106925919D01*
X140028952Y-106910372D01*
X140009539Y-106899231D01*
X139986979Y-106891792D01*
X139958721Y-106887352D01*
X139922213Y-106885209D01*
X139874904Y-106884661D01*
X139857388Y-106884734D01*
X139817175Y-106885906D01*
X139787190Y-106889155D01*
X139765144Y-106895315D01*
X139748745Y-106905217D01*
X139735702Y-106919693D01*
X139723724Y-106939576D01*
X139723006Y-106940922D01*
X139719654Y-106947523D01*
X139716849Y-106954414D01*
X139714536Y-106962787D01*
X139712656Y-106973832D01*
X139711153Y-106988737D01*
X139709969Y-107008695D01*
X139709048Y-107034893D01*
X139708332Y-107068524D01*
X139707764Y-107110777D01*
X139707288Y-107162841D01*
X139706846Y-107225908D01*
X139706380Y-107301166D01*
X139704362Y-107634056D01*
X139219942Y-107634056D01*
X139221771Y-107218113D01*
X139222113Y-107155595D01*
X139222723Y-107078958D01*
X139223505Y-107007216D01*
X139224437Y-106941582D01*
X139225497Y-106883269D01*
X139226661Y-106833488D01*
X139227907Y-106793452D01*
X139229212Y-106764373D01*
X139230554Y-106747465D01*
X139236858Y-106706109D01*
X139257299Y-106618572D01*
X139286025Y-106540703D01*
X139322859Y-106472800D01*
X139367621Y-106415161D01*
X139420132Y-106368082D01*
X139480216Y-106331862D01*
X139502412Y-106321560D01*
X139525091Y-106312296D01*
X139547748Y-106304932D01*
X139572057Y-106299283D01*
X139599694Y-106295160D01*
X139632333Y-106292375D01*
X139671649Y-106290742D01*
X139719317Y-106290072D01*
X139777012Y-106290179D01*
X139846408Y-106290875D01*
X139891004Y-106291438D01*
X139948858Y-106292368D01*
X139996364Y-106293654D01*
X140035355Y-106295595D01*
X140067661Y-106298492D01*
X140095113Y-106302645D01*
X140119540Y-106308355D01*
X140142775Y-106315922D01*
X140166646Y-106325647D01*
X140192986Y-106337829D01*
X140223625Y-106352770D01*
X140275989Y-106381212D01*
X140346525Y-106430525D01*
X140407417Y-106488305D01*
X140459778Y-106555663D01*
X140504720Y-106633714D01*
X140506331Y-106636956D01*
X140518723Y-106661979D01*
X140529437Y-106684411D01*
X140538596Y-106705392D01*
X140546321Y-106726063D01*
X140552735Y-106747566D01*
X140557960Y-106771042D01*
X140562117Y-106797631D01*
X140565328Y-106828474D01*
X140567716Y-106864713D01*
X140569402Y-106907488D01*
X140570508Y-106957941D01*
X140571155Y-107017212D01*
X140571467Y-107086442D01*
X140571565Y-107166773D01*
X140571571Y-107259346D01*
X140571571Y-107271519D01*
X140571560Y-107362528D01*
X140571443Y-107441436D01*
X140571096Y-107509384D01*
X140570398Y-107567513D01*
X140569226Y-107616961D01*
X140567459Y-107658871D01*
X140564975Y-107694382D01*
X140561651Y-107724636D01*
X140557365Y-107750771D01*
X140551996Y-107773929D01*
X140545422Y-107795251D01*
X140537520Y-107815876D01*
X140528168Y-107836945D01*
X140517245Y-107859599D01*
X140504628Y-107884978D01*
X140498588Y-107896828D01*
X140450034Y-107976168D01*
X140392384Y-108045789D01*
X140326083Y-108105338D01*
X140251582Y-108154463D01*
X140169326Y-108192810D01*
X140079763Y-108220026D01*
X140069273Y-108222210D01*
X140056997Y-108224166D01*
X140042187Y-108225864D01*
X140023858Y-108227331D01*
X140001022Y-108228593D01*
X139972695Y-108229676D01*
X139937889Y-108230608D01*
X139895618Y-108231413D01*
X139844896Y-108232118D01*
X139833973Y-108232233D01*
X139784737Y-108232751D01*
X139714154Y-108233335D01*
X139632161Y-108233899D01*
X139537772Y-108234469D01*
X139490552Y-108234733D01*
X139385805Y-108235229D01*
X139293088Y-108235461D01*
X139211445Y-108235348D01*
X139139921Y-108234809D01*
X139077562Y-108233765D01*
X139023411Y-108232135D01*
X138976513Y-108229838D01*
X138935913Y-108226795D01*
X138900656Y-108222924D01*
X138869786Y-108218146D01*
X138842349Y-108212379D01*
X138817387Y-108205544D01*
X138793948Y-108197561D01*
X138771074Y-108188348D01*
X138747811Y-108177825D01*
X138723203Y-108165912D01*
X138710936Y-108159680D01*
X138635926Y-108113126D01*
X138568787Y-108056522D01*
X138510358Y-107991093D01*
X138461479Y-107918066D01*
X138422989Y-107838667D01*
X138395729Y-107754121D01*
X138380537Y-107665654D01*
X138379855Y-107653851D01*
X138379101Y-107628457D01*
X138378409Y-107591659D01*
X138377785Y-107544526D01*
X138377237Y-107488129D01*
X138376774Y-107423537D01*
X138376401Y-107351821D01*
X138376128Y-107274051D01*
X138375961Y-107191296D01*
X138375908Y-107104628D01*
X138375976Y-107015115D01*
X138376092Y-106923267D01*
X138376200Y-106829243D01*
X138376341Y-106746997D01*
X138376575Y-106675671D01*
X138376966Y-106614406D01*
X138377573Y-106562344D01*
X138378459Y-106518626D01*
X138379686Y-106482393D01*
X138381315Y-106452788D01*
X138383408Y-106428951D01*
X138386026Y-106410024D01*
X138389231Y-106395149D01*
X138393085Y-106383467D01*
X138397650Y-106374118D01*
X138402986Y-106366246D01*
X138409156Y-106358991D01*
X138416222Y-106351495D01*
X138424244Y-106342899D01*
X138426784Y-106340101D01*
X138444940Y-106321463D01*
X138462164Y-106307624D01*
X138480839Y-106297879D01*
X138503348Y-106291525D01*
X138532076Y-106287858D01*
X138569407Y-106286173D01*
X138617724Y-106285768D01*
X138648460Y-106285813D01*
G37*
G36*
X148095886Y-100896244D02*
G01*
X148095880Y-101010382D01*
X148095856Y-101115621D01*
X148095798Y-101209032D01*
X148095695Y-101291403D01*
X148095534Y-101363522D01*
X148095301Y-101426180D01*
X148094984Y-101480164D01*
X148094570Y-101526264D01*
X148094045Y-101565267D01*
X148093396Y-101597964D01*
X148092611Y-101625142D01*
X148091677Y-101647590D01*
X148090580Y-101666098D01*
X148089308Y-101681454D01*
X148087848Y-101694446D01*
X148086186Y-101705864D01*
X148084310Y-101716496D01*
X148082207Y-101727132D01*
X148063324Y-101800292D01*
X148029804Y-101885449D01*
X147985697Y-101962609D01*
X147931310Y-102031446D01*
X147866948Y-102091639D01*
X147792919Y-102142863D01*
X147709530Y-102184796D01*
X147617087Y-102217115D01*
X147600359Y-102221905D01*
X147583882Y-102226656D01*
X147568525Y-102230954D01*
X147553598Y-102234823D01*
X147538410Y-102238289D01*
X147522270Y-102241378D01*
X147504488Y-102244115D01*
X147484373Y-102246526D01*
X147461234Y-102248637D01*
X147434382Y-102250472D01*
X147403125Y-102252059D01*
X147366773Y-102253421D01*
X147324635Y-102254585D01*
X147276021Y-102255577D01*
X147220239Y-102256421D01*
X147156601Y-102257144D01*
X147084414Y-102257770D01*
X147002988Y-102258326D01*
X146911633Y-102258838D01*
X146809659Y-102259330D01*
X146696373Y-102259828D01*
X146571087Y-102260358D01*
X146433109Y-102260946D01*
X146308507Y-102261477D01*
X146181983Y-102262012D01*
X146067530Y-102262513D01*
X145964459Y-102263006D01*
X145872080Y-102263514D01*
X145789703Y-102264064D01*
X145716637Y-102264681D01*
X145652192Y-102265391D01*
X145595679Y-102266219D01*
X145546407Y-102267189D01*
X145503686Y-102268328D01*
X145466826Y-102269661D01*
X145435137Y-102271213D01*
X145407929Y-102273009D01*
X145384512Y-102275075D01*
X145364195Y-102277436D01*
X145346289Y-102280118D01*
X145330104Y-102283145D01*
X145314948Y-102286544D01*
X145300134Y-102290339D01*
X145284969Y-102294556D01*
X145268765Y-102299220D01*
X145250831Y-102304356D01*
X145195069Y-102321765D01*
X145084735Y-102366357D01*
X144980296Y-102422281D01*
X144882576Y-102488724D01*
X144792394Y-102564877D01*
X144710572Y-102649926D01*
X144637932Y-102743060D01*
X144575294Y-102843468D01*
X144523480Y-102950338D01*
X144483312Y-103062859D01*
X144473539Y-103097490D01*
X144457759Y-103165242D01*
X144447266Y-103232138D01*
X144441432Y-103302779D01*
X144439626Y-103381764D01*
X144439791Y-103412734D01*
X144441301Y-103466063D01*
X144444839Y-103512931D01*
X144450951Y-103557895D01*
X144460185Y-103605509D01*
X144473090Y-103660332D01*
X144481009Y-103690226D01*
X144518656Y-103800337D01*
X144567923Y-103905572D01*
X144627926Y-104005041D01*
X144697780Y-104097856D01*
X144776602Y-104183130D01*
X144863506Y-104259974D01*
X144957610Y-104327499D01*
X145058029Y-104384817D01*
X145163878Y-104431041D01*
X145274274Y-104465281D01*
X145285763Y-104468166D01*
X145301875Y-104472249D01*
X145316791Y-104475942D01*
X145331206Y-104479269D01*
X145345814Y-104482252D01*
X145361309Y-104484911D01*
X145378386Y-104487271D01*
X145397737Y-104489352D01*
X145420059Y-104491177D01*
X145446044Y-104492769D01*
X145476387Y-104494148D01*
X145511783Y-104495338D01*
X145552924Y-104496360D01*
X145600507Y-104497237D01*
X145655223Y-104497990D01*
X145717769Y-104498643D01*
X145788838Y-104499216D01*
X145869124Y-104499733D01*
X145959322Y-104500215D01*
X146060125Y-104500684D01*
X146172227Y-104501163D01*
X146296324Y-104501674D01*
X146433109Y-104502238D01*
X146476770Y-104502422D01*
X146609674Y-104502992D01*
X146730060Y-104503535D01*
X146838590Y-104504061D01*
X146935926Y-104504580D01*
X147022727Y-104505100D01*
X147099656Y-104505633D01*
X147167373Y-104506187D01*
X147226540Y-104506774D01*
X147277817Y-104507402D01*
X147321866Y-104508081D01*
X147359347Y-104508821D01*
X147390923Y-104509632D01*
X147417253Y-104510525D01*
X147439000Y-104511508D01*
X147456824Y-104512591D01*
X147471387Y-104513785D01*
X147483349Y-104515099D01*
X147493371Y-104516543D01*
X147502115Y-104518126D01*
X147568975Y-104533206D01*
X147667944Y-104563357D01*
X147756022Y-104600907D01*
X147833550Y-104646144D01*
X147900871Y-104699352D01*
X147958326Y-104760818D01*
X148006256Y-104830828D01*
X148045005Y-104909669D01*
X148074913Y-104997625D01*
X148092506Y-105061269D01*
X148094357Y-105842473D01*
X148096207Y-106623677D01*
X146752076Y-106623677D01*
X146676189Y-106623670D01*
X146507400Y-106623604D01*
X146348672Y-106623468D01*
X146200259Y-106623263D01*
X146062418Y-106622991D01*
X145935404Y-106622653D01*
X145819473Y-106622249D01*
X145714880Y-106621782D01*
X145621880Y-106621252D01*
X145540730Y-106620661D01*
X145471684Y-106620010D01*
X145414999Y-106619300D01*
X145370929Y-106618532D01*
X145339731Y-106617708D01*
X145321660Y-106616828D01*
X145265926Y-106611938D01*
X145058414Y-106585397D01*
X144854517Y-106546141D01*
X144654691Y-106494383D01*
X144459395Y-106430336D01*
X144269086Y-106354213D01*
X144084219Y-106266225D01*
X143905254Y-106166588D01*
X143732646Y-106055512D01*
X143566853Y-105933211D01*
X143408333Y-105799898D01*
X143257542Y-105655786D01*
X143121016Y-105508559D01*
X142990831Y-105349934D01*
X142872144Y-105184983D01*
X142764511Y-105013089D01*
X142667490Y-104833634D01*
X142656202Y-104810765D01*
X142634593Y-104765637D01*
X142611076Y-104715154D01*
X142586759Y-104661802D01*
X142562745Y-104608065D01*
X142540143Y-104556428D01*
X142520058Y-104509379D01*
X142503596Y-104469402D01*
X142491863Y-104438982D01*
X142467815Y-104368472D01*
X142436576Y-104263899D01*
X142407537Y-104151967D01*
X142381460Y-104036124D01*
X142359106Y-103919816D01*
X142341236Y-103806492D01*
X142328611Y-103699599D01*
X142326009Y-103672481D01*
X142322939Y-103641077D01*
X142320365Y-103615393D01*
X142318666Y-103599230D01*
X142317731Y-103587560D01*
X142316648Y-103558718D01*
X142316109Y-103519811D01*
X142316069Y-103472900D01*
X142316485Y-103420046D01*
X142317312Y-103363308D01*
X142318505Y-103304746D01*
X142320020Y-103246422D01*
X142321814Y-103190396D01*
X142323841Y-103138727D01*
X142326058Y-103093477D01*
X142328421Y-103056706D01*
X142330884Y-103030473D01*
X142347853Y-102907755D01*
X142374043Y-102759232D01*
X142406198Y-102615389D01*
X142445232Y-102471754D01*
X142459103Y-102425140D01*
X142472287Y-102382297D01*
X142484468Y-102345085D01*
X142496751Y-102310541D01*
X142510239Y-102275701D01*
X142526038Y-102237605D01*
X142545250Y-102193290D01*
X142568981Y-102139793D01*
X142571617Y-102133894D01*
X142637336Y-101992457D01*
X142703264Y-101861974D01*
X142770789Y-101740167D01*
X142841304Y-101624754D01*
X142916196Y-101513458D01*
X142996858Y-101403997D01*
X143084678Y-101294093D01*
X143086983Y-101291328D01*
X143113776Y-101260667D01*
X143148387Y-101223057D01*
X143188947Y-101180369D01*
X143233584Y-101134474D01*
X143280428Y-101087241D01*
X143327607Y-101040543D01*
X143373251Y-100996250D01*
X143415489Y-100956232D01*
X143452451Y-100922360D01*
X143482266Y-100896505D01*
X143588865Y-100811639D01*
X143760141Y-100688826D01*
X143937113Y-100577876D01*
X144119418Y-100478951D01*
X144306691Y-100392216D01*
X144498570Y-100317834D01*
X144694691Y-100255968D01*
X144894690Y-100206781D01*
X145098204Y-100170438D01*
X145123312Y-100166768D01*
X145147158Y-100163301D01*
X145169700Y-100160118D01*
X145191552Y-100157207D01*
X145213324Y-100154553D01*
X145235629Y-100152145D01*
X145259078Y-100149968D01*
X145284283Y-100148009D01*
X145311857Y-100146256D01*
X145342411Y-100144694D01*
X145376557Y-100143311D01*
X145414907Y-100142093D01*
X145458073Y-100141027D01*
X145506667Y-100140100D01*
X145561300Y-100139298D01*
X145622585Y-100138609D01*
X145691133Y-100138019D01*
X145767557Y-100137515D01*
X145852468Y-100137083D01*
X145946478Y-100136711D01*
X146050200Y-100136384D01*
X146164244Y-100136091D01*
X146289223Y-100135817D01*
X146425749Y-100135549D01*
X146574433Y-100135275D01*
X146735888Y-100134980D01*
X148095886Y-100132478D01*
X148095886Y-100896244D01*
G37*
%TD*%
%LPC*%
D11*
%TO.C,J7*%
X173300000Y-97560000D03*
D12*
X173300000Y-95020000D03*
X173300000Y-92480000D03*
X173300000Y-89940000D03*
X173300000Y-87400000D03*
X173300000Y-84860000D03*
X173300000Y-82320000D03*
%TD*%
D13*
%TO.C,H1*%
X189550000Y-73200000D03*
%TD*%
%TO.C,H3*%
X166250000Y-73200000D03*
%TD*%
%TO.C,H6*%
X145200000Y-37900000D03*
%TD*%
D11*
%TO.C,J6*%
X163300000Y-95020000D03*
D12*
X163300000Y-92480000D03*
X163300000Y-89940000D03*
X163300000Y-87400000D03*
X163300000Y-84860000D03*
%TD*%
D14*
%TO.C,Q1*%
X179170000Y-106930000D03*
D15*
X177900000Y-108200000D03*
X176630000Y-106930000D03*
%TD*%
D11*
%TO.C,J4*%
X189107712Y-81892850D03*
D12*
X189107712Y-84432850D03*
X189107712Y-86972850D03*
X189107712Y-89512850D03*
X189107712Y-92052850D03*
X189107712Y-94592850D03*
%TD*%
D11*
%TO.C,J2*%
X156500000Y-49220000D03*
D12*
X156500000Y-51760000D03*
X156500000Y-54300000D03*
X156500000Y-56840000D03*
X156500000Y-59380000D03*
X156500000Y-61920000D03*
X156500000Y-64460000D03*
X156500000Y-67000000D03*
X156500000Y-69540000D03*
X156500000Y-72080000D03*
X156500000Y-74620000D03*
X156500000Y-77160000D03*
X156500000Y-79700000D03*
X156500000Y-82240000D03*
X156500000Y-84780000D03*
X156500000Y-87320000D03*
X156500000Y-89860000D03*
X156500000Y-92400000D03*
X156500000Y-94940000D03*
X156500000Y-97480000D03*
X156500000Y-100020000D03*
X156500000Y-102560000D03*
X156500000Y-105100000D03*
X156500000Y-107640000D03*
X156500000Y-110180000D03*
%TD*%
D13*
%TO.C,H6*%
X145200000Y-110500000D03*
%TD*%
D11*
%TO.C,J3*%
X170280000Y-73900000D03*
D12*
X172820000Y-73900000D03*
X175360000Y-73900000D03*
X177900000Y-73900000D03*
X180440000Y-73900000D03*
X182980000Y-73900000D03*
X185520000Y-73900000D03*
%TD*%
D13*
%TO.C,H2*%
X166250000Y-37900000D03*
%TD*%
D16*
%TO.C,J11*%
X154200000Y-39450000D03*
D17*
X159200000Y-39450000D03*
%TD*%
D13*
%TO.C,H4*%
X189550000Y-37792941D03*
%TD*%
D11*
%TO.C,J1*%
X131000000Y-49220000D03*
D12*
X131000000Y-51760000D03*
X131000000Y-54300000D03*
X131000000Y-56840000D03*
X131000000Y-59380000D03*
X131000000Y-61920000D03*
X131000000Y-64460000D03*
X131000000Y-67000000D03*
X131000000Y-69540000D03*
X131000000Y-72080000D03*
X131000000Y-74620000D03*
X131000000Y-77160000D03*
X131000000Y-79700000D03*
X131000000Y-82240000D03*
X131000000Y-84780000D03*
X131000000Y-87320000D03*
X131000000Y-89860000D03*
X131000000Y-92400000D03*
X131000000Y-94940000D03*
X131000000Y-97480000D03*
X131000000Y-100020000D03*
X131000000Y-102560000D03*
X131000000Y-105100000D03*
X131000000Y-107640000D03*
X131000000Y-110180000D03*
%TD*%
D18*
%TO.C,BZ1*%
X164350000Y-107600000D03*
D19*
X171950000Y-107600000D03*
%TD*%
D11*
%TO.C,J5*%
X178707712Y-81892850D03*
D12*
X178707712Y-84432850D03*
X178707712Y-86972850D03*
X178707712Y-89512850D03*
X178707712Y-92052850D03*
X178707712Y-94592850D03*
%TD*%
D13*
%TO.C,H5*%
X189500000Y-110500000D03*
%TD*%
D20*
%TO.C,D1*%
X174830000Y-102900000D03*
D21*
X182450000Y-102900000D03*
%TD*%
%LPD*%
M02*
