%TF.GenerationSoftware,KiCad,Pcbnew,10.0.0*%
%TF.CreationDate,2026-05-30T12:33:43+07:00*%
%TF.ProjectId,v2v-proto,7632762d-7072-46f7-946f-2e6b69636164,rev?*%
%TF.SameCoordinates,Original*%
%TF.FileFunction,Copper,L2,Bot*%
%TF.FilePolarity,Positive*%
%FSLAX46Y46*%
G04 Gerber Fmt 4.6, Leading zero omitted, Abs format (unit mm)*
G04 Created by KiCad (PCBNEW 10.0.0) date 2026-05-30 12:33:43*
%MOMM*%
%LPD*%
G01*
G04 APERTURE LIST*
G04 Aperture macros list*
%AMRoundRect*
0 Rectangle with rounded corners*
0 $1 Rounding radius*
0 $2 $3 $4 $5 $6 $7 $8 $9 X,Y pos of 4 corners*
0 Add a 4 corners polygon primitive as box body*
4,1,4,$2,$3,$4,$5,$6,$7,$8,$9,$2,$3,0*
0 Add four circle primitives for the rounded corners*
1,1,$1+$1,$2,$3*
1,1,$1+$1,$4,$5*
1,1,$1+$1,$6,$7*
1,1,$1+$1,$8,$9*
0 Add four rect primitives between the rounded corners*
20,1,$1+$1,$2,$3,$4,$5,0*
20,1,$1+$1,$4,$5,$6,$7,0*
20,1,$1+$1,$6,$7,$8,$9,0*
20,1,$1+$1,$8,$9,$2,$3,0*%
G04 Aperture macros list end*
%TA.AperFunction,ComponentPad*%
%ADD10R,1.700000X1.700000*%
%TD*%
%TA.AperFunction,ComponentPad*%
%ADD11C,1.700000*%
%TD*%
%TA.AperFunction,ComponentPad*%
%ADD12R,1.300000X1.300000*%
%TD*%
%TA.AperFunction,ComponentPad*%
%ADD13C,1.300000*%
%TD*%
%TA.AperFunction,ComponentPad*%
%ADD14RoundRect,0.250001X-1.149999X-1.149999X1.149999X-1.149999X1.149999X1.149999X-1.149999X1.149999X0*%
%TD*%
%TA.AperFunction,ComponentPad*%
%ADD15C,2.800000*%
%TD*%
%TA.AperFunction,ComponentPad*%
%ADD16R,2.000000X2.000000*%
%TD*%
%TA.AperFunction,ComponentPad*%
%ADD17C,2.000000*%
%TD*%
%TA.AperFunction,ComponentPad*%
%ADD18RoundRect,0.250000X-0.550000X-0.550000X0.550000X-0.550000X0.550000X0.550000X-0.550000X0.550000X0*%
%TD*%
%TA.AperFunction,ComponentPad*%
%ADD19C,1.600000*%
%TD*%
%TA.AperFunction,Conductor*%
%ADD20C,0.500000*%
%TD*%
%TA.AperFunction,Conductor*%
%ADD21C,1.000000*%
%TD*%
%TA.AperFunction,Conductor*%
%ADD22C,0.300000*%
%TD*%
G04 APERTURE END LIST*
D10*
%TO.P,J7,1,Pin_1_1*%
%TO.N,unconnected-(J7-Pin_1-Pad1)*%
X173300000Y-97560000D03*
D11*
%TO.P,J7,2,Pin_2_2*%
%TO.N,+3V3*%
X173300000Y-95020000D03*
%TO.P,J7,3,Pin_3_3*%
%TO.N,GND*%
X173300000Y-92480000D03*
%TO.P,J7,4,Pin_4_4*%
%TO.N,/SCK_3v3*%
X173300000Y-89940000D03*
%TO.P,J7,5,Pin_5_5*%
%TO.N,/SI_3v3*%
X173300000Y-87400000D03*
%TO.P,J7,6,Pin_6_6*%
%TO.N,/CS1*%
X173300000Y-84860000D03*
%TO.P,J7,7,Pin_7_7*%
%TO.N,/SO_3v3*%
X173300000Y-82320000D03*
%TD*%
D10*
%TO.P,J6,1,Pin_1_1*%
%TO.N,unconnected-(J6-Pin_1-Pad1)*%
X163300000Y-95020000D03*
D11*
%TO.P,J6,2,Pin_2_2*%
%TO.N,unconnected-(J6-Pin_2-Pad2)*%
X163300000Y-92480000D03*
%TO.P,J6,3,Pin_3_3*%
%TO.N,unconnected-(J6-Pin_3-Pad3)*%
X163300000Y-89940000D03*
%TO.P,J6,4,Pin_4_4*%
%TO.N,unconnected-(J6-Pin_4-Pad4)*%
X163300000Y-87400000D03*
%TO.P,J6,5,Pin_5_5*%
%TO.N,unconnected-(J6-Pin_5-Pad5)*%
X163300000Y-84860000D03*
%TD*%
D12*
%TO.P,Q1,1,C_1*%
%TO.N,Net-(BZ1--)*%
X179170000Y-106930000D03*
D13*
%TO.P,Q1,2,B_2*%
%TO.N,Net-(Q1-B)*%
X177900000Y-108200000D03*
%TO.P,Q1,3,E_3*%
%TO.N,GND*%
X176630000Y-106930000D03*
%TD*%
D10*
%TO.P,J4,1,Pin_1_1*%
%TO.N,/INT*%
X189107712Y-81892850D03*
D11*
%TO.P,J4,2,Pin_2_2*%
%TO.N,/SCK*%
X189107712Y-84432850D03*
%TO.P,J4,3,Pin_3_3*%
%TO.N,+5V*%
X189107712Y-86972850D03*
%TO.P,J4,4,Pin_4_4*%
%TO.N,GND*%
X189107712Y-89512850D03*
%TO.P,J4,5,Pin_5_5*%
%TO.N,/SI*%
X189107712Y-92052850D03*
%TO.P,J4,6,Pin_6_6*%
%TO.N,/SO*%
X189107712Y-94592850D03*
%TD*%
D10*
%TO.P,J2,1,Pin_1_1*%
%TO.N,unconnected-(J2-Pin_1-Pad1)*%
X156500000Y-49220000D03*
D11*
%TO.P,J2,2,Pin_2_2*%
%TO.N,/LED1*%
X156500000Y-51760000D03*
%TO.P,J2,3,Pin_3_3*%
%TO.N,/INT_3v3_R*%
X156500000Y-54300000D03*
%TO.P,J2,4,Pin_4_4*%
%TO.N,/CS0*%
X156500000Y-56840000D03*
%TO.P,J2,5,Pin_5_5*%
%TO.N,/CS1*%
X156500000Y-59380000D03*
%TO.P,J2,6,Pin_6_6*%
%TO.N,/LED2*%
X156500000Y-61920000D03*
%TO.P,J2,7,Pin_7_7*%
%TO.N,/LED3*%
X156500000Y-64460000D03*
%TO.P,J2,8,Pin_8_8*%
%TO.N,/Buzzer*%
X156500000Y-67000000D03*
%TO.P,J2,9,Pin_9_9*%
%TO.N,unconnected-(J2-Pin_9-Pad9)*%
X156500000Y-69540000D03*
%TO.P,J2,10,Pin_10_10*%
%TO.N,unconnected-(J2-Pin_10-Pad10)*%
X156500000Y-72080000D03*
%TO.P,J2,11,Pin_11_11*%
%TO.N,unconnected-(J2-Pin_11-Pad11)*%
X156500000Y-74620000D03*
%TO.P,J2,12,Pin_12_12*%
%TO.N,unconnected-(J2-Pin_12-Pad12)*%
X156500000Y-77160000D03*
%TO.P,J2,13,Pin_13_13*%
%TO.N,unconnected-(J2-Pin_13-Pad13)*%
X156500000Y-79700000D03*
%TO.P,J2,14,Pin_14_14*%
%TO.N,unconnected-(J2-Pin_14-Pad14)*%
X156500000Y-82240000D03*
%TO.P,J2,15,Pin_15_15*%
%TO.N,unconnected-(J2-Pin_15-Pad15)*%
X156500000Y-84780000D03*
%TO.P,J2,16,Pin_16_16*%
%TO.N,unconnected-(J2-Pin_16-Pad16)*%
X156500000Y-87320000D03*
%TO.P,J2,17,Pin_17_17*%
%TO.N,/SO_3v3_R*%
X156500000Y-89860000D03*
%TO.P,J2,18,Pin_18_18*%
%TO.N,/SI_3v3_R*%
X156500000Y-92400000D03*
%TO.P,J2,19,Pin_19_19*%
%TO.N,/SCK_3v3_R*%
X156500000Y-94940000D03*
%TO.P,J2,20,Pin_20_20*%
%TO.N,unconnected-(J2-Pin_20-Pad20)*%
X156500000Y-97480000D03*
%TO.P,J2,21,Pin_21_21*%
%TO.N,unconnected-(J2-Pin_21-Pad21)*%
X156500000Y-100020000D03*
%TO.P,J2,22,Pin_22_22*%
%TO.N,unconnected-(J2-Pin_22-Pad22)*%
X156500000Y-102560000D03*
%TO.P,J2,23,Pin_23_23*%
%TO.N,unconnected-(J2-Pin_23-Pad23)*%
X156500000Y-105100000D03*
%TO.P,J2,24,Pin_24_24*%
%TO.N,unconnected-(J2-Pin_24-Pad24)*%
X156500000Y-107640000D03*
%TO.P,J2,25,Pin_25_25*%
%TO.N,unconnected-(J2-Pin_25-Pad25)*%
X156500000Y-110180000D03*
%TD*%
D10*
%TO.P,J3,1,Pin_1_1*%
%TO.N,/INT*%
X170280000Y-73900000D03*
D11*
%TO.P,J3,2,Pin_2_2*%
%TO.N,/SCK*%
X172820000Y-73900000D03*
%TO.P,J3,3,Pin_3_3*%
%TO.N,/SI*%
X175360000Y-73900000D03*
%TO.P,J3,4,Pin_4_4*%
%TO.N,/SO*%
X177900000Y-73900000D03*
%TO.P,J3,5,Pin_5_5*%
%TO.N,/CS0*%
X180440000Y-73900000D03*
%TO.P,J3,6,Pin_6_6*%
%TO.N,GND*%
X182980000Y-73900000D03*
%TO.P,J3,7,Pin_7_7*%
%TO.N,+5V*%
X185520000Y-73900000D03*
%TD*%
D14*
%TO.P,J11,1,Pin_1_1*%
%TO.N,GND*%
X154200000Y-39450000D03*
D15*
%TO.P,J11,2,Pin_2_2*%
%TO.N,+5V*%
X159200000Y-39450000D03*
%TD*%
D10*
%TO.P,J1,1,Pin_1_1*%
%TO.N,+5V*%
X131000000Y-49220000D03*
D11*
%TO.P,J1,2,Pin_2_2*%
%TO.N,GND*%
X131000000Y-51760000D03*
%TO.P,J1,3,Pin_3_3*%
%TO.N,+3V3*%
X131000000Y-54300000D03*
%TO.P,J1,4,Pin_4_4*%
%TO.N,GND*%
X131000000Y-56840000D03*
%TO.P,J1,5,Pin_5_5*%
%TO.N,+3V3*%
X131000000Y-59380000D03*
%TO.P,J1,6,Pin_6_6*%
%TO.N,GND*%
X131000000Y-61920000D03*
%TO.P,J1,7,Pin_7_7*%
%TO.N,unconnected-(J1-Pin_7-Pad7)*%
X131000000Y-64460000D03*
%TO.P,J1,8,Pin_8_8*%
%TO.N,unconnected-(J1-Pin_8-Pad8)*%
X131000000Y-67000000D03*
%TO.P,J1,9,Pin_9_9*%
%TO.N,unconnected-(J1-Pin_9-Pad9)*%
X131000000Y-69540000D03*
%TO.P,J1,10,Pin_10_10*%
%TO.N,unconnected-(J1-Pin_10-Pad10)*%
X131000000Y-72080000D03*
%TO.P,J1,11,Pin_11_11*%
%TO.N,unconnected-(J1-Pin_11-Pad11)*%
X131000000Y-74620000D03*
%TO.P,J1,12,Pin_12_12*%
%TO.N,unconnected-(J1-Pin_12-Pad12)*%
X131000000Y-77160000D03*
%TO.P,J1,13,Pin_13_13*%
%TO.N,unconnected-(J1-Pin_13-Pad13)*%
X131000000Y-79700000D03*
%TO.P,J1,14,Pin_14_14*%
%TO.N,unconnected-(J1-Pin_14-Pad14)*%
X131000000Y-82240000D03*
%TO.P,J1,15,Pin_15_15*%
%TO.N,unconnected-(J1-Pin_15-Pad15)*%
X131000000Y-84780000D03*
%TO.P,J1,16,Pin_16_16*%
%TO.N,unconnected-(J1-Pin_16-Pad16)*%
X131000000Y-87320000D03*
%TO.P,J1,17,Pin_17_17*%
%TO.N,unconnected-(J1-Pin_17-Pad17)*%
X131000000Y-89860000D03*
%TO.P,J1,18,Pin_18_18*%
%TO.N,unconnected-(J1-Pin_18-Pad18)*%
X131000000Y-92400000D03*
%TO.P,J1,19,Pin_19_19*%
%TO.N,unconnected-(J1-Pin_19-Pad19)*%
X131000000Y-94940000D03*
%TO.P,J1,20,Pin_20_20*%
%TO.N,unconnected-(J1-Pin_20-Pad20)*%
X131000000Y-97480000D03*
%TO.P,J1,21,Pin_21_21*%
%TO.N,unconnected-(J1-Pin_21-Pad21)*%
X131000000Y-100020000D03*
%TO.P,J1,22,Pin_22_22*%
%TO.N,unconnected-(J1-Pin_22-Pad22)*%
X131000000Y-102560000D03*
%TO.P,J1,23,Pin_23_23*%
%TO.N,unconnected-(J1-Pin_23-Pad23)*%
X131000000Y-105100000D03*
%TO.P,J1,24,Pin_24_24*%
%TO.N,unconnected-(J1-Pin_24-Pad24)*%
X131000000Y-107640000D03*
%TO.P,J1,25,Pin_25_25*%
%TO.N,unconnected-(J1-Pin_25-Pad25)*%
X131000000Y-110180000D03*
%TD*%
D16*
%TO.P,BZ1,1,+_1*%
%TO.N,+5V*%
X164350000Y-107600000D03*
D17*
%TO.P,BZ1,2,-_2*%
%TO.N,Net-(BZ1--)*%
X171950000Y-107600000D03*
%TD*%
D10*
%TO.P,J5,1,Pin_1_1*%
%TO.N,/INT_3v3*%
X178707712Y-81892850D03*
D11*
%TO.P,J5,2,Pin_2_2*%
%TO.N,/SCK_3v3*%
X178707712Y-84432850D03*
%TO.P,J5,3,Pin_3_3*%
%TO.N,+3V3*%
X178707712Y-86972850D03*
%TO.P,J5,4,Pin_4_4*%
%TO.N,GND*%
X178707712Y-89512850D03*
%TO.P,J5,5,Pin_5_5*%
%TO.N,/SI_3v3*%
X178707712Y-92052850D03*
%TO.P,J5,6,Pin_6_6*%
%TO.N,/SO_3v3*%
X178707712Y-94592850D03*
%TD*%
D18*
%TO.P,D1,1,K_1*%
%TO.N,+5V*%
X174830000Y-102900000D03*
D19*
%TO.P,D1,2,A_2*%
%TO.N,Net-(BZ1--)*%
X182450000Y-102900000D03*
%TD*%
%TO.N,+3V3*%
D20*
X175950000Y-89730562D02*
X178707712Y-86972850D01*
D21*
X167350000Y-98750000D02*
X171080000Y-95020000D01*
X171080000Y-95020000D02*
X173300000Y-95020000D01*
X167350000Y-112750000D02*
X167350000Y-98750000D01*
X140000000Y-68380000D02*
X140000000Y-110750000D01*
X131000000Y-59380000D02*
X140000000Y-68380000D01*
D20*
X173300000Y-95020000D02*
X175950000Y-92370000D01*
X175950000Y-92370000D02*
X175950000Y-89730562D01*
D21*
X143950000Y-114700000D02*
X165400000Y-114700000D01*
X140000000Y-110750000D02*
X143950000Y-114700000D01*
X165400000Y-114700000D02*
X167350000Y-112750000D01*
%TO.N,/SCK_3v3*%
D22*
X178707712Y-84532288D02*
X178707712Y-84432850D01*
X173300000Y-89940000D02*
X178707712Y-84532288D01*
%TO.N,/CS1*%
X160700000Y-63550000D02*
X160700000Y-77800000D01*
X156500000Y-59380000D02*
X156530000Y-59380000D01*
X167760000Y-84860000D02*
X173300000Y-84860000D01*
X156530000Y-59380000D02*
X160700000Y-63550000D01*
X160700000Y-77800000D02*
X167760000Y-84860000D01*
%TO.N,+5V*%
D21*
X148600000Y-66820000D02*
X148600000Y-109800000D01*
D20*
X189080562Y-87000000D02*
X189107712Y-86972850D01*
D21*
X161800000Y-113150000D02*
X164350000Y-110600000D01*
X151950000Y-113150000D02*
X161800000Y-113150000D01*
X164350000Y-110600000D02*
X164350000Y-107600000D01*
D20*
X184450000Y-97750000D02*
X184450000Y-88950000D01*
D21*
X148600000Y-109800000D02*
X151950000Y-113150000D01*
D20*
X174830000Y-102900000D02*
X179300000Y-102900000D01*
X184450000Y-88950000D02*
X186400000Y-87000000D01*
X186400000Y-87000000D02*
X189080562Y-87000000D01*
X179300000Y-102900000D02*
X184450000Y-97750000D01*
D21*
X131000000Y-49220000D02*
X148600000Y-66820000D01*
%TO.N,/SCK*%
D22*
X189107712Y-84432850D02*
X185532850Y-84432850D01*
X177650000Y-78800000D02*
X172820000Y-73970000D01*
X185532850Y-84432850D02*
X179900000Y-78800000D01*
X179900000Y-78800000D02*
X177650000Y-78800000D01*
X172820000Y-73970000D02*
X172820000Y-73900000D01*
%TO.N,/SI*%
X189800000Y-79000000D02*
X183150000Y-79000000D01*
X181500000Y-77350000D02*
X178050000Y-77350000D01*
X183150000Y-79000000D02*
X181500000Y-77350000D01*
X178050000Y-77350000D02*
X175360000Y-74660000D01*
X175360000Y-74660000D02*
X175360000Y-73900000D01*
X192000000Y-81200000D02*
X189800000Y-79000000D01*
X189107712Y-92052850D02*
X192000000Y-89160562D01*
X192000000Y-89160562D02*
X192000000Y-81200000D01*
%TO.N,/SO*%
X192650000Y-91050562D02*
X192650000Y-79600000D01*
X182250000Y-76600000D02*
X179150000Y-76600000D01*
X189107712Y-94592850D02*
X192650000Y-91050562D01*
X183700000Y-78050000D02*
X182250000Y-76600000D01*
X191100000Y-78050000D02*
X183700000Y-78050000D01*
X179150000Y-76600000D02*
X177900000Y-75350000D01*
X177900000Y-75350000D02*
X177900000Y-73900000D01*
X192650000Y-79600000D02*
X191100000Y-78050000D01*
%TO.N,/CS0*%
X156500000Y-56840000D02*
X163380000Y-56840000D01*
X163380000Y-56840000D02*
X180440000Y-73900000D01*
%TD*%
%TA.AperFunction,Conductor*%
%TO.N,GND*%
G36*
X132115270Y-52521717D02*
G01*
X132115270Y-52521716D01*
X132154622Y-52467554D01*
X132251096Y-52278215D01*
X132284748Y-52174644D01*
X132324185Y-52116968D01*
X132388543Y-52089769D01*
X132457390Y-52101683D01*
X132490360Y-52125280D01*
X147563181Y-67198101D01*
X147596666Y-67259424D01*
X147599500Y-67285782D01*
X147599500Y-109898541D01*
X147599500Y-109898543D01*
X147599499Y-109898543D01*
X147637947Y-110091829D01*
X147637950Y-110091839D01*
X147713364Y-110273907D01*
X147713371Y-110273920D01*
X147822859Y-110437780D01*
X147822860Y-110437781D01*
X147822861Y-110437782D01*
X147962218Y-110577139D01*
X147962219Y-110577139D01*
X147969286Y-110584206D01*
X147969285Y-110584206D01*
X147969289Y-110584209D01*
X150872898Y-113487819D01*
X150906383Y-113549142D01*
X150901399Y-113618834D01*
X150859527Y-113674767D01*
X150794063Y-113699184D01*
X150785217Y-113699500D01*
X144415783Y-113699500D01*
X144348744Y-113679815D01*
X144328102Y-113663181D01*
X141043632Y-110378711D01*
X143349500Y-110378711D01*
X143349500Y-110621288D01*
X143381161Y-110861785D01*
X143443947Y-111096104D01*
X143536773Y-111320205D01*
X143536777Y-111320214D01*
X143545343Y-111335051D01*
X143658064Y-111530289D01*
X143658066Y-111530292D01*
X143658067Y-111530293D01*
X143805733Y-111722736D01*
X143805739Y-111722743D01*
X143977256Y-111894260D01*
X143977262Y-111894265D01*
X144169711Y-112041936D01*
X144379788Y-112163224D01*
X144603900Y-112256054D01*
X144838211Y-112318838D01*
X145018586Y-112342584D01*
X145078711Y-112350500D01*
X145078712Y-112350500D01*
X145321289Y-112350500D01*
X145369388Y-112344167D01*
X145561789Y-112318838D01*
X145796100Y-112256054D01*
X146020212Y-112163224D01*
X146230289Y-112041936D01*
X146422738Y-111894265D01*
X146594265Y-111722738D01*
X146741936Y-111530289D01*
X146863224Y-111320212D01*
X146956054Y-111096100D01*
X147018838Y-110861789D01*
X147050500Y-110621288D01*
X147050500Y-110378712D01*
X147018838Y-110138211D01*
X146956054Y-109903900D01*
X146863224Y-109679788D01*
X146741936Y-109469711D01*
X146594265Y-109277262D01*
X146594260Y-109277256D01*
X146422743Y-109105739D01*
X146422736Y-109105733D01*
X146230293Y-108958067D01*
X146230292Y-108958066D01*
X146230289Y-108958064D01*
X146038771Y-108847491D01*
X146020214Y-108836777D01*
X146020205Y-108836773D01*
X145796104Y-108743947D01*
X145561785Y-108681161D01*
X145321289Y-108649500D01*
X145321288Y-108649500D01*
X145078712Y-108649500D01*
X145078711Y-108649500D01*
X144838214Y-108681161D01*
X144603895Y-108743947D01*
X144379794Y-108836773D01*
X144379785Y-108836777D01*
X144221016Y-108928443D01*
X144170607Y-108957547D01*
X144169706Y-108958067D01*
X143977263Y-109105733D01*
X143977256Y-109105739D01*
X143805739Y-109277256D01*
X143805733Y-109277263D01*
X143658067Y-109469706D01*
X143536777Y-109679785D01*
X143536773Y-109679794D01*
X143443947Y-109903895D01*
X143381161Y-110138214D01*
X143349500Y-110378711D01*
X141043632Y-110378711D01*
X141036819Y-110371898D01*
X141003334Y-110310575D01*
X141000500Y-110284217D01*
X141000500Y-68281456D01*
X140962052Y-68088170D01*
X140962051Y-68088169D01*
X140962051Y-68088165D01*
X140938002Y-68030104D01*
X140886635Y-67906092D01*
X140886628Y-67906079D01*
X140777139Y-67742218D01*
X140777136Y-67742214D01*
X140634686Y-67599764D01*
X140634655Y-67599735D01*
X132386423Y-59351503D01*
X132352938Y-59290180D01*
X132350657Y-59274708D01*
X132350500Y-59273716D01*
X132350500Y-59273713D01*
X132317246Y-59063757D01*
X132251557Y-58861588D01*
X132155051Y-58672184D01*
X132155049Y-58672181D01*
X132155048Y-58672179D01*
X132030109Y-58500213D01*
X131879786Y-58349890D01*
X131707817Y-58224949D01*
X131698504Y-58220204D01*
X131647707Y-58172230D01*
X131630912Y-58104409D01*
X131653449Y-58038274D01*
X131698507Y-57999232D01*
X131707555Y-57994622D01*
X131761716Y-57955270D01*
X131761717Y-57955270D01*
X131129408Y-57322962D01*
X131192993Y-57305925D01*
X131307007Y-57240099D01*
X131400099Y-57147007D01*
X131465925Y-57032993D01*
X131482962Y-56969408D01*
X132115270Y-57601717D01*
X132115270Y-57601716D01*
X132154622Y-57547554D01*
X132251095Y-57358217D01*
X132316757Y-57156130D01*
X132316757Y-57156127D01*
X132350000Y-56946246D01*
X132350000Y-56733753D01*
X132316757Y-56523872D01*
X132316757Y-56523869D01*
X132251095Y-56321782D01*
X132154624Y-56132449D01*
X132115270Y-56078282D01*
X132115269Y-56078282D01*
X131482962Y-56710590D01*
X131465925Y-56647007D01*
X131400099Y-56532993D01*
X131307007Y-56439901D01*
X131192993Y-56374075D01*
X131129409Y-56357037D01*
X131761716Y-55724728D01*
X131707547Y-55685373D01*
X131707547Y-55685372D01*
X131698500Y-55680763D01*
X131647706Y-55632788D01*
X131630912Y-55564966D01*
X131653451Y-55498832D01*
X131698508Y-55459793D01*
X131707816Y-55455051D01*
X131787007Y-55397515D01*
X131879786Y-55330109D01*
X131879788Y-55330106D01*
X131879792Y-55330104D01*
X132030104Y-55179792D01*
X132030106Y-55179788D01*
X132030109Y-55179786D01*
X132155048Y-55007820D01*
X132155047Y-55007820D01*
X132155051Y-55007816D01*
X132251557Y-54818412D01*
X132317246Y-54616243D01*
X132350500Y-54406287D01*
X132350500Y-54193713D01*
X132317246Y-53983757D01*
X132251557Y-53781588D01*
X132155051Y-53592184D01*
X132155049Y-53592181D01*
X132155048Y-53592179D01*
X132030109Y-53420213D01*
X131879786Y-53269890D01*
X131707817Y-53144949D01*
X131698504Y-53140204D01*
X131647707Y-53092230D01*
X131630912Y-53024409D01*
X131653449Y-52958274D01*
X131698507Y-52919232D01*
X131707555Y-52914622D01*
X131761716Y-52875270D01*
X131761717Y-52875270D01*
X131129408Y-52242962D01*
X131192993Y-52225925D01*
X131307007Y-52160099D01*
X131400099Y-52067007D01*
X131465925Y-51952993D01*
X131482962Y-51889408D01*
X132115270Y-52521717D01*
G37*
%TD.AperFunction*%
%TA.AperFunction,Conductor*%
G36*
X177278350Y-86984108D02*
G01*
X177334283Y-87025980D01*
X177357489Y-87080891D01*
X177372328Y-87174577D01*
X177363374Y-87243871D01*
X177337536Y-87281657D01*
X175367048Y-89252145D01*
X175361221Y-89260867D01*
X175333592Y-89302218D01*
X175284914Y-89375069D01*
X175228343Y-89511644D01*
X175228340Y-89511654D01*
X175199500Y-89656641D01*
X175199500Y-92007769D01*
X175179815Y-92074808D01*
X175163181Y-92095450D01*
X174854198Y-92404433D01*
X174792875Y-92437918D01*
X174723183Y-92432934D01*
X174667250Y-92391062D01*
X174644044Y-92336150D01*
X174616757Y-92163872D01*
X174616757Y-92163869D01*
X174551095Y-91961782D01*
X174454624Y-91772449D01*
X174415270Y-91718282D01*
X174415269Y-91718282D01*
X173782962Y-92350590D01*
X173765925Y-92287007D01*
X173700099Y-92172993D01*
X173607007Y-92079901D01*
X173492993Y-92014075D01*
X173429409Y-91997037D01*
X174061716Y-91364728D01*
X174007547Y-91325373D01*
X174007547Y-91325372D01*
X173998500Y-91320763D01*
X173947706Y-91272788D01*
X173930912Y-91204966D01*
X173953451Y-91138832D01*
X173998508Y-91099793D01*
X174007816Y-91095051D01*
X174111782Y-91019516D01*
X174179786Y-90970109D01*
X174179788Y-90970106D01*
X174179792Y-90970104D01*
X174330104Y-90819792D01*
X174330106Y-90819788D01*
X174330109Y-90819786D01*
X174455048Y-90647820D01*
X174455047Y-90647820D01*
X174455051Y-90647816D01*
X174551557Y-90458412D01*
X174617246Y-90256243D01*
X174650500Y-90046287D01*
X174650500Y-89833713D01*
X174627679Y-89689627D01*
X174616484Y-89618945D01*
X174618123Y-89618685D01*
X174621257Y-89556126D01*
X174650655Y-89509289D01*
X177147337Y-87012607D01*
X177208658Y-86979124D01*
X177278350Y-86984108D01*
G37*
%TD.AperFunction*%
%TA.AperFunction,Conductor*%
G36*
X190594223Y-80730015D02*
G01*
X190638570Y-80758516D01*
X191313181Y-81433127D01*
X191346666Y-81494450D01*
X191349500Y-81520808D01*
X191349500Y-88839753D01*
X191329815Y-88906792D01*
X191313181Y-88927434D01*
X190669393Y-89571221D01*
X190608070Y-89604706D01*
X190538378Y-89599722D01*
X190482445Y-89557850D01*
X190458028Y-89492386D01*
X190457712Y-89483540D01*
X190457712Y-89406603D01*
X190424469Y-89196722D01*
X190424469Y-89196719D01*
X190358807Y-88994632D01*
X190262336Y-88805299D01*
X190222982Y-88751132D01*
X190222981Y-88751132D01*
X189590674Y-89383440D01*
X189573637Y-89319857D01*
X189507811Y-89205843D01*
X189414719Y-89112751D01*
X189300705Y-89046925D01*
X189237121Y-89029887D01*
X189869428Y-88397578D01*
X189815259Y-88358223D01*
X189815259Y-88358222D01*
X189806212Y-88353613D01*
X189755418Y-88305638D01*
X189738624Y-88237816D01*
X189761163Y-88171682D01*
X189806220Y-88132643D01*
X189815528Y-88127901D01*
X189953279Y-88027820D01*
X189987498Y-88002959D01*
X189987500Y-88002956D01*
X189987504Y-88002954D01*
X190137816Y-87852642D01*
X190137818Y-87852638D01*
X190137821Y-87852636D01*
X190262760Y-87680670D01*
X190262759Y-87680670D01*
X190262763Y-87680666D01*
X190359269Y-87491262D01*
X190424958Y-87289093D01*
X190458212Y-87079137D01*
X190458212Y-86866563D01*
X190424958Y-86656607D01*
X190359269Y-86454438D01*
X190262763Y-86265034D01*
X190262761Y-86265031D01*
X190262760Y-86265029D01*
X190137821Y-86093063D01*
X189987498Y-85942740D01*
X189815532Y-85817801D01*
X189814827Y-85817441D01*
X189806766Y-85813335D01*
X189755971Y-85765362D01*
X189739175Y-85697542D01*
X189761711Y-85631406D01*
X189806766Y-85592365D01*
X189815528Y-85587901D01*
X189894968Y-85530185D01*
X189987498Y-85462959D01*
X189987500Y-85462956D01*
X189987504Y-85462954D01*
X190137816Y-85312642D01*
X190137818Y-85312638D01*
X190137821Y-85312636D01*
X190262760Y-85140670D01*
X190262759Y-85140670D01*
X190262763Y-85140666D01*
X190359269Y-84951262D01*
X190424958Y-84749093D01*
X190458212Y-84539137D01*
X190458212Y-84326563D01*
X190424958Y-84116607D01*
X190359269Y-83914438D01*
X190262763Y-83725034D01*
X190262761Y-83725031D01*
X190262760Y-83725029D01*
X190137821Y-83553063D01*
X190024281Y-83439523D01*
X189990796Y-83378200D01*
X189995780Y-83308508D01*
X190037652Y-83252575D01*
X190068627Y-83235660D01*
X190200043Y-83186646D01*
X190315258Y-83100396D01*
X190401508Y-82985181D01*
X190451803Y-82850333D01*
X190458212Y-82790723D01*
X190458211Y-80994978D01*
X190451803Y-80935367D01*
X190438073Y-80898556D01*
X190434707Y-80889530D01*
X190429723Y-80819839D01*
X190463208Y-80758516D01*
X190524531Y-80725031D01*
X190594223Y-80730015D01*
G37*
%TD.AperFunction*%
%TA.AperFunction,Conductor*%
G36*
X193842539Y-34538911D02*
G01*
X193888294Y-34591715D01*
X193899500Y-34643226D01*
X193899500Y-115875500D01*
X193879815Y-115942539D01*
X193827011Y-115988294D01*
X193775500Y-115999500D01*
X128874500Y-115999500D01*
X128807461Y-115979815D01*
X128761706Y-115927011D01*
X128750500Y-115875500D01*
X128750500Y-48322135D01*
X129649500Y-48322135D01*
X129649500Y-50117870D01*
X129649501Y-50117876D01*
X129655908Y-50177483D01*
X129706202Y-50312328D01*
X129706206Y-50312335D01*
X129792452Y-50427544D01*
X129792455Y-50427547D01*
X129907664Y-50513793D01*
X129907671Y-50513797D01*
X129952618Y-50530561D01*
X130042517Y-50564091D01*
X130102127Y-50570500D01*
X130112685Y-50570499D01*
X130179723Y-50590179D01*
X130200372Y-50606818D01*
X130870591Y-51277037D01*
X130807007Y-51294075D01*
X130692993Y-51359901D01*
X130599901Y-51452993D01*
X130534075Y-51567007D01*
X130517037Y-51630591D01*
X129884728Y-50998282D01*
X129884727Y-50998282D01*
X129845380Y-51052439D01*
X129748904Y-51241782D01*
X129683242Y-51443869D01*
X129683242Y-51443872D01*
X129650000Y-51653753D01*
X129650000Y-51866246D01*
X129683242Y-52076127D01*
X129683242Y-52076130D01*
X129748904Y-52278217D01*
X129845375Y-52467550D01*
X129884728Y-52521716D01*
X130517037Y-51889408D01*
X130534075Y-51952993D01*
X130599901Y-52067007D01*
X130692993Y-52160099D01*
X130807007Y-52225925D01*
X130870590Y-52242962D01*
X130238282Y-52875269D01*
X130238282Y-52875270D01*
X130292452Y-52914626D01*
X130292451Y-52914626D01*
X130301495Y-52919234D01*
X130352292Y-52967208D01*
X130369087Y-53035029D01*
X130346550Y-53101164D01*
X130301499Y-53140202D01*
X130292182Y-53144949D01*
X130120213Y-53269890D01*
X129969890Y-53420213D01*
X129844951Y-53592179D01*
X129748444Y-53781585D01*
X129682753Y-53983760D01*
X129649500Y-54193713D01*
X129649500Y-54406286D01*
X129682753Y-54616239D01*
X129748444Y-54818414D01*
X129844951Y-55007820D01*
X129969890Y-55179786D01*
X130120213Y-55330109D01*
X130292179Y-55455048D01*
X130292181Y-55455049D01*
X130292184Y-55455051D01*
X130301493Y-55459794D01*
X130352290Y-55507766D01*
X130369087Y-55575587D01*
X130346552Y-55641722D01*
X130301505Y-55680760D01*
X130292446Y-55685376D01*
X130292440Y-55685380D01*
X130238282Y-55724727D01*
X130238282Y-55724728D01*
X130870591Y-56357037D01*
X130807007Y-56374075D01*
X130692993Y-56439901D01*
X130599901Y-56532993D01*
X130534075Y-56647007D01*
X130517037Y-56710591D01*
X129884728Y-56078282D01*
X129884727Y-56078282D01*
X129845380Y-56132439D01*
X129748904Y-56321782D01*
X129683242Y-56523869D01*
X129683242Y-56523872D01*
X129650000Y-56733753D01*
X129650000Y-56946246D01*
X129683242Y-57156127D01*
X129683242Y-57156130D01*
X129748904Y-57358217D01*
X129845375Y-57547550D01*
X129884728Y-57601716D01*
X130517037Y-56969408D01*
X130534075Y-57032993D01*
X130599901Y-57147007D01*
X130692993Y-57240099D01*
X130807007Y-57305925D01*
X130870590Y-57322962D01*
X130238282Y-57955269D01*
X130238282Y-57955270D01*
X130292452Y-57994626D01*
X130292451Y-57994626D01*
X130301495Y-57999234D01*
X130352292Y-58047208D01*
X130369087Y-58115029D01*
X130346550Y-58181164D01*
X130301499Y-58220202D01*
X130292182Y-58224949D01*
X130120213Y-58349890D01*
X129969890Y-58500213D01*
X129844951Y-58672179D01*
X129748444Y-58861585D01*
X129682753Y-59063760D01*
X129649500Y-59273713D01*
X129649500Y-59486286D01*
X129682753Y-59696239D01*
X129748444Y-59898414D01*
X129844951Y-60087820D01*
X129969890Y-60259786D01*
X130120213Y-60410109D01*
X130292179Y-60535048D01*
X130292181Y-60535049D01*
X130292184Y-60535051D01*
X130301493Y-60539794D01*
X130352290Y-60587766D01*
X130369087Y-60655587D01*
X130346552Y-60721722D01*
X130301505Y-60760760D01*
X130292446Y-60765376D01*
X130292440Y-60765380D01*
X130238282Y-60804727D01*
X130238282Y-60804728D01*
X130870591Y-61437037D01*
X130807007Y-61454075D01*
X130692993Y-61519901D01*
X130599901Y-61612993D01*
X130534075Y-61727007D01*
X130517037Y-61790591D01*
X129884728Y-61158282D01*
X129884727Y-61158282D01*
X129845380Y-61212439D01*
X129748904Y-61401782D01*
X129683242Y-61603869D01*
X129683242Y-61603872D01*
X129650000Y-61813753D01*
X129650000Y-62026246D01*
X129683242Y-62236127D01*
X129683242Y-62236130D01*
X129748904Y-62438217D01*
X129845375Y-62627550D01*
X129884728Y-62681716D01*
X130517037Y-62049408D01*
X130534075Y-62112993D01*
X130599901Y-62227007D01*
X130692993Y-62320099D01*
X130807007Y-62385925D01*
X130870590Y-62402962D01*
X130238282Y-63035269D01*
X130238282Y-63035270D01*
X130292452Y-63074626D01*
X130292451Y-63074626D01*
X130301495Y-63079234D01*
X130352292Y-63127208D01*
X130369087Y-63195029D01*
X130346550Y-63261164D01*
X130301499Y-63300202D01*
X130292182Y-63304949D01*
X130120213Y-63429890D01*
X129969890Y-63580213D01*
X129844951Y-63752179D01*
X129748444Y-63941585D01*
X129682753Y-64143760D01*
X129649500Y-64353713D01*
X129649500Y-64566286D01*
X129682753Y-64776239D01*
X129748444Y-64978414D01*
X129844951Y-65167820D01*
X129969890Y-65339786D01*
X130120213Y-65490109D01*
X130292182Y-65615050D01*
X130300946Y-65619516D01*
X130351742Y-65667491D01*
X130368536Y-65735312D01*
X130345998Y-65801447D01*
X130300946Y-65840484D01*
X130292182Y-65844949D01*
X130120213Y-65969890D01*
X129969890Y-66120213D01*
X129844951Y-66292179D01*
X129748444Y-66481585D01*
X129748443Y-66481587D01*
X129748443Y-66481588D01*
X129733310Y-66528164D01*
X129682755Y-66683755D01*
X129682754Y-66683757D01*
X129649500Y-66893713D01*
X129649500Y-67106286D01*
X129682753Y-67316239D01*
X129748444Y-67518414D01*
X129844951Y-67707820D01*
X129969890Y-67879786D01*
X130120213Y-68030109D01*
X130292182Y-68155050D01*
X130300946Y-68159516D01*
X130351742Y-68207491D01*
X130368536Y-68275312D01*
X130345998Y-68341447D01*
X130300946Y-68380484D01*
X130292182Y-68384949D01*
X130120213Y-68509890D01*
X129969890Y-68660213D01*
X129844951Y-68832179D01*
X129748444Y-69021585D01*
X129682753Y-69223760D01*
X129649500Y-69433713D01*
X129649500Y-69646286D01*
X129682753Y-69856239D01*
X129748444Y-70058414D01*
X129844951Y-70247820D01*
X129969890Y-70419786D01*
X130120213Y-70570109D01*
X130292182Y-70695050D01*
X130300946Y-70699516D01*
X130351742Y-70747491D01*
X130368536Y-70815312D01*
X130345998Y-70881447D01*
X130300946Y-70920484D01*
X130292182Y-70924949D01*
X130120213Y-71049890D01*
X129969890Y-71200213D01*
X129844951Y-71372179D01*
X129748444Y-71561585D01*
X129682753Y-71763760D01*
X129649500Y-71973713D01*
X129649500Y-72186286D01*
X129680148Y-72379794D01*
X129682754Y-72396243D01*
X129743355Y-72582754D01*
X129748444Y-72598414D01*
X129844951Y-72787820D01*
X129969890Y-72959786D01*
X130120213Y-73110109D01*
X130292182Y-73235050D01*
X130300946Y-73239516D01*
X130351742Y-73287491D01*
X130368536Y-73355312D01*
X130345998Y-73421447D01*
X130300946Y-73460484D01*
X130292182Y-73464949D01*
X130120213Y-73589890D01*
X129969890Y-73740213D01*
X129844951Y-73912179D01*
X129748444Y-74101585D01*
X129682753Y-74303760D01*
X129649500Y-74513713D01*
X129649500Y-74726286D01*
X129681781Y-74930105D01*
X129682754Y-74936243D01*
X129738414Y-75107547D01*
X129748444Y-75138414D01*
X129844951Y-75327820D01*
X129969890Y-75499786D01*
X130120213Y-75650109D01*
X130292182Y-75775050D01*
X130300946Y-75779516D01*
X130351742Y-75827491D01*
X130368536Y-75895312D01*
X130345998Y-75961447D01*
X130300946Y-76000484D01*
X130292182Y-76004949D01*
X130120213Y-76129890D01*
X129969890Y-76280213D01*
X129844951Y-76452179D01*
X129748444Y-76641585D01*
X129682753Y-76843760D01*
X129649500Y-77053713D01*
X129649500Y-77266287D01*
X129682754Y-77476243D01*
X129692276Y-77505550D01*
X129748444Y-77678414D01*
X129844951Y-77867820D01*
X129969890Y-78039786D01*
X130120213Y-78190109D01*
X130292182Y-78315050D01*
X130300946Y-78319516D01*
X130351742Y-78367491D01*
X130368536Y-78435312D01*
X130345998Y-78501447D01*
X130300946Y-78540484D01*
X130292182Y-78544949D01*
X130120213Y-78669890D01*
X129969890Y-78820213D01*
X129844951Y-78992179D01*
X129748444Y-79181585D01*
X129682753Y-79383760D01*
X129678556Y-79410261D01*
X129649500Y-79593713D01*
X129649500Y-79806287D01*
X129682754Y-80016243D01*
X129710920Y-80102930D01*
X129748444Y-80218414D01*
X129844951Y-80407820D01*
X129969890Y-80579786D01*
X130120213Y-80730109D01*
X130292182Y-80855050D01*
X130300946Y-80859516D01*
X130351742Y-80907491D01*
X130368536Y-80975312D01*
X130345998Y-81041447D01*
X130300946Y-81080484D01*
X130292182Y-81084949D01*
X130120213Y-81209890D01*
X129969890Y-81360213D01*
X129844951Y-81532179D01*
X129748444Y-81721585D01*
X129682753Y-81923760D01*
X129649500Y-82133713D01*
X129649500Y-82346287D01*
X129682754Y-82556243D01*
X129708746Y-82636239D01*
X129748444Y-82758414D01*
X129844951Y-82947820D01*
X129969890Y-83119786D01*
X130120213Y-83270109D01*
X130292182Y-83395050D01*
X130300946Y-83399516D01*
X130351742Y-83447491D01*
X130368536Y-83515312D01*
X130345998Y-83581447D01*
X130300946Y-83620484D01*
X130292182Y-83624949D01*
X130120213Y-83749890D01*
X129969890Y-83900213D01*
X129844951Y-84072179D01*
X129748444Y-84261585D01*
X129682753Y-84463760D01*
X129649500Y-84673713D01*
X129649500Y-84886286D01*
X129676752Y-85058352D01*
X129682754Y-85096243D01*
X129708746Y-85176239D01*
X129748444Y-85298414D01*
X129844951Y-85487820D01*
X129969890Y-85659786D01*
X130120213Y-85810109D01*
X130292182Y-85935050D01*
X130300946Y-85939516D01*
X130351742Y-85987491D01*
X130368536Y-86055312D01*
X130345998Y-86121447D01*
X130300946Y-86160484D01*
X130292182Y-86164949D01*
X130120213Y-86289890D01*
X129969890Y-86440213D01*
X129844951Y-86612179D01*
X129748444Y-86801585D01*
X129682753Y-87003760D01*
X129649500Y-87213713D01*
X129649500Y-87426287D01*
X129682754Y-87636243D01*
X129731679Y-87786819D01*
X129748444Y-87838414D01*
X129844951Y-88027820D01*
X129969890Y-88199786D01*
X130120213Y-88350109D01*
X130292182Y-88475050D01*
X130300946Y-88479516D01*
X130351742Y-88527491D01*
X130368536Y-88595312D01*
X130345998Y-88661447D01*
X130300946Y-88700484D01*
X130292182Y-88704949D01*
X130120213Y-88829890D01*
X129969890Y-88980213D01*
X129844951Y-89152179D01*
X129748444Y-89341585D01*
X129682753Y-89543760D01*
X129664875Y-89656641D01*
X129649500Y-89753713D01*
X129649500Y-89966287D01*
X129682754Y-90176243D01*
X129720589Y-90292688D01*
X129748444Y-90378414D01*
X129844951Y-90567820D01*
X129969890Y-90739786D01*
X130120213Y-90890109D01*
X130292182Y-91015050D01*
X130300946Y-91019516D01*
X130351742Y-91067491D01*
X130368536Y-91135312D01*
X130345998Y-91201447D01*
X130300946Y-91240484D01*
X130292182Y-91244949D01*
X130120213Y-91369890D01*
X129969890Y-91520213D01*
X129844951Y-91692179D01*
X129748444Y-91881585D01*
X129682753Y-92083760D01*
X129670065Y-92163869D01*
X129649500Y-92293713D01*
X129649500Y-92506287D01*
X129682754Y-92716243D01*
X129735994Y-92880099D01*
X129748444Y-92918414D01*
X129844951Y-93107820D01*
X129969890Y-93279786D01*
X130120213Y-93430109D01*
X130292182Y-93555050D01*
X130300946Y-93559516D01*
X130351742Y-93607491D01*
X130368536Y-93675312D01*
X130345998Y-93741447D01*
X130300946Y-93780484D01*
X130292182Y-93784949D01*
X130120213Y-93909890D01*
X129969890Y-94060213D01*
X129844951Y-94232179D01*
X129748444Y-94421585D01*
X129682753Y-94623760D01*
X129651946Y-94818272D01*
X129649500Y-94833713D01*
X129649500Y-95046287D01*
X129682754Y-95256243D01*
X129708746Y-95336239D01*
X129748444Y-95458414D01*
X129844951Y-95647820D01*
X129969890Y-95819786D01*
X130120213Y-95970109D01*
X130292182Y-96095050D01*
X130300946Y-96099516D01*
X130351742Y-96147491D01*
X130368536Y-96215312D01*
X130345998Y-96281447D01*
X130300946Y-96320484D01*
X130292182Y-96324949D01*
X130120213Y-96449890D01*
X129969890Y-96600213D01*
X129844951Y-96772179D01*
X129748444Y-96961585D01*
X129682753Y-97163760D01*
X129649500Y-97373713D01*
X129649500Y-97586287D01*
X129682754Y-97796243D01*
X129740141Y-97972862D01*
X129748444Y-97998414D01*
X129844951Y-98187820D01*
X129969890Y-98359786D01*
X130120213Y-98510109D01*
X130292182Y-98635050D01*
X130300946Y-98639516D01*
X130351742Y-98687491D01*
X130368536Y-98755312D01*
X130345998Y-98821447D01*
X130300946Y-98860484D01*
X130292182Y-98864949D01*
X130120213Y-98989890D01*
X129969890Y-99140213D01*
X129844951Y-99312179D01*
X129748444Y-99501585D01*
X129682753Y-99703760D01*
X129649500Y-99913713D01*
X129649500Y-100126286D01*
X129682753Y-100336239D01*
X129748444Y-100538414D01*
X129844951Y-100727820D01*
X129969890Y-100899786D01*
X130120213Y-101050109D01*
X130292182Y-101175050D01*
X130300946Y-101179516D01*
X130351742Y-101227491D01*
X130368536Y-101295312D01*
X130345998Y-101361447D01*
X130300946Y-101400484D01*
X130292182Y-101404949D01*
X130120213Y-101529890D01*
X129969890Y-101680213D01*
X129844951Y-101852179D01*
X129748444Y-102041585D01*
X129682753Y-102243760D01*
X129673847Y-102299991D01*
X129649500Y-102453713D01*
X129649500Y-102666287D01*
X129682754Y-102876243D01*
X129723729Y-103002352D01*
X129748444Y-103078414D01*
X129844951Y-103267820D01*
X129969890Y-103439786D01*
X130120213Y-103590109D01*
X130292182Y-103715050D01*
X130300946Y-103719516D01*
X130351742Y-103767491D01*
X130368536Y-103835312D01*
X130345998Y-103901447D01*
X130300946Y-103940484D01*
X130292182Y-103944949D01*
X130120213Y-104069890D01*
X129969890Y-104220213D01*
X129844951Y-104392179D01*
X129748444Y-104581585D01*
X129682753Y-104783760D01*
X129649500Y-104993713D01*
X129649500Y-105206286D01*
X129682753Y-105416239D01*
X129748444Y-105618414D01*
X129844951Y-105807820D01*
X129969890Y-105979786D01*
X130120213Y-106130109D01*
X130292182Y-106255050D01*
X130300946Y-106259516D01*
X130351742Y-106307491D01*
X130368536Y-106375312D01*
X130345998Y-106441447D01*
X130300946Y-106480484D01*
X130292182Y-106484949D01*
X130120213Y-106609890D01*
X129969890Y-106760213D01*
X129844951Y-106932179D01*
X129748444Y-107121585D01*
X129682753Y-107323760D01*
X129649500Y-107533713D01*
X129649500Y-107746286D01*
X129679792Y-107937546D01*
X129682754Y-107956243D01*
X129746518Y-108152489D01*
X129748444Y-108158414D01*
X129844951Y-108347820D01*
X129969890Y-108519786D01*
X130120213Y-108670109D01*
X130292182Y-108795050D01*
X130300946Y-108799516D01*
X130351742Y-108847491D01*
X130368536Y-108915312D01*
X130345998Y-108981447D01*
X130300946Y-109020484D01*
X130292182Y-109024949D01*
X130120213Y-109149890D01*
X129969890Y-109300213D01*
X129844951Y-109472179D01*
X129748444Y-109661585D01*
X129748443Y-109661587D01*
X129748443Y-109661588D01*
X129715598Y-109762672D01*
X129682753Y-109863760D01*
X129649500Y-110073713D01*
X129649500Y-110286286D01*
X129673494Y-110437782D01*
X129682754Y-110496243D01*
X129682788Y-110496349D01*
X129748444Y-110698414D01*
X129844951Y-110887820D01*
X129969890Y-111059786D01*
X130120213Y-111210109D01*
X130292179Y-111335048D01*
X130292181Y-111335049D01*
X130292184Y-111335051D01*
X130481588Y-111431557D01*
X130683757Y-111497246D01*
X130893713Y-111530500D01*
X130893714Y-111530500D01*
X131106286Y-111530500D01*
X131106287Y-111530500D01*
X131316243Y-111497246D01*
X131518412Y-111431557D01*
X131707816Y-111335051D01*
X131729789Y-111319086D01*
X131879786Y-111210109D01*
X131879788Y-111210106D01*
X131879792Y-111210104D01*
X132030104Y-111059792D01*
X132030106Y-111059788D01*
X132030109Y-111059786D01*
X132155048Y-110887820D01*
X132155047Y-110887820D01*
X132155051Y-110887816D01*
X132251557Y-110698412D01*
X132317246Y-110496243D01*
X132350500Y-110286287D01*
X132350500Y-110073713D01*
X132317246Y-109863757D01*
X132251557Y-109661588D01*
X132155051Y-109472184D01*
X132155049Y-109472181D01*
X132155048Y-109472179D01*
X132030109Y-109300213D01*
X131879786Y-109149890D01*
X131707820Y-109024951D01*
X131707115Y-109024591D01*
X131699054Y-109020485D01*
X131648259Y-108972512D01*
X131631463Y-108904692D01*
X131653999Y-108838556D01*
X131699054Y-108799515D01*
X131707816Y-108795051D01*
X131778155Y-108743947D01*
X131879786Y-108670109D01*
X131879788Y-108670106D01*
X131879792Y-108670104D01*
X132030104Y-108519792D01*
X132030106Y-108519788D01*
X132030109Y-108519786D01*
X132155048Y-108347820D01*
X132155047Y-108347820D01*
X132155051Y-108347816D01*
X132251557Y-108158412D01*
X132317246Y-107956243D01*
X132350500Y-107746287D01*
X132350500Y-107533713D01*
X132317246Y-107323757D01*
X132251557Y-107121588D01*
X132155051Y-106932184D01*
X132155049Y-106932181D01*
X132155048Y-106932179D01*
X132030109Y-106760213D01*
X131879786Y-106609890D01*
X131707820Y-106484951D01*
X131707115Y-106484591D01*
X131699054Y-106480485D01*
X131648259Y-106432512D01*
X131631463Y-106364692D01*
X131653999Y-106298556D01*
X131699054Y-106259515D01*
X131707816Y-106255051D01*
X131770606Y-106209432D01*
X131879786Y-106130109D01*
X131879788Y-106130106D01*
X131879792Y-106130104D01*
X132030104Y-105979792D01*
X132030106Y-105979788D01*
X132030109Y-105979786D01*
X132155048Y-105807820D01*
X132155047Y-105807820D01*
X132155051Y-105807816D01*
X132251557Y-105618412D01*
X132317246Y-105416243D01*
X132350500Y-105206287D01*
X132350500Y-104993713D01*
X132317246Y-104783757D01*
X132251557Y-104581588D01*
X132155051Y-104392184D01*
X132155049Y-104392181D01*
X132155048Y-104392179D01*
X132030109Y-104220213D01*
X131879786Y-104069890D01*
X131707820Y-103944951D01*
X131707115Y-103944591D01*
X131699054Y-103940485D01*
X131648259Y-103892512D01*
X131631463Y-103824692D01*
X131653999Y-103758556D01*
X131699054Y-103719515D01*
X131707816Y-103715051D01*
X131758744Y-103678050D01*
X131879786Y-103590109D01*
X131879788Y-103590106D01*
X131879792Y-103590104D01*
X132030104Y-103439792D01*
X132030106Y-103439788D01*
X132030109Y-103439786D01*
X132155048Y-103267820D01*
X132155047Y-103267820D01*
X132155051Y-103267816D01*
X132251557Y-103078412D01*
X132317246Y-102876243D01*
X132350500Y-102666287D01*
X132350500Y-102453713D01*
X132317246Y-102243757D01*
X132251557Y-102041588D01*
X132155051Y-101852184D01*
X132155049Y-101852181D01*
X132155048Y-101852179D01*
X132030109Y-101680213D01*
X131879786Y-101529890D01*
X131707820Y-101404951D01*
X131707115Y-101404591D01*
X131699054Y-101400485D01*
X131648259Y-101352512D01*
X131631463Y-101284692D01*
X131653999Y-101218556D01*
X131699054Y-101179515D01*
X131707816Y-101175051D01*
X131729789Y-101159086D01*
X131879786Y-101050109D01*
X131879788Y-101050106D01*
X131879792Y-101050104D01*
X132030104Y-100899792D01*
X132030106Y-100899788D01*
X132030109Y-100899786D01*
X132155048Y-100727820D01*
X132155047Y-100727820D01*
X132155051Y-100727816D01*
X132251557Y-100538412D01*
X132317246Y-100336243D01*
X132350500Y-100126287D01*
X132350500Y-99913713D01*
X132317246Y-99703757D01*
X132251557Y-99501588D01*
X132155051Y-99312184D01*
X132155049Y-99312181D01*
X132155048Y-99312179D01*
X132030109Y-99140213D01*
X131879786Y-98989890D01*
X131707820Y-98864951D01*
X131707115Y-98864591D01*
X131699054Y-98860485D01*
X131648259Y-98812512D01*
X131631463Y-98744692D01*
X131653999Y-98678556D01*
X131699054Y-98639515D01*
X131707816Y-98635051D01*
X131729789Y-98619086D01*
X131879786Y-98510109D01*
X131879788Y-98510106D01*
X131879792Y-98510104D01*
X132030104Y-98359792D01*
X132030106Y-98359788D01*
X132030109Y-98359786D01*
X132155048Y-98187820D01*
X132155047Y-98187820D01*
X132155051Y-98187816D01*
X132251557Y-97998412D01*
X132317246Y-97796243D01*
X132350500Y-97586287D01*
X132350500Y-97373713D01*
X132317246Y-97163757D01*
X132251557Y-96961588D01*
X132155051Y-96772184D01*
X132155049Y-96772181D01*
X132155048Y-96772179D01*
X132030109Y-96600213D01*
X131879786Y-96449890D01*
X131707820Y-96324951D01*
X131707115Y-96324591D01*
X131699054Y-96320485D01*
X131648259Y-96272512D01*
X131631463Y-96204692D01*
X131653999Y-96138556D01*
X131699054Y-96099515D01*
X131707816Y-96095051D01*
X131806527Y-96023334D01*
X131879786Y-95970109D01*
X131879788Y-95970106D01*
X131879792Y-95970104D01*
X132030104Y-95819792D01*
X132030106Y-95819788D01*
X132030109Y-95819786D01*
X132155048Y-95647820D01*
X132155047Y-95647820D01*
X132155051Y-95647816D01*
X132251557Y-95458412D01*
X132317246Y-95256243D01*
X132350500Y-95046287D01*
X132350500Y-94833713D01*
X132317246Y-94623757D01*
X132251557Y-94421588D01*
X132155051Y-94232184D01*
X132155049Y-94232181D01*
X132155048Y-94232179D01*
X132030109Y-94060213D01*
X131879786Y-93909890D01*
X131707820Y-93784951D01*
X131707115Y-93784591D01*
X131699054Y-93780485D01*
X131648259Y-93732512D01*
X131631463Y-93664692D01*
X131653999Y-93598556D01*
X131699054Y-93559515D01*
X131707816Y-93555051D01*
X131820302Y-93473326D01*
X131879786Y-93430109D01*
X131879788Y-93430106D01*
X131879792Y-93430104D01*
X132030104Y-93279792D01*
X132030106Y-93279788D01*
X132030109Y-93279786D01*
X132155048Y-93107820D01*
X132155047Y-93107820D01*
X132155051Y-93107816D01*
X132251557Y-92918412D01*
X132317246Y-92716243D01*
X132350500Y-92506287D01*
X132350500Y-92293713D01*
X132317246Y-92083757D01*
X132251557Y-91881588D01*
X132155051Y-91692184D01*
X132155049Y-91692181D01*
X132155048Y-91692179D01*
X132030109Y-91520213D01*
X131879786Y-91369890D01*
X131707820Y-91244951D01*
X131707115Y-91244591D01*
X131699054Y-91240485D01*
X131648259Y-91192512D01*
X131631463Y-91124692D01*
X131653999Y-91058556D01*
X131699054Y-91019515D01*
X131707816Y-91015051D01*
X131869201Y-90897799D01*
X131879786Y-90890109D01*
X131879788Y-90890106D01*
X131879792Y-90890104D01*
X132030104Y-90739792D01*
X132030106Y-90739788D01*
X132030109Y-90739786D01*
X132155048Y-90567820D01*
X132155047Y-90567820D01*
X132155051Y-90567816D01*
X132251557Y-90378412D01*
X132317246Y-90176243D01*
X132350500Y-89966287D01*
X132350500Y-89753713D01*
X132317246Y-89543757D01*
X132251557Y-89341588D01*
X132155051Y-89152184D01*
X132155049Y-89152181D01*
X132155048Y-89152179D01*
X132030109Y-88980213D01*
X131879786Y-88829890D01*
X131707820Y-88704951D01*
X131707115Y-88704591D01*
X131699054Y-88700485D01*
X131648259Y-88652512D01*
X131631463Y-88584692D01*
X131653999Y-88518556D01*
X131699054Y-88479515D01*
X131707816Y-88475051D01*
X131769681Y-88430104D01*
X131879786Y-88350109D01*
X131879788Y-88350106D01*
X131879792Y-88350104D01*
X132030104Y-88199792D01*
X132030106Y-88199788D01*
X132030109Y-88199786D01*
X132155048Y-88027820D01*
X132155047Y-88027820D01*
X132155051Y-88027816D01*
X132251557Y-87838412D01*
X132317246Y-87636243D01*
X132350500Y-87426287D01*
X132350500Y-87213713D01*
X132317246Y-87003757D01*
X132251557Y-86801588D01*
X132155051Y-86612184D01*
X132155049Y-86612181D01*
X132155048Y-86612179D01*
X132030109Y-86440213D01*
X131879786Y-86289890D01*
X131707820Y-86164951D01*
X131707115Y-86164591D01*
X131699054Y-86160485D01*
X131648259Y-86112512D01*
X131631463Y-86044692D01*
X131653999Y-85978556D01*
X131699054Y-85939515D01*
X131707816Y-85935051D01*
X131769681Y-85890104D01*
X131879786Y-85810109D01*
X131879788Y-85810106D01*
X131879792Y-85810104D01*
X132030104Y-85659792D01*
X132030106Y-85659788D01*
X132030109Y-85659786D01*
X132155048Y-85487820D01*
X132155047Y-85487820D01*
X132155051Y-85487816D01*
X132251557Y-85298412D01*
X132317246Y-85096243D01*
X132350500Y-84886287D01*
X132350500Y-84673713D01*
X132317246Y-84463757D01*
X132251557Y-84261588D01*
X132155051Y-84072184D01*
X132155049Y-84072181D01*
X132155048Y-84072179D01*
X132030109Y-83900213D01*
X131879786Y-83749890D01*
X131707820Y-83624951D01*
X131707115Y-83624591D01*
X131699054Y-83620485D01*
X131648259Y-83572512D01*
X131631463Y-83504692D01*
X131653999Y-83438556D01*
X131699054Y-83399515D01*
X131707816Y-83395051D01*
X131769681Y-83350104D01*
X131879786Y-83270109D01*
X131879788Y-83270106D01*
X131879792Y-83270104D01*
X132030104Y-83119792D01*
X132030106Y-83119788D01*
X132030109Y-83119786D01*
X132155048Y-82947820D01*
X132155047Y-82947820D01*
X132155051Y-82947816D01*
X132251557Y-82758412D01*
X132317246Y-82556243D01*
X132350500Y-82346287D01*
X132350500Y-82133713D01*
X132317246Y-81923757D01*
X132251557Y-81721588D01*
X132155051Y-81532184D01*
X132155049Y-81532181D01*
X132155048Y-81532179D01*
X132030109Y-81360213D01*
X131879786Y-81209890D01*
X131707820Y-81084951D01*
X131707115Y-81084591D01*
X131699054Y-81080485D01*
X131648259Y-81032512D01*
X131631463Y-80964692D01*
X131653999Y-80898556D01*
X131699054Y-80859515D01*
X131707816Y-80855051D01*
X131782871Y-80800521D01*
X131879786Y-80730109D01*
X131879788Y-80730106D01*
X131879792Y-80730104D01*
X132030104Y-80579792D01*
X132030106Y-80579788D01*
X132030109Y-80579786D01*
X132155048Y-80407820D01*
X132155047Y-80407820D01*
X132155051Y-80407816D01*
X132251557Y-80218412D01*
X132317246Y-80016243D01*
X132350500Y-79806287D01*
X132350500Y-79593713D01*
X132317246Y-79383757D01*
X132251557Y-79181588D01*
X132155051Y-78992184D01*
X132155049Y-78992181D01*
X132155048Y-78992179D01*
X132030109Y-78820213D01*
X131879786Y-78669890D01*
X131707820Y-78544951D01*
X131707115Y-78544591D01*
X131699054Y-78540485D01*
X131648259Y-78492512D01*
X131631463Y-78424692D01*
X131653999Y-78358556D01*
X131699054Y-78319515D01*
X131707816Y-78315051D01*
X131735798Y-78294721D01*
X131879786Y-78190109D01*
X131879788Y-78190106D01*
X131879792Y-78190104D01*
X132030104Y-78039792D01*
X132030106Y-78039788D01*
X132030109Y-78039786D01*
X132155048Y-77867820D01*
X132155047Y-77867820D01*
X132155051Y-77867816D01*
X132251557Y-77678412D01*
X132317246Y-77476243D01*
X132350500Y-77266287D01*
X132350500Y-77053713D01*
X132317246Y-76843757D01*
X132251557Y-76641588D01*
X132155051Y-76452184D01*
X132155049Y-76452181D01*
X132155048Y-76452179D01*
X132030109Y-76280213D01*
X131879786Y-76129890D01*
X131707820Y-76004951D01*
X131707115Y-76004591D01*
X131699054Y-76000485D01*
X131648259Y-75952512D01*
X131631463Y-75884692D01*
X131653999Y-75818556D01*
X131699054Y-75779515D01*
X131707816Y-75775051D01*
X131729789Y-75759086D01*
X131879786Y-75650109D01*
X131879788Y-75650106D01*
X131879792Y-75650104D01*
X132030104Y-75499792D01*
X132030106Y-75499788D01*
X132030109Y-75499786D01*
X132155048Y-75327820D01*
X132155047Y-75327820D01*
X132155051Y-75327816D01*
X132251557Y-75138412D01*
X132317246Y-74936243D01*
X132350500Y-74726287D01*
X132350500Y-74513713D01*
X132317246Y-74303757D01*
X132251557Y-74101588D01*
X132155051Y-73912184D01*
X132155049Y-73912181D01*
X132155048Y-73912179D01*
X132030109Y-73740213D01*
X131879786Y-73589890D01*
X131707820Y-73464951D01*
X131707115Y-73464591D01*
X131699054Y-73460485D01*
X131648259Y-73412512D01*
X131631463Y-73344692D01*
X131653999Y-73278556D01*
X131699054Y-73239515D01*
X131707816Y-73235051D01*
X131729789Y-73219086D01*
X131879786Y-73110109D01*
X131879788Y-73110106D01*
X131879792Y-73110104D01*
X132030104Y-72959792D01*
X132030106Y-72959788D01*
X132030109Y-72959786D01*
X132155048Y-72787820D01*
X132155047Y-72787820D01*
X132155051Y-72787816D01*
X132251557Y-72598412D01*
X132317246Y-72396243D01*
X132350500Y-72186287D01*
X132350500Y-71973713D01*
X132317246Y-71763757D01*
X132251557Y-71561588D01*
X132155051Y-71372184D01*
X132155049Y-71372181D01*
X132155048Y-71372179D01*
X132030109Y-71200213D01*
X131879786Y-71049890D01*
X131707820Y-70924951D01*
X131707115Y-70924591D01*
X131699054Y-70920485D01*
X131648259Y-70872512D01*
X131631463Y-70804692D01*
X131653999Y-70738556D01*
X131699054Y-70699515D01*
X131707816Y-70695051D01*
X131729789Y-70679086D01*
X131879786Y-70570109D01*
X131879788Y-70570106D01*
X131879792Y-70570104D01*
X132030104Y-70419792D01*
X132030106Y-70419788D01*
X132030109Y-70419786D01*
X132155048Y-70247820D01*
X132155047Y-70247820D01*
X132155051Y-70247816D01*
X132251557Y-70058412D01*
X132317246Y-69856243D01*
X132350500Y-69646287D01*
X132350500Y-69433713D01*
X132317246Y-69223757D01*
X132251557Y-69021588D01*
X132155051Y-68832184D01*
X132155049Y-68832181D01*
X132155048Y-68832179D01*
X132030109Y-68660213D01*
X131879786Y-68509890D01*
X131707820Y-68384951D01*
X131707115Y-68384591D01*
X131699054Y-68380485D01*
X131648259Y-68332512D01*
X131631463Y-68264692D01*
X131653999Y-68198556D01*
X131699054Y-68159515D01*
X131707816Y-68155051D01*
X131729789Y-68139086D01*
X131879786Y-68030109D01*
X131879788Y-68030106D01*
X131879792Y-68030104D01*
X132030104Y-67879792D01*
X132030106Y-67879788D01*
X132030109Y-67879786D01*
X132155048Y-67707820D01*
X132155047Y-67707820D01*
X132155051Y-67707816D01*
X132251557Y-67518412D01*
X132317246Y-67316243D01*
X132350500Y-67106287D01*
X132350500Y-66893713D01*
X132317246Y-66683757D01*
X132251557Y-66481588D01*
X132155051Y-66292184D01*
X132155049Y-66292181D01*
X132155048Y-66292179D01*
X132030109Y-66120213D01*
X131879786Y-65969890D01*
X131707820Y-65844951D01*
X131707115Y-65844591D01*
X131699054Y-65840485D01*
X131648259Y-65792512D01*
X131631463Y-65724692D01*
X131653999Y-65658556D01*
X131699054Y-65619515D01*
X131707816Y-65615051D01*
X131729789Y-65599086D01*
X131879786Y-65490109D01*
X131879788Y-65490106D01*
X131879792Y-65490104D01*
X132030104Y-65339792D01*
X132030106Y-65339788D01*
X132030109Y-65339786D01*
X132155048Y-65167820D01*
X132155047Y-65167820D01*
X132155051Y-65167816D01*
X132251557Y-64978412D01*
X132317246Y-64776243D01*
X132350500Y-64566287D01*
X132350500Y-64353713D01*
X132317246Y-64143757D01*
X132251557Y-63941588D01*
X132155051Y-63752184D01*
X132155049Y-63752181D01*
X132155048Y-63752179D01*
X132030109Y-63580213D01*
X131879786Y-63429890D01*
X131707817Y-63304949D01*
X131698504Y-63300204D01*
X131647707Y-63252230D01*
X131630912Y-63184409D01*
X131653449Y-63118274D01*
X131698507Y-63079232D01*
X131707555Y-63074622D01*
X131761716Y-63035270D01*
X131761717Y-63035270D01*
X131129408Y-62402962D01*
X131192993Y-62385925D01*
X131307007Y-62320099D01*
X131400099Y-62227007D01*
X131465925Y-62112993D01*
X131482962Y-62049408D01*
X132115270Y-62681717D01*
X132115270Y-62681716D01*
X132154622Y-62627554D01*
X132251096Y-62438215D01*
X132284748Y-62334644D01*
X132324185Y-62276968D01*
X132388543Y-62249769D01*
X132457390Y-62261683D01*
X132490360Y-62285280D01*
X138963181Y-68758101D01*
X138996666Y-68819424D01*
X138999500Y-68845782D01*
X138999500Y-110848541D01*
X138999500Y-110848543D01*
X138999499Y-110848543D01*
X139037947Y-111041829D01*
X139037950Y-111041839D01*
X139113364Y-111223907D01*
X139113371Y-111223920D01*
X139222859Y-111387780D01*
X139222860Y-111387781D01*
X139222861Y-111387782D01*
X139362218Y-111527139D01*
X139362219Y-111527139D01*
X139369286Y-111534206D01*
X139369285Y-111534206D01*
X139369289Y-111534209D01*
X143312215Y-115477137D01*
X143312219Y-115477140D01*
X143476079Y-115586628D01*
X143476085Y-115586631D01*
X143476086Y-115586632D01*
X143658165Y-115662052D01*
X143851455Y-115700500D01*
X143851458Y-115700501D01*
X143851460Y-115700501D01*
X144054655Y-115700501D01*
X144054675Y-115700500D01*
X165498542Y-115700500D01*
X165529566Y-115694328D01*
X165595188Y-115681275D01*
X165691836Y-115662051D01*
X165745165Y-115639961D01*
X165873914Y-115586632D01*
X166037782Y-115477139D01*
X166177139Y-115337782D01*
X166177139Y-115337780D01*
X166187347Y-115327573D01*
X166187348Y-115327570D01*
X168127139Y-113387782D01*
X168236632Y-113223914D01*
X168280811Y-113117255D01*
X168312051Y-113041836D01*
X168350500Y-112848541D01*
X168350500Y-112651460D01*
X168350500Y-110378711D01*
X187649500Y-110378711D01*
X187649500Y-110621288D01*
X187681161Y-110861785D01*
X187743947Y-111096104D01*
X187836773Y-111320205D01*
X187836777Y-111320214D01*
X187845343Y-111335051D01*
X187958064Y-111530289D01*
X187958066Y-111530292D01*
X187958067Y-111530293D01*
X188105733Y-111722736D01*
X188105739Y-111722743D01*
X188277256Y-111894260D01*
X188277262Y-111894265D01*
X188469711Y-112041936D01*
X188679788Y-112163224D01*
X188903900Y-112256054D01*
X189138211Y-112318838D01*
X189318586Y-112342584D01*
X189378711Y-112350500D01*
X189378712Y-112350500D01*
X189621289Y-112350500D01*
X189669388Y-112344167D01*
X189861789Y-112318838D01*
X190096100Y-112256054D01*
X190320212Y-112163224D01*
X190530289Y-112041936D01*
X190722738Y-111894265D01*
X190894265Y-111722738D01*
X191041936Y-111530289D01*
X191163224Y-111320212D01*
X191256054Y-111096100D01*
X191318838Y-110861789D01*
X191350500Y-110621288D01*
X191350500Y-110378712D01*
X191318838Y-110138211D01*
X191256054Y-109903900D01*
X191163224Y-109679788D01*
X191041936Y-109469711D01*
X190894265Y-109277262D01*
X190894260Y-109277256D01*
X190722743Y-109105739D01*
X190722736Y-109105733D01*
X190530293Y-108958067D01*
X190530292Y-108958066D01*
X190530289Y-108958064D01*
X190338771Y-108847491D01*
X190320214Y-108836777D01*
X190320205Y-108836773D01*
X190096104Y-108743947D01*
X189861785Y-108681161D01*
X189621289Y-108649500D01*
X189621288Y-108649500D01*
X189378712Y-108649500D01*
X189378711Y-108649500D01*
X189138214Y-108681161D01*
X188903895Y-108743947D01*
X188679794Y-108836773D01*
X188679785Y-108836777D01*
X188521016Y-108928443D01*
X188470607Y-108957547D01*
X188469706Y-108958067D01*
X188277263Y-109105733D01*
X188277256Y-109105739D01*
X188105739Y-109277256D01*
X188105733Y-109277263D01*
X187958067Y-109469706D01*
X187836777Y-109679785D01*
X187836773Y-109679794D01*
X187743947Y-109903895D01*
X187681161Y-110138214D01*
X187649500Y-110378711D01*
X168350500Y-110378711D01*
X168350500Y-107481902D01*
X170449500Y-107481902D01*
X170449500Y-107718097D01*
X170486446Y-107951368D01*
X170559433Y-108175996D01*
X170646983Y-108347820D01*
X170666657Y-108386433D01*
X170805483Y-108577510D01*
X170972490Y-108744517D01*
X171163567Y-108883343D01*
X171226310Y-108915312D01*
X171374003Y-108990566D01*
X171374005Y-108990566D01*
X171374008Y-108990568D01*
X171479828Y-109024951D01*
X171598631Y-109063553D01*
X171831903Y-109100500D01*
X171831908Y-109100500D01*
X172068097Y-109100500D01*
X172301368Y-109063553D01*
X172525992Y-108990568D01*
X172736433Y-108883343D01*
X172927510Y-108744517D01*
X173094517Y-108577510D01*
X173233343Y-108386433D01*
X173340568Y-108175992D01*
X173413553Y-107951368D01*
X173444122Y-107758361D01*
X173450500Y-107718096D01*
X173450500Y-107481902D01*
X173413553Y-107248631D01*
X173367461Y-107106777D01*
X173340568Y-107024008D01*
X173340566Y-107024005D01*
X173340566Y-107024003D01*
X173272754Y-106890916D01*
X173246553Y-106839493D01*
X175480000Y-106839493D01*
X175480000Y-107020506D01*
X175508317Y-107199293D01*
X175564251Y-107371444D01*
X175564252Y-107371447D01*
X175646431Y-107532730D01*
X175657913Y-107548532D01*
X175657913Y-107548533D01*
X176255000Y-106951446D01*
X176255000Y-106979370D01*
X176280556Y-107074745D01*
X176329925Y-107160255D01*
X176399745Y-107230075D01*
X176485255Y-107279444D01*
X176580630Y-107305000D01*
X176608553Y-107305000D01*
X176011466Y-107902085D01*
X176011466Y-107902086D01*
X176027267Y-107913566D01*
X176027275Y-107913571D01*
X176188552Y-107995747D01*
X176188555Y-107995748D01*
X176360706Y-108051682D01*
X176539494Y-108080000D01*
X176625500Y-108080000D01*
X176692539Y-108099685D01*
X176738294Y-108152489D01*
X176749500Y-108204000D01*
X176749500Y-108290551D01*
X176777829Y-108469410D01*
X176833787Y-108641636D01*
X176833788Y-108641639D01*
X176867338Y-108707483D01*
X176911956Y-108795050D01*
X176916006Y-108802997D01*
X177022441Y-108949494D01*
X177022445Y-108949499D01*
X177150500Y-109077554D01*
X177150505Y-109077558D01*
X177278287Y-109170396D01*
X177297006Y-109183996D01*
X177402484Y-109237740D01*
X177458360Y-109266211D01*
X177458363Y-109266212D01*
X177544476Y-109294191D01*
X177630591Y-109322171D01*
X177706647Y-109334217D01*
X177809449Y-109350500D01*
X177809454Y-109350500D01*
X177990551Y-109350500D01*
X178077259Y-109336765D01*
X178169409Y-109322171D01*
X178341639Y-109266211D01*
X178502994Y-109183996D01*
X178649501Y-109077553D01*
X178777553Y-108949501D01*
X178883996Y-108802994D01*
X178966211Y-108641639D01*
X179022171Y-108469409D01*
X179041429Y-108347820D01*
X179050500Y-108290551D01*
X179050500Y-108204499D01*
X179070185Y-108137460D01*
X179122989Y-108091705D01*
X179174500Y-108080499D01*
X179867871Y-108080499D01*
X179867872Y-108080499D01*
X179927483Y-108074091D01*
X180062331Y-108023796D01*
X180177546Y-107937546D01*
X180263796Y-107822331D01*
X180314091Y-107687483D01*
X180320500Y-107627873D01*
X180320499Y-106232128D01*
X180314091Y-106172517D01*
X180308007Y-106156206D01*
X180263797Y-106037671D01*
X180263793Y-106037664D01*
X180177547Y-105922455D01*
X180177544Y-105922452D01*
X180062335Y-105836206D01*
X180062328Y-105836202D01*
X179927482Y-105785908D01*
X179927483Y-105785908D01*
X179867883Y-105779501D01*
X179867881Y-105779500D01*
X179867873Y-105779500D01*
X179867864Y-105779500D01*
X178472129Y-105779500D01*
X178472123Y-105779501D01*
X178412516Y-105785908D01*
X178277671Y-105836202D01*
X178277664Y-105836206D01*
X178162455Y-105922452D01*
X178162452Y-105922455D01*
X178076206Y-106037664D01*
X178076202Y-106037671D01*
X178025908Y-106172517D01*
X178019501Y-106232116D01*
X178019501Y-106232123D01*
X178019500Y-106232135D01*
X178019500Y-106776070D01*
X177999815Y-106843109D01*
X177947011Y-106888864D01*
X177877853Y-106898808D01*
X177814297Y-106869783D01*
X177776523Y-106811005D01*
X177773027Y-106795468D01*
X177751682Y-106660706D01*
X177695748Y-106488555D01*
X177695747Y-106488552D01*
X177613571Y-106327275D01*
X177613566Y-106327267D01*
X177602085Y-106311466D01*
X177005000Y-106908553D01*
X177005000Y-106880630D01*
X176979444Y-106785255D01*
X176930075Y-106699745D01*
X176860255Y-106629925D01*
X176774745Y-106580556D01*
X176679370Y-106555000D01*
X176651447Y-106555000D01*
X177248533Y-105957913D01*
X177232730Y-105946431D01*
X177071447Y-105864252D01*
X177071444Y-105864251D01*
X176899293Y-105808317D01*
X176720506Y-105780000D01*
X176539494Y-105780000D01*
X176360706Y-105808317D01*
X176188555Y-105864251D01*
X176188547Y-105864254D01*
X176027269Y-105946432D01*
X176011466Y-105957912D01*
X176011466Y-105957913D01*
X176608554Y-106555000D01*
X176580630Y-106555000D01*
X176485255Y-106580556D01*
X176399745Y-106629925D01*
X176329925Y-106699745D01*
X176280556Y-106785255D01*
X176255000Y-106880630D01*
X176255000Y-106908553D01*
X175657912Y-106311466D01*
X175646432Y-106327269D01*
X175564254Y-106488547D01*
X175564251Y-106488555D01*
X175508317Y-106660706D01*
X175480000Y-106839493D01*
X173246553Y-106839493D01*
X173233343Y-106813567D01*
X173094517Y-106622490D01*
X172927510Y-106455483D01*
X172736433Y-106316657D01*
X172700908Y-106298556D01*
X172525996Y-106209433D01*
X172301368Y-106136446D01*
X172245796Y-106127645D01*
X172068097Y-106099500D01*
X172068092Y-106099500D01*
X171831908Y-106099500D01*
X171831903Y-106099500D01*
X171598631Y-106136446D01*
X171374003Y-106209433D01*
X171163566Y-106316657D01*
X171064762Y-106388443D01*
X170972490Y-106455483D01*
X170972488Y-106455485D01*
X170972487Y-106455485D01*
X170805485Y-106622487D01*
X170805485Y-106622488D01*
X170805483Y-106622490D01*
X170749354Y-106699745D01*
X170666657Y-106813566D01*
X170559433Y-107024003D01*
X170486446Y-107248631D01*
X170449500Y-107481902D01*
X168350500Y-107481902D01*
X168350500Y-99215782D01*
X168370185Y-99148743D01*
X168386819Y-99128101D01*
X171458102Y-96056819D01*
X171519425Y-96023334D01*
X171545783Y-96020500D01*
X172179140Y-96020500D01*
X172246179Y-96040185D01*
X172291934Y-96092989D01*
X172301878Y-96162147D01*
X172272853Y-96225703D01*
X172222473Y-96260682D01*
X172207671Y-96266202D01*
X172207664Y-96266206D01*
X172092455Y-96352452D01*
X172092452Y-96352455D01*
X172006206Y-96467664D01*
X172006202Y-96467671D01*
X171955908Y-96602517D01*
X171949501Y-96662116D01*
X171949501Y-96662123D01*
X171949500Y-96662135D01*
X171949500Y-98457870D01*
X171949501Y-98457876D01*
X171955908Y-98517483D01*
X172006202Y-98652328D01*
X172006206Y-98652335D01*
X172092452Y-98767544D01*
X172092455Y-98767547D01*
X172207664Y-98853793D01*
X172207671Y-98853797D01*
X172342517Y-98904091D01*
X172342516Y-98904091D01*
X172349444Y-98904835D01*
X172402127Y-98910500D01*
X174197872Y-98910499D01*
X174257483Y-98904091D01*
X174392331Y-98853796D01*
X174507546Y-98767546D01*
X174593796Y-98652331D01*
X174644091Y-98517483D01*
X174650500Y-98457873D01*
X174650499Y-96662128D01*
X174644091Y-96602517D01*
X174593796Y-96467669D01*
X174593795Y-96467668D01*
X174593793Y-96467664D01*
X174507547Y-96352455D01*
X174507544Y-96352452D01*
X174392335Y-96266206D01*
X174392328Y-96266202D01*
X174260917Y-96217189D01*
X174204983Y-96175318D01*
X174180566Y-96109853D01*
X174195418Y-96041580D01*
X174216563Y-96013332D01*
X174330104Y-95899792D01*
X174455051Y-95727816D01*
X174551557Y-95538412D01*
X174617246Y-95336243D01*
X174650500Y-95126287D01*
X174650500Y-94913713D01*
X174635382Y-94818268D01*
X174644336Y-94748979D01*
X174670171Y-94711195D01*
X176532952Y-92848416D01*
X176584121Y-92771835D01*
X176615084Y-92725495D01*
X176671658Y-92588913D01*
X176700500Y-92443918D01*
X176700500Y-90092791D01*
X176720185Y-90025752D01*
X176736814Y-90005115D01*
X177153516Y-89588412D01*
X177214836Y-89554930D01*
X177284527Y-89559914D01*
X177340461Y-89601785D01*
X177363667Y-89656698D01*
X177390954Y-89828977D01*
X177390954Y-89828980D01*
X177456616Y-90031067D01*
X177553087Y-90220400D01*
X177592440Y-90274566D01*
X178224749Y-89642258D01*
X178241787Y-89705843D01*
X178307613Y-89819857D01*
X178400705Y-89912949D01*
X178514719Y-89978775D01*
X178578302Y-89995812D01*
X177945994Y-90628119D01*
X177945994Y-90628120D01*
X178000164Y-90667476D01*
X178000163Y-90667476D01*
X178009207Y-90672084D01*
X178060004Y-90720058D01*
X178076799Y-90787879D01*
X178054262Y-90854014D01*
X178009211Y-90893052D01*
X177999894Y-90897799D01*
X177827925Y-91022740D01*
X177677602Y-91173063D01*
X177552663Y-91345029D01*
X177456156Y-91534435D01*
X177390465Y-91736610D01*
X177367503Y-91881588D01*
X177357212Y-91946563D01*
X177357212Y-92159137D01*
X177357962Y-92163872D01*
X177387937Y-92353129D01*
X177390466Y-92369093D01*
X177447890Y-92545826D01*
X177456156Y-92571264D01*
X177552663Y-92760670D01*
X177677602Y-92932636D01*
X177827925Y-93082959D01*
X177999894Y-93207900D01*
X178008658Y-93212366D01*
X178059454Y-93260341D01*
X178076248Y-93328162D01*
X178053710Y-93394297D01*
X178008658Y-93433334D01*
X177999894Y-93437799D01*
X177827925Y-93562740D01*
X177677602Y-93713063D01*
X177552663Y-93885029D01*
X177456156Y-94074435D01*
X177390465Y-94276610D01*
X177367503Y-94421588D01*
X177357212Y-94486563D01*
X177357212Y-94699137D01*
X177390466Y-94909093D01*
X177435043Y-95046287D01*
X177456156Y-95111264D01*
X177552663Y-95300670D01*
X177677602Y-95472636D01*
X177827925Y-95622959D01*
X177999891Y-95747898D01*
X177999893Y-95747899D01*
X177999896Y-95747901D01*
X178189300Y-95844407D01*
X178391469Y-95910096D01*
X178601425Y-95943350D01*
X178601426Y-95943350D01*
X178813998Y-95943350D01*
X178813999Y-95943350D01*
X179023955Y-95910096D01*
X179226124Y-95844407D01*
X179415528Y-95747901D01*
X179553279Y-95647820D01*
X179587498Y-95622959D01*
X179587500Y-95622956D01*
X179587504Y-95622954D01*
X179737816Y-95472642D01*
X179737818Y-95472638D01*
X179737821Y-95472636D01*
X179862760Y-95300670D01*
X179862759Y-95300670D01*
X179862763Y-95300666D01*
X179959269Y-95111262D01*
X180024958Y-94909093D01*
X180058212Y-94699137D01*
X180058212Y-94486563D01*
X180024958Y-94276607D01*
X179959269Y-94074438D01*
X179862763Y-93885034D01*
X179862761Y-93885031D01*
X179862760Y-93885029D01*
X179737821Y-93713063D01*
X179587498Y-93562740D01*
X179415532Y-93437801D01*
X179414827Y-93437441D01*
X179406766Y-93433335D01*
X179355971Y-93385362D01*
X179339175Y-93317542D01*
X179361711Y-93251406D01*
X179406766Y-93212365D01*
X179415528Y-93207901D01*
X179553279Y-93107820D01*
X179587498Y-93082959D01*
X179587500Y-93082956D01*
X179587504Y-93082954D01*
X179737816Y-92932642D01*
X179737818Y-92932638D01*
X179737821Y-92932636D01*
X179862760Y-92760670D01*
X179862759Y-92760670D01*
X179862763Y-92760666D01*
X179959269Y-92571262D01*
X180024958Y-92369093D01*
X180058212Y-92159137D01*
X180058212Y-91946563D01*
X180024958Y-91736607D01*
X179959269Y-91534438D01*
X179862763Y-91345034D01*
X179862761Y-91345031D01*
X179862760Y-91345029D01*
X179737821Y-91173063D01*
X179587498Y-91022740D01*
X179415529Y-90897799D01*
X179406216Y-90893054D01*
X179355419Y-90845080D01*
X179338624Y-90777259D01*
X179361161Y-90711124D01*
X179406219Y-90672082D01*
X179415267Y-90667472D01*
X179469428Y-90628120D01*
X179469429Y-90628120D01*
X178837120Y-89995812D01*
X178900705Y-89978775D01*
X179014719Y-89912949D01*
X179107811Y-89819857D01*
X179173637Y-89705843D01*
X179190674Y-89642258D01*
X179822982Y-90274567D01*
X179822982Y-90274566D01*
X179862334Y-90220404D01*
X179958807Y-90031067D01*
X180024469Y-89828980D01*
X180024469Y-89828977D01*
X180057712Y-89619096D01*
X180057712Y-89406603D01*
X180024469Y-89196722D01*
X180024469Y-89196719D01*
X179958807Y-88994632D01*
X179862336Y-88805299D01*
X179822982Y-88751132D01*
X179822981Y-88751132D01*
X179190674Y-89383440D01*
X179173637Y-89319857D01*
X179107811Y-89205843D01*
X179014719Y-89112751D01*
X178900705Y-89046925D01*
X178837120Y-89029887D01*
X179469428Y-88397578D01*
X179415259Y-88358223D01*
X179415259Y-88358222D01*
X179406212Y-88353613D01*
X179355418Y-88305638D01*
X179338624Y-88237816D01*
X179361163Y-88171682D01*
X179406220Y-88132643D01*
X179415528Y-88127901D01*
X179553279Y-88027820D01*
X179587498Y-88002959D01*
X179587500Y-88002956D01*
X179587504Y-88002954D01*
X179737816Y-87852642D01*
X179737818Y-87852638D01*
X179737821Y-87852636D01*
X179862760Y-87680670D01*
X179862759Y-87680670D01*
X179862763Y-87680666D01*
X179959269Y-87491262D01*
X180024958Y-87289093D01*
X180058212Y-87079137D01*
X180058212Y-86866563D01*
X180024958Y-86656607D01*
X179959269Y-86454438D01*
X179862763Y-86265034D01*
X179862761Y-86265031D01*
X179862760Y-86265029D01*
X179737821Y-86093063D01*
X179587498Y-85942740D01*
X179415532Y-85817801D01*
X179414827Y-85817441D01*
X179406766Y-85813335D01*
X179355971Y-85765362D01*
X179339175Y-85697542D01*
X179361711Y-85631406D01*
X179406766Y-85592365D01*
X179415528Y-85587901D01*
X179494968Y-85530185D01*
X179587498Y-85462959D01*
X179587500Y-85462956D01*
X179587504Y-85462954D01*
X179737816Y-85312642D01*
X179737818Y-85312638D01*
X179737821Y-85312636D01*
X179862760Y-85140670D01*
X179862759Y-85140670D01*
X179862763Y-85140666D01*
X179959269Y-84951262D01*
X180024958Y-84749093D01*
X180058212Y-84539137D01*
X180058212Y-84326563D01*
X180024958Y-84116607D01*
X179959269Y-83914438D01*
X179862763Y-83725034D01*
X179862761Y-83725031D01*
X179862760Y-83725029D01*
X179737821Y-83553063D01*
X179624281Y-83439523D01*
X179590796Y-83378200D01*
X179595780Y-83308508D01*
X179637652Y-83252575D01*
X179668627Y-83235660D01*
X179800043Y-83186646D01*
X179915258Y-83100396D01*
X180001508Y-82985181D01*
X180051803Y-82850333D01*
X180058212Y-82790723D01*
X180058211Y-80994978D01*
X180051803Y-80935367D01*
X180038073Y-80898556D01*
X180001509Y-80800521D01*
X180001505Y-80800514D01*
X179915259Y-80685305D01*
X179915256Y-80685302D01*
X179800047Y-80599056D01*
X179800040Y-80599052D01*
X179665194Y-80548758D01*
X179665195Y-80548758D01*
X179605595Y-80542351D01*
X179605593Y-80542350D01*
X179605585Y-80542350D01*
X179605576Y-80542350D01*
X177809841Y-80542350D01*
X177809835Y-80542351D01*
X177750228Y-80548758D01*
X177615383Y-80599052D01*
X177615376Y-80599056D01*
X177500167Y-80685302D01*
X177500164Y-80685305D01*
X177413918Y-80800514D01*
X177413914Y-80800521D01*
X177363620Y-80935367D01*
X177357213Y-80994966D01*
X177357213Y-80994973D01*
X177357212Y-80994985D01*
X177357212Y-82790720D01*
X177357213Y-82790726D01*
X177363620Y-82850333D01*
X177413914Y-82985178D01*
X177413918Y-82985185D01*
X177500164Y-83100394D01*
X177500167Y-83100397D01*
X177615376Y-83186643D01*
X177615383Y-83186647D01*
X177746794Y-83235660D01*
X177802728Y-83277531D01*
X177827145Y-83342995D01*
X177812294Y-83411268D01*
X177791143Y-83439523D01*
X177677601Y-83553065D01*
X177552663Y-83725029D01*
X177456156Y-83914435D01*
X177390465Y-84116610D01*
X177357212Y-84326563D01*
X177357212Y-84539136D01*
X177390465Y-84749090D01*
X177390466Y-84749094D01*
X177411248Y-84813056D01*
X177413243Y-84882897D01*
X177380998Y-84939054D01*
X174862181Y-87457872D01*
X174800858Y-87491357D01*
X174731166Y-87486373D01*
X174675233Y-87444501D01*
X174650816Y-87379037D01*
X174650500Y-87370191D01*
X174650500Y-87293713D01*
X174649768Y-87289089D01*
X174617246Y-87083757D01*
X174551557Y-86881588D01*
X174455051Y-86692184D01*
X174455049Y-86692181D01*
X174455048Y-86692179D01*
X174330109Y-86520213D01*
X174179786Y-86369890D01*
X174007820Y-86244951D01*
X174007115Y-86244591D01*
X173999054Y-86240485D01*
X173948259Y-86192512D01*
X173931463Y-86124692D01*
X173953999Y-86058556D01*
X173999054Y-86019515D01*
X174007816Y-86015051D01*
X174045749Y-85987491D01*
X174179786Y-85890109D01*
X174179788Y-85890106D01*
X174179792Y-85890104D01*
X174330104Y-85739792D01*
X174330106Y-85739788D01*
X174330109Y-85739786D01*
X174455048Y-85567820D01*
X174455047Y-85567820D01*
X174455051Y-85567816D01*
X174551557Y-85378412D01*
X174617246Y-85176243D01*
X174650500Y-84966287D01*
X174650500Y-84753713D01*
X174617246Y-84543757D01*
X174551557Y-84341588D01*
X174455051Y-84152184D01*
X174455049Y-84152181D01*
X174455048Y-84152179D01*
X174330109Y-83980213D01*
X174179786Y-83829890D01*
X174007820Y-83704951D01*
X174007115Y-83704591D01*
X173999054Y-83700485D01*
X173948259Y-83652512D01*
X173931463Y-83584692D01*
X173953999Y-83518556D01*
X173999054Y-83479515D01*
X174007816Y-83475051D01*
X174045749Y-83447491D01*
X174179786Y-83350109D01*
X174179788Y-83350106D01*
X174179792Y-83350104D01*
X174330104Y-83199792D01*
X174330106Y-83199788D01*
X174330109Y-83199786D01*
X174455048Y-83027820D01*
X174455047Y-83027820D01*
X174455051Y-83027816D01*
X174551557Y-82838412D01*
X174617246Y-82636243D01*
X174650500Y-82426287D01*
X174650500Y-82213713D01*
X174617246Y-82003757D01*
X174551557Y-81801588D01*
X174455051Y-81612184D01*
X174455049Y-81612181D01*
X174455048Y-81612179D01*
X174330109Y-81440213D01*
X174179786Y-81289890D01*
X174007820Y-81164951D01*
X173818414Y-81068444D01*
X173818413Y-81068443D01*
X173818412Y-81068443D01*
X173616243Y-81002754D01*
X173616241Y-81002753D01*
X173616240Y-81002753D01*
X173442982Y-80975312D01*
X173406287Y-80969500D01*
X173193713Y-80969500D01*
X173157018Y-80975312D01*
X172983760Y-81002753D01*
X172781585Y-81068444D01*
X172592179Y-81164951D01*
X172420213Y-81289890D01*
X172269890Y-81440213D01*
X172144951Y-81612179D01*
X172048444Y-81801585D01*
X171982753Y-82003760D01*
X171949500Y-82213713D01*
X171949500Y-82426286D01*
X171970082Y-82556239D01*
X171982754Y-82636243D01*
X172022449Y-82758412D01*
X172048444Y-82838414D01*
X172144951Y-83027820D01*
X172269890Y-83199786D01*
X172420213Y-83350109D01*
X172592182Y-83475050D01*
X172600946Y-83479516D01*
X172651742Y-83527491D01*
X172668536Y-83595312D01*
X172645998Y-83661447D01*
X172600946Y-83700484D01*
X172592182Y-83704949D01*
X172420213Y-83829890D01*
X172269890Y-83980213D01*
X172142085Y-84156125D01*
X172140740Y-84155148D01*
X172094295Y-84197166D01*
X172040382Y-84209500D01*
X168080808Y-84209500D01*
X168013769Y-84189815D01*
X167993127Y-84173181D01*
X161386819Y-77566873D01*
X161353334Y-77505550D01*
X161350500Y-77479192D01*
X161350500Y-73078711D01*
X164399500Y-73078711D01*
X164399500Y-73321288D01*
X164431161Y-73561785D01*
X164493947Y-73796104D01*
X164581008Y-74006286D01*
X164586776Y-74020212D01*
X164708064Y-74230289D01*
X164708066Y-74230292D01*
X164708067Y-74230293D01*
X164855733Y-74422736D01*
X164855739Y-74422743D01*
X165027256Y-74594260D01*
X165027263Y-74594266D01*
X165044927Y-74607820D01*
X165219711Y-74741936D01*
X165429788Y-74863224D01*
X165653900Y-74956054D01*
X165888211Y-75018838D01*
X166068586Y-75042584D01*
X166128711Y-75050500D01*
X166128712Y-75050500D01*
X166371289Y-75050500D01*
X166419388Y-75044167D01*
X166611789Y-75018838D01*
X166846100Y-74956054D01*
X167070212Y-74863224D01*
X167280289Y-74741936D01*
X167472738Y-74594265D01*
X167644265Y-74422738D01*
X167791936Y-74230289D01*
X167913224Y-74020212D01*
X168006054Y-73796100D01*
X168068838Y-73561789D01*
X168100500Y-73321288D01*
X168100500Y-73078712D01*
X168068838Y-72838211D01*
X168006054Y-72603900D01*
X167913224Y-72379788D01*
X167791936Y-72169711D01*
X167644265Y-71977262D01*
X167644260Y-71977256D01*
X167472743Y-71805739D01*
X167472736Y-71805733D01*
X167280293Y-71658067D01*
X167280292Y-71658066D01*
X167280289Y-71658064D01*
X167070212Y-71536776D01*
X167070205Y-71536773D01*
X166846104Y-71443947D01*
X166611785Y-71381161D01*
X166371289Y-71349500D01*
X166371288Y-71349500D01*
X166128712Y-71349500D01*
X166128711Y-71349500D01*
X165888214Y-71381161D01*
X165653895Y-71443947D01*
X165429794Y-71536773D01*
X165429785Y-71536777D01*
X165219706Y-71658067D01*
X165027263Y-71805733D01*
X165027256Y-71805739D01*
X164855739Y-71977256D01*
X164855733Y-71977263D01*
X164708067Y-72169706D01*
X164586777Y-72379785D01*
X164586773Y-72379794D01*
X164493947Y-72603895D01*
X164431161Y-72838214D01*
X164399500Y-73078711D01*
X161350500Y-73078711D01*
X161350500Y-63485928D01*
X161325502Y-63360261D01*
X161325501Y-63360260D01*
X161325501Y-63360256D01*
X161288323Y-63270500D01*
X161276466Y-63241874D01*
X161254128Y-63208443D01*
X161205278Y-63135332D01*
X161205272Y-63135325D01*
X157854940Y-59784994D01*
X157821455Y-59723671D01*
X157820148Y-59677919D01*
X157850500Y-59486287D01*
X157850500Y-59273713D01*
X157817246Y-59063757D01*
X157751557Y-58861588D01*
X157655051Y-58672184D01*
X157655049Y-58672181D01*
X157655048Y-58672179D01*
X157530109Y-58500213D01*
X157379786Y-58349890D01*
X157207820Y-58224951D01*
X157207115Y-58224591D01*
X157199054Y-58220485D01*
X157148259Y-58172512D01*
X157131463Y-58104692D01*
X157153999Y-58038556D01*
X157199054Y-57999515D01*
X157207816Y-57995051D01*
X157262572Y-57955269D01*
X157379786Y-57870109D01*
X157379788Y-57870106D01*
X157379792Y-57870104D01*
X157530104Y-57719792D01*
X157530106Y-57719788D01*
X157530109Y-57719786D01*
X157657915Y-57543875D01*
X157659259Y-57544851D01*
X157705705Y-57502834D01*
X157759618Y-57490500D01*
X163059192Y-57490500D01*
X163126231Y-57510185D01*
X163146873Y-57526819D01*
X177957873Y-72337819D01*
X177991358Y-72399142D01*
X177986374Y-72468834D01*
X177944502Y-72524767D01*
X177879038Y-72549184D01*
X177870192Y-72549500D01*
X177793713Y-72549500D01*
X177745042Y-72557208D01*
X177583760Y-72582753D01*
X177381585Y-72648444D01*
X177192179Y-72744951D01*
X177020213Y-72869890D01*
X176869890Y-73020213D01*
X176744949Y-73192182D01*
X176740484Y-73200946D01*
X176692509Y-73251742D01*
X176624688Y-73268536D01*
X176558553Y-73245998D01*
X176519516Y-73200946D01*
X176515050Y-73192182D01*
X176390109Y-73020213D01*
X176239786Y-72869890D01*
X176067820Y-72744951D01*
X175878414Y-72648444D01*
X175878413Y-72648443D01*
X175878412Y-72648443D01*
X175676243Y-72582754D01*
X175676241Y-72582753D01*
X175676240Y-72582753D01*
X175514957Y-72557208D01*
X175466287Y-72549500D01*
X175253713Y-72549500D01*
X175205042Y-72557208D01*
X175043760Y-72582753D01*
X174841585Y-72648444D01*
X174652179Y-72744951D01*
X174480213Y-72869890D01*
X174329890Y-73020213D01*
X174204949Y-73192182D01*
X174200484Y-73200946D01*
X174152509Y-73251742D01*
X174084688Y-73268536D01*
X174018553Y-73245998D01*
X173979516Y-73200946D01*
X173975050Y-73192182D01*
X173850109Y-73020213D01*
X173699786Y-72869890D01*
X173527820Y-72744951D01*
X173338414Y-72648444D01*
X173338413Y-72648443D01*
X173338412Y-72648443D01*
X173136243Y-72582754D01*
X173136241Y-72582753D01*
X173136240Y-72582753D01*
X172974957Y-72557208D01*
X172926287Y-72549500D01*
X172713713Y-72549500D01*
X172665042Y-72557208D01*
X172503760Y-72582753D01*
X172301585Y-72648444D01*
X172112179Y-72744951D01*
X171940215Y-72869889D01*
X171826673Y-72983431D01*
X171765350Y-73016915D01*
X171695658Y-73011931D01*
X171639725Y-72970059D01*
X171622810Y-72939082D01*
X171573797Y-72807671D01*
X171573793Y-72807664D01*
X171487547Y-72692455D01*
X171487544Y-72692452D01*
X171372335Y-72606206D01*
X171372328Y-72606202D01*
X171237482Y-72555908D01*
X171237483Y-72555908D01*
X171177883Y-72549501D01*
X171177881Y-72549500D01*
X171177873Y-72549500D01*
X171177864Y-72549500D01*
X169382129Y-72549500D01*
X169382123Y-72549501D01*
X169322516Y-72555908D01*
X169187671Y-72606202D01*
X169187664Y-72606206D01*
X169072455Y-72692452D01*
X169072452Y-72692455D01*
X168986206Y-72807664D01*
X168986202Y-72807671D01*
X168935908Y-72942517D01*
X168929501Y-73002116D01*
X168929500Y-73002135D01*
X168929500Y-74797870D01*
X168929501Y-74797876D01*
X168935908Y-74857483D01*
X168986202Y-74992328D01*
X168986206Y-74992335D01*
X169072452Y-75107544D01*
X169072455Y-75107547D01*
X169187664Y-75193793D01*
X169187671Y-75193797D01*
X169322517Y-75244091D01*
X169322516Y-75244091D01*
X169329444Y-75244835D01*
X169382127Y-75250500D01*
X171177872Y-75250499D01*
X171237483Y-75244091D01*
X171372331Y-75193796D01*
X171487546Y-75107546D01*
X171573796Y-74992331D01*
X171622810Y-74860916D01*
X171664681Y-74804984D01*
X171730145Y-74780566D01*
X171798418Y-74795417D01*
X171826673Y-74816569D01*
X171940213Y-74930109D01*
X172112179Y-75055048D01*
X172112181Y-75055049D01*
X172112184Y-75055051D01*
X172301588Y-75151557D01*
X172503757Y-75217246D01*
X172713713Y-75250500D01*
X172713714Y-75250500D01*
X172926286Y-75250500D01*
X172926287Y-75250500D01*
X173083385Y-75225618D01*
X173152679Y-75234573D01*
X173190464Y-75260410D01*
X177235325Y-79305272D01*
X177235331Y-79305277D01*
X177341874Y-79376466D01*
X177411221Y-79405189D01*
X177460256Y-79425501D01*
X177460259Y-79425501D01*
X177460260Y-79425502D01*
X177585928Y-79450500D01*
X177585931Y-79450500D01*
X177585932Y-79450500D01*
X177714069Y-79450500D01*
X179579192Y-79450500D01*
X179646231Y-79470185D01*
X179666873Y-79486819D01*
X185118175Y-84938122D01*
X185118176Y-84938123D01*
X185118179Y-84938125D01*
X185118181Y-84938127D01*
X185224723Y-85009315D01*
X185343106Y-85058351D01*
X185343110Y-85058351D01*
X185343111Y-85058352D01*
X185468778Y-85083350D01*
X185468781Y-85083350D01*
X187848094Y-85083350D01*
X187915133Y-85103035D01*
X187948811Y-85137441D01*
X187949797Y-85136725D01*
X188077602Y-85312636D01*
X188227925Y-85462959D01*
X188399894Y-85587900D01*
X188408658Y-85592366D01*
X188459454Y-85640341D01*
X188476248Y-85708162D01*
X188453710Y-85774297D01*
X188408658Y-85813334D01*
X188399894Y-85817799D01*
X188227925Y-85942740D01*
X188077604Y-86093061D01*
X188001085Y-86198384D01*
X187945755Y-86241051D01*
X187900766Y-86249500D01*
X186326080Y-86249500D01*
X186181092Y-86278340D01*
X186181082Y-86278343D01*
X186044511Y-86334912D01*
X186044498Y-86334919D01*
X185921584Y-86417048D01*
X185921580Y-86417051D01*
X183867047Y-88471584D01*
X183867043Y-88471589D01*
X183841714Y-88509499D01*
X183841714Y-88509500D01*
X183784913Y-88594508D01*
X183728343Y-88731082D01*
X183728340Y-88731092D01*
X183699500Y-88876079D01*
X183699500Y-97387770D01*
X183679815Y-97454809D01*
X183663181Y-97475451D01*
X179025451Y-102113181D01*
X178964128Y-102146666D01*
X178937770Y-102149500D01*
X176193733Y-102149500D01*
X176126694Y-102129815D01*
X176080939Y-102077011D01*
X176076028Y-102064506D01*
X176068432Y-102041585D01*
X176064814Y-102030666D01*
X175972712Y-101881344D01*
X175848656Y-101757288D01*
X175723689Y-101680208D01*
X175699336Y-101665187D01*
X175699331Y-101665185D01*
X175697862Y-101664698D01*
X175532797Y-101610001D01*
X175532795Y-101610000D01*
X175430010Y-101599500D01*
X174229998Y-101599500D01*
X174229981Y-101599501D01*
X174127203Y-101610000D01*
X174127200Y-101610001D01*
X173960668Y-101665185D01*
X173960663Y-101665187D01*
X173811342Y-101757289D01*
X173687289Y-101881342D01*
X173595187Y-102030663D01*
X173595185Y-102030668D01*
X173579829Y-102077011D01*
X173540001Y-102197203D01*
X173540001Y-102197204D01*
X173540000Y-102197204D01*
X173529500Y-102299983D01*
X173529500Y-103500001D01*
X173529501Y-103500018D01*
X173540000Y-103602796D01*
X173540001Y-103602799D01*
X173594575Y-103767491D01*
X173595186Y-103769334D01*
X173687288Y-103918656D01*
X173811344Y-104042712D01*
X173960666Y-104134814D01*
X174127203Y-104189999D01*
X174229991Y-104200500D01*
X175430008Y-104200499D01*
X175532797Y-104189999D01*
X175699334Y-104134814D01*
X175848656Y-104042712D01*
X175972712Y-103918656D01*
X176064814Y-103769334D01*
X176076028Y-103735494D01*
X176115801Y-103678050D01*
X176180317Y-103651228D01*
X176193733Y-103650500D01*
X179373920Y-103650500D01*
X179471462Y-103631096D01*
X179518913Y-103621658D01*
X179655495Y-103565084D01*
X179719899Y-103522051D01*
X179778416Y-103482952D01*
X181090297Y-102171071D01*
X181151620Y-102137586D01*
X181221312Y-102142570D01*
X181277245Y-102184442D01*
X181301662Y-102249906D01*
X181288463Y-102315046D01*
X181244782Y-102400773D01*
X181181522Y-102595465D01*
X181149500Y-102797648D01*
X181149500Y-103002351D01*
X181181522Y-103204534D01*
X181244781Y-103399223D01*
X181337715Y-103581613D01*
X181458028Y-103747213D01*
X181602786Y-103891971D01*
X181757749Y-104004556D01*
X181768390Y-104012287D01*
X181881442Y-104069890D01*
X181950776Y-104105218D01*
X181950778Y-104105218D01*
X181950781Y-104105220D01*
X182041856Y-104134812D01*
X182145465Y-104168477D01*
X182246557Y-104184488D01*
X182347648Y-104200500D01*
X182347649Y-104200500D01*
X182552351Y-104200500D01*
X182552352Y-104200500D01*
X182754534Y-104168477D01*
X182949219Y-104105220D01*
X183131610Y-104012287D01*
X183260482Y-103918657D01*
X183297213Y-103891971D01*
X183297215Y-103891968D01*
X183297219Y-103891966D01*
X183441966Y-103747219D01*
X183441968Y-103747215D01*
X183441971Y-103747213D01*
X183512236Y-103650500D01*
X183562287Y-103581610D01*
X183655220Y-103399219D01*
X183718477Y-103204534D01*
X183750500Y-103002352D01*
X183750500Y-102797648D01*
X183718477Y-102595466D01*
X183655220Y-102400781D01*
X183655218Y-102400778D01*
X183655218Y-102400776D01*
X183603865Y-102299991D01*
X183562287Y-102218390D01*
X183510177Y-102146666D01*
X183441971Y-102052786D01*
X183297213Y-101908028D01*
X183131613Y-101787715D01*
X183131612Y-101787714D01*
X183131610Y-101787713D01*
X183071898Y-101757288D01*
X182949223Y-101694781D01*
X182754534Y-101631522D01*
X182579995Y-101603878D01*
X182552352Y-101599500D01*
X182347648Y-101599500D01*
X182323329Y-101603351D01*
X182145465Y-101631522D01*
X181950773Y-101694782D01*
X181865046Y-101738463D01*
X181796377Y-101751359D01*
X181731637Y-101725082D01*
X181691380Y-101667976D01*
X181688388Y-101598170D01*
X181721071Y-101540297D01*
X185032947Y-98228421D01*
X185032952Y-98228416D01*
X185060080Y-98187816D01*
X185110589Y-98112223D01*
X185110591Y-98112218D01*
X185115084Y-98105495D01*
X185171658Y-97968913D01*
X185200500Y-97823918D01*
X185200500Y-89312229D01*
X185220185Y-89245190D01*
X185236819Y-89224548D01*
X186674548Y-87786819D01*
X186735871Y-87753334D01*
X186762229Y-87750500D01*
X187940216Y-87750500D01*
X188007255Y-87770185D01*
X188040534Y-87801615D01*
X188077602Y-87852635D01*
X188077606Y-87852640D01*
X188227925Y-88002959D01*
X188399891Y-88127898D01*
X188399893Y-88127899D01*
X188399896Y-88127901D01*
X188409205Y-88132644D01*
X188460002Y-88180616D01*
X188476799Y-88248437D01*
X188454264Y-88314572D01*
X188409217Y-88353610D01*
X188400158Y-88358226D01*
X188400152Y-88358230D01*
X188345994Y-88397577D01*
X188345994Y-88397578D01*
X188978303Y-89029887D01*
X188914719Y-89046925D01*
X188800705Y-89112751D01*
X188707613Y-89205843D01*
X188641787Y-89319857D01*
X188624749Y-89383440D01*
X187992440Y-88751132D01*
X187992439Y-88751132D01*
X187953092Y-88805289D01*
X187856616Y-88994632D01*
X187790954Y-89196719D01*
X187790954Y-89196722D01*
X187757712Y-89406603D01*
X187757712Y-89619096D01*
X187790954Y-89828977D01*
X187790954Y-89828980D01*
X187856616Y-90031067D01*
X187953087Y-90220400D01*
X187992440Y-90274566D01*
X188624749Y-89642258D01*
X188641787Y-89705843D01*
X188707613Y-89819857D01*
X188800705Y-89912949D01*
X188914719Y-89978775D01*
X188978302Y-89995812D01*
X188345994Y-90628119D01*
X188345994Y-90628120D01*
X188400164Y-90667476D01*
X188400163Y-90667476D01*
X188409207Y-90672084D01*
X188460004Y-90720058D01*
X188476799Y-90787879D01*
X188454262Y-90854014D01*
X188409211Y-90893052D01*
X188399894Y-90897799D01*
X188227925Y-91022740D01*
X188077602Y-91173063D01*
X187952663Y-91345029D01*
X187856156Y-91534435D01*
X187790465Y-91736610D01*
X187767503Y-91881588D01*
X187757212Y-91946563D01*
X187757212Y-92159137D01*
X187757962Y-92163872D01*
X187787937Y-92353129D01*
X187790466Y-92369093D01*
X187847890Y-92545826D01*
X187856156Y-92571264D01*
X187952663Y-92760670D01*
X188077602Y-92932636D01*
X188227925Y-93082959D01*
X188399894Y-93207900D01*
X188408658Y-93212366D01*
X188459454Y-93260341D01*
X188476248Y-93328162D01*
X188453710Y-93394297D01*
X188408658Y-93433334D01*
X188399894Y-93437799D01*
X188227925Y-93562740D01*
X188077602Y-93713063D01*
X187952663Y-93885029D01*
X187856156Y-94074435D01*
X187790465Y-94276610D01*
X187767503Y-94421588D01*
X187757212Y-94486563D01*
X187757212Y-94699137D01*
X187790466Y-94909093D01*
X187835043Y-95046287D01*
X187856156Y-95111264D01*
X187952663Y-95300670D01*
X188077602Y-95472636D01*
X188227925Y-95622959D01*
X188399891Y-95747898D01*
X188399893Y-95747899D01*
X188399896Y-95747901D01*
X188589300Y-95844407D01*
X188791469Y-95910096D01*
X189001425Y-95943350D01*
X189001426Y-95943350D01*
X189213998Y-95943350D01*
X189213999Y-95943350D01*
X189423955Y-95910096D01*
X189626124Y-95844407D01*
X189815528Y-95747901D01*
X189953279Y-95647820D01*
X189987498Y-95622959D01*
X189987500Y-95622956D01*
X189987504Y-95622954D01*
X190137816Y-95472642D01*
X190137818Y-95472638D01*
X190137821Y-95472636D01*
X190262760Y-95300670D01*
X190262759Y-95300670D01*
X190262763Y-95300666D01*
X190359269Y-95111262D01*
X190424958Y-94909093D01*
X190458212Y-94699137D01*
X190458212Y-94486563D01*
X190447920Y-94421585D01*
X190424196Y-94271795D01*
X190425835Y-94271535D01*
X190428969Y-94208976D01*
X190458367Y-94162139D01*
X193155277Y-91465231D01*
X193226465Y-91358689D01*
X193232121Y-91345034D01*
X193275501Y-91240306D01*
X193300500Y-91114631D01*
X193300500Y-79535931D01*
X193300500Y-79535928D01*
X193275502Y-79410261D01*
X193275501Y-79410260D01*
X193275501Y-79410256D01*
X193226465Y-79291873D01*
X193174880Y-79214670D01*
X193155277Y-79185331D01*
X192337437Y-78367491D01*
X191514674Y-77544727D01*
X191514673Y-77544726D01*
X191493463Y-77530554D01*
X191408127Y-77473535D01*
X191289744Y-77424499D01*
X191289738Y-77424497D01*
X191164071Y-77399500D01*
X191164069Y-77399500D01*
X184020808Y-77399500D01*
X183953769Y-77379815D01*
X183933127Y-77363181D01*
X182664674Y-76094727D01*
X182664673Y-76094726D01*
X182664669Y-76094723D01*
X182558127Y-76023535D01*
X182513261Y-76004951D01*
X182439744Y-75974499D01*
X182439738Y-75974497D01*
X182314071Y-75949500D01*
X182314069Y-75949500D01*
X179470808Y-75949500D01*
X179403769Y-75929815D01*
X179383127Y-75913181D01*
X178662509Y-75192563D01*
X178629024Y-75131240D01*
X178634008Y-75061548D01*
X178675880Y-75005615D01*
X178677224Y-75004623D01*
X178779792Y-74930104D01*
X178930104Y-74779792D01*
X178930106Y-74779788D01*
X178930109Y-74779786D01*
X179055048Y-74607820D01*
X179055047Y-74607820D01*
X179055051Y-74607816D01*
X179059514Y-74599054D01*
X179107488Y-74548259D01*
X179175308Y-74531463D01*
X179241444Y-74553999D01*
X179280486Y-74599056D01*
X179284951Y-74607820D01*
X179409890Y-74779786D01*
X179560213Y-74930109D01*
X179732179Y-75055048D01*
X179732181Y-75055049D01*
X179732184Y-75055051D01*
X179921588Y-75151557D01*
X180123757Y-75217246D01*
X180333713Y-75250500D01*
X180333714Y-75250500D01*
X180546286Y-75250500D01*
X180546287Y-75250500D01*
X180756243Y-75217246D01*
X180958412Y-75151557D01*
X181147816Y-75055051D01*
X181202572Y-75015269D01*
X181319786Y-74930109D01*
X181319788Y-74930106D01*
X181319792Y-74930104D01*
X181470104Y-74779792D01*
X181470106Y-74779788D01*
X181470109Y-74779786D01*
X181555890Y-74661717D01*
X181595051Y-74607816D01*
X181599793Y-74598508D01*
X181647763Y-74547711D01*
X181715583Y-74530911D01*
X181781719Y-74553445D01*
X181820763Y-74598500D01*
X181825373Y-74607547D01*
X181864728Y-74661716D01*
X182497037Y-74029408D01*
X182514075Y-74092993D01*
X182579901Y-74207007D01*
X182672993Y-74300099D01*
X182787007Y-74365925D01*
X182850590Y-74382962D01*
X182218282Y-75015269D01*
X182218282Y-75015270D01*
X182272449Y-75054624D01*
X182461782Y-75151095D01*
X182663870Y-75216757D01*
X182873754Y-75250000D01*
X183086246Y-75250000D01*
X183296127Y-75216757D01*
X183296130Y-75216757D01*
X183498217Y-75151095D01*
X183687554Y-75054622D01*
X183741716Y-75015270D01*
X183741717Y-75015270D01*
X183109408Y-74382962D01*
X183172993Y-74365925D01*
X183287007Y-74300099D01*
X183380099Y-74207007D01*
X183445925Y-74092993D01*
X183462962Y-74029408D01*
X184095270Y-74661717D01*
X184095270Y-74661716D01*
X184134622Y-74607555D01*
X184139232Y-74598507D01*
X184187205Y-74547709D01*
X184255025Y-74530912D01*
X184321161Y-74553447D01*
X184360204Y-74598504D01*
X184364949Y-74607817D01*
X184489890Y-74779786D01*
X184640213Y-74930109D01*
X184812179Y-75055048D01*
X184812181Y-75055049D01*
X184812184Y-75055051D01*
X185001588Y-75151557D01*
X185203757Y-75217246D01*
X185413713Y-75250500D01*
X185413714Y-75250500D01*
X185626286Y-75250500D01*
X185626287Y-75250500D01*
X185836243Y-75217246D01*
X186038412Y-75151557D01*
X186227816Y-75055051D01*
X186282572Y-75015269D01*
X186399786Y-74930109D01*
X186399788Y-74930106D01*
X186399792Y-74930104D01*
X186550104Y-74779792D01*
X186550106Y-74779788D01*
X186550109Y-74779786D01*
X186675048Y-74607820D01*
X186675047Y-74607820D01*
X186675051Y-74607816D01*
X186771557Y-74418412D01*
X186837246Y-74216243D01*
X186870500Y-74006287D01*
X186870500Y-73793713D01*
X186837246Y-73583757D01*
X186771557Y-73381588D01*
X186675051Y-73192184D01*
X186642613Y-73147537D01*
X186642613Y-73147535D01*
X186592610Y-73078711D01*
X187699500Y-73078711D01*
X187699500Y-73321288D01*
X187731161Y-73561785D01*
X187793947Y-73796104D01*
X187881008Y-74006286D01*
X187886776Y-74020212D01*
X188008064Y-74230289D01*
X188008066Y-74230292D01*
X188008067Y-74230293D01*
X188155733Y-74422736D01*
X188155739Y-74422743D01*
X188327256Y-74594260D01*
X188327263Y-74594266D01*
X188344927Y-74607820D01*
X188519711Y-74741936D01*
X188729788Y-74863224D01*
X188953900Y-74956054D01*
X189188211Y-75018838D01*
X189368586Y-75042584D01*
X189428711Y-75050500D01*
X189428712Y-75050500D01*
X189671289Y-75050500D01*
X189719388Y-75044167D01*
X189911789Y-75018838D01*
X190146100Y-74956054D01*
X190370212Y-74863224D01*
X190580289Y-74741936D01*
X190772738Y-74594265D01*
X190944265Y-74422738D01*
X191091936Y-74230289D01*
X191213224Y-74020212D01*
X191306054Y-73796100D01*
X191368838Y-73561789D01*
X191400500Y-73321288D01*
X191400500Y-73078712D01*
X191368838Y-72838211D01*
X191306054Y-72603900D01*
X191213224Y-72379788D01*
X191091936Y-72169711D01*
X190944265Y-71977262D01*
X190944260Y-71977256D01*
X190772743Y-71805739D01*
X190772736Y-71805733D01*
X190580293Y-71658067D01*
X190580292Y-71658066D01*
X190580289Y-71658064D01*
X190370212Y-71536776D01*
X190370205Y-71536773D01*
X190146104Y-71443947D01*
X189911785Y-71381161D01*
X189671289Y-71349500D01*
X189671288Y-71349500D01*
X189428712Y-71349500D01*
X189428711Y-71349500D01*
X189188214Y-71381161D01*
X188953895Y-71443947D01*
X188729794Y-71536773D01*
X188729785Y-71536777D01*
X188519706Y-71658067D01*
X188327263Y-71805733D01*
X188327256Y-71805739D01*
X188155739Y-71977256D01*
X188155733Y-71977263D01*
X188008067Y-72169706D01*
X187886777Y-72379785D01*
X187886773Y-72379794D01*
X187793947Y-72603895D01*
X187731161Y-72838214D01*
X187699500Y-73078711D01*
X186592610Y-73078711D01*
X186550109Y-73020214D01*
X186550105Y-73020209D01*
X186399786Y-72869890D01*
X186227820Y-72744951D01*
X186038414Y-72648444D01*
X186038413Y-72648443D01*
X186038412Y-72648443D01*
X185836243Y-72582754D01*
X185836241Y-72582753D01*
X185836240Y-72582753D01*
X185674957Y-72557208D01*
X185626287Y-72549500D01*
X185413713Y-72549500D01*
X185365042Y-72557208D01*
X185203760Y-72582753D01*
X185001585Y-72648444D01*
X184812179Y-72744951D01*
X184640213Y-72869890D01*
X184489890Y-73020213D01*
X184364949Y-73192182D01*
X184360202Y-73201499D01*
X184312227Y-73252293D01*
X184244405Y-73269087D01*
X184178271Y-73246548D01*
X184139234Y-73201495D01*
X184134626Y-73192452D01*
X184095270Y-73138282D01*
X184095269Y-73138282D01*
X183462962Y-73770590D01*
X183445925Y-73707007D01*
X183380099Y-73592993D01*
X183287007Y-73499901D01*
X183172993Y-73434075D01*
X183109409Y-73417037D01*
X183741716Y-72784728D01*
X183687550Y-72745375D01*
X183498217Y-72648904D01*
X183296129Y-72583242D01*
X183086246Y-72550000D01*
X182873754Y-72550000D01*
X182663872Y-72583242D01*
X182663869Y-72583242D01*
X182461782Y-72648904D01*
X182272439Y-72745380D01*
X182218282Y-72784727D01*
X182218282Y-72784728D01*
X182850591Y-73417037D01*
X182787007Y-73434075D01*
X182672993Y-73499901D01*
X182579901Y-73592993D01*
X182514075Y-73707007D01*
X182497037Y-73770591D01*
X181864728Y-73138282D01*
X181864727Y-73138282D01*
X181825380Y-73192440D01*
X181825376Y-73192446D01*
X181820760Y-73201505D01*
X181772781Y-73252297D01*
X181704959Y-73269087D01*
X181638826Y-73246543D01*
X181599794Y-73201493D01*
X181595051Y-73192184D01*
X181595049Y-73192181D01*
X181595048Y-73192179D01*
X181470109Y-73020213D01*
X181319786Y-72869890D01*
X181147820Y-72744951D01*
X180958414Y-72648444D01*
X180958413Y-72648443D01*
X180958412Y-72648443D01*
X180756243Y-72582754D01*
X180756241Y-72582753D01*
X180756240Y-72582753D01*
X180594957Y-72557208D01*
X180546287Y-72549500D01*
X180333713Y-72549500D01*
X180223888Y-72566894D01*
X180118945Y-72583516D01*
X180118686Y-72581882D01*
X180056094Y-72578730D01*
X180009288Y-72549342D01*
X163794674Y-56334727D01*
X163794673Y-56334726D01*
X163775301Y-56321782D01*
X163688127Y-56263535D01*
X163569744Y-56214499D01*
X163569738Y-56214497D01*
X163444071Y-56189500D01*
X163444069Y-56189500D01*
X157759618Y-56189500D01*
X157692579Y-56169815D01*
X157658900Y-56135408D01*
X157657915Y-56136125D01*
X157530109Y-55960213D01*
X157379786Y-55809890D01*
X157207820Y-55684951D01*
X157199600Y-55680763D01*
X157199054Y-55680485D01*
X157148259Y-55632512D01*
X157131463Y-55564692D01*
X157153999Y-55498556D01*
X157199054Y-55459515D01*
X157207816Y-55455051D01*
X157229789Y-55439086D01*
X157379786Y-55330109D01*
X157379788Y-55330106D01*
X157379792Y-55330104D01*
X157530104Y-55179792D01*
X157530106Y-55179788D01*
X157530109Y-55179786D01*
X157655048Y-55007820D01*
X157655047Y-55007820D01*
X157655051Y-55007816D01*
X157751557Y-54818412D01*
X157817246Y-54616243D01*
X157850500Y-54406287D01*
X157850500Y-54193713D01*
X157817246Y-53983757D01*
X157751557Y-53781588D01*
X157655051Y-53592184D01*
X157655049Y-53592181D01*
X157655048Y-53592179D01*
X157530109Y-53420213D01*
X157379786Y-53269890D01*
X157207820Y-53144951D01*
X157207115Y-53144591D01*
X157199054Y-53140485D01*
X157148259Y-53092512D01*
X157131463Y-53024692D01*
X157153999Y-52958556D01*
X157199054Y-52919515D01*
X157207816Y-52915051D01*
X157262572Y-52875269D01*
X157379786Y-52790109D01*
X157379788Y-52790106D01*
X157379792Y-52790104D01*
X157530104Y-52639792D01*
X157530106Y-52639788D01*
X157530109Y-52639786D01*
X157655048Y-52467820D01*
X157655047Y-52467820D01*
X157655051Y-52467816D01*
X157751557Y-52278412D01*
X157817246Y-52076243D01*
X157850500Y-51866287D01*
X157850500Y-51653713D01*
X157817246Y-51443757D01*
X157751557Y-51241588D01*
X157655051Y-51052184D01*
X157655049Y-51052181D01*
X157655048Y-51052179D01*
X157530109Y-50880213D01*
X157416569Y-50766673D01*
X157383084Y-50705350D01*
X157388068Y-50635658D01*
X157429940Y-50579725D01*
X157460915Y-50562810D01*
X157592331Y-50513796D01*
X157707546Y-50427546D01*
X157793796Y-50312331D01*
X157844091Y-50177483D01*
X157850500Y-50117873D01*
X157850499Y-48322128D01*
X157844091Y-48262517D01*
X157793796Y-48127669D01*
X157793795Y-48127668D01*
X157793793Y-48127664D01*
X157707547Y-48012455D01*
X157707544Y-48012452D01*
X157592335Y-47926206D01*
X157592328Y-47926202D01*
X157457482Y-47875908D01*
X157457483Y-47875908D01*
X157397883Y-47869501D01*
X157397881Y-47869500D01*
X157397873Y-47869500D01*
X157397864Y-47869500D01*
X155602129Y-47869500D01*
X155602123Y-47869501D01*
X155542516Y-47875908D01*
X155407671Y-47926202D01*
X155407664Y-47926206D01*
X155292455Y-48012452D01*
X155292452Y-48012455D01*
X155206206Y-48127664D01*
X155206202Y-48127671D01*
X155155908Y-48262517D01*
X155149501Y-48322116D01*
X155149501Y-48322123D01*
X155149500Y-48322135D01*
X155149500Y-50117870D01*
X155149501Y-50117876D01*
X155155908Y-50177483D01*
X155206202Y-50312328D01*
X155206206Y-50312335D01*
X155292452Y-50427544D01*
X155292455Y-50427547D01*
X155407664Y-50513793D01*
X155407671Y-50513797D01*
X155539082Y-50562810D01*
X155595016Y-50604681D01*
X155619433Y-50670145D01*
X155604582Y-50738418D01*
X155583431Y-50766673D01*
X155469889Y-50880215D01*
X155344951Y-51052179D01*
X155248444Y-51241585D01*
X155182753Y-51443760D01*
X155149500Y-51653713D01*
X155149500Y-51866286D01*
X155182735Y-52076127D01*
X155182754Y-52076243D01*
X155195986Y-52116968D01*
X155248444Y-52278414D01*
X155344951Y-52467820D01*
X155469890Y-52639786D01*
X155620213Y-52790109D01*
X155792182Y-52915050D01*
X155800946Y-52919516D01*
X155851742Y-52967491D01*
X155868536Y-53035312D01*
X155845998Y-53101447D01*
X155800946Y-53140484D01*
X155792182Y-53144949D01*
X155620213Y-53269890D01*
X155469890Y-53420213D01*
X155344951Y-53592179D01*
X155248444Y-53781585D01*
X155182753Y-53983760D01*
X155149500Y-54193713D01*
X155149500Y-54406286D01*
X155182753Y-54616239D01*
X155248444Y-54818414D01*
X155344951Y-55007820D01*
X155469890Y-55179786D01*
X155620213Y-55330109D01*
X155792182Y-55455050D01*
X155800946Y-55459516D01*
X155851742Y-55507491D01*
X155868536Y-55575312D01*
X155845998Y-55641447D01*
X155800946Y-55680484D01*
X155792182Y-55684949D01*
X155620213Y-55809890D01*
X155469890Y-55960213D01*
X155344951Y-56132179D01*
X155248444Y-56321585D01*
X155182753Y-56523760D01*
X155149500Y-56733713D01*
X155149500Y-56946286D01*
X155182753Y-57156239D01*
X155248444Y-57358414D01*
X155344951Y-57547820D01*
X155469890Y-57719786D01*
X155620213Y-57870109D01*
X155792182Y-57995050D01*
X155800946Y-57999516D01*
X155851742Y-58047491D01*
X155868536Y-58115312D01*
X155845998Y-58181447D01*
X155800946Y-58220484D01*
X155792182Y-58224949D01*
X155620213Y-58349890D01*
X155469890Y-58500213D01*
X155344951Y-58672179D01*
X155248444Y-58861585D01*
X155182753Y-59063760D01*
X155149500Y-59273713D01*
X155149500Y-59486286D01*
X155182753Y-59696239D01*
X155248444Y-59898414D01*
X155344951Y-60087820D01*
X155469890Y-60259786D01*
X155620213Y-60410109D01*
X155792182Y-60535050D01*
X155800946Y-60539516D01*
X155851742Y-60587491D01*
X155868536Y-60655312D01*
X155845998Y-60721447D01*
X155800946Y-60760484D01*
X155792182Y-60764949D01*
X155620213Y-60889890D01*
X155469890Y-61040213D01*
X155344951Y-61212179D01*
X155248444Y-61401585D01*
X155182753Y-61603760D01*
X155149500Y-61813713D01*
X155149500Y-62026286D01*
X155182735Y-62236127D01*
X155182754Y-62236243D01*
X155195986Y-62276968D01*
X155248444Y-62438414D01*
X155344951Y-62627820D01*
X155469890Y-62799786D01*
X155620213Y-62950109D01*
X155792182Y-63075050D01*
X155800946Y-63079516D01*
X155851742Y-63127491D01*
X155868536Y-63195312D01*
X155845998Y-63261447D01*
X155800946Y-63300484D01*
X155792182Y-63304949D01*
X155620213Y-63429890D01*
X155469890Y-63580213D01*
X155344951Y-63752179D01*
X155248444Y-63941585D01*
X155182753Y-64143760D01*
X155149500Y-64353713D01*
X155149500Y-64566286D01*
X155182753Y-64776239D01*
X155248444Y-64978414D01*
X155344951Y-65167820D01*
X155469890Y-65339786D01*
X155620213Y-65490109D01*
X155792182Y-65615050D01*
X155800946Y-65619516D01*
X155851742Y-65667491D01*
X155868536Y-65735312D01*
X155845998Y-65801447D01*
X155800946Y-65840484D01*
X155792182Y-65844949D01*
X155620213Y-65969890D01*
X155469890Y-66120213D01*
X155344951Y-66292179D01*
X155248444Y-66481585D01*
X155248443Y-66481587D01*
X155248443Y-66481588D01*
X155233310Y-66528164D01*
X155182755Y-66683755D01*
X155182754Y-66683757D01*
X155149500Y-66893713D01*
X155149500Y-67106286D01*
X155182753Y-67316239D01*
X155248444Y-67518414D01*
X155344951Y-67707820D01*
X155469890Y-67879786D01*
X155620213Y-68030109D01*
X155792182Y-68155050D01*
X155800946Y-68159516D01*
X155851742Y-68207491D01*
X155868536Y-68275312D01*
X155845998Y-68341447D01*
X155800946Y-68380484D01*
X155792182Y-68384949D01*
X155620213Y-68509890D01*
X155469890Y-68660213D01*
X155344951Y-68832179D01*
X155248444Y-69021585D01*
X155182753Y-69223760D01*
X155149500Y-69433713D01*
X155149500Y-69646286D01*
X155182753Y-69856239D01*
X155248444Y-70058414D01*
X155344951Y-70247820D01*
X155469890Y-70419786D01*
X155620213Y-70570109D01*
X155792182Y-70695050D01*
X155800946Y-70699516D01*
X155851742Y-70747491D01*
X155868536Y-70815312D01*
X155845998Y-70881447D01*
X155800946Y-70920484D01*
X155792182Y-70924949D01*
X155620213Y-71049890D01*
X155469890Y-71200213D01*
X155344951Y-71372179D01*
X155248444Y-71561585D01*
X155182753Y-71763760D01*
X155149500Y-71973713D01*
X155149500Y-72186286D01*
X155180148Y-72379794D01*
X155182754Y-72396243D01*
X155243355Y-72582754D01*
X155248444Y-72598414D01*
X155344951Y-72787820D01*
X155469890Y-72959786D01*
X155620213Y-73110109D01*
X155792182Y-73235050D01*
X155800946Y-73239516D01*
X155851742Y-73287491D01*
X155868536Y-73355312D01*
X155845998Y-73421447D01*
X155800946Y-73460484D01*
X155792182Y-73464949D01*
X155620213Y-73589890D01*
X155469890Y-73740213D01*
X155344951Y-73912179D01*
X155248444Y-74101585D01*
X155182753Y-74303760D01*
X155149500Y-74513713D01*
X155149500Y-74726286D01*
X155181781Y-74930105D01*
X155182754Y-74936243D01*
X155238414Y-75107547D01*
X155248444Y-75138414D01*
X155344951Y-75327820D01*
X155469890Y-75499786D01*
X155620213Y-75650109D01*
X155792182Y-75775050D01*
X155800946Y-75779516D01*
X155851742Y-75827491D01*
X155868536Y-75895312D01*
X155845998Y-75961447D01*
X155800946Y-76000484D01*
X155792182Y-76004949D01*
X155620213Y-76129890D01*
X155469890Y-76280213D01*
X155344951Y-76452179D01*
X155248444Y-76641585D01*
X155182753Y-76843760D01*
X155149500Y-77053713D01*
X155149500Y-77266287D01*
X155182754Y-77476243D01*
X155192276Y-77505550D01*
X155248444Y-77678414D01*
X155344951Y-77867820D01*
X155469890Y-78039786D01*
X155620213Y-78190109D01*
X155792182Y-78315050D01*
X155800946Y-78319516D01*
X155851742Y-78367491D01*
X155868536Y-78435312D01*
X155845998Y-78501447D01*
X155800946Y-78540484D01*
X155792182Y-78544949D01*
X155620213Y-78669890D01*
X155469890Y-78820213D01*
X155344951Y-78992179D01*
X155248444Y-79181585D01*
X155182753Y-79383760D01*
X155178556Y-79410261D01*
X155149500Y-79593713D01*
X155149500Y-79806287D01*
X155182754Y-80016243D01*
X155210920Y-80102930D01*
X155248444Y-80218414D01*
X155344951Y-80407820D01*
X155469890Y-80579786D01*
X155620213Y-80730109D01*
X155792182Y-80855050D01*
X155800946Y-80859516D01*
X155851742Y-80907491D01*
X155868536Y-80975312D01*
X155845998Y-81041447D01*
X155800946Y-81080484D01*
X155792182Y-81084949D01*
X155620213Y-81209890D01*
X155469890Y-81360213D01*
X155344951Y-81532179D01*
X155248444Y-81721585D01*
X155182753Y-81923760D01*
X155149500Y-82133713D01*
X155149500Y-82346287D01*
X155182754Y-82556243D01*
X155208746Y-82636239D01*
X155248444Y-82758414D01*
X155344951Y-82947820D01*
X155469890Y-83119786D01*
X155620213Y-83270109D01*
X155792182Y-83395050D01*
X155800946Y-83399516D01*
X155851742Y-83447491D01*
X155868536Y-83515312D01*
X155845998Y-83581447D01*
X155800946Y-83620484D01*
X155792182Y-83624949D01*
X155620213Y-83749890D01*
X155469890Y-83900213D01*
X155344951Y-84072179D01*
X155248444Y-84261585D01*
X155182753Y-84463760D01*
X155149500Y-84673713D01*
X155149500Y-84886286D01*
X155176752Y-85058352D01*
X155182754Y-85096243D01*
X155208746Y-85176239D01*
X155248444Y-85298414D01*
X155344951Y-85487820D01*
X155469890Y-85659786D01*
X155620213Y-85810109D01*
X155792182Y-85935050D01*
X155800946Y-85939516D01*
X155851742Y-85987491D01*
X155868536Y-86055312D01*
X155845998Y-86121447D01*
X155800946Y-86160484D01*
X155792182Y-86164949D01*
X155620213Y-86289890D01*
X155469890Y-86440213D01*
X155344951Y-86612179D01*
X155248444Y-86801585D01*
X155182753Y-87003760D01*
X155149500Y-87213713D01*
X155149500Y-87426287D01*
X155182754Y-87636243D01*
X155231679Y-87786819D01*
X155248444Y-87838414D01*
X155344951Y-88027820D01*
X155469890Y-88199786D01*
X155620213Y-88350109D01*
X155792182Y-88475050D01*
X155800946Y-88479516D01*
X155851742Y-88527491D01*
X155868536Y-88595312D01*
X155845998Y-88661447D01*
X155800946Y-88700484D01*
X155792182Y-88704949D01*
X155620213Y-88829890D01*
X155469890Y-88980213D01*
X155344951Y-89152179D01*
X155248444Y-89341585D01*
X155182753Y-89543760D01*
X155164875Y-89656641D01*
X155149500Y-89753713D01*
X155149500Y-89966287D01*
X155182754Y-90176243D01*
X155220589Y-90292688D01*
X155248444Y-90378414D01*
X155344951Y-90567820D01*
X155469890Y-90739786D01*
X155620213Y-90890109D01*
X155792182Y-91015050D01*
X155800946Y-91019516D01*
X155851742Y-91067491D01*
X155868536Y-91135312D01*
X155845998Y-91201447D01*
X155800946Y-91240484D01*
X155792182Y-91244949D01*
X155620213Y-91369890D01*
X155469890Y-91520213D01*
X155344951Y-91692179D01*
X155248444Y-91881585D01*
X155182753Y-92083760D01*
X155170065Y-92163869D01*
X155149500Y-92293713D01*
X155149500Y-92506287D01*
X155182754Y-92716243D01*
X155235994Y-92880099D01*
X155248444Y-92918414D01*
X155344951Y-93107820D01*
X155469890Y-93279786D01*
X155620213Y-93430109D01*
X155792182Y-93555050D01*
X155800946Y-93559516D01*
X155851742Y-93607491D01*
X155868536Y-93675312D01*
X155845998Y-93741447D01*
X155800946Y-93780484D01*
X155792182Y-93784949D01*
X155620213Y-93909890D01*
X155469890Y-94060213D01*
X155344951Y-94232179D01*
X155248444Y-94421585D01*
X155182753Y-94623760D01*
X155151946Y-94818272D01*
X155149500Y-94833713D01*
X155149500Y-95046287D01*
X155182754Y-95256243D01*
X155208746Y-95336239D01*
X155248444Y-95458414D01*
X155344951Y-95647820D01*
X155469890Y-95819786D01*
X155620213Y-95970109D01*
X155792182Y-96095050D01*
X155800946Y-96099516D01*
X155851742Y-96147491D01*
X155868536Y-96215312D01*
X155845998Y-96281447D01*
X155800946Y-96320484D01*
X155792182Y-96324949D01*
X155620213Y-96449890D01*
X155469890Y-96600213D01*
X155344951Y-96772179D01*
X155248444Y-96961585D01*
X155182753Y-97163760D01*
X155149500Y-97373713D01*
X155149500Y-97586287D01*
X155182754Y-97796243D01*
X155240141Y-97972862D01*
X155248444Y-97998414D01*
X155344951Y-98187820D01*
X155469890Y-98359786D01*
X155620213Y-98510109D01*
X155792182Y-98635050D01*
X155800946Y-98639516D01*
X155851742Y-98687491D01*
X155868536Y-98755312D01*
X155845998Y-98821447D01*
X155800946Y-98860484D01*
X155792182Y-98864949D01*
X155620213Y-98989890D01*
X155469890Y-99140213D01*
X155344951Y-99312179D01*
X155248444Y-99501585D01*
X155182753Y-99703760D01*
X155149500Y-99913713D01*
X155149500Y-100126286D01*
X155182753Y-100336239D01*
X155248444Y-100538414D01*
X155344951Y-100727820D01*
X155469890Y-100899786D01*
X155620213Y-101050109D01*
X155792182Y-101175050D01*
X155800946Y-101179516D01*
X155851742Y-101227491D01*
X155868536Y-101295312D01*
X155845998Y-101361447D01*
X155800946Y-101400484D01*
X155792182Y-101404949D01*
X155620213Y-101529890D01*
X155469890Y-101680213D01*
X155344951Y-101852179D01*
X155248444Y-102041585D01*
X155182753Y-102243760D01*
X155173847Y-102299991D01*
X155149500Y-102453713D01*
X155149500Y-102666287D01*
X155182754Y-102876243D01*
X155223729Y-103002352D01*
X155248444Y-103078414D01*
X155344951Y-103267820D01*
X155469890Y-103439786D01*
X155620213Y-103590109D01*
X155792182Y-103715050D01*
X155800946Y-103719516D01*
X155851742Y-103767491D01*
X155868536Y-103835312D01*
X155845998Y-103901447D01*
X155800946Y-103940484D01*
X155792182Y-103944949D01*
X155620213Y-104069890D01*
X155469890Y-104220213D01*
X155344951Y-104392179D01*
X155248444Y-104581585D01*
X155182753Y-104783760D01*
X155149500Y-104993713D01*
X155149500Y-105206286D01*
X155182753Y-105416239D01*
X155248444Y-105618414D01*
X155344951Y-105807820D01*
X155469890Y-105979786D01*
X155620213Y-106130109D01*
X155792182Y-106255050D01*
X155800946Y-106259516D01*
X155851742Y-106307491D01*
X155868536Y-106375312D01*
X155845998Y-106441447D01*
X155800946Y-106480484D01*
X155792182Y-106484949D01*
X155620213Y-106609890D01*
X155469890Y-106760213D01*
X155344951Y-106932179D01*
X155248444Y-107121585D01*
X155182753Y-107323760D01*
X155149500Y-107533713D01*
X155149500Y-107746286D01*
X155179792Y-107937546D01*
X155182754Y-107956243D01*
X155246518Y-108152489D01*
X155248444Y-108158414D01*
X155344951Y-108347820D01*
X155469890Y-108519786D01*
X155620213Y-108670109D01*
X155792182Y-108795050D01*
X155800946Y-108799516D01*
X155851742Y-108847491D01*
X155868536Y-108915312D01*
X155845998Y-108981447D01*
X155800946Y-109020484D01*
X155792182Y-109024949D01*
X155620213Y-109149890D01*
X155469890Y-109300213D01*
X155344951Y-109472179D01*
X155248444Y-109661585D01*
X155248443Y-109661587D01*
X155248443Y-109661588D01*
X155215598Y-109762672D01*
X155182753Y-109863760D01*
X155149500Y-110073713D01*
X155149500Y-110286286D01*
X155173494Y-110437782D01*
X155182754Y-110496243D01*
X155182788Y-110496349D01*
X155248444Y-110698414D01*
X155344951Y-110887820D01*
X155469890Y-111059786D01*
X155620213Y-111210109D01*
X155792179Y-111335048D01*
X155792181Y-111335049D01*
X155792184Y-111335051D01*
X155981588Y-111431557D01*
X156183757Y-111497246D01*
X156393713Y-111530500D01*
X156393714Y-111530500D01*
X156606286Y-111530500D01*
X156606287Y-111530500D01*
X156816243Y-111497246D01*
X157018412Y-111431557D01*
X157207816Y-111335051D01*
X157229789Y-111319086D01*
X157379786Y-111210109D01*
X157379788Y-111210106D01*
X157379792Y-111210104D01*
X157530104Y-111059792D01*
X157530106Y-111059788D01*
X157530109Y-111059786D01*
X157655048Y-110887820D01*
X157655047Y-110887820D01*
X157655051Y-110887816D01*
X157751557Y-110698412D01*
X157817246Y-110496243D01*
X157850500Y-110286287D01*
X157850500Y-110073713D01*
X157817246Y-109863757D01*
X157751557Y-109661588D01*
X157655051Y-109472184D01*
X157655049Y-109472181D01*
X157655048Y-109472179D01*
X157530109Y-109300213D01*
X157379786Y-109149890D01*
X157207820Y-109024951D01*
X157207115Y-109024591D01*
X157199054Y-109020485D01*
X157148259Y-108972512D01*
X157131463Y-108904692D01*
X157153999Y-108838556D01*
X157199054Y-108799515D01*
X157207816Y-108795051D01*
X157278155Y-108743947D01*
X157379786Y-108670109D01*
X157379788Y-108670106D01*
X157379792Y-108670104D01*
X157530104Y-108519792D01*
X157530106Y-108519788D01*
X157530109Y-108519786D01*
X157655048Y-108347820D01*
X157655047Y-108347820D01*
X157655051Y-108347816D01*
X157751557Y-108158412D01*
X157817246Y-107956243D01*
X157850500Y-107746287D01*
X157850500Y-107533713D01*
X157817246Y-107323757D01*
X157751557Y-107121588D01*
X157655051Y-106932184D01*
X157655049Y-106932181D01*
X157655048Y-106932179D01*
X157530109Y-106760213D01*
X157379786Y-106609890D01*
X157207820Y-106484951D01*
X157207115Y-106484591D01*
X157199054Y-106480485D01*
X157148259Y-106432512D01*
X157131463Y-106364692D01*
X157153999Y-106298556D01*
X157199054Y-106259515D01*
X157207816Y-106255051D01*
X157270606Y-106209432D01*
X157379786Y-106130109D01*
X157379788Y-106130106D01*
X157379792Y-106130104D01*
X157530104Y-105979792D01*
X157530106Y-105979788D01*
X157530109Y-105979786D01*
X157655048Y-105807820D01*
X157655047Y-105807820D01*
X157655051Y-105807816D01*
X157751557Y-105618412D01*
X157817246Y-105416243D01*
X157850500Y-105206287D01*
X157850500Y-104993713D01*
X157817246Y-104783757D01*
X157751557Y-104581588D01*
X157655051Y-104392184D01*
X157655049Y-104392181D01*
X157655048Y-104392179D01*
X157530109Y-104220213D01*
X157379786Y-104069890D01*
X157207820Y-103944951D01*
X157207115Y-103944591D01*
X157199054Y-103940485D01*
X157148259Y-103892512D01*
X157131463Y-103824692D01*
X157153999Y-103758556D01*
X157199054Y-103719515D01*
X157207816Y-103715051D01*
X157258744Y-103678050D01*
X157379786Y-103590109D01*
X157379788Y-103590106D01*
X157379792Y-103590104D01*
X157530104Y-103439792D01*
X157530106Y-103439788D01*
X157530109Y-103439786D01*
X157655048Y-103267820D01*
X157655047Y-103267820D01*
X157655051Y-103267816D01*
X157751557Y-103078412D01*
X157817246Y-102876243D01*
X157850500Y-102666287D01*
X157850500Y-102453713D01*
X157817246Y-102243757D01*
X157751557Y-102041588D01*
X157655051Y-101852184D01*
X157655049Y-101852181D01*
X157655048Y-101852179D01*
X157530109Y-101680213D01*
X157379786Y-101529890D01*
X157207820Y-101404951D01*
X157207115Y-101404591D01*
X157199054Y-101400485D01*
X157148259Y-101352512D01*
X157131463Y-101284692D01*
X157153999Y-101218556D01*
X157199054Y-101179515D01*
X157207816Y-101175051D01*
X157229789Y-101159086D01*
X157379786Y-101050109D01*
X157379788Y-101050106D01*
X157379792Y-101050104D01*
X157530104Y-100899792D01*
X157530106Y-100899788D01*
X157530109Y-100899786D01*
X157655048Y-100727820D01*
X157655047Y-100727820D01*
X157655051Y-100727816D01*
X157751557Y-100538412D01*
X157817246Y-100336243D01*
X157850500Y-100126287D01*
X157850500Y-99913713D01*
X157817246Y-99703757D01*
X157751557Y-99501588D01*
X157655051Y-99312184D01*
X157655049Y-99312181D01*
X157655048Y-99312179D01*
X157530109Y-99140213D01*
X157379786Y-98989890D01*
X157207820Y-98864951D01*
X157207115Y-98864591D01*
X157199054Y-98860485D01*
X157148259Y-98812512D01*
X157131463Y-98744692D01*
X157153999Y-98678556D01*
X157199054Y-98639515D01*
X157207816Y-98635051D01*
X157229789Y-98619086D01*
X157379786Y-98510109D01*
X157379788Y-98510106D01*
X157379792Y-98510104D01*
X157530104Y-98359792D01*
X157530106Y-98359788D01*
X157530109Y-98359786D01*
X157655048Y-98187820D01*
X157655047Y-98187820D01*
X157655051Y-98187816D01*
X157751557Y-97998412D01*
X157817246Y-97796243D01*
X157850500Y-97586287D01*
X157850500Y-97373713D01*
X157817246Y-97163757D01*
X157751557Y-96961588D01*
X157655051Y-96772184D01*
X157655049Y-96772181D01*
X157655048Y-96772179D01*
X157530109Y-96600213D01*
X157379786Y-96449890D01*
X157207820Y-96324951D01*
X157207115Y-96324591D01*
X157199054Y-96320485D01*
X157148259Y-96272512D01*
X157131463Y-96204692D01*
X157153999Y-96138556D01*
X157199054Y-96099515D01*
X157207816Y-96095051D01*
X157306527Y-96023334D01*
X157379786Y-95970109D01*
X157379788Y-95970106D01*
X157379792Y-95970104D01*
X157530104Y-95819792D01*
X157530106Y-95819788D01*
X157530109Y-95819786D01*
X157655048Y-95647820D01*
X157655047Y-95647820D01*
X157655051Y-95647816D01*
X157751557Y-95458412D01*
X157817246Y-95256243D01*
X157850500Y-95046287D01*
X157850500Y-94833713D01*
X157817246Y-94623757D01*
X157751557Y-94421588D01*
X157655051Y-94232184D01*
X157655049Y-94232181D01*
X157655048Y-94232179D01*
X157530109Y-94060213D01*
X157379786Y-93909890D01*
X157207820Y-93784951D01*
X157207115Y-93784591D01*
X157199054Y-93780485D01*
X157148259Y-93732512D01*
X157131463Y-93664692D01*
X157153999Y-93598556D01*
X157199054Y-93559515D01*
X157207816Y-93555051D01*
X157320302Y-93473326D01*
X157379786Y-93430109D01*
X157379788Y-93430106D01*
X157379792Y-93430104D01*
X157530104Y-93279792D01*
X157530106Y-93279788D01*
X157530109Y-93279786D01*
X157655048Y-93107820D01*
X157655047Y-93107820D01*
X157655051Y-93107816D01*
X157751557Y-92918412D01*
X157817246Y-92716243D01*
X157850500Y-92506287D01*
X157850500Y-92293713D01*
X157817246Y-92083757D01*
X157751557Y-91881588D01*
X157655051Y-91692184D01*
X157655049Y-91692181D01*
X157655048Y-91692179D01*
X157530109Y-91520213D01*
X157379786Y-91369890D01*
X157207820Y-91244951D01*
X157207115Y-91244591D01*
X157199054Y-91240485D01*
X157148259Y-91192512D01*
X157131463Y-91124692D01*
X157153999Y-91058556D01*
X157199054Y-91019515D01*
X157207816Y-91015051D01*
X157369201Y-90897799D01*
X157379786Y-90890109D01*
X157379788Y-90890106D01*
X157379792Y-90890104D01*
X157530104Y-90739792D01*
X157530106Y-90739788D01*
X157530109Y-90739786D01*
X157655048Y-90567820D01*
X157655047Y-90567820D01*
X157655051Y-90567816D01*
X157751557Y-90378412D01*
X157817246Y-90176243D01*
X157850500Y-89966287D01*
X157850500Y-89753713D01*
X157817246Y-89543757D01*
X157751557Y-89341588D01*
X157655051Y-89152184D01*
X157655049Y-89152181D01*
X157655048Y-89152179D01*
X157530109Y-88980213D01*
X157379786Y-88829890D01*
X157207820Y-88704951D01*
X157207115Y-88704591D01*
X157199054Y-88700485D01*
X157148259Y-88652512D01*
X157131463Y-88584692D01*
X157153999Y-88518556D01*
X157199054Y-88479515D01*
X157207816Y-88475051D01*
X157269681Y-88430104D01*
X157379786Y-88350109D01*
X157379788Y-88350106D01*
X157379792Y-88350104D01*
X157530104Y-88199792D01*
X157530106Y-88199788D01*
X157530109Y-88199786D01*
X157655048Y-88027820D01*
X157655047Y-88027820D01*
X157655051Y-88027816D01*
X157751557Y-87838412D01*
X157817246Y-87636243D01*
X157850500Y-87426287D01*
X157850500Y-87213713D01*
X157817246Y-87003757D01*
X157751557Y-86801588D01*
X157655051Y-86612184D01*
X157655049Y-86612181D01*
X157655048Y-86612179D01*
X157530109Y-86440213D01*
X157379786Y-86289890D01*
X157207820Y-86164951D01*
X157207115Y-86164591D01*
X157199054Y-86160485D01*
X157148259Y-86112512D01*
X157131463Y-86044692D01*
X157153999Y-85978556D01*
X157199054Y-85939515D01*
X157207816Y-85935051D01*
X157269681Y-85890104D01*
X157379786Y-85810109D01*
X157379788Y-85810106D01*
X157379792Y-85810104D01*
X157530104Y-85659792D01*
X157530106Y-85659788D01*
X157530109Y-85659786D01*
X157655048Y-85487820D01*
X157655047Y-85487820D01*
X157655051Y-85487816D01*
X157751557Y-85298412D01*
X157817246Y-85096243D01*
X157850500Y-84886287D01*
X157850500Y-84753713D01*
X161949500Y-84753713D01*
X161949500Y-84966286D01*
X161977119Y-85140670D01*
X161982754Y-85176243D01*
X162044175Y-85365278D01*
X162048444Y-85378414D01*
X162144951Y-85567820D01*
X162269890Y-85739786D01*
X162420213Y-85890109D01*
X162592182Y-86015050D01*
X162600946Y-86019516D01*
X162651742Y-86067491D01*
X162668536Y-86135312D01*
X162645998Y-86201447D01*
X162600946Y-86240484D01*
X162592182Y-86244949D01*
X162420213Y-86369890D01*
X162269890Y-86520213D01*
X162144951Y-86692179D01*
X162048444Y-86881585D01*
X161982753Y-87083760D01*
X161949500Y-87293713D01*
X161949500Y-87506286D01*
X161980225Y-87700279D01*
X161982754Y-87716243D01*
X162027072Y-87852640D01*
X162048444Y-87918414D01*
X162144951Y-88107820D01*
X162269890Y-88279786D01*
X162420213Y-88430109D01*
X162592182Y-88555050D01*
X162600946Y-88559516D01*
X162651742Y-88607491D01*
X162668536Y-88675312D01*
X162645998Y-88741447D01*
X162600946Y-88780484D01*
X162592182Y-88784949D01*
X162420213Y-88909890D01*
X162269890Y-89060213D01*
X162144951Y-89232179D01*
X162048444Y-89421585D01*
X161982753Y-89623760D01*
X161949500Y-89833713D01*
X161949500Y-90046286D01*
X161977077Y-90220404D01*
X161982754Y-90256243D01*
X162023085Y-90380369D01*
X162048444Y-90458414D01*
X162144951Y-90647820D01*
X162269890Y-90819786D01*
X162420213Y-90970109D01*
X162592182Y-91095050D01*
X162600946Y-91099516D01*
X162651742Y-91147491D01*
X162668536Y-91215312D01*
X162645998Y-91281447D01*
X162600946Y-91320484D01*
X162592182Y-91324949D01*
X162420213Y-91449890D01*
X162269890Y-91600213D01*
X162144951Y-91772179D01*
X162048444Y-91961585D01*
X161982753Y-92163760D01*
X161949500Y-92373713D01*
X161949500Y-92586286D01*
X161982735Y-92796127D01*
X161982754Y-92796243D01*
X162022449Y-92918412D01*
X162048444Y-92998414D01*
X162144951Y-93187820D01*
X162269890Y-93359786D01*
X162383430Y-93473326D01*
X162416915Y-93534649D01*
X162411931Y-93604341D01*
X162370059Y-93660274D01*
X162339083Y-93677189D01*
X162207669Y-93726203D01*
X162207664Y-93726206D01*
X162092455Y-93812452D01*
X162092452Y-93812455D01*
X162006206Y-93927664D01*
X162006202Y-93927671D01*
X161955908Y-94062517D01*
X161949501Y-94122116D01*
X161949501Y-94122123D01*
X161949500Y-94122135D01*
X161949500Y-95917870D01*
X161949501Y-95917876D01*
X161955908Y-95977483D01*
X162006202Y-96112328D01*
X162006206Y-96112335D01*
X162092452Y-96227544D01*
X162092455Y-96227547D01*
X162207664Y-96313793D01*
X162207671Y-96313797D01*
X162342517Y-96364091D01*
X162342516Y-96364091D01*
X162349444Y-96364835D01*
X162402127Y-96370500D01*
X164197872Y-96370499D01*
X164257483Y-96364091D01*
X164392331Y-96313796D01*
X164507546Y-96227546D01*
X164593796Y-96112331D01*
X164644091Y-95977483D01*
X164650500Y-95917873D01*
X164650499Y-94122128D01*
X164644091Y-94062517D01*
X164628046Y-94019499D01*
X164593797Y-93927671D01*
X164593793Y-93927664D01*
X164507547Y-93812455D01*
X164507544Y-93812452D01*
X164392335Y-93726206D01*
X164392328Y-93726202D01*
X164260917Y-93677189D01*
X164204983Y-93635318D01*
X164180566Y-93569853D01*
X164195418Y-93501580D01*
X164216563Y-93473332D01*
X164330104Y-93359792D01*
X164353085Y-93328162D01*
X164415891Y-93241716D01*
X164455051Y-93187816D01*
X164551557Y-92998412D01*
X164617246Y-92796243D01*
X164650500Y-92586287D01*
X164650500Y-92373713D01*
X164617246Y-92163757D01*
X164551557Y-91961588D01*
X164455051Y-91772184D01*
X164455049Y-91772181D01*
X164455048Y-91772179D01*
X164330109Y-91600213D01*
X164179786Y-91449890D01*
X164007820Y-91324951D01*
X163999600Y-91320763D01*
X163999054Y-91320485D01*
X163948259Y-91272512D01*
X163931463Y-91204692D01*
X163953999Y-91138556D01*
X163999054Y-91099515D01*
X164007816Y-91095051D01*
X164045749Y-91067491D01*
X164179786Y-90970109D01*
X164179788Y-90970106D01*
X164179792Y-90970104D01*
X164330104Y-90819792D01*
X164330106Y-90819788D01*
X164330109Y-90819786D01*
X164455048Y-90647820D01*
X164455047Y-90647820D01*
X164455051Y-90647816D01*
X164551557Y-90458412D01*
X164617246Y-90256243D01*
X164650500Y-90046287D01*
X164650500Y-89833713D01*
X164617246Y-89623757D01*
X164551557Y-89421588D01*
X164455051Y-89232184D01*
X164455049Y-89232181D01*
X164455048Y-89232179D01*
X164330109Y-89060213D01*
X164179786Y-88909890D01*
X164007820Y-88784951D01*
X164007115Y-88784591D01*
X163999054Y-88780485D01*
X163948259Y-88732512D01*
X163931463Y-88664692D01*
X163953999Y-88598556D01*
X163999054Y-88559515D01*
X164007816Y-88555051D01*
X164045749Y-88527491D01*
X164179786Y-88430109D01*
X164179788Y-88430106D01*
X164179792Y-88430104D01*
X164330104Y-88279792D01*
X164330106Y-88279788D01*
X164330109Y-88279786D01*
X164455048Y-88107820D01*
X164455047Y-88107820D01*
X164455051Y-88107816D01*
X164551557Y-87918412D01*
X164617246Y-87716243D01*
X164650500Y-87506287D01*
X164650500Y-87293713D01*
X164617246Y-87083757D01*
X164551557Y-86881588D01*
X164455051Y-86692184D01*
X164455049Y-86692181D01*
X164455048Y-86692179D01*
X164330109Y-86520213D01*
X164179786Y-86369890D01*
X164007820Y-86244951D01*
X164007115Y-86244591D01*
X163999054Y-86240485D01*
X163948259Y-86192512D01*
X163931463Y-86124692D01*
X163953999Y-86058556D01*
X163999054Y-86019515D01*
X164007816Y-86015051D01*
X164045749Y-85987491D01*
X164179786Y-85890109D01*
X164179788Y-85890106D01*
X164179792Y-85890104D01*
X164330104Y-85739792D01*
X164330106Y-85739788D01*
X164330109Y-85739786D01*
X164455048Y-85567820D01*
X164455047Y-85567820D01*
X164455051Y-85567816D01*
X164551557Y-85378412D01*
X164617246Y-85176243D01*
X164650500Y-84966287D01*
X164650500Y-84753713D01*
X164617246Y-84543757D01*
X164551557Y-84341588D01*
X164455051Y-84152184D01*
X164455049Y-84152181D01*
X164455048Y-84152179D01*
X164330109Y-83980213D01*
X164179786Y-83829890D01*
X164007820Y-83704951D01*
X163818414Y-83608444D01*
X163818413Y-83608443D01*
X163818412Y-83608443D01*
X163616243Y-83542754D01*
X163616241Y-83542753D01*
X163616240Y-83542753D01*
X163442982Y-83515312D01*
X163406287Y-83509500D01*
X163193713Y-83509500D01*
X163157018Y-83515312D01*
X162983760Y-83542753D01*
X162781585Y-83608444D01*
X162592179Y-83704951D01*
X162420213Y-83829890D01*
X162269890Y-83980213D01*
X162144951Y-84152179D01*
X162048444Y-84341585D01*
X161982753Y-84543760D01*
X161949500Y-84753713D01*
X157850500Y-84753713D01*
X157850500Y-84673713D01*
X157817246Y-84463757D01*
X157751557Y-84261588D01*
X157655051Y-84072184D01*
X157655049Y-84072181D01*
X157655048Y-84072179D01*
X157530109Y-83900213D01*
X157379786Y-83749890D01*
X157207820Y-83624951D01*
X157207115Y-83624591D01*
X157199054Y-83620485D01*
X157148259Y-83572512D01*
X157131463Y-83504692D01*
X157153999Y-83438556D01*
X157199054Y-83399515D01*
X157207816Y-83395051D01*
X157269681Y-83350104D01*
X157379786Y-83270109D01*
X157379788Y-83270106D01*
X157379792Y-83270104D01*
X157530104Y-83119792D01*
X157530106Y-83119788D01*
X157530109Y-83119786D01*
X157655048Y-82947820D01*
X157655047Y-82947820D01*
X157655051Y-82947816D01*
X157751557Y-82758412D01*
X157817246Y-82556243D01*
X157850500Y-82346287D01*
X157850500Y-82133713D01*
X157817246Y-81923757D01*
X157751557Y-81721588D01*
X157655051Y-81532184D01*
X157655049Y-81532181D01*
X157655048Y-81532179D01*
X157530109Y-81360213D01*
X157379786Y-81209890D01*
X157207820Y-81084951D01*
X157207115Y-81084591D01*
X157199054Y-81080485D01*
X157148259Y-81032512D01*
X157131463Y-80964692D01*
X157153999Y-80898556D01*
X157199054Y-80859515D01*
X157207816Y-80855051D01*
X157282871Y-80800521D01*
X157379786Y-80730109D01*
X157379788Y-80730106D01*
X157379792Y-80730104D01*
X157530104Y-80579792D01*
X157530106Y-80579788D01*
X157530109Y-80579786D01*
X157655048Y-80407820D01*
X157655047Y-80407820D01*
X157655051Y-80407816D01*
X157751557Y-80218412D01*
X157817246Y-80016243D01*
X157850500Y-79806287D01*
X157850500Y-79593713D01*
X157817246Y-79383757D01*
X157751557Y-79181588D01*
X157655051Y-78992184D01*
X157655049Y-78992181D01*
X157655048Y-78992179D01*
X157530109Y-78820213D01*
X157379786Y-78669890D01*
X157207820Y-78544951D01*
X157207115Y-78544591D01*
X157199054Y-78540485D01*
X157148259Y-78492512D01*
X157131463Y-78424692D01*
X157153999Y-78358556D01*
X157199054Y-78319515D01*
X157207816Y-78315051D01*
X157235798Y-78294721D01*
X157379786Y-78190109D01*
X157379788Y-78190106D01*
X157379792Y-78190104D01*
X157530104Y-78039792D01*
X157530106Y-78039788D01*
X157530109Y-78039786D01*
X157655048Y-77867820D01*
X157655047Y-77867820D01*
X157655051Y-77867816D01*
X157751557Y-77678412D01*
X157817246Y-77476243D01*
X157850500Y-77266287D01*
X157850500Y-77053713D01*
X157817246Y-76843757D01*
X157751557Y-76641588D01*
X157655051Y-76452184D01*
X157655049Y-76452181D01*
X157655048Y-76452179D01*
X157530109Y-76280213D01*
X157379786Y-76129890D01*
X157207820Y-76004951D01*
X157207115Y-76004591D01*
X157199054Y-76000485D01*
X157148259Y-75952512D01*
X157131463Y-75884692D01*
X157153999Y-75818556D01*
X157199054Y-75779515D01*
X157207816Y-75775051D01*
X157229789Y-75759086D01*
X157379786Y-75650109D01*
X157379788Y-75650106D01*
X157379792Y-75650104D01*
X157530104Y-75499792D01*
X157530106Y-75499788D01*
X157530109Y-75499786D01*
X157655048Y-75327820D01*
X157655047Y-75327820D01*
X157655051Y-75327816D01*
X157751557Y-75138412D01*
X157817246Y-74936243D01*
X157850500Y-74726287D01*
X157850500Y-74513713D01*
X157817246Y-74303757D01*
X157751557Y-74101588D01*
X157655051Y-73912184D01*
X157655049Y-73912181D01*
X157655048Y-73912179D01*
X157530109Y-73740213D01*
X157379786Y-73589890D01*
X157207820Y-73464951D01*
X157207115Y-73464591D01*
X157199054Y-73460485D01*
X157148259Y-73412512D01*
X157131463Y-73344692D01*
X157153999Y-73278556D01*
X157199054Y-73239515D01*
X157207816Y-73235051D01*
X157229789Y-73219086D01*
X157379786Y-73110109D01*
X157379788Y-73110106D01*
X157379792Y-73110104D01*
X157530104Y-72959792D01*
X157530106Y-72959788D01*
X157530109Y-72959786D01*
X157655048Y-72787820D01*
X157655047Y-72787820D01*
X157655051Y-72787816D01*
X157751557Y-72598412D01*
X157817246Y-72396243D01*
X157850500Y-72186287D01*
X157850500Y-71973713D01*
X157817246Y-71763757D01*
X157751557Y-71561588D01*
X157655051Y-71372184D01*
X157655049Y-71372181D01*
X157655048Y-71372179D01*
X157530109Y-71200213D01*
X157379786Y-71049890D01*
X157207820Y-70924951D01*
X157207115Y-70924591D01*
X157199054Y-70920485D01*
X157148259Y-70872512D01*
X157131463Y-70804692D01*
X157153999Y-70738556D01*
X157199054Y-70699515D01*
X157207816Y-70695051D01*
X157229789Y-70679086D01*
X157379786Y-70570109D01*
X157379788Y-70570106D01*
X157379792Y-70570104D01*
X157530104Y-70419792D01*
X157530106Y-70419788D01*
X157530109Y-70419786D01*
X157655048Y-70247820D01*
X157655047Y-70247820D01*
X157655051Y-70247816D01*
X157751557Y-70058412D01*
X157817246Y-69856243D01*
X157850500Y-69646287D01*
X157850500Y-69433713D01*
X157817246Y-69223757D01*
X157751557Y-69021588D01*
X157655051Y-68832184D01*
X157655049Y-68832181D01*
X157655048Y-68832179D01*
X157530109Y-68660213D01*
X157379786Y-68509890D01*
X157207820Y-68384951D01*
X157207115Y-68384591D01*
X157199054Y-68380485D01*
X157148259Y-68332512D01*
X157131463Y-68264692D01*
X157153999Y-68198556D01*
X157199054Y-68159515D01*
X157207816Y-68155051D01*
X157229789Y-68139086D01*
X157379786Y-68030109D01*
X157379788Y-68030106D01*
X157379792Y-68030104D01*
X157530104Y-67879792D01*
X157530106Y-67879788D01*
X157530109Y-67879786D01*
X157655048Y-67707820D01*
X157655047Y-67707820D01*
X157655051Y-67707816D01*
X157751557Y-67518412D01*
X157817246Y-67316243D01*
X157850500Y-67106287D01*
X157850500Y-66893713D01*
X157817246Y-66683757D01*
X157751557Y-66481588D01*
X157655051Y-66292184D01*
X157655049Y-66292181D01*
X157655048Y-66292179D01*
X157530109Y-66120213D01*
X157379786Y-65969890D01*
X157207820Y-65844951D01*
X157207115Y-65844591D01*
X157199054Y-65840485D01*
X157148259Y-65792512D01*
X157131463Y-65724692D01*
X157153999Y-65658556D01*
X157199054Y-65619515D01*
X157207816Y-65615051D01*
X157229789Y-65599086D01*
X157379786Y-65490109D01*
X157379788Y-65490106D01*
X157379792Y-65490104D01*
X157530104Y-65339792D01*
X157530106Y-65339788D01*
X157530109Y-65339786D01*
X157655048Y-65167820D01*
X157655047Y-65167820D01*
X157655051Y-65167816D01*
X157751557Y-64978412D01*
X157817246Y-64776243D01*
X157850500Y-64566287D01*
X157850500Y-64353713D01*
X157817246Y-64143757D01*
X157751557Y-63941588D01*
X157655051Y-63752184D01*
X157655049Y-63752181D01*
X157655048Y-63752179D01*
X157530109Y-63580213D01*
X157379786Y-63429890D01*
X157207820Y-63304951D01*
X157207115Y-63304591D01*
X157199054Y-63300485D01*
X157148259Y-63252512D01*
X157131463Y-63184692D01*
X157153999Y-63118556D01*
X157199054Y-63079515D01*
X157207816Y-63075051D01*
X157262572Y-63035269D01*
X157379786Y-62950109D01*
X157379788Y-62950106D01*
X157379792Y-62950104D01*
X157530104Y-62799792D01*
X157530106Y-62799788D01*
X157530109Y-62799786D01*
X157655048Y-62627820D01*
X157655047Y-62627820D01*
X157655051Y-62627816D01*
X157751557Y-62438412D01*
X157817246Y-62236243D01*
X157850500Y-62026287D01*
X157850500Y-61919808D01*
X157870185Y-61852769D01*
X157922989Y-61807014D01*
X157992147Y-61797070D01*
X158055703Y-61826095D01*
X158062181Y-61832127D01*
X160013181Y-63783127D01*
X160046666Y-63844450D01*
X160049500Y-63870808D01*
X160049500Y-77864069D01*
X160061912Y-77926465D01*
X160074499Y-77989744D01*
X160123535Y-78108127D01*
X160178313Y-78190109D01*
X160194726Y-78214673D01*
X167345325Y-85365272D01*
X167345332Y-85365278D01*
X167447208Y-85433349D01*
X167447209Y-85433349D01*
X167451872Y-85436465D01*
X167500908Y-85456776D01*
X167570256Y-85485501D01*
X167570260Y-85485501D01*
X167570261Y-85485502D01*
X167695928Y-85510500D01*
X167695931Y-85510500D01*
X167824069Y-85510500D01*
X172040382Y-85510500D01*
X172107421Y-85530185D01*
X172141099Y-85564591D01*
X172142085Y-85563875D01*
X172269890Y-85739786D01*
X172420213Y-85890109D01*
X172592182Y-86015050D01*
X172600946Y-86019516D01*
X172651742Y-86067491D01*
X172668536Y-86135312D01*
X172645998Y-86201447D01*
X172600946Y-86240484D01*
X172592182Y-86244949D01*
X172420213Y-86369890D01*
X172269890Y-86520213D01*
X172144951Y-86692179D01*
X172048444Y-86881585D01*
X171982753Y-87083760D01*
X171949500Y-87293713D01*
X171949500Y-87506286D01*
X171980225Y-87700279D01*
X171982754Y-87716243D01*
X172027072Y-87852640D01*
X172048444Y-87918414D01*
X172144951Y-88107820D01*
X172269890Y-88279786D01*
X172420213Y-88430109D01*
X172592182Y-88555050D01*
X172600946Y-88559516D01*
X172651742Y-88607491D01*
X172668536Y-88675312D01*
X172645998Y-88741447D01*
X172600946Y-88780484D01*
X172592182Y-88784949D01*
X172420213Y-88909890D01*
X172269890Y-89060213D01*
X172144951Y-89232179D01*
X172048444Y-89421585D01*
X171982753Y-89623760D01*
X171949500Y-89833713D01*
X171949500Y-90046286D01*
X171977077Y-90220404D01*
X171982754Y-90256243D01*
X172023085Y-90380369D01*
X172048444Y-90458414D01*
X172144951Y-90647820D01*
X172269890Y-90819786D01*
X172420213Y-90970109D01*
X172592179Y-91095048D01*
X172592181Y-91095049D01*
X172592184Y-91095051D01*
X172601493Y-91099794D01*
X172652290Y-91147766D01*
X172669087Y-91215587D01*
X172646552Y-91281722D01*
X172601505Y-91320760D01*
X172592446Y-91325376D01*
X172592440Y-91325380D01*
X172538282Y-91364727D01*
X172538282Y-91364728D01*
X173170591Y-91997037D01*
X173107007Y-92014075D01*
X172992993Y-92079901D01*
X172899901Y-92172993D01*
X172834075Y-92287007D01*
X172817037Y-92350591D01*
X172184728Y-91718282D01*
X172184727Y-91718282D01*
X172145380Y-91772439D01*
X172048904Y-91961782D01*
X171983242Y-92163869D01*
X171983242Y-92163872D01*
X171950000Y-92373753D01*
X171950000Y-92586246D01*
X171983242Y-92796127D01*
X171983242Y-92796130D01*
X172048904Y-92998217D01*
X172145375Y-93187550D01*
X172184728Y-93241716D01*
X172817037Y-92609408D01*
X172834075Y-92672993D01*
X172899901Y-92787007D01*
X172992993Y-92880099D01*
X173107007Y-92945925D01*
X173170590Y-92962962D01*
X172538282Y-93595269D01*
X172538282Y-93595270D01*
X172592452Y-93634626D01*
X172592451Y-93634626D01*
X172601495Y-93639234D01*
X172652292Y-93687208D01*
X172669087Y-93755029D01*
X172646550Y-93821164D01*
X172601499Y-93860202D01*
X172592182Y-93864949D01*
X172416266Y-93992759D01*
X172415635Y-93991891D01*
X172356581Y-94018359D01*
X172339800Y-94019500D01*
X171184675Y-94019500D01*
X171184655Y-94019499D01*
X171178541Y-94019499D01*
X170981460Y-94019499D01*
X170981457Y-94019499D01*
X170788172Y-94057946D01*
X170788164Y-94057948D01*
X170606088Y-94133366D01*
X170606079Y-94133371D01*
X170442219Y-94242859D01*
X170442215Y-94242862D01*
X167521322Y-97163757D01*
X166712220Y-97972859D01*
X166712218Y-97972861D01*
X166642538Y-98042540D01*
X166572859Y-98112219D01*
X166463371Y-98276079D01*
X166463364Y-98276092D01*
X166430467Y-98355513D01*
X166430461Y-98355529D01*
X166428696Y-98359792D01*
X166387949Y-98458164D01*
X166376150Y-98517483D01*
X166374674Y-98524900D01*
X166374673Y-98524905D01*
X166349500Y-98651456D01*
X166349500Y-112284217D01*
X166329815Y-112351256D01*
X166313181Y-112371898D01*
X165021899Y-113663181D01*
X164960576Y-113696666D01*
X164934218Y-113699500D01*
X162964782Y-113699500D01*
X162897743Y-113679815D01*
X162851988Y-113627011D01*
X162842044Y-113557853D01*
X162871069Y-113494297D01*
X162877101Y-113487819D01*
X163993023Y-112371898D01*
X165127140Y-111237781D01*
X165236632Y-111073914D01*
X165312052Y-110891835D01*
X165350501Y-110698540D01*
X165350501Y-110501459D01*
X165350501Y-110496349D01*
X165350500Y-110496323D01*
X165350500Y-109216976D01*
X165370185Y-109149937D01*
X165422989Y-109104182D01*
X165450135Y-109096736D01*
X165449932Y-109095876D01*
X165457479Y-109094092D01*
X165457481Y-109094091D01*
X165457483Y-109094091D01*
X165592331Y-109043796D01*
X165707546Y-108957546D01*
X165793796Y-108842331D01*
X165844091Y-108707483D01*
X165850500Y-108647873D01*
X165850499Y-106552128D01*
X165844091Y-106492517D01*
X165842613Y-106488555D01*
X165793797Y-106357671D01*
X165793793Y-106357664D01*
X165707547Y-106242455D01*
X165707544Y-106242452D01*
X165592335Y-106156206D01*
X165592328Y-106156202D01*
X165457482Y-106105908D01*
X165457483Y-106105908D01*
X165397883Y-106099501D01*
X165397881Y-106099500D01*
X165397873Y-106099500D01*
X165397864Y-106099500D01*
X163302129Y-106099500D01*
X163302123Y-106099501D01*
X163242516Y-106105908D01*
X163107671Y-106156202D01*
X163107664Y-106156206D01*
X162992455Y-106242452D01*
X162992452Y-106242455D01*
X162906206Y-106357664D01*
X162906202Y-106357671D01*
X162855908Y-106492517D01*
X162849501Y-106552116D01*
X162849501Y-106552123D01*
X162849500Y-106552135D01*
X162849500Y-108647870D01*
X162849501Y-108647876D01*
X162855908Y-108707483D01*
X162906202Y-108842328D01*
X162906206Y-108842335D01*
X162992452Y-108957544D01*
X162992455Y-108957547D01*
X163107664Y-109043793D01*
X163107671Y-109043797D01*
X163242517Y-109094091D01*
X163250062Y-109095874D01*
X163249523Y-109098151D01*
X163303287Y-109120408D01*
X163343147Y-109177793D01*
X163349500Y-109216975D01*
X163349500Y-110134217D01*
X163329815Y-110201256D01*
X163313181Y-110221898D01*
X161421899Y-112113181D01*
X161360576Y-112146666D01*
X161334218Y-112149500D01*
X152415783Y-112149500D01*
X152348744Y-112129815D01*
X152328102Y-112113181D01*
X149636819Y-109421898D01*
X149603334Y-109360575D01*
X149600500Y-109334217D01*
X149600500Y-66721458D01*
X149593001Y-66683755D01*
X149593001Y-66683754D01*
X149562053Y-66528172D01*
X149562052Y-66528165D01*
X149486632Y-66346086D01*
X149486631Y-66346085D01*
X149486628Y-66346079D01*
X149377140Y-66182219D01*
X149377137Y-66182215D01*
X132386818Y-49191897D01*
X132353333Y-49130574D01*
X132350499Y-49104216D01*
X132350499Y-48322129D01*
X132350498Y-48322123D01*
X132350497Y-48322116D01*
X132344091Y-48262517D01*
X132293796Y-48127669D01*
X132293795Y-48127668D01*
X132293793Y-48127664D01*
X132207547Y-48012455D01*
X132207544Y-48012452D01*
X132092335Y-47926206D01*
X132092328Y-47926202D01*
X131957482Y-47875908D01*
X131957483Y-47875908D01*
X131897883Y-47869501D01*
X131897881Y-47869500D01*
X131897873Y-47869500D01*
X131897864Y-47869500D01*
X130102129Y-47869500D01*
X130102123Y-47869501D01*
X130042516Y-47875908D01*
X129907671Y-47926202D01*
X129907664Y-47926206D01*
X129792455Y-48012452D01*
X129792452Y-48012455D01*
X129706206Y-48127664D01*
X129706202Y-48127671D01*
X129655908Y-48262517D01*
X129649501Y-48322116D01*
X129649501Y-48322123D01*
X129649500Y-48322135D01*
X128750500Y-48322135D01*
X128750500Y-37778711D01*
X143349500Y-37778711D01*
X143349500Y-38021288D01*
X143381161Y-38261785D01*
X143443947Y-38496104D01*
X143536773Y-38720205D01*
X143536776Y-38720212D01*
X143658064Y-38930289D01*
X143658066Y-38930292D01*
X143658067Y-38930293D01*
X143805733Y-39122736D01*
X143805739Y-39122743D01*
X143977256Y-39294260D01*
X143977263Y-39294266D01*
X144017891Y-39325441D01*
X144169711Y-39441936D01*
X144379788Y-39563224D01*
X144603900Y-39656054D01*
X144838211Y-39718838D01*
X145018586Y-39742584D01*
X145078711Y-39750500D01*
X145078712Y-39750500D01*
X145321289Y-39750500D01*
X145369388Y-39744167D01*
X145561789Y-39718838D01*
X145796100Y-39656054D01*
X146020212Y-39563224D01*
X146230289Y-39441936D01*
X146422738Y-39294265D01*
X146594265Y-39122738D01*
X146741936Y-38930289D01*
X146863224Y-38720212D01*
X146956054Y-38496100D01*
X147018838Y-38261789D01*
X147020388Y-38250014D01*
X152300000Y-38250014D01*
X152300000Y-39200000D01*
X153599999Y-39200000D01*
X153574979Y-39260402D01*
X153550000Y-39385981D01*
X153550000Y-39514019D01*
X153574979Y-39639598D01*
X153599999Y-39700000D01*
X152300000Y-39700000D01*
X152300000Y-40649985D01*
X152310493Y-40752689D01*
X152310494Y-40752696D01*
X152365641Y-40919118D01*
X152365643Y-40919123D01*
X152457684Y-41068344D01*
X152581655Y-41192315D01*
X152730876Y-41284356D01*
X152730881Y-41284358D01*
X152897303Y-41339505D01*
X152897310Y-41339506D01*
X153000014Y-41349999D01*
X153000027Y-41350000D01*
X153950000Y-41350000D01*
X153950000Y-40050001D01*
X154010402Y-40075021D01*
X154135981Y-40100000D01*
X154264019Y-40100000D01*
X154389598Y-40075021D01*
X154450000Y-40050001D01*
X154450000Y-41350000D01*
X155399973Y-41350000D01*
X155399985Y-41349999D01*
X155502689Y-41339506D01*
X155502696Y-41339505D01*
X155669118Y-41284358D01*
X155669123Y-41284356D01*
X155818344Y-41192315D01*
X155942315Y-41068344D01*
X156034356Y-40919123D01*
X156034358Y-40919118D01*
X156089505Y-40752696D01*
X156089506Y-40752689D01*
X156099999Y-40649985D01*
X156100000Y-40649972D01*
X156100000Y-39700000D01*
X154800001Y-39700000D01*
X154825021Y-39639598D01*
X154850000Y-39514019D01*
X154850000Y-39385981D01*
X154837958Y-39325441D01*
X157299500Y-39325441D01*
X157299500Y-39574558D01*
X157299501Y-39574575D01*
X157332017Y-39821561D01*
X157396498Y-40062207D01*
X157491830Y-40292361D01*
X157491837Y-40292376D01*
X157616400Y-40508126D01*
X157768060Y-40705774D01*
X157768066Y-40705781D01*
X157944218Y-40881933D01*
X157944225Y-40881939D01*
X158141873Y-41033599D01*
X158357623Y-41158162D01*
X158357638Y-41158169D01*
X158440075Y-41192315D01*
X158587793Y-41253502D01*
X158828435Y-41317982D01*
X159075435Y-41350500D01*
X159075442Y-41350500D01*
X159324558Y-41350500D01*
X159324565Y-41350500D01*
X159571565Y-41317982D01*
X159812207Y-41253502D01*
X160042373Y-41158164D01*
X160258127Y-41033599D01*
X160455776Y-40881938D01*
X160631938Y-40705776D01*
X160783599Y-40508127D01*
X160908164Y-40292373D01*
X161003502Y-40062207D01*
X161067982Y-39821565D01*
X161100500Y-39574565D01*
X161100500Y-39325435D01*
X161067982Y-39078435D01*
X161003502Y-38837793D01*
X160908164Y-38607627D01*
X160843776Y-38496104D01*
X160783599Y-38391873D01*
X160631939Y-38194225D01*
X160631933Y-38194218D01*
X160455781Y-38018066D01*
X160455774Y-38018060D01*
X160266775Y-37873037D01*
X160258127Y-37866401D01*
X160258122Y-37866397D01*
X160106244Y-37778711D01*
X164399500Y-37778711D01*
X164399500Y-38021288D01*
X164431161Y-38261785D01*
X164493947Y-38496104D01*
X164586773Y-38720205D01*
X164586776Y-38720212D01*
X164708064Y-38930289D01*
X164708066Y-38930292D01*
X164708067Y-38930293D01*
X164855733Y-39122736D01*
X164855739Y-39122743D01*
X165027256Y-39294260D01*
X165027263Y-39294266D01*
X165067891Y-39325441D01*
X165219711Y-39441936D01*
X165429788Y-39563224D01*
X165653900Y-39656054D01*
X165888211Y-39718838D01*
X166068586Y-39742584D01*
X166128711Y-39750500D01*
X166128712Y-39750500D01*
X166371289Y-39750500D01*
X166419388Y-39744167D01*
X166611789Y-39718838D01*
X166846100Y-39656054D01*
X167070212Y-39563224D01*
X167280289Y-39441936D01*
X167472738Y-39294265D01*
X167644265Y-39122738D01*
X167791936Y-38930289D01*
X167913224Y-38720212D01*
X168006054Y-38496100D01*
X168068838Y-38261789D01*
X168100500Y-38021288D01*
X168100500Y-37778712D01*
X168095644Y-37741830D01*
X168088002Y-37683779D01*
X168086406Y-37671653D01*
X168086406Y-37671652D01*
X187699500Y-37671652D01*
X187699500Y-37914229D01*
X187713169Y-38018062D01*
X187731162Y-38154730D01*
X187756697Y-38250027D01*
X187793947Y-38389045D01*
X187884485Y-38607623D01*
X187886776Y-38613153D01*
X188008064Y-38823230D01*
X188008066Y-38823233D01*
X188008067Y-38823234D01*
X188155733Y-39015677D01*
X188155739Y-39015684D01*
X188327256Y-39187201D01*
X188327263Y-39187207D01*
X188422653Y-39260402D01*
X188519711Y-39334877D01*
X188729788Y-39456165D01*
X188953900Y-39548995D01*
X189188211Y-39611779D01*
X189368586Y-39635525D01*
X189428711Y-39643441D01*
X189428712Y-39643441D01*
X189671289Y-39643441D01*
X189719388Y-39637108D01*
X189911789Y-39611779D01*
X190146100Y-39548995D01*
X190370212Y-39456165D01*
X190580289Y-39334877D01*
X190772738Y-39187206D01*
X190944265Y-39015679D01*
X191091936Y-38823230D01*
X191213224Y-38613153D01*
X191306054Y-38389041D01*
X191368838Y-38154730D01*
X191400500Y-37914229D01*
X191400500Y-37671653D01*
X191368838Y-37431152D01*
X191306054Y-37196841D01*
X191213224Y-36972729D01*
X191091936Y-36762652D01*
X190944265Y-36570203D01*
X190944260Y-36570197D01*
X190772743Y-36398680D01*
X190772736Y-36398674D01*
X190580293Y-36251008D01*
X190580292Y-36251007D01*
X190580289Y-36251005D01*
X190370212Y-36129717D01*
X190370205Y-36129714D01*
X190146104Y-36036888D01*
X189911785Y-35974102D01*
X189671289Y-35942441D01*
X189671288Y-35942441D01*
X189428712Y-35942441D01*
X189428711Y-35942441D01*
X189188214Y-35974102D01*
X188953895Y-36036888D01*
X188729794Y-36129714D01*
X188729785Y-36129718D01*
X188519706Y-36251008D01*
X188327263Y-36398674D01*
X188327256Y-36398680D01*
X188155739Y-36570197D01*
X188155733Y-36570204D01*
X188008067Y-36762647D01*
X187886777Y-36972726D01*
X187886773Y-36972735D01*
X187793947Y-37196836D01*
X187731161Y-37431155D01*
X187699500Y-37671652D01*
X168086406Y-37671652D01*
X168068838Y-37538211D01*
X168006054Y-37303900D01*
X167913224Y-37079788D01*
X167791936Y-36869711D01*
X167644265Y-36677262D01*
X167644260Y-36677256D01*
X167472743Y-36505739D01*
X167472736Y-36505733D01*
X167280293Y-36358067D01*
X167280292Y-36358066D01*
X167280289Y-36358064D01*
X167070212Y-36236776D01*
X167070205Y-36236773D01*
X166846104Y-36143947D01*
X166611785Y-36081161D01*
X166371289Y-36049500D01*
X166371288Y-36049500D01*
X166128712Y-36049500D01*
X166128711Y-36049500D01*
X165888214Y-36081161D01*
X165653895Y-36143947D01*
X165429794Y-36236773D01*
X165429785Y-36236777D01*
X165219706Y-36358067D01*
X165027263Y-36505733D01*
X165027256Y-36505739D01*
X164855739Y-36677256D01*
X164855733Y-36677263D01*
X164708067Y-36869706D01*
X164586777Y-37079785D01*
X164586773Y-37079794D01*
X164493947Y-37303895D01*
X164431161Y-37538214D01*
X164399500Y-37778711D01*
X160106244Y-37778711D01*
X160042376Y-37741837D01*
X160042361Y-37741830D01*
X159812207Y-37646498D01*
X159571561Y-37582017D01*
X159324575Y-37549501D01*
X159324570Y-37549500D01*
X159324565Y-37549500D01*
X159075435Y-37549500D01*
X159075429Y-37549500D01*
X159075424Y-37549501D01*
X158828438Y-37582017D01*
X158587792Y-37646498D01*
X158357638Y-37741830D01*
X158357623Y-37741837D01*
X158141873Y-37866400D01*
X157944225Y-38018060D01*
X157944218Y-38018066D01*
X157768066Y-38194218D01*
X157768060Y-38194225D01*
X157616400Y-38391873D01*
X157491837Y-38607623D01*
X157491830Y-38607638D01*
X157396498Y-38837792D01*
X157332017Y-39078438D01*
X157299501Y-39325424D01*
X157299500Y-39325441D01*
X154837958Y-39325441D01*
X154825021Y-39260402D01*
X154800001Y-39200000D01*
X156100000Y-39200000D01*
X156100000Y-38250027D01*
X156099999Y-38250014D01*
X156089506Y-38147310D01*
X156089505Y-38147303D01*
X156034358Y-37980881D01*
X156034356Y-37980876D01*
X155942315Y-37831655D01*
X155818344Y-37707684D01*
X155669123Y-37615643D01*
X155669118Y-37615641D01*
X155502696Y-37560494D01*
X155502689Y-37560493D01*
X155399985Y-37550000D01*
X154450000Y-37550000D01*
X154450000Y-38849998D01*
X154389598Y-38824979D01*
X154264019Y-38800000D01*
X154135981Y-38800000D01*
X154010402Y-38824979D01*
X153950000Y-38849998D01*
X153950000Y-37550000D01*
X153000014Y-37550000D01*
X152897310Y-37560493D01*
X152897303Y-37560494D01*
X152730881Y-37615641D01*
X152730876Y-37615643D01*
X152581655Y-37707684D01*
X152457684Y-37831655D01*
X152365643Y-37980876D01*
X152365641Y-37980881D01*
X152310494Y-38147303D01*
X152310493Y-38147310D01*
X152300000Y-38250014D01*
X147020388Y-38250014D01*
X147050500Y-38021288D01*
X147050500Y-37778712D01*
X147045644Y-37741830D01*
X147036406Y-37671653D01*
X147018838Y-37538211D01*
X146956054Y-37303900D01*
X146863224Y-37079788D01*
X146741936Y-36869711D01*
X146594265Y-36677262D01*
X146594260Y-36677256D01*
X146422743Y-36505739D01*
X146422736Y-36505733D01*
X146230293Y-36358067D01*
X146230292Y-36358066D01*
X146230289Y-36358064D01*
X146020212Y-36236776D01*
X146020205Y-36236773D01*
X145796104Y-36143947D01*
X145561785Y-36081161D01*
X145321289Y-36049500D01*
X145321288Y-36049500D01*
X145078712Y-36049500D01*
X145078711Y-36049500D01*
X144838214Y-36081161D01*
X144603895Y-36143947D01*
X144379794Y-36236773D01*
X144379785Y-36236777D01*
X144169706Y-36358067D01*
X143977263Y-36505733D01*
X143977256Y-36505739D01*
X143805739Y-36677256D01*
X143805733Y-36677263D01*
X143658067Y-36869706D01*
X143536777Y-37079785D01*
X143536773Y-37079794D01*
X143443947Y-37303895D01*
X143381161Y-37538214D01*
X143349500Y-37778711D01*
X128750500Y-37778711D01*
X128750500Y-34643226D01*
X128770185Y-34576187D01*
X128822989Y-34530432D01*
X128874500Y-34519226D01*
X193775500Y-34519226D01*
X193842539Y-34538911D01*
G37*
%TD.AperFunction*%
%TD*%
M02*
